<svg id="Ebene_1" data-name="Ebene 1" xmlns="http://www.w3.org/2000/svg" viewBox="0 0 279.015 265.83"><defs><style>.cls-1,.cls-4{fill:#e32285;}.cls-1,.cls-2,.cls-3{fill-rule:evenodd;}.cls-2,.cls-5{fill:#7ebb48;}.cls-3,.cls-6{fill:#29abe3;}.cls-7{fill:#7dbb48;}.cls-8{fill:#28abe3;}.cls-9{fill:#e32185;}.cls-10{fill:#ef7b24;}</style></defs><title>TUMi Blume_bunt</title><g id="g3968"><path id="path3970" class="cls-1" d="M200.944,68.218c-.942,1.523-1.947,3.157-3.062,4.968a119.216,119.216,0,0,1,18.68,2.593c3.917.745,11.6,4.7,11.6,4.7s-7.606.569-13.215,8.73a99.258,99.258,0,0,1-7.065,9.213l5.616.318c4.326-5.59,8.006-10.64,11.157-12.987,7.314-5.448,16.069.279,10.662-5.159C229.024,74.266,215.29,69.734,200.944,68.218Z" transform="translate(-2.45 -1.775)"/><path id="path3984" class="cls-2" d="M211.987,156.317a119.771,119.771,0,0,1,6.9,17.117c1.314,3.765,1.716,12.39,1.716,12.39s-4.284-6.3-14.156-7.078c-2.4-.189-5.58-.48-9.238-1.093l.965,4.7c6.707.9,12.642,1.574,16.126,3.076,8.375,3.61,7.778,14.06,9.784,6.658,2.257-8.327-.422-21.841-5.9-34.64Z" transform="translate(-2.45 -1.775)"/></g><g id="g4060"><g id="g4062"><path id="path4068" class="cls-2" d="M139.622,92.4c16.526-.893,23.581-2.943,30.815-15.073C177.818,64.953,171.894,56.5,186.7,40.94,166.67,52.42,172.09,65.751,162.342,76.691,152.817,87.381,139.835,91.516,139.622,92.4Z" transform="translate(-2.45 -1.775)"/><path id="path4070" class="cls-3" d="M166.662,116.972c9.036,13.865,14.339,18.95,28.462,19.15,14.407.2,18.771-9.155,39.646-4.108-19.958-11.609-28.793-.25-43.142-3.222-14.02-2.9-24.092-12.078-24.966-11.82Z" transform="translate(-2.45 -1.775)"/><path id="path4072" class="cls-1" d="M158.964,155.4c-7.489,14.758-9.242,21.893-2.354,34.224,7.028,12.579,17.315,11.679,23.382,32.28.074-23.088-14.181-25.06-18.782-38.972-4.5-13.594-1.585-26.9-2.246-27.531Z" transform="translate(-2.45 -1.775)"/><path id="path4078" class="cls-2" d="M162.778,104.041c37.678-16.695,44.216-53.469,46.369-68.112C211.06,22.913,219.8,17.786,219.8,17.786s-11.474-.228-16.582,1.176-29.4,6.814-46.854,21.754S132.172,61.6,125.2,72.552C117.64,83.5,108.78,96.44,108.78,96.44s6.094-10.853,11.754-22.553c7.693-10.828,4.516-14.844,24.53-34.293s63.7-32.64,83.344-25.864c9.632,3.322-4.163,1.609-9.7,12.387-5.136,10-5.766,36.177-16.335,54.364-12.051,20.74-40.272,24.171-39.594,23.562Z" transform="translate(-2.45 -1.775)"/><path id="path4080" class="cls-3" d="M170.055,140.547c33.3,24.281,68.415,11.557,82.172,6.1,12.228-4.85,21.038.153,21.038.153s-5.54-10.051-9.31-13.773-20.6-22.058-42.267-29.7S173.9,111.7,160.64,110.635,136.906,94.65,136.906,94.65s10.437,9.731,23.4,8.783,29.856-18.059,56.706-10.451,60.114,38.842,64.068,59.242c1.94,10-3.474-2.8-15.576-2.2-11.229.552-34.212,13.094-55.247,13.035-23.987-.067-41.069-22.791-40.2-22.508Z" transform="translate(-2.45 -1.775)"/><path id="path4082" class="cls-1" d="M137.5,198c11.509,17.559,26.663,31.214,38.447,39.795,11.19,8.15,10.387,18.3,10.387,18.3s5.934-9.823,7.272-14.949,8.8-28.872,4.588-51.454-31.147-37.195-36.854-49.215,1.977-28.547,1.977-28.547-3.209,13.9,4.093,24.656,30.567,16.826,37.4,43.883-3.581,71.481-19.271,85.109c-7.693,6.68.688-4.409-5.878-14.592-6.093-9.449-38.071-27.864-45.556-48.726-8.078-22.514-6.32-13.541-6.132-12.65Z" transform="translate(-2.45 -1.775)"/></g></g><path id="path4410" class="cls-4" d="M75.071,1.775a13.8,13.8,0,0,0-4.3.635C65.834,4,62.445,8.323,60.8,15.143c-2.861,11.869-.541,30.963,6.7,55,1.116,3.707,4.319,13.315,5.54,16.608.593,1.6.773,2.2.686,2.364L79.1,88.4c-.26-.066-.412-.472-1.258-2.77-1.352-3.67-4.4-12.785-5.452-16.291-4.038-13.468-6.247-23.545-7.345-33.572-.215-1.964-.4-10.891-.254-11.983.032-.23.12-1.013.2-1.741.631-5.5,2.5-9.75,5.248-11.907a10.21,10.21,0,0,1,6-2.224c.282-.012.574-.02.865-.012a19.308,19.308,0,0,1,6.76,1.627c5.834,2.4,12.562,7.385,20.446,15.16a207.61,207.61,0,0,1,17.028,19.086c3.672,4.587,9.334,12.094,9.517,12.618l3.419-4.892a37.257,37.257,0,0,1-2.834-3.52c-3.952-5.241-7.615-9.8-11.449-14.245A172.135,172.135,0,0,0,99.8,13.669C90.162,5.844,81.706,1.794,75.071,1.775Z" transform="translate(-2.45 -1.775)"/><path id="path4432" class="cls-5" d="M137.54,47.394c-.056.075-.109.141-.165.216-1.461,1.952-2.73,3.562-3.024,3.838l-3.482,4.968v.012a18.937,18.937,0,0,1-1.436,2.071,226.624,226.624,0,0,0-15.2,23.75c-.866,1.531-1.621,2.8-1.741,2.936l6.735-.648c-.141-.02-.2-.061-.2-.128,0-.513,8.081-13.235,12.58-19.81,1.678-2.452,2.225-3.258,2.453-3.533.01-.014.015-.025.025-.038.078-.112.136-.2.216-.318.667-.961,1.392-1.993,2.135-3.062.855-1.23,1.663-2.4,2.376-3.469.643-.968,1.192-1.823,1.7-2.592-.483-.686-.956-1.367-1.474-2.1s-1.013-1.428-1.5-2.1Z" transform="translate(-2.45 -1.775)"/><path id="path4430" class="cls-6" d="M132.559,84.309c-2.084,0-4.084,0-5.756.012-2.23.01-3.879.032-4.4.063-.671.041-1.706.1-2.3.14-.306.02-.509.029-.674.025l-6.963.674c-.007,0-.068.008-.089.012-.256.047-1.565.124-3.139.19a240.853,240.853,0,0,0-26.71,2.516c-1.489.236-2.811.433-3.139.458v.012l-5.8.762a22.278,22.278,0,0,1-2.694.559c-5.941.979-12.147,2.232-17.9,3.635-30.043,7.32-48.059,18.458-50.359,31.12a16.3,16.3,0,0,0,.508,7.116,22.749,22.749,0,0,0,2.745,5.35,37.517,37.517,0,0,0,8.5,8.043c11.674,8.217,32.027,15.058,56.293,18.922,1.8.286,3.328.565,3.393.622l1.792-5.578c-.175.114-.72.074-2.618-.2a251.65,251.65,0,0,1-24.842-4.892C23.891,147.535,9.59,138.58,8.155,128.655c-1.391-9.624,9.637-18.777,31.1-25.809a213.009,213.009,0,0,1,31.234-7.37c3.243-.535,4.472-.743,4.994-.788v-.012l6.277-.5c.636-.169,2.043-.393,4.982-.813A151.09,151.09,0,0,1,103.9,91.83c1.21-.044,2.2-.062,2.9-.063.52,0,.868.005,1.029.025h.012l7.548-.508h.012a77.073,77.073,0,0,1,9.886-.864c1.094-.045,2.862-.077,4.943-.089,4.047-.024,9.154.013,13.025.089a75.331,75.331,0,0,0,9.963-5.77c-1.125-.057-2.22-.105-3.215-.139-.148-.006-.25-.009-.394-.012-.408.017-1.307,0-2.313-.051-1.451-.077-8.488-.133-14.74-.14Z" transform="translate(-2.45 -1.775)"/><path id="path4428" class="cls-5" d="M115.277,91.323l-7.345.5c.081.081-.234.67-.838,1.563a81.61,81.61,0,0,0-4.575,7.865c-.975,1.83-2.48,4.618-3.342,6.189a115.916,115.916,0,0,0-6.214,12.923c-.072.179-.183.305-.254.28l3.075,6.341c.112-.548,8.781-17.669,10.992-21.7,3.9-7.12,7.732-13.617,8.184-13.851a1.767,1.767,0,0,1,.317-.1Z" transform="translate(-2.45 -1.775)"/><path id="path4426" class="cls-5" d="M90.053,127.043l-2.4,4.765A246.507,246.507,0,0,0,76.889,156.6a22.126,22.126,0,0,1-.954,2.288l-1.88,5.858c-.11.483-.545,1.82-1.106,3.367-7.476,20.639-11.873,38.523-13.05,53.053a100.1,100.1,0,0,0-.076,11.843c.511,5.61,1.859,10.163,3.926,13.292a13.665,13.665,0,0,0,7.459,5.515,18.077,18.077,0,0,0,6.24.356c6.314-.834,13.928-4.782,22.492-11.653,10.425-8.365,21.245-20.056,33-35.682.7-.926,1.285-1.682,1.335-1.7l-3.406-5.121a67.245,67.245,0,0,1-4.181,5.884c-17.761,23.91-33.967,39.064-45.479,42.531a13.472,13.472,0,0,1-4.943.775,9.222,9.222,0,0,1-2.974-.305c-5.4-1.544-8.316-6.589-9-15.5a63.021,63.021,0,0,1,.2-10.445c1.155-12.3,5.114-27.918,11.83-46.725,1.3-3.629,2.823-7.606,3.165-8.285l.012-.025,1.842-6.227c.016-.714,3.482-9.487,5.973-15.071,2.535-5.682,5.149-11.065,5.387-11.106a.108.108,0,0,1,.039.012l-2.694-6.481Z" transform="translate(-2.45 -1.775)"/><path id="path4408" class="cls-6" d="M81.349,159.752l-1.767,6.036a.351.351,0,0,1,.229-.1,6.849,6.849,0,0,1,1.36.165,205.243,205.243,0,0,0,26.367,2.732c2.069.085,3.9.183,4.067.216a.349.349,0,0,1,.089.051l-3.724-6.3a.07.07,0,0,1,0,.025c-.086.139-.513.123-5.654-.2-5.853-.372-13.538-1.244-18.731-2.122a12.432,12.432,0,0,1-2.236-.5Z" transform="translate(-2.45 -1.775)"/><path id="path4406" class="cls-4" d="M81.59,94.233l-5.807.445c.1.013.123.06.165.114.073.095.812,1.921,1.639,4.066A253.911,253.911,0,0,0,88.2,123.32l1.855,3.672.012.026,2.732,6.544a8.123,8.123,0,0,1,.941,1.906,216.641,216.641,0,0,0,13.2,25.275,16.11,16.11,0,0,1,.991,1.677l3.837,6.494a13.324,13.324,0,0,1,1.563,2.35c4.8,8.13,11.392,18.177,16.532,25.224.415.568.775,1.1.928,1.36l.026.038,3.469,5.235.038.039c.112.107.988,1.266,2.058,2.706,1.658,2.23,3.3,4.357,4.931,6.43.3-.519.609-1.04.94-1.563a20.376,20.376,0,0,1,1.671-2.316c-1.022-1.341-1.429-3.631-2.459-5.029a29.214,29.214,0,0,1-1.741-2.4c-.025-.035-.051-.068-.076-.1-.118-.163-.238-.319-.356-.483-.827-1.149-1.532-2.172-1.563-2.287a.313.313,0,0,1,.026-.064c-.355-.5-.7-.976-1.068-1.5-.863-1.215-1.688-2.351-2.452-3.38l-.077-.1c-.915-.834-5.63-7.8-11.627-17.206-2.156-3.383-3.926-6.186-3.926-6.239h.012l-3.635-6.836-.673-1.017c-3.1-4.616-8.913-15.192-14.232-25.885-2.23-4.483-4.007-8.17-4.219-8.7l-.089-.178-3.164-6.481.012-.012c-.177-.267-.614-1.078-1.1-2.071-3.394-6.859-6.657-14.345-9.112-20.929-.62-1.664-1.118-3.052-1.118-3.088,0-.062.092-.122.3-.19Z" transform="translate(-2.45 -1.775)"/><path id="path4309" class="cls-6" d="M115.125,162.979l3.532,6.621a1.216,1.216,0,0,1,.293-.026c.208,0,.5.016.813.038,2.591.185,21.818.249,25.923.089,1.144-.044,2.193-.073,2.961-.089a.209.209,0,0,0,.025,0c.93-.064,1.965-.1,3.088-.088.423-.027.9-.062,1.347-.089a45.8,45.8,0,0,1,2.224-6.328c-.837.04-1.7.081-2.453.114-.68.03-1.309.045-1.906.064-1.036.092-2.318.191-3.876.279-4.289.243-16.9.175-22.67-.127-2.852-.149-6.122-.318-7.255-.369l-2.046-.088Z" transform="translate(-2.45 -1.775)"/><path class="cls-7" d="M136.275,109.239V121l-1.34,3.24h-3.32l-1.34-3.24v-11.76a1,1,0,0,1,1-1h4A1,1,0,0,1,136.275,109.239Z" transform="translate(-2.45 -1.775)"/><path class="cls-8" d="M121.982,112.927,130.277,121l1.343,3.239-2.348,2.347-3.238-1.343-8.071-8.3a1,1,0,0,1,.009-1.405l2.605-2.6A1,1,0,0,1,121.982,112.927Z" transform="translate(-2.45 -1.775)"/><path class="cls-9" d="M114.275,125.239h11.76l3.24,1.34v3.32l-3.24,1.34h-11.76a1,1,0,0,1-1-1v-4A1,1,0,0,1,114.275,125.239Z" transform="translate(-2.45 -1.775)"/><path class="cls-10" d="M117.743,139.528l8.291-8.291,3.238-1.343,2.348,2.347-1.343,3.239-8.319,8.094a1,1,0,0,1-1.38.015l-2.81-2.623A1,1,0,0,1,117.743,139.528Z" transform="translate(-2.45 -1.775)"/><path class="cls-8" d="M130.275,147.239v-11.76l1.34-3.24h3.32l1.34,3.24v11.76a1,1,0,0,1-1,1h-4A1,1,0,0,1,130.275,147.239Z" transform="translate(-2.45 -1.775)"/><path class="cls-7" d="M144.568,143.551l-8.3-8.071-1.344-3.239,2.348-2.347,3.238,1.343,8.072,8.3a1,1,0,0,1-.01,1.4l-2.6,2.6A1,1,0,0,1,144.568,143.551Z" transform="translate(-2.45 -1.775)"/><path class="cls-10" d="M152.275,131.239h-11.76l-3.24-1.34v-3.32l3.24-1.34h11.76a1,1,0,0,1,1,1v4A1,1,0,0,1,152.275,131.239Z" transform="translate(-2.45 -1.775)"/><path class="cls-9" d="M148.587,116.946l-8.072,8.3-3.238,1.343-2.348-2.347L136.273,121l8.3-8.071a1,1,0,0,1,1.4.009l2.6,2.6A1,1,0,0,1,148.587,116.946Z" transform="translate(-2.45 -1.775)"/></svg>