<svg viewBox="0 0 144 80" xmlns="http://www.w3.org/2000/svg">
  <defs>
    <style>
      .cls-1 {
        fill: #7dbb48;
      }

      .cls-2 {
        fill: #28abe3;
      }

      .cls-3 {
        fill: #e32185;
      }

      .cls-4 {
        fill: #ef7b24;
      }
    </style>
  </defs>
  <title>DE-tumi_muenchen-logo-colour</title>
  <g fill="#ffffff" id="logo">
    <g>
      <g>
        <g>
          <path d="M12.54,60.19v.71H8V54.66h4.4v.71H8.76v2h2.83v.71H8.76v2.09Z"/>
          <path
            d="M16.73,56.18l-.15.73a1.31,1.31,0,0,0-.6-.12,1.16,1.16,0,0,0-.6.18,1.23,1.23,0,0,0-.47.53,1.84,1.84,0,0,0-.19.85V60.9H14V56.18h.62l.11.77a1.51,1.51,0,0,1,1.52-.87A1.07,1.07,0,0,1,16.73,56.18Z"/>
          <path
            d="M22.28,60.31l-.05.59a1.56,1.56,0,0,1-.57.1.91.91,0,0,1-.58-.16.74.74,0,0,1-.27-.54,1.52,1.52,0,0,1-.64.52,2.28,2.28,0,0,1-.89.18,1.92,1.92,0,0,1-1.16-.33,1.06,1.06,0,0,1-.46-.94,1.17,1.17,0,0,1,.48-.93,2.85,2.85,0,0,1,1.37-.54l1.27-.21v-.27a1,1,0,0,0-.3-.75,1.11,1.11,0,0,0-.81-.29,1.52,1.52,0,0,0-.83.23,1.44,1.44,0,0,0-.53.67l-.56-.4a1.55,1.55,0,0,1,.71-.85,2.34,2.34,0,0,1,1.21-.31,2.11,2.11,0,0,1,1.35.41,1.42,1.42,0,0,1,.52,1.2V60a.3.3,0,0,0,.36.34A1.65,1.65,0,0,0,22.28,60.31Zm-1.93-.26a.86.86,0,0,0,.43-.73v-.66l-1.07.2a2.66,2.66,0,0,0-.95.33.62.62,0,0,0-.31.54.51.51,0,0,0,.23.45,1,1,0,0,0,.63.16A1.87,1.87,0,0,0,20.35,60.05Z"/>
          <path
            d="M24.06,60.73a1.7,1.7,0,0,1-.81-.8l.62-.43a1.19,1.19,0,0,0,.56.63,2,2,0,0,0,.94.21,1.56,1.56,0,0,0,.86-.2.59.59,0,0,0,.29-.5.49.49,0,0,0-.27-.44,3.13,3.13,0,0,0-1-.29,4.74,4.74,0,0,1-1.09-.3,1.32,1.32,0,0,1-.57-.44,1.13,1.13,0,0,1-.19-.67,1.23,1.23,0,0,1,.23-.71,1.6,1.6,0,0,1,.66-.52,2.5,2.5,0,0,1,1-.19,2.32,2.32,0,0,1,1.22.28,1.62,1.62,0,0,1,.66.86l-.65.37a1.15,1.15,0,0,0-.46-.65,1.59,1.59,0,0,0-1.56,0,.59.59,0,0,0-.33.48.57.57,0,0,0,.28.49,3.28,3.28,0,0,0,1,.29,3.2,3.2,0,0,1,1.39.48,1.08,1.08,0,0,1,.41.91,1.16,1.16,0,0,1-.24.72,1.59,1.59,0,0,1-.69.5A2.85,2.85,0,0,1,25.3,61,2.79,2.79,0,0,1,24.06,60.73Z"/>
          <path
            d="M35.17,56.27a1.51,1.51,0,0,1,.67.61,1.83,1.83,0,0,1,.26,1v3h-.76V58A1.19,1.19,0,0,0,35,57a1.13,1.13,0,0,0-.81-.3,1.29,1.29,0,0,0-.7.19,1.33,1.33,0,0,0-.51.54,1.71,1.71,0,0,0-.2.84V60.9h-.76V58a1.19,1.19,0,0,0-.31-.91,1.09,1.09,0,0,0-.81-.3,1.31,1.31,0,0,0-.66.18,1.4,1.4,0,0,0-.54.54,1.84,1.84,0,0,0-.2.92V60.9h-.76V56.18h.66l.05.73a1.61,1.61,0,0,1,.65-.62,1.86,1.86,0,0,1,.87-.21,2,2,0,0,1,1,.24,1.54,1.54,0,0,1,.67.69,1.44,1.44,0,0,1,.69-.69,2.11,2.11,0,0,1,1-.24A2.17,2.17,0,0,1,35.17,56.27Z"/>
          <path
            d="M42,56.18V60.9h-.67l-.05-.71a2.12,2.12,0,0,1-2.95.38,1.62,1.62,0,0,1-.49-1.3V56.18h.76v2.89a1.37,1.37,0,0,0,.28,1,1.14,1.14,0,0,0,.84.29,1.59,1.59,0,0,0,1.09-.4,1.56,1.56,0,0,0,.43-1.19V56.18Z"/>
          <path
            d="M44.2,60.73a1.7,1.7,0,0,1-.81-.8L44,59.5a1.12,1.12,0,0,0,.56.63,2,2,0,0,0,.94.21,1.52,1.52,0,0,0,.85-.2.58.58,0,0,0,.3-.5.48.48,0,0,0-.28-.44,3,3,0,0,0-1-.29,4.79,4.79,0,0,1-1.08-.3,1.29,1.29,0,0,1-.58-.44,1.2,1.2,0,0,1-.18-.67,1.23,1.23,0,0,1,.23-.71,1.63,1.63,0,0,1,.65-.52,2.57,2.57,0,0,1,1-.19,2.27,2.27,0,0,1,1.22.28,1.53,1.53,0,0,1,.66.86l-.64.37a1.2,1.2,0,0,0-.46-.65,1.46,1.46,0,0,0-.78-.2,1.43,1.43,0,0,0-.79.21.59.59,0,0,0-.32.48.55.55,0,0,0,.28.49,3.19,3.19,0,0,0,1,.29,3.25,3.25,0,0,1,1.4.48,1.11,1.11,0,0,1,.41.91,1.16,1.16,0,0,1-.24.72,1.68,1.68,0,0,1-.7.5,2.82,2.82,0,0,1-1,.18A2.74,2.74,0,0,1,44.2,60.73Z"/>
        </g>
        <g>
          <path
            d="M58.48,55.89l-.66.53a2.06,2.06,0,0,0-.68-.88,1.88,1.88,0,0,0-1.08-.26,2,2,0,0,0-1.13.29.91.91,0,0,0-.42.77.81.81,0,0,0,.16.5,1.26,1.26,0,0,0,.54.34,5,5,0,0,0,1,.26,3.87,3.87,0,0,1,1.76.63,1.37,1.37,0,0,1,.52,1.15,1.52,1.52,0,0,1-.3.93,1.92,1.92,0,0,1-.85.63,3.75,3.75,0,0,1-2.89-.15,2.54,2.54,0,0,1-1-1l.65-.53a1.93,1.93,0,0,0,.76.86,2.3,2.3,0,0,0,1.25.31A2.24,2.24,0,0,0,57.31,60a.84.84,0,0,0,.43-.76.73.73,0,0,0-.38-.66A3.68,3.68,0,0,0,56,58.18a4.11,4.11,0,0,1-1.77-.62,1.35,1.35,0,0,1-.52-1.14A1.61,1.61,0,0,1,54,55.5a1.92,1.92,0,0,1,.82-.68,2.79,2.79,0,0,1,1.23-.25A2.58,2.58,0,0,1,58.48,55.89Z"/>
          <path
            d="M63.12,60.57a1.76,1.76,0,0,1-1.23.43,1.38,1.38,0,0,1-.94-.31,1.22,1.22,0,0,1-.38-1v-2.9h-1v-.65h1V55l.76-.21v1.35h1.76v.65H61.33V59.6a.67.67,0,0,0,.2.52.77.77,0,0,0,.51.17,1.11,1.11,0,0,0,.81-.35Z"/>
          <path
            d="M68.48,56.18V60.9h-.66l0-.71a1.8,1.8,0,0,1-1.7.81,1.84,1.84,0,0,1-1.26-.43,1.62,1.62,0,0,1-.49-1.3V56.18h.76v2.89a1.37,1.37,0,0,0,.29,1,1.12,1.12,0,0,0,.83.29,1.57,1.57,0,0,0,1.09-.4,1.52,1.52,0,0,0,.43-1.19V56.18Z"/>
          <path
            d="M74.53,54v6.9h-.66l-.05-.82a1.59,1.59,0,0,1-.64.67,1.91,1.91,0,0,1-1,.25,2,2,0,0,1-1.59-.66,3.08,3.08,0,0,1,0-3.6,2,2,0,0,1,1.59-.66,1.91,1.91,0,0,1,.93.23,1.61,1.61,0,0,1,.64.6V54Zm-1.16,5.86a1.85,1.85,0,0,0,.4-1.26v-.12a1.85,1.85,0,0,0-.4-1.26,1.35,1.35,0,0,0-1.09-.48,1.33,1.33,0,0,0-1.09.49,2.35,2.35,0,0,0,0,2.62,1.33,1.33,0,0,0,1.09.49A1.35,1.35,0,0,0,73.37,59.86Z"/>
          <path
            d="M80.4,58.82H76.82a1.76,1.76,0,0,0,.48,1.12,1.51,1.51,0,0,0,1.07.4,1.87,1.87,0,0,0,.87-.18,1,1,0,0,0,.47-.52l.64.33a2,2,0,0,1-.76.76,2.45,2.45,0,0,1-1.22.27,2.2,2.2,0,0,1-1.68-.65,2.55,2.55,0,0,1-.62-1.81,2.63,2.63,0,0,1,.59-1.81,2.12,2.12,0,0,1,1.65-.65,2.21,2.21,0,0,1,1.15.29,2,2,0,0,1,.74.8,2.56,2.56,0,0,1,.24,1.12A3.08,3.08,0,0,1,80.4,58.82Zm-3.1-1.71a1.74,1.74,0,0,0-.47,1h2.88a1.72,1.72,0,0,0-.44-1,1.27,1.27,0,0,0-1-.38A1.44,1.44,0,0,0,77.3,57.11Z"/>
          <path
            d="M85.61,56.55a1.66,1.66,0,0,1,.52,1.33v3h-.76V58.14a1.47,1.47,0,0,0-.32-1.07,1.11,1.11,0,0,0-.85-.33,1.58,1.58,0,0,0-.71.17,1.35,1.35,0,0,0-.55.54,1.9,1.9,0,0,0-.21.94V60.9H82V56.18h.67l0,.73a1.54,1.54,0,0,1,.66-.63,2.2,2.2,0,0,1,.94-.2A1.93,1.93,0,0,1,85.61,56.55Z"/>
          <path
            d="M90.79,60.57a1.72,1.72,0,0,1-1.22.43,1.41,1.41,0,0,1-.95-.31,1.21,1.21,0,0,1-.37-1v-2.9h-1v-.65h1V55l.76-.21v1.35h1.76v.65H89V59.6a.67.67,0,0,0,.19.52.79.79,0,0,0,.52.17,1.13,1.13,0,0,0,.81-.35Z"/>
        </g>
        <g>
          <path d="M101.77,60.9h-.94L98.2,56.72l-.66-1.22h0l0,1v4.4h-.73V54.66h1l2.61,4.16.67,1.25h0l0-1V54.66h.73Z"/>
          <path
            d="M107.79,58.82h-3.58a1.66,1.66,0,0,0,.48,1.12,1.49,1.49,0,0,0,1.07.4,1.87,1.87,0,0,0,.87-.18,1,1,0,0,0,.47-.52l.63.33a1.92,1.92,0,0,1-.76.76,2.41,2.41,0,0,1-1.21.27,2.22,2.22,0,0,1-1.69-.65,2.54,2.54,0,0,1-.61-1.81,2.63,2.63,0,0,1,.58-1.81,2.12,2.12,0,0,1,1.66-.65,2.23,2.23,0,0,1,1.15.29,1.94,1.94,0,0,1,.73.8,2.43,2.43,0,0,1,.25,1.12A3.08,3.08,0,0,1,107.79,58.82Zm-3.1-1.71a1.68,1.68,0,0,0-.47,1h2.88a1.72,1.72,0,0,0-.44-1,1.27,1.27,0,0,0-1-.38A1.43,1.43,0,0,0,104.69,57.11Z"/>
          <path
            d="M112.26,60.57A1.72,1.72,0,0,1,111,61a1.41,1.41,0,0,1-1-.31,1.21,1.21,0,0,1-.37-1v-2.9h-1v-.65h1V55l.76-.21v1.35h1.76v.65h-1.76V59.6a.67.67,0,0,0,.19.52.79.79,0,0,0,.52.17,1.13,1.13,0,0,0,.81-.35Z"/>
          <path
            d="M120.64,56.18,119,60.9h-.76l-1.34-3.76-1.26,3.76h-.76l-1.66-4.72h.85l1.2,3.85,1.29-3.85h.76L118.6,60l1.2-3.85Z"/>
          <path
            d="M125.54,56.73a3,3,0,0,1,0,3.62,2.22,2.22,0,0,1-1.69.65,2.18,2.18,0,0,1-1.68-.65,3,3,0,0,1,0-3.62,2.18,2.18,0,0,1,1.68-.65A2.22,2.22,0,0,1,125.54,56.73Zm-2.82.49a2.33,2.33,0,0,0,0,2.64,1.55,1.55,0,0,0,2.26,0,2.33,2.33,0,0,0,0-2.64,1.55,1.55,0,0,0-2.26,0Z"/>
          <path
            d="M130.46,56.18l-.15.73a1.31,1.31,0,0,0-.6-.12,1.13,1.13,0,0,0-.6.18,1.23,1.23,0,0,0-.47.53,1.84,1.84,0,0,0-.19.85V60.9h-.76V56.18h.62l.11.77a1.51,1.51,0,0,1,1.52-.87A1.07,1.07,0,0,1,130.46,56.18Z"/>
          <path d="M133.48,58.57l-1,1V60.9h-.76V54h.76v4.63l2.46-2.45h.95L134,58l2,2.88h-.92Z"/>
        </g>
      </g>
      <path
        d="M77,40v3a1,1,0,0,1-1,1H57a1,1,0,0,1-1-1V13a1,1,0,0,1,1-1H75a1,1,0,0,1,1,1v3a1,1,0,0,1-1,1H61v9H72a1,1,0,0,1,1,1v3a1,1,0,0,1-1,1H61v8H76A1,1,0,0,1,77,40Z"/>
      <path
        d="M116,44h-3a1,1,0,0,1-1-1l0-30a1,1,0,0,1,1-1h4.4a1,1,0,0,1,.88.52L131,36V13a1,1,0,0,1,1-1h3a1,1,0,0,1,1,1V43a1,1,0,0,1-1,1h-4.42a1,1,0,0,1-.87-.51L117,21V43A1,1,0,0,1,116,44Z"/>
      <g>
        <path class="cls-1" d="M31,9V20.76L29.66,24H26.34L25,20.76V9a1,1,0,0,1,1-1h4A1,1,0,0,1,31,9Z"/>
        <path class="cls-2"
              d="M16.71,12.69,25,20.76,26.35,24,24,26.35,20.76,25l-8.07-8.29a1,1,0,0,1,0-1.41l2.6-2.6A1,1,0,0,1,16.71,12.69Z"/>
        <path class="cls-3" d="M9,25H20.76L24,26.34v3.32L20.76,31H9a1,1,0,0,1-1-1V26A1,1,0,0,1,9,25Z"/>
        <path class="cls-4"
              d="M12.47,39.29,20.76,31,24,29.65,26.35,32,25,35.24l-8.32,8.1a1,1,0,0,1-1.38,0l-2.81-2.62A1,1,0,0,1,12.47,39.29Z"/>
        <path class="cls-2" d="M25,47V35.24L26.34,32h3.32L31,35.24V47a1,1,0,0,1-1,1H26A1,1,0,0,1,25,47Z"/>
        <path class="cls-1"
              d="M39.29,43.31,31,35.24,29.65,32,32,29.65,35.24,31l8.07,8.29a1,1,0,0,1,0,1.41l-2.6,2.6A1,1,0,0,1,39.29,43.31Z"/>
        <path class="cls-4" d="M47,31H35.24L32,29.66V26.34L35.24,25H47a1,1,0,0,1,1,1v4A1,1,0,0,1,47,31Z"/>
        <path class="cls-3"
              d="M43.31,16.71,35.24,25,32,26.35,29.65,24,31,20.76l8.29-8.07a1,1,0,0,1,1.41,0l2.6,2.6A1,1,0,0,1,43.31,16.71Z"/>
      </g>
      <path
        d="M106.08,35.3a8.31,8.31,0,0,1-1.52,4.93,9.63,9.63,0,0,1-4.26,3.27,17.64,17.64,0,0,1-14.23-.75,13.78,13.78,0,0,1-3.4-2.92,1,1,0,0,1,.16-1.45l2.33-1.75a1,1,0,0,1,1.42.23,6.77,6.77,0,0,0,1.88,1.81,10.33,10.33,0,0,0,5.67,1.45,9.79,9.79,0,0,0,5.34-1.26,3.75,3.75,0,0,0,1.85-3.37,3.29,3.29,0,0,0-1.59-2.88,17.84,17.84,0,0,0-6.23-2c-.54-.1-1-.2-1.54-.31a17.44,17.44,0,0,1-7.15-2.9,7.38,7.38,0,0,1-2.67-6,8.86,8.86,0,0,1,1.44-4.88A9.92,9.92,0,0,1,87.66,13a13.81,13.81,0,0,1,6.12-1.3c5,0,9.16,1.84,11.69,5.51a1,1,0,0,1-.21,1.39l-2.36,1.77a1,1,0,0,1-1.44-.27,9.11,9.11,0,0,0-2.8-2.66,8.39,8.39,0,0,0-4.84-1.21,8.36,8.36,0,0,0-5.11,1.38A4,4,0,0,0,87,21a3.4,3.4,0,0,0,.66,2.19A5.74,5.74,0,0,0,90,24.7,25.08,25.08,0,0,0,94.82,26c.55.1,1.08.2,1.59.32a16.34,16.34,0,0,1,7,2.9A7.59,7.59,0,0,1,106.08,35.3Z"/>
    </g>
  </g>
  <g fill="#ffffff" id="title">
    <g>
      <path d="M68.34,66.75H66.19V72H64.47V66.75H62.31V65.42h6Z"/>
      <path
        d="M75.1,69.33a2.76,2.76,0,0,1-.74,2.09,3.82,3.82,0,0,1-4.41,0,2.72,2.72,0,0,1-.75-2.09V65.42h1.73v3.94a1.6,1.6,0,0,0,.3,1.06,1.16,1.16,0,0,0,.92.35c.83,0,1.24-.47,1.24-1.41V65.42H75.1Z"/>
      <path
        d="M84.09,72H82.57V69l.05-2h0L81,72H79.58L78,67h0l0,2v3H76.45v-6.6H78.9l1,3.36.37,1.4h0l.38-1.39,1-3.37h2.35Z"/>
      <path
        d="M85.53,66.25a.76.76,0,0,1-.24-.62.78.78,0,0,1,.24-.63,1.21,1.21,0,0,1,.75-.19A1.26,1.26,0,0,1,87,65a.81.81,0,0,1,.23.63.79.79,0,0,1-.23.62,1.2,1.2,0,0,1-.76.19A1.15,1.15,0,0,1,85.53,66.25ZM87.13,72h-1.7V67h1.7Z"/>
      <path
        d="M99,72H97.44V69l0-2h0L95.84,72H94.45L92.82,67h0l0,2v3H91.32v-6.6h2.45l1,3.36.37,1.4h0l.38-1.39,1-3.37H99Z"/>
      <path
        d="M105.26,67v5h-1.52l0-.93a2,2,0,0,1-3,.6,1.7,1.7,0,0,1-.46-1.33V67H102v2.91a1.09,1.09,0,0,0,.17.69.66.66,0,0,0,.52.2.85.85,0,0,0,.67-.28,1.27,1.27,0,0,0,.25-.87V67Zm-3-1.9a.75.75,0,0,1,.23.57.71.71,0,0,1-.23.56.89.89,0,0,1-.63.21.85.85,0,0,1-.61-.21.68.68,0,0,1-.23-.56.71.71,0,0,1,.23-.57.9.9,0,0,1,.61-.2A.93.93,0,0,1,102.24,65.12Zm2.2,0a.75.75,0,0,1,.23.57.71.71,0,0,1-.23.56.89.89,0,0,1-.63.21.88.88,0,0,1-.62-.21.7.7,0,0,1-.22-.56.74.74,0,0,1,.22-.57.92.92,0,0,1,.62-.2A.93.93,0,0,1,104.44,65.12Z"/>
      <path
        d="M111,67.38a1.76,1.76,0,0,1,.47,1.31V72h-1.7V69.16a1.05,1.05,0,0,0-.19-.72.62.62,0,0,0-.52-.22.82.82,0,0,0-.65.28,1.3,1.3,0,0,0-.25.88V72h-1.7V67H108l0,1a1.72,1.72,0,0,1,.68-.79,1.93,1.93,0,0,1,1-.27A1.7,1.7,0,0,1,111,67.38Z"/>
      <path
        d="M116.77,67.35a1.81,1.81,0,0,1,.71,1.12L115.9,69c-.07-.57-.32-.86-.77-.86q-1,0-1,1.41c0,.91.33,1.37,1,1.37.47,0,.75-.27.83-.81l1.53.49a1.61,1.61,0,0,1-.73,1.1,3.27,3.27,0,0,1-3.62-.25,2.53,2.53,0,0,1-.7-1.92,2.6,2.6,0,0,1,.69-1.92,2.68,2.68,0,0,1,1.94-.68A2.79,2.79,0,0,1,116.77,67.35Z"/>
      <path
        d="M122.93,67.38a1.76,1.76,0,0,1,.47,1.31V72h-1.7V69.16c0-.63-.24-1-.71-1a.83.83,0,0,0-.65.29,1.31,1.31,0,0,0-.25.89V72h-1.7V64.9h1.7v3a1.74,1.74,0,0,1,.62-.76,1.76,1.76,0,0,1,1-.25A1.7,1.7,0,0,1,122.93,67.38Z"/>
      <path
        d="M129.41,70H126a1.09,1.09,0,0,0,.35.69,1,1,0,0,0,.7.22,1.16,1.16,0,0,0,.6-.14.66.66,0,0,0,.32-.41l1.38.44a1.71,1.71,0,0,1-.81,1,3.1,3.1,0,0,1-1.49.33,2.79,2.79,0,0,1-2-.68,2.56,2.56,0,0,1-.69-1.92,2.37,2.37,0,0,1,2.61-2.6,2.46,2.46,0,0,1,1.85.66,2.55,2.55,0,0,1,.65,1.87A2.83,2.83,0,0,1,129.41,70ZM126,69.09h1.88c-.08-.65-.39-1-.92-1S126.09,68.44,126,69.09Z"/>
      <path
        d="M135,67.38a1.76,1.76,0,0,1,.47,1.31V72h-1.7V69.16a1.05,1.05,0,0,0-.19-.72.62.62,0,0,0-.52-.22.82.82,0,0,0-.65.28,1.3,1.3,0,0,0-.25.88V72h-1.7V67h1.52l0,1a1.72,1.72,0,0,1,.68-.79,1.93,1.93,0,0,1,1-.27A1.7,1.7,0,0,1,135,67.38Z"/>
    </g>
  </g>
</svg>
