<svg viewBox="0 0 27.98 255.06" xmlns="http://www.w3.org/2000/svg">
  <defs>
    <style>.cls-1 {
      fill: transparent;
    }

    .cls-2 {
      fill: #919191;
    }</style>
  </defs>
  <title>TV tower</title>
  <g data-name="Layer 2" id="Layer_2">
    <g id="Buildings">
      <rect class="cls-1" height="5.02" width="27.09" x="0.44" y="80.96"/>
      <path class="cls-2" d="M27.66,86.11H.32V80.83H27.66ZM.57,85.86H27.41V81.08H.57Z"/>
      <rect class="cls-1" height="5.02" width="0.39" x="0.44" y="80.96"/>
      <path class="cls-2" d="M1,86.11H.32V80.83H1Zm-.39-.25H.71V81.08H.57Z"/>
      <rect class="cls-1" height="5.02" width="0.39" x="2.22" y="80.96"/>
      <path class="cls-2" d="M2.74,86.11H2.1V80.83h.64Zm-.39-.25h.14V81.08H2.35Z"/>
      <rect class="cls-1" height="5.02" width="0.39" x="4" y="80.96"/>
      <path class="cls-2" d="M4.52,86.11H3.88V80.83h.64Zm-.39-.25h.14V81.08H4.13Z"/>
      <rect class="cls-1" height="5.02" width="0.39" x="5.78" y="80.96"/>
      <path class="cls-2" d="M6.3,86.11H5.66V80.83H6.3Zm-.39-.25h.14V81.08H5.91Z"/>
      <rect class="cls-1" height="5.02" width="0.39" x="7.56" y="80.96"/>
      <path class="cls-2" d="M8.08,86.11H7.44V80.83h.64Zm-.39-.25h.14V81.08H7.69Z"/>
      <rect class="cls-1" height="5.02" width="0.39" x="9.34" y="80.96"/>
      <path class="cls-2" d="M9.86,86.11H9.22V80.83h.64Zm-.39-.25h.14V81.08H9.47Z"/>
      <rect class="cls-1" height="5.02" width="0.39" x="11.12" y="80.96"/>
      <path class="cls-2" d="M11.64,86.11H11V80.83h.64Zm-.39-.25h.14V81.08h-.14Z"/>
      <rect class="cls-1" height="5.02" width="0.39" x="12.9" y="80.96"/>
      <path class="cls-2" d="M13.42,86.11h-.64V80.83h.64ZM13,85.86h.14V81.08H13Z"/>
      <rect class="cls-1" height="5.02" width="0.39" x="14.68" y="80.96"/>
      <path class="cls-2" d="M15.2,86.11h-.64V80.83h.64Zm-.39-.25H15V81.08h-.14Z"/>
      <rect class="cls-1" height="5.02" width="0.39" x="16.46" y="80.96"/>
      <path class="cls-2" d="M17,86.11h-.64V80.83H17Zm-.39-.25h.14V81.08h-.14Z"/>
      <rect class="cls-1" height="5.02" width="0.39" x="20.02" y="80.96"/>
      <path class="cls-2" d="M20.54,86.11H19.9V80.83h.64Zm-.39-.25h.14V81.08h-.14Z"/>
      <rect class="cls-1" height="5.02" width="0.39" x="23.59" y="80.96"/>
      <path class="cls-2" d="M24.1,86.11h-.64V80.83h.64Zm-.39-.25h.14V81.08h-.14Z"/>
      <rect class="cls-1" height="5.02" width="0.39" x="18.24" y="80.96"/>
      <path class="cls-2" d="M18.76,86.11h-.64V80.83h.64Zm-.39-.25h.14V81.08h-.14Z"/>
      <rect class="cls-1" height="5.02" width="0.39" x="21.81" y="80.96"/>
      <path class="cls-2" d="M22.32,86.11h-.64V80.83h.64Zm-.39-.25h.14V81.08h-.14Z"/>
      <rect class="cls-1" height="5.02" width="0.39" x="25.37" y="80.96"/>
      <path class="cls-2" d="M25.88,86.11h-.64V80.83h.64Zm-.39-.25h.14V81.08h-.14Z"/>
      <rect class="cls-1" height="5.02" width="0.39" x="27.15" y="80.96"/>
      <path class="cls-2" d="M27.66,86.11H27V80.83h.64Zm-.39-.25h.14V81.08h-.14Z"/>
      <polygon class="cls-1" points="18.75 114.44 9.22 114.44 1.98 254.94 26 254.94 18.75 114.44"/>
      <path class="cls-2" d="M26.13,255.06H1.85v-.13L9.11,114.31h9.76v.12Zm-24-.25H25.87L18.63,114.56H9.34Z"/>
      <polygon class="cls-1" points="15.58 114.44 12.4 114.44 9.99 254.94 17.99 254.94 15.58 114.44"/>
      <path class="cls-2" d="M18.12,255.06H9.86v-.13l2.42-140.62H15.7v.12Zm-8-.25h7.75L15.45,114.56H12.52Z"/>
      <rect class="cls-1" height="2.22" width="9.53" x="9.23" y="112.21"/>
      <path class="cls-2" d="M18.88,114.56H9.1v-2.47h9.78Zm-9.53-.25h9.28v-2H9.35Z"/>
      <rect class="cls-1" height="0.82" width="27.09" x="0.44" y="106.01"/>
      <path class="cls-2" d="M27.66,107H.32v-1.07H27.66ZM.57,106.71H27.41v-.57H.57Z"/>
      <polygon class="cls-1" points="18.75 112.21 27.53 106.84 0.44 106.84 9.22 112.21 18.75 112.21"/>
      <path class="cls-2" d="M18.79,112.34H9.19L0,106.71H28Zm-9.53-.25h9.46L27.09,107H.89Z"/>
      <polygon class="cls-1" points="18.75 94.11 27.53 88.74 0.44 88.74 9.22 94.11 18.75 94.11"/>
      <path class="cls-2" d="M18.79,94.24H9.19L0,88.62H28ZM9.26,94h9.46l8.37-5.12H.89Z"/>
      <polygon class="cls-1" points="15.64 94.11 18.7 88.74 9.28 88.74 12.33 94.11 15.64 94.11"/>
      <path class="cls-2" d="M15.72,94.24H12.26l-3.2-5.62h9.85ZM12.41,94h3.16l2.91-5.12h-9Z"/>
      <rect class="cls-1" height="5.13" width="24.02" x="1.98" y="100.89"/>
      <path class="cls-2" d="M26.12,106.14H1.85v-5.38H26.12Zm-24-.25H25.87V101H2.1Z"/>
      <rect class="cls-1" height="1.71" width="0.89" x="2.98" y="101.5"/>
      <path class="cls-2" d="M4,103.33H2.86v-2H4Zm-.89-.25h.64v-1.46H3.11Z"/>
      <rect class="cls-1" height="1.71" width="0.89" x="2.98" y="103.66"/>
      <path class="cls-2" d="M4,105.49H2.86v-2H4Zm-.89-.25h.64v-1.46H3.11Z"/>
      <rect class="cls-1" height="1.71" width="0.89" x="5.62" y="101.5"/>
      <path class="cls-2" d="M6.64,103.33H5.5v-2H6.64Zm-.89-.25h.64v-1.46H5.75Z"/>
      <rect class="cls-1" height="1.71" width="0.89" x="5.62" y="103.66"/>
      <path class="cls-2" d="M6.64,105.49H5.5v-2H6.64Zm-.89-.25h.64v-1.46H5.75Z"/>
      <rect class="cls-1" height="1.71" width="0.9" x="8.26" y="101.5"/>
      <path class="cls-2" d="M9.28,103.33H8.14v-2H9.28Zm-.89-.25H9v-1.46H8.39Z"/>
      <rect class="cls-1" height="1.71" width="0.9" x="8.26" y="103.66"/>
      <path class="cls-2" d="M9.28,105.49H8.14v-2H9.28Zm-.89-.25H9v-1.46H8.39Z"/>
      <rect class="cls-1" height="1.71" width="0.89" x="10.9" y="101.5"/>
      <path class="cls-2" d="M11.92,103.33H10.78v-2h1.14Zm-.89-.25h.64v-1.46H11Z"/>
      <rect class="cls-1" height="1.71" width="0.89" x="10.9" y="103.66"/>
      <path class="cls-2" d="M11.92,105.49H10.78v-2h1.14Zm-.89-.25h.64v-1.46H11Z"/>
      <rect class="cls-1" height="1.71" width="0.9" x="13.54" y="101.5"/>
      <path class="cls-2" d="M14.56,103.33H13.42v-2h1.14Zm-.89-.25h.64v-1.46h-.64Z"/>
      <rect class="cls-1" height="1.71" width="0.9" x="13.54" y="103.66"/>
      <path class="cls-2" d="M14.56,105.49H13.42v-2h1.14Zm-.89-.25h.64v-1.46h-.64Z"/>
      <rect class="cls-1" height="1.71" width="0.89" x="16.18" y="101.5"/>
      <path class="cls-2" d="M17.2,103.33H16.06v-2H17.2Zm-.89-.25H17v-1.46h-.64Z"/>
      <rect class="cls-1" height="1.71" width="0.89" x="16.18" y="103.66"/>
      <path class="cls-2" d="M17.2,105.49H16.06v-2H17.2Zm-.89-.25H17v-1.46h-.64Z"/>
      <rect class="cls-1" height="1.71" width="0.89" x="18.82" y="101.5"/>
      <path class="cls-2" d="M19.84,103.33H18.69v-2h1.15Zm-.9-.25h.65v-1.46h-.65Z"/>
      <rect class="cls-1" height="1.71" width="0.89" x="18.82" y="103.66"/>
      <path class="cls-2" d="M19.84,105.49H18.69v-2h1.15Zm-.9-.25h.65v-1.46h-.65Z"/>
      <rect class="cls-1" height="1.71" width="0.9" x="21.46" y="101.5"/>
      <path class="cls-2" d="M22.48,103.33H21.33v-2h1.15Zm-.9-.25h.65v-1.46h-.65Z"/>
      <rect class="cls-1" height="1.71" width="0.9" x="21.46" y="103.66"/>
      <path class="cls-2" d="M22.48,105.49H21.33v-2h1.15Zm-.9-.25h.65v-1.46h-.65Z"/>
      <rect class="cls-1" height="1.71" width="0.89" x="24.1" y="101.5"/>
      <path class="cls-2" d="M25.12,103.33H24v-2h1.15Zm-.9-.25h.65v-1.46h-.65Z"/>
      <rect class="cls-1" height="1.71" width="0.89" x="24.1" y="103.66"/>
      <path class="cls-2" d="M25.12,105.49H24v-2h1.15Zm-.9-.25h.65v-1.46h-.65Z"/>
      <rect class="cls-1" height="0.82" width="27.09" x="0.44" y="100.06"/>
      <path class="cls-2" d="M27.66,101H.32V99.94H27.66ZM.57,100.76H27.41v-.57H.57Z"/>
      <rect class="cls-1" height="0.82" width="27.09" x="0.44" y="94.11"/>
      <path class="cls-2" d="M27.66,95.06H.32V94H27.66ZM.57,94.81H27.41v-.57H.57Z"/>
      <rect class="cls-1" height="5.13" width="24.02" x="1.98" y="94.94"/>
      <path class="cls-2" d="M26.12,100.19H1.85V94.81H26.12Zm-24-.25H25.87V95.06H2.1Z"/>
      <rect class="cls-1" height="1.71" width="0.89" x="2.98" y="95.54"/>
      <path class="cls-2" d="M4,97.38H2.86v-2H4Zm-.89-.25h.64V95.67H3.11Z"/>
      <rect class="cls-1" height="1.71" width="0.89" x="2.98" y="97.71"/>
      <path class="cls-2" d="M4,99.54H2.86v-2H4Zm-.89-.25h.64V97.83H3.11Z"/>
      <rect class="cls-1" height="1.71" width="0.89" x="5.62" y="95.54"/>
      <path class="cls-2" d="M6.64,97.38H5.5v-2H6.64Zm-.89-.25h.64V95.67H5.75Z"/>
      <rect class="cls-1" height="1.71" width="0.89" x="5.62" y="97.71"/>
      <path class="cls-2" d="M6.64,99.54H5.5v-2H6.64Zm-.89-.25h.64V97.83H5.75Z"/>
      <rect class="cls-1" height="1.71" width="0.9" x="8.26" y="95.54"/>
      <path class="cls-2" d="M9.28,97.38H8.14v-2H9.28Zm-.89-.25H9V95.67H8.39Z"/>
      <rect class="cls-1" height="1.71" width="0.9" x="8.26" y="97.71"/>
      <path class="cls-2" d="M9.28,99.54H8.14v-2H9.28Zm-.89-.25H9V97.83H8.39Z"/>
      <rect class="cls-1" height="1.71" width="0.89" x="10.9" y="95.54"/>
      <path class="cls-2" d="M11.92,97.38H10.78v-2h1.14ZM11,97.13h.64V95.67H11Z"/>
      <rect class="cls-1" height="1.71" width="0.89" x="10.9" y="97.71"/>
      <path class="cls-2" d="M11.92,99.54H10.78v-2h1.14ZM11,99.29h.64V97.83H11Z"/>
      <rect class="cls-1" height="1.71" width="0.9" x="13.54" y="95.54"/>
      <path class="cls-2" d="M14.56,97.38H13.42v-2h1.14Zm-.89-.25h.64V95.67h-.64Z"/>
      <rect class="cls-1" height="1.71" width="0.9" x="13.54" y="97.71"/>
      <path class="cls-2" d="M14.56,99.54H13.42v-2h1.14Zm-.89-.25h.64V97.83h-.64Z"/>
      <rect class="cls-1" height="1.71" width="0.89" x="16.18" y="95.54"/>
      <path class="cls-2" d="M17.2,97.38H16.06v-2H17.2Zm-.89-.25H17V95.67h-.64Z"/>
      <rect class="cls-1" height="1.71" width="0.89" x="16.18" y="97.71"/>
      <path class="cls-2" d="M17.2,99.54H16.06v-2H17.2Zm-.89-.25H17V97.83h-.64Z"/>
      <rect class="cls-1" height="1.71" width="0.89" x="18.82" y="95.54"/>
      <path class="cls-2" d="M19.84,97.38H18.69v-2h1.15Zm-.9-.25h.65V95.67h-.65Z"/>
      <rect class="cls-1" height="1.71" width="0.89" x="18.82" y="97.71"/>
      <path class="cls-2" d="M19.84,99.54H18.69v-2h1.15Zm-.9-.25h.65V97.83h-.65Z"/>
      <rect class="cls-1" height="1.71" width="0.9" x="21.46" y="95.54"/>
      <path class="cls-2" d="M22.48,97.38H21.33v-2h1.15Zm-.9-.25h.65V95.67h-.65Z"/>
      <rect class="cls-1" height="1.71" width="0.9" x="21.46" y="97.71"/>
      <path class="cls-2" d="M22.48,99.54H21.33v-2h1.15Zm-.9-.25h.65V97.83h-.65Z"/>
      <rect class="cls-1" height="1.71" width="0.89" x="24.1" y="95.54"/>
      <path class="cls-2" d="M25.12,97.38H24v-2h1.15Zm-.9-.25h.65V95.67h-.65Z"/>
      <rect class="cls-1" height="1.71" width="0.89" x="24.1" y="97.71"/>
      <path class="cls-2" d="M25.12,99.54H24v-2h1.15Zm-.9-.25h.65V97.83h-.65Z"/>
      <rect class="cls-1" height="2.06" width="27.09" x="0.44" y="86.68"/>
      <path class="cls-2" d="M27.66,88.87H.32V86.56H27.66ZM.57,88.62H27.41V86.81H.57Z"/>
      <rect class="cls-1" height="2.06" width="27.09" x="0.44" y="78.2"/>
      <path class="cls-2" d="M27.66,80.38H.32V78.07H27.66ZM.57,80.13H27.41V78.32H.57Z"/>
      <rect class="cls-1" height="0.7" width="27.09" x="0.44" y="85.98"/>
      <path class="cls-2" d="M27.66,86.81H.32v-1H27.66ZM.57,86.56H27.41v-.45H.57Z"/>
      <rect class="cls-1" height="0.7" width="27.09" x="0.44" y="83.12"/>
      <path class="cls-2" d="M27.66,83.94H.32V83H27.66ZM.57,83.69H27.41v-.45H.57Z"/>
      <rect class="cls-1" height="0.7" width="27.09" x="0.44" y="80.26"/>
      <path class="cls-2" d="M27.66,81.08H.32v-1H27.66ZM.57,80.83H27.41v-.45H.57Z"/>
      <rect class="cls-1" height="7.37" width="7.45" x="10.26" y="70.83"/>
      <path class="cls-2" d="M17.84,78.32h-7.7V70.7h7.7Zm-7.45-.25h7.2V71h-7.2Z"/>
      <rect class="cls-1" height="11.09" width="5.73" x="11.12" y="58.33"/>
      <path class="cls-2" d="M17,69.54H11V58.21h6Zm-5.73-.25h5.48V58.46H11.25Z"/>
      <rect class="cls-1" height="10.01" width="5.17" x="11.4" y="47.55"/>
      <path class="cls-2" d="M16.7,57.68H11.28V47.43H16.7Zm-5.17-.25h4.92V47.68H11.53Z"/>
      <rect class="cls-1" height="10.01" width="3.79" x="12.09" y="36.77"/>
      <path class="cls-2" d="M16,46.91H12V36.65h4Zm-3.79-.25h3.54V36.9H12.22Z"/>
      <rect class="cls-1" height="10.01" width="1.75" x="13.11" y="26"/>
      <path class="cls-2" d="M15,36.13H13V25.87h2Zm-1.75-.25h1.5V26.12h-1.5Z"/>
      <rect class="cls-1" height="10.01" width="1.01" x="13.48" y="15.99"/>
      <path class="cls-2" d="M14.62,26.12H13.36V15.86h1.26Zm-1-.25h.76V16.11h-.76Z"/>
      <rect class="cls-1" height="7.93" width="0.6" x="13.69" y="8.06"/>
      <path class="cls-2" d="M14.41,16.11h-.84V7.93h.84Zm-.59-.25h.34V8.18h-.34Z"/>
      <rect class="cls-1" height="7.93" width="0.34" x="13.82" y="0.12"/>
      <path class="cls-2" d="M14.29,8.18h-.6V0h.6Zm-.35-.25H14V.25h-.1Z"/>
      <rect class="cls-1" height="0.77" width="8.79" x="9.59" y="57.56"/>
      <path class="cls-2" d="M18.51,58.46h-9v-1h9Zm-8.79-.25h8.54v-.53H9.72Z"/>
      <rect class="cls-1" height="0.77" width="6.69" x="10.64" y="46.78"/>
      <path class="cls-2" d="M17.46,47.68H10.52v-1h6.94Zm-6.69-.25h6.44v-.52H10.77Z"/>
      <rect class="cls-1" height="0.77" width="5.17" x="11.4" y="36"/>
      <path class="cls-2" d="M16.7,36.9H11.28v-1H16.7Zm-5.17-.25h4.92v-.52H11.53Z"/>
      <rect class="cls-1" height="1.41" width="18.18" x="4.9" y="69.42"/>
      <path class="cls-2" d="M23.2,71H4.77V69.29H23.2ZM5,70.7H23V69.54H5Z"/>
    </g>
  </g>
</svg>
