<svg xmlns="http://www.w3.org/2000/svg" viewBox="0 0 158.74 40.32"><defs><style>.cls-1{fill:#0072bc;}</style></defs><g id="Layer_2" data-name="Layer 2"><g id="DAAD_Logo"><g id="Logo"><path class="cls-1" d="M0,40.32V0H16q9.21,0,14.25,5.55,4.83,5.33,4.83,14.63,0,10.32-6.21,15.45-5.69,4.69-16.22,4.69Zm8.3-6.24h5.75q12.83,0,12.82-13.9,0-6.52-3.2-10.14-3.39-3.79-9.82-3.8H8.3Z"/><path class="cls-1" d="M35.51,40.32,50.51,0H61.12l15,40.32H67.16l-2.89-8.58h-17l-2.87,8.58ZM55.72,6.41,49.3,25.5H62.18Z"/><path class="cls-1" d="M78.75,40.32,93.75,0h10.61l15,40.32H110.4l-2.89-8.58H90.46L87.6,40.32ZM99,6.41,92.55,25.5h12.87Z"/><path class="cls-1" d="M123.65,40.32V0h16q9.21,0,14.25,5.55,4.84,5.33,4.84,14.63,0,10.32-6.21,15.45-5.7,4.69-16.23,4.69Zm8.3-6.24h5.75q12.83,0,12.82-13.9,0-6.52-3.2-10.14-3.37-3.79-9.82-3.8H132Z"/></g></g></g></svg>