<svg viewBox="0 0 544.31 184.8" xmlns="http://www.w3.org/2000/svg">
  <defs>
    <style>.cls-1 {
      fill: #fff;
    }

    .cls-1, .cls-10, .cls-11, .cls-2, .cls-3, .cls-4, .cls-5, .cls-6, .cls-7, .cls-8, .cls-9 {
      fill-rule: evenodd;
    }

    .cls-2 {
      fill: #00aeef;
    }

    .cls-3 {
      fill: #ec008c;
    }

    .cls-4 {
      fill: #7ac143;
    }

    .cls-13, .cls-5 {
      fill: #f47b20;
    }

    .cls-6 {
      fill: #ed1c24;
    }

    .cls-7 {
      fill: #8a3035;
    }

    .cls-8 {
      fill: #00a651;
    }

    .cls-9 {
      fill: #886a3a;
    }

    .cls-10, .cls-12 {
      fill: #2e3192;
    }

    .cls-11 {
      fill: #0d6142;
    }</style>
  </defs>
  <title>alumni</title>
  <g data-name="Layer 2" id="Layer_2">
    <g data-name="Ebene 1" id="Ebene_1">
      <polygon class="cls-1" points="340.91 72.19 346.51 66.59 338.59 66.59 338.59 69.87 340.91 72.19 340.91 72.19"/>
      <polygon class="cls-1" points="332.99 64.27 335.31 66.59 338.59 66.59 338.59 58.67 332.99 64.27 332.99 64.27"/>
      <polygon class="cls-1" points="338.59 77.79 335.31 77.79 332.99 80.11 338.59 85.71 338.59 77.79 338.59 77.79"/>
      <polygon class="cls-1" points="340.91 72.19 338.59 74.51 338.59 77.79 346.51 77.79 340.91 72.19 340.91 72.19"/>
      <polygon class="cls-1" points="327.39 66.59 319.47 66.59 325.07 72.19 327.39 69.87 327.39 66.59 327.39 66.59"/>
      <polygon class="cls-1" points="327.39 58.67 327.39 66.59 330.67 66.59 332.99 64.27 327.39 58.67 327.39 58.67"/>
      <polygon class="cls-1" points="319.47 77.79 327.39 77.79 327.39 74.51 325.07 72.19 319.47 77.79 319.47 77.79"/>
      <polygon class="cls-1" points="327.39 85.71 332.99 80.11 330.67 77.79 327.39 77.79 327.39 85.71 327.39 85.71"/>
      <path class="cls-1"
            d="M360.16,49l-4-4a2.81,2.81,0,0,0-4,0L338.59,58.67v7.92h7.92l13.65-13.66a2.79,2.79,0,0,0,0-4Z"/>
      <polygon class="cls-1" points="338.59 69.87 338.59 66.59 335.31 66.59 338.59 69.87 338.59 69.87"/>
      <polygon class="cls-1" points="335.31 77.79 338.59 77.79 338.59 74.51 335.31 77.79 335.31 77.79"/>
      <path class="cls-1"
            d="M346.51,77.79h-7.92v7.92l13.66,13.65a2.79,2.79,0,0,0,4,0l4-4a2.78,2.78,0,0,0,0-4L346.51,77.79Z"/>
      <polygon class="cls-1" points="330.67 66.59 327.39 66.59 327.39 69.87 330.67 66.59 330.67 66.59"/>
      <path class="cls-1"
            d="M319.47,66.59h7.92V58.67L313.73,45a2.81,2.81,0,0,0-4,0l-4,4a2.81,2.81,0,0,0,0,4l13.66,13.66Z"/>
      <path class="cls-1"
            d="M305.81,91.45a2.79,2.79,0,0,0,0,4l4,4a2.79,2.79,0,0,0,4,0l13.66-13.65V77.79h-7.92L305.81,91.45Z"/>
      <polygon class="cls-1" points="327.39 74.51 327.39 77.79 330.67 77.79 327.39 74.51 327.39 74.51"/>
      <polygon class="cls-1" points="338.59 74.51 340.91 72.19 338.59 69.87 338.59 74.51 338.59 74.51"/>
      <path class="cls-1" d="M360,66.59H346.51l-5.6,5.6,5.6,5.6H360a2.8,2.8,0,0,0,2.8-2.8v-5.6a2.8,2.8,0,0,0-2.8-2.8Z"/>
      <polygon class="cls-1" points="327.39 69.87 325.07 72.19 327.39 74.51 327.39 69.87 327.39 69.87"/>
      <path class="cls-1" d="M319.47,77.79l5.6-5.6-5.6-5.6H306a2.8,2.8,0,0,0-2.8,2.8V75a2.8,2.8,0,0,0,2.8,2.8Z"/>
      <path class="cls-1"
            d="M338.59,45.15a2.8,2.8,0,0,0-2.8-2.8h-5.6a2.8,2.8,0,0,0-2.8,2.8V58.67l5.6,5.6,5.6-5.6V45.15Z"/>
      <polygon class="cls-1" points="335.31 66.59 332.99 64.27 330.67 66.59 335.31 66.59 335.31 66.59"/>
      <polygon class="cls-1" points="330.67 77.79 332.99 80.11 335.31 77.79 330.67 77.79 330.67 77.79"/>
      <path class="cls-1"
            d="M333,80.11l-5.6,5.6V99.23a2.8,2.8,0,0,0,2.8,2.8h5.6a2.8,2.8,0,0,0,2.8-2.8V85.71l-5.6-5.6Z"/>
      <path class="cls-1"
            d="M333,80.11l-5.6,5.6V99.23a2.8,2.8,0,0,0,2.8,2.8h5.6a2.8,2.8,0,0,0,2.8-2.8V85.71l-5.6-5.6Z"/>
      <path class="cls-2"
            d="M289.54,156.17H283a.74.74,0,0,1-.74-.73v-11a.75.75,0,0,1,.74-.74h6.31a.71.71,0,0,1,.74.74.72.72,0,0,1-.74.73h-5.58v3.94h2.48a.74.74,0,0,1,0,1.47h-2.48v4.1h5.8a.7.7,0,0,1,.73.73.71.71,0,0,1-.73.73Z"/>
      <path class="cls-2"
            d="M300,150.49l1.53,4.82,0,.25a.72.72,0,0,1-.75.72.68.68,0,0,1-.67-.5l-1.62-5.06h-3.56v4.83a.71.71,0,0,1-.74.73.71.71,0,0,1-.73-.73V144.49a.74.74,0,0,1,.73-.74h4.52a2.78,2.78,0,0,1,2.93,2.94v1.09a2.77,2.77,0,0,1-1.68,2.71Zm.21-3.8a1.33,1.33,0,0,0-1.46-1.47h-3.78v4h3.78a1.33,1.33,0,0,0,1.46-1.47v-1.09Z"/>
      <path class="cls-2"
            d="M344.86,156.17h-2.31a2.79,2.79,0,0,1-2.93-2.93v-8.81a.7.7,0,0,1,.73-.74.72.72,0,0,1,.74.74v8.81a1.33,1.33,0,0,0,1.46,1.47h2.31a1.32,1.32,0,0,0,1.47-1.47v-8.81a.71.71,0,0,1,.73-.74.72.72,0,0,1,.74.74v8.81a2.76,2.76,0,0,1-2.94,2.93Z"/>
      <path class="cls-2"
            d="M356.4,156.17h-2.31a2.83,2.83,0,0,1-2.93-2.95.7.7,0,0,1,.73-.74.72.72,0,0,1,.74.74,1.36,1.36,0,0,0,1.46,1.49h2.31a1.33,1.33,0,0,0,1.47-1.47v-1.39c0-.92,0-1.38-2.62-1.38s-4.09-.49-4.09-3.28v-.5a2.79,2.79,0,0,1,2.93-2.94h2.31a2.78,2.78,0,0,1,2.94,2.94v.12a.71.71,0,0,1-.74.74.72.72,0,0,1-.73-.74v-.12a1.32,1.32,0,0,0-1.47-1.47h-2.31a1.34,1.34,0,0,0-1.46,1.47v.5c0,1.54.25,1.81,2.62,1.81,2.81,0,4.09.63,4.09,2.85v1.39a2.78,2.78,0,0,1-2.94,2.93Z"/>
      <path class="cls-2"
            d="M402.28,156.17H400a2.79,2.79,0,0,1-2.94-2.93v-8.81a.71.71,0,0,1,.74-.74.72.72,0,0,1,.73.74v8.81a1.34,1.34,0,0,0,1.47,1.47h2.31a1.32,1.32,0,0,0,1.47-1.47v-8.81a.7.7,0,0,1,.73-.74.72.72,0,0,1,.74.74v8.81a2.76,2.76,0,0,1-2.94,2.93Z"/>
      <path class="cls-2"
            d="M413.82,156.17h-4.56a.74.74,0,0,1-.73-.73V144.49a.75.75,0,0,1,.73-.74h4.56a2.78,2.78,0,0,1,2.93,2.94v6.55a2.78,2.78,0,0,1-2.93,2.93Zm1.47-9.48a1.33,1.33,0,0,0-1.47-1.47H410v9.49h3.82a1.33,1.33,0,0,0,1.47-1.47v-6.55Z"/>
      <path class="cls-2"
            d="M509.46,153.34c-.09,1.55-.65,2.9-2.52,2.9a2.44,2.44,0,0,1-1.78-.63,2.48,2.48,0,0,1-1.78.63c-1.87,0-2.44-1.35-2.52-2.9-.53-10.53-.44-8.87-.44-8.94a.67.67,0,0,1,.73-.71.7.7,0,0,1,.73.69l.45,8.88c.06,1.26.37,1.51,1.05,1.51s1-.29,1-1.47v-4.83a.71.71,0,0,1,.74-.75.72.72,0,0,1,.73.75v4.83c0,1.18.27,1.47,1.05,1.47s1-.25,1.05-1.51l.44-8.88a.71.71,0,0,1,.74-.69.68.68,0,0,1,.73.71c0,.07.09-1.59-.44,8.94Z"/>
      <path class="cls-2"
            d="M518,156.17h-2.31a2.79,2.79,0,0,1-2.94-2.93v-6.55a2.8,2.8,0,0,1,2.94-2.94H518a2.78,2.78,0,0,1,2.93,2.94v6.55a2.78,2.78,0,0,1-2.93,2.93Zm1.46-9.48a1.33,1.33,0,0,0-1.46-1.47h-2.31a1.35,1.35,0,0,0-1.47,1.47v6.55a1.35,1.35,0,0,0,1.47,1.47H518a1.33,1.33,0,0,0,1.46-1.47v-6.55Z"/>
      <path class="cls-2"
            d="M530.76,150.49l1.53,4.82,0,.25a.73.73,0,0,1-.76.72.69.69,0,0,1-.67-.5l-1.62-5.06h-3.56v4.83a.71.71,0,0,1-.74.73.71.71,0,0,1-.73-.73V144.49a.75.75,0,0,1,.73-.74h4.51a2.79,2.79,0,0,1,2.94,2.94v1.09a2.77,2.77,0,0,1-1.67,2.71Zm.2-3.8a1.33,1.33,0,0,0-1.47-1.47h-3.77v4h3.77a1.33,1.33,0,0,0,1.47-1.47v-1.09Z"/>
      <path class="cls-2"
            d="M543.53,156.28A.67.67,0,0,1,543,156L539,150.53l-1.8,2.2v2.79a.74.74,0,1,1-1.47,0V144.43a.7.7,0,0,1,.73-.74.72.72,0,0,1,.74.74v6c1.74-2.16,3.48-4.27,5.22-6.44a.73.73,0,0,1,.57-.29.75.75,0,0,1,.75.73l-.19.49-3.6,4.44,4.17,5.75.17.44a.8.8,0,0,1-.78.76Z"/>
      <path class="cls-3"
            d="M450.3,135.46h-6.52a.75.75,0,0,1-.74-.74v-11a.74.74,0,0,1,.74-.73h6.31a.7.7,0,0,1,.73.73.72.72,0,0,1-.73.74h-5.58v3.94H447a.7.7,0,0,1,.73.73.71.71,0,0,1-.73.73h-2.48V134h5.79a.71.71,0,0,1,.74.73.72.72,0,0,1-.74.74Z"/>
      <path class="cls-4"
            d="M471.35,135.46H469a2.8,2.8,0,0,1-2.94-2.94V126A2.79,2.79,0,0,1,469,123h2.31a2.78,2.78,0,0,1,2.94,2.93.74.74,0,1,1-1.47,0,1.33,1.33,0,0,0-1.47-1.46H469a1.34,1.34,0,0,0-1.47,1.46v6.55A1.35,1.35,0,0,0,469,134h2.31a1.33,1.33,0,0,0,1.47-1.47.71.71,0,0,1,.73-.74.72.72,0,0,1,.74.74,2.79,2.79,0,0,1-2.94,2.94Z"/>
      <path class="cls-5"
            d="M485.13,135.56a.72.72,0,0,1-.73-.75v-5.25h-5.33v5.25a.71.71,0,0,1-.74.75.72.72,0,0,1-.73-.75v-11.1a.71.71,0,0,1,.73-.76.72.72,0,0,1,.74.76v4.38h5.33v-4.38a.73.73,0,1,1,1.46,0v11.1a.7.7,0,0,1-.73.75Z"/>
      <path class="cls-3"
            d="M496.54,135.54a.71.71,0,0,1-.71-.61c-.17-1-.31-2-.46-2.93H491.2l-.61,2.93a.7.7,0,0,1-.69.59.73.73,0,0,1-.76-.71l0-.17c.69-3.4,2.1-10.22,2.1-10.22a1.87,1.87,0,0,1,2.07-1.49c1.53,0,2,.84,2.23,2.1l1.72,9.63,0,.17a.73.73,0,0,1-.76.71ZM494,124.82c-.11-.38-.34-.42-.7-.42s-.64.27-.77.88l-1.07,5.25h3.65L494,124.82Z"/>
      <path class="cls-4"
            d="M519.71,126.62a.71.71,0,0,1-.74-.71,1.31,1.31,0,0,0-1.47-1.4h-2.3a1.34,1.34,0,0,0-1.47,1.46v6.55A1.35,1.35,0,0,0,515.2,134h2.3a1.32,1.32,0,0,0,1.47-1.47v-2.23h-1.89a.7.7,0,0,1-.73-.73.71.71,0,0,1,.73-.73h2.63a.73.73,0,0,1,.73.73v3a2.78,2.78,0,0,1-2.94,2.94h-2.3a2.8,2.8,0,0,1-2.94-2.94V126A2.79,2.79,0,0,1,515.2,123h2.3a2.77,2.77,0,0,1,2.94,2.83v0a.7.7,0,0,1-.73.73Z"/>
      <path class="cls-5"
            d="M531.42,135.46h-6.53a.74.74,0,0,1-.73-.74v-11a.73.73,0,0,1,.73-.73h6.32a.7.7,0,0,1,.73.73.71.71,0,0,1-.73.73h-5.58v4h2.47a.73.73,0,1,1,0,1.46h-2.47V134h5.79a.7.7,0,0,1,.73.73.72.72,0,0,1-.73.74Z"/>
      <polygon class="cls-6" points="340.91 72.19 346.51 66.59 338.59 66.59 338.59 69.87 340.91 72.19 340.91 72.19"/>
      <polygon class="cls-7" points="332.99 64.27 335.31 66.59 338.59 66.59 338.59 58.67 332.99 64.27 332.99 64.27"/>
      <polygon class="cls-8" points="338.59 77.79 335.31 77.79 332.99 80.11 338.59 85.71 338.59 77.79 338.59 77.79"/>
      <polygon class="cls-9" points="340.91 72.19 338.59 74.51 338.59 77.79 346.51 77.79 340.91 72.19 340.91 72.19"/>
      <polygon class="cls-10" points="327.39 66.59 319.47 66.59 325.07 72.19 327.39 69.87 327.39 66.59 327.39 66.59"/>
      <polygon class="cls-8" points="327.39 58.67 327.39 66.59 330.67 66.59 332.99 64.27 327.39 58.67 327.39 58.67"/>
      <polygon class="cls-6" points="319.47 77.79 327.39 77.79 327.39 74.51 325.07 72.19 319.47 77.79 319.47 77.79"/>
      <polygon class="cls-11" points="327.39 85.71 332.99 80.11 330.67 77.79 327.39 77.79 327.39 85.71 327.39 85.71"/>
      <path class="cls-3"
            d="M360.16,49l-4-4a2.81,2.81,0,0,0-4,0L338.59,58.67v7.92h7.92l13.65-13.66a2.79,2.79,0,0,0,0-4Z"/>
      <polygon class="cls-3" points="338.59 69.87 338.59 66.59 335.31 66.59 338.59 69.87 338.59 69.87"/>
      <polygon class="cls-4" points="335.31 77.79 338.59 77.79 338.59 74.51 335.31 77.79 335.31 77.79"/>
      <path class="cls-4"
            d="M346.51,77.79h-7.92v7.92l13.66,13.65a2.79,2.79,0,0,0,4,0l4-4a2.78,2.78,0,0,0,0-4L346.51,77.79Z"/>
      <polygon class="cls-2" points="330.67 66.59 327.39 66.59 327.39 69.87 330.67 66.59 330.67 66.59"/>
      <path class="cls-2"
            d="M319.47,66.59h7.92V58.67L313.73,45a2.81,2.81,0,0,0-4,0l-4,4a2.81,2.81,0,0,0,0,4l13.66,13.66Z"/>
      <path class="cls-5"
            d="M305.81,91.45a2.79,2.79,0,0,0,0,4l4,4a2.79,2.79,0,0,0,4,0l13.66-13.65V77.79h-7.92L305.81,91.45Z"/>
      <polygon class="cls-5" points="327.39 74.51 327.39 77.79 330.67 77.79 327.39 74.51 327.39 74.51"/>
      <polygon class="cls-5" points="338.59 74.51 340.91 72.19 338.59 69.87 338.59 74.51 338.59 74.51"/>
      <path class="cls-5" d="M360,66.59H346.51l-5.6,5.6,5.6,5.6H360a2.8,2.8,0,0,0,2.8-2.8v-5.6a2.8,2.8,0,0,0-2.8-2.8Z"/>
      <polygon class="cls-3" points="327.39 69.87 325.07 72.19 327.39 74.51 327.39 69.87 327.39 69.87"/>
      <path class="cls-3" d="M319.47,77.79l5.6-5.6-5.6-5.6H306a2.8,2.8,0,0,0-2.8,2.8V75a2.8,2.8,0,0,0,2.8,2.8Z"/>
      <path class="cls-2"
            d="M312.36,156.26a.71.71,0,0,1-.71-.61c-.17-1-.32-2-.46-2.94H307l-.61,2.94a.69.69,0,0,1-.69.59.72.72,0,0,1-.75-.72l0-.16c.69-3.4,2.09-10.22,2.09-10.22a1.88,1.88,0,0,1,2.08-1.49c1.53,0,2,.84,2.23,2.09l1.72,9.64,0,.17a.74.74,0,0,1-.76.71Zm-2.52-10.73c-.1-.37-.33-.41-.69-.41s-.65.27-.77.88l-1.07,5.24H311l-1.12-5.71Z"/>
      <path class="cls-2"
            d="M321.78,156.17h-2.31a2.83,2.83,0,0,1-2.93-2.95.7.7,0,0,1,.73-.74.72.72,0,0,1,.74.74,1.36,1.36,0,0,0,1.46,1.49h2.31a1.33,1.33,0,0,0,1.47-1.47v-1.39c0-.92,0-1.38-2.62-1.38s-4.09-.49-4.09-3.28v-.5a2.79,2.79,0,0,1,2.93-2.94h2.31a2.78,2.78,0,0,1,2.94,2.94v.12a.71.71,0,0,1-.73.74.72.72,0,0,1-.74-.74v-.12a1.32,1.32,0,0,0-1.47-1.47h-2.31a1.34,1.34,0,0,0-1.46,1.47v.5c0,1.54.25,1.81,2.62,1.81,2.81,0,4.09.63,4.09,2.85v1.39a2.78,2.78,0,0,1-2.94,2.93Z"/>
      <path class="cls-2"
            d="M335.74,156.28a.72.72,0,0,1-.74-.73l0-10.31c-.11.27.3-.71-2.1,5.46a.77.77,0,0,1-.69.58.76.76,0,0,1-.69-.58c-.7-1.76-1.47-3.63-2.12-5.48h0v10.33a.74.74,0,0,1-1.47,0V144.49a.74.74,0,0,1,.73-.74h.78c1,0,1.15.46,1.45,1.2l1.34,3.44c.31-.8,1-2.62,1.49-3.84a1.22,1.22,0,0,1,1.3-.8h.78a.74.74,0,0,1,.73.74v11.06a.71.71,0,0,1-.73.73Z"/>
      <path class="cls-2"
            d="M379.2,156.17h-2.31a2.83,2.83,0,0,1-2.94-2.95.71.71,0,0,1,.74-.74.72.72,0,0,1,.73.74,1.37,1.37,0,0,0,1.47,1.49h2.31a1.33,1.33,0,0,0,1.47-1.47v-1.39c0-.92,0-1.38-2.62-1.38s-4.1-.49-4.1-3.28v-.5a2.8,2.8,0,0,1,2.94-2.94h2.31a2.78,2.78,0,0,1,2.94,2.94v.12a.71.71,0,0,1-.74.74.72.72,0,0,1-.73-.74v-.12a1.32,1.32,0,0,0-1.47-1.47h-2.31a1.35,1.35,0,0,0-1.47,1.47v.5c0,1.54.26,1.81,2.63,1.81,2.81,0,4.09.63,4.09,2.85v1.39a2.78,2.78,0,0,1-2.94,2.93Z"/>
      <path class="cls-2"
            d="M393.15,145.22h-2.83v10.33a.7.7,0,0,1-.73.73.72.72,0,0,1-.74-.73V145.22H386a.71.71,0,0,1-.74-.73.72.72,0,0,1,.74-.74h7.13a.71.71,0,0,1,.74.74.72.72,0,0,1-.74.73Z"/>
      <path class="cls-2"
            d="M427.73,156.17H421.2a.74.74,0,0,1-.73-.73v-11a.75.75,0,0,1,.73-.74h6.32a.71.71,0,0,1,.73.74.71.71,0,0,1-.73.73h-5.58v3.94h2.47a.74.74,0,1,1,0,1.47h-2.47v4.1h5.79a.7.7,0,0,1,.73.73.71.71,0,0,1-.73.73Z"/>
      <path class="cls-2"
            d="M439,156.2h-.85a1.17,1.17,0,0,1-.67-.45l-4.25-9.67v9.47a.74.74,0,0,1-1.47,0V144.49a.74.74,0,0,1,.73-.74h.84a1.1,1.1,0,0,1,.67.44l4.26,9.68v-9.44a.71.71,0,0,1,.74-.74.72.72,0,0,1,.73.74v11a.74.74,0,0,1-.73.74Z"/>
      <path class="cls-2"
            d="M450.85,145.22H448v10.33a.71.71,0,0,1-.74.73.71.71,0,0,1-.73-.73V145.22h-2.83a.71.71,0,0,1-.74-.73.72.72,0,0,1,.74-.74h7.13a.71.71,0,0,1,.74.74.72.72,0,0,1-.74.73Z"/>
      <path class="cls-2"
            d="M473.9,156.2h-.84a1.16,1.16,0,0,1-.68-.45l-4.25-9.67v9.47a.74.74,0,0,1-1.47,0V144.49a.74.74,0,0,1,.73-.74h.84a1.1,1.1,0,0,1,.67.44l4.26,9.68v-9.44a.71.71,0,0,1,.74-.74.72.72,0,0,1,.73.74v11a.74.74,0,0,1-.73.74Z"/>
      <path class="cls-2"
            d="M485.71,156.17h-6.53a.74.74,0,0,1-.73-.73v-11a.75.75,0,0,1,.73-.74h6.32a.71.71,0,0,1,.73.74.71.71,0,0,1-.73.73h-5.58v3.94h2.47a.74.74,0,1,1,0,1.47h-2.47v4.1h5.79a.7.7,0,0,1,.73.73.71.71,0,0,1-.73.73Z"/>
      <path class="cls-2"
            d="M497.29,145.22h-2.83v10.33a.71.71,0,0,1-.74.73.71.71,0,0,1-.73-.73V145.22h-2.84a.7.7,0,0,1-.73-.73.72.72,0,0,1,.73-.74h7.14a.71.71,0,0,1,.73.74.71.71,0,0,1-.73.73Z"/>
      <path class="cls-2"
            d="M288.49,135.46H283a.72.72,0,0,1-.76-.74A.73.73,0,0,1,283,134h2v-9.48h-2a.74.74,0,1,1,0-1.47h5.46a.7.7,0,0,1,.75.73.72.72,0,0,1-.75.74h-2V134h2a.72.72,0,0,1,.75.73.71.71,0,0,1-.75.74Z"/>
      <path class="cls-2"
            d="M300.55,135.48h-.84A1.1,1.1,0,0,1,299,135l-4.26-9.67v9.46a.7.7,0,0,1-.73.73.72.72,0,0,1-.74-.73V123.77a.74.74,0,0,1,.74-.73h.83a1.15,1.15,0,0,1,.68.44l4.26,9.67v-9.44a.71.71,0,0,1,.73-.74.72.72,0,0,1,.73.74v11a.74.74,0,0,1-.73.73Z"/>
      <path class="cls-2"
            d="M312.4,124.51h-2.83v10.32a.7.7,0,0,1-.73.73.72.72,0,0,1-.74-.73V124.51h-2.83a.74.74,0,0,1,0-1.47h7.13a.7.7,0,0,1,.74.73.72.72,0,0,1-.74.74Z"/>
      <path class="cls-2"
            d="M323.9,135.46h-6.52a.75.75,0,0,1-.74-.74v-11a.74.74,0,0,1,.74-.73h6.31a.71.71,0,0,1,.74.73.72.72,0,0,1-.74.73h-5.58v4h2.48a.73.73,0,0,1,0,1.46h-2.48V134h5.79a.71.71,0,0,1,.74.73.72.72,0,0,1-.74.74Z"/>
      <path class="cls-2"
            d="M334.33,129.77l1.53,4.83,0,.25a.73.73,0,0,1-.75.71.66.66,0,0,1-.67-.5L332.86,130h-3.57v4.83a.7.7,0,0,1-.73.73.71.71,0,0,1-.73-.73V123.77a.73.73,0,0,1,.73-.73h4.51A2.78,2.78,0,0,1,336,126v1.09a2.76,2.76,0,0,1-1.68,2.71Zm.21-3.8a1.33,1.33,0,0,0-1.47-1.46h-3.78v4h3.78a1.33,1.33,0,0,0,1.47-1.47V126Z"/>
      <path class="cls-2"
            d="M346.71,135.48h-.84a1.1,1.1,0,0,1-.67-.44l-4.26-9.67v9.46a.7.7,0,0,1-.73.73.72.72,0,0,1-.74-.73V123.77a.74.74,0,0,1,.74-.73H341a1.1,1.1,0,0,1,.67.44l4.26,9.67v-9.44a.71.71,0,0,1,.74-.74.72.72,0,0,1,.73.74v11a.74.74,0,0,1-.73.73Z"/>
      <path class="cls-2"
            d="M358.27,135.54a.69.69,0,0,1-.71-.61c-.17-1-.32-2-.47-2.93h-4.17l-.61,2.93a.69.69,0,0,1-.69.59.73.73,0,0,1-.76-.71l0-.17,2.1-10.22a1.88,1.88,0,0,1,2.08-1.49c1.53,0,2,.84,2.22,2.1l1.72,9.63,0,.17a.72.72,0,0,1-.75.71Zm-2.52-10.72c-.1-.38-.33-.42-.69-.42s-.65.27-.78.88l-1.07,5.25h3.65l-1.11-5.71Z"/>
      <path class="cls-2"
            d="M370.1,124.51h-2.83v10.32a.7.7,0,0,1-.73.73.72.72,0,0,1-.74-.73V124.51H363a.74.74,0,0,1,0-1.47h7.13a.7.7,0,0,1,.74.73.72.72,0,0,1-.74.74Z"/>
      <path class="cls-2"
            d="M380.8,135.46h-5.45a.72.72,0,0,1-.76-.74.73.73,0,0,1,.76-.73h2v-9.48h-2a.74.74,0,1,1,0-1.47h5.45a.71.71,0,0,1,.76.73.72.72,0,0,1-.76.74h-2V134h2a.72.72,0,0,1,.76.73.71.71,0,0,1-.76.74Z"/>
      <path class="cls-2"
            d="M390.77,135.46h-2.31a2.8,2.8,0,0,1-2.94-2.94V126a2.79,2.79,0,0,1,2.94-2.93h2.31a2.78,2.78,0,0,1,2.94,2.93v6.55a2.79,2.79,0,0,1-2.94,2.94Zm1.47-9.49a1.33,1.33,0,0,0-1.47-1.46h-2.31A1.34,1.34,0,0,0,387,126v6.55a1.35,1.35,0,0,0,1.47,1.47h2.31a1.33,1.33,0,0,0,1.47-1.47V126Z"/>
      <path class="cls-2"
            d="M404.41,135.48h-.84a1.1,1.1,0,0,1-.67-.44l-4.26-9.67v9.46a.71.71,0,0,1-.74.73.71.71,0,0,1-.73-.73V123.77a.73.73,0,0,1,.73-.73h.84a1.1,1.1,0,0,1,.67.44l4.26,9.67v-9.44a.71.71,0,0,1,.74-.74.72.72,0,0,1,.73.74v11a.74.74,0,0,1-.73.73Z"/>
      <path class="cls-2"
            d="M416,135.54a.71.71,0,0,1-.72-.61c-.16-1-.31-2-.46-2.93h-4.17l-.61,2.93a.7.7,0,0,1-.7.59.73.73,0,0,1-.75-.71l0-.17c.69-3.4,2.1-10.22,2.1-10.22a1.88,1.88,0,0,1,2.08-1.49c1.53,0,2,.84,2.22,2.1l1.72,9.63,0,.17a.73.73,0,0,1-.76.71Zm-2.52-10.72c-.1-.38-.34-.42-.69-.42-.51,0-.65.27-.78.88l-1.07,5.25h3.65l-1.11-5.71Z"/>
      <path class="cls-2"
            d="M427.91,135.46h-6.82a.75.75,0,0,1-.74-.74v-11a.71.71,0,0,1,.74-.76.72.72,0,0,1,.73.76V134h6.09a.71.71,0,0,1,.75.73.72.72,0,0,1-.75.74Z"/>
      <path class="cls-2"
            d="M462.1,135.56a.67.67,0,0,1-.62-.33l-2.93-4.73-2.75,4.71a.65.65,0,0,1-.61.35.75.75,0,0,1-.77-.71l.12-.4,3.13-5.35-3.13-5-.12-.42a.77.77,0,0,1,.77-.72.68.68,0,0,1,.61.34l2.71,4.36,2.54-4.34a.64.64,0,0,1,.6-.36.76.76,0,0,1,.78.72l-.13.4-2.91,5,3.36,5.35.12.42a.77.77,0,0,1-.77.71Z"/>
      <path class="cls-2"
            d="M508.06,135.48h-.83a1.15,1.15,0,0,1-.68-.44l-4.26-9.67v9.46a.7.7,0,0,1-.73.73.71.71,0,0,1-.73-.73V123.77a.73.73,0,0,1,.73-.73h.84a1.12,1.12,0,0,1,.67.44l4.26,9.67v-9.44a.71.71,0,0,1,.73-.74.72.72,0,0,1,.74.74v11a.75.75,0,0,1-.74.73Z"/>
      <path class="cls-2"
            d="M510.34,55c-5.24,0-7.09,1.19-7.09,4.53V97.38a2.8,2.8,0,0,1-2.8,2.8h-5.6a2.8,2.8,0,0,1-2.8-2.8V58.92c0-9.77,6.44-14.73,19.12-14.73h14c12.69,0,19.13,5,19.13,14.73V97.38a2.8,2.8,0,0,1-2.8,2.8h-5.6a2.8,2.8,0,0,1-2.8-2.8V59.5c0-3.34-1.86-4.53-7.09-4.53Z"/>
      <path class="cls-2"
            d="M444.1,58.1a1.81,1.81,0,0,1-1-2.21c.21-.6,1.24-.92,2.15-.92H475.9a2.8,2.8,0,0,0,2.8-2.8V47a2.8,2.8,0,0,0-2.8-2.8H445.13A13.16,13.16,0,0,0,432,57.35c0,4.4,1.8,7.25,5.87,9.52l34.42,19.41a1.78,1.78,0,0,1,1,2.2c-.21.61-1.23.93-2.14.93H434.79a2.8,2.8,0,0,0-2.81,2.8v5.17a2.8,2.8,0,0,0,2.81,2.8h36.45A13.16,13.16,0,0,0,484.4,87c0-4.41-1.84-7.25-5.87-9.52L444.1,58.1Z"/>
      <path class="cls-2"
            d="M372.47,57.35a13.16,13.16,0,0,1,13.16-13.16h26.11a13.16,13.16,0,0,1,13.15,13.16c0,4.4-1.81,7.25-5.87,9.52L384.6,86.28a1.78,1.78,0,0,0-1,2.2c.21.61,1.23.93,2.14.93h36.36a2.8,2.8,0,0,1,2.8,2.8v5.17a2.8,2.8,0,0,1-2.8,2.8H385.63A13.16,13.16,0,0,1,372.47,87V57.35Zm41.31-1.46c-.21-.6-1.24-.92-2.14-.92H386.47a2.8,2.8,0,0,0-2.8,2.8V74.51l29.1-16.41a1.81,1.81,0,0,0,1-2.21Z"/>
      <path class="cls-4"
            d="M338.59,45.15a2.8,2.8,0,0,0-2.8-2.8h-5.6a2.8,2.8,0,0,0-2.8,2.8V58.67l5.6,5.6,5.6-5.6V45.15Z"/>
      <polygon class="cls-4" points="335.31 66.59 332.99 64.27 330.67 66.59 335.31 66.59 335.31 66.59"/>
      <polygon class="cls-2" points="330.67 77.79 332.99 80.11 335.31 77.79 330.67 77.79 330.67 77.79"/>
      <path class="cls-2"
            d="M333,80.11l-5.6,5.6V99.23a2.8,2.8,0,0,0,2.8,2.8h5.6a2.8,2.8,0,0,0,2.8-2.8V85.71l-5.6-5.6Z"/>
      <path class="cls-10"
            d="M290.67,100.18a2.8,2.8,0,0,0,2.8-2.8V47a2.8,2.8,0,0,0-2.8-2.8h-5.6a2.81,2.81,0,0,0-2.8,2.8V97.38a2.8,2.8,0,0,0,2.8,2.8Z"/>
      <path class="cls-2"
            d="M266.68,31.4h-2.26a2.68,2.68,0,0,0-2.87,2.42V162.45a2.68,2.68,0,0,0,2.87,2.42h2.26a2.69,2.69,0,0,0,2.87-2.42V33.82a2.69,2.69,0,0,0-2.87-2.42Z"/>
      <path class="cls-12"
            d="M226.59,149.1V136a6.85,6.85,0,0,0-7.2-7.2H209.31a2.43,2.43,0,0,0-2.32,2.32V154a2.42,2.42,0,0,0,2.32,2.32h10.08a6.85,6.85,0,0,0,7.2-7.2Zm-4.64,0a2.28,2.28,0,0,1-2.56,2.6h-7.76V133.4h7.76A2.28,2.28,0,0,1,222,136v13.1ZM252.47,154a2.17,2.17,0,0,0-2.28-2.28H238v-7h4.83a2.33,2.33,0,0,0,0-4.65H238V133.4h11.71a2.17,2.17,0,0,0,2.27-2.28,2.2,2.2,0,0,0-2.27-2.32h-14a2.43,2.43,0,0,0-2.32,2.32V154a2.42,2.42,0,0,0,2.32,2.32h14.45a2.21,2.21,0,0,0,2.28-2.32Z"/>
      <path class="cls-10"
            d="M161,115.85a1.36,1.36,0,0,1-1.36-1.17c-.32-1.84-.6-3.71-.88-5.59h-7.95l-1.16,5.59a1.3,1.3,0,0,1-1.31,1.12,1.39,1.39,0,0,1-1.44-1.36l0-.32c1.32-6.47,4-19.45,4-19.45.4-2,1.92-2.84,4-2.84,2.91,0,3.79,1.6,4.23,4l3.28,18.34,0,.33a1.4,1.4,0,0,1-1.44,1.36Zm-4.79-20.43c-.2-.71-.64-.79-1.32-.79-1,0-1.24.52-1.48,1.67l-2,10h6.95l-2.11-10.87Z"/>
      <path class="cls-10"
            d="M179.84,115.83h-13a1.42,1.42,0,0,1-1.4-1.39v-21a1.34,1.34,0,0,1,1.4-1.43,1.37,1.37,0,0,1,1.4,1.43V113h11.58a1.35,1.35,0,0,1,1.44,1.4,1.37,1.37,0,0,1-1.44,1.39Z"/>
      <path class="cls-10"
            d="M193.83,116h-4.4a5.32,5.32,0,0,1-5.59-5.59V93.67a1.34,1.34,0,0,1,1.4-1.4,1.36,1.36,0,0,1,1.39,1.4v16.78a2.55,2.55,0,0,0,2.8,2.79h4.4a2.51,2.51,0,0,0,2.79-2.79V93.67a1.34,1.34,0,0,1,1.4-1.4,1.36,1.36,0,0,1,1.39,1.4v16.78a5.26,5.26,0,0,1-5.58,5.59Z"/>
      <path class="cls-10"
            d="M217.28,115.85a1.36,1.36,0,0,1-1.4-1.4l-.07-19.62c-.2.52.56-1.35-4,10.39a1.34,1.34,0,0,1-2.64,0c-1.31-3.35-2.79-6.91-4-10.43h0v19.66a1.34,1.34,0,0,1-1.4,1.4,1.36,1.36,0,0,1-1.4-1.4V93.39A1.41,1.41,0,0,1,203.7,92h1.48c1.88,0,2.2.88,2.76,2.28l2.55,6.54c.6-1.51,1.84-5,2.84-7.3A2.34,2.34,0,0,1,215.81,92h1.47a1.41,1.41,0,0,1,1.4,1.39v21.06a1.36,1.36,0,0,1-1.4,1.4Z"/>
      <path class="cls-10"
            d="M251.08,116.27H240.69a1.35,1.35,0,0,1-1.44-1.39,1.37,1.37,0,0,1,1.44-1.4h3.8V95.42h-3.8a1.35,1.35,0,0,1-1.44-1.4,1.37,1.37,0,0,1,1.44-1.39h10.39A1.35,1.35,0,0,1,252.52,94a1.37,1.37,0,0,1-1.44,1.4h-3.8v18.06h3.8a1.37,1.37,0,0,1,1.44,1.4,1.35,1.35,0,0,1-1.44,1.39Z"/>
      <path class="cls-10"
            d="M234.8,115.87h-1.59a2.14,2.14,0,0,1-1.28-.84l-8.11-18.41v18a1.33,1.33,0,0,1-1.39,1.39,1.37,1.37,0,0,1-1.41-1.39V93.58a1.42,1.42,0,0,1,1.41-1.4H224a2.14,2.14,0,0,1,1.28.84l8.11,18.41v-18a1.35,1.35,0,0,1,1.39-1.4,1.37,1.37,0,0,1,1.4,1.4v21a1.42,1.42,0,0,1-1.4,1.4Z"/>
      <path class="cls-2"
            d="M18.93,68.22c1.71,3.69.68,4-4,4.06l-7.26,1,.32,3.14,2,1.69-.81,5.9L6.64,86l.84,3.15L5.72,90.42l-2.29-.23.18,1.58,1.59.56.67,1.29s-.12,1.29-.12,1.43l-.93,1.08-2.2,1.64c-.18.09-.28,0-.33-.16L0,96.47l2.62,1.3,1.56-.51a5.62,5.62,0,0,0,.57,1.84c.33.88,2.34,1.73,2.39,2.5.08,1.13-1.08,1.74-.71,2.33s2-.34,2.36-.2v4.64l-1.62.11c-.67.18.42,1.57,0,1.61a2.39,2.39,0,0,0-2.29,1.23l-2.36.11,1.84-.08.09.9L4,114a5.68,5.68,0,0,0,.69,2.92,10,10,0,0,0,1.68,2.43c.87.63,1.71.16,3.05.56l.07,2.4-3.27,3.24L6.5,128l-.68,1.12,1.69.13,2.73,6.64,3.59-.45A3.88,3.88,0,0,0,17.76,138c1.45,0,1.09-.9,1.82-1.19.43-.18,1.68.33,2.78.07l1,2.84,9.87,3.39c-1.29,4.81-6.31,4.46-8.09,8.45-1.15,2.58-.65,4.48-.91,5.69s-1.28,1.73-2.88,4.45v5l-2.07,4s.11,1.87.11,2.46c0,1.21,0,2.13,1.89,2.59.52.12,2.53-1.32,3.09-1.25s.54,1.19,1.11,1.55,1.79,0,2.3-.1c1.39-.18,1.53-1.54,2.34-1.66l1.26,1.17,2.77-.22c.62-2.3-1-4.55,2-4.55,1.53,0,1.49,1.34,2.35,2.25.68.7,2.38.87,2.72,1.81,8-1.7,8.31,4.1,10.14,4.1a16.37,16.37,0,0,0,4.91-.53l3.27,3.77,1.74.5-.08,2.21,1.77-.43c1.71-1.19,2.43-.39,2.43-3.29l-.05-2.15,4.27.89h2l2.2,3.52,6-.88,3.17-3,10.13-.54,1-1.63,2.89,0,1.9,1.41,1.31-1.24,2.76.49.57,3.5,3.06,1.37.93-5.56-2.5,0-.45-1.3,1.93-1.24-1.25-3.39L103,168.56l3.21-5,5.56.1,2.1-2.37v-4.66l3.55.93,2-1.1c-1-4.33-.52-6.72-3.86-7.5-3-.71-3.62-2.45-6-5-4.45-4.84-3.68-2.44-6.74-5.43-1.19-1.17-3.29-6.29-4.74-8.45.53-2.28,1-2.33,1-5.08,0-.88-4.46-2.74-5-10.27L98,116l-.29-1.29,10.06-2.52,8.53-6.46h3c4,0,.12-1.53,6.32-2.39l.79-1.67v-3h3c3.21,0,2,2.49,2.6,5.07,1.32,1.08,1.8,0,3-.06.34,0,2.53-3.57,3.53-4.2V95.61c0-5.51-.66-6.31-4.06-8.12l-2-7.1c.64-2.67,2-1.91,1.7-4L134,70.64l-1.64-.32-1.17-2.63,1.78-1.55-.51-3.4c-1.74-.93-6-3.78-6-5.89,0-.06-1.23-1.88-.63-3,.5-1,2.75-2,3.52-3.27a3.8,3.8,0,0,0,.49-3l-1.06-5.1L128.46,36l-2.05-.34,1.65-4.38c-4.1,0-3.59-5.71-7.69-5.71h-4.06c1.21-4.53,1.22-2.92,5.48-2.2l-2.56-3.92,1.14-4h-4.06v-2h-3.09l-1,6.1L103.7,18,97,24.59l-5.83.22-3.28,3.71-7.27-1,2.18-2.92,1.23-4,3.17-.81a1.74,1.74,0,0,0-.48-2.72c-.18-1-.73-1.62-2.21-1.32q-2.86,1.09-.22,2.84l-3.52,2c-4.39,0-3.52-3.49-6.53-3.49a19.2,19.2,0,0,1-2,.85l-.53-2.19-1.4-.64L70.88,10,67.49,9l.15-1.67-2.93-.65-3.92.83-1,.1-1-1.31L56.83,5,52,5.1l-.49.62a7,7,0,0,0-2.41-1.25c-.47-.06.24-10.45-1.11.65a27,27,0,0,0-.66,3.24c5,1.05,5.62,1.48,5.73,3.78,0,.64-2.89,1.2-2.22,2.24.32.49,5.22-.41,5.65.23l-1.92,1.57L50.78,16,49.63,19.4l5.09-.66.73,1.79h-2v2h2l-.82,2.31L53,24.79l-.33,2.89,5.11.89,2,3.51L57.6,30.53l-8.28-.42-1.66,2.78-.41,8-.93-5.16-1.91,4.08-4.13-1.16c.63-2.76,1-1.61,1-3.93,0-1.43-1.38-2-3-2H32.12c-4.29,0-.54,1.4-5.07,3v3l4,1.14-2.76,1.62,0,7.28-2.9,1.05-.81,6-3.65-.68-1.1,3.85c2.37.09,5.2-.27,5.2,2.07,0,3.76-2.94,6.26-6.09,7.1ZM139.31,99l.27-.17,0-.05-.24.22Zm-7.58-60.83L128.46,36l3.26,2.21v0Z"/>
      <polygon class="cls-5" points="28.05 82.83 28.67 82.22 27.8 82.22 27.8 82.58 28.05 82.83 28.05 82.83"/>
      <polygon class="cls-5" points="27.19 81.97 27.44 82.22 27.8 82.22 27.8 81.36 27.19 81.97 27.19 81.97"/>
      <polygon class="cls-5" points="27.8 83.44 27.44 83.44 27.19 83.7 27.8 84.31 27.8 83.44 27.8 83.44"/>
      <polygon class="cls-5" points="28.05 82.83 27.8 83.09 27.8 83.44 28.67 83.44 28.05 82.83 28.05 82.83"/>
      <polygon class="cls-5" points="26.58 82.22 25.71 82.22 26.32 82.83 26.58 82.58 26.58 82.22 26.58 82.22"/>
      <polygon class="cls-5" points="26.58 81.36 26.58 82.22 26.94 82.22 27.19 81.97 26.58 81.36 26.58 81.36"/>
      <polygon class="cls-5" points="25.71 83.44 26.58 83.44 26.58 83.09 26.32 82.83 25.71 83.44 25.71 83.44"/>
      <polygon class="cls-5" points="26.58 84.31 27.19 83.7 26.94 83.44 26.58 83.44 26.58 84.31 26.58 84.31"/>
      <path class="cls-5" d="M30.16,80.3l-.43-.44a.31.31,0,0,0-.44,0l-1.49,1.5v.86h.87l1.49-1.49a.3.3,0,0,0,0-.43Z"/>
      <polygon class="cls-5" points="27.8 82.58 27.8 82.22 27.44 82.22 27.8 82.58 27.8 82.58"/>
      <polygon class="cls-5" points="27.44 83.44 27.8 83.44 27.8 83.09 27.44 83.44 27.44 83.44"/>
      <path class="cls-5" d="M28.67,83.44H27.8v.87l1.49,1.49a.31.31,0,0,0,.44,0l.43-.43a.3.3,0,0,0,0-.43l-1.49-1.5Z"/>
      <polygon class="cls-5" points="26.94 82.22 26.58 82.22 26.58 82.58 26.94 82.22 26.94 82.22"/>
      <path class="cls-5" d="M25.71,82.22h.87v-.86l-1.49-1.5a.31.31,0,0,0-.44,0l-.43.44a.3.3,0,0,0,0,.43l1.49,1.49Z"/>
      <path class="cls-5" d="M24.22,84.94a.3.3,0,0,0,0,.43l.43.43a.31.31,0,0,0,.44,0l1.49-1.49v-.87h-.87l-1.49,1.5Z"/>
      <polygon class="cls-5" points="26.58 83.09 26.58 83.44 26.94 83.44 26.58 83.09 26.58 83.09"/>
      <polygon class="cls-5" points="27.8 83.09 28.05 82.83 27.8 82.58 27.8 83.09 27.8 83.09"/>
      <path class="cls-5" d="M30.14,82.22H28.67l-.62.61.62.61h1.47a.3.3,0,0,0,.31-.3v-.61a.31.31,0,0,0-.31-.31Z"/>
      <polygon class="cls-5" points="26.58 82.58 26.32 82.83 26.58 83.09 26.58 82.58 26.58 82.58"/>
      <path class="cls-5" d="M25.71,83.44l.61-.61-.61-.61H24.23a.31.31,0,0,0-.3.31v.61a.3.3,0,0,0,.3.3Z"/>
      <path class="cls-5" d="M27.8,79.88a.31.31,0,0,0-.3-.31h-.62a.3.3,0,0,0-.3.31v1.48l.61.61.61-.61V79.88Z"/>
      <polygon class="cls-5" points="27.44 82.22 27.19 81.97 26.94 82.22 27.44 82.22 27.44 82.22"/>
      <polygon class="cls-5" points="26.94 83.44 27.19 83.7 27.44 83.44 26.94 83.44 26.94 83.44"/>
      <path class="cls-5" d="M27.19,83.7l-.61.61v1.48a.29.29,0,0,0,.3.3h.62a.3.3,0,0,0,.3-.3V84.31l-.61-.61Z"/>
      <path class="cls-5" d="M27.19,83.7l-.61.61v1.48a.29.29,0,0,0,.3.3h.62a.3.3,0,0,0,.3-.3V84.31l-.61-.61Z"/>
      <polygon class="cls-5" points="28.05 82.83 28.67 82.22 27.8 82.22 27.8 82.58 28.05 82.83 28.05 82.83"/>
      <polygon class="cls-5" points="27.19 81.97 27.44 82.22 27.8 82.22 27.8 81.36 27.19 81.97 27.19 81.97"/>
      <polygon class="cls-5" points="27.8 83.44 27.44 83.44 27.19 83.7 27.8 84.31 27.8 83.44 27.8 83.44"/>
      <polygon class="cls-5" points="28.05 82.83 27.8 83.09 27.8 83.44 28.67 83.44 28.05 82.83 28.05 82.83"/>
      <polygon class="cls-5" points="26.58 82.22 25.71 82.22 26.32 82.83 26.58 82.58 26.58 82.22 26.58 82.22"/>
      <polygon class="cls-5" points="26.58 81.36 26.58 82.22 26.94 82.22 27.19 81.97 26.58 81.36 26.58 81.36"/>
      <polygon class="cls-5" points="25.71 83.44 26.58 83.44 26.58 83.09 26.32 82.83 25.71 83.44 25.71 83.44"/>
      <polygon class="cls-5" points="26.58 84.31 27.19 83.7 26.94 83.44 26.58 83.44 26.58 84.31 26.58 84.31"/>
      <path class="cls-5" d="M30.16,80.3l-.43-.44a.31.31,0,0,0-.44,0l-1.49,1.5v.86h.87l1.49-1.49a.3.3,0,0,0,0-.43Z"/>
      <polygon class="cls-5" points="27.8 82.58 27.8 82.22 27.44 82.22 27.8 82.58 27.8 82.58"/>
      <polygon class="cls-5" points="27.44 83.44 27.8 83.44 27.8 83.09 27.44 83.44 27.44 83.44"/>
      <path class="cls-5" d="M28.67,83.44H27.8v.87l1.49,1.49a.31.31,0,0,0,.44,0l.43-.43a.3.3,0,0,0,0-.43l-1.49-1.5Z"/>
      <polygon class="cls-5" points="26.94 82.22 26.58 82.22 26.58 82.58 26.94 82.22 26.94 82.22"/>
      <path class="cls-5" d="M25.71,82.22h.87v-.86l-1.49-1.5a.31.31,0,0,0-.44,0l-.43.44a.3.3,0,0,0,0,.43l1.49,1.49Z"/>
      <path class="cls-5" d="M24.22,84.94a.3.3,0,0,0,0,.43l.43.43a.31.31,0,0,0,.44,0l1.49-1.49v-.87h-.87l-1.49,1.5Z"/>
      <polygon class="cls-5" points="26.58 83.09 26.58 83.44 26.94 83.44 26.58 83.09 26.58 83.09"/>
      <polygon class="cls-5" points="27.8 83.09 28.05 82.83 27.8 82.58 27.8 83.09 27.8 83.09"/>
      <path class="cls-5" d="M30.14,82.22H28.67l-.62.61.62.61h1.47a.3.3,0,0,0,.31-.3v-.61a.31.31,0,0,0-.31-.31Z"/>
      <polygon class="cls-5" points="26.58 82.58 26.32 82.83 26.58 83.09 26.58 82.58 26.58 82.58"/>
      <path class="cls-5" d="M25.71,83.44l.61-.61-.61-.61H24.23a.31.31,0,0,0-.3.31v.61a.3.3,0,0,0,.3.3Z"/>
      <path class="cls-5" d="M27.8,79.88a.31.31,0,0,0-.3-.31h-.62a.3.3,0,0,0-.3.31v1.48l.61.61.61-.61V79.88Z"/>
      <polygon class="cls-5" points="27.44 82.22 27.19 81.97 26.94 82.22 27.44 82.22 27.44 82.22"/>
      <polygon class="cls-5" points="26.94 83.44 27.19 83.7 27.44 83.44 26.94 83.44 26.94 83.44"/>
      <path class="cls-5" d="M27.19,83.7l-.61.61v1.48a.29.29,0,0,0,.3.3h.62a.3.3,0,0,0,.3-.3V84.31l-.61-.61Z"/>
      <polygon class="cls-5" points="74.92 99.39 75.53 98.78 74.67 98.78 74.67 99.14 74.92 99.39 74.92 99.39"/>
      <polygon class="cls-5" points="74.06 98.52 74.31 98.78 74.67 98.78 74.67 97.91 74.06 98.52 74.06 98.52"/>
      <polygon class="cls-5" points="74.67 100 74.31 100 74.06 100.25 74.67 100.87 74.67 100 74.67 100"/>
      <polygon class="cls-5" points="74.92 99.39 74.67 99.64 74.67 100 75.53 100 74.92 99.39 74.92 99.39"/>
      <polygon class="cls-5" points="73.44 98.78 72.58 98.78 73.19 99.39 73.44 99.14 73.44 98.78 73.44 98.78"/>
      <polygon class="cls-5" points="73.44 97.91 73.44 98.78 73.8 98.78 74.06 98.52 73.44 97.91 73.44 97.91"/>
      <polygon class="cls-5" points="72.58 100 73.44 100 73.44 99.64 73.19 99.39 72.58 100 72.58 100"/>
      <polygon class="cls-5" points="73.44 100.87 74.06 100.25 73.8 100 73.44 100 73.44 100.87 73.44 100.87"/>
      <path class="cls-5" d="M77,96.85l-.43-.43a.3.3,0,0,0-.43,0l-1.49,1.49v.87h.86L77,97.28a.3.3,0,0,0,0-.43Z"/>
      <polygon class="cls-5" points="74.67 99.14 74.67 98.78 74.31 98.78 74.67 99.14 74.67 99.14"/>
      <polygon class="cls-5" points="74.31 100 74.67 100 74.67 99.64 74.31 100 74.31 100"/>
      <path class="cls-5" d="M75.53,100h-.86v.87l1.49,1.49a.3.3,0,0,0,.43,0l.43-.44a.3.3,0,0,0,0-.43L75.53,100Z"/>
      <polygon class="cls-5" points="73.8 98.78 73.44 98.78 73.44 99.14 73.8 98.78 73.8 98.78"/>
      <path class="cls-5" d="M72.58,98.78h.86v-.87L72,96.42a.3.3,0,0,0-.43,0l-.43.43a.3.3,0,0,0,0,.43l1.49,1.5Z"/>
      <path class="cls-5" d="M71.09,101.49a.3.3,0,0,0,0,.43l.43.44a.3.3,0,0,0,.43,0l1.49-1.49V100h-.86l-1.49,1.49Z"/>
      <polygon class="cls-5" points="73.44 99.64 73.44 100 73.8 100 73.44 99.64 73.44 99.64"/>
      <polygon class="cls-5" points="74.67 99.64 74.92 99.39 74.67 99.14 74.67 99.64 74.67 99.64"/>
      <path class="cls-5" d="M77,98.78H75.53l-.61.61.61.61H77a.31.31,0,0,0,.31-.31v-.61a.3.3,0,0,0-.31-.3Z"/>
      <polygon class="cls-5" points="73.44 99.14 73.19 99.39 73.44 99.64 73.44 99.14 73.44 99.14"/>
      <path class="cls-5" d="M72.58,100l.61-.61-.61-.61H71.1a.3.3,0,0,0-.31.3v.61a.31.31,0,0,0,.31.31Z"/>
      <path class="cls-5" d="M74.67,96.43a.3.3,0,0,0-.31-.3h-.61a.3.3,0,0,0-.31.3v1.48l.62.61.61-.61V96.43Z"/>
      <polygon class="cls-5" points="74.31 98.78 74.06 98.52 73.8 98.78 74.31 98.78 74.31 98.78"/>
      <polygon class="cls-5" points="73.8 100 74.06 100.25 74.31 100 73.8 100 73.8 100"/>
      <path class="cls-5" d="M74.06,100.25l-.62.62v1.47a.31.31,0,0,0,.31.31h.61a.31.31,0,0,0,.31-.31v-1.47l-.61-.62Z"/>
      <path class="cls-5" d="M74.06,100.25l-.62.62v1.47a.31.31,0,0,0,.31.31h.61a.31.31,0,0,0,.31-.31v-1.47l-.61-.62Z"/>
      <polygon class="cls-5" points="74.92 99.39 75.53 98.78 74.67 98.78 74.67 99.14 74.92 99.39 74.92 99.39"/>
      <polygon class="cls-5" points="74.06 98.52 74.31 98.78 74.67 98.78 74.67 97.91 74.06 98.52 74.06 98.52"/>
      <polygon class="cls-5" points="74.67 100 74.31 100 74.06 100.25 74.67 100.87 74.67 100 74.67 100"/>
      <polygon class="cls-5" points="74.92 99.39 74.67 99.64 74.67 100 75.53 100 74.92 99.39 74.92 99.39"/>
      <polygon class="cls-5" points="73.44 98.78 72.58 98.78 73.19 99.39 73.44 99.14 73.44 98.78 73.44 98.78"/>
      <polygon class="cls-5" points="73.44 97.91 73.44 98.78 73.8 98.78 74.06 98.52 73.44 97.91 73.44 97.91"/>
      <polygon class="cls-5" points="72.58 100 73.44 100 73.44 99.64 73.19 99.39 72.58 100 72.58 100"/>
      <polygon class="cls-5" points="73.44 100.87 74.06 100.25 73.8 100 73.44 100 73.44 100.87 73.44 100.87"/>
      <path class="cls-5" d="M77,96.85l-.43-.43a.3.3,0,0,0-.43,0l-1.49,1.49v.87h.86L77,97.28a.3.3,0,0,0,0-.43Z"/>
      <polygon class="cls-5" points="74.67 99.14 74.67 98.78 74.31 98.78 74.67 99.14 74.67 99.14"/>
      <polygon class="cls-5" points="74.31 100 74.67 100 74.67 99.64 74.31 100 74.31 100"/>
      <path class="cls-5" d="M75.53,100h-.86v.87l1.49,1.49a.3.3,0,0,0,.43,0l.43-.44a.3.3,0,0,0,0-.43L75.53,100Z"/>
      <polygon class="cls-5" points="73.8 98.78 73.44 98.78 73.44 99.14 73.8 98.78 73.8 98.78"/>
      <path class="cls-5" d="M72.58,98.78h.86v-.87L72,96.42a.3.3,0,0,0-.43,0l-.43.43a.3.3,0,0,0,0,.43l1.49,1.5Z"/>
      <path class="cls-5" d="M71.09,101.49a.3.3,0,0,0,0,.43l.43.44a.3.3,0,0,0,.43,0l1.49-1.49V100h-.86l-1.49,1.49Z"/>
      <polygon class="cls-5" points="73.44 99.64 73.44 100 73.8 100 73.44 99.64 73.44 99.64"/>
      <polygon class="cls-5" points="74.67 99.64 74.92 99.39 74.67 99.14 74.67 99.64 74.67 99.64"/>
      <path class="cls-5" d="M77,98.78H75.53l-.61.61.61.61H77a.31.31,0,0,0,.31-.31v-.61a.3.3,0,0,0-.31-.3Z"/>
      <polygon class="cls-5" points="73.44 99.14 73.19 99.39 73.44 99.64 73.44 99.14 73.44 99.14"/>
      <path class="cls-5" d="M72.58,100l.61-.61-.61-.61H71.1a.3.3,0,0,0-.31.3v.61a.31.31,0,0,0,.31.31Z"/>
      <path class="cls-5" d="M74.67,96.43a.3.3,0,0,0-.31-.3h-.61a.3.3,0,0,0-.31.3v1.48l.62.61.61-.61V96.43Z"/>
      <polygon class="cls-5" points="74.31 98.78 74.06 98.52 73.8 98.78 74.31 98.78 74.31 98.78"/>
      <polygon class="cls-5" points="73.8 100 74.06 100.25 74.31 100 73.8 100 73.8 100"/>
      <path class="cls-5" d="M74.06,100.25l-.62.62v1.47a.31.31,0,0,0,.31.31h.61a.31.31,0,0,0,.31-.31v-1.47l-.61-.62Z"/>
      <polygon class="cls-5" points="49.7 48.24 50.31 47.63 49.45 47.63 49.45 47.99 49.7 48.24 49.7 48.24"/>
      <polygon class="cls-5" points="48.83 47.38 49.09 47.63 49.45 47.63 49.45 46.77 48.83 47.38 48.83 47.38"/>
      <polygon class="cls-5" points="49.45 48.86 49.09 48.86 48.83 49.11 49.45 49.72 49.45 48.86 49.45 48.86"/>
      <polygon class="cls-5" points="49.7 48.24 49.45 48.5 49.45 48.86 50.31 48.86 49.7 48.24 49.7 48.24"/>
      <polygon class="cls-5" points="48.22 47.63 47.36 47.63 47.97 48.24 48.22 47.99 48.22 47.63 48.22 47.63"/>
      <polygon class="cls-5" points="48.22 46.77 48.22 47.63 48.58 47.63 48.83 47.38 48.22 46.77 48.22 46.77"/>
      <polygon class="cls-5" points="47.36 48.86 48.22 48.86 48.22 48.5 47.97 48.24 47.36 48.86 47.36 48.86"/>
      <polygon class="cls-5" points="48.22 49.72 48.83 49.11 48.58 48.86 48.22 48.86 48.22 49.72 48.22 49.72"/>
      <path class="cls-5" d="M51.8,45.71l-.43-.43a.3.3,0,0,0-.43,0l-1.49,1.49v.86h.86l1.49-1.49a.3.3,0,0,0,0-.43Z"/>
      <polygon class="cls-5" points="49.45 47.99 49.45 47.63 49.09 47.63 49.45 47.99 49.45 47.99"/>
      <polygon class="cls-5" points="49.09 48.86 49.45 48.86 49.45 48.5 49.09 48.86 49.09 48.86"/>
      <path class="cls-5" d="M50.31,48.86h-.86v.86l1.49,1.49a.3.3,0,0,0,.43,0l.43-.43a.3.3,0,0,0,0-.43l-1.49-1.49Z"/>
      <polygon class="cls-5" points="48.58 47.63 48.22 47.63 48.22 47.99 48.58 47.63 48.58 47.63"/>
      <path class="cls-5" d="M47.36,47.63h.86v-.86l-1.49-1.49a.3.3,0,0,0-.43,0l-.44.43a.3.3,0,0,0,0,.43l1.5,1.49Z"/>
      <path class="cls-5" d="M45.86,50.35a.3.3,0,0,0,0,.43l.44.43a.3.3,0,0,0,.43,0l1.49-1.49v-.86h-.86l-1.5,1.49Z"/>
      <polygon class="cls-5" points="48.22 48.5 48.22 48.86 48.58 48.86 48.22 48.5 48.22 48.5"/>
      <polygon class="cls-5" points="49.45 48.5 49.7 48.24 49.45 47.99 49.45 48.5 49.45 48.5"/>
      <path class="cls-5" d="M51.79,47.63H50.31l-.61.62.61.61h1.48a.3.3,0,0,0,.3-.31v-.61a.3.3,0,0,0-.3-.31Z"/>
      <polygon class="cls-5" points="48.22 47.99 47.97 48.24 48.22 48.5 48.22 47.99 48.22 47.99"/>
      <path class="cls-5" d="M47.36,48.86l.61-.61-.61-.62H45.88a.31.31,0,0,0-.31.31v.61a.31.31,0,0,0,.31.31Z"/>
      <path class="cls-5" d="M49.45,45.29a.31.31,0,0,0-.31-.31h-.61a.31.31,0,0,0-.31.31v1.48l.61.61.62-.61V45.29Z"/>
      <polygon class="cls-5" points="49.09 47.63 48.83 47.38 48.58 47.63 49.09 47.63 49.09 47.63"/>
      <polygon class="cls-5" points="48.58 48.86 48.83 49.11 49.09 48.86 48.58 48.86 48.58 48.86"/>
      <path class="cls-5" d="M48.83,49.11l-.61.61V51.2a.31.31,0,0,0,.31.31h.61a.31.31,0,0,0,.31-.31V49.72l-.62-.61Z"/>
      <path class="cls-5" d="M48.83,49.11l-.61.61V51.2a.31.31,0,0,0,.31.31h.61a.31.31,0,0,0,.31-.31V49.72l-.62-.61Z"/>
      <polygon class="cls-5" points="49.7 48.24 50.31 47.63 49.45 47.63 49.45 47.99 49.7 48.24 49.7 48.24"/>
      <polygon class="cls-5" points="48.83 47.38 49.09 47.63 49.45 47.63 49.45 46.77 48.83 47.38 48.83 47.38"/>
      <polygon class="cls-5" points="49.45 48.86 49.09 48.86 48.83 49.11 49.45 49.72 49.45 48.86 49.45 48.86"/>
      <polygon class="cls-5" points="49.7 48.24 49.45 48.5 49.45 48.86 50.31 48.86 49.7 48.24 49.7 48.24"/>
      <polygon class="cls-5" points="48.22 47.63 47.36 47.63 47.97 48.24 48.22 47.99 48.22 47.63 48.22 47.63"/>
      <polygon class="cls-5" points="48.22 46.77 48.22 47.63 48.58 47.63 48.83 47.38 48.22 46.77 48.22 46.77"/>
      <polygon class="cls-5" points="47.36 48.86 48.22 48.86 48.22 48.5 47.97 48.24 47.36 48.86 47.36 48.86"/>
      <polygon class="cls-5" points="48.22 49.72 48.83 49.11 48.58 48.86 48.22 48.86 48.22 49.72 48.22 49.72"/>
      <path class="cls-5" d="M51.8,45.71l-.43-.43a.3.3,0,0,0-.43,0l-1.49,1.49v.86h.86l1.49-1.49a.3.3,0,0,0,0-.43Z"/>
      <polygon class="cls-5" points="49.45 47.99 49.45 47.63 49.09 47.63 49.45 47.99 49.45 47.99"/>
      <polygon class="cls-5" points="49.09 48.86 49.45 48.86 49.45 48.5 49.09 48.86 49.09 48.86"/>
      <path class="cls-5" d="M50.31,48.86h-.86v.86l1.49,1.49a.3.3,0,0,0,.43,0l.43-.43a.3.3,0,0,0,0-.43l-1.49-1.49Z"/>
      <polygon class="cls-5" points="48.58 47.63 48.22 47.63 48.22 47.99 48.58 47.63 48.58 47.63"/>
      <path class="cls-5" d="M47.36,47.63h.86v-.86l-1.49-1.49a.3.3,0,0,0-.43,0l-.44.43a.3.3,0,0,0,0,.43l1.5,1.49Z"/>
      <path class="cls-5" d="M45.86,50.35a.3.3,0,0,0,0,.43l.44.43a.3.3,0,0,0,.43,0l1.49-1.49v-.86h-.86l-1.5,1.49Z"/>
      <polygon class="cls-5" points="48.22 48.5 48.22 48.86 48.58 48.86 48.22 48.5 48.22 48.5"/>
      <polygon class="cls-5" points="49.45 48.5 49.7 48.24 49.45 47.99 49.45 48.5 49.45 48.5"/>
      <path class="cls-5" d="M51.79,47.63H50.31l-.61.62.61.61h1.48a.3.3,0,0,0,.3-.31v-.61a.3.3,0,0,0-.3-.31Z"/>
      <polygon class="cls-5" points="48.22 47.99 47.97 48.24 48.22 48.5 48.22 47.99 48.22 47.99"/>
      <path class="cls-5" d="M47.36,48.86l.61-.61-.61-.62H45.88a.31.31,0,0,0-.31.31v.61a.31.31,0,0,0,.31.31Z"/>
      <path class="cls-5" d="M49.45,45.29a.31.31,0,0,0-.31-.31h-.61a.31.31,0,0,0-.31.31v1.48l.61.61.62-.61V45.29Z"/>
      <polygon class="cls-5" points="49.09 47.63 48.83 47.38 48.58 47.63 49.09 47.63 49.09 47.63"/>
      <polygon class="cls-5" points="48.58 48.86 48.83 49.11 49.09 48.86 48.58 48.86 48.58 48.86"/>
      <path class="cls-5" d="M48.83,49.11l-.61.61V51.2a.31.31,0,0,0,.31.31h.61a.31.31,0,0,0,.31-.31V49.72l-.62-.61Z"/>
      <polygon class="cls-5" points="120.72 100.22 121.33 99.61 120.47 99.61 120.47 99.97 120.72 100.22 120.72 100.22"/>
      <polygon class="cls-5" points="119.86 99.36 120.11 99.61 120.47 99.61 120.47 98.75 119.86 99.36 119.86 99.36"/>
      <polygon class="cls-5"
               points="120.47 100.83 120.11 100.83 119.86 101.09 120.47 101.7 120.47 100.83 120.47 100.83"/>
      <polygon class="cls-5"
               points="120.72 100.22 120.47 100.48 120.47 100.83 121.33 100.83 120.72 100.22 120.72 100.22"/>
      <polygon class="cls-5" points="119.24 99.61 118.38 99.61 118.99 100.22 119.24 99.97 119.24 99.61 119.24 99.61"/>
      <polygon class="cls-5" points="119.24 98.75 119.24 99.61 119.6 99.61 119.86 99.36 119.24 98.75 119.24 98.75"/>
      <polygon class="cls-5"
               points="118.38 100.83 119.24 100.83 119.24 100.48 118.99 100.22 118.38 100.83 118.38 100.83"/>
      <polygon class="cls-5" points="119.24 101.7 119.86 101.09 119.6 100.83 119.24 100.83 119.24 101.7 119.24 101.7"/>
      <path class="cls-5" d="M122.83,97.69l-.44-.44a.3.3,0,0,0-.43,0l-1.49,1.5v.86h.86l1.5-1.49a.3.3,0,0,0,0-.43Z"/>
      <polygon class="cls-5" points="120.47 99.97 120.47 99.61 120.11 99.61 120.47 99.97 120.47 99.97"/>
      <polygon class="cls-5" points="120.11 100.83 120.47 100.83 120.47 100.48 120.11 100.83 120.11 100.83"/>
      <path class="cls-5" d="M121.33,100.83h-.86v.87l1.49,1.49a.3.3,0,0,0,.43,0l.44-.43a.3.3,0,0,0,0-.43l-1.5-1.5Z"/>
      <polygon class="cls-5" points="119.6 99.61 119.24 99.61 119.24 99.97 119.6 99.61 119.6 99.61"/>
      <path class="cls-5" d="M118.38,99.61h.86v-.86l-1.49-1.5a.3.3,0,0,0-.43,0l-.43.44a.3.3,0,0,0,0,.43l1.49,1.49Z"/>
      <path class="cls-5" d="M116.89,102.33a.3.3,0,0,0,0,.43l.43.43a.3.3,0,0,0,.43,0l1.49-1.49v-.87h-.86l-1.49,1.5Z"/>
      <polygon class="cls-5" points="119.24 100.48 119.24 100.83 119.6 100.83 119.24 100.48 119.24 100.48"/>
      <polygon class="cls-5" points="120.47 100.48 120.72 100.22 120.47 99.97 120.47 100.48 120.47 100.48"/>
      <path class="cls-5" d="M122.81,99.61h-1.48l-.61.61.61.61h1.48a.3.3,0,0,0,.31-.3v-.61a.31.31,0,0,0-.31-.31Z"/>
      <polygon class="cls-5" points="119.24 99.97 118.99 100.22 119.24 100.48 119.24 99.97 119.24 99.97"/>
      <path class="cls-5" d="M118.38,100.83l.61-.61-.61-.61H116.9a.3.3,0,0,0-.3.31v.61a.29.29,0,0,0,.3.3Z"/>
      <path class="cls-5" d="M120.47,97.27a.31.31,0,0,0-.31-.31h-.61a.31.31,0,0,0-.31.31v1.48l.62.61.61-.61V97.27Z"/>
      <polygon class="cls-5" points="120.11 99.61 119.86 99.36 119.6 99.61 120.11 99.61 120.11 99.61"/>
      <polygon class="cls-5" points="119.6 100.83 119.86 101.09 120.11 100.83 119.6 100.83 119.6 100.83"/>
      <path class="cls-5" d="M119.86,101.09l-.62.61v1.48a.3.3,0,0,0,.31.3h.61a.3.3,0,0,0,.31-.3V101.7l-.61-.61Z"/>
      <path class="cls-5" d="M119.86,101.09l-.62.61v1.48a.3.3,0,0,0,.31.3h.61a.3.3,0,0,0,.31-.3V101.7l-.61-.61Z"/>
      <polygon class="cls-5" points="120.72 100.22 121.33 99.61 120.47 99.61 120.47 99.97 120.72 100.22 120.72 100.22"/>
      <polygon class="cls-5" points="119.86 99.36 120.11 99.61 120.47 99.61 120.47 98.75 119.86 99.36 119.86 99.36"/>
      <polygon class="cls-5"
               points="120.47 100.83 120.11 100.83 119.86 101.09 120.47 101.7 120.47 100.83 120.47 100.83"/>
      <polygon class="cls-5"
               points="120.72 100.22 120.47 100.48 120.47 100.83 121.33 100.83 120.72 100.22 120.72 100.22"/>
      <polygon class="cls-5" points="119.24 99.61 118.38 99.61 118.99 100.22 119.24 99.97 119.24 99.61 119.24 99.61"/>
      <polygon class="cls-5" points="119.24 98.75 119.24 99.61 119.6 99.61 119.86 99.36 119.24 98.75 119.24 98.75"/>
      <polygon class="cls-5"
               points="118.38 100.83 119.24 100.83 119.24 100.48 118.99 100.22 118.38 100.83 118.38 100.83"/>
      <polygon class="cls-5" points="119.24 101.7 119.86 101.09 119.6 100.83 119.24 100.83 119.24 101.7 119.24 101.7"/>
      <path class="cls-5" d="M122.83,97.69l-.44-.44a.3.3,0,0,0-.43,0l-1.49,1.5v.86h.86l1.5-1.49a.3.3,0,0,0,0-.43Z"/>
      <polygon class="cls-5" points="120.47 99.97 120.47 99.61 120.11 99.61 120.47 99.97 120.47 99.97"/>
      <polygon class="cls-5" points="120.11 100.83 120.47 100.83 120.47 100.48 120.11 100.83 120.11 100.83"/>
      <path class="cls-5" d="M121.33,100.83h-.86v.87l1.49,1.49a.3.3,0,0,0,.43,0l.44-.43a.3.3,0,0,0,0-.43l-1.5-1.5Z"/>
      <polygon class="cls-5" points="119.6 99.61 119.24 99.61 119.24 99.97 119.6 99.61 119.6 99.61"/>
      <path class="cls-5" d="M118.38,99.61h.86v-.86l-1.49-1.5a.3.3,0,0,0-.43,0l-.43.44a.3.3,0,0,0,0,.43l1.49,1.49Z"/>
      <path class="cls-5" d="M116.89,102.33a.3.3,0,0,0,0,.43l.43.43a.3.3,0,0,0,.43,0l1.49-1.49v-.87h-.86l-1.49,1.5Z"/>
      <polygon class="cls-5" points="119.24 100.48 119.24 100.83 119.6 100.83 119.24 100.48 119.24 100.48"/>
      <polygon class="cls-5" points="120.47 100.48 120.72 100.22 120.47 99.97 120.47 100.48 120.47 100.48"/>
      <path class="cls-5" d="M122.81,99.61h-1.48l-.61.61.61.61h1.48a.3.3,0,0,0,.31-.3v-.61a.31.31,0,0,0-.31-.31Z"/>
      <polygon class="cls-5" points="119.24 99.97 118.99 100.22 119.24 100.48 119.24 99.97 119.24 99.97"/>
      <path class="cls-5" d="M118.38,100.83l.61-.61-.61-.61H116.9a.3.3,0,0,0-.3.31v.61a.29.29,0,0,0,.3.3Z"/>
      <path class="cls-5" d="M120.47,97.27a.31.31,0,0,0-.31-.31h-.61a.31.31,0,0,0-.31.31v1.48l.62.61.61-.61V97.27Z"/>
      <polygon class="cls-5" points="120.11 99.61 119.86 99.36 119.6 99.61 120.11 99.61 120.11 99.61"/>
      <polygon class="cls-5" points="119.6 100.83 119.86 101.09 120.11 100.83 119.6 100.83 119.6 100.83"/>
      <path class="cls-5" d="M119.86,101.09l-.62.61v1.48a.3.3,0,0,0,.31.3h.61a.3.3,0,0,0,.31-.3V101.7l-.61-.61Z"/>
      <polygon class="cls-5" points="72.36 20.25 72.98 19.63 72.11 19.63 72.11 19.99 72.36 20.25 72.36 20.25"/>
      <polygon class="cls-5" points="71.5 19.38 71.75 19.63 72.11 19.63 72.11 18.77 71.5 19.38 71.5 19.38"/>
      <polygon class="cls-5" points="72.11 20.86 71.75 20.86 71.5 21.11 72.11 21.72 72.11 20.86 72.11 20.86"/>
      <polygon class="cls-5" points="72.36 20.25 72.11 20.5 72.11 20.86 72.98 20.86 72.36 20.25 72.36 20.25"/>
      <polygon class="cls-5" points="70.89 19.63 70.02 19.63 70.64 20.25 70.89 19.99 70.89 19.63 70.89 19.63"/>
      <polygon class="cls-5" points="70.89 18.77 70.89 19.63 71.25 19.63 71.5 19.38 70.89 18.77 70.89 18.77"/>
      <polygon class="cls-5" points="70.02 20.86 70.89 20.86 70.89 20.5 70.64 20.25 70.02 20.86 70.02 20.86"/>
      <polygon class="cls-5" points="70.89 21.72 71.5 21.11 71.25 20.86 70.89 20.86 70.89 21.72 70.89 21.72"/>
      <path class="cls-5" d="M74.47,17.71,74,17.28a.31.31,0,0,0-.44,0l-1.49,1.49v.86H73l1.49-1.49a.3.3,0,0,0,0-.43Z"/>
      <polygon class="cls-5" points="72.11 19.99 72.11 19.63 71.75 19.63 72.11 19.99 72.11 19.99"/>
      <polygon class="cls-5" points="71.75 20.86 72.11 20.86 72.11 20.5 71.75 20.86 71.75 20.86"/>
      <path class="cls-5" d="M73,20.86h-.87v.86l1.49,1.49a.31.31,0,0,0,.44,0l.43-.43a.3.3,0,0,0,0-.43L73,20.86Z"/>
      <polygon class="cls-5" points="71.25 19.63 70.89 19.63 70.89 19.99 71.25 19.63 71.25 19.63"/>
      <path class="cls-5" d="M70,19.63h.87v-.86L69.4,17.28a.31.31,0,0,0-.44,0l-.43.43a.3.3,0,0,0,0,.43L70,19.63Z"/>
      <path class="cls-5" d="M68.53,22.35a.3.3,0,0,0,0,.43l.43.43a.31.31,0,0,0,.44,0l1.49-1.49v-.86H70l-1.49,1.49Z"/>
      <polygon class="cls-5" points="70.89 20.5 70.89 20.86 71.25 20.86 70.89 20.5 70.89 20.5"/>
      <polygon class="cls-5" points="72.11 20.5 72.36 20.25 72.11 19.99 72.11 20.5 72.11 20.5"/>
      <path class="cls-5" d="M74.46,19.63H73l-.61.62.61.61h1.48a.31.31,0,0,0,.3-.31v-.61a.31.31,0,0,0-.3-.31Z"/>
      <polygon class="cls-5" points="70.89 19.99 70.64 20.25 70.89 20.5 70.89 19.99 70.89 19.99"/>
      <path class="cls-5" d="M70,20.86l.61-.61L70,19.63H68.54a.31.31,0,0,0-.3.31v.61a.31.31,0,0,0,.3.31Z"/>
      <path class="cls-5" d="M72.11,17.29a.31.31,0,0,0-.3-.31h-.62a.31.31,0,0,0-.3.31v1.48l.61.61.61-.61V17.29Z"/>
      <polygon class="cls-5" points="71.75 19.63 71.5 19.38 71.25 19.63 71.75 19.63 71.75 19.63"/>
      <polygon class="cls-5" points="71.25 20.86 71.5 21.11 71.75 20.86 71.25 20.86 71.25 20.86"/>
      <path class="cls-5" d="M71.5,21.11l-.61.61V23.2a.31.31,0,0,0,.3.31h.62a.31.31,0,0,0,.3-.31V21.72l-.61-.61Z"/>
      <path class="cls-5" d="M71.5,21.11l-.61.61V23.2a.31.31,0,0,0,.3.31h.62a.31.31,0,0,0,.3-.31V21.72l-.61-.61Z"/>
      <polygon class="cls-5" points="72.36 20.25 72.98 19.63 72.11 19.63 72.11 19.99 72.36 20.25 72.36 20.25"/>
      <polygon class="cls-5" points="71.5 19.38 71.75 19.63 72.11 19.63 72.11 18.77 71.5 19.38 71.5 19.38"/>
      <polygon class="cls-5" points="72.11 20.86 71.75 20.86 71.5 21.11 72.11 21.72 72.11 20.86 72.11 20.86"/>
      <polygon class="cls-5" points="72.36 20.25 72.11 20.5 72.11 20.86 72.98 20.86 72.36 20.25 72.36 20.25"/>
      <polygon class="cls-5" points="70.89 19.63 70.02 19.63 70.64 20.25 70.89 19.99 70.89 19.63 70.89 19.63"/>
      <polygon class="cls-5" points="70.89 18.77 70.89 19.63 71.25 19.63 71.5 19.38 70.89 18.77 70.89 18.77"/>
      <polygon class="cls-5" points="70.02 20.86 70.89 20.86 70.89 20.5 70.64 20.25 70.02 20.86 70.02 20.86"/>
      <polygon class="cls-5" points="70.89 21.72 71.5 21.11 71.25 20.86 70.89 20.86 70.89 21.72 70.89 21.72"/>
      <path class="cls-5" d="M74.47,17.71,74,17.28a.31.31,0,0,0-.44,0l-1.49,1.49v.86H73l1.49-1.49a.3.3,0,0,0,0-.43Z"/>
      <polygon class="cls-5" points="72.11 19.99 72.11 19.63 71.75 19.63 72.11 19.99 72.11 19.99"/>
      <polygon class="cls-5" points="71.75 20.86 72.11 20.86 72.11 20.5 71.75 20.86 71.75 20.86"/>
      <path class="cls-5" d="M73,20.86h-.87v.86l1.49,1.49a.31.31,0,0,0,.44,0l.43-.43a.3.3,0,0,0,0-.43L73,20.86Z"/>
      <polygon class="cls-5" points="71.25 19.63 70.89 19.63 70.89 19.99 71.25 19.63 71.25 19.63"/>
      <path class="cls-5" d="M70,19.63h.87v-.86L69.4,17.28a.31.31,0,0,0-.44,0l-.43.43a.3.3,0,0,0,0,.43L70,19.63Z"/>
      <path class="cls-5" d="M68.53,22.35a.3.3,0,0,0,0,.43l.43.43a.31.31,0,0,0,.44,0l1.49-1.49v-.86H70l-1.49,1.49Z"/>
      <polygon class="cls-5" points="70.89 20.5 70.89 20.86 71.25 20.86 70.89 20.5 70.89 20.5"/>
      <polygon class="cls-5" points="72.11 20.5 72.36 20.25 72.11 19.99 72.11 20.5 72.11 20.5"/>
      <path class="cls-5" d="M74.46,19.63H73l-.61.62.61.61h1.48a.31.31,0,0,0,.3-.31v-.61a.31.31,0,0,0-.3-.31Z"/>
      <polygon class="cls-5" points="70.89 19.99 70.64 20.25 70.89 20.5 70.89 19.99 70.89 19.99"/>
      <path class="cls-5" d="M70,20.86l.61-.61L70,19.63H68.54a.31.31,0,0,0-.3.31v.61a.31.31,0,0,0,.3.31Z"/>
      <path class="cls-5" d="M72.11,17.29a.31.31,0,0,0-.3-.31h-.62a.31.31,0,0,0-.3.31v1.48l.61.61.61-.61V17.29Z"/>
      <polygon class="cls-5" points="71.75 19.63 71.5 19.38 71.25 19.63 71.75 19.63 71.75 19.63"/>
      <polygon class="cls-5" points="71.25 20.86 71.5 21.11 71.75 20.86 71.25 20.86 71.25 20.86"/>
      <path class="cls-5" d="M71.5,21.11l-.61.61V23.2a.31.31,0,0,0,.3.31h.62a.31.31,0,0,0,.3-.31V21.72l-.61-.61Z"/>
      <polygon class="cls-5" points="109 62.28 109.61 61.66 108.75 61.66 108.75 62.02 109 62.28 109 62.28"/>
      <polygon class="cls-5" points="108.14 61.41 108.39 61.66 108.75 61.66 108.75 60.8 108.14 61.41 108.14 61.41"/>
      <polygon class="cls-5" points="108.75 62.89 108.39 62.89 108.14 63.14 108.75 63.75 108.75 62.89 108.75 62.89"/>
      <polygon class="cls-5" points="109 62.28 108.75 62.53 108.75 62.89 109.61 62.89 109 62.28 109 62.28"/>
      <polygon class="cls-5" points="107.52 61.66 106.66 61.66 107.27 62.28 107.52 62.02 107.52 61.66 107.52 61.66"/>
      <polygon class="cls-5" points="107.52 60.8 107.52 61.66 107.88 61.66 108.14 61.41 107.52 60.8 107.52 60.8"/>
      <polygon class="cls-5" points="106.66 62.89 107.52 62.89 107.52 62.53 107.27 62.28 106.66 62.89 106.66 62.89"/>
      <polygon class="cls-5" points="107.52 63.75 108.14 63.14 107.88 62.89 107.52 62.89 107.52 63.75 107.52 63.75"/>
      <path class="cls-5" d="M111.1,59.74l-.43-.43a.3.3,0,0,0-.43,0l-1.49,1.49v.87h.86l1.49-1.5a.3.3,0,0,0,0-.43Z"/>
      <polygon class="cls-5" points="108.75 62.02 108.75 61.66 108.39 61.66 108.75 62.02 108.75 62.02"/>
      <polygon class="cls-5" points="108.39 62.89 108.75 62.89 108.75 62.53 108.39 62.89 108.39 62.89"/>
      <path class="cls-5" d="M109.61,62.89h-.86v.86l1.49,1.5a.3.3,0,0,0,.43,0l.43-.44a.3.3,0,0,0,0-.43l-1.49-1.49Z"/>
      <polygon class="cls-5" points="107.88 61.66 107.52 61.66 107.52 62.02 107.88 61.66 107.88 61.66"/>
      <path class="cls-5" d="M106.66,61.67h.86V60.8L106,59.31a.3.3,0,0,0-.43,0l-.43.43a.3.3,0,0,0,0,.43l1.49,1.5Z"/>
      <path class="cls-5" d="M105.17,64.38a.3.3,0,0,0,0,.43l.43.44a.3.3,0,0,0,.43,0l1.49-1.5v-.86h-.86l-1.49,1.49Z"/>
      <polygon class="cls-5" points="107.52 62.53 107.52 62.89 107.88 62.89 107.52 62.53 107.52 62.53"/>
      <polygon class="cls-5" points="108.75 62.53 109 62.28 108.75 62.02 108.75 62.53 108.75 62.53"/>
      <path class="cls-5" d="M111.09,61.67h-1.48l-.61.61.61.61h1.48a.31.31,0,0,0,.31-.31V62a.3.3,0,0,0-.31-.3Z"/>
      <polygon class="cls-5" points="107.52 62.02 107.27 62.28 107.52 62.53 107.52 62.02 107.52 62.02"/>
      <path class="cls-5" d="M106.66,62.89l.61-.61-.61-.61h-1.48a.29.29,0,0,0-.3.3v.61a.3.3,0,0,0,.3.31Z"/>
      <path class="cls-5" d="M108.75,59.32a.3.3,0,0,0-.31-.3h-.61a.3.3,0,0,0-.31.3V60.8l.61.61.62-.61V59.32Z"/>
      <polygon class="cls-5" points="108.39 61.66 108.14 61.41 107.88 61.66 108.39 61.66 108.39 61.66"/>
      <polygon class="cls-5" points="107.88 62.89 108.14 63.14 108.39 62.89 107.88 62.89 107.88 62.89"/>
      <path class="cls-5" d="M108.13,63.14l-.61.61v1.48a.31.31,0,0,0,.31.31h.61a.31.31,0,0,0,.31-.31V63.75l-.62-.61Z"/>
      <path class="cls-5" d="M108.13,63.14l-.61.61v1.48a.31.31,0,0,0,.31.31h.61a.31.31,0,0,0,.31-.31V63.75l-.62-.61Z"/>
      <polygon class="cls-5" points="109 62.28 109.61 61.66 108.75 61.66 108.75 62.02 109 62.28 109 62.28"/>
      <polygon class="cls-5" points="108.14 61.41 108.39 61.66 108.75 61.66 108.75 60.8 108.14 61.41 108.14 61.41"/>
      <polygon class="cls-5" points="108.75 62.89 108.39 62.89 108.14 63.14 108.75 63.75 108.75 62.89 108.75 62.89"/>
      <polygon class="cls-5" points="109 62.28 108.75 62.53 108.75 62.89 109.61 62.89 109 62.28 109 62.28"/>
      <polygon class="cls-5" points="107.52 61.66 106.66 61.66 107.27 62.28 107.52 62.02 107.52 61.66 107.52 61.66"/>
      <polygon class="cls-5" points="107.52 60.8 107.52 61.66 107.88 61.66 108.14 61.41 107.52 60.8 107.52 60.8"/>
      <polygon class="cls-5" points="106.66 62.89 107.52 62.89 107.52 62.53 107.27 62.28 106.66 62.89 106.66 62.89"/>
      <polygon class="cls-5" points="107.52 63.75 108.14 63.14 107.88 62.89 107.52 62.89 107.52 63.75 107.52 63.75"/>
      <path class="cls-5" d="M111.1,59.74l-.43-.43a.3.3,0,0,0-.43,0l-1.49,1.49v.87h.86l1.49-1.5a.3.3,0,0,0,0-.43Z"/>
      <polygon class="cls-5" points="108.75 62.02 108.75 61.66 108.39 61.66 108.75 62.02 108.75 62.02"/>
      <polygon class="cls-5" points="108.39 62.89 108.75 62.89 108.75 62.53 108.39 62.89 108.39 62.89"/>
      <path class="cls-5" d="M109.61,62.89h-.86v.86l1.49,1.5a.3.3,0,0,0,.43,0l.43-.44a.3.3,0,0,0,0-.43l-1.49-1.49Z"/>
      <polygon class="cls-5" points="107.88 61.66 107.52 61.66 107.52 62.02 107.88 61.66 107.88 61.66"/>
      <path class="cls-5" d="M106.66,61.67h.86V60.8L106,59.31a.3.3,0,0,0-.43,0l-.43.43a.3.3,0,0,0,0,.43l1.49,1.5Z"/>
      <path class="cls-5" d="M105.17,64.38a.3.3,0,0,0,0,.43l.43.44a.3.3,0,0,0,.43,0l1.49-1.5v-.86h-.86l-1.49,1.49Z"/>
      <polygon class="cls-5" points="107.52 62.53 107.52 62.89 107.88 62.89 107.52 62.53 107.52 62.53"/>
      <polygon class="cls-5" points="108.75 62.53 109 62.28 108.75 62.02 108.75 62.53 108.75 62.53"/>
      <path class="cls-5" d="M111.09,61.67h-1.48l-.61.61.61.61h1.48a.31.31,0,0,0,.31-.31V62a.3.3,0,0,0-.31-.3Z"/>
      <polygon class="cls-5" points="107.52 62.02 107.27 62.28 107.52 62.53 107.52 62.02 107.52 62.02"/>
      <path class="cls-5" d="M106.66,62.89l.61-.61-.61-.61h-1.48a.29.29,0,0,0-.3.3v.61a.3.3,0,0,0,.3.31Z"/>
      <path class="cls-5" d="M108.75,59.32a.3.3,0,0,0-.31-.3h-.61a.3.3,0,0,0-.31.3V60.8l.61.61.62-.61V59.32Z"/>
      <polygon class="cls-5" points="108.39 61.66 108.14 61.41 107.88 61.66 108.39 61.66 108.39 61.66"/>
      <polygon class="cls-5" points="107.88 62.89 108.14 63.14 108.39 62.89 107.88 62.89 107.88 62.89"/>
      <path class="cls-5" d="M108.13,63.14l-.61.61v1.48a.31.31,0,0,0,.31.31h.61a.31.31,0,0,0,.31-.31V63.75l-.62-.61Z"/>
      <polygon class="cls-5" points="42.45 111.67 43.06 111.06 42.2 111.06 42.2 111.41 42.45 111.67 42.45 111.67"/>
      <polygon class="cls-5" points="41.59 110.8 41.84 111.06 42.2 111.06 42.2 110.19 41.59 110.8 41.59 110.8"/>
      <polygon class="cls-5" points="42.2 112.28 41.84 112.28 41.59 112.53 42.2 113.14 42.2 112.28 42.2 112.28"/>
      <polygon class="cls-5" points="42.45 111.67 42.2 111.92 42.2 112.28 43.06 112.28 42.45 111.67 42.45 111.67"/>
      <polygon class="cls-5" points="40.98 111.06 40.11 111.06 40.72 111.67 40.98 111.41 40.98 111.06 40.98 111.06"/>
      <polygon class="cls-5" points="40.98 110.19 40.98 111.06 41.33 111.06 41.59 110.8 40.98 110.19 40.98 110.19"/>
      <polygon class="cls-5" points="40.11 112.28 40.98 112.28 40.98 111.92 40.72 111.67 40.11 112.28 40.11 112.28"/>
      <polygon class="cls-5" points="40.98 113.14 41.59 112.53 41.33 112.28 40.98 112.28 40.98 113.14 40.98 113.14"/>
      <path class="cls-5" d="M44.56,109.13l-.44-.43a.3.3,0,0,0-.43,0l-1.49,1.49v.86h.86l1.5-1.49a.3.3,0,0,0,0-.43Z"/>
      <polygon class="cls-5" points="42.2 111.41 42.2 111.06 41.84 111.06 42.2 111.41 42.2 111.41"/>
      <polygon class="cls-5" points="41.84 112.28 42.2 112.28 42.2 111.92 41.84 112.28 41.84 112.28"/>
      <path class="cls-5" d="M43.06,112.28H42.2v.86l1.49,1.5a.3.3,0,0,0,.43,0l.44-.44a.3.3,0,0,0,0-.43l-1.5-1.49Z"/>
      <polygon class="cls-5" points="41.33 111.06 40.98 111.06 40.98 111.41 41.33 111.06 41.33 111.06"/>
      <path class="cls-5" d="M40.11,111.05H41v-.86l-1.49-1.49a.3.3,0,0,0-.43,0l-.43.43a.3.3,0,0,0,0,.43l1.49,1.49Z"/>
      <path class="cls-5" d="M38.62,113.77a.3.3,0,0,0,0,.43l.43.44a.3.3,0,0,0,.43,0l1.49-1.5v-.86h-.86l-1.49,1.49Z"/>
      <polygon class="cls-5" points="40.98 111.92 40.98 112.28 41.33 112.28 40.98 111.92 40.98 111.92"/>
      <polygon class="cls-5" points="42.2 111.92 42.45 111.67 42.2 111.41 42.2 111.92 42.2 111.92"/>
      <path class="cls-5" d="M44.54,111.05H43.06l-.61.62.61.61h1.48a.31.31,0,0,0,.31-.31v-.61a.31.31,0,0,0-.31-.31Z"/>
      <polygon class="cls-5" points="40.98 111.41 40.72 111.67 40.98 111.92 40.98 111.41 40.98 111.41"/>
      <path class="cls-5" d="M40.11,112.28l.61-.61-.61-.62H38.63a.3.3,0,0,0-.3.31V112a.3.3,0,0,0,.3.31Z"/>
      <path class="cls-5" d="M42.2,108.71a.3.3,0,0,0-.31-.3h-.61a.3.3,0,0,0-.31.3v1.48l.62.61.61-.61v-1.48Z"/>
      <polygon class="cls-5" points="41.84 111.06 41.59 110.8 41.33 111.06 41.84 111.06 41.84 111.06"/>
      <polygon class="cls-5" points="41.33 112.28 41.59 112.53 41.84 112.28 41.33 112.28 41.33 112.28"/>
      <path class="cls-5" d="M41.59,112.53l-.62.61v1.48a.31.31,0,0,0,.31.31h.61a.31.31,0,0,0,.31-.31v-1.48l-.61-.61Z"/>
      <path class="cls-5" d="M41.59,112.53l-.62.61v1.48a.31.31,0,0,0,.31.31h.61a.31.31,0,0,0,.31-.31v-1.48l-.61-.61Z"/>
      <polygon class="cls-5" points="42.45 111.67 43.06 111.06 42.2 111.06 42.2 111.41 42.45 111.67 42.45 111.67"/>
      <polygon class="cls-5" points="41.59 110.8 41.84 111.06 42.2 111.06 42.2 110.19 41.59 110.8 41.59 110.8"/>
      <polygon class="cls-5" points="42.2 112.28 41.84 112.28 41.59 112.53 42.2 113.14 42.2 112.28 42.2 112.28"/>
      <polygon class="cls-5" points="42.45 111.67 42.2 111.92 42.2 112.28 43.06 112.28 42.45 111.67 42.45 111.67"/>
      <polygon class="cls-5" points="40.98 111.06 40.11 111.06 40.72 111.67 40.98 111.41 40.98 111.06 40.98 111.06"/>
      <polygon class="cls-5" points="40.98 110.19 40.98 111.06 41.33 111.06 41.59 110.8 40.98 110.19 40.98 110.19"/>
      <polygon class="cls-5" points="40.11 112.28 40.98 112.28 40.98 111.92 40.72 111.67 40.11 112.28 40.11 112.28"/>
      <polygon class="cls-5" points="40.98 113.14 41.59 112.53 41.33 112.28 40.98 112.28 40.98 113.14 40.98 113.14"/>
      <path class="cls-5" d="M44.56,109.13l-.44-.43a.3.3,0,0,0-.43,0l-1.49,1.49v.86h.86l1.5-1.49a.3.3,0,0,0,0-.43Z"/>
      <polygon class="cls-5" points="42.2 111.41 42.2 111.06 41.84 111.06 42.2 111.41 42.2 111.41"/>
      <polygon class="cls-5" points="41.84 112.28 42.2 112.28 42.2 111.92 41.84 112.28 41.84 112.28"/>
      <path class="cls-5" d="M43.06,112.28H42.2v.86l1.49,1.5a.3.3,0,0,0,.43,0l.44-.44a.3.3,0,0,0,0-.43l-1.5-1.49Z"/>
      <polygon class="cls-5" points="41.33 111.06 40.98 111.06 40.98 111.41 41.33 111.06 41.33 111.06"/>
      <path class="cls-5" d="M40.11,111.05H41v-.86l-1.49-1.49a.3.3,0,0,0-.43,0l-.43.43a.3.3,0,0,0,0,.43l1.49,1.49Z"/>
      <path class="cls-5" d="M38.62,113.77a.3.3,0,0,0,0,.43l.43.44a.3.3,0,0,0,.43,0l1.49-1.5v-.86h-.86l-1.49,1.49Z"/>
      <polygon class="cls-5" points="40.98 111.92 40.98 112.28 41.33 112.28 40.98 111.92 40.98 111.92"/>
      <polygon class="cls-5" points="42.2 111.92 42.45 111.67 42.2 111.41 42.2 111.92 42.2 111.92"/>
      <path class="cls-5" d="M44.54,111.05H43.06l-.61.62.61.61h1.48a.31.31,0,0,0,.31-.31v-.61a.31.31,0,0,0-.31-.31Z"/>
      <polygon class="cls-5" points="40.98 111.41 40.72 111.67 40.98 111.92 40.98 111.41 40.98 111.41"/>
      <path class="cls-5" d="M40.11,112.28l.61-.61-.61-.62H38.63a.3.3,0,0,0-.3.31V112a.3.3,0,0,0,.3.31Z"/>
      <path class="cls-5" d="M42.2,108.71a.3.3,0,0,0-.31-.3h-.61a.3.3,0,0,0-.31.3v1.48l.62.61.61-.61v-1.48Z"/>
      <polygon class="cls-5" points="41.84 111.06 41.59 110.8 41.33 111.06 41.84 111.06 41.84 111.06"/>
      <polygon class="cls-5" points="41.33 112.28 41.59 112.53 41.84 112.28 41.33 112.28 41.33 112.28"/>
      <path class="cls-5" d="M41.59,112.53l-.62.61v1.48a.31.31,0,0,0,.31.31h.61a.31.31,0,0,0,.31-.31v-1.48l-.61-.61Z"/>
      <polygon class="cls-5" points="38.29 142.72 38.9 142.11 38.03 142.11 38.03 142.47 38.29 142.72 38.29 142.72"/>
      <polygon class="cls-5" points="37.42 141.86 37.68 142.11 38.03 142.11 38.03 141.24 37.42 141.86 37.42 141.86"/>
      <polygon class="cls-5" points="38.03 143.33 37.68 143.33 37.42 143.59 38.03 144.2 38.03 143.33 38.03 143.33"/>
      <polygon class="cls-5" points="38.29 142.72 38.03 142.97 38.03 143.33 38.9 143.33 38.29 142.72 38.29 142.72"/>
      <polygon class="cls-5" points="36.81 142.11 35.95 142.11 36.56 142.72 36.81 142.47 36.81 142.11 36.81 142.11"/>
      <polygon class="cls-5" points="36.81 141.24 36.81 142.11 37.17 142.11 37.42 141.86 36.81 141.24 36.81 141.24"/>
      <polygon class="cls-5" points="35.95 143.33 36.81 143.33 36.81 142.97 36.56 142.72 35.95 143.33 35.95 143.33"/>
      <polygon class="cls-5" points="36.81 144.2 37.42 143.59 37.17 143.33 36.81 143.33 36.81 144.2 36.81 144.2"/>
      <path class="cls-5" d="M40.39,140.18l-.43-.43a.3.3,0,0,0-.43,0L38,141.24v.87h.86l1.49-1.49a.31.31,0,0,0,0-.44Z"/>
      <polygon class="cls-5" points="38.03 142.47 38.03 142.11 37.68 142.11 38.03 142.47 38.03 142.47"/>
      <polygon class="cls-5" points="37.68 143.33 38.03 143.33 38.03 142.97 37.68 143.33 37.68 143.33"/>
      <path class="cls-5" d="M38.9,143.33H38v.87l1.49,1.49a.3.3,0,0,0,.43,0l.43-.43a.3.3,0,0,0,0-.43l-1.49-1.5Z"/>
      <polygon class="cls-5" points="37.17 142.11 36.81 142.11 36.81 142.47 37.17 142.11 37.17 142.11"/>
      <path class="cls-5" d="M36,142.11h.86v-.87l-1.49-1.49a.3.3,0,0,0-.43,0l-.43.43a.31.31,0,0,0,0,.44L36,142.11Z"/>
      <path class="cls-5" d="M34.46,144.83a.3.3,0,0,0,0,.43l.43.43a.3.3,0,0,0,.43,0l1.49-1.49v-.87H36l-1.49,1.5Z"/>
      <polygon class="cls-5" points="36.81 142.97 36.81 143.33 37.17 143.33 36.81 142.97 36.81 142.97"/>
      <polygon class="cls-5" points="38.03 142.97 38.29 142.72 38.03 142.47 38.03 142.97 38.03 142.97"/>
      <path class="cls-5" d="M40.38,142.11H38.9l-.61.61.61.61h1.48a.3.3,0,0,0,.31-.3v-.61a.31.31,0,0,0-.31-.31Z"/>
      <polygon class="cls-5" points="36.81 142.47 36.56 142.72 36.81 142.97 36.81 142.47 36.81 142.47"/>
      <path class="cls-5" d="M36,143.33l.61-.61-.61-.61H34.47a.31.31,0,0,0-.31.31V143a.3.3,0,0,0,.31.3Z"/>
      <path class="cls-5" d="M38,139.77a.31.31,0,0,0-.31-.31h-.61a.31.31,0,0,0-.31.31v1.47l.61.62.62-.62v-1.47Z"/>
      <polygon class="cls-5" points="37.68 142.11 37.42 141.86 37.17 142.11 37.68 142.11 37.68 142.11"/>
      <polygon class="cls-5" points="37.17 143.33 37.42 143.59 37.68 143.33 37.17 143.33 37.17 143.33"/>
      <path class="cls-5" d="M37.42,143.59l-.61.61v1.48a.3.3,0,0,0,.31.3h.61a.3.3,0,0,0,.31-.3V144.2l-.62-.61Z"/>
      <path class="cls-5" d="M37.42,143.59l-.61.61v1.48a.3.3,0,0,0,.31.3h.61a.3.3,0,0,0,.31-.3V144.2l-.62-.61Z"/>
      <polygon class="cls-5" points="38.29 142.72 38.9 142.11 38.03 142.11 38.03 142.47 38.29 142.72 38.29 142.72"/>
      <polygon class="cls-5" points="37.42 141.86 37.68 142.11 38.03 142.11 38.03 141.24 37.42 141.86 37.42 141.86"/>
      <polygon class="cls-5" points="38.03 143.33 37.68 143.33 37.42 143.59 38.03 144.2 38.03 143.33 38.03 143.33"/>
      <polygon class="cls-5" points="38.29 142.72 38.03 142.97 38.03 143.33 38.9 143.33 38.29 142.72 38.29 142.72"/>
      <polygon class="cls-5" points="36.81 142.11 35.95 142.11 36.56 142.72 36.81 142.47 36.81 142.11 36.81 142.11"/>
      <polygon class="cls-5" points="36.81 141.24 36.81 142.11 37.17 142.11 37.42 141.86 36.81 141.24 36.81 141.24"/>
      <polygon class="cls-5" points="35.95 143.33 36.81 143.33 36.81 142.97 36.56 142.72 35.95 143.33 35.95 143.33"/>
      <polygon class="cls-5" points="36.81 144.2 37.42 143.59 37.17 143.33 36.81 143.33 36.81 144.2 36.81 144.2"/>
      <path class="cls-5" d="M40.39,140.18l-.43-.43a.3.3,0,0,0-.43,0L38,141.24v.87h.86l1.49-1.49a.31.31,0,0,0,0-.44Z"/>
      <polygon class="cls-5" points="38.03 142.47 38.03 142.11 37.68 142.11 38.03 142.47 38.03 142.47"/>
      <polygon class="cls-5" points="37.68 143.33 38.03 143.33 38.03 142.97 37.68 143.33 37.68 143.33"/>
      <path class="cls-5" d="M38.9,143.33H38v.87l1.49,1.49a.3.3,0,0,0,.43,0l.43-.43a.3.3,0,0,0,0-.43l-1.49-1.5Z"/>
      <polygon class="cls-5" points="37.17 142.11 36.81 142.11 36.81 142.47 37.17 142.11 37.17 142.11"/>
      <path class="cls-5" d="M36,142.11h.86v-.87l-1.49-1.49a.3.3,0,0,0-.43,0l-.43.43a.31.31,0,0,0,0,.44L36,142.11Z"/>
      <path class="cls-5" d="M34.46,144.83a.3.3,0,0,0,0,.43l.43.43a.3.3,0,0,0,.43,0l1.49-1.49v-.87H36l-1.49,1.5Z"/>
      <polygon class="cls-5" points="36.81 142.97 36.81 143.33 37.17 143.33 36.81 142.97 36.81 142.97"/>
      <polygon class="cls-5" points="38.03 142.97 38.29 142.72 38.03 142.47 38.03 142.97 38.03 142.97"/>
      <path class="cls-5" d="M40.38,142.11H38.9l-.61.61.61.61h1.48a.3.3,0,0,0,.31-.3v-.61a.31.31,0,0,0-.31-.31Z"/>
      <polygon class="cls-5" points="36.81 142.47 36.56 142.72 36.81 142.97 36.81 142.47 36.81 142.47"/>
      <path class="cls-5" d="M36,143.33l.61-.61-.61-.61H34.47a.31.31,0,0,0-.31.31V143a.3.3,0,0,0,.31.3Z"/>
      <path class="cls-5" d="M38,139.77a.31.31,0,0,0-.31-.31h-.61a.31.31,0,0,0-.31.31v1.47l.61.62.62-.62v-1.47Z"/>
      <polygon class="cls-5" points="37.68 142.11 37.42 141.86 37.17 142.11 37.68 142.11 37.68 142.11"/>
      <polygon class="cls-5" points="37.17 143.33 37.42 143.59 37.68 143.33 37.17 143.33 37.17 143.33"/>
      <path class="cls-5" d="M37.42,143.59l-.61.61v1.48a.3.3,0,0,0,.31.3h.61a.3.3,0,0,0,.31-.3V144.2l-.62-.61Z"/>
      <polygon class="cls-5" points="82.7 168.64 83.31 168.03 82.44 168.03 82.44 168.39 82.7 168.64 82.7 168.64"/>
      <polygon class="cls-5" points="81.83 167.78 82.09 168.03 82.44 168.03 82.44 167.17 81.83 167.78 81.83 167.78"/>
      <polygon class="cls-5" points="82.44 169.25 82.09 169.25 81.83 169.51 82.44 170.12 82.44 169.25 82.44 169.25"/>
      <polygon class="cls-5" points="82.7 168.64 82.44 168.9 82.44 169.25 83.31 169.25 82.7 168.64 82.7 168.64"/>
      <polygon class="cls-5" points="81.22 168.03 80.36 168.03 80.97 168.64 81.22 168.39 81.22 168.03 81.22 168.03"/>
      <polygon class="cls-5" points="81.22 167.17 81.22 168.03 81.58 168.03 81.83 167.78 81.22 167.17 81.22 167.17"/>
      <polygon class="cls-5" points="80.36 169.25 81.22 169.25 81.22 168.9 80.97 168.64 80.36 169.25 80.36 169.25"/>
      <polygon class="cls-5" points="81.22 170.12 81.83 169.51 81.58 169.25 81.22 169.25 81.22 170.12 81.22 170.12"/>
      <path class="cls-5" d="M84.8,166.11l-.43-.44a.3.3,0,0,0-.43,0l-1.49,1.5V168h.86l1.49-1.49a.3.3,0,0,0,0-.43Z"/>
      <polygon class="cls-5" points="82.44 168.39 82.44 168.03 82.09 168.03 82.44 168.39 82.44 168.39"/>
      <polygon class="cls-5" points="82.09 169.25 82.44 169.25 82.44 168.9 82.09 169.25 82.09 169.25"/>
      <path class="cls-5" d="M83.31,169.25h-.86v.87l1.49,1.49a.3.3,0,0,0,.43,0l.43-.43a.3.3,0,0,0,0-.43l-1.49-1.5Z"/>
      <polygon class="cls-5" points="81.58 168.03 81.22 168.03 81.22 168.39 81.58 168.03 81.58 168.03"/>
      <path class="cls-5" d="M80.36,168h.86v-.86l-1.49-1.5a.3.3,0,0,0-.43,0l-.44.44a.3.3,0,0,0,0,.43l1.5,1.49Z"/>
      <path class="cls-5" d="M78.86,170.75a.3.3,0,0,0,0,.43l.44.43a.3.3,0,0,0,.43,0l1.49-1.49v-.87h-.86l-1.5,1.5Z"/>
      <polygon class="cls-5" points="81.22 168.9 81.22 169.25 81.58 169.25 81.22 168.9 81.22 168.9"/>
      <polygon class="cls-5" points="82.44 168.9 82.7 168.64 82.44 168.39 82.44 168.9 82.44 168.9"/>
      <path class="cls-5" d="M84.79,168H83.31l-.61.61.61.61h1.48a.29.29,0,0,0,.3-.3v-.61a.3.3,0,0,0-.3-.31Z"/>
      <polygon class="cls-5" points="81.22 168.39 80.97 168.64 81.22 168.9 81.22 168.39 81.22 168.39"/>
      <path class="cls-5" d="M80.36,169.25l.61-.61-.61-.61H78.88a.31.31,0,0,0-.31.31V169a.3.3,0,0,0,.31.3Z"/>
      <path class="cls-5" d="M82.45,165.69a.31.31,0,0,0-.31-.31h-.61a.31.31,0,0,0-.31.31v1.48l.61.61.62-.61v-1.48Z"/>
      <polygon class="cls-5" points="82.09 168.03 81.83 167.78 81.58 168.03 82.09 168.03 82.09 168.03"/>
      <polygon class="cls-5" points="81.58 169.25 81.83 169.51 82.09 169.25 81.58 169.25 81.58 169.25"/>
      <path class="cls-5" d="M81.83,169.51l-.61.61v1.48a.3.3,0,0,0,.31.3h.61a.3.3,0,0,0,.31-.3v-1.48l-.62-.61Z"/>
      <path class="cls-5" d="M81.83,169.51l-.61.61v1.48a.3.3,0,0,0,.31.3h.61a.3.3,0,0,0,.31-.3v-1.48l-.62-.61Z"/>
      <polygon class="cls-5" points="82.7 168.64 83.31 168.03 82.44 168.03 82.44 168.39 82.7 168.64 82.7 168.64"/>
      <polygon class="cls-5" points="81.83 167.78 82.09 168.03 82.44 168.03 82.44 167.17 81.83 167.78 81.83 167.78"/>
      <polygon class="cls-5" points="82.44 169.25 82.09 169.25 81.83 169.51 82.44 170.12 82.44 169.25 82.44 169.25"/>
      <polygon class="cls-5" points="82.7 168.64 82.44 168.9 82.44 169.25 83.31 169.25 82.7 168.64 82.7 168.64"/>
      <polygon class="cls-5" points="81.22 168.03 80.36 168.03 80.97 168.64 81.22 168.39 81.22 168.03 81.22 168.03"/>
      <polygon class="cls-5" points="81.22 167.17 81.22 168.03 81.58 168.03 81.83 167.78 81.22 167.17 81.22 167.17"/>
      <polygon class="cls-5" points="80.36 169.25 81.22 169.25 81.22 168.9 80.97 168.64 80.36 169.25 80.36 169.25"/>
      <polygon class="cls-5" points="81.22 170.12 81.83 169.51 81.58 169.25 81.22 169.25 81.22 170.12 81.22 170.12"/>
      <path class="cls-5" d="M84.8,166.11l-.43-.44a.3.3,0,0,0-.43,0l-1.49,1.5V168h.86l1.49-1.49a.3.3,0,0,0,0-.43Z"/>
      <polygon class="cls-5" points="82.44 168.39 82.44 168.03 82.09 168.03 82.44 168.39 82.44 168.39"/>
      <polygon class="cls-5" points="82.09 169.25 82.44 169.25 82.44 168.9 82.09 169.25 82.09 169.25"/>
      <path class="cls-5" d="M83.31,169.25h-.86v.87l1.49,1.49a.3.3,0,0,0,.43,0l.43-.43a.3.3,0,0,0,0-.43l-1.49-1.5Z"/>
      <polygon class="cls-5" points="81.58 168.03 81.22 168.03 81.22 168.39 81.58 168.03 81.58 168.03"/>
      <path class="cls-5" d="M80.36,168h.86v-.86l-1.49-1.5a.3.3,0,0,0-.43,0l-.44.44a.3.3,0,0,0,0,.43l1.5,1.49Z"/>
      <path class="cls-5" d="M78.86,170.75a.3.3,0,0,0,0,.43l.44.43a.3.3,0,0,0,.43,0l1.49-1.49v-.87h-.86l-1.5,1.5Z"/>
      <polygon class="cls-5" points="81.22 168.9 81.22 169.25 81.58 169.25 81.22 168.9 81.22 168.9"/>
      <polygon class="cls-5" points="82.44 168.9 82.7 168.64 82.44 168.39 82.44 168.9 82.44 168.9"/>
      <path class="cls-5" d="M84.79,168H83.31l-.61.61.61.61h1.48a.29.29,0,0,0,.3-.3v-.61a.3.3,0,0,0-.3-.31Z"/>
      <polygon class="cls-5" points="81.22 168.39 80.97 168.64 81.22 168.9 81.22 168.39 81.22 168.39"/>
      <path class="cls-5" d="M80.36,169.25l.61-.61-.61-.61H78.88a.31.31,0,0,0-.31.31V169a.3.3,0,0,0,.31.3Z"/>
      <path class="cls-5" d="M82.45,165.69a.31.31,0,0,0-.31-.31h-.61a.31.31,0,0,0-.31.31v1.48l.61.61.62-.61v-1.48Z"/>
      <polygon class="cls-5" points="82.09 168.03 81.83 167.78 81.58 168.03 82.09 168.03 82.09 168.03"/>
      <polygon class="cls-5" points="81.58 169.25 81.83 169.51 82.09 169.25 81.58 169.25 81.58 169.25"/>
      <path class="cls-5" d="M81.83,169.51l-.61.61v1.48a.3.3,0,0,0,.31.3h.61a.3.3,0,0,0,.31-.3v-1.48l-.62-.61Z"/>
      <line class="cls-13" x1="48.67" x2="108" y1="48.11" y2="62.11"/>
      <path class="cls-13" d="M48.53,48.59l59.34,14c.62.15.89-.81.26-1l-59.33-14c-.63-.15-.89.81-.27,1Z"/>
      <line class="cls-13" x1="71.33" x2="48.67" y1="20.28" y2="48.11"/>
      <path class="cls-13" d="M71,19.92,48.31,47.76c-.4.49.3,1.2.71.7L71.69,20.63c.4-.49-.3-1.21-.71-.71Z"/>
      <line class="cls-13" x1="81.58" x2="36.44" y1="168.69" y2="142.38"/>
      <path class="cls-13" d="M81.84,168.26,36.69,141.94a.5.5,0,0,0-.51.87l45.15,26.31a.5.5,0,0,0,.51-.86Z"/>
      <path class="cls-13" d="M27.07,83.93l81.2-20.31c.62-.15.36-1.12-.27-1L26.8,83a.5.5,0,0,0,.27,1Z"/>
      <polygon class="cls-5" points="119.7 29.25 120.31 28.63 119.44 28.63 119.44 28.99 119.7 29.25 119.7 29.25"/>
      <polygon class="cls-5" points="118.83 28.38 119.09 28.63 119.44 28.63 119.44 27.77 118.83 28.38 118.83 28.38"/>
      <polygon class="cls-5" points="119.44 29.86 119.09 29.86 118.83 30.11 119.44 30.72 119.44 29.86 119.44 29.86"/>
      <polygon class="cls-5" points="119.7 29.25 119.44 29.5 119.44 29.86 120.31 29.86 119.7 29.25 119.7 29.25"/>
      <polygon class="cls-5" points="118.22 28.63 117.36 28.63 117.97 29.25 118.22 28.99 118.22 28.63 118.22 28.63"/>
      <polygon class="cls-5" points="118.22 27.77 118.22 28.63 118.58 28.63 118.83 28.38 118.22 27.77 118.22 27.77"/>
      <polygon class="cls-5" points="117.36 29.86 118.22 29.86 118.22 29.5 117.97 29.25 117.36 29.86 117.36 29.86"/>
      <polygon class="cls-5" points="118.22 30.72 118.83 30.11 118.58 29.86 118.22 29.86 118.22 30.72 118.22 30.72"/>
      <path class="cls-5" d="M121.8,26.71l-.43-.43a.3.3,0,0,0-.43,0l-1.49,1.49v.86h.86l1.49-1.49a.3.3,0,0,0,0-.43Z"/>
      <polygon class="cls-5" points="119.44 28.99 119.44 28.63 119.09 28.63 119.44 28.99 119.44 28.99"/>
      <polygon class="cls-5" points="119.09 29.86 119.44 29.86 119.44 29.5 119.09 29.86 119.09 29.86"/>
      <path class="cls-5" d="M120.31,29.86h-.86v.86l1.49,1.49a.3.3,0,0,0,.43,0l.43-.43a.3.3,0,0,0,0-.43l-1.49-1.49Z"/>
      <polygon class="cls-5" points="118.58 28.63 118.22 28.63 118.22 28.99 118.58 28.63 118.58 28.63"/>
      <path class="cls-5" d="M117.36,28.63h.86v-.86l-1.49-1.49a.3.3,0,0,0-.43,0l-.44.43a.3.3,0,0,0,0,.43l1.5,1.49Z"/>
      <path class="cls-5" d="M115.86,31.35a.3.3,0,0,0,0,.43l.44.43a.3.3,0,0,0,.43,0l1.49-1.49v-.86h-.86l-1.5,1.49Z"/>
      <polygon class="cls-5" points="118.22 29.5 118.22 29.86 118.58 29.86 118.22 29.5 118.22 29.5"/>
      <polygon class="cls-5" points="119.44 29.5 119.7 29.25 119.44 28.99 119.44 29.5 119.44 29.5"/>
      <path class="cls-5" d="M121.79,28.63h-1.48l-.61.62.61.61h1.48a.3.3,0,0,0,.3-.31v-.61a.3.3,0,0,0-.3-.31Z"/>
      <polygon class="cls-5" points="118.22 28.99 117.97 29.25 118.22 29.5 118.22 28.99 118.22 28.99"/>
      <path class="cls-5" d="M117.36,29.86l.61-.61-.61-.62h-1.48a.31.31,0,0,0-.31.31v.61a.31.31,0,0,0,.31.31Z"/>
      <path class="cls-5" d="M119.45,26.29a.31.31,0,0,0-.31-.31h-.61a.31.31,0,0,0-.31.31v1.48l.61.61.62-.61V26.29Z"/>
      <polygon class="cls-5" points="119.09 28.63 118.83 28.38 118.58 28.63 119.09 28.63 119.09 28.63"/>
      <polygon class="cls-5" points="118.58 29.86 118.83 30.11 119.09 29.86 118.58 29.86 118.58 29.86"/>
      <path class="cls-5" d="M118.83,30.11l-.61.61V32.2a.31.31,0,0,0,.31.31h.61a.31.31,0,0,0,.31-.31V30.72l-.62-.61Z"/>
      <path class="cls-5" d="M118.83,30.11l-.61.61V32.2a.31.31,0,0,0,.31.31h.61a.31.31,0,0,0,.31-.31V30.72l-.62-.61Z"/>
      <polygon class="cls-5" points="119.7 29.25 120.31 28.63 119.44 28.63 119.44 28.99 119.7 29.25 119.7 29.25"/>
      <polygon class="cls-5" points="118.83 28.38 119.09 28.63 119.44 28.63 119.44 27.77 118.83 28.38 118.83 28.38"/>
      <polygon class="cls-5" points="119.44 29.86 119.09 29.86 118.83 30.11 119.44 30.72 119.44 29.86 119.44 29.86"/>
      <polygon class="cls-5" points="119.7 29.25 119.44 29.5 119.44 29.86 120.31 29.86 119.7 29.25 119.7 29.25"/>
      <polygon class="cls-5" points="118.22 28.63 117.36 28.63 117.97 29.25 118.22 28.99 118.22 28.63 118.22 28.63"/>
      <polygon class="cls-5" points="118.22 27.77 118.22 28.63 118.58 28.63 118.83 28.38 118.22 27.77 118.22 27.77"/>
      <polygon class="cls-5" points="117.36 29.86 118.22 29.86 118.22 29.5 117.97 29.25 117.36 29.86 117.36 29.86"/>
      <polygon class="cls-5" points="118.22 30.72 118.83 30.11 118.58 29.86 118.22 29.86 118.22 30.72 118.22 30.72"/>
      <path class="cls-5" d="M121.8,26.71l-.43-.43a.3.3,0,0,0-.43,0l-1.49,1.49v.86h.86l1.49-1.49a.3.3,0,0,0,0-.43Z"/>
      <polygon class="cls-5" points="119.44 28.99 119.44 28.63 119.09 28.63 119.44 28.99 119.44 28.99"/>
      <polygon class="cls-5" points="119.09 29.86 119.44 29.86 119.44 29.5 119.09 29.86 119.09 29.86"/>
      <path class="cls-5" d="M120.31,29.86h-.86v.86l1.49,1.49a.3.3,0,0,0,.43,0l.43-.43a.3.3,0,0,0,0-.43l-1.49-1.49Z"/>
      <polygon class="cls-5" points="118.58 28.63 118.22 28.63 118.22 28.99 118.58 28.63 118.58 28.63"/>
      <path class="cls-5" d="M117.36,28.63h.86v-.86l-1.49-1.49a.3.3,0,0,0-.43,0l-.44.43a.3.3,0,0,0,0,.43l1.5,1.49Z"/>
      <path class="cls-5" d="M115.86,31.35a.3.3,0,0,0,0,.43l.44.43a.3.3,0,0,0,.43,0l1.49-1.49v-.86h-.86l-1.5,1.49Z"/>
      <polygon class="cls-5" points="118.22 29.5 118.22 29.86 118.58 29.86 118.22 29.5 118.22 29.5"/>
      <polygon class="cls-5" points="119.44 29.5 119.7 29.25 119.44 28.99 119.44 29.5 119.44 29.5"/>
      <path class="cls-5" d="M121.79,28.63h-1.48l-.61.62.61.61h1.48a.3.3,0,0,0,.3-.31v-.61a.3.3,0,0,0-.3-.31Z"/>
      <polygon class="cls-5" points="118.22 28.99 117.97 29.25 118.22 29.5 118.22 28.99 118.22 28.99"/>
      <path class="cls-5" d="M117.36,29.86l.61-.61-.61-.62h-1.48a.31.31,0,0,0-.31.31v.61a.31.31,0,0,0,.31.31Z"/>
      <path class="cls-5" d="M119.45,26.29a.31.31,0,0,0-.31-.31h-.61a.31.31,0,0,0-.31.31v1.48l.61.61.62-.61V26.29Z"/>
      <polygon class="cls-5" points="119.09 28.63 118.83 28.38 118.58 28.63 119.09 28.63 119.09 28.63"/>
      <polygon class="cls-5" points="118.58 29.86 118.83 30.11 119.09 29.86 118.58 29.86 118.58 29.86"/>
      <path class="cls-5" d="M118.83,30.11l-.61.61V32.2a.31.31,0,0,0,.31.31h.61a.31.31,0,0,0,.31-.31V30.72l-.62-.61Z"/>
      <path class="cls-13" d="M120.52,99.61l-.77-71.23a.5.5,0,0,0-1,0l.77,71.23a.5.5,0,0,0,1,0Z"/>
      <path class="cls-13" d="M48.8,48.59l70.17-19a.5.5,0,0,0-.27-1l-70.17,19a.5.5,0,0,0,.27,1Z"/>
      <path class="cls-13" d="M73.83,99.94l45.16.78a.5.5,0,0,0,0-1l-45.16-.78a.5.5,0,0,0,0,1Z"/>
      <path class="cls-13" d="M74.27,99.19,49.1,47.86c-.28-.58-1.15-.07-.86.5L73.4,99.7c.29.57,1.15.07.87-.51Z"/>
      <path class="cls-13" d="M27.64,83.52,49.73,49.41c.35-.54-.52-1-.87-.5L26.77,83c-.35.54.52,1,.87.5Z"/>
      <path class="cls-13" d="M71.23,20.38,107.9,62.21c.42.49,1.13-.22.7-.7L71.94,19.67c-.43-.48-1.13.23-.71.71Z"/>
      <path class="cls-13" d="M107.73,62.65,73,97.42a.5.5,0,0,0,.7.71l34.69-34.77c.46-.46-.25-1.17-.7-.71Z"/>
      <path class="cls-13" d="M42,112.28,27.6,82.52c-.28-.57-1.14-.07-.86.51l14.42,29.75c.28.58,1.14.08.86-.5Z"/>
      <path class="cls-13" d="M37.54,143.4l37-43.44c.42-.48-.29-1.19-.71-.7l-37,43.43c-.41.49.29,1.2.71.71Z"/>
      <path class="cls-13" d="M81.72,167.17,74.56,98.52c-.07-.63-1.07-.64-1,0l7.16,68.65c.07.63,1.07.64,1,0Z"/>
      <path class="cls-13" d="M41.52,112.64l32.18-14c.58-.25.08-1.11-.51-.86L41,111.78c-.59.25-.08,1.12.5.86Z"/>
      <path class="cls-13"
            d="M26.16,82.79l82.19,15.57,11.87,2.25c.63.12.9-.85.27-1L38.29,84.08,26.42,81.83c-.63-.12-.9.84-.26,1Z"/>
      <path class="cls-13" d="M37.91,141.72,27.06,83.31c-.12-.63-1.08-.36-1,.27L36.94,142c.12.63,1.08.36,1-.27Z"/>
      <path class="cls-13" d="M38.08,141.59l4.25-29.92c.09-.63-.88-.9-1-.26l-4.24,29.91c-.09.63.87.9,1,.27Z"/>
      <path class="cls-13"
            d="M48.35,49.24,77.68,154.42l4.12,14.77a.5.5,0,0,0,1-.27L53.43,63.75,49.32,49a.5.5,0,0,0-1,.26Z"/>
      <polygon class="cls-5" points="90.53 119.91 91.14 119.3 90.28 119.3 90.28 119.66 90.53 119.91 90.53 119.91"/>
      <polygon class="cls-5" points="89.67 119.05 89.92 119.3 90.28 119.3 90.28 118.44 89.67 119.05 89.67 119.05"/>
      <polygon class="cls-5" points="90.28 120.53 89.92 120.53 89.67 120.78 90.28 121.39 90.28 120.53 90.28 120.53"/>
      <polygon class="cls-5" points="90.53 119.91 90.28 120.17 90.28 120.53 91.14 120.53 90.53 119.91 90.53 119.91"/>
      <polygon class="cls-5" points="89.06 119.3 88.19 119.3 88.8 119.91 89.06 119.66 89.06 119.3 89.06 119.3"/>
      <polygon class="cls-5" points="89.06 118.44 89.06 119.3 89.41 119.3 89.67 119.05 89.06 118.44 89.06 118.44"/>
      <polygon class="cls-5" points="88.19 120.53 89.06 120.53 89.06 120.17 88.8 119.91 88.19 120.53 88.19 120.53"/>
      <polygon class="cls-5" points="89.06 121.39 89.67 120.78 89.41 120.53 89.06 120.53 89.06 121.39 89.06 121.39"/>
      <path class="cls-5" d="M92.63,117.38l-.43-.44a.32.32,0,0,0-.43,0l-1.49,1.5v.86h.86l1.49-1.49a.3.3,0,0,0,0-.43Z"/>
      <polygon class="cls-5" points="90.28 119.66 90.28 119.3 89.92 119.3 90.28 119.66 90.28 119.66"/>
      <polygon class="cls-5" points="89.92 120.53 90.28 120.53 90.28 120.17 89.92 120.53 89.92 120.53"/>
      <path class="cls-5" d="M91.14,120.52h-.86v.87l1.49,1.49a.3.3,0,0,0,.43,0l.43-.43a.3.3,0,0,0,0-.43l-1.49-1.5Z"/>
      <polygon class="cls-5" points="89.41 119.3 89.06 119.3 89.06 119.66 89.41 119.3 89.41 119.3"/>
      <path class="cls-5" d="M88.19,119.3h.86v-.86l-1.49-1.5a.32.32,0,0,0-.43,0l-.43.44a.3.3,0,0,0,0,.43l1.49,1.49Z"/>
      <path class="cls-5" d="M86.7,122a.3.3,0,0,0,0,.43l.43.43a.3.3,0,0,0,.43,0l1.49-1.49v-.87h-.86L86.7,122Z"/>
      <polygon class="cls-5" points="89.06 120.17 89.06 120.53 89.41 120.53 89.06 120.17 89.06 120.17"/>
      <polygon class="cls-5" points="90.28 120.17 90.53 119.91 90.28 119.66 90.28 120.17 90.28 120.17"/>
      <path class="cls-5" d="M92.62,119.3H91.14l-.61.61.61.61h1.48a.3.3,0,0,0,.31-.3v-.61a.31.31,0,0,0-.31-.31Z"/>
      <polygon class="cls-5" points="89.06 119.66 88.8 119.91 89.06 120.17 89.06 119.66 89.06 119.66"/>
      <path class="cls-5" d="M88.19,120.52l.61-.61-.61-.61H86.71a.3.3,0,0,0-.3.31v.61a.29.29,0,0,0,.3.3Z"/>
      <path class="cls-5" d="M90.28,117a.31.31,0,0,0-.31-.31h-.61a.31.31,0,0,0-.31.31v1.48l.62.61.61-.61V117Z"/>
      <polygon class="cls-5" points="89.92 119.3 89.67 119.05 89.41 119.3 89.92 119.3 89.92 119.3"/>
      <polygon class="cls-5" points="89.41 120.53 89.67 120.78 89.92 120.53 89.41 120.53 89.41 120.53"/>
      <path class="cls-5" d="M89.67,120.78l-.62.61v1.48a.31.31,0,0,0,.31.31H90a.31.31,0,0,0,.31-.31v-1.48l-.61-.61Z"/>
      <path class="cls-5" d="M89.67,120.78l-.62.61v1.48a.31.31,0,0,0,.31.31H90a.31.31,0,0,0,.31-.31v-1.48l-.61-.61Z"/>
      <polygon class="cls-5" points="90.53 119.91 91.14 119.3 90.28 119.3 90.28 119.66 90.53 119.91 90.53 119.91"/>
      <polygon class="cls-5" points="89.67 119.05 89.92 119.3 90.28 119.3 90.28 118.44 89.67 119.05 89.67 119.05"/>
      <polygon class="cls-5" points="90.28 120.53 89.92 120.53 89.67 120.78 90.28 121.39 90.28 120.53 90.28 120.53"/>
      <polygon class="cls-5" points="90.53 119.91 90.28 120.17 90.28 120.53 91.14 120.53 90.53 119.91 90.53 119.91"/>
      <polygon class="cls-5" points="89.06 119.3 88.19 119.3 88.8 119.91 89.06 119.66 89.06 119.3 89.06 119.3"/>
      <polygon class="cls-5" points="89.06 118.44 89.06 119.3 89.41 119.3 89.67 119.05 89.06 118.44 89.06 118.44"/>
      <polygon class="cls-5" points="88.19 120.53 89.06 120.53 89.06 120.17 88.8 119.91 88.19 120.53 88.19 120.53"/>
      <polygon class="cls-5" points="89.06 121.39 89.67 120.78 89.41 120.53 89.06 120.53 89.06 121.39 89.06 121.39"/>
      <path class="cls-5" d="M92.63,117.38l-.43-.44a.32.32,0,0,0-.43,0l-1.49,1.5v.86h.86l1.49-1.49a.3.3,0,0,0,0-.43Z"/>
      <polygon class="cls-5" points="90.28 119.66 90.28 119.3 89.92 119.3 90.28 119.66 90.28 119.66"/>
      <polygon class="cls-5" points="89.92 120.53 90.28 120.53 90.28 120.17 89.92 120.53 89.92 120.53"/>
      <path class="cls-5" d="M91.14,120.52h-.86v.87l1.49,1.49a.3.3,0,0,0,.43,0l.43-.43a.3.3,0,0,0,0-.43l-1.49-1.5Z"/>
      <polygon class="cls-5" points="89.41 119.3 89.06 119.3 89.06 119.66 89.41 119.3 89.41 119.3"/>
      <path class="cls-5" d="M88.19,119.3h.86v-.86l-1.49-1.5a.32.32,0,0,0-.43,0l-.43.44a.3.3,0,0,0,0,.43l1.49,1.49Z"/>
      <path class="cls-5" d="M86.7,122a.3.3,0,0,0,0,.43l.43.43a.3.3,0,0,0,.43,0l1.49-1.49v-.87h-.86L86.7,122Z"/>
      <polygon class="cls-5" points="89.06 120.17 89.06 120.53 89.41 120.53 89.06 120.17 89.06 120.17"/>
      <polygon class="cls-5" points="90.28 120.17 90.53 119.91 90.28 119.66 90.28 120.17 90.28 120.17"/>
      <path class="cls-5" d="M92.62,119.3H91.14l-.61.61.61.61h1.48a.3.3,0,0,0,.31-.3v-.61a.31.31,0,0,0-.31-.31Z"/>
      <polygon class="cls-5" points="89.06 119.66 88.8 119.91 89.06 120.17 89.06 119.66 89.06 119.66"/>
      <path class="cls-5" d="M88.19,120.52l.61-.61-.61-.61H86.71a.3.3,0,0,0-.3.31v.61a.29.29,0,0,0,.3.3Z"/>
      <path class="cls-5" d="M90.28,117a.31.31,0,0,0-.31-.31h-.61a.31.31,0,0,0-.31.31v1.48l.62.61.61-.61V117Z"/>
      <polygon class="cls-5" points="89.92 119.3 89.67 119.05 89.41 119.3 89.92 119.3 89.92 119.3"/>
      <polygon class="cls-5" points="89.41 120.53 89.67 120.78 89.92 120.53 89.41 120.53 89.41 120.53"/>
      <path class="cls-5" d="M89.67,120.78l-.62.61v1.48a.31.31,0,0,0,.31.31H90a.31.31,0,0,0,.31-.31v-1.48l-.61-.61Z"/>
      <line class="cls-13" x1="81.91" x2="89.83" y1="169.42" y2="119.95"/>
      <path class="cls-13" d="M82.4,169.55l7.92-49.47c.1-.63-.87-.9-1-.27l-7.92,49.48c-.1.63.86.9,1,.26Z"/>
      <path class="cls-13" d="M90.27,120.28l-15-21.46c-.36-.52-1.23,0-.86.51l15,21.45c.36.53,1.23,0,.86-.5Z"/>
      <path class="cls-13" d="M75.17,99.14,72,19.38c0-.64-1-.64-1,0l3.17,79.76c0,.64,1,.64,1,0Z"/>
      <path class="cls-13" d="M120.34,101,108.87,61.53a.5.5,0,0,0-1,.27l11.46,39.42a.5.5,0,0,0,1-.27Z"/>
      <path class="cls-13" d="M90.43,120l17.86-57.31c.2-.62-.77-.88-1-.27L89.46,119.76c-.19.61.78.88,1,.26Z"/>
      <path class="cls-13" d="M108,62.66l11.31-33.42c.2-.61-.76-.87-1-.26L107,62.4c-.21.61.76.87,1,.26Z"/>
    </g>
  </g>
</svg>
