<?xml version="1.0" encoding="utf-8"?>
<!-- Generator: Adobe Illustrator 19.2.1, SVG Export Plug-In . SVG Version: 6.00 Build 0)  -->
<svg height="60px" id="Ebene_1" style="enable-background:new 0 0 60 60;" version="1.1" viewBox="0 0 60 60" width="60px"
     x="0px" xml:space="preserve" xmlns="http://www.w3.org/2000/svg" xmlns:xlink="http://www.w3.org/1999/xlink" y="0px">
<style type="text/css">
	.st0 {
    fill: #00A0E3;
  }

  .st1 {
    fill: #FFFFFF;
  }

  .st2 {
    clip-path: url(#SVGID_2_);
    fill: #FFFFFF;
  }
</style>
  <rect class="st0" height="60" width="60.00124"/>
  <polygon class="st1" points="26.01002,17.68533 26.01002,28.66681 16.86431,28.66681 16.86431,17.68533 10.00012,17.68533
	10.00012,9.99891 32.86185,9.99891 32.86185,17.68533 "/>
  <polygon class="st1" points="37.60685,17.67557 49.43274,17.67557 38.42901,28.6657 50.0006,39.65953 38.18705,39.65953
	27.20065,28.6657 "/>
  <polygon class="st1" points="14.91239,43.68433 14.78769,44.59791 12.95188,44.59791 12.95188,49.99915 11.84323,49.99915
	11.84323,44.59791 9.88272,44.59791 9.99876,43.68433 "/>
  <g>
	<defs>
		<rect height="60" id="SVGID_1_" width="60.00124"/>
	</defs>
    <clipPath id="SVGID_2_">
		<use style="overflow:visible;" xlink:href="#SVGID_1_"/>
	</clipPath>
    <path class="st2" d="M22.85955,49.9199c-0.19509,0.05927-0.38648,0.10248-0.57162,0.1284
		c-0.18642,0.02716-0.38399,0.03951-0.59016,0.03951c-0.40245,0-0.73581-0.05062-1.00248-0.15432
		c-0.26667-0.1037-0.47901-0.25184-0.63823-0.4432c-0.1605-0.1926-0.27406-0.42222-0.34202-0.68766
		c-0.06789-0.26665-0.1024-0.56171-0.1024-0.88765v-0.45185c0-0.32469,0.04318-0.62099,0.12961-0.88766
		c0.08515-0.26543,0.21724-0.49258,0.39379-0.68271c0.17783-0.18889,0.40374-0.33334,0.67907-0.43457
		c0.27526-0.09999,0.60493-0.15061,0.98884-0.15061c0.23088,0,0.44819,0.01729,0.65187,0.05309
		c0.20368,0.03581,0.39138,0.08025,0.56296,0.13334l-0.17655,0.78025c-0.11853-0.03581-0.24934-0.06544-0.3901-0.0889
		c-0.14196-0.02345-0.29877-0.03456-0.47042-0.03456c-0.46786,0-0.79624,0.10001-0.98515,0.30124
		c-0.18891,0.20123-0.28393,0.54443-0.28393,1.02839v0.37284c0,0.50864,0.10248,0.8679,0.30616,1.07778
		c0.20368,0.20988,0.5457,0.31482,1.02471,0.31482c0.1654,0,0.32959-0.00987,0.49258-0.03088
		c0.16299-0.02098,0.31482-0.04567,0.45679-0.07529L22.85955,49.9199z"/>
    <path class="st2" d="M24.13684,49.99977v-6.51109l1.08266-0.15063v2.45802c0.14694-0.16542,0.33336-0.29135,0.55806-0.37778
		c0.2247-0.08519,0.47283-0.12838,0.74568-0.12838c0.24813,0,0.47404,0.0321,0.67779,0.09752
		c0.20488,0.06543,0.38023,0.16419,0.52837,0.29753c0.14814,0.13211,0.26298,0.3,0.34564,0.50124
		c0.08274,0.2,0.12471,0.43704,0.12471,0.70863v3.10494h-1.08273v-2.8111c0-0.37284-0.06789-0.63705-0.20368-0.79506
		c-0.13578-0.15556-0.36418-0.23457-0.68269-0.23457c-0.34941,0-0.60493,0.09136-0.76791,0.27531
		c-0.16299,0.18271-0.24324,0.4753-0.24324,0.87778v2.68764H24.13684z"/>
    <path class="st2" d="M29.57409,49.99977v-4.54196l0.93082-0.13211l0.08025,0.56667
		c0.14814-0.19505,0.33825-0.34321,0.57162-0.44691c0.23457-0.1037,0.50124-0.15554,0.80371-0.15554
		c0.24813,0,0.47404,0.0321,0.67779,0.09752c0.20367,0.06543,0.38023,0.16419,0.52837,0.29753
		c0.14694,0.13211,0.26298,0.3,0.34564,0.50124c0.08274,0.2,0.12471,0.43704,0.12471,0.70863v3.10494h-1.08273v-2.8111
		c0-0.37284-0.06789-0.63705-0.20367-0.79506c-0.13579-0.15556-0.36418-0.23457-0.68397-0.23457
		c-0.34813,0-0.60365,0.09136-0.76663,0.27531c-0.16299,0.18271-0.24324,0.4753-0.24324,0.87778v2.68764H29.57409z"/>
    <path class="st2" d="M35.59615,43.5515c0.23088,0,0.39748,0.05184,0.50124,0.15554c0.10368,0.10248,0.15553,0.2494,0.15553,0.43829
		c0,0.19011-0.05184,0.33579-0.15553,0.43951c-0.10376,0.1037-0.27036,0.15554-0.50124,0.15554
		c-0.22967,0-0.39756-0.05184-0.50124-0.15554c-0.10368-0.10372-0.15432-0.2494-0.15432-0.43951
		c0-0.18889,0.05064-0.33581,0.15432-0.43829C35.19859,43.60334,35.36648,43.5515,35.59615,43.5515 M35.05542,45.47618
		l1.08145-0.15061v4.67407h-1.08145V45.47618z"/>
    <polygon class="st2" points="38.64248,47.88433 38.64248,50.00039 37.60421,50.00039 37.60421,43.48928 38.64248,43.33867
		38.64248,47.08558 40.4165,45.39668 41.63999,45.39668 39.48567,47.44978 41.72024,50.00039 40.45229,50.00039 	"/>
    <path class="st2" d="M49.92148,46.33655c-0.07166-0.01728-0.15681-0.03579-0.2568-0.05309
		c-0.10127-0.01728-0.20496-0.02715-0.31113-0.02715c-0.3901,0-0.67282,0.10246-0.84696,0.30617
		c-0.17406,0.2037-0.2617,0.51605-0.2617,0.9358v2.50124h-1.08274v-4.54075l0.93211-0.13332l0.07904,0.62098
		c0.14814-0.20123,0.33208-0.35308,0.5506-0.45678s0.4815-0.15556,0.78886-0.15556c0.11853,0,0.2235,0.0074,0.3161,0.02223
		c0.09133,0.0148,0.18642,0.0395,0.28762,0.07531L49.92148,46.33655z"/>
    <path class="st2" d="M16.64383,34.63867c0.23088,0,0.39748,0.05184,0.50124,0.15554c0.10368,0.1037,0.15553,0.2494,0.15553,0.43829
		c0,0.19011-0.05184,0.33579-0.15553,0.43951c-0.10376,0.1037-0.27036,0.15554-0.50124,0.15554s-0.39756-0.05184-0.50124-0.15554
		c-0.10369-0.10372-0.15432-0.2494-0.15432-0.43951c0-0.18889,0.05064-0.33458,0.15432-0.43829
		C16.24627,34.69051,16.41295,34.63867,16.64383,34.63867 M16.10311,36.56335l1.08266-0.15061v4.67406h-1.08266V36.56335z"/>
    <path class="st2" d="M10.15256,34.77187c0.04687,0,1.98515,0.00124,1.98515,0.00124c0.53214,0,0.97287,0.06914,1.32228,0.2111
		c0.34813,0.14198,0.62715,0.33827,0.83332,0.59014c0.20737,0.25185,0.35182,0.54937,0.43456,0.89629
		c0.08274,0.34568,0.12471,0.72221,0.12471,1.13086v0.64692c0,0.41975-0.04446,0.80246-0.13337,1.14814
		c-0.08884,0.34692-0.23578,0.64567-0.44322,0.89629c-0.20737,0.25187-0.4864,0.44691-0.83822,0.58518
		c-0.35189,0.13951-0.78765,0.20865-1.30864,0.20865h-2.12839v-6.15679C10.00072,34.84225,10.08587,34.77187,10.15256,34.77187
		 M11.10938,40.16446h0.93082c0.27775,0,0.52219-0.03208,0.73212-0.09753c0.20986-0.06542,0.38392-0.17284,0.52347-0.32345
		c0.13827-0.15063,0.24444-0.35432,0.31474-0.60741c0.07166-0.25431,0.10625-0.5716,0.10625-0.94938v-0.52345
		c0-0.37902-0.03338-0.69507-0.10127-0.9494c-0.06789-0.25431-0.17158-0.45678-0.31113-0.6074
		c-0.13827-0.15063-0.31113-0.2568-0.5185-0.31976c-0.20744-0.06173-0.45309-0.09259-0.73581-0.09259h-0.94069V40.16446z"/>
    <path class="st2" d="M21.92217,36.84705c-0.33208-0.31358-0.8025-0.47036-1.41112-0.47036
		c-0.36666,0-0.68148,0.05309-0.94446,0.1605c-0.2629,0.10617-0.48022,0.25678-0.65179,0.45185
		c-0.17165,0.19507-0.29757,0.42839-0.37661,0.70123c-0.08018,0.27161-0.11973,0.57285-0.11973,0.90372v0.37284
		c0,0.36666,0.03579,0.68764,0.10986,0.96296c0.07407,0.2753,0.19878,0.50616,0.37284,0.69629
		c0.17414,0.18889,0.40253,0.33087,0.68277,0.42593c0.28144,0.09383,0.62836,0.14196,1.04317,0.14196
		c0.12968,0,0.26298-0.00494,0.39876-0.01356c0.13578-0.00865,0.26916-0.02223,0.39876-0.04075
		c0.12968-0.01729,0.25062-0.03828,0.35928-0.06173c0.10986-0.02346,0.20616-0.05062,0.2889-0.08025l0.14196-0.7716
		c-0.24942,0.04815-0.46794,0.08025-0.65677,0.09754c-0.18891,0.01852-0.38151,0.02715-0.57659,0.02715
		c-0.43825,0-0.76543-0.05062-0.98515-0.15061c-0.21852-0.10123-0.36666-0.28148-0.44322-0.54074l2.78516-1.23333
		c0.05312-0.02345,0.08025-0.06544,0.08025-0.12469v-0.12347C22.41844,37.60385,22.25304,37.16063,21.92217,36.84705
		 M19.70863,37.49026c0.15673-0.20988,0.41481-0.3148,0.7765-0.3148c0.30126,0,0.52347,0.06914,0.66423,0.20863
		c0.1345,0.13087,0.21852,0.31976,0.25183,0.56544l-1.92713,0.85801V38.5236C19.47406,38.04458,19.55182,37.70015,19.70863,37.49026
		"/>
    <path class="st2" d="M18.13656,45.75977c-0.33208-0.31358-0.8025-0.47037-1.41112-0.47037
		c-0.36666,0-0.68148,0.05309-0.94446,0.1605c-0.2629,0.10617-0.48022,0.25678-0.65179,0.45185
		c-0.17165,0.19506-0.29757,0.42839-0.37661,0.70123c-0.08017,0.27161-0.11973,0.57285-0.11973,0.90371v0.37284
		c0,0.36666,0.03579,0.68764,0.10986,0.96296c0.07407,0.2753,0.19878,0.5074,0.37284,0.69629
		c0.17414,0.18889,0.40253,0.33087,0.68276,0.42593c0.28144,0.09383,0.62836,0.14196,1.04317,0.14196
		c0.12968,0,0.26298-0.00494,0.39876-0.01357c0.13578-0.00864,0.26916-0.02223,0.39876-0.03952
		c0.13089-0.01852,0.25062-0.03951,0.35928-0.06296c0.10986-0.02345,0.20616-0.05062,0.2889-0.08025l0.14196-0.77036
		c-0.24942,0.04691-0.46794,0.07901-0.65677,0.09753c-0.18891,0.01729-0.38151,0.02592-0.57659,0.02592
		c-0.43704,0-0.76543-0.05062-0.98395-0.15061c-0.21973-0.10123-0.36666-0.28148-0.44443-0.54074l2.78516-1.23332
		c0.05312-0.02345,0.08025-0.06544,0.08025-0.12469v-0.12346C18.63283,46.51656,18.46743,46.07334,18.13656,45.75977
		 M15.92302,46.40297c0.15673-0.20987,0.41481-0.3148,0.7765-0.3148c0.30126,0,0.52347,0.06913,0.66543,0.20863
		c0.1333,0.13087,0.21732,0.31976,0.25062,0.56544l-1.92713,0.85802v-0.28395C15.68844,46.9573,15.76621,46.61286,15.92302,46.40297
		"/>
    <path class="st2" d="M45.57592,45.75977c-0.33208-0.31358-0.8025-0.47037-1.41112-0.47037
		c-0.36666,0-0.68148,0.05309-0.94446,0.1605c-0.2629,0.10617-0.48022,0.25678-0.65179,0.45185
		c-0.17165,0.19506-0.29757,0.42839-0.37661,0.70123c-0.08017,0.27161-0.12094,0.57285-0.12094,0.90371v0.37284
		c0,0.36666,0.037,0.68764,0.11107,0.96296c0.07407,0.2753,0.19878,0.5074,0.37284,0.69629
		c0.17414,0.18889,0.40253,0.33087,0.68276,0.42593c0.28144,0.09383,0.62836,0.14196,1.04317,0.14196
		c0.12968,0,0.26298-0.00494,0.39876-0.01357c0.13578-0.00864,0.26916-0.02223,0.39877-0.03952
		c0.12968-0.01852,0.24941-0.03951,0.35928-0.06296s0.20617-0.05062,0.2889-0.08025l0.14196-0.77036
		c-0.24942,0.04691-0.46794,0.07901-0.65677,0.09753c-0.18891,0.01729-0.38151,0.02592-0.5766,0.02592
		c-0.43825,0-0.76543-0.05062-0.98395-0.15061c-0.21973-0.10123-0.36787-0.28148-0.44442-0.54074l2.78516-1.23332
		c0.05312-0.02345,0.08025-0.06544,0.08025-0.12469v-0.12346C46.07219,46.51656,45.9068,46.07334,45.57592,45.75977
		 M43.36238,46.40297c0.15673-0.20987,0.41481-0.3148,0.7765-0.3148c0.30126,0,0.52347,0.06913,0.66423,0.20863
		c0.1345,0.13087,0.21852,0.31976,0.25182,0.56544l-1.92713,0.85802v-0.28395C43.12781,46.9573,43.20558,46.61286,43.36238,46.40297
		"/>
</g>
</svg>
