<svg xmlns="http://www.w3.org/2000/svg" version="1.1" viewBox="0 0 3000 3000" width="3000" height="3000">
<defs/><!--ITEM: Illustration component 1--><g transform="translate(205.55555555555554 444.44444444444446) rotate(0.0 1290.2777777777776 1098.611111111111)  scale(1.2278677174359436 1.2275889742831438)"><svg width="2101.656" height="1789.868" viewBox="0.0 0.0 2101.656 1789.868"><path style="fill:#00aee0;" d="M1946.626,362.352c-37.604-87.396-83.333-172.946-149.673-241.146  c-16.988-17.461-35.478-33.708-55.195-48.275c0-0.005,0-0.01,0-0.015c-4.755-5.463-9.565-9.131-14.432-10.192  c-54.055-36.601-116.27-60.437-181.154-62.565c-68.255-2.238-134.162,19.128-195.732,50.129c-4.827,0.097-9.636,2.763-14.426,7.474  c0,0.002,0,0.005,0,0.007c-20.146,10.725-39.797,22.39-58.887,34.487c-81.301,51.515-157.73,112.234-246.348,149.796  c-187.248,79.38-407.31,46.814-594.779,125.693c-195.313,82.18-325.817,276.1-383.92,479.882  C6.887,1006.133-0.676,1172.093,0.045,1336.007c0.57,129.007,15.305,256.402,135.363,332.446  c72.853,46.148,160.249,62.373,245.586,74.843c438.552,64.123,884.817,53.396,1326.732,19.437  c103.957-7.989,217.193-21.475,290.361-95.749c65.468-66.449,82.482-165.65,91.514-258.489  C2124.033,1054.458,2087.219,689.095,1946.626,362.352z"/>
</svg></g><!--ITEM: Illustration component 2--><g transform="translate(2008.3333333333333 780.5555555555555) rotate(0.0 277.7777777777777 174.99999999999994) translate(0.0 0.0) scale(5.993952653216548 5.949260625889412)"><svg width="92.22257995" height="58.83084" viewBox="0.0 0.0 92.22257995 58.83084"><title>hanger2</title>
  <g id="&#1057;&#1083;&#1086;&#1081;_2-i2" data-name="&#1057;&#1083;&#1086;&#1081; 2">
    <g id="Capa_1-i2" data-name="Capa 1">
      <g>
        <path d="M90.84556,49.1565c-6.8-5.3-13.8-10.4-20.9-15-2.3-1.5-5.4-4-8.7-6,3.6-4.8,6-10.1,5-16.3-1.4-7.9-8.7-13.9-16.7-11.2-5.6,2-3.7,11,2,9.1,4.6-1.5,6.4,2.9,5.6,6.8-.6,3.1-2.6,5.7-4.8,8.2a2.15322,2.15322,0,0,0-1.1.2c-3.7.8-7.9,4-11.3,5.7l-12.1,6.2c-8.5,4.3-16.9,8.8-25.4,13.2-5.3,2.8-1.1,11,4.2,8.2,15-7.7,29.9-15.5,44.9-23.4a3.70851,3.70851,0,0,0,2.3.3,287.14538,287.14538,0,0,1,31.9,21.5C90.54556,60.55649,95.44555,52.6565,90.84556,49.1565Z" style="         fill: #ffb400;       "/>
        <rect x="2.44556" y="50.05649" width="88.40327" height="6.58355" style="         fill: #ffb400;       "/>
      </g>
    </g>
  </g>
</svg></g><!--ITEM: Illustration component 3--><g transform="translate(369.44444444444446 405.55555555555554) rotate(0.0 1212.5 1048.611111111111) translate(1716.2834069902458 396.9254784896016) scale(2.531188416446775 2.527848858878803)"><svg width="279.8421993127148" height="672.5085615894039" viewBox="678.0543857732746 157.02104858660462 279.8421993127148 672.5085615894039"><g>
	<path style="fill:#F04E23;" d="M109.468,783.53c-11.67,0-21.131-9.46-21.131-21.131V21.131C88.337,9.46,97.798,0,109.468,0   s21.131,9.46,21.131,21.131v741.269C130.599,774.07,121.138,783.53,109.468,783.53z"/>
	<path style="fill:#F04E23;" d="M848.58,783.53c-11.67,0-21.131-9.46-21.131-21.131V21.131C827.45,9.46,836.91,0,848.58,0   s21.131,9.46,21.131,21.131v741.269C869.711,774.07,860.251,783.53,848.58,783.53z"/>
	<path style="fill:#F04E23;" d="M848.58,108.672H109.468c-9.336,0-16.905-7.568-16.905-16.905s7.568-16.905,16.905-16.905H848.58   c9.336,0,16.905,7.568,16.905,16.905S857.917,108.672,848.58,108.672z"/>
	<path style="fill:#F04E23;" d="M194.631,785.221H24.306c-9.336,0-16.905-7.568-16.905-16.905c0-9.336,7.568-16.905,16.905-16.905   h170.325c9.336,0,16.905,7.568,16.905,16.905C211.535,777.652,203.967,785.221,194.631,785.221z"/>
	<path style="fill:#F04E23;" d="M933.742,785.221H763.418c-9.336,0-16.905-7.568-16.905-16.905c0-9.336,7.568-16.905,16.905-16.905   h170.325c9.336,0,16.905,7.568,16.905,16.905C950.647,777.652,943.079,785.221,933.742,785.221z"/>
	<circle style="fill:#04294F;" cx="24.306" cy="805.341" r="24.306"/>
	<circle style="fill:#04294F;" cx="194.631" cy="805.341" r="24.306"/>
	<circle style="fill:#04294F;" cx="763.418" cy="805.341" r="24.306"/>
	<circle style="fill:#04294F;" cx="933.743" cy="805.341" r="24.306"/>
</g>
</svg></g><!--ITEM: Illustration component 4--><g transform="translate(2236.111111111111 672.2222222222222) rotate(0.0 1225.0000000000002 1059.7222222222222) translate(0.0 0.0) scale(2.557283142389526 2.554634012350366)"><svg width="336.72888888888883" height="67.41561467889909" viewBox="0.0 0.0 336.72888888888883 67.41561467889909"><g>
	<path style="fill:#F04E23;" d="M109.468,783.53c-11.67,0-21.131-9.46-21.131-21.131V21.131C88.337,9.46,97.798,0,109.468,0   s21.131,9.46,21.131,21.131v741.269C130.599,774.07,121.138,783.53,109.468,783.53z"/>
	<path style="fill:#F04E23;" d="M848.58,783.53c-11.67,0-21.131-9.46-21.131-21.131V21.131C827.45,9.46,836.91,0,848.58,0   s21.131,9.46,21.131,21.131v741.269C869.711,774.07,860.251,783.53,848.58,783.53z"/>
	<path style="fill:#F04E23;" d="M848.58,108.672H109.468c-9.336,0-16.905-7.568-16.905-16.905s7.568-16.905,16.905-16.905H848.58   c9.336,0,16.905,7.568,16.905,16.905S857.917,108.672,848.58,108.672z"/>
	<path style="fill:#F04E23;" d="M194.631,785.221H24.306c-9.336,0-16.905-7.568-16.905-16.905c0-9.336,7.568-16.905,16.905-16.905   h170.325c9.336,0,16.905,7.568,16.905,16.905C211.535,777.652,203.967,785.221,194.631,785.221z"/>
	<path style="fill:#F04E23;" d="M933.742,785.221H763.418c-9.336,0-16.905-7.568-16.905-16.905c0-9.336,7.568-16.905,16.905-16.905   h170.325c9.336,0,16.905,7.568,16.905,16.905C950.647,777.652,943.079,785.221,933.742,785.221z"/>
	<circle style="fill:#04294F;" cx="24.306" cy="805.341" r="24.306"/>
	<circle style="fill:#04294F;" cx="194.631" cy="805.341" r="24.306"/>
	<circle style="fill:#04294F;" cx="763.418" cy="805.341" r="24.306"/>
	<circle style="fill:#04294F;" cx="933.743" cy="805.341" r="24.306"/>
</g>
</svg></g><!--ITEM: Illustration component 5--><g transform="translate(3413.8888888888887 716.6666666666666) rotate(-173.97251609927395 -625.0 1219.4444444444446) translate(-0.0 1793.7348398508782) scale(-4.981449083612627 4.994683335938761)"><svg width="19.84020502543453" height="100.10644646924828" viewBox="0.0 359.1288414511152 19.84020502543453 100.10644646924828"><g>
	<path d="M239.222,4.384c-2.353,11.896-5.104,23.715-7.944,35.503c-3.931,16.315-8.108,32.571-12.427,48.788   c-5.201,19.528-10.62,38.997-16.227,58.412c-6.134,21.235-12.496,42.404-19.109,63.495c-6.828,21.775-13.921,43.468-21.364,65.042   c-7.205,20.883-14.731,41.659-22.755,62.242c-3.73,9.569-7.577,19.091-11.554,28.56c-0.443,1.054-0.072,0.17,0.015-0.035   c-0.131,0.31-0.262,0.619-0.393,0.929c-0.229,0.54-0.458,1.08-0.688,1.619c-0.489,1.149-0.981,2.296-1.475,3.443   c-0.974,2.261-1.958,4.518-2.951,6.771c-1.896,4.299-3.828,8.583-5.803,12.847c-7.005,15.123-14.493,30.08-23.163,44.325   c-3.501,5.751-7.204,11.389-11.263,16.764c-0.216,0.287-0.439,0.569-0.653,0.858c-0.096,0.129,0.862-1.097,0.101-0.133   c-0.462,0.584-0.922,1.168-1.391,1.746c-0.901,1.111-1.821,2.206-2.765,3.281c-0.931,1.061-1.882,2.104-2.863,3.119   c-0.987,1.022-2.011,2.007-3.071,2.952c-0.521,0.465-1.051,0.92-1.589,1.365c-0.305,0.252-0.612,0.502-0.923,0.746   c0.498-0.391,0.069-0.051-0.189,0.135c-2.335,1.68-4.744,3.227-7.305,4.544c-0.581,0.299-1.168,0.586-1.76,0.863   c-0.276,0.129-1.826,0.796-0.853,0.397c-1.348,0.552-2.721,1.045-4.113,1.477c-1.197,0.371-2.408,0.697-3.631,0.975   c-0.604,0.137-1.211,0.262-1.82,0.375c-0.313,0.058-2.625,0.389-1.263,0.228c-2.477,0.293-4.969,0.407-7.461,0.29   c-0.591-0.028-1.182-0.066-1.771-0.119c-0.301-0.027-2.366-0.323-0.905-0.084c-1.233-0.202-2.457-0.429-3.67-0.73   c-1.121-0.278-2.229-0.606-3.32-0.985c-0.544-0.189-1.078-0.397-1.616-0.602c1.257,0.479-0.49-0.226-0.817-0.383   c-1.107-0.531-2.186-1.12-3.232-1.762c-0.489-0.3-0.971-0.612-1.445-0.936c-0.356-0.244-1.71-1.279-0.772-0.527   c-1.973-1.582-3.716-3.358-5.345-5.287c-0.149-0.177-0.665-0.905-0.008-0.004c-0.152-0.209-0.31-0.416-0.456-0.63   c-0.344-0.505-0.694-1.003-1.022-1.519c-0.67-1.053-1.287-2.142-1.848-3.257c-0.33-0.654-0.645-1.318-0.934-1.991   c0.408,0.95-0.232-0.644-0.333-0.921c-0.5-1.374-0.918-2.773-1.287-4.187c-1.949-7.466-13.527-4.3-11.571,3.19   c2.955,11.32,9.918,21.41,20.236,27.174c9.973,5.572,21.722,6.718,32.81,4.459c11.586-2.361,22.271-8.818,30.346-17.369   c4.378-4.636,8.29-9.731,11.962-14.936c8.919-12.643,16.37-26.312,23.291-40.128c8.783-17.534,16.635-35.527,24.082-53.663   c8.32-20.264,16.053-40.767,23.431-61.392c7.754-21.674,15.107-43.49,22.172-65.397c7.003-21.714,13.72-43.52,20.192-65.398   c6.036-20.402,11.859-40.868,17.456-61.395c4.787-17.557,9.415-35.159,13.802-52.82c3.285-13.226,6.461-26.484,9.289-39.816   c0.517-2.436,1.02-4.876,1.503-7.319c0.628-3.176-0.905-6.478-4.191-7.381C243.652-0.617,239.853,1.189,239.222,4.384   L239.222,4.384z" style="fill:#ffb400;"/>
</g>
</svg></g><!--ITEM: Illustration component 6--><g transform="translate(922.2222222222222 161.11111111111111) rotate(0.0 120.83333333333337 244.44444444444446)  scale(0.9132824575798568 0.9117069750243655)"><svg width="264.61328" height="536.23467" viewBox="0.0 0.0 264.61328 536.23467"><g>
    <ellipse cx="67.15821" cy="503.49162" rx="31.38688" ry="36.51228" transform="translate(-402.47755 309.95534) rotate(-60.00596)" style="         fill: #f04e23;       "/>
    <path d="M51.19189,421.67139a35.008,35.008,0,0,1-32.38476-21.70118c-18.689-45.46191-15.602-83.81494,9.1748-113.99316,19.67725-23.96728,49.6333-38.11914,78.603-51.8042,54.57813-25.78271,88.02832-44.24414,88.02832-96.62549,0-11.38476-5.50976-29.748-17.81836-45.10888C168.59277,82.20215,154.772,70,135.50977,70,96.93848,70,70,94.46,70,129.48193a35,35,0,0,1-70,0C0,93.044,14.15674,59.7998,39.86182,35.87256,64.71338,12.73975,98.68213,0,135.50977,0c36.70214,0,70.76416,17.2832,95.91162,48.6665,20.78369,25.9375,33.19189,59.16407,33.19189,88.88086,0,44.04932-15.4331,80.898-45.87109,109.52246-24.65088,23.18262-55.25537,37.64014-82.25733,50.39551C113.49512,308.32617,91.78076,318.584,82.084,330.395c-3.50293,4.2666-10.791,13.14355,1.46631,42.96a35.02006,35.02006,0,0,1-32.3584,48.31641Z" style="         fill: #f04e23;       "/>
  </g>
</svg></g><!--ITEM: Illustration component 7--><g transform="translate(-761.1111111111111 122.22222222222221) rotate(0.0 1212.5 1048.611111111111) translate(1716.2834069902458 396.9254784896016) scale(2.531188416446775 2.527848858878803)"><svg width="279.8421993127148" height="672.5085615894039" viewBox="678.0543857732746 157.02104858660462 279.8421993127148 672.5085615894039"><g>
	<path style="fill:#F04E23;" d="M109.468,783.53c-11.67,0-21.131-9.46-21.131-21.131V21.131C88.337,9.46,97.798,0,109.468,0   s21.131,9.46,21.131,21.131v741.269C130.599,774.07,121.138,783.53,109.468,783.53z"/>
	<path style="fill:#F04E23;" d="M848.58,783.53c-11.67,0-21.131-9.46-21.131-21.131V21.131C827.45,9.46,836.91,0,848.58,0   s21.131,9.46,21.131,21.131v741.269C869.711,774.07,860.251,783.53,848.58,783.53z"/>
	<path style="fill:#F04E23;" d="M848.58,108.672H109.468c-9.336,0-16.905-7.568-16.905-16.905s7.568-16.905,16.905-16.905H848.58   c9.336,0,16.905,7.568,16.905,16.905S857.917,108.672,848.58,108.672z"/>
	<path style="fill:#F04E23;" d="M194.631,785.221H24.306c-9.336,0-16.905-7.568-16.905-16.905c0-9.336,7.568-16.905,16.905-16.905   h170.325c9.336,0,16.905,7.568,16.905,16.905C211.535,777.652,203.967,785.221,194.631,785.221z"/>
	<path style="fill:#F04E23;" d="M933.742,785.221H763.418c-9.336,0-16.905-7.568-16.905-16.905c0-9.336,7.568-16.905,16.905-16.905   h170.325c9.336,0,16.905,7.568,16.905,16.905C950.647,777.652,943.079,785.221,933.742,785.221z"/>
	<circle style="fill:#04294F;" cx="24.306" cy="805.341" r="24.306"/>
	<circle style="fill:#04294F;" cx="194.631" cy="805.341" r="24.306"/>
	<circle style="fill:#04294F;" cx="763.418" cy="805.341" r="24.306"/>
	<circle style="fill:#04294F;" cx="933.743" cy="805.341" r="24.306"/>
</g>
</svg></g><!--ITEM: Illustration component 8--><g transform="translate(1108.3333333333333 397.22222222222223) rotate(0.0 1215.2777777777778 1051.388888888889) translate(0.0 0.0) scale(2.536987244434053 2.5345451472466936)"><svg width="337.232896" height="67.94995244385734" viewBox="0.0 0.0 337.232896 67.94995244385734"><g>
	<path style="fill:#F04E23;" d="M109.468,783.53c-11.67,0-21.131-9.46-21.131-21.131V21.131C88.337,9.46,97.798,0,109.468,0   s21.131,9.46,21.131,21.131v741.269C130.599,774.07,121.138,783.53,109.468,783.53z"/>
	<path style="fill:#F04E23;" d="M848.58,783.53c-11.67,0-21.131-9.46-21.131-21.131V21.131C827.45,9.46,836.91,0,848.58,0   s21.131,9.46,21.131,21.131v741.269C869.711,774.07,860.251,783.53,848.58,783.53z"/>
	<path style="fill:#F04E23;" d="M848.58,108.672H109.468c-9.336,0-16.905-7.568-16.905-16.905s7.568-16.905,16.905-16.905H848.58   c9.336,0,16.905,7.568,16.905,16.905S857.917,108.672,848.58,108.672z"/>
	<path style="fill:#F04E23;" d="M194.631,785.221H24.306c-9.336,0-16.905-7.568-16.905-16.905c0-9.336,7.568-16.905,16.905-16.905   h170.325c9.336,0,16.905,7.568,16.905,16.905C211.535,777.652,203.967,785.221,194.631,785.221z"/>
	<path style="fill:#F04E23;" d="M933.742,785.221H763.418c-9.336,0-16.905-7.568-16.905-16.905c0-9.336,7.568-16.905,16.905-16.905   h170.325c9.336,0,16.905,7.568,16.905,16.905C950.647,777.652,943.079,785.221,933.742,785.221z"/>
	<circle style="fill:#04294F;" cx="24.306" cy="805.341" r="24.306"/>
	<circle style="fill:#04294F;" cx="194.631" cy="805.341" r="24.306"/>
	<circle style="fill:#04294F;" cx="763.418" cy="805.341" r="24.306"/>
	<circle style="fill:#04294F;" cx="933.743" cy="805.341" r="24.306"/>
</g>
</svg></g><!--ITEM: Illustration component 9--><g transform="translate(1758.3333333333333 722.2222222222222) rotate(0.0 277.7777777777777 175.0) translate(0.0 0.0) scale(5.993952653216548 5.949260625889414)"><svg width="92.22257995" height="58.83084" viewBox="0.0 0.0 92.22257995 58.83084"><title>hanger2</title>
  <g id="&#1057;&#1083;&#1086;&#1081;_2-i9" data-name="&#1057;&#1083;&#1086;&#1081; 2">
    <g id="Capa_1-i9" data-name="Capa 1">
      <g>
        <path d="M90.84556,49.1565c-6.8-5.3-13.8-10.4-20.9-15-2.3-1.5-5.4-4-8.7-6,3.6-4.8,6-10.1,5-16.3-1.4-7.9-8.7-13.9-16.7-11.2-5.6,2-3.7,11,2,9.1,4.6-1.5,6.4,2.9,5.6,6.8-.6,3.1-2.6,5.7-4.8,8.2a2.15322,2.15322,0,0,0-1.1.2c-3.7.8-7.9,4-11.3,5.7l-12.1,6.2c-8.5,4.3-16.9,8.8-25.4,13.2-5.3,2.8-1.1,11,4.2,8.2,15-7.7,29.9-15.5,44.9-23.4a3.70851,3.70851,0,0,0,2.3.3,287.14538,287.14538,0,0,1,31.9,21.5C90.54556,60.55649,95.44555,52.6565,90.84556,49.1565Z" style="         fill: #ffb400;       "/>
        <rect x="2.44556" y="50.05649" width="88.40327" height="6.58355" style="         fill: #ffb400;       "/>
      </g>
    </g>
  </g>
</svg></g><!--ITEM: Illustration component 10--><g transform="translate(1472.2222222222222 311.1111111111111) rotate(19.6291816874954 591.6666666666667 590.2777777777777) translate(646.9648562300315 349.8402555910553) scale(2.7799181842670726 2.778771597266682)"><svg width="30.9761314553991" height="34.987482352941186" viewBox="232.72802051928167 125.89744905093065 30.9761314553991 34.987482352941186"><title>bubble</title><g id="Layer_2-i10" data-name="Layer 2"><g id="bubble-i10"><path d="M220.314,349.848a31.076,31.076,0,0,0-4,4.1c-1.2,1.5-2.3,2.9-3.5,4.4-1.6,2.2-3.2,4.6-4.6,6.9-2.3-1-4.6-2.1-6.9-3.1-1.6-.6-3.3-1.3-4.9-1.8s-3.4-1.1-5.1-1.5a.921.921,0,0,0-1.1.7.959.959,0,0,0,.3,1c1.3,1.1,2.8,2.2,4.3,3.3s2.9,2,4.4,3c3,1.8,6,3.7,9.1,5.3a3.008,3.008,0,0,0,3.9-1l.1-.1c1.9-3.1,3.8-6.3,5.4-9.6.8-1.6,1.5-3.4,2.2-5.1a48.83,48.83,0,0,0,1.8-5.4.663.663,0,0,0-.2-.7C221.114,349.548,220.614,349.548,220.314,349.848Z" fill="#00acdc"/><path d="M424.114,100.048h0c-3.6-1.7-7-3.4-10.7-4.8-1.8-.7-3.7-1.3-5.5-1.8a37.491,37.491,0,0,0-5.8-1.3.779.779,0,0,0-.9.6.844.844,0,0,0,.2.7,58.989,58.989,0,0,0,4.7,3.7c1.6,1.2,3.3,2.1,4.9,3.2,2.2,1.3,4.5,2.5,6.8,3.7-1.6,2-3.3,4.1-4.7,6.1-1.1,1.6-2.2,3.2-3.4,4.8a51.851,51.851,0,0,0-3.1,5,.984.984,0,0,0,.4,1.3.92.92,0,0,0,1-.1c1.5-1.2,3.1-2.4,4.6-3.8,1.5-1.3,2.9-2.6,4.3-4,2.8-2.8,5.5-5.5,8-8.5a2.092,2.092,0,0,0,.4-.6,3.1,3.1,0,0,0-1.2-4.2Z" fill="#00acdc"/><path d="M213.114,19.348c1.3-1,2.6-2.2,3.9-3.4q1.8-1.65,3.6-3.6c1.7-1.8,3.4-3.7,5-5.5,2.6,1.4,5.3,2.9,8,4.1,1.7.8,3.6,1.5,5.3,2.1a51.834,51.834,0,0,0,5.6,1.7.844.844,0,0,0,.7-.2.785.785,0,0,0,0-1.1c-1.4-1.4-2.9-2.6-4.4-3.9a50.873,50.873,0,0,0-4.7-3.4,98.426,98.426,0,0,0-9.9-5.8h-.1a3.072,3.072,0,0,0-3.8.8c-2,2.6-4,5.4-5.8,8.3-.9,1.4-1.8,2.9-2.6,4.3s-1.6,3-2.3,4.5a.883.883,0,0,0,.5,1.2.769.769,0,0,0,1-.1Z" fill="#00acdc"/><path d="M23.314,265.248a.785.785,0,0,0,0-1.1c-1.4-1.3-2.9-2.5-4.4-3.7-1.5-1.1-3.1-2.1-4.7-3.2-1.6-1-3.2-1.9-4.8-2.9-.4-.2-.8-.5-1.3-.7,1.8-1.9,3.8-3.9,5.5-5.9,1.3-1.5,2.6-3.2,4-4.7,1.3-1.5,2.5-3.3,3.7-5a.908.908,0,0,0,0-1,.952.952,0,0,0-1.3-.3,58.8,58.8,0,0,0-5.1,3.6c-1.6,1.2-3.3,2.5-4.8,3.8-3.2,2.5-6.2,5.3-9.2,8.1a5.547,5.547,0,0,0-.6.8,3.2,3.2,0,0,0,1.2,4.1h0c1.6.9,3.3,1.7,5,2.5s3.4,1.5,5.1,2.2,3.5,1.3,5.3,1.9a56.178,56.178,0,0,0,5.5,1.5A.631.631,0,0,0,23.314,265.248Z" fill="#00acdc"/><path d="M327.214,203.448l79.9-98.6-177.6-88.3-211.8,234.6,66.2,36.2-3.9,54.7-43,8.4-6.5,1.2-.6,4.9-7.9,67.5,4,.8,17.2-58.8,51.4,3.5,6.2.4,7.1-10.6,25.9-38.5-1.3-.7c-2.5-1.3-5-2.9-7.4-4.4a69.807,69.807,0,0,1-7.1-5,1.88,1.88,0,0,1-.3-2.6,1.752,1.752,0,0,1,2-.6,56.05,56.05,0,0,1,8,3.3c2.5,1.2,5.2,2.5,7.6,3.9s5,2.9,7.4,4.4c.7.5,1.5,1,2.2,1.5l60.3,33,70.5-87.1h0Z" fill="#00acdc"/></g></g></svg></g><!--ITEM: Illustration component 11--><g transform="translate(936.1111111111111 583.3333333333333) rotate(14.951667079979167 883.3333333333334 765.2777777777777) translate(258.1976700205873 0.0) scale(1.8440272999543517 1.8448274453539342)"><svg width="665.8132327044026" height="706.1786624319419" viewBox="140.01835549125488 0.0 665.8132327044026 706.1786624319419"><g>
	<path style="fill:#F04E23;" d="M109.468,783.53c-11.67,0-21.131-9.46-21.131-21.131V21.131C88.337,9.46,97.798,0,109.468,0   s21.131,9.46,21.131,21.131v741.269C130.599,774.07,121.138,783.53,109.468,783.53z"/>
	<path style="fill:#F04E23;" d="M848.58,783.53c-11.67,0-21.131-9.46-21.131-21.131V21.131C827.45,9.46,836.91,0,848.58,0   s21.131,9.46,21.131,21.131v741.269C869.711,774.07,860.251,783.53,848.58,783.53z"/>
	<path style="fill:#F04E23;" d="M848.58,108.672H109.468c-9.336,0-16.905-7.568-16.905-16.905s7.568-16.905,16.905-16.905H848.58   c9.336,0,16.905,7.568,16.905,16.905S857.917,108.672,848.58,108.672z"/>
	<path style="fill:#F04E23;" d="M194.631,785.221H24.306c-9.336,0-16.905-7.568-16.905-16.905c0-9.336,7.568-16.905,16.905-16.905   h170.325c9.336,0,16.905,7.568,16.905,16.905C211.535,777.652,203.967,785.221,194.631,785.221z"/>
	<path style="fill:#F04E23;" d="M933.742,785.221H763.418c-9.336,0-16.905-7.568-16.905-16.905c0-9.336,7.568-16.905,16.905-16.905   h170.325c9.336,0,16.905,7.568,16.905,16.905C950.647,777.652,943.079,785.221,933.742,785.221z"/>
	<circle style="fill:#04294F;" cx="24.306" cy="805.341" r="24.306"/>
	<circle style="fill:#04294F;" cx="194.631" cy="805.341" r="24.306"/>
	<circle style="fill:#04294F;" cx="763.418" cy="805.341" r="24.306"/>
	<circle style="fill:#04294F;" cx="933.743" cy="805.341" r="24.306"/>
</g>
</svg></g><!--ITEM: Illustration component 12--><g transform="translate(3161.111111111111 658.3333333333333) rotate(-173.97251609927395 -624.9999999999999 1219.4444444444443) translate(-0.0 1793.7348398508782) scale(-4.981449083612626 4.99468333593876)"><svg width="19.840205025434486" height="100.10644646924828" viewBox="0.0 359.12884145111525 19.840205025434486 100.10644646924828"><g>
	<path d="M239.222,4.384c-2.353,11.896-5.104,23.715-7.944,35.503c-3.931,16.315-8.108,32.571-12.427,48.788   c-5.201,19.528-10.62,38.997-16.227,58.412c-6.134,21.235-12.496,42.404-19.109,63.495c-6.828,21.775-13.921,43.468-21.364,65.042   c-7.205,20.883-14.731,41.659-22.755,62.242c-3.73,9.569-7.577,19.091-11.554,28.56c-0.443,1.054-0.072,0.17,0.015-0.035   c-0.131,0.31-0.262,0.619-0.393,0.929c-0.229,0.54-0.458,1.08-0.688,1.619c-0.489,1.149-0.981,2.296-1.475,3.443   c-0.974,2.261-1.958,4.518-2.951,6.771c-1.896,4.299-3.828,8.583-5.803,12.847c-7.005,15.123-14.493,30.08-23.163,44.325   c-3.501,5.751-7.204,11.389-11.263,16.764c-0.216,0.287-0.439,0.569-0.653,0.858c-0.096,0.129,0.862-1.097,0.101-0.133   c-0.462,0.584-0.922,1.168-1.391,1.746c-0.901,1.111-1.821,2.206-2.765,3.281c-0.931,1.061-1.882,2.104-2.863,3.119   c-0.987,1.022-2.011,2.007-3.071,2.952c-0.521,0.465-1.051,0.92-1.589,1.365c-0.305,0.252-0.612,0.502-0.923,0.746   c0.498-0.391,0.069-0.051-0.189,0.135c-2.335,1.68-4.744,3.227-7.305,4.544c-0.581,0.299-1.168,0.586-1.76,0.863   c-0.276,0.129-1.826,0.796-0.853,0.397c-1.348,0.552-2.721,1.045-4.113,1.477c-1.197,0.371-2.408,0.697-3.631,0.975   c-0.604,0.137-1.211,0.262-1.82,0.375c-0.313,0.058-2.625,0.389-1.263,0.228c-2.477,0.293-4.969,0.407-7.461,0.29   c-0.591-0.028-1.182-0.066-1.771-0.119c-0.301-0.027-2.366-0.323-0.905-0.084c-1.233-0.202-2.457-0.429-3.67-0.73   c-1.121-0.278-2.229-0.606-3.32-0.985c-0.544-0.189-1.078-0.397-1.616-0.602c1.257,0.479-0.49-0.226-0.817-0.383   c-1.107-0.531-2.186-1.12-3.232-1.762c-0.489-0.3-0.971-0.612-1.445-0.936c-0.356-0.244-1.71-1.279-0.772-0.527   c-1.973-1.582-3.716-3.358-5.345-5.287c-0.149-0.177-0.665-0.905-0.008-0.004c-0.152-0.209-0.31-0.416-0.456-0.63   c-0.344-0.505-0.694-1.003-1.022-1.519c-0.67-1.053-1.287-2.142-1.848-3.257c-0.33-0.654-0.645-1.318-0.934-1.991   c0.408,0.95-0.232-0.644-0.333-0.921c-0.5-1.374-0.918-2.773-1.287-4.187c-1.949-7.466-13.527-4.3-11.571,3.19   c2.955,11.32,9.918,21.41,20.236,27.174c9.973,5.572,21.722,6.718,32.81,4.459c11.586-2.361,22.271-8.818,30.346-17.369   c4.378-4.636,8.29-9.731,11.962-14.936c8.919-12.643,16.37-26.312,23.291-40.128c8.783-17.534,16.635-35.527,24.082-53.663   c8.32-20.264,16.053-40.767,23.431-61.392c7.754-21.674,15.107-43.49,22.172-65.397c7.003-21.714,13.72-43.52,20.192-65.398   c6.036-20.402,11.859-40.868,17.456-61.395c4.787-17.557,9.415-35.159,13.802-52.82c3.285-13.226,6.461-26.484,9.289-39.816   c0.517-2.436,1.02-4.876,1.503-7.319c0.628-3.176-0.905-6.478-4.191-7.381C243.652-0.617,239.853,1.189,239.222,4.384   L239.222,4.384z" style="fill:#ffb400;"/>
</g>
</svg></g><!--ITEM: Illustration component 13--><g transform="translate(183.33333333333331 400.0) rotate(0.0 388.8888888888889 1225.0)  scale(3.050372101819678 3.056768558951965)"><svg width="254.978" height="801.5" viewBox="0.0 0.0 254.978 801.5"><title>naked_man</title><g id="Layer_2-i13" data-name="Layer 2"><g id="naked_man-i13"><path d="M187.232,254.3h0l-.175-.175-2.969-1.921c-1.746-1.222-3.667-2.445-5.414-3.493-.349-.175-.7-.524-1.048-.7-6.288-4.017-8.907-8.558-9.082-13.1a16.151,16.151,0,0,1,.7-5.065,7.285,7.285,0,0,1,.7-1.747,37.3,37.3,0,0,1,2.969-5.239c.35-.524.874-1.223,1.223-1.747.873-1.222,1.921-2.27,2.969-3.493,1.747-1.747,3.493-3.493,5.24-5.065,1.921-1.572,3.842-3.144,5.938-4.716,1.4-1.048,2.62-2.1,4.017-2.969,1.4-1.048,2.8-1.921,4.017-2.794,2.8-1.747,5.415-3.494,7.86-5.066.349-.174.7-.524,1.222-.873l.35-.349.7-.7q.263-.261.524-.524l.524-.524.7-.873.349-.524.7-1.048.349-.524.7-1.222.174-.35c.175-.524.524-.873.7-1.4l.175-.175a7.279,7.279,0,0,0,.7-1.746h0c2.62-5.24,6.637-32.836,6.987-37.726h0c0-1.048.174-2.1.174-3.144a125.9,125.9,0,0,0-.7-25.675v-.349c0-8.209-8.384-41.219-10.13-46.109h0c-10.829-23.928-27.072-41.569-52.921-41.219h-2.62l-5.24.524C44.363,47.855,69.339,133.961,69.339,133.961s28.12,75.976-7.336,96.76l-2.1.873c-1.572.7-2.969,1.4-4.541,2.271l-.524.349h0a71.036,71.036,0,0,0-13.8,10.305A97.659,97.659,0,0,0,24.1,266.351a134.806,134.806,0,0,0-10.654,24.1A205.42,205.42,0,0,0,6.637,315.6c-.349,2.1-.873,4.192-1.223,6.288s-.7,4.192-1.048,6.288c-.7,4.191-1.222,8.383-1.746,12.75C1.747,349.313,1.048,357.7.7,365.906q-.262,6.026-.524,12.051c0,1.921,0,4.017-.175,5.938v11.528c0,1.921,0,3.667.175,5.589,0,3.667.174,7.335.349,10.654.175,6.986.7,13.623,1.048,19.561.349,6.113.873,11.528,1.4,16.418s.873,9.082,1.223,12.575c.873,6.987,1.222,11,1.222,11a23.878,23.878,0,0,0,1.223,5.065c.7,10.305,2.969,25.849,8.733,36.154a8.68,8.68,0,0,0,11.7,3.144,9.207,9.207,0,0,0,2.445-2.1c.349.873.873,1.746,1.223,2.445a8.68,8.68,0,0,0,11.7,3.144,5.479,5.479,0,0,0,1.921-1.572A53.952,53.952,0,0,0,54.842,532c1.572,13.623,8.384,82.788-2.62,205.921-1.572,17.291,11.353,25.849,28.644,27.421.873,0,1.921.175,2.8.175a63.623,63.623,0,0,0,12.924-1.4h.175a29.08,29.08,0,0,0,5.065-1.746c17.815-6.288,30.74-12.4,39.647-17.99h0c-.175,2.271-.349,4.366-.524,6.637v1.048q-.263,2.882-.524,5.764a6.537,6.537,0,0,1-.175,1.746c-.174,1.747-.349,3.668-.524,5.414l-.174,1.747c-.175,2.445-.349,4.716-.7,7.161a35.859,35.859,0,0,0,0,6.113,21.61,21.61,0,0,0,11.528,16.592,10.629,10.629,0,0,0,2.445,1.223,33.479,33.479,0,0,0,8.383,2.62c2.1.349,4.192.7,6.288.873.873,0,1.921.175,2.794.175h3.494a60.686,60.686,0,0,0,9.606-1.4h.174a28.941,28.941,0,0,0,5.065-1.746c55.367-19.736,64.1-37.2,48.9-45.935-17.465-9.955-33.185,2.969-31.438-32.835h0c.873-19.562-.175-150.38-.524-161.383a8.654,8.654,0,0,0,4.891-2.794l-.175.523a8.568,8.568,0,1,0,14.846,8.559,28.519,28.519,0,0,0,1.921-4.017,8.538,8.538,0,0,0,11.353,4.017A7.88,7.88,0,0,0,242.074,561c5.065-9.083,7.511-22.182,8.384-32.137.175-.524.349-1.223.524-1.747a3.837,3.837,0,0,0,.175-1.4c0-.524.174-.524.174-.7h0s.7-4.017,1.572-10.654a28.673,28.673,0,0,0,.873-5.589h0C253.776,503.186,269.5,274.561,187.232,254.3ZM53.1,445.724v-1.746c0-1.747-.175-3.843-.175-5.764l.349,7.336ZM146.13,648.268c0,1.921-.117,11.411-.117,13.507,0,0-1.222,48.729-1.4,51.174v.175c-14.671-4.541-26.024.524-24.627-30.216,0-1.746.961-45.061.961-46.808-.175-6.812.786-61.828.786-62.527-.349-13.623,21.657,4.541,22.705,15.2q.525,8.646,1.048,20.435C145.489,610.251,146.13,636.391,146.13,648.268Z" fill="#ffb400"/><path d="M117.893,554.71a51.966,51.966,0,0,1-14.147-20.435,74.966,74.966,0,0,1-3.493-12.226,76.076,76.076,0,0,1-.873-12.575,62.478,62.478,0,0,1,5.589-24.452,52.546,52.546,0,0,1,15.37-19.562,2.425,2.425,0,0,1,3.143.35,2.38,2.38,0,0,1,0,2.62h0a74.876,74.876,0,0,0-10.3,19.561,69.158,69.158,0,0,0-3.493,21.483,55.505,55.505,0,0,0,.7,10.829,104.527,104.527,0,0,0,2.1,10.654,76.564,76.564,0,0,0,9.257,19.911h0a2.6,2.6,0,0,1-.873,3.667,2.018,2.018,0,0,1-2.97.175Z" fill="#f04e23"/><path d="M47.332,305.475a207.41,207.41,0,0,1,5.938,30.739c.7,5.065,1.223,10.305,1.747,15.545s.873,10.479,1.223,15.544c.524,10.48.873,20.785.7,31.264a312.568,312.568,0,0,1-1.921,31.264,2.174,2.174,0,0,1-2.445,1.921,2.223,2.223,0,0,1-1.921-1.921h0c-.7-5.065-1.048-10.305-1.4-15.545s-.7-10.305-1.048-15.37L46.109,368l-4.017-61.479h0a2.581,2.581,0,0,1,2.446-2.8,2.7,2.7,0,0,1,2.794,1.747Z" fill="#f04e23"/><path d="M100.952,205.047c-16.069-4.541-24.1-2.62-39.473-50.3S45.236,54.493,86.805,38.25C136.756,18.863,126.626,2.969,163.479,0c0,0-7.51,11.353-5.938,18.339,0,0,19.561-13.623,59.208-11.353,0,0-2.969,13.973-17.116,30.041,0,0,2.445-2.27,18.513.874,0,0-2.619,19.037-27.595,28.119s-26.723,14.147-16.418,60.257c0,0-3.493,3.493-11.353,5.414,0,0-3.842-15.893-9.257-20.784-5.239-4.89-22.356,1.921-12.4,25.849C151.078,160.859,138.678,215.7,100.952,205.047Z" fill="#10294c"/><path d="M149.681,121.561a8.408,8.408,0,0,1,3.493,2.62,8.265,8.265,0,0,1,1.747,3.493,9.608,9.608,0,0,1,.349,3.843,11.043,11.043,0,0,1-1.4,4.017,2.843,2.843,0,0,1-4.017.7l-.175-.174a13.158,13.158,0,0,1-2.8-2.62,8.86,8.86,0,0,1-1.571-2.795,14.761,14.761,0,0,1-.7-2.969,6.737,6.737,0,0,1,.524-3.667l.349-.7a3.157,3.157,0,0,1,4.192-1.747Z" fill="#10294c"/><path d="M210.287,101.65c1.572,6.113,2.1,11.7-2.8,12.576s-6.986-3.494-8.558-9.781c-1.572-6.113-2.27-11.353,2.8-12.575S208.89,95.537,210.287,101.65Z" fill="#10294c"/><path d="M217.8,151.777a10.583,10.583,0,0,1-3.318,3.493,16.463,16.463,0,0,1-3.843,2.1,18.428,18.428,0,0,1-4.192,1.048,15.428,15.428,0,0,1-4.89-.35,2.893,2.893,0,0,1-1.921-3.493h0c0-.174.175-.349.175-.524a15.871,15.871,0,0,1,3.143-3.667,20.919,20.919,0,0,1,3.668-2.271,12.722,12.722,0,0,1,4.192-1.223,14.3,14.3,0,0,1,4.716.175,3.494,3.494,0,0,1,2.445,4.017A1.32,1.32,0,0,1,217.8,151.777Z" fill="#10294c"/><path d="M191.773,344.249a226.6,226.6,0,0,1,12.052,40.171c1.572,6.811,2.619,13.623,3.842,20.609l1.4,10.305q.525,5.239,1.048,10.479c.35,3.494.524,6.987.7,10.48s.524,6.986.524,10.479c0,6.987.349,13.973-.175,20.959a277.3,277.3,0,0,1-4.366,41.568,2.221,2.221,0,0,1-2.62,1.747,2.075,2.075,0,0,1-1.747-2.1h0c.175-13.8.524-27.421,0-41.044s-1.222-27.247-2.62-40.87c-.349-3.493-.7-6.812-1.047-10.305l-1.223-10.13c-.873-6.812-1.921-13.449-2.969-20.26-2.271-13.449-4.891-26.9-8.034-40v-.174a2.806,2.806,0,0,1,1.746-3.493,2.382,2.382,0,0,1,3.493,1.572Z" fill="#f04e23"/><path d="M193.52,555.234a9.985,9.985,0,0,1-3.319-10.305c.175-.524.35-.873.524-1.4l.524-1.223c.175-.523.524-1.222.7-1.746.524-1.223.873-2.445,1.4-3.668.874-2.62,1.747-5.065,2.445-7.859a50.583,50.583,0,0,1,2.8-8.209h0a1.556,1.556,0,0,1,1.921-.874,1.314,1.314,0,0,1,.873,1.223,37.993,37.993,0,0,1,.175,8.908,40.215,40.215,0,0,1-1.746,8.907,32.438,32.438,0,0,1-1.747,4.366,12.963,12.963,0,0,1-1.223,2.1l-.524.7-.349.524a7.059,7.059,0,0,0,0,5.938v.175a1.921,1.921,0,0,1-1.048,2.445.817.817,0,0,1-1.4,0Z" fill="#f04e23"/><path d="M231.42,553.662a70.734,70.734,0,0,1,.7-8.558c.349-2.8,1.048-5.589,1.572-8.209.7-2.794,1.4-5.414,2.1-8.034.873-2.62,1.746-5.414,2.794-8.034h0a1.758,1.758,0,0,1,1.922-.874h0a1.314,1.314,0,0,1,.873,1.223,36.552,36.552,0,0,1,0,8.733,69.338,69.338,0,0,1-1.223,8.383,43.933,43.933,0,0,1-2.27,8.209,39.378,39.378,0,0,1-3.319,7.86,1.618,1.618,0,0,1-2.445.524c-.349,0-.7-.524-.7-1.223Z" fill="#f04e23"/><path d="M216.051,547.025a31.773,31.773,0,0,1,.349-6.986c.175-2.271.7-4.541,1.048-6.637.524-2.27,1.048-4.366,1.746-6.462.7-2.271,1.572-4.367,2.446-6.463h0a1.616,1.616,0,0,1,2.1-.7,2.558,2.558,0,0,1,.874,1.048,32.3,32.3,0,0,1,.349,7.16,45.464,45.464,0,0,1-.873,6.812,41.164,41.164,0,0,1-1.747,6.637,42.316,42.316,0,0,1-2.794,6.462,1.923,1.923,0,0,1-2.62.524c-.524-.523-.873-.873-.873-1.4Z" fill="#f04e23"/><path d="M39.3,510a43.573,43.573,0,0,1-7.51-18.688,52.676,52.676,0,0,1,.349-20.26A45.684,45.684,0,0,1,40.7,452.361a40.894,40.894,0,0,1,15.719-12.575,2.305,2.305,0,0,1,2.969,1.048,2.161,2.161,0,0,1-.524,2.445h0a64.059,64.059,0,0,0-10.828,13.8,51.016,51.016,0,0,0-5.764,15.894,73.983,73.983,0,0,0,1.921,34.407v.175a2.649,2.649,0,0,1-1.921,3.318A3.58,3.58,0,0,1,39.3,510Z" fill="#f04e23"/></g></g></svg></g><!--ITEM: Illustration component 14--><g transform="translate(686.1111111111111 661.1111111111111) rotate(-103.09444070619651 90.27777777777777 48.611111111111086)  scale(0.6146237330240925 0.6147352388018069)"><svg width="293.766" height="158.153" viewBox="0.0 0.0 293.766 158.153"><title>semicircle_2 copy 3</title><g id="Layer_2-i14" data-name="Layer 2"><g id="semicircle_2_copy_3-i14" data-name="semicircle_2 copy 3"><path d="M3.358,147.048c-15.544-12.584,21-150,149-147,126.065,2.955,152,130,138,145S24.358,164.048,3.358,147.048Z" fill="#ffb400"/></g></g></svg></g><!--ITEM: Illustration component 15--><g transform="translate(650.0 711.1111111111111) rotate(0.0 86.11111111111109 66.66666666666669) translate(116.69563064212586 0.0) scale(2.4744572158365257 2.5015634771732342)"><svg width="22.439907719853117" height="26.649999999999984" viewBox="47.16009228014688 0.0 22.439907719853117 26.649999999999984"><title>face_happy_1</title><g id="Layer_2-i15" data-name="Layer 2"><g id="face_happy_1-i15"><ellipse cx="7.55" cy="16.363" rx="3" ry="5" fill="#10294c"/><ellipse cx="64.05" cy="15.863" rx="3.5" ry="5.5" fill="#10294c"/><path d="M35.2,53.3c11.7,0,21.1-10.4,21.1-21.1H14C14.1,43,23.6,53.3,35.2,53.3Z" fill="#10294c"/><path d="M6.7,0C.6,0,0,5.7,0,12.8S.1,25.6,6.7,25.6s6.7-5.7,6.7-12.8S12.8,0,6.7,0ZM9.8,18a4.532,4.532,0,0,1-1.1,1.9,1.4,1.4,0,0,1-1.9.2l-.2-.2A7.24,7.24,0,0,1,5.5,18a6.279,6.279,0,0,1-.3-1.9,6.154,6.154,0,0,1,.2-1.9,4.351,4.351,0,0,1,1-1.9A1.716,1.716,0,0,1,8.7,12h0l.2.2a4.981,4.981,0,0,1,1,1.9,6.154,6.154,0,0,1,.2,1.9A6.929,6.929,0,0,1,9.8,18Z" fill="#10294c"/><path d="M56.2,12.8c0,7.1.1,12.8,6.7,12.8s6.7-5.7,6.7-12.8S69,0,62.9,0,56.2,5.7,56.2,12.8Zm5.5,1.3a4.351,4.351,0,0,1,1-1.9,1.716,1.716,0,0,1,2.3-.3h0l.2.2a4.981,4.981,0,0,1,1,1.9,6.154,6.154,0,0,1,.2,1.9,5.822,5.822,0,0,1-.3,1.9A4.532,4.532,0,0,1,65,19.7a1.4,1.4,0,0,1-1.9.2c-.1,0-.1-.1-.2-.2a7.24,7.24,0,0,1-1.1-1.9,6.279,6.279,0,0,1-.3-1.9A3.851,3.851,0,0,1,61.7,14.1Z" fill="#10294c"/></g></g></svg></g><!--ITEM: Illustration component 16--><g transform="translate(1775.0 1044.4444444444443) rotate(159.6458891571465 150.0 284.7222222222223) translate(0.0 177.9537400579089) scale(1.3388852441457242 1.3368464353413683)"><svg width="224.067" height="292.84642875721715" viewBox="0.0 133.1145712427829 224.067 292.84642875721715"><g>
	<path d="M10.225,424.252c12.045-10.125,23.076-21.41,33.318-33.344c11.269-13.129,21.651-27.029,31.346-41.354   c10.02-14.805,19.311-30.096,28.063-45.681c8.976-15.983,17.386-32.282,25.364-48.785c7.939-16.422,15.45-33.05,22.626-49.819   c7.045-16.464,13.793-33.053,20.271-49.748c5.885-15.164,11.555-30.412,17.059-45.718c4.848-13.481,9.565-27.008,14.204-40.563   c3.799-11.102,7.539-22.224,11.309-33.337c2.726-8.035,5.439-16.079,8.374-24.041c0.525-1.423,1.059-2.843,1.608-4.257   c1.173-3.021-1.292-6.584-4.191-7.381c-3.394-0.932-6.203,1.158-7.381,4.191c-2.729,7.027-5.161,14.171-7.601,21.303   c-3.534,10.331-7.003,20.684-10.516,31.022c-4.415,12.995-8.885,25.971-13.466,38.909c-5.256,14.846-10.655,29.641-16.244,44.365   c-6.104,16.08-12.432,32.076-19.043,47.955c-0.405,0.973-0.811,1.946-1.219,2.918c-0.204,0.487-0.408,0.974-0.613,1.461   c-0.102,0.244-0.205,0.487-0.307,0.731c-0.055,0.132-0.613,1.454-0.314,0.746c0.222-0.524-0.326,0.769-0.42,0.991   c-0.207,0.488-0.414,0.977-0.622,1.465c-0.451,1.06-0.902,2.119-1.356,3.177c-1.753,4.094-3.526,8.179-5.32,12.255   c-3.66,8.315-7.409,16.59-11.258,24.819c-7.779,16.632-15.965,33.078-24.68,49.24c-8.519,15.799-17.544,31.333-27.248,46.436   c-4.703,7.32-9.566,14.537-14.618,21.621c-2.496,3.501-5.039,6.969-7.631,10.4c-0.604,0.799-1.21,1.596-1.82,2.391   c-0.259,0.338-0.915,1.189-0.28,0.368c-0.355,0.46-0.712,0.918-1.069,1.376c-1.269,1.627-2.551,3.244-3.845,4.851   c-10.01,12.436-20.768,24.307-32.522,35.123c-2.76,2.54-5.577,5.017-8.448,7.43c-2.482,2.086-2.152,6.333,0,8.485   C4.198,426.71,7.737,426.344,10.225,424.252L10.225,424.252z" style="fill:#ffffff;"/>
</g>
</svg></g><!--ITEM: Illustration component 17--><g transform="translate(1380.5555555555554 700.0) rotate(0.0 302.7777777777778 243.05555555555554)  scale(8.551836683456512 8.608764607843716)"><svg width="70.81" height="56.467" viewBox="0.0 0.0 70.81 56.467"><g>
	<path fill="#FFFFFF" d="M0,55.591c0.711-2.437,2.005-4.665,3.77-6.49c1.782-1.848,3.946-3.284,6.34-4.21   c2.383-0.909,4.901-1.413,7.45-1.49c2.507-0.082,5.015,0.109,7.48,0.57l-2.15,1.59c0.082-0.785,0.219-1.564,0.41-2.33   c0.17-0.74,0.38-1.47,0.62-2.19c0.482-1.446,1.102-2.842,1.85-4.17c1.51-2.731,3.649-5.062,6.24-6.8   c2.585-1.713,5.513-2.84,8.58-3.3c2.966-0.415,5.974-0.415,8.94,0l-2.16,1.78c0.078-0.714,0.202-1.422,0.37-2.12   c0.16-0.67,0.35-1.33,0.57-2c0.428-1.299,0.97-2.557,1.62-3.76c1.322-2.412,3.138-4.518,5.33-6.18c1.09-0.812,2.267-1.5,3.51-2.05   c1.211-0.545,2.479-0.955,3.78-1.22c2.546-0.561,5.166-0.713,7.76-0.45c0.276,0,0.5,0.224,0.5,0.5s-0.224,0.5-0.5,0.5   c-2.438,0.221-4.839,0.741-7.15,1.55c-2.212,0.781-4.25,1.987-6,3.55c-1.718,1.528-3.103,3.394-4.07,5.48   c-0.51,1.036-0.922,2.117-1.23,3.23c-0.16,0.55-0.29,1.11-0.4,1.67c-0.1,0.529-0.174,1.063-0.22,1.6l0,0   c-0.089,1.062-1.023,1.851-2.085,1.761c-0.005,0-0.01-0.001-0.015-0.001h-0.05c-2.607-0.32-5.246-0.272-7.84,0.14   c-2.496,0.367-4.883,1.267-7,2.64c-2.094,1.406-3.844,3.265-5.12,5.44c-0.658,1.1-1.208,2.263-1.64,3.47   c-0.454,1.18-0.789,2.403-1,3.65v0.13c-0.144,0.962-1.037,1.627-2,1.49h-0.13c-2.204-0.519-4.456-0.804-6.72-0.85   c-2.227-0.064-4.45,0.219-6.59,0.84c-2.127,0.634-4.099,1.703-5.79,3.14c-1.731,1.449-3.121,3.262-4.07,5.31v0.06   c-0.113,0.312-0.458,0.473-0.77,0.36c-0.312-0.113-0.473-0.458-0.36-0.77L0,55.591z"/>
	<path fill="#FFFFFF" d="M4.62,30.651c0.47-1.356,1.212-2.601,2.18-3.66c0.988-1.077,2.173-1.956,3.49-2.59   c1.34-0.64,2.782-1.039,4.26-1.18c1.445-0.124,2.899-0.067,4.33,0.17l-2.08,1.25c0.336-1.086,0.775-2.137,1.31-3.14   c0.515-0.988,1.107-1.934,1.77-2.83c1.351-1.836,3.05-3.389,5-4.57c1.989-1.179,4.203-1.925,6.5-2.19   c2.227-0.23,4.477-0.095,6.66,0.4l-2.23,1.33c0.234-0.654,0.518-1.289,0.85-1.9c0.31-0.58,0.64-1.15,1-1.7   c0.731-1.081,1.568-2.086,2.5-3c0.934-0.903,1.975-1.689,3.1-2.34c1.105-0.647,2.297-1.132,3.54-1.44   c0.265-0.07,0.537,0.086,0.61,0.35c0.057,0.192-0.01,0.399-0.17,0.52l0,0c-0.93,0.696-1.809,1.458-2.63,2.28   c-0.798,0.788-1.521,1.648-2.16,2.57c-0.651,0.898-1.226,1.847-1.72,2.84c-0.25,0.49-0.48,1-0.69,1.48   c-0.191,0.474-0.358,0.958-0.5,1.45c-0.279,0.932-1.212,1.508-2.17,1.34H37.3c-1.786-0.336-3.612-0.41-5.42-0.22   c-1.761,0.189-3.463,0.741-5,1.62c-1.535,0.917-2.891,2.107-4,3.51c-0.573,0.711-1.088,1.467-1.54,2.26   c-0.441,0.77-0.816,1.576-1.12,2.41l-0.07,0.17c-0.296,0.815-1.156,1.279-2,1.08c-2.237-0.625-4.603-0.625-6.84,0   c-1.114,0.344-2.159,0.878-3.09,1.58c-0.965,0.719-1.806,1.591-2.49,2.58v0.06c-0.197,0.274-0.578,0.336-0.851,0.139   c-0.211-0.152-0.303-0.42-0.229-0.669L4.62,30.651z"/>
	<path fill="#FFFFFF" d="M24.11,45.921c-1.51-3-2.78-6.15-4-9.28c-0.6-1.57-1.2-3.14-1.74-4.73c-0.54-1.59-1.1-3.16-1.62-4.76   c-1-3.18-2-6.39-2.79-9.65c-0.826-3.289-1.427-6.63-1.8-10c-0.015-0.281,0.201-0.521,0.482-0.536   c0.184-0.01,0.359,0.081,0.458,0.236c1.616,2.97,3.026,6.047,4.22,9.21c1.21,3.13,2.26,6.31,3.23,9.52   c0.49,1.6,0.95,3.22,1.39,4.83c0.44,1.61,0.87,3.24,1.28,4.87c0.79,3.26,1.53,6.54,2,9.89c0.057,0.332-0.165,0.648-0.497,0.705   c-0.268,0.046-0.534-0.09-0.653-0.335L24.11,45.921z"/>
	<path fill="#FFFFFF" d="M48.84,29.041c-2.4-2-4.6-4.18-6.76-6.39c-1.07-1.12-2.15-2.23-3.17-3.38s-2.07-2.28-3.08-3.45   c-2-2.33-4-4.72-5.8-7.21c-1.866-2.495-3.538-5.129-5-7.88c-0.122-0.254-0.015-0.559,0.239-0.68c0.165-0.079,0.36-0.064,0.511,0.04   c2.465,1.908,4.785,3.997,6.94,6.25c2.16,2.21,4.19,4.53,6.16,6.91c1,1.18,1.94,2.39,2.89,3.61s1.89,2.44,2.81,3.68   c1.82,2.49,3.6,5,5.19,7.72c0.172,0.29,0.077,0.664-0.213,0.836c-0.002,0.001-0.005,0.003-0.007,0.004   C49.327,29.242,49.037,29.217,48.84,29.041z"/>
</g>
</svg></g><!--ITEM: Illustration component 18--><g transform="translate(1722.2222222222222 1363.888888888889) rotate(-12.806028074087582 162.5 186.1111111111111)  scale(3.0738964711668513 3.065752614812435)"><svg width="105.729" height="121.413" viewBox="0.0 0.0 105.729 121.413"><title>spider</title><g id="Layer_2-i18" data-name="Layer 2"><g id="spider-i18"><path d="M92.282,93.93a20.89,20.89,0,0,0-2.416-8.856,12.521,12.521,0,0,0-1.672-2.333,11.808,11.808,0,0,0-1.755-1.693,29.932,29.932,0,0,0-3.426-2.436,46.171,46.171,0,0,0-6.978-3.53,60.814,60.814,0,0,0-10.219-3.138A19.436,19.436,0,0,0,67.55,70.21h0a59.606,59.606,0,0,0,17.96-3.138,39.9,39.9,0,0,0,8.733-4.129,22,22,0,0,0,2.064-1.507A27.389,27.389,0,0,0,98.6,59.1a14.273,14.273,0,0,0,1.569-2.374,24.877,24.877,0,0,0,1.2-2.332,53.546,53.546,0,0,0,4.232-18.25,77.488,77.488,0,0,0,0-9.042,50.359,50.359,0,0,0-1.3-9,1.28,1.28,0,0,0-2.457-.124h0c-2.064,5.657-3.468,11.272-4.934,16.784-.723,2.725-1.363,5.471-2.064,8.093a59.66,59.66,0,0,1-2.457,7.452c-.248.516-.454,1.135-.723,1.59L90.9,53.22a4.116,4.116,0,0,0-.682.888l-1.362,1.135a48.786,48.786,0,0,1-6.627,4.273C78.471,61.581,74.466,63.5,70.4,65.441a17.907,17.907,0,0,0,1.032-3.179,29.76,29.76,0,0,0,.516-6.916,53.02,53.02,0,0,0,9.373-6.069,33.458,33.458,0,0,0,5.966-6.193c.454-.64.846-1.384,1.259-2.065a21.231,21.231,0,0,0,1.094-3.014c.165-.929.227-1.8.31-2.7a23.971,23.971,0,0,0,0-2.457,42.994,42.994,0,0,0-4.975-15.958A49.233,49.233,0,0,0,75.5,4a1.259,1.259,0,0,0-1.074-.351A1.3,1.3,0,0,0,73.33,5.119h0A123.968,123.968,0,0,0,76.8,20.086c.619,2.4,1.341,4.748,1.9,7.019a43.312,43.312,0,0,1,1.342,6.523c0,.455.124.991.1,1.384s0,.764,0,1.094a1.4,1.4,0,0,1-.1.64,7.358,7.358,0,0,1-.64,1.28,40.915,40.915,0,0,1-3.8,5.532c-1.362,1.714-2.828,3.407-4.335,5.1-1.507-8.03-5.244-15.854-11.127-17.134s-12.573,4.253-17.3,10.921c-.661-2.189-1.28-4.336-1.8-6.462a37.549,37.549,0,0,1-1.136-6.606V27.931c0-.475.166-.393.166-.62a9.15,9.15,0,0,0,.412-1.011,13.158,13.158,0,0,1,.7-1.2,41.4,41.4,0,0,1,3.923-5.367c1.465-1.837,3.1-3.675,4.665-5.574A131.425,131.425,0,0,0,59.189,2h0A1.28,1.28,0,0,0,57.682.082,49.553,49.553,0,0,0,43.706,7.844,43.056,43.056,0,0,0,32.5,20.23c-.351.744-.743,1.384-1.053,2.209s-.619,1.693-.867,2.6a22.1,22.1,0,0,0-.227,3.241,13.351,13.351,0,0,0,.289,2.394,32.734,32.734,0,0,0,2.787,8.258,53.386,53.386,0,0,0,5.987,9.435A29.113,29.113,0,0,0,37,54.871a18.323,18.323,0,0,0-.413,3.324c-2.87-3.489-5.719-6.9-8.258-10.322a48.184,48.184,0,0,1-4.232-6.647l-.764-1.611a5.817,5.817,0,0,0-.247-1.073l-.145-1.528a16.571,16.571,0,0,1,0-1.755,53.963,53.963,0,0,1,.867-7.782c.392-2.705.97-5.471,1.445-8.258a172.47,172.47,0,0,0,2.54-17.3h0A1.22,1.22,0,0,0,27.315.825a1.259,1.259,0,0,0-1.774.159l-.022.027a49.738,49.738,0,0,0-4.955,7.638,72.2,72.2,0,0,0-3.757,8.258,52.917,52.917,0,0,0-3.8,18.332,22.961,22.961,0,0,0,.1,2.622c.145.949.269,1.878.434,2.828a16.851,16.851,0,0,0,1.115,3.076,12.513,12.513,0,0,0,1.3,2.25,40.492,40.492,0,0,0,6.194,7.329A58.927,58.927,0,0,0,37.141,63.666h0a18.181,18.181,0,0,0,.867,2.291,60.469,60.469,0,0,0-10.59-1.424,47.562,47.562,0,0,0-7.824.289,31.47,31.47,0,0,0-4.129.784,12.909,12.909,0,0,0-2.292.806,12.14,12.14,0,0,0-2.518,1.424,20.992,20.992,0,0,0-5.884,7.04,36.318,36.318,0,0,0-3.055,7.39,40.25,40.25,0,0,0-1.548,15.3,1.383,1.383,0,0,0,.557.929,1.3,1.3,0,0,0,1.808-.338l.009-.013h0c2.849-4.129,5.016-8.485,7.287-12.387a65.973,65.973,0,0,1,3.344-5.7,16.554,16.554,0,0,1,3.365-4.129,12.86,12.86,0,0,1,4.707-1.775c2.065-.537,4.356-.95,6.648-1.362,4.129-.785,8.567-1.4,12.985-2.292a16.032,16.032,0,0,0,3.035,2.746,19.936,19.936,0,0,0-3.242,3.489,39.485,39.485,0,0,0-12.923,1.837,28.113,28.113,0,0,0-6.585,2.993,12.509,12.509,0,0,0-1.672,1.26l-.847.722a9.724,9.724,0,0,0-2.828,6.565,24.609,24.609,0,0,0,.722,7.659,37.226,37.226,0,0,0,2.292,6.441,35.514,35.514,0,0,0,7.638,10.941,1.277,1.277,0,0,0,.929.351,1.321,1.321,0,0,0,1.3-1.341h0a84.485,84.485,0,0,0-1.507-12.592l-.971-5.987a23.44,23.44,0,0,1-.454-4.872c0-.6.145-.971,0-.764s-.206.206-.1.1l.31-.351a6.541,6.541,0,0,1,.764-.743,33.495,33.495,0,0,1,4.417-3.117c2.189-1.4,4.563-2.746,6.978-4.129v.124c-1.053,4.81,2.787,9.744,8.547,11s11.313-1.61,12.386-6.42a.26.26,0,0,0,0-.124c1.611,2.271,3.2,4.48,4.6,6.668a32.414,32.414,0,0,1,2.7,4.686,5.316,5.316,0,0,1,.393,1.012l.144.433v-.144a2.359,2.359,0,0,1-.309.7,24.574,24.574,0,0,1-2.457,4.252l-3.324,4.79a82.929,82.929,0,0,0-6.627,10.817h0a1.281,1.281,0,0,0,0,.991,1.322,1.322,0,0,0,1.665.849l.008,0A35.754,35.754,0,0,0,67.385,114.6a38.05,38.05,0,0,0,4.748-4.893,23.9,23.9,0,0,0,3.861-6.668,11.426,11.426,0,0,0,.64-5.47,10.635,10.635,0,0,0-.455-1.673l-.454-1.011a15.2,15.2,0,0,0-1.011-1.838,27.123,27.123,0,0,0-4.728-5.491,40.308,40.308,0,0,0-10.962-7.06,19.7,19.7,0,0,0-1.486-4.521,17.173,17.173,0,0,0,3.9-1.218c3.633,2.642,7.328,5.037,10.838,7.494,1.9,1.341,3.778,2.663,5.47,4.128a13.246,13.246,0,0,1,3.531,3.572,16.523,16.523,0,0,1,1.341,5.12c.331,2.064.5,4.294.661,6.585.392,4.583.578,9.373,1.4,14.451h0a1.282,1.282,0,0,0,.619.888,1.3,1.3,0,0,0,1.776-.434A39.992,39.992,0,0,0,92.055,102,35.1,35.1,0,0,0,92.282,93.93Z" fill="#10294c"/><path d="M43.458,58.133a15.3,15.3,0,0,1,5.492-1.218,20.322,20.322,0,0,1,5.14.475A19.8,19.8,0,0,1,58.983,59.1a14.881,14.881,0,0,1,4.541,3.407,1.238,1.238,0,0,1-.074,1.75l-.029.025a1.028,1.028,0,0,1-.309.207A14.805,14.805,0,0,1,57.6,65.813a20.7,20.7,0,0,1-5.182-.351,20.32,20.32,0,0,1-4.893-1.61,15.139,15.139,0,0,1-4.583-3.283,1.527,1.527,0,0,1-.007-2.16l.007-.007A1.176,1.176,0,0,1,43.458,58.133Z" fill="#00aee0"/><path d="M50.993,43.662a7.229,7.229,0,0,1,3.283-1.652,6.774,6.774,0,0,1,2.952,0,7.06,7.06,0,0,1,2.684,1.259,8.12,8.12,0,0,1,2.333,2.953,1.694,1.694,0,0,1-.413,2.064,7.928,7.928,0,0,1-3.324,1.8,7.166,7.166,0,0,1-2.952.1,6.814,6.814,0,0,1-2.7-1.177A7.293,7.293,0,0,1,50.5,46.2,2.066,2.066,0,0,1,50.993,43.662Z" fill="#00aee0"/></g></g></svg></g></svg>