<svg xmlns="http://www.w3.org/2000/svg"  viewBox="0 0 48 48" width="48px" height="48px"><path fill="#edbe00" d="M43,36H29V14h10.559c0.86,0,1.625,0.551,1.897,1.368L45,26v8C45,35.105,44.105,36,43,36"/><linearGradient id="Tjy8McpYMVNVLfxNjA9t8a" x1="6.441" x2="24.98" y1="-296.868" y2="-325.245" gradientTransform="matrix(1 0 0 -1 0 -290)" gradientUnits="userSpaceOnUse"><stop offset="0" stop-color="#21ad64"/><stop offset="1" stop-color="#088242"/></linearGradient><path fill="url(#Tjy8McpYMVNVLfxNjA9t8a)" d="M29,36H5c-1.105,0-2-0.895-2-2V9c0-1.105,0.895-2,2-2h22c1.105,0,2,0.895,2,2V36z"/><path fill="#586169" d="M42,36c0,2.761-2.238,5-5,5s-5-2.239-5-5s2.238-5,5-5S42,33.239,42,36"/><path fill="#586169" d="M18,36c0,2.761-2.239,5-5,5s-5-2.239-5-5s2.239-5,5-5S18,33.239,18,36"/><path fill="#999" d="M39,36c0,1.105-0.895,2-2,2s-2-0.895-2-2s0.895-2,2-2S39,34.895,39,36"/><path fill="#999" d="M15,36c0,1.105-0.895,2-2,2s-2-0.895-2-2s0.895-2,2-2S15,34.895,15,36"/><path fill="#ad8b00" d="M41,25h-7c-0.552,0-1-0.448-1-1v-7c0-0.552,0.448-1,1-1h5c0.432,0,0.813,0.275,0.949,0.684l2,6	C41.982,22.786,42,22.893,42,23v1C42,24.552,41.552,25,41,25"/><path d="M14.018,28.006c-0.48,0-0.93-0.188-1.267-0.529L6.458,21.14c-0.692-0.698-0.692-1.832,0-2.53	l1.114-1.12c0.336-0.34,0.786-0.527,1.265-0.527s0.929,0.188,1.266,0.527l3.915,3.943l7.848-7.905	C22.204,13.188,22.654,13,23.132,13c0.478,0,0.928,0.188,1.266,0.528l1.111,1.119c0.692,0.698,0.693,1.833,0.001,2.53L15.284,27.479	C14.948,27.818,14.498,28.006,14.018,28.006z" opacity=".05"/><path d="M14.018,27.506c-0.345,0-0.668-0.135-0.912-0.381l-6.293-6.338c-0.499-0.503-0.499-1.322,0-1.825	l1.113-1.12c0.243-0.245,0.566-0.38,0.911-0.38s0.668,0.135,0.911,0.38l4.27,4.301l8.203-8.263c0.244-0.245,0.567-0.38,0.912-0.38	s0.668,0.136,0.911,0.381L25.155,15c0.5,0.504,0.5,1.322,0,1.826l-10.227,10.3C14.687,27.371,14.363,27.506,14.018,27.506z" opacity=".07"/><path fill="#fff" d="M13.462,26.774l-6.293-6.339c-0.308-0.31-0.308-0.811,0-1.12l1.112-1.12	c0.308-0.31,0.806-0.31,1.112,0l4.625,4.658l8.558-8.62c0.308-0.31,0.806-0.31,1.112,0l1.112,1.12c0.308,0.31,0.308,0.811,0,1.12	L14.574,26.774C14.267,27.084,13.768,27.084,13.462,26.774z"/></svg>