<?xml version="1.0" standalone="no"?>
<!DOCTYPE svg PUBLIC "-//W3C//DTD SVG 20010904//EN"
 "http://www.w3.org/TR/2001/REC-SVG-20010904/DTD/svg10.dtd">
<svg version="1.0" xmlns="http://www.w3.org/2000/svg"
 width="700.000000pt" height="700.000000pt" viewBox="0 0 700.000000 700.000000"
 preserveAspectRatio="xMidYMid meet">
<metadata>
Created by potrace 1.11, written by Peter Selinger 2001-2013
</metadata>
<g transform="translate(0.000000,700.000000) scale(0.100000,-0.100000)"
fill="#000000" stroke="none">
<path d="M3074 6981 c-43 -20 -75 -57 -91 -106 -5 -18 -9 -433 -8 -1067 0
-895 -2 -1035 -14 -1025 -15 13 -21 19 -451 437 -151 147 -313 305 -360 351
-47 45 -207 201 -357 347 -150 146 -285 273 -300 283 -38 25 -104 34 -149 19
-49 -17 -536 -497 -559 -552 -21 -53 -19 -107 8 -150 12 -20 137 -155 278
-300 141 -145 310 -318 375 -385 66 -67 237 -242 380 -390 144 -147 288 -295
320 -328 33 -33 64 -67 71 -75 10 -13 -116 -15 -1040 -15 l-1052 0 -37 -26
c-21 -14 -48 -38 -60 -54 l-23 -30 0 -410 0 -411 27 -41 c14 -22 43 -48 65
-59 36 -17 84 -18 1085 -19 l1047 0 -22 -23 c-12 -12 -340 -341 -729 -730
-491 -490 -714 -720 -729 -750 -35 -71 -16 -150 50 -211 36 -33 140 -130 236
-221 180 -169 268 -246 293 -257 39 -17 112 -15 149 5 17 9 150 133 295 274
144 141 310 302 368 358 88 86 604 588 772 753 27 26 52 47 56 47 4 0 7 -465
7 -1032 -1 -633 3 -1046 9 -1066 13 -44 53 -86 100 -106 57 -24 776 -24 835 0
48 19 87 67 99 120 4 22 8 501 7 1066 0 908 2 1025 15 1015 8 -7 49 -46 91
-87 104 -101 612 -596 713 -694 44 -43 206 -200 359 -350 153 -149 296 -281
319 -294 48 -26 94 -28 144 -7 48 20 529 501 549 549 20 46 19 92 -3 138 -15
32 -141 166 -599 634 -358 368 -757 778 -810 835 l-32 34 1047 0 c1002 1 1049
2 1085 19 22 11 51 37 65 59 l27 41 3 390 c2 338 1 397 -13 433 -18 47 -64 86
-115 100 -20 5 -483 9 -1071 9 l-1036 -1 81 81 c70 70 371 379 700 717 54 56
221 227 370 380 149 153 281 296 294 319 27 51 28 99 2 152 -30 63 -504 529
-554 546 -49 16 -119 7 -154 -21 -15 -11 -146 -136 -291 -277 -145 -142 -296
-288 -335 -326 -84 -81 -617 -600 -752 -733 -52 -50 -95 -88 -95 -85 -1 4 -2
475 -3 1047 -2 992 -3 1042 -20 1078 -11 22 -37 51 -59 65 l-41 27 -395 3
c-370 2 -399 1 -437 -17z m921 -2987 l205 -206 0 -288 0 -287 -206 -207 -206
-206 -288 0 -287 0 -207 206 -206 207 0 288 0 288 206 205 205 206 289 0 289
0 206 -206z"/>
</g>
</svg>
