<svg xmlns="http://www.w3.org/2000/svg" xmlns:svg="http://www.w3.org/2000/svg" id="svg78" version="1.1" viewBox="0 0 128 64.13"><metadata id="metadata82"/><defs id="defs4"><style id="style2">.cls-1,.cls-2{fill:#fff}.cls-2{font-size:10px;font-family:WorkSans-Bold,Work Sans;font-weight:700}</style></defs><g id="logo"><path id="path6" d="M4.54,52.19v.71H0V46.66H4.4v.71H.76v2H3.59v.71H.76v2.09Z" class="cls-1"/><path id="path8" d="M8.73,48.18l-.15.73a1.31,1.31,0,0,0-.6-.12,1.16,1.16,0,0,0-.6.18,1.23,1.23,0,0,0-.47.53,1.84,1.84,0,0,0-.19.85V52.9H6V48.18h.62l.11.77a1.51,1.51,0,0,1,1.52-.87A1.07,1.07,0,0,1,8.73,48.18Z" class="cls-1"/><path id="path10" d="M14.28,52.31l0,.59a1.56,1.56,0,0,1-.57.1.91.91,0,0,1-.58-.16.74.74,0,0,1-.27-.54,1.52,1.52,0,0,1-.64.52,2.28,2.28,0,0,1-.89.18,1.92,1.92,0,0,1-1.16-.33,1.06,1.06,0,0,1-.46-.94,1.17,1.17,0,0,1,.48-.93,2.85,2.85,0,0,1,1.37-.54l1.27-.21v-.27a1,1,0,0,0-.3-.75,1.11,1.11,0,0,0-.81-.29,1.52,1.52,0,0,0-.83.23,1.44,1.44,0,0,0-.53.67l-.56-.4a1.55,1.55,0,0,1,.71-.85,2.34,2.34,0,0,1,1.21-.31,2.11,2.11,0,0,1,1.35.41,1.42,1.42,0,0,1,.52,1.2V52a.3.3,0,0,0,.36.34A1.65,1.65,0,0,0,14.28,52.31Zm-1.93-.26a.86.86,0,0,0,.43-.73v-.66l-1.07.2a2.66,2.66,0,0,0-1,.33.62.62,0,0,0-.31.54.51.51,0,0,0,.23.45,1,1,0,0,0,.63.16A1.87,1.87,0,0,0,12.35,52.05Z" class="cls-1"/><path id="path12" d="M16.06,52.73a1.7,1.7,0,0,1-.81-.8l.62-.43a1.19,1.19,0,0,0,.56.63,2,2,0,0,0,.94.21,1.56,1.56,0,0,0,.86-.2.59.59,0,0,0,.29-.5.49.49,0,0,0-.27-.44,3.13,3.13,0,0,0-1-.29,4.74,4.74,0,0,1-1.09-.3,1.32,1.32,0,0,1-.57-.44,1.13,1.13,0,0,1-.19-.67,1.23,1.23,0,0,1,.23-.71,1.6,1.6,0,0,1,.66-.52,2.5,2.5,0,0,1,1-.19,2.32,2.32,0,0,1,1.22.28,1.62,1.62,0,0,1,.66.86l-.65.37a1.15,1.15,0,0,0-.46-.65,1.59,1.59,0,0,0-1.56,0,.59.59,0,0,0-.33.48.57.57,0,0,0,.28.49,3.28,3.28,0,0,0,1,.29,3.2,3.2,0,0,1,1.39.48,1.08,1.08,0,0,1,.41.91,1.16,1.16,0,0,1-.24.72,1.59,1.59,0,0,1-.69.5A2.85,2.85,0,0,1,17.3,53,2.79,2.79,0,0,1,16.06,52.73Z" class="cls-1"/><path id="path14" d="M27.17,48.27a1.51,1.51,0,0,1,.67.61,1.83,1.83,0,0,1,.26,1v3h-.76V50A1.19,1.19,0,0,0,27,49a1.13,1.13,0,0,0-.81-.3,1.29,1.29,0,0,0-.7.19,1.33,1.33,0,0,0-.51.54,1.71,1.71,0,0,0-.2.84V52.9h-.76V50a1.19,1.19,0,0,0-.31-.91,1.09,1.09,0,0,0-.81-.3,1.31,1.31,0,0,0-.66.18,1.4,1.4,0,0,0-.54.54,1.84,1.84,0,0,0-.2.92V52.9h-.76V48.18h.66l.05.73a1.61,1.61,0,0,1,.65-.62,1.86,1.86,0,0,1,.87-.21,2,2,0,0,1,1,.24,1.54,1.54,0,0,1,.67.69,1.44,1.44,0,0,1,.69-.69,2.11,2.11,0,0,1,1-.24A2.17,2.17,0,0,1,27.17,48.27Z" class="cls-1"/><path id="path16" d="M34,48.18V52.9h-.67l-.05-.71a2.12,2.12,0,0,1-2.95.38,1.62,1.62,0,0,1-.49-1.3V48.18h.76v2.89a1.37,1.37,0,0,0,.28,1,1.14,1.14,0,0,0,.84.29,1.59,1.59,0,0,0,1.09-.4,1.56,1.56,0,0,0,.43-1.19V48.18Z" class="cls-1"/><path id="path18" d="M36.2,52.73a1.7,1.7,0,0,1-.81-.8L36,51.5a1.12,1.12,0,0,0,.56.63,2,2,0,0,0,.94.21,1.52,1.52,0,0,0,.85-.2.58.58,0,0,0,.3-.5.48.48,0,0,0-.28-.44,3,3,0,0,0-1-.29,4.79,4.79,0,0,1-1.08-.3,1.29,1.29,0,0,1-.58-.44,1.2,1.2,0,0,1-.18-.67,1.23,1.23,0,0,1,.23-.71,1.63,1.63,0,0,1,.65-.52,2.57,2.57,0,0,1,1-.19,2.27,2.27,0,0,1,1.22.28,1.53,1.53,0,0,1,.66.86l-.64.37a1.2,1.2,0,0,0-.46-.65,1.46,1.46,0,0,0-.78-.2,1.43,1.43,0,0,0-.79.21.59.59,0,0,0-.32.48.55.55,0,0,0,.28.49,3.19,3.19,0,0,0,1,.29,3.25,3.25,0,0,1,1.4.48,1.11,1.11,0,0,1,.41.91,1.16,1.16,0,0,1-.24.72,1.68,1.68,0,0,1-.7.5,2.82,2.82,0,0,1-1,.18A2.74,2.74,0,0,1,36.2,52.73Z" class="cls-1"/><path id="path20" d="M50.48,47.89l-.66.53a2.06,2.06,0,0,0-.68-.88,1.88,1.88,0,0,0-1.08-.26,2,2,0,0,0-1.13.29.91.91,0,0,0-.42.77.81.81,0,0,0,.16.5,1.26,1.26,0,0,0,.54.34,5,5,0,0,0,1,.26,3.87,3.87,0,0,1,1.76.63,1.37,1.37,0,0,1,.52,1.15,1.52,1.52,0,0,1-.3.93,1.92,1.92,0,0,1-.85.63,3.75,3.75,0,0,1-2.89-.15,2.54,2.54,0,0,1-1-1l.65-.53a1.93,1.93,0,0,0,.76.86,2.3,2.3,0,0,0,1.25.31A2.24,2.24,0,0,0,49.31,52a.84.84,0,0,0,.43-.76.73.73,0,0,0-.38-.66A3.68,3.68,0,0,0,48,50.18a4.11,4.11,0,0,1-1.77-.62,1.35,1.35,0,0,1-.52-1.14A1.61,1.61,0,0,1,46,47.5a1.92,1.92,0,0,1,.82-.68,2.79,2.79,0,0,1,1.23-.25A2.58,2.58,0,0,1,50.48,47.89Z" class="cls-1"/><path id="path22" d="M55.12,52.57a1.76,1.76,0,0,1-1.23.43,1.38,1.38,0,0,1-.94-.31,1.22,1.22,0,0,1-.38-1v-2.9h-1v-.65h1V47l.76-.21v1.35h1.76v.65H53.33V51.6a.67.67,0,0,0,.2.52.77.77,0,0,0,.51.17,1.11,1.11,0,0,0,.81-.35Z" class="cls-1"/><path id="path24" d="M60.48,48.18V52.9h-.66l0-.71a1.8,1.8,0,0,1-1.7.81,1.84,1.84,0,0,1-1.26-.43,1.62,1.62,0,0,1-.49-1.3V48.18h.76v2.89a1.37,1.37,0,0,0,.29,1,1.12,1.12,0,0,0,.83.29,1.57,1.57,0,0,0,1.09-.4,1.52,1.52,0,0,0,.43-1.19V48.18Z" class="cls-1"/><path id="path26" d="M66.53,46v6.9h-.66l-.05-.82a1.59,1.59,0,0,1-.64.67,1.91,1.91,0,0,1-1,.25,2,2,0,0,1-1.59-.66,3.08,3.08,0,0,1,0-3.6,2,2,0,0,1,1.59-.66,1.91,1.91,0,0,1,.93.23,1.61,1.61,0,0,1,.64.6V46Zm-1.16,5.86a1.85,1.85,0,0,0,.4-1.26v-.12a1.85,1.85,0,0,0-.4-1.26,1.35,1.35,0,0,0-1.09-.48,1.33,1.33,0,0,0-1.09.49,2.35,2.35,0,0,0,0,2.62,1.33,1.33,0,0,0,1.09.49A1.35,1.35,0,0,0,65.37,51.86Z" class="cls-1"/><path id="path28" d="M72.4,50.82H68.82a1.76,1.76,0,0,0,.48,1.12,1.51,1.51,0,0,0,1.07.4,1.87,1.87,0,0,0,.87-.18,1,1,0,0,0,.47-.52l.64.33a2,2,0,0,1-.76.76,2.45,2.45,0,0,1-1.22.27,2.2,2.2,0,0,1-1.68-.65,2.55,2.55,0,0,1-.62-1.81,2.63,2.63,0,0,1,.59-1.81,2.12,2.12,0,0,1,1.65-.65,2.21,2.21,0,0,1,1.15.29,2,2,0,0,1,.74.8,2.56,2.56,0,0,1,.24,1.12A3.08,3.08,0,0,1,72.4,50.82Zm-3.1-1.71a1.74,1.74,0,0,0-.47,1h2.88a1.72,1.72,0,0,0-.44-1,1.27,1.27,0,0,0-1-.38A1.44,1.44,0,0,0,69.3,49.11Z" class="cls-1"/><path id="path30" d="M77.61,48.55a1.66,1.66,0,0,1,.52,1.33v3h-.76V50.14a1.47,1.47,0,0,0-.32-1.07,1.11,1.11,0,0,0-.85-.33,1.58,1.58,0,0,0-.71.17,1.35,1.35,0,0,0-.55.54,1.9,1.9,0,0,0-.21.94V52.9H74V48.18h.67l0,.73a1.54,1.54,0,0,1,.66-.63,2.2,2.2,0,0,1,.94-.2A1.93,1.93,0,0,1,77.61,48.55Z" class="cls-1"/><path id="path32" d="M82.79,52.57a1.72,1.72,0,0,1-1.22.43,1.41,1.41,0,0,1-.95-.31,1.21,1.21,0,0,1-.37-1v-2.9h-1v-.65h1V47l.76-.21v1.35h1.76v.65H81V51.6a.67.67,0,0,0,.19.52.79.79,0,0,0,.52.17,1.13,1.13,0,0,0,.81-.35Z" class="cls-1"/><path id="path34" d="M93.77,52.9h-.94L90.2,48.72l-.66-1.22h0l0,1v4.4h-.73V46.66h1l2.61,4.16.67,1.25h0l0-1V46.66h.73Z" class="cls-1"/><path id="path36" d="M99.79,50.82H96.21a1.66,1.66,0,0,0,.48,1.12,1.49,1.49,0,0,0,1.07.4,1.87,1.87,0,0,0,.87-.18,1,1,0,0,0,.47-.52l.63.33a1.92,1.92,0,0,1-.76.76,2.41,2.41,0,0,1-1.21.27,2.22,2.22,0,0,1-1.69-.65,2.54,2.54,0,0,1-.61-1.81A2.63,2.63,0,0,1,96,48.73a2.12,2.12,0,0,1,1.66-.65,2.23,2.23,0,0,1,1.15.29,1.94,1.94,0,0,1,.73.8,2.43,2.43,0,0,1,.25,1.12A3.08,3.08,0,0,1,99.79,50.82Zm-3.1-1.71a1.68,1.68,0,0,0-.47,1H99.1a1.72,1.72,0,0,0-.44-1,1.27,1.27,0,0,0-1-.38A1.43,1.43,0,0,0,96.69,49.11Z" class="cls-1"/><path id="path38" d="M104.26,52.57A1.72,1.72,0,0,1,103,53a1.41,1.41,0,0,1-1-.31,1.21,1.21,0,0,1-.37-1v-2.9h-1v-.65h1V47l.76-.21v1.35h1.76v.65h-1.76V51.6a.67.67,0,0,0,.19.52.79.79,0,0,0,.52.17,1.13,1.13,0,0,0,.81-.35Z" class="cls-1"/><path id="path40" d="M112.64,48.18,111,52.9h-.76l-1.34-3.76-1.26,3.76h-.76l-1.66-4.72h.85l1.2,3.85,1.29-3.85h.76L110.6,52l1.2-3.85Z" class="cls-1"/><path id="path42" d="M117.54,48.73a3,3,0,0,1,0,3.62,2.22,2.22,0,0,1-1.69.65,2.18,2.18,0,0,1-1.68-.65,3,3,0,0,1,0-3.62,2.18,2.18,0,0,1,1.68-.65A2.22,2.22,0,0,1,117.54,48.73Zm-2.82.49a2.33,2.33,0,0,0,0,2.64,1.55,1.55,0,0,0,2.26,0,2.33,2.33,0,0,0,0-2.64,1.55,1.55,0,0,0-2.26,0Z" class="cls-1"/><path id="path44" d="M122.46,48.18l-.15.73a1.31,1.31,0,0,0-.6-.12,1.13,1.13,0,0,0-.6.18,1.23,1.23,0,0,0-.47.53,1.84,1.84,0,0,0-.19.85V52.9h-.76V48.18h.62l.11.77a1.51,1.51,0,0,1,1.52-.87A1.07,1.07,0,0,1,122.46,48.18Z" class="cls-1"/><path id="path46" d="M125.48,50.57l-1,1V52.9h-.76V46h.76v4.63l2.46-2.45h1L126,50l2,2.88h-.92Z" class="cls-1"/><path id="path48" d="M69,32v3a1,1,0,0,1-1,1H49a1,1,0,0,1-1-1V5a1,1,0,0,1,1-1H67a1,1,0,0,1,1,1V8a1,1,0,0,1-1,1H53v9H64a1,1,0,0,1,1,1v3a1,1,0,0,1-1,1H53v8H68A1,1,0,0,1,69,32Z" class="cls-1"/><path id="path50" d="M108,36h-3a1,1,0,0,1-1-1l0-30a1,1,0,0,1,1-1h4.4a1,1,0,0,1,.88.52L123,28V5a1,1,0,0,1,1-1h3a1,1,0,0,1,1,1V35a1,1,0,0,1-1,1h-4.42a1,1,0,0,1-.87-.51L109,13V35A1,1,0,0,1,108,36Z" class="cls-1"/><path id="path52" d="M23,1V12.76L21.66,16H18.34L17,12.76V1a1,1,0,0,1,1-1h4A1,1,0,0,1,23,1Z" class="cls-1"/><path id="path54" d="M8.71,4.69,17,12.76,18.35,16,16,18.35,12.76,17,4.69,8.71a1,1,0,0,1,0-1.41L7.3,4.7A1,1,0,0,1,8.71,4.69Z" class="cls-1"/><path id="path56" d="M1,17H12.76L16,18.34v3.32L12.76,23H1a1,1,0,0,1-1-1V18A1,1,0,0,1,1,17Z" class="cls-1"/><path id="path58" d="M4.47,31.29,12.76,23,16,21.65,18.35,24,17,27.24l-8.32,8.1a1,1,0,0,1-1.38,0L4.49,32.73A1,1,0,0,1,4.47,31.29Z" class="cls-1"/><path id="path60" d="M17,39V27.24L18.34,24h3.32L23,27.24V39a1,1,0,0,1-1,1H18A1,1,0,0,1,17,39Z" class="cls-1"/><path id="path62" d="M31.29,35.31,23,27.24,21.65,24,24,21.65,27.24,23l8.07,8.29a1,1,0,0,1,0,1.41l-2.6,2.6A1,1,0,0,1,31.29,35.31Z" class="cls-1"/><path id="path64" d="M39,23H27.24L24,21.66V18.34L27.24,17H39a1,1,0,0,1,1,1v4A1,1,0,0,1,39,23Z" class="cls-1"/><path id="path66" d="M35.31,8.71,27.24,17,24,18.35,21.65,16,23,12.76l8.29-8.07a1,1,0,0,1,1.41,0l2.6,2.6A1,1,0,0,1,35.31,8.71Z" class="cls-1"/><path id="path68" d="M98.08,27.3a8.31,8.31,0,0,1-1.52,4.93A9.63,9.63,0,0,1,92.3,35.5a17.64,17.64,0,0,1-14.23-.75,13.78,13.78,0,0,1-3.4-2.92,1,1,0,0,1,.16-1.45l2.33-1.75a1,1,0,0,1,1.42.23,6.77,6.77,0,0,0,1.88,1.81,10.33,10.33,0,0,0,5.67,1.45,9.79,9.79,0,0,0,5.34-1.26,3.75,3.75,0,0,0,1.85-3.37,3.29,3.29,0,0,0-1.59-2.88,17.84,17.84,0,0,0-6.23-2c-.54-.1-1-.2-1.54-.31a17.44,17.44,0,0,1-7.15-2.9,7.38,7.38,0,0,1-2.67-6,8.86,8.86,0,0,1,1.44-4.88A9.92,9.92,0,0,1,79.66,5a13.81,13.81,0,0,1,6.12-1.3c5,0,9.16,1.84,11.69,5.51a1,1,0,0,1-.21,1.39L94.9,12.32a1,1,0,0,1-1.44-.27,9.11,9.11,0,0,0-2.8-2.66,8.39,8.39,0,0,0-4.84-1.21,8.36,8.36,0,0,0-5.11,1.38A4,4,0,0,0,79,13a3.4,3.4,0,0,0,.66,2.19A5.74,5.74,0,0,0,82,16.7,25.08,25.08,0,0,0,86.82,18c.55.1,1.08.2,1.59.32a16.34,16.34,0,0,1,7,2.9A7.59,7.59,0,0,1,98.08,27.3Z" class="cls-1"/></g><g id="title"><g id="text75" aria-label="TUMi München" class="cls-2" transform="translate(54.06 64.02)" style="font-weight:700;font-size:10px;font-family:WorkSans-Bold,'Work Sans';fill:#fff"><path style="font-weight:700;font-size:10px;font-family:WorkSans-Bold,'Work Sans';fill:#fff" id="path907" d="m 6.28,-6.6 v 1.33 H 4.13 V 0 H 2.41 V -5.27 H 0.25 V -6.6 Z"/><path style="font-weight:700;font-size:10px;font-family:WorkSans-Bold,'Work Sans';fill:#fff" id="path909" d="m 13.029999,-6.6 v 3.91 q 0,1.4 -0.75,2.1 -0.74,0.69 -2.2,0.69 -1.4500002,0 -2.2000002,-0.69 -0.75,-0.7 -0.75,-2.1 V -6.6 h 1.73 v 3.94 q 0,0.71 0.3,1.06 0.31,0.35 0.9200002,0.35 0.62,0 0.92,-0.35 0.31,-0.35 0.31,-1.06 V -6.6 Z"/><path style="font-weight:700;font-size:10px;font-family:WorkSans-Bold,'Work Sans';fill:#fff" id="path911" d="M 21.99999,-6.6 V 0 h -1.52 v -3.03 l 0.05,-2.03 h -0.02 l -1.63,5.06 h -1.39 l -1.63,-5.06 h -0.02 l 0.05,2.03 V 0 h -1.53 v -6.6 h 2.45 l 1.04,3.36 0.37,1.4 h 0.02 l 0.38,-1.39 1.03,-3.37 z"/><path style="font-weight:700;font-size:10px;font-family:WorkSans-Bold,'Work Sans';fill:#fff" id="path913" d="m 24.189988,-5.58 q -0.52,0 -0.76,-0.19 -0.23,-0.2 -0.23,-0.62 0,-0.43 0.23,-0.62 0.24,-0.2 0.76,-0.2 0.51,0 0.75,0.2 0.24,0.19 0.24,0.62 0,0.42 -0.24,0.62 -0.24,0.19 -0.75,0.19 z m 0.85,0.58 v 5 h -1.7 v -5 z"/><path style="letter-spacing:0" id="path915" d="M 36.900001,-6.6 V 0 h -1.52 v -3.03 l 0.05,-2.03 h -0.02 l -1.63,5.06 h -1.39 l -1.63,-5.06 h -0.02 l 0.05,2.03 V 0 h -1.53 v -6.6 h 2.45 l 1.04,3.36 0.37,1.4 h 0.02 l 0.38,-1.39 1.03,-3.37 z"/><path id="path917" d="m 39.910001,0.1 q -0.51,0 -0.9,-0.17 -0.38,-0.18 -0.6,-0.57 -0.22,-0.39 -0.22,-1.02 V -5 h 1.7 v 2.94 q 0,0.48 0.19,0.67 0.19,0.19 0.54,0.19 0.18,0 0.34,-0.06 0.16,-0.07 0.28,-0.2 0.12,-0.14 0.18,-0.35 0.07,-0.22 0.07,-0.51 V -5 h 1.7 v 5 h -1.52 l -0.05,-0.94 q -0.24,0.53 -0.67,0.79 -0.43,0.25 -1.04,0.25 z m -0.36,-7.16 q 0.41,0 0.63,0.2 0.23,0.2 0.23,0.57 0,0.36 -0.23,0.57 -0.22,0.2 -0.63,0.2 -0.39,0 -0.62,-0.2 -0.22,-0.21 -0.22,-0.57 0,-0.37 0.22,-0.57 0.23,-0.2 0.62,-0.2 z m 2.2,0 q 0.4,0 0.63,0.2 0.23,0.2 0.23,0.57 0,0.36 -0.23,0.57 -0.23,0.2 -0.63,0.2 -0.39,0 -0.62,-0.2 -0.22,-0.21 -0.22,-0.57 0,-0.37 0.22,-0.57 0.23,-0.2 0.62,-0.2 z"/><path id="path919" d="m 44.409995,0 v -5 h 1.52 l 0.09,1.72 -0.19,-0.19 q 0.1,-0.54 0.35,-0.9 0.26,-0.36 0.64,-0.54 0.39,-0.19 0.87,-0.19 0.52,0 0.9,0.2 0.39,0.2 0.61,0.59 0.22,0.39 0.22,0.98 V 0 h -1.7 v -2.88 q 0,-0.52 -0.2,-0.72 -0.2,-0.2 -0.51,-0.2 -0.24,0 -0.45,0.12 -0.21,0.11 -0.33,0.36 -0.12,0.25 -0.12,0.67 V 0 Z"/><path id="path921" d="m 52.979985,-5.1 q 0.76,0 1.26,0.22 0.51,0.21 0.79,0.57 0.29,0.35 0.36,0.76 l -1.57,0.52 q -0.07,-0.43 -0.26,-0.64 -0.18,-0.22 -0.53,-0.22 -0.32,0 -0.54,0.15 -0.21,0.14 -0.32,0.46 -0.11,0.31 -0.11,0.8 0,0.49 0.12,0.8 0.12,0.3 0.34,0.44 0.22,0.13 0.52,0.13 0.25,0 0.41,-0.09 0.17,-0.1 0.28,-0.28 0.11,-0.18 0.14,-0.44 l 1.53,0.49 q -0.07,0.44 -0.38,0.79 -0.3,0.34 -0.8,0.54 -0.5,0.2 -1.17,0.2 -0.82,0 -1.43,-0.3 -0.61,-0.31 -0.94,-0.89 -0.33,-0.59 -0.33,-1.41 0,-0.82 0.33,-1.4 0.33,-0.59 0.92,-0.89 0.6,-0.31 1.38,-0.31 z"/><path id="path923" d="m 56.279979,0 v -7.12 h 1.7 v 3.03 q 0.22,-0.5 0.63,-0.75 0.41,-0.26 0.95,-0.26 0.52,0 0.9,0.2 0.39,0.2 0.61,0.59 0.22,0.39 0.22,0.98 V 0 h -1.7 v -2.86 q 0,-0.54 -0.2,-0.74 -0.19,-0.21 -0.51,-0.21 -0.24,0 -0.45,0.12 -0.21,0.12 -0.33,0.38 -0.12,0.26 -0.12,0.68 V 0 Z"/><path id="path925" d="m 64.919968,0.1 q -0.83,0 -1.44,-0.31 -0.6,-0.31 -0.93,-0.89 -0.33,-0.58 -0.33,-1.4 0,-0.82 0.33,-1.4 0.33,-0.58 0.92,-0.89 0.6,-0.31 1.37,-0.31 0.79,0 1.34,0.31 0.56,0.3 0.85,0.84 0.29,0.53 0.29,1.22 0,0.18 -0.01,0.36 -0.01,0.18 -0.03,0.3 h -3.96 v -0.91 h 3.21 l -0.81,0.31 q 0,-0.6 -0.22,-0.92 -0.21,-0.32 -0.66,-0.32 -0.32,0 -0.55,0.15 -0.22,0.15 -0.34,0.47 -0.11,0.32 -0.11,0.82 0,0.49 0.13,0.8 0.13,0.3 0.37,0.44 0.24,0.13 0.58,0.13 0.38,0 0.6,-0.15 0.23,-0.15 0.34,-0.42 l 1.36,0.45 q -0.14,0.43 -0.49,0.73 -0.34,0.29 -0.82,0.44 -0.47,0.15 -0.99,0.15 z"/><path id="path927" d="m 68.269954,0 v -5 h 1.52 l 0.09,1.72 -0.19,-0.19 q 0.1,-0.54 0.35,-0.9 0.26,-0.36 0.64,-0.54 0.39,-0.19 0.87,-0.19 0.52,0 0.9,0.2 0.39,0.2 0.61,0.59 0.22,0.39 0.22,0.98 V 0 h -1.7 v -2.88 q 0,-0.52 -0.2,-0.72 -0.2,-0.2 -0.51,-0.2 -0.24,0 -0.45,0.12 -0.21,0.11 -0.33,0.36 -0.12,0.25 -0.12,0.67 V 0 Z"/></g></g></svg>