<svg xmlns="http://www.w3.org/2000/svg" viewBox="0 0 40 40"><defs><style>.cls-1{fill:#fff}</style></defs><g id="title"><path d="M23,1V12.76L21.66,16H18.34L17,12.76V1a1,1,0,0,1,1-1h4A1,1,0,0,1,23,1Z" class="cls-1"/><path d="M8.71,4.69,17,12.76,18.35,16,16,18.35,12.76,17,4.69,8.71a1,1,0,0,1,0-1.41L7.3,4.7A1,1,0,0,1,8.71,4.69Z" class="cls-1"/><path d="M1,17H12.76L16,18.34v3.32L12.76,23H1a1,1,0,0,1-1-1V18A1,1,0,0,1,1,17Z" class="cls-1"/><path d="M4.47,31.29,12.76,23,16,21.65,18.35,24,17,27.24l-8.32,8.1a1,1,0,0,1-1.38,0L4.49,32.73A1,1,0,0,1,4.47,31.29Z" class="cls-1"/><path d="M17,39V27.24L18.34,24h3.32L23,27.24V39a1,1,0,0,1-1,1H18A1,1,0,0,1,17,39Z" class="cls-1"/><path d="M31.29,35.31,23,27.24,21.65,24,24,21.65,27.24,23l8.07,8.29a1,1,0,0,1,0,1.41l-2.6,2.6A1,1,0,0,1,31.29,35.31Z" class="cls-1"/><path d="M39,23H27.24L24,21.66V18.34L27.24,17H39a1,1,0,0,1,1,1v4A1,1,0,0,1,39,23Z" class="cls-1"/><path d="M35.31,8.71,27.24,17,24,18.35,21.65,16,23,12.76l8.29-8.07a1,1,0,0,1,1.41,0l2.6,2.6A1,1,0,0,1,35.31,8.71Z" class="cls-1"/></g></svg>