<svg xmlns="http://www.w3.org/2000/svg"  viewBox="0 0 64 64" width="64px" height="64px"><linearGradient id="L5afHHrKip~FO4DMIIVdqa" x1="32" x2="32" y1="24" y2="50.675" gradientUnits="userSpaceOnUse" spreadMethod="reflect"><stop offset="0" stop-color="#1a6dff"/><stop offset="1" stop-color="#c822ff"/></linearGradient><path fill="url(#L5afHHrKip~FO4DMIIVdqa)" d="M58,22v2.882L34.12,49.107C33.56,49.685,32.8,50,32,50s-1.56-0.315-2.12-0.893L6,24.882V22 l25.29,25.676c0.38,0.386,1.04,0.386,1.42,0L58,22z"/><linearGradient id="L5afHHrKip~FO4DMIIVdqb" x1="32" x2="32" y1="13.25" y2="43.15" gradientUnits="userSpaceOnUse" spreadMethod="reflect"><stop offset="0" stop-color="#6dc7ff"/><stop offset="1" stop-color="#e6abff"/></linearGradient><path fill="url(#L5afHHrKip~FO4DMIIVdqb)" d="M58,14v2.882L34.12,41.107C33.56,41.685,32.8,42,32,42s-1.56-0.315-2.12-0.893L6,16.882V14 l25.29,25.676c0.38,0.386,1.04,0.386,1.42,0L58,14z"/></svg>