<svg xmlns="http://www.w3.org/2000/svg"  viewBox="0 0 48 48" width="48px" height="48px"><linearGradient id="TDPd0qPsuxkq6t~hNSoRFa" x1="10.183" x2="36.857" y1="4.879" y2="41.792" gradientUnits="userSpaceOnUse"><stop offset="0" stop-color="#2aa4f4"/><stop offset="1" stop-color="#007ad9"/></linearGradient><path fill="url(#TDPd0qPsuxkq6t~hNSoRFa)" d="M37,4H11C9.895,4,9,4.895,9,6v36c0,1.105,0.895,2,2,2h26c1.105,0,2-0.895,2-2V6	C39,4.895,38.105,4,37,4z"/><path d="M21.915,15.501C20.582,14.168,19,15.125,19,16.708V20H9v8h10v3.292c0,1.958,1.645,2.478,2.915,1.208	l6.944-6.944c0.856-0.857,0.856-2.252,0-3.109L21.915,15.501z" opacity=".05"/><path d="M21.562,15.855c-0.89-0.89-2.062-0.253-2.062,0.854V20.5H9v7h10.5v3.791	c0,1.294,1.203,1.712,2.062,0.854l6.944-6.944c0.662-0.663,0.662-1.74,0-2.403L21.562,15.855z" opacity=".07"/><path fill="#50e6ff" d="M20,16.81V21H7c-0.552,0-1,0.448-1,1v4c0,0.552,0.448,1,1,1h13v4.19c0,0.72,0.87,1.08,1.379,0.571	l6.701-6.701c0.586-0.586,0.586-1.536,0-2.121l-6.701-6.701C20.87,15.729,20,16.09,20,16.81z"/></svg>