<svg xmlns="http://www.w3.org/2000/svg"  viewBox="0 0 48 48" width="48px" height="48px"><linearGradient id="jTpF6i9JifC4FKbx7KbMpa" x1="5.673" x2="33.613" y1="14.648" y2="42.588" gradientUnits="userSpaceOnUse"><stop offset="0" stop-color="#fede00"/><stop offset="1" stop-color="#ffd000"/></linearGradient><path fill="url(#jTpF6i9JifC4FKbx7KbMpa)" d="M24,44c8.199,0,15.237-4.939,18.324-12H5.676C8.763,39.061,15.801,44,24,44z"/><linearGradient id="jTpF6i9JifC4FKbx7KbMpb" x1="14.831" x2="42.554" y1="5.857" y2="33.58" gradientUnits="userSpaceOnUse"><stop offset="0" stop-color="#636363"/><stop offset=".998" stop-color="#3b3b3b"/></linearGradient><path fill="url(#jTpF6i9JifC4FKbx7KbMpb)" d="M24,4C15.801,4,8.763,8.939,5.676,16h36.649C39.237,8.939,32.199,4,24,4z"/><linearGradient id="jTpF6i9JifC4FKbx7KbMpc" x1="10.377" x2="38.577" y1="10.377" y2="38.577" gradientUnits="userSpaceOnUse"><stop offset="0" stop-color="#dfe9f2"/><stop offset=".998" stop-color="#9ea7b0"/></linearGradient><path fill="url(#jTpF6i9JifC4FKbx7KbMpc)" d="M42.324,16H5.676C4.604,18.451,4,21.154,4,24s0.604,5.549,1.676,8h36.649	C43.396,29.549,44,26.846,44,24S43.396,18.451,42.324,16z"/><linearGradient id="jTpF6i9JifC4FKbx7KbMpd" x1="10.009" x2="38.191" y1="10.009" y2="38.191" gradientUnits="userSpaceOnUse"><stop offset="0" stop-color="#f44f5a"/><stop offset=".443" stop-color="#ee3d4a"/><stop offset="1" stop-color="#e52030"/></linearGradient><path fill="url(#jTpF6i9JifC4FKbx7KbMpd)" d="M42.324,16H5.676C4.604,18.451,4,21.154,4,24s0.604,5.549,1.676,8h36.649	C43.396,29.549,44,26.846,44,24S43.396,18.451,42.324,16z"/></svg>