<svg xmlns="http://www.w3.org/2000/svg"  viewBox="0 0 48 48" width="96px" height="96px"><path fill="#50e6ff" d="M39,7v34c0,1.105-0.895,2-2,2H11c-1.105,0-2-0.895-2-2V7c0-1.105,0.895-2,2-2h26	C38.105,5,39,5.895,39,7z"/><path fill="#35c1f1" d="M33,38H15c-0.552,0-1-0.448-1-1V25c0-0.552,0.448-1,1-1h18c0.552,0,1,0.448,1,1v12	C34,37.552,33.552,38,33,38z"/><path fill="#35c1f1" d="M22,11h-7c-0.552,0-1,0.448-1,1v8c0,0.552,0.448,1,1,1h7c0.552,0,1-0.448,1-1v-8	C23,11.448,22.552,11,22,11z"/><path fill="#35c1f1" d="M33,11h-7c-0.552,0-1,0.448-1,1v8c0,0.552,0.448,1,1,1h7c0.552,0,1-0.448,1-1v-8	C34,11.448,33.552,11,33,11z"/><radialGradient id="B3s1hpcQgpn1gnjWCf7F9a" cx="38.045" cy="37.976" r="11.968" gradientUnits="userSpaceOnUse"><stop offset="0"/><stop offset="1" stop-opacity="0"/></radialGradient><path fill="url(#B3s1hpcQgpn1gnjWCf7F9a)" d="M38,26c-6.627,0-12,5.373-12,12c0,1.787,0.401,3.476,1.102,5H37c1.105,0,2-0.895,2-2V26.05	C38.669,26.023,38.338,26,38,26z"/><polygon fill="#fdb700" points="38,28 40.329,29.307 43,29.34 44.364,31.636 46.66,33 46.693,35.671 48,38 46.693,40.329 46.66,43 44.364,44.364 43,46.66 40.329,46.693 38,48 35.671,46.693 33,46.66 31.636,44.364 29.34,43 29.307,40.329 28,38 29.307,35.671 29.34,33 31.636,31.636 33,29.34 35.671,29.307"/><linearGradient id="B3s1hpcQgpn1gnjWCf7F9b" x1="31" x2="45" y1="38" y2="38" gradientUnits="userSpaceOnUse"><stop offset="0" stop-color="#fede00"/><stop offset="1" stop-color="#ffd000"/></linearGradient><circle cx="38" cy="38" r="7" fill="url(#B3s1hpcQgpn1gnjWCf7F9b)"/></svg>