<svg height="96px"  viewBox="0 0 48 48" width="96px" xmlns="http://www.w3.org/2000/svg"><linearGradient gradientUnits="userSpaceOnUse" id="EpIQZGgv1Ah4nJbJVNbTSa" x1="6.414" x2="41.774" y1="13.662" y2="39.488"><stop offset="0" stop-color="#28afea"/><stop offset="1" stop-color="#047ed6"/></linearGradient><path d="M6,40V12h36v28c0,1.1-0.9,2-2,2H8C6.9,42,6,41.1,6,40z" fill="url(#EpIQZGgv1Ah4nJbJVNbTSa)"/><linearGradient gradientUnits="userSpaceOnUse" id="EpIQZGgv1Ah4nJbJVNbTSb" x1="6.42" x2="41.198" y1="6.608" y2="13.68"><stop offset="0" stop-color="#0077d2"/><stop offset="1" stop-color="#0b59a2"/></linearGradient><path d="M42,8v6H6V8c0-1.1,0.9-2,2-2h32C41.1,6,42,6.9,42,8z" fill="url(#EpIQZGgv1Ah4nJbJVNbTSb)"/><path d="M35.5,12.5L35.5,12.5c-1.657,0-3-1.343-3-3V6h6v3.5C38.5,11.157,37.157,12.5,35.5,12.5z" opacity=".05"/><path d="M35.5,11.75L35.5,11.75c-1.243,0-2.25-1.007-2.25-2.25V6h4.5v3.5	C37.75,10.743,36.743,11.75,35.5,11.75z" opacity=".07"/><path d="M35.5,11L35.5,11c-0.828,0-1.5-0.672-1.5-1.5v-4C34,4.672,34.672,4,35.5,4l0,0	C36.328,4,37,4.672,37,5.5v4C37,10.328,36.328,11,35.5,11z" fill="#3ccbf4"/><path d="M12.5,12.5L12.5,12.5c-1.657,0-3-1.343-3-3V6h6v3.5C15.5,11.157,14.157,12.5,12.5,12.5z" opacity=".05"/><path d="M12.5,11.75L12.5,11.75c-1.243,0-2.25-1.007-2.25-2.25V6h4.5v3.5	C14.75,10.743,13.743,11.75,12.5,11.75z" opacity=".07"/><path d="M12.5,11L12.5,11c-0.828,0-1.5-0.672-1.5-1.5v-4C11,4.672,11.672,4,12.5,4h0	C13.328,4,14,4.672,14,5.5v4C14,10.328,13.328,11,12.5,11z" fill="#3ccbf4"/><path d="M27,29v6c0,1.105,0.895,2,2,2h6c1.105,0,2-0.895,2-2v-6c0-1.105-0.895-2-2-2h-6	C27.895,27,27,27.895,27,29z" opacity=".05"/><path d="M35,36.5h-6c-0.828,0-1.5-0.672-1.5-1.5v-6c0-0.828,0.672-1.5,1.5-1.5h6c0.828,0,1.5,0.672,1.5,1.5v6	C36.5,35.828,35.828,36.5,35,36.5z" opacity=".07"/><path d="M36,29v6c0,0.552-0.448,1-1,1h-6c-0.552,0-1-0.448-1-1v-6c0-0.552,0.448-1,1-1h6	C35.552,28,36,28.448,36,29z" fill="#fff"/></svg>
