<?xml version="1.0" standalone="no"?>
<!DOCTYPE svg PUBLIC "-//W3C//DTD SVG 20010904//EN"
 "http://www.w3.org/TR/2001/REC-SVG-20010904/DTD/svg10.dtd">
<svg version="1.0" xmlns="http://www.w3.org/2000/svg"
 width="700.000000pt" height="700.000000pt" viewBox="0 0 700.000000 700.000000"
 preserveAspectRatio="xMidYMid meet">
<metadata>
Created by potrace 1.11, written by Peter Selinger 2001-2013
</metadata>
<g transform="translate(0.000000,700.000000) scale(0.100000,-0.100000)"
fill="#000000" stroke="none">
<path d="M1600 6817 c-30 -16 -51 -37 -67 -67 -23 -43 -23 -46 -23 -409 l0
-366 -264 -265 c-228 -228 -266 -271 -276 -307 -30 -116 78 -230 197 -208 32
6 62 31 191 158 l152 151 0 -174 0 -173 -59 -62 c-66 -69 -86 -117 -72 -177
23 -99 128 -161 218 -127 45 16 232 208 243 249 6 19 10 131 10 248 l0 213
143 -145 c113 -113 153 -147 184 -156 150 -45 270 119 184 251 -16 24 -137
152 -270 284 l-241 240 0 355 c0 202 -4 370 -10 390 -5 20 -24 50 -42 67 -60
58 -126 68 -198 30z"/>
<path d="M3395 6674 c-300 -11 -594 -62 -870 -151 -117 -37 -166 -66 -190
-113 -22 -42 -19 -115 6 -159 52 -91 119 -101 302 -42 141 45 366 93 527 113
155 19 545 16 700 -5 164 -23 355 -67 513 -118 l127 -42 0 -238 c0 -268 -5
-293 -74 -388 -67 -91 -145 -128 -413 -196 -97 -24 -205 -58 -240 -74 -86 -41
-156 -113 -201 -209 -36 -76 -37 -79 -36 -192 1 -90 7 -136 28 -212 72 -269
228 -504 382 -575 169 -77 357 20 523 273 36 55 109 183 161 283 98 189 148
261 180 261 36 0 89 -62 219 -254 184 -271 255 -335 415 -376 64 -16 111 -20
252 -20 171 0 175 0 366 -46 106 -26 194 -47 195 -48 8 -6 54 -311 63 -411 58
-692 -140 -1381 -558 -1942 -107 -143 -355 -398 -492 -507 -47 -38 -95 -84
-107 -104 -44 -72 -22 -172 47 -218 47 -31 98 -40 144 -24 44 14 180 123 333
266 l111 104 7 -83 c12 -144 -22 -323 -78 -420 -171 -292 -680 -235 -1301 145
-439 268 -917 695 -1318 1175 -218 261 -402 532 -580 852 l-68 124 25 33 c14
18 69 72 122 121 187 168 269 255 302 321 42 83 61 161 61 248 0 86 -16 134
-69 213 -145 213 -396 262 -630 124 -35 -21 -92 -69 -127 -106 l-63 -68 -45
138 c-25 76 -61 197 -80 268 -20 72 -44 141 -54 155 -29 41 -100 72 -150 67
-80 -9 -152 -86 -152 -164 0 -75 169 -606 282 -888 296 -733 675 -1339 1180
-1885 692 -749 1426 -1242 2028 -1361 157 -32 369 -32 484 0 107 29 210 81
284 144 255 217 335 570 242 1073 l-23 120 36 50 c58 80 174 281 232 401 389
799 424 1733 98 2558 -427 1079 -1414 1844 -2558 1984 -164 20 -359 30 -500
25z"/>
<path d="M709 4947 c-38 -20 -50 -35 -91 -115 -84 -167 -182 -459 -226 -677
-126 -615 -72 -1246 155 -1820 416 -1051 1374 -1813 2483 -1975 190 -28 459
-44 510 -30 149 40 173 243 36 309 -32 16 -62 21 -122 21 -426 0 -933 136
-1330 357 l-105 58 42 7 c119 21 232 77 472 235 170 112 217 177 184 254 -8
19 -56 84 -107 144 -268 321 -509 682 -705 1059 -47 89 -96 173 -109 185 -13
12 -41 25 -63 27 -39 5 -45 2 -132 -61 -191 -140 -514 26 -513 262 0 68 17
112 80 208 98 152 129 247 116 351 -7 64 -36 105 -93 133 -71 36 -126 41 -316
32 -99 -5 -182 -7 -184 -5 -3 3 9 75 27 162 37 188 93 368 173 555 68 158 75
210 36 268 -26 39 -97 79 -143 79 -17 0 -51 -10 -75 -23z"/>
<path d="M5345 3334 c-139 -35 -296 -107 -461 -210 -56 -35 -114 -68 -128 -74
-45 -17 -147 -11 -280 15 -164 33 -258 33 -317 2 -145 -77 -109 -226 108 -439
216 -213 489 -368 654 -372 56 -1 74 4 130 32 144 76 262 164 394 296 138 139
214 239 271 359 62 131 55 222 -24 309 -59 66 -101 82 -222 84 -58 2 -114 0
-125 -2z"/>
</g>
</svg>
