<?xml version="1.0" standalone="no"?>
<!DOCTYPE svg PUBLIC "-//W3C//DTD SVG 20010904//EN"
  "http://www.w3.org/TR/2001/REC-SVG-20010904/DTD/svg10.dtd">
<svg version="1.0" xmlns="http://www.w3.org/2000/svg"
     width="558.000000pt" height="558.000000pt" viewBox="0 0 558.000000 558.000000"
     preserveAspectRatio="xMidYMid meet">
  <metadata>
    Created by potrace 1.11, written by Peter Selinger 2001-2013
  </metadata>
  <g transform="translate(0.000000,558.000000) scale(0.100000,-0.100000)"
     fill="#000000" stroke="none">
    <path d="M1354 5435 c-77 -29 -158 -130 -180 -225 -13 -60 -14 -64 -21 -105
-8 -50 -8 -251 0 -330 7 -75 28 -218 32 -225 2 -3 6 -25 10 -50 4 -25 8 -48
11 -51 2 -4 6 -24 10 -45 3 -22 12 -62 20 -90 8 -28 16 -60 19 -70 9 -45 78
-266 123 -399 31 -89 46 -145 39 -146 -7 0 -21 -3 -32 -5 -11 -3 -33 -7 -50
-9 -67 -10 -317 -65 -420 -93 -380 -103 -627 -222 -780 -377 -96 -95 -130
-165 -129 -259 0 -93 7 -118 46 -183 80 -133 280 -270 535 -367 101 -38 128
-48 128 -46 0 1 14 -4 30 -10 17 -7 37 -14 45 -16 8 -2 83 -21 165 -43 83 -21
167 -42 189 -45 21 -4 41 -8 45 -10 3 -2 26 -7 51 -11 158 -23 185 -30 184
-50 -1 -11 -25 -87 -54 -170 -49 -141 -115 -358 -124 -408 -2 -12 -10 -42 -17
-67 -16 -58 -48 -220 -64 -320 -28 -188 -26 -406 6 -525 52 -194 191 -281 379
-236 209 49 528 296 810 627 23 27 52 60 63 74 12 14 40 48 61 75 22 28 44 55
48 60 5 6 30 38 57 72 l49 63 22 -47 c69 -147 266 -370 483 -546 25 -21 52
-43 59 -50 7 -7 51 -44 98 -82 265 -218 300 -273 295 -468 -1 -53 1 -97 4 -97
12 0 56 34 97 75 96 96 189 270 263 492 52 156 80 277 107 463 3 19 8 49 10
65 3 17 6 122 7 235 2 185 -2 248 -19 332 -4 21 -2 27 8 23 7 -2 30 -7 52 -10
21 -3 42 -8 47 -11 5 -3 22 -8 36 -10 59 -11 121 -65 168 -147 24 -41 30 -46
42 -35 18 19 28 93 27 198 -1 116 -18 212 -64 360 -11 36 -20 68 -20 72 0 4
17 10 38 13 84 15 309 78 497 140 214 71 320 99 335 90 6 -4 10 -3 10 2 0 9
62 8 111 -2 36 -7 147 -64 187 -96 43 -33 49 -11 27 93 -6 30 -35 102 -66 163
-22 42 -99 167 -110 175 -3 3 -10 12 -15 22 -37 68 -305 338 -419 423 -22 17
-42 33 -45 36 -7 10 -160 119 -167 119 -3 0 -17 8 -31 19 -27 19 -81 50 -163
93 -38 21 -170 75 -222 92 -17 5 -17 8 -2 28 32 47 121 131 160 150 26 14 66
22 120 25 44 3 82 6 83 8 8 8 -36 55 -83 90 -97 72 -252 135 -421 170 l-80 18
28 96 c16 53 36 125 44 161 8 36 17 74 19 85 3 11 8 36 11 55 3 19 12 60 19
90 8 30 16 69 18 85 12 74 52 215 77 270 35 77 102 143 190 185 39 19 70 39
70 46 0 10 -35 29 -60 32 -3 0 -18 6 -34 12 -96 36 -395 31 -556 -10 -19 -5
-50 -12 -69 -15 -19 -3 -37 -8 -41 -10 -4 -2 -20 -6 -36 -9 -83 -15 -342 -111
-479 -178 -102 -50 -290 -162 -315 -188 -3 -3 -25 -21 -50 -40 -52 -40 -193
-180 -261 -258 l-46 -53 -68 88 c-38 48 -80 102 -94 119 -14 17 -38 46 -53 65
-15 20 -37 47 -50 61 -13 14 -53 59 -90 100 -122 137 -248 255 -405 378 -76
60 -248 151 -316 167 -58 13 -164 12 -203 -2z m244 -129 c88 -31 245 -132 328
-211 17 -16 58 -55 90 -86 95 -90 241 -248 304 -329 19 -25 40 -51 47 -58 7
-7 39 -48 70 -90 32 -42 63 -83 69 -89 7 -7 22 -28 34 -47 25 -41 37 -12 -105
-231 -106 -162 -118 -181 -180 -292 -26 -46 -50 -85 -54 -87 -4 -3 -55 -8
-112 -11 -184 -11 -298 -22 -472 -46 -48 -7 -82 -8 -88 -2 -28 28 -200 592
-234 768 -59 309 -62 563 -9 691 20 49 71 102 117 123 47 22 128 20 195 -3z
m2732 -178 c0 -2 -24 -29 -54 -61 -73 -77 -125 -186 -141 -292 -3 -22 -7 -47
-10 -55 -2 -8 -6 -35 -9 -60 -15 -119 -109 -422 -159 -516 -9 -16 -23 -44 -32
-63 -26 -57 -94 -161 -160 -246 -135 -173 -355 -347 -501 -395 -90 -30 -219
-30 -297 -1 -15 6 -27 8 -27 6 0 -9 -141 66 -193 102 l-51 36 33 -41 c58 -74
169 -167 248 -209 114 -60 207 -74 338 -49 31 6 38 8 274 76 134 39 261 69
356 85 74 13 265 13 333 0 135 -26 299 -102 476 -219 61 -41 124 -84 140 -97
250 -202 380 -341 496 -533 l23 -38 -34 7 c-19 4 -38 10 -44 13 -16 10 -34 12
-121 13 -88 0 -163 -16 -262 -56 -111 -45 -328 -108 -417 -120 -16 -2 -48 -8
-70 -11 -87 -15 -315 -21 -405 -9 -290 36 -580 160 -721 309 -85 89 -132 229
-133 393 0 104 -7 133 -19 81 -2 -13 -12 -50 -21 -83 -29 -104 -38 -216 -23
-300 11 -70 10 -65 39 -125 37 -76 82 -125 304 -341 299 -289 409 -467 441
-714 14 -111 8 -426 -11 -530 -2 -11 -7 -42 -11 -70 -12 -85 -72 -327 -100
-400 -31 -84 -113 -237 -124 -231 -4 3 -8 22 -9 43 -2 21 -7 42 -12 47 -6 6
-10 17 -10 26 0 45 -107 175 -194 237 -17 12 -35 26 -41 30 -5 5 -32 26 -60
48 -27 22 -52 42 -55 45 -3 3 -39 34 -80 70 -179 157 -331 329 -485 550 -60
85 -111 157 -115 160 -14 10 -290 433 -290 444 0 3 100 5 223 4 122 0 269 0
327 1 58 1 111 2 118 2 10 -1 12 -10 6 -34 -20 -90 -1 -202 54 -316 44 -92 87
-148 170 -226 111 -103 156 -149 189 -191 35 -44 94 -158 113 -216 6 -21 14
-38 17 -38 5 0 -3 109 -11 145 -31 150 -80 230 -263 435 -13 14 -23 28 -23 32
0 3 -6 13 -13 20 -18 19 -67 124 -67 143 0 9 -4 24 -9 33 -5 9 -11 35 -15 57
-3 22 -9 54 -12 70 -4 17 -7 106 -7 200 l1 169 -37 -74 -36 -75 -55 -6 c-45
-5 -603 -4 -717 2 -29 1 -36 10 -106 128 -70 118 -268 497 -296 568 -12 30
-10 38 46 150 32 65 61 120 66 121 4 2 7 10 7 17 0 8 14 37 30 65 17 28 30 54
30 57 0 9 180 322 189 327 19 12 124 18 329 21 205 2 260 -3 197 -19 -14 -4
-25 -11 -25 -16 0 -5 6 -8 13 -5 6 2 43 6 81 10 135 11 178 20 274 57 28 11
52 24 52 29 0 5 6 9 13 9 21 0 104 88 151 160 42 63 90 169 100 220 23 120 52
233 74 284 29 69 96 174 141 224 76 82 -58 -13 -145 -104 -79 -81 -119 -155
-174 -314 -37 -109 -78 -194 -110 -230 -12 -14 -32 -36 -44 -50 -11 -14 -51
-50 -88 -80 l-66 -55 -344 2 c-188 1 -344 2 -345 3 -4 0 104 171 203 320 115
174 186 246 479 495 32 28 70 60 84 72 14 13 31 27 38 33 36 30 191 125 274
168 193 99 527 212 674 229 28 3 51 6 52 7 4 3 193 7 193 4z m-190 -1133 c19
-2 46 -7 60 -10 14 -3 41 -8 60 -11 42 -7 140 -43 201 -74 l44 -23 -45 -15
c-73 -24 -145 -78 -197 -148 l-48 -64 -70 6 c-99 10 -173 11 -225 3 -25 -4
-62 -10 -84 -13 l-38 -5 68 67 c69 69 133 159 175 248 19 41 28 51 44 47 11
-2 36 -6 55 -8z m-2033 -353 c-3 -4 -24 -38 -47 -77 -24 -38 -92 -165 -151
-281 l-107 -211 -28 61 c-16 34 -32 63 -36 64 -5 2 -8 9 -8 16 0 7 -17 51 -39
97 -50 109 -115 279 -109 284 10 10 137 29 278 41 41 4 76 7 77 8 7 5 173 4
170 -2z m-596 -160 c59 -153 128 -310 188 -432 l52 -106 -80 -164 c-43 -91
-107 -236 -142 -322 -60 -149 -64 -156 -88 -153 -89 12 -327 56 -431 80 -138
31 -327 89 -445 138 -289 117 -449 265 -449 412 0 28 3 59 6 70 16 55 21 65
28 65 5 0 11 8 14 18 22 69 222 205 416 282 140 56 417 136 570 166 105 20
277 50 296 52 20 1 28 -12 65 -106z m349 -782 c52 -112 169 -333 216 -407 18
-29 30 -55 25 -57 -8 -6 -138 0 -201 9 -19 2 -64 7 -100 11 -36 4 -72 7 -80 9
-8 1 -41 5 -73 10 -31 4 -60 11 -63 16 -13 22 210 531 225 513 4 -5 27 -52 51
-104z m1994 -419 c3 -5 18 -11 33 -14 16 -2 55 -12 88 -22 35 -9 106 -18 169
-20 l109 -2 19 -49 c59 -155 75 -215 84 -333 l6 -64 -37 31 c-62 55 -160 93
-264 104 -19 2 -28 13 -41 53 -27 80 -85 187 -139 259 -28 36 -46 66 -41 66 5
0 11 -4 14 -9z m-2200 -127 c10 -2 44 -6 75 -10 31 -3 65 -8 76 -10 18 -4 115
-12 215 -19 19 -2 64 -3 100 -4 l65 -1 60 -98 c77 -126 187 -294 264 -404 l61
-86 -57 -79 c-32 -43 -60 -80 -63 -83 -3 -3 -19 -23 -35 -45 -27 -37 -153
-194 -165 -205 -3 -3 -20 -23 -39 -45 -69 -82 -250 -262 -332 -330 -55 -46
-158 -115 -214 -143 -230 -116 -382 -41 -421 208 -18 109 -3 330 31 490 3 14
8 36 10 50 8 52 56 237 70 273 8 20 13 37 10 37 -3 0 4 24 14 53 10 28 24 72
32 97 11 38 102 297 124 353 7 18 25 18 119 1z"/>
    <path d="M2557 3313 c-2 -5 -3 -61 -2 -125 1 -65 1 -118 -1 -118 -1 0 -40 36
-85 80 -46 44 -89 80 -95 80 -7 0 -26 -16 -44 -36 l-32 -37 59 -60 c32 -34 71
-73 87 -89 l28 -28 -125 0 c-91 0 -126 -3 -129 -12 -6 -17 -2 -97 4 -104 3 -3
58 -6 122 -6 64 0 116 -2 116 -5 0 -2 -36 -40 -80 -85 -44 -45 -80 -86 -79
-92 0 -6 18 -26 39 -43 l37 -33 87 84 c47 46 87 79 87 73 1 -7 3 -55 4 -107 2
-52 3 -103 4 -113 1 -15 9 -18 59 -15 l57 3 2 120 c0 66 2 121 2 123 1 2 38
-33 84 -77 45 -45 87 -81 94 -81 11 0 73 59 73 70 0 3 -36 43 -80 88 -44 45
-80 83 -80 85 0 2 52 4 116 5 63 0 118 3 122 7 4 3 8 28 9 54 3 46 2 49 -24
56 -16 4 -73 6 -127 6 -113 -2 -112 -9 -16 89 90 91 88 86 50 125 -19 19 -39
35 -45 35 -6 0 -46 -36 -90 -79 -43 -44 -81 -78 -84 -76 -3 1 -6 54 -5 117 0
69 -4 116 -10 120 -14 10 -104 10 -109 1z m115 -338 c30 -35 31 -76 3 -109
-46 -54 -138 -18 -138 54 0 71 89 107 135 55z"/>
    <path d="M3290 3135 c0 -3 24 -38 52 -78 113 -156 182 -218 285 -257 74 -28
95 -31 208 -35 104 -3 147 5 355 68 47 14 99 28 115 32 37 7 201 7 235 0 14
-3 41 -7 60 -10 32 -5 30 -3 -21 23 -31 16 -92 39 -135 50 -97 27 -231 24
-384 -7 -109 -22 -188 -27 -256 -16 -116 20 -295 95 -416 175 -71 48 -98 63
-98 55z"/>
  </g>
</svg>
