<svg xmlns="http://www.w3.org/2000/svg">
  <defs>
    <symbol id="icon-available-updates" viewBox="0 0 48 48">
      <linearGradient gradientUnits="userSpaceOnUse" id="aa" x1="25.442" x2="8.643" y1="19.5" y2="19.5">
        <stop offset="0" stop-color="#007ccf"/>
        <stop offset=".317" stop-color="#0074c7"/>
        <stop offset=".818" stop-color="#005eb0"/>
        <stop offset="1" stop-color="#0055a6"/>
      </linearGradient>
      <linearGradient gradientUnits="userSpaceOnUse" id="ab" x1="9.791" x2="20.131" y1="7.024" y2="56.354">
        <stop offset="0" stop-color="#32bdef"/>
        <stop offset="1" stop-color="#1ea2e4"/>
      </linearGradient>
      <linearGradient gradientTransform="rotate(180 24 24)" gradientUnits="userSpaceOnUse" id="ac" x1="26.442" x2="9.643" y1="19.5" y2="19.5">
        <stop offset="0" stop-color="#007ccf"/>
        <stop offset=".317" stop-color="#0074c7"/>
        <stop offset=".818" stop-color="#005eb0"/>
        <stop offset="1" stop-color="#0055a6"/>
      </linearGradient>
      <linearGradient gradientTransform="rotate(180 24 24)" gradientUnits="userSpaceOnUse" id="ad" x1="10.791" x2="21.131" y1="7.024" y2="56.354">
        <stop offset="0" stop-color="#32bdef"/>
        <stop offset="1" stop-color="#1ea2e4"/>
      </linearGradient>
      <path d="M23 12h1a1 1 0 001-1V7a1 1 0 00-1-1h-1C14.163 6 7 13.163 7 22v11h6V22c0-5.523 4.477-10 10-10z" fill="url(#aa)"/>
      <path d="M23 6C14.163 6 7 13.163 7 22v11H2.81c-.72 0-1.08.87-.571 1.379L8.94 41.08a1.5 1.5 0 002.121 0l6.701-6.701c.509-.509.148-1.379-.572-1.379H13V17C13 7 23 6 23 6z" fill="url(#ab)"/>
      <path d="M24 36h-1a1 1 0 00-1 1v4a1 1 0 001 1h1c8.837 0 16-7.163 16-16V15h-6v11c0 5.523-4.477 10-10 10z" fill="url(#ac)"/>
      <path d="M24 42c8.837 0 16-7.163 16-16V15h4.19c.72 0 1.08-.87.571-1.379l-6.7-6.701a1.5 1.5 0 00-2.121 0l-6.701 6.701A.807.807 0 0029.81 15H34v16c0 10-10 11-10 11z" fill="url(#ad)"/>
    </symbol>
    <symbol id="icon-barcode-scanner-2" viewBox="0 0 48 48">
      <path d="M10.5 6C8.585 6 7 7.585 7 9.5v1.605c0 5.823 5.266 10.307 11.014 9.38l7.095-1.145c.641 1.667 1.418 2.771 2.026 3.365.715.699.912.708 1.176 1.762.269 1.078.075 1.407-.276 2.152-.35.745-1.008 2.02-.629 3.588.362 1.493 1.271 2.37 1.772 2.975.5.605.758.91.785 2.043.041 1.768.04 4.275.04 4.275 0 2.468 2.033 4.5 4.5 4.5h.995c3.485 0 6.125-3.291 5.37-6.693l-4.403-19.815C39.07 17.025 41 14.751 41 12.094V11.5C41 8.48 38.52 6 35.5 6h-25zm0 3h25c1.398 0 2.5 1.102 2.5 2.5v.594c0 1.238-.88 2.27-2.102 2.467l-18.363 2.962A6.47 6.47 0 0110 11.105V9.5c0-.295.205-.5.5-.5zm23.002 8.986l4.437 19.971A2.47 2.47 0 0135.498 41h-.994c-.847 0-1.5-.654-1.5-1.5 0 0 .002-2.512-.041-4.346-.043-1.812-.822-3.096-1.473-3.883-.65-.786-1.007-1.106-1.168-1.769-.14-.58.016-.734.426-1.606.41-.87.925-2.344.473-4.156-.42-1.683-1.397-2.602-1.99-3.181-.413-.403-.763-.914-1.12-1.704l5.391-.869zM7.477 30.98A1.5 1.5 0 006 32.5v9a1.5 1.5 0 103 0v-9a1.5 1.5 0 00-1.523-1.521zm15 0A1.5 1.5 0 0021 32.5v9a1.5 1.5 0 103 0v-9a1.5 1.5 0 00-1.523-1.521zm-4.493.007A1 1 0 0017 32v10a1 1 0 102 0V32a1 1 0 00-1.016-1.014zM12 31a1 1 0 00-1 1v10a1 1 0 001 1h2a1 1 0 001-1V32a1 1 0 00-1-1h-2z"/>
    </symbol>
    <symbol viewBox="0 0 48 48" id="icon-checkmark">
      <linearGradient gradientUnits="userSpaceOnUse" id="ca" x1="21.241" x2="3.541" y1="39.241" y2="21.541">
        <stop offset=".108" stop-color="#0d7044"/>
        <stop offset=".433" stop-color="#11945a"/>
      </linearGradient>
      <linearGradient gradientTransform="rotate(134.999 21.287 38.873)" gradientUnits="userSpaceOnUse" id="cb" x1="-15.77" x2="26.403" y1="43.228" y2="43.228">
        <stop offset="0" stop-color="#2ac782"/>
        <stop offset="1" stop-color="#21b876"/>
      </linearGradient>
      <path d="M16.599 41.42L1.58 26.401a1.98 1.98 0 010-2.802l4.019-4.019a1.98 1.98 0 012.802 0L23.42 34.599a1.98 1.98 0 010 2.802l-4.019 4.019a1.983 1.983 0 01-2.802 0z" fill="url(#ca)"/>
      <path d="M12.58 34.599L39.599 7.58a1.98 1.98 0 012.802 0l4.019 4.019a1.98 1.98 0 010 2.802L19.401 41.42a1.98 1.98 0 01-2.802 0l-4.019-4.019a1.983 1.983 0 010-2.802z" fill="url(#cb)"/>
    </symbol>
    <symbol viewBox="0 0 48 48" id="icon-conference">
      <path d="M24 3c-1.542 0-2.888.632-3.746 1.598C19.396 5.563 19 6.792 19 8c0 1.208.396 2.437 1.254 3.402C21.112 12.368 22.458 13 24 13c1.542 0 2.888-.632 3.746-1.598C28.604 10.437 29 9.208 29 8c0-1.208-.396-2.437-1.254-3.402C26.888 3.632 25.542 3 24 3zm0 3c.792 0 1.195.243 1.504.59.308.347.496.868.496 1.41 0 .542-.188 1.063-.496 1.41-.309.347-.712.59-1.504.59s-1.195-.243-1.504-.59C22.188 9.063 22 8.542 22 8c0-.542.188-1.063.496-1.41.309-.347.712-.59 1.504-.59zM13 9c-1.875 0-3.471.757-4.496 1.91C7.479 12.063 7 13.542 7 15c0 1.458.479 2.937 1.504 4.09S11.125 21 13 21c1.875 0 3.471-.757 4.496-1.91C18.521 17.937 19 16.458 19 15c0-1.458-.479-2.937-1.504-4.09S14.875 9 13 9zm22 0c-1.875 0-3.471.757-4.496 1.91C29.479 12.063 29 13.542 29 15c0 1.458.479 2.937 1.504 4.09S33.125 21 35 21c1.875 0 3.471-.757 4.496-1.91C40.521 17.937 41 16.458 41 15c0-1.458-.479-2.937-1.504-4.09S36.875 9 35 9zm-22 3c1.125 0 1.779.368 2.254.902.475.535.746 1.306.746 2.098 0 .792-.271 1.563-.746 2.098-.475.534-1.129.902-2.254.902s-1.779-.368-2.254-.902C10.271 16.563 10 15.792 10 15c0-.792.271-1.563.746-2.098C11.221 12.368 11.875 12 13 12zm22 0c1.125 0 1.779.368 2.254.902.475.535.746 1.306.746 2.098 0 .792-.271 1.563-.746 2.098-.475.534-1.129.902-2.254.902s-1.779-.368-2.254-.902C32.271 16.563 32 15.792 32 15c0-.792.271-1.563.746-2.098C33.221 12.368 33.875 12 35 12zm-11 7c-1.875 0-3.471.757-4.496 1.91C18.479 22.063 18 23.542 18 25c0 1.458.479 2.937 1.504 4.09S22.125 31 24 31c1.875 0 3.471-.757 4.496-1.91C29.521 27.937 30 26.458 30 25c0-1.458-.479-2.937-1.504-4.09S25.875 19 24 19zm0 3c1.125 0 1.779.368 2.254.902.475.535.746 1.306.746 2.098 0 .792-.271 1.563-.746 2.098-.475.534-1.129.902-2.254.902s-1.779-.368-2.254-.902C21.271 26.563 21 25.792 21 25c0-.792.271-1.563.746-2.098C22.221 22.368 22.875 22 24 22zM7.5 23C5.57 23 4 24.57 4 26.5V29c0 3.36 3.95 6 9 6h.21a5.524 5.524 0 013.15-3.57c-.95.35-2.1.57-3.36.57-3.43 0-6-1.58-6-3v-2.5c0-.28.22-.5.5-.5h8.56a8.239 8.239 0 01.19-3H7.5zm24.25 0a8.239 8.239 0 01.19 3h8.56c.28 0 .5.22.5.5V29c0 1.42-2.57 3-6 3-1.26 0-2.41-.22-3.36-.57A5.524 5.524 0 0134.79 35H35c5.05 0 9-2.64 9-6v-2.5c0-1.93-1.57-3.5-3.5-3.5h-8.75zM18.5 33c-1.915 0-3.5 1.585-3.5 3.5V39c0 1.918 1.28 3.481 2.926 4.469C19.572 44.456 21.686 45 24 45s4.428-.544 6.074-1.531C31.72 42.48 33 40.919 33 39v-2.5c0-1.915-1.585-3.5-3.5-3.5h-11zm0 3h11c.295 0 .5.205.5.5V39c0 .567-.4 1.255-1.469 1.896C27.463 41.538 25.828 42 24 42c-1.828 0-3.463-.462-4.531-1.104C18.4 40.256 18 39.566 18 39v-2.5c0-.295.205-.5.5-.5z"/>
    </symbol>
    <symbol viewBox="0 0 48 48" id="icon-contact-card">
      <path d="M8.5 8C6.032 8 4 10.032 4 12.5v23C4 37.968 6.032 40 8.5 40h31c2.468 0 4.5-2.032 4.5-4.5v-23c0-2.468-2.032-4.5-4.5-4.5h-31zm0 3h31c.846 0 1.5.654 1.5 1.5v23c0 .846-.654 1.5-1.5 1.5h-31c-.846 0-1.5-.654-1.5-1.5v-23c0-.846.654-1.5 1.5-1.5zm7.5 6a3 3 0 000 6 3 3 0 000-6zm10.5 2a1.5 1.5 0 100 3h9a1.5 1.5 0 100-3h-9zm-14 6a1.5 1.5 0 00-1.5 1.5c0 1.5 0 4.5 4.9 4.5h.2c4.9 0 4.9-3 4.9-4.5a1.5 1.5 0 00-1.5-1.5h-7zm14 1a1.5 1.5 0 100 3h9a1.5 1.5 0 100-3h-9z"/>
    </symbol>
    <symbol viewBox="0 0 48 48" id="icon-contacts">
      <path d="M13.5 4C10.48 4 8 6.48 8 9.5v29c0 3.02 2.48 5.5 5.5 5.5h26a1.5 1.5 0 100-3h-26a2.47 2.47 0 01-2.45-2H39.5a1.5 1.5 0 001.5-1.5v-28C41 6.48 38.52 4 35.5 4h-22zm0 3h22C36.898 7 38 8.102 38 9.5V36H11V9.5C11 8.102 12.102 7 13.5 7zm11 4c-2.468 0-4.5 2.032-4.5 4.5s2.032 4.5 4.5 4.5 4.5-2.032 4.5-4.5-2.032-4.5-4.5-4.5zm0 3c.846 0 1.5.654 1.5 1.5s-.654 1.5-1.5 1.5-1.5-.654-1.5-1.5.654-1.5 1.5-1.5zm-5 8a2.522 2.522 0 00-2.5 2.5V27c0 1.661 1.13 2.97 2.502 3.771C20.875 31.572 22.607 32 24.5 32c1.893 0 3.625-.428 4.998-1.229C30.871 29.971 32 28.661 32 27v-2.5c0-1.364-1.136-2.5-2.5-2.5h-10zm.5 3h9v2c0 .272-.215.714-1.014 1.18-.799.466-2.065.82-3.486.82-1.42 0-2.687-.354-3.486-.82-.8-.466-1.014-.908-1.014-1.18v-2z"/>
    </symbol>
    <symbol viewBox="0 0 48 48" id="icon-delete-sign">
      <linearGradient gradientUnits="userSpaceOnUse" id="ga" x1="7.534" x2="27.557" y1="7.534" y2="27.557">
        <stop offset="0" stop-color="#f44f5a"/>
        <stop offset=".443" stop-color="#ee3d4a"/>
        <stop offset="1" stop-color="#e52030"/>
      </linearGradient>
      <linearGradient gradientUnits="userSpaceOnUse" id="gb" x1="27.373" x2="40.507" y1="27.373" y2="40.507">
        <stop offset="0" stop-color="#a8142e"/>
        <stop offset=".179" stop-color="#ba1632"/>
        <stop offset=".243" stop-color="#c21734"/>
      </linearGradient>
      <path d="M42.42 12.401a1.98 1.98 0 000-2.802L38.401 5.58a1.98 1.98 0 00-2.802 0L24 17.179 12.401 5.58a1.98 1.98 0 00-2.802 0L5.58 9.599a1.98 1.98 0 000 2.802L17.179 24 5.58 35.599a1.98 1.98 0 000 2.802l4.019 4.019a1.98 1.98 0 002.802 0L42.42 12.401z" fill="url(#ga)"/>
      <path d="M24 30.821L35.599 42.42a1.98 1.98 0 002.802 0l4.019-4.019a1.98 1.98 0 000-2.802L30.821 24 24 30.821z" fill="url(#gb)"/>
    </symbol>
    <symbol viewBox="0 0 48 48" id="icon-email">
      <path d="M24 4C12.972 4 4 12.972 4 24s8.972 20 20 20c2.468 0 4.84-.448 7.027-1.27a1.5 1.5 0 10-1.054-2.808A16.951 16.951 0 0124 41c-9.406 0-17-7.594-17-17 0-9.406 7.594-17 17-17 9.406 0 17 7.594 17 17v2.5c0 2.503-1.997 4.5-4.5 4.5a4.477 4.477 0 01-4.5-4.5v-11a1.5 1.5 0 10-3 0v1.066C27.42 14.984 25.331 14 23 14c-5.058 0-9 4.595-9 10s3.942 10 9 10c2.872 0 5.383-1.483 7.018-3.754C31.319 32.483 33.739 34 36.5 34c4.125 0 7.5-3.375 7.5-7.5V24c0-11.028-8.972-20-20-20zm-1 13c3.214 0 6 3.03 6 7s-2.786 7-6 7-6-3.03-6-7 2.786-7 6-7z"/>
    </symbol>
    <symbol viewBox="0 0 48 48" id="icon-facebook-new">
      <path fill="#039be5" d="M24 5a19 19 0 100 38 19 19 0 100-38z"/>
      <path fill="#fff" d="M26.572 29.036h4.917l.772-4.995h-5.69v-2.73c0-2.075.678-3.915 2.619-3.915h3.119v-4.359c-.548-.074-1.707-.236-3.897-.236-4.573 0-7.254 2.415-7.254 7.917v3.323h-4.701v4.995h4.701v13.729c.931.14 1.874.235 2.842.235.875 0 1.729-.08 2.572-.194v-13.77z"/>
    </symbol>
    <symbol viewBox="0 0 48 48" id="icon-faq">
      <path d="M17 4C9.285 4 3 10.284 3 17.998c0 2.216.584 4.285 1.504 6.148l-1.422 5.09c-.437 1.56 1.118 3.118 2.678 2.684a1.5 1.5 0 00.002-.002l5.095-1.422c1.863.918 3.928 1.502 6.143 1.502.054 0 .106-.003.16-.004.976 6.77 6.805 12.004 13.84 12.004 2.215 0 4.28-.584 6.143-1.502l5.095 1.422a1.5 1.5 0 00.002.002c1.56.434 3.113-1.123 2.678-2.682l-1.422-5.092c.92-1.863 1.504-3.932 1.504-6.148C45 22.284 38.715 16 31 16c-.049 0-.096.007-.145.008C29.885 9.228 24.038 4 17 4zm0 3a10.976 10.976 0 0110.875 9.365 13.965 13.965 0 00-6.307 3.32l-3.109-7.58a1.5 1.5 0 00-1.49-1.125 1.5 1.5 0 00-.035.002 1.5 1.5 0 00-1.395 1.123l-4.428 10.827a1.5 1.5 0 102.778 1.136L14.734 22h4.797a13.897 13.897 0 00-2.48 6.994c-.017 0-.034.004-.051.004-1.945 0-3.758-.505-5.344-1.389a1.5 1.5 0 00-1.133-.134l-4.16 1.162 1.162-4.158a1.5 1.5 0 00-.134-1.135A10.916 10.916 0 016 17.998 10.976 10.976 0 0117 7zm.002 9.457L18.045 19h-2.082l1.039-2.543zM31 19c6.093 0 11 4.906 11 10.998 0 1.946-.506 3.76-1.39 5.346a1.5 1.5 0 00-.135 1.135l1.162 4.158-4.16-1.162a1.5 1.5 0 00-1.133.134A10.926 10.926 0 0131 40.998a10.968 10.968 0 01-10.975-10.477 1.5 1.5 0 00-.017-.369c0-.052-.008-.102-.008-.154A10.976 10.976 0 0131 19zm0 4c-2.744 0-5 2.256-5 5v3c0 2.452 1.834 4.421 4.176 4.832.51.766 1.932 2.668 4.824 2.668a1.5 1.5 0 100-3c-.443 0-.764-.306-1.133-.523C35.124 34.065 36 32.657 36 31v-3c0-2.744-2.256-5-5-5zm0 3c1.122 0 2 .878 2 2v3c0 1.105-.86 1.956-1.957 1.982a1.5 1.5 0 00-.082.002C29.86 32.961 29 32.107 29 31v-3c0-1.122.878-2 2-2z"/>
    </symbol>
    <symbol viewBox="0 0 48 48" id="icon-google-logo">
      <path fill="#FFC107" d="M43.611 20.083H42V20H24v8h11.303c-1.649 4.657-6.08 8-11.303 8-6.627 0-12-5.373-12-12s5.373-12 12-12c3.059 0 5.842 1.154 7.961 3.039l5.657-5.657C34.046 6.053 29.268 4 24 4 12.955 4 4 12.955 4 24s8.955 20 20 20 20-8.955 20-20c0-1.341-.138-2.65-.389-3.917z"/>
      <path fill="#FF3D00" d="M6.306 14.691l6.571 4.819C14.655 15.108 18.961 12 24 12c3.059 0 5.842 1.154 7.961 3.039l5.657-5.657C34.046 6.053 29.268 4 24 4 16.318 4 9.656 8.337 6.306 14.691z"/>
      <path fill="#4CAF50" d="M24 44c5.166 0 9.86-1.977 13.409-5.192l-6.19-5.238A11.91 11.91 0 0124 36c-5.202 0-9.619-3.317-11.283-7.946l-6.522 5.025C9.505 39.556 16.227 44 24 44z"/>
      <path fill="#1976D2" d="M43.611 20.083H42V20H24v8h11.303a12.04 12.04 0 01-4.087 5.571l.003-.002 6.19 5.238C36.971 39.205 44 34 44 24c0-1.341-.138-2.65-.389-3.917z"/>
    </symbol>
    <symbol viewBox="0 0 48 48" id="icon-information">
      <path d="M24 5c-1.542 0-2.888.632-3.746 1.598C19.396 7.563 19 8.792 19 10c0 1.208.396 2.437 1.254 3.402C21.112 14.368 22.458 15 24 15c1.542 0 2.888-.632 3.746-1.598C28.604 12.437 29 11.208 29 10c0-1.208-.396-2.437-1.254-3.402C26.888 5.632 25.542 5 24 5zm0 3c.792 0 1.195.243 1.504.59.308.347.496.868.496 1.41 0 .542-.188 1.063-.496 1.41-.309.347-.712.59-1.504.59s-1.195-.243-1.504-.59C22.188 11.063 22 10.542 22 10c0-.542.188-1.063.496-1.41.309-.347.712-.59 1.504-.59zm-3.523 8.979a1.5 1.5 0 00-.217.021H16a1.5 1.5 0 100 3h3v20h-3a1.5 1.5 0 100 3h4.254a1.5 1.5 0 00.486 0h6.514a1.5 1.5 0 00.486 0h4.76a1.5 1.5 0 100-3H29V22.5c0-3.02-2.48-5.5-5.5-5.5h-2.754a1.5 1.5 0 00-.27-.021zM22 20h1.5c1.398 0 2.5 1.102 2.5 2.5V40h-4V20z"/>
    </symbol>
    <symbol viewBox="0 0 48 48" id="icon-menu">
      <path d="M5.5 9a1.5 1.5 0 100 3h37a1.5 1.5 0 100-3h-37zm0 13.5a1.5 1.5 0 100 3h37a1.5 1.5 0 100-3h-37zm0 13.5a1.5 1.5 0 100 3h37a1.5 1.5 0 100-3h-37z"/>
    </symbol>
    <symbol viewBox="0 0 48 48" id="icon-menu-2">
      <path d="M24 33a3 3 0 100 6 3 3 0 100-6zm0-12a3 3 0 100 6 3 3 0 100-6zm0-12a3 3 0 100 6 3 3 0 100-6z"/>
    </symbol>
    <symbol viewBox="0 0 48 48" id="icon-menu-squared">
      <path d="M11.5 6C8.48 6 6 8.48 6 11.5v25c0 3.02 2.48 5.5 5.5 5.5h25c3.02 0 5.5-2.48 5.5-5.5v-25C42 8.48 39.52 6 36.5 6h-25zm0 3h25c1.398 0 2.5 1.102 2.5 2.5v25c0 1.398-1.102 2.5-2.5 2.5h-25A2.478 2.478 0 019 36.5v-25C9 10.102 10.102 9 11.5 9zM24 12a3 3 0 000 6 3 3 0 000-6zm0 9a3 3 0 000 6 3 3 0 000-6zm0 9a3 3 0 000 6 3 3 0 000-6z"/>
    </symbol>
    <symbol viewBox="0 0 48 48" id="icon-microsoft">
      <path fill="#ff5722" d="M22 22H6V6h16z"/>
      <path fill="#4caf50" d="M42 22H26V6h16z"/>
      <path fill="#ffc107" d="M42 42H26V26h16z"/>
      <path fill="#03a9f4" d="M22 42H6V26h16z"/>
    </symbol>
    <symbol viewBox="0 0 48 48" id="icon-money">
      <path d="M8.5 6C6.585 6 5 7.585 5 9.5v17C5 28.415 6.585 30 8.5 30h31c1.915 0 3.5-1.585 3.5-3.5v-17C43 7.585 41.415 6 39.5 6h-31zM11 9h26c0 1.66 1.34 3 3 3v12c-1.66 0-3 1.34-3 3H11c0-1.66-1.34-3-3-3V12c1.66 0 3-1.34 3-3zm13 2a5.666 5.666 0 00-4.588 2.336C18.43 14.688 18 16.352 18 18c0 1.648.429 3.312 1.412 4.664A5.666 5.666 0 0024 25a5.666 5.666 0 004.588-2.336C29.57 21.312 30 19.648 30 18c0-1.648-.429-3.312-1.412-4.664A5.666 5.666 0 0024 11zm0 3c1.042 0 1.645.39 2.162 1.102.517.71.838 1.796.838 2.898s-.321 2.188-.838 2.898C25.645 21.61 25.042 22 24 22c-1.042 0-1.645-.39-2.162-1.102C21.32 20.188 21 19.102 21 18s.321-2.188.838-2.898C22.355 14.39 22.958 14 24 14zm-12 2a2 2 0 000 4 2 2 0 000-4zm24 0a2 2 0 000 4 2 2 0 000-4zM8.045 31.998a3.45 3.45 0 003.312 3c10.875.376 18.925 4 23.25 5.945.77.347 1.433.644 1.98.868A2.471 2.471 0 0040 39.514V32h-3v4c-1.135 0-2.11.633-2.62 1.56-4.749-2.096-12.57-5.202-22.92-5.56l-.003-.002H8.045z"/>
    </symbol>
    <symbol viewBox="0 0 48 48" id="icon-online-shop-2">
      <path d="M10.5 6a5.512 5.512 0 00-5.47 4.94v.001c-.02.184-.03.37-.03.559v1.71l-1.893 4.733a1.5 1.5 0 00-.103.657c.118 1.78.886 3.365 1.996 4.664V36.5c0 3.02 2.48 5.5 5.5 5.5h27c3.02 0 5.5-2.48 5.5-5.5V23.264c1.11-1.299 1.878-2.885 1.996-4.664a1.5 1.5 0 00-.103-.657L43 13.211V11.5A5.513 5.513 0 0037.5 6h-27zm0 3a1.5 1.5 0 11-.001 3.001A1.5 1.5 0 0110.5 9zm5 0a1.5 1.5 0 11-.001 3.001A1.5 1.5 0 0115.5 9zm6 0h16a1.5 1.5 0 010 3h-16a1.5 1.5 0 010-3zM7.516 15h32.968l1.448 3.62c-.166 1.356-.952 2.668-2.22 3.67C38.377 23.345 36.598 24 35 24a5.966 5.966 0 01-4.246-1.762 1.5 1.5 0 00-2.067-.052A6.945 6.945 0 0124 24c-1.81 0-3.44-.687-4.688-1.814a1.5 1.5 0 00-2.066.052A5.966 5.966 0 0113 24c-1.597 0-3.376-.654-4.713-1.71-1.267-1.002-2.053-2.314-2.219-3.67L7.516 15zm10.82 10.055C19.96 26.2 21.862 27 24 27s4.04-.8 5.664-1.945C31.174 26.197 32.968 27 35 27c1.745 0 3.47-.486 5-1.322V36.5c0 1.398-1.102 2.5-2.5 2.5h-27A2.478 2.478 0 018 36.5V25.678C9.53 26.514 11.255 27 13 27c2.032 0 3.826-.803 5.336-1.945z"/>
    </symbol>
    <symbol viewBox="0 0 48 48" id="icon-organization">
      <path d="M10.477 4.979A1.5 1.5 0 0010.26 5H8.5a1.5 1.5 0 100 3H9v19.102c-1.674.255-3 1.66-3 3.398v11A1.5 1.5 0 007.5 43h13a1.5 1.5 0 001.5-1.5V36h4v5.5a1.5 1.5 0 001.5 1.5h13a1.5 1.5 0 001.5-1.5v-11c0-1.738-1.326-3.143-3-3.398V8h.5a1.5 1.5 0 100-3h-1.754a1.5 1.5 0 00-.486 0H10.746a1.5 1.5 0 00-.27-.021zM12 8h24v20.5a1.5 1.5 0 001.5 1.5h1c.295 0 .5.205.5.5V40H29v-5.5a1.5 1.5 0 00-1.5-1.5h-7a1.5 1.5 0 00-1.5 1.5V40H9v-9.5c0-.295.205-.5.5-.5h1a1.5 1.5 0 001.5-1.5V8zm4 4a1 1 0 00-1 1v2a1 1 0 001 1h2a1 1 0 001-1v-2a1 1 0 00-1-1h-2zm7 0a1 1 0 00-1 1v2a1 1 0 001 1h2a1 1 0 001-1v-2a1 1 0 00-1-1h-2zm7 0a1 1 0 00-1 1v2a1 1 0 001 1h2a1 1 0 001-1v-2a1 1 0 00-1-1h-2zm-14 7a1 1 0 00-1 1v2a1 1 0 001 1h2a1 1 0 001-1v-2a1 1 0 00-1-1h-2zm7 0a1 1 0 00-1 1v2a1 1 0 001 1h2a1 1 0 001-1v-2a1 1 0 00-1-1h-2zm7 0a1 1 0 00-1 1v2a1 1 0 001 1h2a1 1 0 001-1v-2a1 1 0 00-1-1h-2zm-14 7a1 1 0 00-1 1v2a1 1 0 001 1h2a1 1 0 001-1v-2a1 1 0 00-1-1h-2zm7 0a1 1 0 00-1 1v2a1 1 0 001 1h2a1 1 0 001-1v-2a1 1 0 00-1-1h-2zm7 0a1 1 0 00-1 1v2a1 1 0 001 1h2a1 1 0 001-1v-2a1 1 0 00-1-1h-2zm-17 7a1 1 0 00-1 1v2a1 1 0 001 1h2a1 1 0 001-1v-2a1 1 0 00-1-1h-2zm20 0a1 1 0 00-1 1v2a1 1 0 001 1h2a1 1 0 001-1v-2a1 1 0 00-1-1h-2z"/>
    </symbol>
    <symbol viewBox="0 0 48 48" id="icon-overtime">
      <path d="M11.5 0C5.166 0 0 5.166 0 11.5S5.166 23 11.5 23 23 17.834 23 11.5 17.834 0 11.5 0zm0 3c4.712 0 8.5 3.788 8.5 8.5S16.212 20 11.5 20A8.477 8.477 0 013 11.5C3 6.788 6.788 3 11.5 3zm-.023 1.979A1.5 1.5 0 0010 6.5v5a1.5 1.5 0 00.44 1.06l2 2a1.5 1.5 0 102.12-2.12L13 10.878V6.5a1.5 1.5 0 00-1.523-1.521zM23.82 6c.424.948.744 1.952.94 3H35.5c1.93 0 3.5 1.57 3.5 3.5V14H24.76a13.46 13.46 0 01-.94 3H39v18.5c0 1.93-1.57 3.5-3.5 3.5h-23C10.57 39 9 37.43 9 35.5V24.76a13.46 13.46 0 01-3-.94V35.5c0 3.584 2.916 6.5 6.5 6.5h23c3.584 0 6.5-2.916 6.5-6.5v-23C42 8.916 39.084 6 35.5 6H23.82zM24 21a2.5 2.5 0 000 5 2.5 2.5 0 000-5zm8.5 0a2.5 2.5 0 000 5 2.5 2.5 0 000-5zm-17 9a2.5 2.5 0 000 5 2.5 2.5 0 000-5zm8.5 0a2.5 2.5 0 000 5 2.5 2.5 0 000-5z"/>
    </symbol>
    <symbol id="icon-qr-code" viewBox="0 0 48 48">
      <path d="M10.5 6C8.032 6 6 8.032 6 10.5v7c0 2.468 2.032 4.5 4.5 4.5h7c2.468 0 4.5-2.032 4.5-4.5v-7C22 8.032 19.968 6 17.5 6h-7zm20 0C28.032 6 26 8.032 26 10.5v7c0 2.468 2.032 4.5 4.5 4.5h7c2.468 0 4.5-2.032 4.5-4.5v-7C42 8.032 39.968 6 37.5 6h-7zm-20 3h7c.846 0 1.5.654 1.5 1.5v7c0 .846-.654 1.5-1.5 1.5h-7c-.846 0-1.5-.654-1.5-1.5v-7c0-.846.654-1.5 1.5-1.5zm20 0h7c.846 0 1.5.654 1.5 1.5v7c0 .846-.654 1.5-1.5 1.5h-7c-.846 0-1.5-.654-1.5-1.5v-7c0-.846.654-1.5 1.5-1.5zM12 12v4h4v-4h-4zm20 0v4h4v-4h-4zM10.5 26C8.032 26 6 28.032 6 30.5v7c0 2.468 2.032 4.5 4.5 4.5h7c2.468 0 4.5-2.032 4.5-4.5v-7c0-2.468-2.032-4.5-4.5-4.5h-7zM26 26v5.5h5.5V26H26zm5.5 5.5v5h5v-5h-5zm5 0H42V26h-5.5v5.5zm0 5V42H42v-5.5h-5.5zm-5 0H26V42h5.5v-5.5zm-21-7.5h7c.846 0 1.5.654 1.5 1.5v7c0 .846-.654 1.5-1.5 1.5h-7c-.846 0-1.5-.654-1.5-1.5v-7c0-.846.654-1.5 1.5-1.5zm1.5 3v4h4v-4h-4z"/>
    </symbol>
    <symbol viewBox="0 0 48 48" id="icon-spinner-frame-1">
      <path d="M25 4c-1.542 0-2.888.632-3.746 1.598C20.396 6.563 20 7.792 20 9c0 1.208.396 2.437 1.254 3.402C22.112 13.368 23.458 14 25 14c1.542 0 2.888-.632 3.746-1.598C29.604 11.437 30 10.208 30 9c0-1.208-.396-2.437-1.254-3.402C27.888 4.632 26.542 4 25 4zm0 3c.792 0 1.195.243 1.504.59.308.347.496.868.496 1.41 0 .542-.188 1.063-.496 1.41-.309.347-.712.59-1.504.59s-1.195-.243-1.504-.59C23.188 10.063 23 9.542 23 9c0-.542.188-1.063.496-1.41.309-.347.712-.59 1.504-.59zm-12.5 3c-1.375 0-2.596.57-3.371 1.441C8.354 12.313 8 13.417 8 14.5c0 1.083.354 2.187 1.129 3.059C9.904 18.43 11.125 19 12.5 19s2.596-.57 3.371-1.441C16.646 16.687 17 15.583 17 14.5c0-1.083-.354-2.187-1.129-3.059C15.096 10.57 13.875 10 12.5 10zm24 2a1.5 1.5 0 000 3 1.5 1.5 0 000-3zm-24 1c.625 0 .904.18 1.129.434.225.253.371.65.371 1.066 0 .417-.146.813-.371 1.066-.225.254-.504.434-1.129.434s-.904-.18-1.129-.434c-.225-.253-.371-.65-.371-1.066 0-.417.146-.813.371-1.066.225-.254.504-.434 1.129-.434zM41 21a2 2 0 000 4 2 2 0 000-4zM9 23c-2.19 0-3.998 1.808-4 3.998-.002 2.192 1.806 4 3.996 4.002h.002c2.192.002 4-1.807 4.002-3.998C13.002 24.81 11.194 23 9.002 23H9zm-.002 3h.004c.568 0 .998.43.998 1 0 .571-.43 1-.998 1h-.004A.978.978 0 018 27c0-.571.43-1 .998-1zM38.5 31a2.5 2.5 0 100 5 2.5 2.5 0 000-5zm-23 3c-1.042 0-2.013.445-2.621 1.129A3.541 3.541 0 0012 37.5c0 .833.27 1.687.879 2.371.608.684 1.58 1.129 2.621 1.129 1.042 0 2.013-.445 2.621-1.129A3.541 3.541 0 0019 37.5c0-.833-.27-1.687-.879-2.371C17.513 34.445 16.541 34 15.5 34zm0 3c.292 0 .32.055.379.121A.614.614 0 0116 37.5a.614.614 0 01-.121.379c-.059.066-.087.121-.379.121-.292 0-.32-.055-.379-.121A.614.614 0 0115 37.5c0-.167.063-.313.121-.379.059-.066.087-.121.379-.121zM28 37a3 3 0 000 6 3 3 0 000-6z"/>
    </symbol>
  </defs>
</svg>
