<svg>
  <svg id="calendar" xmlns="http://www.w3.org/2000/svg" xmlns:xlink="http://www.w3.org/1999/xlink" width="24pt"
       height="24pt" viewBox="0 0 24 24" version="1.1">
    <g id="surface1">
      <path style=" stroke:none;fill-rule:nonzero;fill-opacity:1;"
            d="M 6 1 L 6 3 L 5 3 C 3.898438 3 3 3.898438 3 5 L 3 19 C 3 20.101563 3.898438 21 5 21 L 19 21 C 20.101563 21 21 20.101563 21 19 L 21 5 C 21 3.898438 20.101563 3 19 3 L 18 3 L 18 1 L 16 1 L 16 3 L 8 3 L 8 1 Z M 5 5 L 19 5 L 19 7 L 5 7 Z M 5 9 L 19 9 L 19 19 L 5 19 Z M 10.488281 11 C 9.570313 11.003906 8.855469 11.527344 8.457031 12.300781 C 8.292969 12.621094 8.222656 12.929688 8.21875 13.234375 C 8.207031 14.628906 9.632813 15.832031 10.238281 16.34375 L 10.359375 16.449219 C 10.867188 16.890625 12 17.617188 12 17.617188 C 12 17.617188 13.136719 16.890625 13.640625 16.449219 L 13.765625 16.34375 C 14.371094 15.832031 15.796875 14.628906 15.78125 13.234375 C 15.777344 12.929688 15.707031 12.617188 15.546875 12.300781 C 15.148438 11.527344 14.433594 11 13.515625 11 C 12.933594 11 12.265625 11.328125 12.003906 11.703125 C 11.765625 11.332031 11.070313 11 10.488281 11 Z "/>
    </g>
  </svg>
  <svg id="about" xmlns="http://www.w3.org/2000/svg" xmlns:xlink="http://www.w3.org/1999/xlink" width="24pt" height="24pt" viewBox="0 0 24 24" version="1.1">
    <g id="surface1">
      <path style=" stroke:none;fill-rule:nonzero;fill-opacity:1;" d="M 4.007813 3 C 2.917969 3 2.007813 3.90625 2.007813 5 L 2 23 L 6 19 L 20 19 C 21.09375 19 22 18.09375 22 17 L 22 5 C 22 3.90625 21.09375 3 20 3 Z M 4.007813 5 L 20 5 L 20 17 L 5.171875 17 L 4.003906 18.167969 Z M 11 7 L 11 9 L 13 9 L 13 7 Z M 11 11 L 11 15 L 13 15 L 13 11 Z "/>
    </g>
  </svg>
  <svg id="office" xmlns="http://www.w3.org/2000/svg" xmlns:xlink="http://www.w3.org/1999/xlink" width="24pt" height="24pt" viewBox="0 0 24 24" version="1.1">
    <g id="surface1">
      <path style=" stroke:none;fill-rule:nonzero;fill-opacity:1;" d="M 11 3 C 9.898438 3 9 3.898438 9 5 L 9 8.023438 C 10.207031 8.933594 11 10.371094 11 12 L 11 5 L 21 5 L 21 19 L 13 19 L 13 21 L 23 21 L 23 5 C 23 3.898438 22.101563 3 21 3 Z M 13 7 L 13 9 L 15 9 L 15 7 Z M 17 7 L 17 9 L 19 9 L 19 7 Z M 6 9 C 4.316406 9 3 10.316406 3 12 C 3 13.683594 4.316406 15 6 15 C 7.683594 15 9 13.683594 9 12 C 9 10.316406 7.683594 9 6 9 Z M 6 11 C 6.578125 11 7 11.421875 7 12 C 7 12.578125 6.578125 13 6 13 C 5.421875 13 5 12.578125 5 12 C 5 11.421875 5.421875 11 6 11 Z M 13 11 L 13 13 L 15 13 L 15 11 Z M 17 11 L 17 13 L 19 13 L 19 11 Z M 13 15 L 13 17 L 15 17 L 15 15 Z M 17 15 L 17 17 L 19 17 L 19 15 Z M 6 16 C 3.148438 16 1 17.457031 1 19.386719 L 1 21 L 11 21 L 11 19.386719 C 11 17.457031 8.851563 16 6 16 Z M 6 18 C 7.46875 18 8.488281 18.503906 8.851563 19 L 3.148438 19 C 3.511719 18.503906 4.53125 18 6 18 Z "/>
    </g>
  </svg>
</svg>
