<svg>
  <svg id="calendar" xmlns="http://www.w3.org/2000/svg" xmlns:xlink="http://www.w3.org/1999/xlink" width="24pt"
       height="24pt" viewBox="0 0 24 24" version="1.1">
    <g id="surface1">
      <path style=" stroke:none;fill-rule:nonzero;fill-opacity:1;"
            d="M 6 1 L 6 3 L 5 3 C 3.898438 3 3 3.898438 3 5 L 3 19 C 3 20.101563 3.898438 21 5 21 L 19 21 C 20.101563 21 21 20.101563 21 19 L 21 5 C 21 3.898438 20.101563 3 19 3 L 18 3 L 18 1 L 16 1 L 16 3 L 8 3 L 8 1 Z M 5 5 L 19 5 L 19 7 L 5 7 Z M 5 9 L 19 9 L 19 19 L 5 19 Z M 10.488281 11 C 9.570313 11.003906 8.855469 11.527344 8.457031 12.300781 C 8.292969 12.621094 8.222656 12.929688 8.21875 13.234375 C 8.207031 14.628906 9.632813 15.832031 10.238281 16.34375 L 10.359375 16.449219 C 10.867188 16.890625 12 17.617188 12 17.617188 C 12 17.617188 13.136719 16.890625 13.640625 16.449219 L 13.765625 16.34375 C 14.371094 15.832031 15.796875 14.628906 15.78125 13.234375 C 15.777344 12.929688 15.707031 12.617188 15.546875 12.300781 C 15.148438 11.527344 14.433594 11 13.515625 11 C 12.933594 11 12.265625 11.328125 12.003906 11.703125 C 11.765625 11.332031 11.070313 11 10.488281 11 Z "/>
    </g>
  </svg>
  <svg id="about" xmlns="http://www.w3.org/2000/svg" xmlns:xlink="http://www.w3.org/1999/xlink" width="24pt"
       height="24pt" viewBox="0 0 24 24" version="1.1">
    <g id="surface1">
      <path style=" stroke:none;fill-rule:nonzero;fill-opacity:1;"
            d="M 4.007813 3 C 2.917969 3 2.007813 3.90625 2.007813 5 L 2 23 L 6 19 L 20 19 C 21.09375 19 22 18.09375 22 17 L 22 5 C 22 3.90625 21.09375 3 20 3 Z M 4.007813 5 L 20 5 L 20 17 L 5.171875 17 L 4.003906 18.167969 Z M 11 7 L 11 9 L 13 9 L 13 7 Z M 11 11 L 11 15 L 13 15 L 13 11 Z "/>
    </g>
  </svg>
  <svg id="office" xmlns="http://www.w3.org/2000/svg" xmlns:xlink="http://www.w3.org/1999/xlink" width="24pt"
       height="24pt" viewBox="0 0 24 24" version="1.1">
    <g id="surface1">
      <path style=" stroke:none;fill-rule:nonzero;fill-opacity:1;"
            d="M 11 3 C 9.898438 3 9 3.898438 9 5 L 9 8.023438 C 10.207031 8.933594 11 10.371094 11 12 L 11 5 L 21 5 L 21 19 L 13 19 L 13 21 L 23 21 L 23 5 C 23 3.898438 22.101563 3 21 3 Z M 13 7 L 13 9 L 15 9 L 15 7 Z M 17 7 L 17 9 L 19 9 L 19 7 Z M 6 9 C 4.316406 9 3 10.316406 3 12 C 3 13.683594 4.316406 15 6 15 C 7.683594 15 9 13.683594 9 12 C 9 10.316406 7.683594 9 6 9 Z M 6 11 C 6.578125 11 7 11.421875 7 12 C 7 12.578125 6.578125 13 6 13 C 5.421875 13 5 12.578125 5 12 C 5 11.421875 5.421875 11 6 11 Z M 13 11 L 13 13 L 15 13 L 15 11 Z M 17 11 L 17 13 L 19 13 L 19 11 Z M 13 15 L 13 17 L 15 17 L 15 15 Z M 17 15 L 17 17 L 19 17 L 19 15 Z M 6 16 C 3.148438 16 1 17.457031 1 19.386719 L 1 21 L 11 21 L 11 19.386719 C 11 17.457031 8.851563 16 6 16 Z M 6 18 C 7.46875 18 8.488281 18.503906 8.851563 19 L 3.148438 19 C 3.511719 18.503906 4.53125 18 6 18 Z "/>
    </g>
  </svg>
  <svg id="menu" xmlns="http://www.w3.org/2000/svg" xmlns:xlink="http://www.w3.org/1999/xlink" width="96pt"
       height="96pt" viewBox="0 0 96 96" version="1.1">
    <g id="surface1">
      <path style=" stroke:none;fill-rule:nonzero;fill-opacity:1;"
            d="M 8 20 L 8 28 L 88 28 L 88 20 Z M 8 44 L 8 52 L 88 52 L 88 44 Z M 8 68 L 8 76 L 88 76 L 88 68 Z "/>
    </g>
  </svg>
  <svg id="trip" xmlns="http://www.w3.org/2000/svg" xmlns:xlink="http://www.w3.org/1999/xlink" width="96pt"
       height="96pt" viewBox="0 0 96 96" version="1.1">
    <g id="surface1">
      <path style=" stroke:none;fill-rule:nonzero;fill-opacity:1;"
            d="M 39.898438 8 C 38.847656 8 37.800781 8.402344 37 9.203125 L 31.203125 15 L 14.898438 10.296875 L 12 13.203125 L 22.5 23.703125 L 18.75 27.453125 L 10.945313 24.851563 L 8 27.796875 L 24.1875 44 L 27.140625 41.046875 L 24.546875 33.25 L 28.296875 29.5 L 38.789063 39.992188 L 41.695313 37.09375 L 37 20.796875 L 42.796875 15 C 44.398438 13.398438 44.398438 10.808594 42.796875 9.203125 C 41.996094 8.402344 40.949219 8 39.898438 8 Z M 51.296875 8.171875 C 51.730469 9.425781 52 10.738281 52 12.101563 C 52 13.511719 51.722656 14.871094 51.257813 16.164063 C 55.871094 16.632813 60.175781 18.113281 64 20.335938 L 64 36 C 64 38.199219 65.800781 40 68 40 L 72 40 L 72 48 L 56 48 C 53.800781 48 52 49.800781 52 52 L 52 60 C 52 64.398438 55.601563 68 60 68 L 64 68 L 64 75.671875 C 59.285156 78.40625 53.832031 80 48 80 C 45.234375 80 42.5625 79.617188 40 78.953125 L 40 76 C 40 71.601563 36.398438 68 32 68 L 28 68 L 28 60 C 28 57.800781 26.199219 56 24 56 L 17.046875 56 C 16.382813 53.4375 16 50.765625 16 48 C 16 47.71875 16.039063 47.445313 16.046875 47.164063 L 8.820313 39.929688 C 8.285156 42.539063 8 45.234375 8 48 C 8 70.054688 25.945313 88 48 88 C 70.054688 88 88 70.054688 88 48 C 88 27.054688 71.8125 9.855469 51.296875 8.171875 Z "/>
    </g>
  </svg>
  <svg id="timetable" xmlns="http://www.w3.org/2000/svg" xmlns:xlink="http://www.w3.org/1999/xlink" width="96pt"
       height="96pt" viewBox="0 0 96 96" version="1.1">
    <g id="surface1">
      <path style=" stroke:none;fill-rule:nonzero;fill-opacity:1;"
            d="M 24 8 C 19.589844 8 16 11.589844 16 16 L 16 80 C 16 84.410156 19.589844 88 24 88 L 44.3125 88 C 42.875 85.523438 41.777344 82.839844 41.046875 80 L 24 80 L 24 64 L 41.046875 64 C 42.800781 57.210938 46.691406 51.300781 52 47.039063 L 52 40 L 72 40 C 74.769531 40 77.441406 40.386719 80 41.046875 L 80 16 C 80 11.589844 76.410156 8 72 8 Z M 24 16 L 44 16 L 44 32 L 24 32 Z M 52 16 L 72 16 L 72 32 L 52 32 Z M 24 40 L 44 40 L 44 56 L 24 56 Z M 72 48 C 58.792969 48 48 58.792969 48 72 C 48 85.207031 58.792969 96 72 96 C 85.207031 96 96 85.207031 96 72 C 96 58.792969 85.207031 48 72 48 Z M 72 56 C 80.882813 56 88 63.117188 88 72 C 88 80.882813 80.882813 88 72 88 C 63.117188 88 56 80.882813 56 72 C 56 63.117188 63.117188 56 72 56 Z M 73.710938 60.46875 L 67.3125 72.554688 L 75.703125 80.945313 L 79.945313 76.703125 L 74.6875 71.445313 L 79.015625 63.273438 Z "/>
    </g>
  </svg>
  <svg id="student" xmlns="http://www.w3.org/2000/svg" xmlns:xlink="http://www.w3.org/1999/xlink" width="96pt"
       height="96pt" viewBox="0 0 96 96" version="1.1">
    <g id="surface1">
      <path style=" stroke:none;fill-rule:nonzero;fill-opacity:1;"
            d="M 48 0 L 0 20 L 16 26.671875 L 16 47.070313 C 13.488281 49.316406 12 52.558594 12 56 C 12 61.105469 15.292969 65.589844 19.96875 67.265625 C 25.585938 80.113281 36.171875 88 48 88 C 59.828125 88 70.414063 80.113281 76.03125 67.265625 C 80.707031 65.589844 84 61.105469 84 56 C 84 52.558594 82.511719 49.316406 80 47.070313 L 80 26.671875 L 88 23.335938 L 88 44 L 96 44 L 96 20 Z M 48 8.671875 L 75.203125 20 L 72 21.328125 L 72 32.6875 C 70.746094 32.242188 69.398438 32 68 32 L 28 32 C 26.601563 32 25.253906 32.242188 24 32.6875 L 24 21.328125 L 20.796875 20 Z M 28 40 L 68 40 C 70.207031 40 72 41.792969 72 44 L 72 51.40625 L 74.007813 52.554688 C 75.253906 53.269531 76 54.558594 76 56 C 76 57.96875 74.515625 59.652344 72.546875 59.921875 L 70.210938 60.25 L 69.367188 62.453125 C 65.210938 73.277344 57.023438 80 48 80 C 38.976563 80 30.792969 73.273438 26.640625 62.453125 L 25.796875 60.25 L 23.453125 59.929688 C 21.480469 59.65625 20 57.96875 20 56 C 20 54.558594 20.746094 53.269531 21.992188 52.554688 L 24 51.40625 L 24 44 C 24 41.792969 25.792969 40 28 40 Z "/>
    </g>
  </svg>
  <svg id="money" xmlns="http://www.w3.org/2000/svg" xmlns:xlink="http://www.w3.org/1999/xlink" width="96pt"
       height="96pt" viewBox="0 0 96 96" version="1.1">
    <g id="surface1">
      <path style=" stroke:none;fill-rule:nonzero;fill-opacity:1;"
            d="M 48 0.117188 C 43.957031 0.117188 39.917969 1.410156 36.71875 4 L 24.09375 4 L 28.671875 28.914063 C 21.203125 35.667969 8 50.105469 8 68 C 8 76.007813 10.433594 82.371094 15.242188 86.90625 L 16.398438 88 L 79.601563 88 L 80.757813 86.90625 C 85.5625 82.367188 88 76.007813 88 68 C 88 50.121094 74.804688 35.683594 67.335938 28.921875 L 71.914063 4 L 59.28125 4 C 56.082031 1.410156 52.042969 0.117188 48 0.117188 Z M 48 8.09375 C 50.542969 8.09375 53.082031 9.011719 54.96875 10.859375 L 56.140625 12 L 62.304688 12 L 60.101563 24 L 35.898438 24 L 33.695313 12 L 39.859375 12 L 41.03125 10.859375 C 42.917969 9.011719 45.457031 8.09375 48 8.09375 Z M 37.367188 32 L 58.640625 32 C 62.960938 35.445313 80 50.15625 80 68 C 80 73.132813 78.785156 77.074219 76.296875 80 L 50.09375 80 L 50.09375 76.351563 C 51.328125 76.195313 58.304688 75.050781 58.304688 66.554688 C 58.304688 54.855469 45.683594 57.09375 45.6875 49.914063 C 45.6875 45.800781 47.679688 45.671875 48.4375 45.671875 C 49.40625 45.671875 51.460938 46.457031 51.460938 51.46875 L 58.359375 51.46875 C 58.359375 41.875 51.800781 40.386719 50.632813 40.164063 L 50.632813 34.851563 L 46.953125 34.851563 L 46.953125 40.070313 C 45.71875 40.226563 38.789063 41.527344 38.789063 49.882813 C 38.789063 62.074219 51.414063 58.464844 51.414063 66.601563 C 51.414063 70.671875 48.777344 70.773438 48.242188 70.773438 C 47.753906 70.773438 44.539063 71.027344 44.539063 64.796875 L 37.640625 64.796875 C 37.640625 75.351563 45.296875 76.195313 46.4375 76.351563 L 46.4375 80 L 19.695313 80 C 17.210938 77.074219 16 73.132813 16 68 C 16 50.207031 33.046875 35.453125 37.367188 32 Z "/>
    </g>
  </svg>
  <svg id="management" xmlns="http://www.w3.org/2000/svg" xmlns:xlink="http://www.w3.org/1999/xlink" width="96pt"
       height="96pt" viewBox="0 0 96 96" version="1.1">
    <g id="surface1">
      <path style=" stroke:none;fill-rule:nonzero;fill-opacity:1;"
            d="M 28 8 C 23.582031 8 20 11.582031 20 16 C 20 20.417969 23.582031 24 28 24 C 32.417969 24 36 20.417969 36 16 C 36 11.582031 32.417969 8 28 8 Z M 20 28 C 15.578125 28 12 31.578125 12 36 L 12 64 L 16 64 L 16 88 L 24 88 L 24 64 L 32 64 L 32 88 L 40 88 L 40 44 L 32 44 L 32 56 L 20 56 L 20 36 L 56 36 L 56 28 Z M 64 28 L 64 36 L 84 36 L 84 28 Z M 48 44 L 48 52 L 56 52 L 56 44 Z M 64 44 L 64 52 L 84 52 L 84 44 Z M 48 60 L 48 68 L 56 68 L 56 60 Z M 64 60 L 64 68 L 84 68 L 84 60 Z M 48 76 L 48 84 L 56 84 L 56 76 Z M 64 76 L 64 84 L 84 84 L 84 76 Z "/>
    </g>
  </svg>
  <svg id="scanner" xmlns="http://www.w3.org/2000/svg" xmlns:xlink="http://www.w3.org/1999/xlink" width="96pt"
       height="96pt" viewBox="0 0 96 96" version="1.1">
    <g id="surface1">
      <path style=" stroke:none;fill-rule:nonzero;fill-opacity:1;"
            d="M 18.179688 12 C 14.769531 12 12 14.769531 12 18.179688 C 12 18.699219 15.1875 34.601563 15.1875 34.601563 C 15.65625 37.554688 18.195313 40 21.273438 40 L 50.367188 40 C 52.261719 40 53.898438 41.335938 54.28125 43.195313 L 55.28125 48 L 52 48 L 52 56 L 56.929688 56 L 58.820313 65.148438 C 58.820313 65.148438 55.992188 74.910156 55.992188 77.453125 C 55.992188 80.839844 58.578125 83.589844 61.875 83.929688 C 61.90625 83.949219 61.976563 84 61.976563 84 L 77.453125 84 C 81.070313 84 84 81.066406 84 77.453125 C 84 76.757813 76.988281 40.320313 76.625 38.078125 C 75.917969 33.699219 79.566406 30.546875 80.789063 29.695313 C 82.683594 28.644531 84 26.6875 84 24.367188 L 84 18.179688 C 84 14.769531 81.230469 12 77.820313 12 Z M 20.460938 20 L 76 20 L 76 23.28125 C 71.867188 26.253906 67.5625 32.171875 68.726563 39.351563 C 68.886719 40.332031 69.878906 45.550781 71.617188 54.695313 C 72.941406 61.65625 74.789063 71.402344 75.632813 76 L 64.289063 76 C 64.734375 73.910156 65.613281 70.5 66.515625 67.375 L 67.0625 65.46875 L 66.65625 63.53125 L 65.101563 56 L 63.109375 46.382813 L 62.117188 41.570313 C 60.972656 36.023438 56.03125 32 50.367188 32 L 22.820313 32 C 21.933594 27.554688 21.019531 22.910156 20.460938 20 Z M 12 60 L 12 84 L 16 84 L 16 60 Z M 20 60 L 20 84 L 24 84 L 24 60 Z M 28 60 L 28 84 L 36 84 L 36 60 Z M 40 60 L 40 84 L 44 84 L 44 60 Z "/>
    </g>
  </svg>
  <svg id="signup" xmlns="http://www.w3.org/2000/svg" xmlns:xlink="http://www.w3.org/1999/xlink" width="96pt"
       height="96pt" viewBox="0 0 96 96" version="1.1">
    <g id="surface1">
      <path style=" stroke:none;fill-rule:nonzero;fill-opacity:1;"
            d="M 48 3.53125 L 7.054688 24 L 20 30.46875 L 20 48.523438 C 16.878906 51.082031 15.363281 55.238281 16.242188 59.359375 C 17.121094 63.4375 20.359375 66.601563 24.398438 67.640625 C 26.4375 76.921875 36.238281 84 48 84 C 50.839844 84 53.480469 83.605469 56 82.84375 L 56 74.359375 C 53.640625 75.398438 50.921875 76 48 76 C 39.160156 76 32 70.601563 32 64 L 32 60 L 27.28125 60 C 25.722656 60 24.359375 59 24.078125 57.71875 C 23.71875 56.039063 24.640625 54.800781 25.71875 54.28125 L 28 53.203125 L 28 44 C 28 43.449219 28.109375 42.921875 28.3125 42.445313 C 28.515625 41.96875 28.808594 41.535156 29.171875 41.171875 C 29.898438 40.445313 30.898438 40 32 40 L 64 40 C 66.199219 40 68 41.800781 68 44 L 68 53.203125 L 70.28125 54.28125 C 70.960938 54.601563 71.5625 55.199219 71.84375 56 L 79.921875 56 C 79.683594 53.078125 78.238281 50.402344 76 48.523438 L 76 30.46875 L 88.945313 24 Z M 48 12.46875 L 71.054688 24 L 68 25.53125 L 68 32.71875 C 66.761719 32.238281 65.398438 32 64 32 L 32 32 C 30.601563 32 29.238281 32.238281 28 32.71875 L 28 25.53125 L 24.945313 24 Z M 76 64 L 76 76 L 64 76 L 64 84 L 76 84 L 76 96 L 84 96 L 84 84 L 96 84 L 96 76 L 84 76 L 84 64 Z "/>
    </g>
  </svg>
  <svg id="schedule" xmlns="http://www.w3.org/2000/svg" xmlns:xlink="http://www.w3.org/1999/xlink" width="96pt"
       height="96pt" viewBox="0 0 96 96" version="1.1">
    <g id="surface1">
      <path style=" stroke:none;fill-rule:nonzero;fill-opacity:1;"
            d="M 20 12 C 15.628906 12 12 15.628906 12 20 L 12 76 C 12 80.371094 15.628906 84 20 84 L 76 84 C 80.371094 84 84 80.371094 84 76 L 84 20 C 84 15.628906 80.371094 12 76 12 Z M 20 20 L 28 20 L 28 28 L 20 28 Z M 36 20 L 76 20 L 76 28 L 36 28 Z M 20 36 L 28 36 L 28 44 L 20 44 Z M 36 36 L 76 36 L 76 44 L 36 44 Z M 20 52 L 28 52 L 28 60 L 20 60 Z M 36 52 L 76 52 L 76 60 L 36 60 Z M 20 68 L 28 68 L 28 76 L 20 76 Z M 36 68 L 76 68 L 76 76 L 36 76 Z "/>
    </g>
  </svg>
  <svg id="credentials" xmlns="http://www.w3.org/2000/svg" xmlns:xlink="http://www.w3.org/1999/xlink" width="96pt"
       height="96pt" viewBox="0 0 96 96" version="1.1">
    <g id="surface1">
      <path style=" stroke:none;fill-rule:nonzero;fill-opacity:1;"
            d="M 24 12 C 15.210938 12 8 19.210938 8 28 C 8 35.402344 13.136719 41.621094 20 43.421875 L 20 84 L 40 84 L 40 76 L 28 76 L 28 68 L 36 68 L 36 60 L 28 60 L 28 43.421875 C 34.863281 41.621094 40 35.402344 40 28 C 40 19.210938 32.789063 12 24 12 Z M 24 20 C 28.464844 20 32 23.535156 32 28 C 32 32.464844 28.464844 36 24 36 C 19.535156 36 16 32.464844 16 28 C 16 23.535156 19.535156 20 24 20 Z M 48 20 L 48 44 L 88 44 L 88 20 Z M 56 28 L 80 28 L 80 36 L 56 36 Z M 48 52 L 48 76 L 88 76 L 88 52 Z M 56 60 L 80 60 L 80 68 L 56 68 Z "/>
    </g>
  </svg>
  <svg id="plus" xmlns="http://www.w3.org/2000/svg" xmlns:xlink="http://www.w3.org/1999/xlink" width="96pt"
       height="96pt" viewBox="0 0 96 96" version="1.1">
    <g id="surface1">
      <path style=" stroke:none;fill-rule:nonzero;fill-opacity:1;"
            d="M 48 8 C 25.957031 8 8 25.957031 8 48 C 8 70.042969 25.957031 88 48 88 C 70.042969 88 88 70.042969 88 48 C 88 25.957031 70.042969 8 48 8 Z M 48 16 C 65.71875 16 80 30.28125 80 48 C 80 65.71875 65.71875 80 48 80 C 30.28125 80 16 65.71875 16 48 C 16 30.28125 30.28125 16 48 16 Z M 44 28 L 44 44 L 28 44 L 28 52 L 44 52 L 44 68 L 52 68 L 52 52 L 68 52 L 68 44 L 52 44 L 52 28 Z "/>
    </g>
  </svg>
  <svg id="minus" xmlns="http://www.w3.org/2000/svg" xmlns:xlink="http://www.w3.org/1999/xlink" width="96pt"
       height="96pt" viewBox="0 0 96 96" version="1.1">
    <g id="surface1">
      <path style=" stroke:none;fill-rule:nonzero;fill-opacity:1;"
            d="M 48 8 C 25.945313 8 8 25.945313 8 48 C 8 70.054688 25.945313 88 48 88 C 70.054688 88 88 70.054688 88 48 C 88 25.945313 70.054688 8 48 8 Z M 48 16 C 65.644531 16 80 30.355469 80 48 C 80 65.644531 65.644531 80 48 80 C 30.355469 80 16 65.644531 16 48 C 16 30.355469 30.355469 16 48 16 Z M 32 44 L 32 52 L 64 52 L 64 44 Z "/>
    </g>
  </svg>
  <svg id="update" xmlns="http://www.w3.org/2000/svg" xmlns:xlink="http://www.w3.org/1999/xlink" width="96pt" height="96pt" viewBox="0 0 96 96" version="1.1">
    <g id="surface1">
      <path style=" stroke:none;fill-rule:nonzero;fill-opacity:1;" d="M 48 8 C 25.953125 8 8 25.953125 8 48 C 8 70.046875 25.953125 88 48 88 C 49.957031 88 51.871094 87.8125 53.757813 87.539063 C 58.167969 92.703125 64.710938 96 72 96 C 85.207031 96 96 85.207031 96 72 C 96 58.792969 85.207031 48 72 48 C 58.792969 48 48 58.792969 48 72 C 48 74.777344 48.503906 77.433594 49.382813 79.921875 C 48.917969 79.941406 48.46875 80 48 80 C 30.277344 80 16 65.722656 16 48 C 16 30.277344 30.277344 16 48 16 C 54.808594 16 61.074219 18.140625 66.25 21.75 L 60 28 L 80 28 L 80 8 L 72 16 C 65.3125 10.980469 56.988281 8 48 8 Z M 72 56 C 76.015625 56 79.621094 57.507813 82.421875 59.921875 L 72 70.34375 L 66.828125 65.171875 L 61.171875 70.828125 L 72 81.65625 L 87.023438 66.632813 C 87.621094 68.316406 88 70.105469 88 72 C 88 80.882813 80.882813 88 72 88 C 63.117188 88 56 80.882813 56 72 C 56 63.117188 63.117188 56 72 56 Z "/>
    </g>
  </svg>
  <svg id="euro" xmlns="http://www.w3.org/2000/svg" xmlns:xlink="http://www.w3.org/1999/xlink" width="96pt" height="96pt" viewBox="0 0 96 96" version="1.1">
    <g id="surface1">
      <path style=" stroke:none;fill-rule:nonzero;fill-opacity:1;" d="M 60.0625 76.445313 C 54.542969 76.445313 50.285156 74.765625 47.273438 71.402344 C 44.433594 68.230469 42.921875 63.730469 42.640625 57.996094 L 64 57.996094 L 64 50.996094 L 42.5 50.996094 L 42.5 44 L 64 44 L 64 37 L 42.753906 37 C 43.144531 31.671875 44.632813 27.449219 47.34375 24.457031 C 50.304688 21.1875 54.523438 19.554688 60.007813 19.554688 C 63.683594 19.554688 67.347656 20.121094 70.992188 21.242188 L 72 13.484375 C 67.484375 12.496094 63.457031 12 59.910156 12 C 51.789063 12 45.339844 14.304688 40.574219 18.90625 C 36.097656 23.234375 33.65625 29.316406 33.09375 37 L 24 37 L 24 44 L 33 44 L 33 51 L 24 51 L 24 58 L 33.019531 58 C 33.390625 66.09375 35.804688 72.445313 40.375 76.953125 C 45.140625 81.652344 51.667969 84 59.960938 84 C 63.972656 84 67.984375 83.515625 72 82.546875 L 70.996094 74.808594 C 67.589844 75.898438 63.941406 76.445313 60.0625 76.445313 Z "/>
    </g>
  </svg>
  <svg id="users" xmlns="http://www.w3.org/2000/svg" xmlns:xlink="http://www.w3.org/1999/xlink" width="24pt" height="24pt" viewBox="0 0 24 24" version="1.1">
    <g id="surface1">
      <path style=" stroke:none;fill-rule:nonzero;fill-opacity:1;" d="M 12 5 C 10.355469 5 9 6.355469 9 8 C 9 9.644531 10.355469 11 12 11 C 13.644531 11 15 9.644531 15 8 C 15 6.355469 13.644531 5 12 5 Z M 5 7 C 3.894531 7 3 7.894531 3 9 C 3 10.105469 3.894531 11 5 11 C 6.105469 11 7 10.105469 7 9 C 7 7.894531 6.105469 7 5 7 Z M 12 7 C 12.5625 7 13 7.4375 13 8 C 13 8.5625 12.5625 9 12 9 C 11.4375 9 11 8.5625 11 8 C 11 7.4375 11.4375 7 12 7 Z M 19 7 C 17.894531 7 17 7.894531 17 9 C 17 10.105469 17.894531 11 19 11 C 20.105469 11 21 10.105469 21 9 C 21 7.894531 20.105469 7 19 7 Z M 5 13 C 2.816406 13 1 13.910156 1 15.21875 L 1 17 L 6 17 L 6 19 L 18 19 L 18 17 L 23 17 L 23 15.21875 C 23 13.910156 21.183594 13 19 13 C 17.804688 13 16.734375 13.277344 15.996094 13.738281 C 15.96875 13.726563 15.945313 13.710938 15.921875 13.699219 C 14.835938 13.234375 13.476563 13 12 13 C 10.523438 13 9.164063 13.234375 8.078125 13.699219 C 8.054688 13.710938 8.03125 13.726563 8.003906 13.738281 C 7.265625 13.277344 6.195313 13 5 13 Z M 12 15 C 13.253906 15 14.398438 15.222656 15.128906 15.535156 C 15.496094 15.695313 15.75 15.875 15.875 16.007813 C 16.003906 16.140625 16 16.179688 16 16.21875 L 16 17 L 8 17 L 8 16.21875 C 8 16.179688 7.996094 16.140625 8.125 16.007813 C 8.25 15.875 8.503906 15.695313 8.871094 15.535156 C 9.601563 15.222656 10.746094 15 12 15 Z "/>
    </g>
  </svg>
  <svg id="google" xmlns="http://www.w3.org/2000/svg" xmlns:xlink="http://www.w3.org/1999/xlink" width="24pt" height="24pt" viewBox="0 0 24 24" version="1.1">
    <g id="surface1">
      <path style=" stroke:none;fill-rule:nonzero;fill-opacity:1;" d="M 21.914063 10.753906 L 21.695313 9 L 17.304688 9 L 20.277344 6.027344 L 18.730469 4.613281 C 16.878906 2.929688 14.488281 2 12 2 C 6.484375 2 2 6.484375 2 12 C 2 17.515625 6.484375 22 12 22 C 17.515625 22 22 17.515625 22 12 C 22 11.609375 21.972656 11.214844 21.914063 10.753906 Z M 12 20 C 7.582031 20 4 16.417969 4 12 C 4 7.582031 7.582031 4 12 4 C 14.074219 4 15.960938 4.796875 17.382813 6.09375 L 15.246094 8.226563 C 14.371094 7.472656 13.246094 7 12 7 C 9.238281 7 7 9.238281 7 12 C 7 14.761719 9.238281 17 12 17 C 14.050781 17 15.804688 15.765625 16.578125 14 L 13 14 L 13 11 L 19.929688 11 C 19.972656 11.328125 20 11.660156 20 12 C 20 16.417969 16.417969 20 12 20 Z M 11 9.171875 L 11 14.828125 C 9.835938 14.414063 9 13.304688 9 12 C 9 10.695313 9.835938 9.585938 11 9.171875 Z "/>
    </g>
  </svg>
  <svg id="mail" xmlns="http://www.w3.org/2000/svg" xmlns:xlink="http://www.w3.org/1999/xlink" width="24pt" height="24pt" viewBox="0 0 24 24" version="1.1">
    <g id="surface1">
      <path style=" stroke:none;fill-rule:nonzero;fill-opacity:1;" d="M 12 2 C 6.488281 2 2 6.488281 2 12 C 2 17.511719 6.488281 22 12 22 L 17 22 L 17 20 L 12 20 C 7.570313 20 4 16.429688 4 12 C 4 7.570313 7.570313 4 12 4 C 16.429688 4 20 7.570313 20 12 L 20 13.5 C 20 14.339844 19.339844 15 18.5 15 C 17.660156 15 17 14.339844 17 13.5 L 17 12 C 17 9.25 14.75 7 12 7 C 9.25 7 7 9.25 7 12 C 7 14.75 9.25 17 12 17 C 13.414063 17 14.6875 16.398438 15.597656 15.449219 C 16.230469 16.382813 17.296875 17 18.5 17 C 20.421875 17 22 15.421875 22 13.5 L 22 12 C 22 6.488281 17.511719 2 12 2 Z M 12 9 C 13.667969 9 15 10.332031 15 12 C 15 13.667969 13.667969 15 12 15 C 10.332031 15 9 13.667969 9 12 C 9 10.332031 10.332031 9 12 9 Z "/>
    </g>
  </svg>
  <svg id="facebook" xmlns="http://www.w3.org/2000/svg" xmlns:xlink="http://www.w3.org/1999/xlink" width="24pt" height="24pt" viewBox="0 0 24 24" version="1.1">
    <g id="surface1">
      <path style=" stroke:none;fill-rule:nonzero;fill-opacity:1;" d="M 5 3 C 3.898438 3 3 3.898438 3 5 L 3 19 C 3 20.101563 3.898438 21 5 21 L 19 21 C 20.101563 21 21 20.101563 21 19 L 21 5 C 21 3.898438 20.101563 3 19 3 Z M 5 5 L 19 5 L 19 19 L 14.414063 19 L 14.414063 15.035156 L 16.78125 15.035156 L 17.128906 12.3125 L 14.429688 12.3125 L 14.429688 10.574219 C 14.429688 9.785156 14.648438 9.253906 15.78125 9.253906 L 17.207031 9.253906 L 17.207031 6.820313 C 16.511719 6.75 15.8125 6.714844 15.113281 6.71875 C 13.042969 6.71875 11.621094 7.984375 11.621094 10.308594 L 11.621094 12.3125 L 9.277344 12.3125 L 9.277344 15.039063 L 11.621094 15.039063 L 11.621094 19 L 5 19 Z "/>
    </g>
  </svg>
  <svg id="excel-logo" xmlns="http://www.w3.org/2000/svg" xmlns:xlink="http://www.w3.org/1999/xlink" width="480pt"
       height="480pt" viewBox="0 0 480 480" version="1.1">
    <g id="surface1">
      <path style=" stroke:none;fill-rule:nonzero;fill:#169154;fill-opacity:1;"
            d="M 290 60 L 157.441406 60 C 147.808594 60 140 67.808594 140 77.441406 L 140 150.03125 L 290 150.03125 Z "/>
      <path style=" stroke:none;fill-rule:nonzero;fill:#18482A;fill-opacity:1;"
            d="M 140 330.539063 L 140 402.558594 C 140 412.191406 147.808594 420 157.429688 420 L 290 420 L 290 330.539063 Z "/>
      <path style=" stroke:none;fill-rule:nonzero;fill:#0C8045;fill-opacity:1;"
            d="M 140 150.03125 L 290 150.03125 L 290 240.050781 L 140 240.050781 Z "/>
      <path style=" stroke:none;fill-rule:nonzero;fill:#17472A;fill-opacity:1;"
            d="M 140 240.050781 L 290 240.050781 L 290 330.550781 L 140 330.550781 Z "/>
      <path style=" stroke:none;fill-rule:nonzero;fill:#29C27F;fill-opacity:1;"
            d="M 422.558594 60 L 290 60 L 290 150.03125 L 440 150.03125 L 440 77.441406 C 440 67.808594 432.191406 60 422.558594 60 Z "/>
      <path style=" stroke:none;fill-rule:nonzero;fill:#27663F;fill-opacity:1;"
            d="M 290 330.539063 L 290 420 L 422.570313 420 C 432.191406 420 440 412.191406 440 402.570313 L 440 330.550781 L 290 330.550781 Z "/>
      <path style=" stroke:none;fill-rule:nonzero;fill:#19AC65;fill-opacity:1;"
            d="M 290 150.03125 L 440 150.03125 L 440 240.050781 L 290 240.050781 Z "/>
      <path style=" stroke:none;fill-rule:nonzero;fill:#129652;fill-opacity:1;"
            d="M 290 240.050781 L 440 240.050781 L 440 330.550781 L 290 330.550781 Z "/>
      <path style=" stroke:none;fill-rule:nonzero;fill:#0C7238;fill-opacity:1;"
            d="M 223.191406 340 L 56.808594 340 C 47.53125 340 40 332.46875 40 323.191406 L 40 156.808594 C 40 147.53125 47.53125 140 56.808594 140 L 223.191406 140 C 232.46875 140 240 147.53125 240 156.808594 L 240 323.191406 C 240 332.46875 232.46875 340 223.191406 340 Z "/>
      <path style=" stroke:none;fill-rule:nonzero;fill:#FFFFFF;fill-opacity:1;"
            d="M 98.070313 190 L 121.929688 190 L 141.289063 227.539063 L 161.75 190 L 184.039063 190 L 153.328125 240 L 184.738281 290 L 161.230469 290 L 140.128906 250.699219 L 119.121094 290 L 95.261719 290 L 127.191406 239.820313 Z "/>
    </g>
  </svg>
</svg>
