<svg>
  <svg height="24pt" id="calendar" version="1.1"
       viewBox="0 0 24 24" width="24pt" xmlns="http://www.w3.org/2000/svg">
    <g id="surface1">
      <path
        d="M 6 1 L 6 3 L 5 3 C 3.898438 3 3 3.898438 3 5 L 3 19 C 3 20.101563 3.898438 21 5 21 L 19 21 C 20.101563 21 21 20.101563 21 19 L 21 5 C 21 3.898438 20.101563 3 19 3 L 18 3 L 18 1 L 16 1 L 16 3 L 8 3 L 8 1 Z M 5 5 L 19 5 L 19 7 L 5 7 Z M 5 9 L 19 9 L 19 19 L 5 19 Z M 10.488281 11 C 9.570313 11.003906 8.855469 11.527344 8.457031 12.300781 C 8.292969 12.621094 8.222656 12.929688 8.21875 13.234375 C 8.207031 14.628906 9.632813 15.832031 10.238281 16.34375 L 10.359375 16.449219 C 10.867188 16.890625 12 17.617188 12 17.617188 C 12 17.617188 13.136719 16.890625 13.640625 16.449219 L 13.765625 16.34375 C 14.371094 15.832031 15.796875 14.628906 15.78125 13.234375 C 15.777344 12.929688 15.707031 12.617188 15.546875 12.300781 C 15.148438 11.527344 14.433594 11 13.515625 11 C 12.933594 11 12.265625 11.328125 12.003906 11.703125 C 11.765625 11.332031 11.070313 11 10.488281 11 Z "
        style=" stroke:none;fill-rule:nonzero;fill-opacity:1;"/>
    </g>
  </svg>
  <svg height="96pt" id="check" version="1.1" viewBox="0 0 96 96" width="96pt" xmlns="http://www.w3.org/2000/svg">
    <g id="surface1">
      <path
        d="M 81.171875 21.171875 L 36 66.34375 L 18.828125 49.171875 L 13.171875 54.828125 L 36 77.65625 L 86.828125 26.828125 Z "
        style=" stroke:none;fill-rule:nonzero;fill-opacity:1;"/>
    </g>
  </svg>
  <svg height="96pt" id="check-mail" version="1.1" viewBox="0 0 96 96" width="96pt" xmlns="http://www.w3.org/2000/svg">
    <g id="surface1">
      <path
        d="M 12 16 C 7.578125 16 4 19.578125 4 24 L 4 72 C 4 76.421875 7.578125 80 12 80 L 52 80 L 44 72 L 12 72 L 12 32 L 44 52 L 76 32 L 76 63.03125 L 84 55.03125 L 84 24 C 84 19.578125 80.421875 16 76 16 Z M 12 24 L 76 24 L 44 44 Z M 90.359375 59.984375 L 72 78.34375 L 61.65625 68 L 56 73.65625 L 72 89.65625 L 96.015625 65.640625 Z "
        style=" stroke:none;fill-rule:nonzero;fill-opacity:1;"/>
    </g>
  </svg>
  <svg height="50" id="microsoft" viewBox="0 0 50 50" width="50" xmlns="http://www.w3.org/2000/svg">
    <path
      d="M 24.984375 3.9863281 A 1.0001 1.0001 0 0 0 24.839844 4 L 5 4 A 1.0001 1.0001 0 0 0 4 5 L 4 24.832031 A 1.0001 1.0001 0 0 0 4 25.158203 L 4 45 A 1.0001 1.0001 0 0 0 5 46 L 24.832031 46 A 1.0001 1.0001 0 0 0 25.158203 46 L 45 46 A 1.0001 1.0001 0 0 0 46 45 L 46 25.167969 A 1.0001 1.0001 0 0 0 46 24.841797 L 46 5 A 1.0001 1.0001 0 0 0 45 4 L 25.154297 4 A 1.0001 1.0001 0 0 0 24.984375 3.9863281 z M 6 6 L 24 6 L 24 24 L 6 24 L 6 6 z M 26 6 L 44 6 L 44 24 L 26 24 L 26 6 z M 6 26 L 24 26 L 24 44 L 6 44 L 6 26 z M 26 26 L 44 26 L 44 44 L 26 44 L 26 26 z"
      font-family="sans-serif"
      font-weight="400" overflow="visible"
      style="line-height:normal;text-indent:0;text-align:start;text-decoration-line:none;text-decoration-style:solid;text-decoration-color:#000000;text-transform:none;block-progression:tb;isolation:auto;mix-blend-mode:normal"
      white-space="normal"/>
  </svg>
  <svg height="24" id="checked" viewBox="0 0 24 24" width="24" xmlns="http://www.w3.org/2000/svg">
    <path
      d="M 12 2 C 6.486 2 2 6.486 2 12 C 2 17.514 6.486 22 12 22 C 17.514 22 22 17.514 22 12 C 22 10.874 21.803984 9.7942031 21.458984 8.7832031 L 19.839844 10.402344 C 19.944844 10.918344 20 11.453 20 12 C 20 16.411 16.411 20 12 20 C 7.589 20 4 16.411 4 12 C 4 7.589 7.589 4 12 4 C 13.633 4 15.151922 4.4938906 16.419922 5.3378906 L 17.851562 3.90625 C 16.203562 2.71225 14.185 2 12 2 z M 21.292969 3.2929688 L 11 13.585938 L 7.7070312 10.292969 L 6.2929688 11.707031 L 11 16.414062 L 22.707031 4.7070312 L 21.292969 3.2929688 z"/>
  </svg>
  <svg height="24" id="cancel" viewBox="0 0 24 24" width="24" xmlns="http://www.w3.org/2000/svg">
    <path
      d="M 12 2 C 6.4889971 2 2 6.4889971 2 12 C 2 17.511003 6.4889971 22 12 22 C 17.511003 22 22 17.511003 22 12 C 22 6.4889971 17.511003 2 12 2 z M 12 4 C 16.430123 4 20 7.5698774 20 12 C 20 16.430123 16.430123 20 12 20 C 7.5698774 20 4 16.430123 4 12 C 4 7.5698774 7.5698774 4 12 4 z M 8.7070312 7.2929688 L 7.2929688 8.7070312 L 10.585938 12 L 7.2929688 15.292969 L 8.7070312 16.707031 L 12 13.414062 L 15.292969 16.707031 L 16.707031 15.292969 L 13.414062 12 L 16.707031 8.7070312 L 15.292969 7.2929688 L 12 10.585938 L 8.7070312 7.2929688 z"/>
  </svg>
  <svg height="24pt" id="help" version="1.1" viewBox="0 0 24 24" width="24pt" xmlns="http://www.w3.org/2000/svg">
    <g id="surface1">
      <path
        d="M 12 2 C 6.488281 2 2 6.488281 2 12 C 2 17.511719 6.488281 22 12 22 C 17.511719 22 22 17.511719 22 12 C 22 6.488281 17.511719 2 12 2 Z M 12 4 C 16.429688 4 20 7.570313 20 12 C 20 16.429688 16.429688 20 12 20 C 7.570313 20 4 16.429688 4 12 C 4 7.570313 7.570313 4 12 4 Z M 12 6 C 9.789063 6 8 7.789063 8 10 L 10 10 C 10 8.898438 10.898438 8 12 8 C 13.101563 8 14 8.898438 14 10 C 14 12 11 12.367188 11 15 L 13 15 C 13 13.347656 16 12.5 16 10 C 16 7.789063 14.210938 6 12 6 Z M 11 16 L 11 18 L 13 18 L 13 16 Z "
        style=" stroke:none;fill-rule:nonzero;fill-opacity:1;"/>
    </g>
  </svg>
  <svg height="24pt" id="about" version="1.1"
       viewBox="0 0 24 24" width="24pt" xmlns="http://www.w3.org/2000/svg">
    <g id="surface1">
      <path
        d="M 4.007813 3 C 2.917969 3 2.007813 3.90625 2.007813 5 L 2 23 L 6 19 L 20 19 C 21.09375 19 22 18.09375 22 17 L 22 5 C 22 3.90625 21.09375 3 20 3 Z M 4.007813 5 L 20 5 L 20 17 L 5.171875 17 L 4.003906 18.167969 Z M 11 7 L 11 9 L 13 9 L 13 7 Z M 11 11 L 11 15 L 13 15 L 13 11 Z "
        style=" stroke:none;fill-rule:nonzero;fill-opacity:1;"/>
    </g>
  </svg>
  <svg height="24pt" id="office" version="1.1"
       viewBox="0 0 24 24" width="24pt" xmlns="http://www.w3.org/2000/svg">
    <g id="surface1">
      <path
        d="M 11 3 C 9.898438 3 9 3.898438 9 5 L 9 8.023438 C 10.207031 8.933594 11 10.371094 11 12 L 11 5 L 21 5 L 21 19 L 13 19 L 13 21 L 23 21 L 23 5 C 23 3.898438 22.101563 3 21 3 Z M 13 7 L 13 9 L 15 9 L 15 7 Z M 17 7 L 17 9 L 19 9 L 19 7 Z M 6 9 C 4.316406 9 3 10.316406 3 12 C 3 13.683594 4.316406 15 6 15 C 7.683594 15 9 13.683594 9 12 C 9 10.316406 7.683594 9 6 9 Z M 6 11 C 6.578125 11 7 11.421875 7 12 C 7 12.578125 6.578125 13 6 13 C 5.421875 13 5 12.578125 5 12 C 5 11.421875 5.421875 11 6 11 Z M 13 11 L 13 13 L 15 13 L 15 11 Z M 17 11 L 17 13 L 19 13 L 19 11 Z M 13 15 L 13 17 L 15 17 L 15 15 Z M 17 15 L 17 17 L 19 17 L 19 15 Z M 6 16 C 3.148438 16 1 17.457031 1 19.386719 L 1 21 L 11 21 L 11 19.386719 C 11 17.457031 8.851563 16 6 16 Z M 6 18 C 7.46875 18 8.488281 18.503906 8.851563 19 L 3.148438 19 C 3.511719 18.503906 4.53125 18 6 18 Z "
        style=" stroke:none;fill-rule:nonzero;fill-opacity:1;"/>
    </g>
  </svg>
  <svg height="24" id="wait" viewBox="0 0 24 24" width="24" xmlns="http://www.w3.org/2000/svg">
    <path
      d="M 12.5 3 A 2.5 2.5 0 0 0 10 5.5 A 2.5 2.5 0 0 0 12.5 8 A 2.5 2.5 0 0 0 15 5.5 A 2.5 2.5 0 0 0 12.5 3 z M 6 6 A 2 2 0 0 0 4 8 A 2 2 0 0 0 6 10 A 2 2 0 0 0 8 8 A 2 2 0 0 0 6 6 z M 18 7 A 1 1 0 0 0 17 8 A 1 1 0 0 0 18 9 A 1 1 0 0 0 19 8 A 1 1 0 0 0 18 7 z M 4.5 12 A 1.5 1.5 0 0 0 3 13.5 A 1.5 1.5 0 0 0 4.5 15 A 1.5 1.5 0 0 0 6 13.5 A 1.5 1.5 0 0 0 4.5 12 z M 20 12 A 1 1 0 0 0 19 13 A 1 1 0 0 0 20 14 A 1 1 0 0 0 21 13 A 1 1 0 0 0 20 12 z M 7.5 17 A 1.5 1.5 0 0 0 6 18.5 A 1.5 1.5 0 0 0 7.5 20 A 1.5 1.5 0 0 0 9 18.5 A 1.5 1.5 0 0 0 7.5 17 z M 18 17 A 1 1 0 0 0 17 18 A 1 1 0 0 0 18 19 A 1 1 0 0 0 19 18 A 1 1 0 0 0 18 17 z M 12.5 18 A 1.5 1.5 0 0 0 11 19.5 A 1.5 1.5 0 0 0 12.5 21 A 1.5 1.5 0 0 0 14 19.5 A 1.5 1.5 0 0 0 12.5 18 z"/>
  </svg>
  <svg height="96pt" id="menu" version="1.1"
       viewBox="0 0 96 96" width="96pt" xmlns="http://www.w3.org/2000/svg">
    <g id="surface1">
      <path d="M 8 20 L 8 28 L 88 28 L 88 20 Z M 8 44 L 8 52 L 88 52 L 88 44 Z M 8 68 L 8 76 L 88 76 L 88 68 Z "
            style=" stroke:none;fill-rule:nonzero;fill-opacity:1;"/>
    </g>
  </svg>
  <svg height="24" id="chevron-left" viewBox="0 0 24 24" width="24" xmlns="http://www.w3.org/2000/svg">
    <path d="M5,12l6,9h7l-6-9l6-9h-7L5,12z M7.404,12l4.667-7h2.193l-4.667,7l4.667,7H12.07L7.404,12z"/>
  </svg>
  <svg height="96pt" id="trip" version="1.1"
       viewBox="0 0 96 96" width="96pt" xmlns="http://www.w3.org/2000/svg">
    <g id="surface1">
      <path
        d="M 39.898438 8 C 38.847656 8 37.800781 8.402344 37 9.203125 L 31.203125 15 L 14.898438 10.296875 L 12 13.203125 L 22.5 23.703125 L 18.75 27.453125 L 10.945313 24.851563 L 8 27.796875 L 24.1875 44 L 27.140625 41.046875 L 24.546875 33.25 L 28.296875 29.5 L 38.789063 39.992188 L 41.695313 37.09375 L 37 20.796875 L 42.796875 15 C 44.398438 13.398438 44.398438 10.808594 42.796875 9.203125 C 41.996094 8.402344 40.949219 8 39.898438 8 Z M 51.296875 8.171875 C 51.730469 9.425781 52 10.738281 52 12.101563 C 52 13.511719 51.722656 14.871094 51.257813 16.164063 C 55.871094 16.632813 60.175781 18.113281 64 20.335938 L 64 36 C 64 38.199219 65.800781 40 68 40 L 72 40 L 72 48 L 56 48 C 53.800781 48 52 49.800781 52 52 L 52 60 C 52 64.398438 55.601563 68 60 68 L 64 68 L 64 75.671875 C 59.285156 78.40625 53.832031 80 48 80 C 45.234375 80 42.5625 79.617188 40 78.953125 L 40 76 C 40 71.601563 36.398438 68 32 68 L 28 68 L 28 60 C 28 57.800781 26.199219 56 24 56 L 17.046875 56 C 16.382813 53.4375 16 50.765625 16 48 C 16 47.71875 16.039063 47.445313 16.046875 47.164063 L 8.820313 39.929688 C 8.285156 42.539063 8 45.234375 8 48 C 8 70.054688 25.945313 88 48 88 C 70.054688 88 88 70.054688 88 48 C 88 27.054688 71.8125 9.855469 51.296875 8.171875 Z "
        style=" stroke:none;fill-rule:nonzero;fill-opacity:1;"/>
    </g>
  </svg>
  <svg height="96pt" id="timetable" version="1.1"
       viewBox="0 0 96 96" width="96pt" xmlns="http://www.w3.org/2000/svg">
    <g id="surface1">
      <path
        d="M 24 8 C 19.589844 8 16 11.589844 16 16 L 16 80 C 16 84.410156 19.589844 88 24 88 L 44.3125 88 C 42.875 85.523438 41.777344 82.839844 41.046875 80 L 24 80 L 24 64 L 41.046875 64 C 42.800781 57.210938 46.691406 51.300781 52 47.039063 L 52 40 L 72 40 C 74.769531 40 77.441406 40.386719 80 41.046875 L 80 16 C 80 11.589844 76.410156 8 72 8 Z M 24 16 L 44 16 L 44 32 L 24 32 Z M 52 16 L 72 16 L 72 32 L 52 32 Z M 24 40 L 44 40 L 44 56 L 24 56 Z M 72 48 C 58.792969 48 48 58.792969 48 72 C 48 85.207031 58.792969 96 72 96 C 85.207031 96 96 85.207031 96 72 C 96 58.792969 85.207031 48 72 48 Z M 72 56 C 80.882813 56 88 63.117188 88 72 C 88 80.882813 80.882813 88 72 88 C 63.117188 88 56 80.882813 56 72 C 56 63.117188 63.117188 56 72 56 Z M 73.710938 60.46875 L 67.3125 72.554688 L 75.703125 80.945313 L 79.945313 76.703125 L 74.6875 71.445313 L 79.015625 63.273438 Z "
        style=" stroke:none;fill-rule:nonzero;fill-opacity:1;"/>
    </g>
  </svg>
  <svg height="96pt" id="student" version="1.1"
       viewBox="0 0 96 96" width="96pt" xmlns="http://www.w3.org/2000/svg">
    <g id="surface1">
      <path
        d="M 48 0 L 0 20 L 16 26.671875 L 16 47.070313 C 13.488281 49.316406 12 52.558594 12 56 C 12 61.105469 15.292969 65.589844 19.96875 67.265625 C 25.585938 80.113281 36.171875 88 48 88 C 59.828125 88 70.414063 80.113281 76.03125 67.265625 C 80.707031 65.589844 84 61.105469 84 56 C 84 52.558594 82.511719 49.316406 80 47.070313 L 80 26.671875 L 88 23.335938 L 88 44 L 96 44 L 96 20 Z M 48 8.671875 L 75.203125 20 L 72 21.328125 L 72 32.6875 C 70.746094 32.242188 69.398438 32 68 32 L 28 32 C 26.601563 32 25.253906 32.242188 24 32.6875 L 24 21.328125 L 20.796875 20 Z M 28 40 L 68 40 C 70.207031 40 72 41.792969 72 44 L 72 51.40625 L 74.007813 52.554688 C 75.253906 53.269531 76 54.558594 76 56 C 76 57.96875 74.515625 59.652344 72.546875 59.921875 L 70.210938 60.25 L 69.367188 62.453125 C 65.210938 73.277344 57.023438 80 48 80 C 38.976563 80 30.792969 73.273438 26.640625 62.453125 L 25.796875 60.25 L 23.453125 59.929688 C 21.480469 59.65625 20 57.96875 20 56 C 20 54.558594 20.746094 53.269531 21.992188 52.554688 L 24 51.40625 L 24 44 C 24 41.792969 25.792969 40 28 40 Z "
        style=" stroke:none;fill-rule:nonzero;fill-opacity:1;"/>
    </g>
  </svg>
  <svg height="96pt" id="money" version="1.1"
       viewBox="0 0 96 96" width="96pt" xmlns="http://www.w3.org/2000/svg">
    <g id="surface1">
      <path
        d="M 48 0.117188 C 43.957031 0.117188 39.917969 1.410156 36.71875 4 L 24.09375 4 L 28.671875 28.914063 C 21.203125 35.667969 8 50.105469 8 68 C 8 76.007813 10.433594 82.371094 15.242188 86.90625 L 16.398438 88 L 79.601563 88 L 80.757813 86.90625 C 85.5625 82.367188 88 76.007813 88 68 C 88 50.121094 74.804688 35.683594 67.335938 28.921875 L 71.914063 4 L 59.28125 4 C 56.082031 1.410156 52.042969 0.117188 48 0.117188 Z M 48 8.09375 C 50.542969 8.09375 53.082031 9.011719 54.96875 10.859375 L 56.140625 12 L 62.304688 12 L 60.101563 24 L 35.898438 24 L 33.695313 12 L 39.859375 12 L 41.03125 10.859375 C 42.917969 9.011719 45.457031 8.09375 48 8.09375 Z M 37.367188 32 L 58.640625 32 C 62.960938 35.445313 80 50.15625 80 68 C 80 73.132813 78.785156 77.074219 76.296875 80 L 50.09375 80 L 50.09375 76.351563 C 51.328125 76.195313 58.304688 75.050781 58.304688 66.554688 C 58.304688 54.855469 45.683594 57.09375 45.6875 49.914063 C 45.6875 45.800781 47.679688 45.671875 48.4375 45.671875 C 49.40625 45.671875 51.460938 46.457031 51.460938 51.46875 L 58.359375 51.46875 C 58.359375 41.875 51.800781 40.386719 50.632813 40.164063 L 50.632813 34.851563 L 46.953125 34.851563 L 46.953125 40.070313 C 45.71875 40.226563 38.789063 41.527344 38.789063 49.882813 C 38.789063 62.074219 51.414063 58.464844 51.414063 66.601563 C 51.414063 70.671875 48.777344 70.773438 48.242188 70.773438 C 47.753906 70.773438 44.539063 71.027344 44.539063 64.796875 L 37.640625 64.796875 C 37.640625 75.351563 45.296875 76.195313 46.4375 76.351563 L 46.4375 80 L 19.695313 80 C 17.210938 77.074219 16 73.132813 16 68 C 16 50.207031 33.046875 35.453125 37.367188 32 Z "
        style=" stroke:none;fill-rule:nonzero;fill-opacity:1;"/>
    </g>
  </svg>
  <svg height="96pt" id="management" version="1.1"
       viewBox="0 0 96 96" width="96pt" xmlns="http://www.w3.org/2000/svg">
    <g id="surface1">
      <path
        d="M 28 8 C 23.582031 8 20 11.582031 20 16 C 20 20.417969 23.582031 24 28 24 C 32.417969 24 36 20.417969 36 16 C 36 11.582031 32.417969 8 28 8 Z M 20 28 C 15.578125 28 12 31.578125 12 36 L 12 64 L 16 64 L 16 88 L 24 88 L 24 64 L 32 64 L 32 88 L 40 88 L 40 44 L 32 44 L 32 56 L 20 56 L 20 36 L 56 36 L 56 28 Z M 64 28 L 64 36 L 84 36 L 84 28 Z M 48 44 L 48 52 L 56 52 L 56 44 Z M 64 44 L 64 52 L 84 52 L 84 44 Z M 48 60 L 48 68 L 56 68 L 56 60 Z M 64 60 L 64 68 L 84 68 L 84 60 Z M 48 76 L 48 84 L 56 84 L 56 76 Z M 64 76 L 64 84 L 84 84 L 84 76 Z "
        style=" stroke:none;fill-rule:nonzero;fill-opacity:1;"/>
    </g>
  </svg>
  <svg height="96pt" id="scanner" version="1.1"
       viewBox="0 0 96 96" width="96pt" xmlns="http://www.w3.org/2000/svg">
    <g id="surface1">
      <path
        d="M 18.179688 12 C 14.769531 12 12 14.769531 12 18.179688 C 12 18.699219 15.1875 34.601563 15.1875 34.601563 C 15.65625 37.554688 18.195313 40 21.273438 40 L 50.367188 40 C 52.261719 40 53.898438 41.335938 54.28125 43.195313 L 55.28125 48 L 52 48 L 52 56 L 56.929688 56 L 58.820313 65.148438 C 58.820313 65.148438 55.992188 74.910156 55.992188 77.453125 C 55.992188 80.839844 58.578125 83.589844 61.875 83.929688 C 61.90625 83.949219 61.976563 84 61.976563 84 L 77.453125 84 C 81.070313 84 84 81.066406 84 77.453125 C 84 76.757813 76.988281 40.320313 76.625 38.078125 C 75.917969 33.699219 79.566406 30.546875 80.789063 29.695313 C 82.683594 28.644531 84 26.6875 84 24.367188 L 84 18.179688 C 84 14.769531 81.230469 12 77.820313 12 Z M 20.460938 20 L 76 20 L 76 23.28125 C 71.867188 26.253906 67.5625 32.171875 68.726563 39.351563 C 68.886719 40.332031 69.878906 45.550781 71.617188 54.695313 C 72.941406 61.65625 74.789063 71.402344 75.632813 76 L 64.289063 76 C 64.734375 73.910156 65.613281 70.5 66.515625 67.375 L 67.0625 65.46875 L 66.65625 63.53125 L 65.101563 56 L 63.109375 46.382813 L 62.117188 41.570313 C 60.972656 36.023438 56.03125 32 50.367188 32 L 22.820313 32 C 21.933594 27.554688 21.019531 22.910156 20.460938 20 Z M 12 60 L 12 84 L 16 84 L 16 60 Z M 20 60 L 20 84 L 24 84 L 24 60 Z M 28 60 L 28 84 L 36 84 L 36 60 Z M 40 60 L 40 84 L 44 84 L 44 60 Z "
        style=" stroke:none;fill-rule:nonzero;fill-opacity:1;"/>
    </g>
  </svg>
  <svg height="96pt" id="signup" version="1.1"
       viewBox="0 0 96 96" width="96pt" xmlns="http://www.w3.org/2000/svg">
    <g id="surface1">
      <path
        d="M 48 3.53125 L 7.054688 24 L 20 30.46875 L 20 48.523438 C 16.878906 51.082031 15.363281 55.238281 16.242188 59.359375 C 17.121094 63.4375 20.359375 66.601563 24.398438 67.640625 C 26.4375 76.921875 36.238281 84 48 84 C 50.839844 84 53.480469 83.605469 56 82.84375 L 56 74.359375 C 53.640625 75.398438 50.921875 76 48 76 C 39.160156 76 32 70.601563 32 64 L 32 60 L 27.28125 60 C 25.722656 60 24.359375 59 24.078125 57.71875 C 23.71875 56.039063 24.640625 54.800781 25.71875 54.28125 L 28 53.203125 L 28 44 C 28 43.449219 28.109375 42.921875 28.3125 42.445313 C 28.515625 41.96875 28.808594 41.535156 29.171875 41.171875 C 29.898438 40.445313 30.898438 40 32 40 L 64 40 C 66.199219 40 68 41.800781 68 44 L 68 53.203125 L 70.28125 54.28125 C 70.960938 54.601563 71.5625 55.199219 71.84375 56 L 79.921875 56 C 79.683594 53.078125 78.238281 50.402344 76 48.523438 L 76 30.46875 L 88.945313 24 Z M 48 12.46875 L 71.054688 24 L 68 25.53125 L 68 32.71875 C 66.761719 32.238281 65.398438 32 64 32 L 32 32 C 30.601563 32 29.238281 32.238281 28 32.71875 L 28 25.53125 L 24.945313 24 Z M 76 64 L 76 76 L 64 76 L 64 84 L 76 84 L 76 96 L 84 96 L 84 84 L 96 84 L 96 76 L 84 76 L 84 64 Z "
        style=" stroke:none;fill-rule:nonzero;fill-opacity:1;"/>
    </g>
  </svg>
  <svg height="96pt" id="schedule" version="1.1"
       viewBox="0 0 96 96" width="96pt" xmlns="http://www.w3.org/2000/svg">
    <g id="surface1">
      <path
        d="M 20 12 C 15.628906 12 12 15.628906 12 20 L 12 76 C 12 80.371094 15.628906 84 20 84 L 76 84 C 80.371094 84 84 80.371094 84 76 L 84 20 C 84 15.628906 80.371094 12 76 12 Z M 20 20 L 28 20 L 28 28 L 20 28 Z M 36 20 L 76 20 L 76 28 L 36 28 Z M 20 36 L 28 36 L 28 44 L 20 44 Z M 36 36 L 76 36 L 76 44 L 36 44 Z M 20 52 L 28 52 L 28 60 L 20 60 Z M 36 52 L 76 52 L 76 60 L 36 60 Z M 20 68 L 28 68 L 28 76 L 20 76 Z M 36 68 L 76 68 L 76 76 L 36 76 Z "
        style=" stroke:none;fill-rule:nonzero;fill-opacity:1;"/>
    </g>
  </svg>
  <svg height="96pt" id="credentials" version="1.1"
       viewBox="0 0 96 96" width="96pt" xmlns="http://www.w3.org/2000/svg">
    <g id="surface1">
      <path
        d="M 24 12 C 15.210938 12 8 19.210938 8 28 C 8 35.402344 13.136719 41.621094 20 43.421875 L 20 84 L 40 84 L 40 76 L 28 76 L 28 68 L 36 68 L 36 60 L 28 60 L 28 43.421875 C 34.863281 41.621094 40 35.402344 40 28 C 40 19.210938 32.789063 12 24 12 Z M 24 20 C 28.464844 20 32 23.535156 32 28 C 32 32.464844 28.464844 36 24 36 C 19.535156 36 16 32.464844 16 28 C 16 23.535156 19.535156 20 24 20 Z M 48 20 L 48 44 L 88 44 L 88 20 Z M 56 28 L 80 28 L 80 36 L 56 36 Z M 48 52 L 48 76 L 88 76 L 88 52 Z M 56 60 L 80 60 L 80 68 L 56 68 Z "
        style=" stroke:none;fill-rule:nonzero;fill-opacity:1;"/>
    </g>
  </svg>
  <svg height="96pt" id="plus" version="1.1"
       viewBox="0 0 96 96" width="96pt" xmlns="http://www.w3.org/2000/svg">
    <g id="surface1">
      <path
        d="M 48 8 C 25.957031 8 8 25.957031 8 48 C 8 70.042969 25.957031 88 48 88 C 70.042969 88 88 70.042969 88 48 C 88 25.957031 70.042969 8 48 8 Z M 48 16 C 65.71875 16 80 30.28125 80 48 C 80 65.71875 65.71875 80 48 80 C 30.28125 80 16 65.71875 16 48 C 16 30.28125 30.28125 16 48 16 Z M 44 28 L 44 44 L 28 44 L 28 52 L 44 52 L 44 68 L 52 68 L 52 52 L 68 52 L 68 44 L 52 44 L 52 28 Z "
        style=" stroke:none;fill-rule:nonzero;fill-opacity:1;"/>
    </g>
  </svg>
  <svg height="96pt" id="minus" version="1.1"
       viewBox="0 0 96 96" width="96pt" xmlns="http://www.w3.org/2000/svg">
    <g id="surface1">
      <path
        d="M 48 8 C 25.945313 8 8 25.945313 8 48 C 8 70.054688 25.945313 88 48 88 C 70.054688 88 88 70.054688 88 48 C 88 25.945313 70.054688 8 48 8 Z M 48 16 C 65.644531 16 80 30.355469 80 48 C 80 65.644531 65.644531 80 48 80 C 30.355469 80 16 65.644531 16 48 C 16 30.355469 30.355469 16 48 16 Z M 32 44 L 32 52 L 64 52 L 64 44 Z "
        style=" stroke:none;fill-rule:nonzero;fill-opacity:1;"/>
    </g>
  </svg>
  <svg height="96pt" id="update" version="1.1" viewBox="0 0 96 96" width="96pt" xmlns="http://www.w3.org/2000/svg">
    <g id="surface1">
      <path
        d="M 48 8 C 25.953125 8 8 25.953125 8 48 C 8 70.046875 25.953125 88 48 88 C 49.957031 88 51.871094 87.8125 53.757813 87.539063 C 58.167969 92.703125 64.710938 96 72 96 C 85.207031 96 96 85.207031 96 72 C 96 58.792969 85.207031 48 72 48 C 58.792969 48 48 58.792969 48 72 C 48 74.777344 48.503906 77.433594 49.382813 79.921875 C 48.917969 79.941406 48.46875 80 48 80 C 30.277344 80 16 65.722656 16 48 C 16 30.277344 30.277344 16 48 16 C 54.808594 16 61.074219 18.140625 66.25 21.75 L 60 28 L 80 28 L 80 8 L 72 16 C 65.3125 10.980469 56.988281 8 48 8 Z M 72 56 C 76.015625 56 79.621094 57.507813 82.421875 59.921875 L 72 70.34375 L 66.828125 65.171875 L 61.171875 70.828125 L 72 81.65625 L 87.023438 66.632813 C 87.621094 68.316406 88 70.105469 88 72 C 88 80.882813 80.882813 88 72 88 C 63.117188 88 56 80.882813 56 72 C 56 63.117188 63.117188 56 72 56 Z "
        style=" stroke:none;fill-rule:nonzero;fill-opacity:1;"/>
    </g>
  </svg>
  <svg height="96pt" id="euro" version="1.1" viewBox="0 0 96 96" width="96pt" xmlns="http://www.w3.org/2000/svg">
    <g id="surface1">
      <path
        d="M 60.0625 76.445313 C 54.542969 76.445313 50.285156 74.765625 47.273438 71.402344 C 44.433594 68.230469 42.921875 63.730469 42.640625 57.996094 L 64 57.996094 L 64 50.996094 L 42.5 50.996094 L 42.5 44 L 64 44 L 64 37 L 42.753906 37 C 43.144531 31.671875 44.632813 27.449219 47.34375 24.457031 C 50.304688 21.1875 54.523438 19.554688 60.007813 19.554688 C 63.683594 19.554688 67.347656 20.121094 70.992188 21.242188 L 72 13.484375 C 67.484375 12.496094 63.457031 12 59.910156 12 C 51.789063 12 45.339844 14.304688 40.574219 18.90625 C 36.097656 23.234375 33.65625 29.316406 33.09375 37 L 24 37 L 24 44 L 33 44 L 33 51 L 24 51 L 24 58 L 33.019531 58 C 33.390625 66.09375 35.804688 72.445313 40.375 76.953125 C 45.140625 81.652344 51.667969 84 59.960938 84 C 63.972656 84 67.984375 83.515625 72 82.546875 L 70.996094 74.808594 C 67.589844 75.898438 63.941406 76.445313 60.0625 76.445313 Z "
        style=" stroke:none;fill-rule:nonzero;fill-opacity:1;"/>
    </g>
  </svg>
  <svg height="24pt" id="users" version="1.1" viewBox="0 0 24 24" width="24pt" xmlns="http://www.w3.org/2000/svg">
    <g id="surface1">
      <path
        d="M 12 5 C 10.355469 5 9 6.355469 9 8 C 9 9.644531 10.355469 11 12 11 C 13.644531 11 15 9.644531 15 8 C 15 6.355469 13.644531 5 12 5 Z M 5 7 C 3.894531 7 3 7.894531 3 9 C 3 10.105469 3.894531 11 5 11 C 6.105469 11 7 10.105469 7 9 C 7 7.894531 6.105469 7 5 7 Z M 12 7 C 12.5625 7 13 7.4375 13 8 C 13 8.5625 12.5625 9 12 9 C 11.4375 9 11 8.5625 11 8 C 11 7.4375 11.4375 7 12 7 Z M 19 7 C 17.894531 7 17 7.894531 17 9 C 17 10.105469 17.894531 11 19 11 C 20.105469 11 21 10.105469 21 9 C 21 7.894531 20.105469 7 19 7 Z M 5 13 C 2.816406 13 1 13.910156 1 15.21875 L 1 17 L 6 17 L 6 19 L 18 19 L 18 17 L 23 17 L 23 15.21875 C 23 13.910156 21.183594 13 19 13 C 17.804688 13 16.734375 13.277344 15.996094 13.738281 C 15.96875 13.726563 15.945313 13.710938 15.921875 13.699219 C 14.835938 13.234375 13.476563 13 12 13 C 10.523438 13 9.164063 13.234375 8.078125 13.699219 C 8.054688 13.710938 8.03125 13.726563 8.003906 13.738281 C 7.265625 13.277344 6.195313 13 5 13 Z M 12 15 C 13.253906 15 14.398438 15.222656 15.128906 15.535156 C 15.496094 15.695313 15.75 15.875 15.875 16.007813 C 16.003906 16.140625 16 16.179688 16 16.21875 L 16 17 L 8 17 L 8 16.21875 C 8 16.179688 7.996094 16.140625 8.125 16.007813 C 8.25 15.875 8.503906 15.695313 8.871094 15.535156 C 9.601563 15.222656 10.746094 15 12 15 Z "
        style=" stroke:none;fill-rule:nonzero;fill-opacity:1;"/>
    </g>
  </svg>
  <svg height="24pt" id="google" version="1.1" viewBox="0 0 24 24" width="24pt" xmlns="http://www.w3.org/2000/svg">
    <g id="surface1">
      <path
        d="M 21.914063 10.753906 L 21.695313 9 L 17.304688 9 L 20.277344 6.027344 L 18.730469 4.613281 C 16.878906 2.929688 14.488281 2 12 2 C 6.484375 2 2 6.484375 2 12 C 2 17.515625 6.484375 22 12 22 C 17.515625 22 22 17.515625 22 12 C 22 11.609375 21.972656 11.214844 21.914063 10.753906 Z M 12 20 C 7.582031 20 4 16.417969 4 12 C 4 7.582031 7.582031 4 12 4 C 14.074219 4 15.960938 4.796875 17.382813 6.09375 L 15.246094 8.226563 C 14.371094 7.472656 13.246094 7 12 7 C 9.238281 7 7 9.238281 7 12 C 7 14.761719 9.238281 17 12 17 C 14.050781 17 15.804688 15.765625 16.578125 14 L 13 14 L 13 11 L 19.929688 11 C 19.972656 11.328125 20 11.660156 20 12 C 20 16.417969 16.417969 20 12 20 Z M 11 9.171875 L 11 14.828125 C 9.835938 14.414063 9 13.304688 9 12 C 9 10.695313 9.835938 9.585938 11 9.171875 Z "
        style=" stroke:none;fill-rule:nonzero;fill-opacity:1;"/>
    </g>
  </svg>
  <svg height="24pt" id="mail" version="1.1" viewBox="0 0 24 24" width="24pt" xmlns="http://www.w3.org/2000/svg">
    <g id="surface1">
      <path
        d="M 12 2 C 6.488281 2 2 6.488281 2 12 C 2 17.511719 6.488281 22 12 22 L 17 22 L 17 20 L 12 20 C 7.570313 20 4 16.429688 4 12 C 4 7.570313 7.570313 4 12 4 C 16.429688 4 20 7.570313 20 12 L 20 13.5 C 20 14.339844 19.339844 15 18.5 15 C 17.660156 15 17 14.339844 17 13.5 L 17 12 C 17 9.25 14.75 7 12 7 C 9.25 7 7 9.25 7 12 C 7 14.75 9.25 17 12 17 C 13.414063 17 14.6875 16.398438 15.597656 15.449219 C 16.230469 16.382813 17.296875 17 18.5 17 C 20.421875 17 22 15.421875 22 13.5 L 22 12 C 22 6.488281 17.511719 2 12 2 Z M 12 9 C 13.667969 9 15 10.332031 15 12 C 15 13.667969 13.667969 15 12 15 C 10.332031 15 9 13.667969 9 12 C 9 10.332031 10.332031 9 12 9 Z "
        style=" stroke:none;fill-rule:nonzero;fill-opacity:1;"/>
    </g>
  </svg>
  <svg height="24pt" id="facebook" version="1.1" viewBox="0 0 24 24" width="24pt" xmlns="http://www.w3.org/2000/svg">
    <g id="surface1">
      <path
        d="M 5 3 C 3.898438 3 3 3.898438 3 5 L 3 19 C 3 20.101563 3.898438 21 5 21 L 19 21 C 20.101563 21 21 20.101563 21 19 L 21 5 C 21 3.898438 20.101563 3 19 3 Z M 5 5 L 19 5 L 19 19 L 14.414063 19 L 14.414063 15.035156 L 16.78125 15.035156 L 17.128906 12.3125 L 14.429688 12.3125 L 14.429688 10.574219 C 14.429688 9.785156 14.648438 9.253906 15.78125 9.253906 L 17.207031 9.253906 L 17.207031 6.820313 C 16.511719 6.75 15.8125 6.714844 15.113281 6.71875 C 13.042969 6.71875 11.621094 7.984375 11.621094 10.308594 L 11.621094 12.3125 L 9.277344 12.3125 L 9.277344 15.039063 L 11.621094 15.039063 L 11.621094 19 L 5 19 Z "
        style=" stroke:none;fill-rule:nonzero;fill-opacity:1;"/>
    </g>
  </svg>
  <svg height="96pt" id="home-marker" version="1.1" viewBox="0 0 96 96" width="96pt" xmlns="http://www.w3.org/2000/svg">
    <g id="surface1">
      <path
        d="M 48 8 C 32.53125 8 20 20.53125 20 36 C 20 56 48 88 48 88 C 48 88 76 56 76 36 C 76 20.53125 63.46875 8 48 8 Z M 48 16 C 59.03125 16 68 24.96875 68 36 C 68 46.078125 57.375 63.15625 48 75.359375 C 38.625 63.15625 28 46.078125 28 36 C 28 24.96875 36.96875 16 48 16 Z M 48 24 L 32 36 L 32 40 L 36 40 L 36 48 C 36 50.203125 37.796875 52 40 52 L 44 52 L 44 40 L 52 40 L 52 52 L 56 52 C 58.203125 52 60 50.203125 60 48 L 60 40 L 64 40 L 64 36 Z "
        style=" stroke:none;fill-rule:nonzero;fill-opacity:1;"/>
    </g>
  </svg>
  <svg height="96pt" id="marker" version="1.1" viewBox="0 0 96 96" width="96pt" xmlns="http://www.w3.org/2000/svg">
    <g id="surface1">
      <path
        d="M 48 8.03125 C 32.578125 8.03125 20.03125 20.59375 20.03125 36.015625 C 20.03125 53.953125 43.890625 83.078125 44.921875 84.3125 L 48 88.046875 L 51.078125 84.3125 C 52.109375 83.078125 75.96875 53.953125 75.96875 36.015625 C 75.96875 20.59375 63.421875 8.03125 48 8.03125 Z M 48 16.03125 C 59.015625 16.03125 67.96875 25 67.96875 36.015625 C 67.96875 46.828125 55.515625 65.4375 48 75.3125 C 40.484375 65.453125 28.03125 46.859375 28.03125 36.015625 C 28.03125 25 36.984375 16.03125 48 16.03125 Z M 48 26 C 42.46875 26 38 30.46875 38 36 C 38 41.53125 42.46875 46 48 46 C 53.53125 46 58 41.53125 58 36 C 58 30.46875 53.53125 26 48 26 Z "
        style=" stroke:none;fill-rule:nonzero;fill-opacity:1;"/>
    </g>
  </svg>
  <svg height="96pt" id="call" version="1.1" viewBox="0 0 96 96" width="96pt" xmlns="http://www.w3.org/2000/svg">
    <g id="surface1">
      <path
        d="M 80 12 C 61.84375 12 44.5 19.359375 31.859375 31.859375 C 19.359375 44.5 12 61.84375 12 80 C 12 82.6875 14.25 84 16 84 L 30.046875 84 C 32.21875 84 34 82.265625 34.046875 80.09375 C 34.109375 77.578125 34.25 74.40625 34.609375 72.390625 C 34.984375 70.234375 35.734375 67.625 36.3125 65.78125 C 36.75 64.34375 36.359375 62.78125 35.296875 61.703125 L 26.484375 52.84375 C 29.703125 46.71875 33.46875 41.796875 37.640625 37.640625 C 41.796875 33.46875 46.71875 29.703125 52.84375 26.484375 L 61.71875 35.296875 C 62.484375 36.0625 63.53125 36.484375 64.59375 36.484375 C 64.984375 36.484375 65.390625 36.421875 65.78125 36.3125 C 67.625 35.734375 70.234375 34.984375 72.40625 34.609375 C 74.40625 34.25 77.578125 34.109375 80.09375 34.046875 C 82.265625 34 84 32.21875 84 30.046875 L 84 16 C 84 14.25 82.6875 12 80 12 Z M 27.984375 65.703125 C 27.421875 67.703125 27 69.484375 26.734375 71.015625 C 26.5 72.3125 26.328125 73.96875 26.203125 76 L 20.140625 76 C 20.484375 70.84375 21.515625 65.75 23.171875 60.859375 Z M 76 26.203125 C 73.96875 26.328125 72.3125 26.5 71.015625 26.734375 C 69.484375 27 67.71875 27.421875 65.703125 27.984375 L 60.859375 23.171875 C 65.75 21.515625 70.84375 20.484375 76 20.140625 Z "
        style=" stroke:none;fill-rule:nonzero;fill-opacity:1;"/>
    </g>
  </svg>
  <svg height="96pt" id="party" version="1.1" viewBox="0 0 96 96" width="96pt" xmlns="http://www.w3.org/2000/svg">
    <g id="surface1">
      <path
        d="M 36 8 C 22.75 8 12 19 12 32.359375 C 12 39.046875 14.46875 46.4375 18.515625 52.59375 C 21.8125 57.609375 26.375 61.96875 32 63.4375 L 32 84 L 40 84 L 40 63.4375 C 43.484375 62.515625 46.5625 60.5 49.171875 57.890625 C 50.1875 59.53125 51.328125 61.09375 52.625 62.46875 C 54.65625 64.609375 57.15625 66.375 60 67.296875 L 59.984375 88 L 67.984375 88 L 68 67.34375 C 72.515625 65.90625 76.109375 62.21875 78.6875 58.125 C 81.984375 52.890625 83.984375 46.65625 83.984375 40.953125 C 83.984375 29.546875 75.109375 20 63.984375 20 C 61.640625 20 59.40625 20.46875 57.3125 21.25 C 53.328125 13.40625 45.28125 8 36 8 Z M 36 16 C 44.84375 16 52 23.234375 52 32.359375 C 52 36.921875 49.984375 43.34375 46.796875 48.203125 C 43.609375 53.0625 39.546875 56 36 56 C 32.453125 56 28.390625 53.046875 25.203125 48.1875 C 22.015625 43.34375 20 36.921875 20 32.359375 C 20 23.25 27.15625 16 36 16 Z M 63.984375 28 C 70.515625 28 75.984375 33.625 75.984375 40.953125 C 75.984375 44.625 74.40625 49.921875 71.921875 53.859375 C 69.4375 57.796875 66.34375 60 64 60 C 62.34375 60 60.40625 59.0625 58.4375 56.984375 C 56.953125 55.390625 55.546875 53.21875 54.453125 50.875 C 57.875 45.078125 60 38.453125 60 32.359375 C 60 31.171875 59.875 30.015625 59.71875 28.875 C 61.046875 28.328125 62.46875 28 63.984375 28 Z "
        style=" stroke:none;fill-rule:nonzero;fill-opacity:1;"/>
    </g>
  </svg>
  <svg id="tumi-logo" viewBox="0 0 274.98 261.98" xmlns="http://www.w3.org/2000/svg">
    <path clip-rule="evenodd"
          d="M161.84 113.53c8.9 13.66 14.13 18.68 28.05 18.87 14.2.2 18.5-9.02 39.07-4.05-19.67-11.44-28.38-.24-42.52-3.17-13.81-2.86-23.74-11.9-24.6-11.65z"
          fill-rule="evenodd"/>
    <path
      d="M274.6 148.27c-3.86-19.92-36.06-50.31-62.39-58.17 1.96-2.71 4.24-5.17 6.78-7.34 7.21-5.37 15.84.28 10.51-5.08-5.24-5.28-15.74-9.29-27.4-11.3 5.76-16.18 6.95-34.46 11.03-42.39 5.46-10.62 19.05-8.94 9.56-12.21-19.36-6.68-62.41 6.32-82.14 25.49-3.82 3.65-7.42 7.51-10.79 11.58-.4-.42-1.45-1.75-2.63-3.32-3.9-5.16-7.51-9.65-11.29-14.04a168.897 168.897 0 0 0-19.9-19.77C86.45 4.01 78.11.02 71.57 0c-1.43-.02-2.86.19-4.23.62-4.87 1.57-8.21 5.83-9.83 12.55-2.82 11.7-.53 30.52 6.6 54.2 1.1 3.66 4.26 13.13 5.46 16.37.58 1.58.81 2.21.68 2.33-.04.02-.09.04-.13.06-.87.24-1.76.42-2.65.55-5.86.97-11.98 2.2-17.65 3.58-29.61 7.22-47.36 18.2-49.63 30.67-.36 2.35-.19 4.75.5 7.02.67 1.87 1.58 3.64 2.71 5.27a37.08 37.08 0 0 0 8.37 7.93c11.51 8.09 31.57 14.84 55.48 18.64 1.78.29 3.29.56 3.35.62.01.03.01.07 0 .1-.22.87-.6 1.97-1.12 3.42-7.37 20.34-11.7 37.96-12.86 52.28-.25 3.89-.28 7.78-.08 11.67.51 5.53 1.84 10.02 3.87 13.1 1.75 2.61 4.35 4.54 7.36 5.44 2.01.47 4.09.59 6.14.35 6.23-.82 13.73-4.71 22.17-11.48 10.28-8.25 20.94-19.77 32.52-35.17.67-.88 1.25-1.63 1.33-1.69l.04.04c.03.03.1.11.22.26 8.11 20.09 38.56 37.73 44.46 46.87 6.47 10.03-1.79 20.96 5.79 14.38 14.93-12.96 25.01-54.2 19.62-81.04 2.98.34 5.91 1.03 8.73 2.05 8.25 3.56 7.66 13.86 9.64 6.57 1.94-7.19.16-18.29-3.93-29.4 17.76-2.7 35.39-11.6 44.75-12.06 11.92-.59 17.26 12.03 15.35 2.17zm-63.59-75.34c3.87.73 11.44 4.63 11.44 4.63s-7.5.56-13.03 8.61c-.56.82-1.21 1.74-1.94 2.75a48.04 48.04 0 0 0-20.94.43c4.23-3.21 7.79-7.21 10.49-11.79 1.21-2.1 2.29-4.26 3.24-6.49 5.23.66 9.16 1.56 10.74 1.86zM68.93 66.58c-3.98-13.27-6.16-23.2-7.24-33.08-.21-1.94-.4-10.74-.25-11.81.03-.23.12-1 .2-1.72.62-5.42 2.47-9.61 5.17-11.73 1.68-1.34 3.76-2.11 5.91-2.19.28-.02.57-.02.86-.02 2.3.13 4.55.68 6.66 1.61 5.75 2.36 12.38 7.28 20.15 14.94a205.04 205.04 0 0 1 16.78 18.81c3.24 4.04 8.05 10.39 9.15 12.05a56.888 56.888 0 0 0-2.89 4.79c0 .02-.01.03-.02.04-4.78 6.78-9.2 13.8-13.24 21.04-.82 1.45-1.58 2.71-1.74 2.93h-.01c-.01 0-.06.01-.08.01-.25.05-1.54.12-3.09.19-8.82.33-17.61 1.16-26.33 2.48-1.46.23-2.77.42-3.09.45-.1.01-.19.01-.29 0-.26-.03-.4-.47-1.24-2.73-1.33-3.62-4.33-12.6-5.37-16.06zm.85 88.13c-8.4-1.23-17.56-3.04-24.48-4.82-24.17-6.24-38.26-15.07-39.68-24.85-1.37-9.48 9.5-18.5 30.65-25.43 10.06-3.19 20.35-5.62 30.78-7.27 3.2-.53 4.41-.73 4.92-.77h.02c.11 0 .33-.06.45.1.07.09.8 1.89 1.61 4.01 3.06 8.21 6.56 16.25 10.46 24.1l1.83 3.62.01.03 2.69 6.45c.39.58.71 1.21.93 1.88 3.79 8.58 8.13 16.89 13.01 24.9.35.53.68 1.08.97 1.64l.01.02.04.12v.03c-.09.14-.51.12-5.58-.2-5.77-.37-13.34-1.23-18.46-2.09a9.73 9.73 0 0 1-2.2-.49v-.09c.11-.9 3.46-9.4 5.88-14.83 2.5-5.6 5.08-10.9 5.31-10.94.01 0 .03 0 .04.01l-2.65-6.39-2.37 4.7c-3.98 7.94-7.52 16.1-10.61 24.43-.26.77-.57 1.52-.93 2.25-.02.02-.05.06-.07.08-.16.13-.71.07-2.58-.2zm52.66 44.48c-17.5 23.57-33.47 38.5-44.82 41.92-1.56.56-3.21.81-4.87.76a9.03 9.03 0 0 1-2.93-.3c-5.32-1.52-8.2-6.49-8.87-15.28-.22-3.43-.15-6.87.2-10.29 1.14-12.12 5.04-27.51 11.66-46.05 1.28-3.58 2.78-7.49 3.12-8.16l.09-.15c.05-.07.14-.1.22-.1.45.01.9.06 1.34.16 8.6 1.45 17.28 2.35 25.99 2.69 2.04.09 3.84.18 4.01.21.03.02.05.03.08.05l.08.07.11.11c.53.7 1.01 1.43 1.43 2.2 4.73 8.02 11.23 17.92 16.29 24.86.41.56.77 1.08.92 1.34.03.05.05.11.07.17a60.135 60.135 0 0 1-4.12 5.79zM215 181.38s-4.22-6.21-13.95-6.97c-.65-.05-1.36-.11-2.13-.18-2-7-5.57-13.44-10.45-18.84 5.15 2.28 10.7 3.48 16.33 3.55 1.55 0 3.12-.06 4.69-.19 2.07 4.95 3.28 8.88 3.82 10.42 1.29 3.71 1.69 12.21 1.69 12.21zm31.16-38.61c-12.89 5.12-44.86 16.72-76.2-2.79a32.686 32.686 0 0 1-7.39-7.13c-6.98-10.28-4.21-23.5-4.04-24.27-.33.71-7.43 16.53-1.94 28.11 5.62 11.84 32.17 26.25 36.32 48.5s-3.2 45.66-4.52 50.71-7.17 14.73-7.17 14.73.79-10-10.23-18.03a159.808 159.808 0 0 1-33.27-32.63c-.19-.45-.43-.88-.71-1.28-.61-.76-1.19-1.54-1.72-2.36-.02-.03-.04-.07-.07-.1-.12-.16-.24-.32-.35-.48-.55-.74-1.06-1.52-1.52-2.32-.35-.49-.69-.96-1.05-1.47-.85-1.2-1.67-2.32-2.42-3.34a.36.36 0 0 1-.07-.1c-.91-.82-5.55-7.68-11.46-16.95-2.13-3.34-3.87-6.1-3.87-6.15l-.01-.03c.1-.01.19-.02.29-.02.2 0 .49.01.8.04 2.55.18 21.5.24 25.54.08 1.13-.04 2.17-.07 2.92-.08h.03c.92-.07 1.93-.1 3.04-.09.42-.03.9-.06 1.34-.09-1.72 6.7-.81 12.3 3.44 19.9 6.93 12.4 17.07 11.51 23.04 31.81.08-22.75-13.97-24.69-18.51-38.41-4.43-13.39-1.56-26.51-2.21-27.13-1.41 2.77-2.61 5.28-3.58 7.59-.82.04-1.67.08-2.42.12-.67.03-1.29.04-1.88.06-1.02.09-2.28.19-3.81.28-4.23.23-16.66.17-22.35-.13-2.81-.15-6.03-.31-7.15-.36l-1.99-.09-.1-.19-.67-1c-3.05-4.55-8.78-14.97-14.02-25.51-2.2-4.42-3.95-8.05-4.16-8.58l-.09-.17-3.12-6.39.02-.01c-.18-.27-.61-1.07-1.09-2.04-3.35-6.76-6.56-14.14-8.98-20.63-.61-1.64-1.11-3.01-1.11-3.04 0-.07.1-.12.31-.19l.17-.05c.63-.17 2.01-.39 4.9-.81 5.61-.82 11.26-1.32 16.92-1.51 1.19-.04 2.17-.06 2.85-.06.52 0 .86 0 1.02.02h.03c.32.03-.16.69-.76 1.57-1.64 2.5-3.15 5.09-4.51 7.75-.96 1.8-2.44 4.55-3.29 6.1-2.31 4.11-4.35 8.37-6.12 12.74-.08.17-.19.3-.25.27l3.03 6.25c.11-.54 8.65-17.41 10.83-21.39 3.84-7.02 7.62-13.42 8.06-13.65.14-.06.28-.1.43-.14h.01c3.23-.49 6.48-.77 9.74-.85 1.08-.04 2.82-.08 4.88-.09 3.98-.02 9.03.02 12.84.09-2.15 1.06-3.53 1.67-3.59 1.95 16.29-.88 23.24-2.9 30.37-14.85 7.27-12.2 1.43-20.53 16.03-35.86-19.74 11.31-14.4 24.45-24.01 35.23-2.68 2.97-5.7 5.62-9 7.87-1.09-.06-2.2-.13-3.16-.16-.14-.01-.24-.01-.39-.02-.4.02-1.28.01-2.28-.05-1.43-.07-8.36-.13-14.52-.13-2.06 0-4.03 0-5.67.01-2.2.01-3.83.03-4.34.06-.66.04-1.68.1-2.26.14-.22.02-.45.03-.67.02h-.05c-.25 0-.35-.07-.35-.13 0-.51 7.97-13.05 12.4-19.53 1.65-2.41 2.19-3.21 2.42-3.48.01-.01.01-.02.02-.04.03-.04.06-.08.08-.11.01-.02.02-.03.03-.04 5.05-5.42 11.56-11.05 21.85-19.86 17.19-14.73 41.14-20.06 46.17-21.44s16.34-1.16 16.34-1.16-8.61 5.05-10.49 17.88c-2.02 13.73-7.95 47.18-40.47 64.57-.01 0-.01 0-.02.01a27.666 27.666 0 0 1-7.65 1.94c-12.38.91-22.42-8.07-23.03-8.61.61.86 10.69 14.7 23.36 15.71 13.07 1.05 38.82-14.73 60.17-7.2s37.94 25.6 41.65 29.27c3.64 3.59 8.95 13.15 9.17 13.56-.36-.19-8.92-4.82-20.73-.14z"/>
    <path
      d="M147.93 121.65h-11.76l8.07-8.29a.993.993 0 0 0-.01-1.4l-2.6-2.6a.993.993 0 0 0-1.4-.01l-8.29 8.07v-11.76c0-.55-.45-1-1-1h-4c-.55 0-1 .45-1 1v11.76l-8.29-8.07a.993.993 0 0 0-1.4.01l-2.6 2.6a.993.993 0 0 0-.01 1.4l8.07 8.29h-11.76c-.55 0-1 .45-1 1v4c0 .55.45 1 1 1h11.76l-8.29 8.29c-.4.4-.39 1.05.02 1.44l2.81 2.62c.39.36 1 .36 1.38-.01l8.32-8.09v11.76c0 .55.45 1 1 1h4c.55 0 1-.45 1-1V131.9l8.29 8.07c.39.38 1.02.38 1.4-.01l2.6-2.6c.39-.39.39-1.01.01-1.4l-8.07-8.29h11.76c.55 0 1-.45 1-1v-4c-.01-.58-.45-1.02-1.01-1.02zm-17.34 7h-3.31l-2.34-2.34V123l2.34-2.34h3.31l2.34 2.34v3.31l-2.34 2.34z"/>
  </svg>
  <svg height="24" id="cart" viewBox="0 0 24 24" width="24" xmlns="http://www.w3.org/2000/svg">
    <path
      d="M 4.4140625 1.9960938 L 1.0039062 2.0136719 L 1.0136719 4.0136719 L 3.0839844 4.0039062 L 6.3789062 11.908203 L 5.1816406 13.824219 C 4.7816406 14.464219 4.7609531 15.272641 5.1269531 15.931641 C 5.4929531 16.590641 6.1874063 17 6.9414062 17 L 19 17 L 19 15 L 6.9414062 15 L 6.8769531 14.882812 L 8.0527344 13 L 15.521484 13 C 16.248484 13 16.917531 12.604703 17.269531 11.970703 L 20.873047 5.4863281 C 21.046047 5.1763281 21.041328 4.7981875 20.861328 4.4921875 C 20.681328 4.1871875 20.352047 4 19.998047 4 L 5.25 4 L 4.4140625 1.9960938 z M 6.0820312 6 L 18.298828 6 L 15.521484 11 L 8.1660156 11 L 6.0820312 6 z M 7 18 A 2 2 0 0 0 5 20 A 2 2 0 0 0 7 22 A 2 2 0 0 0 9 20 A 2 2 0 0 0 7 18 z M 17 18 A 2 2 0 0 0 15 20 A 2 2 0 0 0 17 22 A 2 2 0 0 0 19 20 A 2 2 0 0 0 17 18 z"/>
  </svg>
  <svg height="480pt" id="excel-logo" version="1.1"
       viewBox="0 0 480 480" width="480pt" xmlns="http://www.w3.org/2000/svg">
    <g id="surface1">
      <path d="M 290 60 L 157.441406 60 C 147.808594 60 140 67.808594 140 77.441406 L 140 150.03125 L 290 150.03125 Z "
            style=" stroke:none;fill-rule:nonzero;fill:#169154;fill-opacity:1;"/>
      <path
        d="M 140 330.539063 L 140 402.558594 C 140 412.191406 147.808594 420 157.429688 420 L 290 420 L 290 330.539063 Z "
        style=" stroke:none;fill-rule:nonzero;fill:#18482A;fill-opacity:1;"/>
      <path d="M 140 150.03125 L 290 150.03125 L 290 240.050781 L 140 240.050781 Z "
            style=" stroke:none;fill-rule:nonzero;fill:#0C8045;fill-opacity:1;"/>
      <path d="M 140 240.050781 L 290 240.050781 L 290 330.550781 L 140 330.550781 Z "
            style=" stroke:none;fill-rule:nonzero;fill:#17472A;fill-opacity:1;"/>
      <path
        d="M 422.558594 60 L 290 60 L 290 150.03125 L 440 150.03125 L 440 77.441406 C 440 67.808594 432.191406 60 422.558594 60 Z "
        style=" stroke:none;fill-rule:nonzero;fill:#29C27F;fill-opacity:1;"/>
      <path
        d="M 290 330.539063 L 290 420 L 422.570313 420 C 432.191406 420 440 412.191406 440 402.570313 L 440 330.550781 L 290 330.550781 Z "
        style=" stroke:none;fill-rule:nonzero;fill:#27663F;fill-opacity:1;"/>
      <path d="M 290 150.03125 L 440 150.03125 L 440 240.050781 L 290 240.050781 Z "
            style=" stroke:none;fill-rule:nonzero;fill:#19AC65;fill-opacity:1;"/>
      <path d="M 290 240.050781 L 440 240.050781 L 440 330.550781 L 290 330.550781 Z "
            style=" stroke:none;fill-rule:nonzero;fill:#129652;fill-opacity:1;"/>
      <path
        d="M 223.191406 340 L 56.808594 340 C 47.53125 340 40 332.46875 40 323.191406 L 40 156.808594 C 40 147.53125 47.53125 140 56.808594 140 L 223.191406 140 C 232.46875 140 240 147.53125 240 156.808594 L 240 323.191406 C 240 332.46875 232.46875 340 223.191406 340 Z "
        style=" stroke:none;fill-rule:nonzero;fill:#0C7238;fill-opacity:1;"/>
      <path
        d="M 98.070313 190 L 121.929688 190 L 141.289063 227.539063 L 161.75 190 L 184.039063 190 L 153.328125 240 L 184.738281 290 L 161.230469 290 L 140.128906 250.699219 L 119.121094 290 L 95.261719 290 L 127.191406 239.820313 Z "
        style=" stroke:none;fill-rule:nonzero;fill:#FFFFFF;fill-opacity:1;"/>
    </g>
  </svg>
</svg>
