<svg xmlns="http://www.w3.org/2000/svg">
  <defs>
    <symbol viewBox="0 0 48 48" id="icon-activity-grid-2">
      <path d="M6.5 10C4.585 10 3 11.585 3 13.5v1C3 16.415 4.585 18 6.5 18h2c1.915 0 3.5-1.585 3.5-3.5v-1c0-1.915-1.585-3.5-3.5-3.5h-2zm11 0c-1.915 0-3.5 1.585-3.5 3.5v1c0 1.915 1.585 3.5 3.5 3.5h2c1.915 0 3.5-1.585 3.5-3.5v-1c0-1.915-1.585-3.5-3.5-3.5h-2zm11 0c-1.915 0-3.5 1.585-3.5 3.5v1c0 1.915 1.585 3.5 3.5 3.5h2c1.915 0 3.5-1.585 3.5-3.5v-1c0-1.915-1.585-3.5-3.5-3.5h-2zm11 0c-1.915 0-3.5 1.585-3.5 3.5v1c0 1.915 1.585 3.5 3.5 3.5h2c1.915 0 3.5-1.585 3.5-3.5v-1c0-1.915-1.585-3.5-3.5-3.5h-2zm-33 3h2c.295 0 .5.205.5.5v1c0 .295-.205.5-.5.5h-2a.478.478 0 01-.5-.5v-1c0-.295.205-.5.5-.5zm11 0h2c.295 0 .5.205.5.5v1c0 .295-.205.5-.5.5h-2a.478.478 0 01-.5-.5v-1c0-.295.205-.5.5-.5zm11 0h2c.295 0 .5.205.5.5v1c0 .295-.205.5-.5.5h-2a.478.478 0 01-.5-.5v-1c0-.295.205-.5.5-.5zm11 0h2c.295 0 .5.205.5.5v1c0 .295-.205.5-.5.5h-2a.478.478 0 01-.5-.5v-1c0-.295.205-.5.5-.5zm-33 6.943c-1.916 0-3.5 1.586-3.5 3.5V24.5C3 26.415 4.585 28 6.5 28h2c1.915 0 3.5-1.585 3.5-3.5v-1.057c0-1.915-1.585-3.5-3.5-3.5h-2zm11 .057c-1.915 0-3.5 1.585-3.5 3.5v1c0 1.915 1.585 3.5 3.5 3.5h2c1.915 0 3.5-1.585 3.5-3.5v-1c0-1.915-1.585-3.5-3.5-3.5h-2zm11 0c-1.915 0-3.5 1.585-3.5 3.5v1c0 1.915 1.585 3.5 3.5 3.5h2c1.915 0 3.5-1.585 3.5-3.5v-1c0-1.915-1.585-3.5-3.5-3.5h-2zm11 0c-1.915 0-3.5 1.585-3.5 3.5v1c0 1.915 1.585 3.5 3.5 3.5h2c1.915 0 3.5-1.585 3.5-3.5v-1c0-1.915-1.585-3.5-3.5-3.5h-2zm-33 2.943h2c.295 0 .5.205.5.5V24.5c0 .295-.205.5-.5.5h-2a.478.478 0 01-.5-.5v-1.057c0-.293.206-.5.5-.5zm11 .057h2c.295 0 .5.205.5.5v1c0 .295-.205.5-.5.5h-2a.478.478 0 01-.5-.5v-1c0-.295.205-.5.5-.5zm11 0h2c.295 0 .5.205.5.5v1c0 .295-.205.5-.5.5h-2a.478.478 0 01-.5-.5v-1c0-.295.205-.5.5-.5zm11 0h2c.295 0 .5.205.5.5v1c0 .295-.205.5-.5.5h-2a.478.478 0 01-.5-.5v-1c0-.295.205-.5.5-.5zm-33 7C4.585 30 3 31.585 3 33.5v1C3 36.415 4.585 38 6.5 38h2c1.915 0 3.5-1.585 3.5-3.5v-1c0-1.915-1.585-3.5-3.5-3.5h-2zm11 0c-1.915 0-3.5 1.585-3.5 3.5v1c0 1.915 1.585 3.5 3.5 3.5h2c1.915 0 3.5-1.585 3.5-3.5v-1c0-1.915-1.585-3.5-3.5-3.5h-2zm11 0c-1.915 0-3.5 1.585-3.5 3.5v1c0 1.915 1.585 3.5 3.5 3.5h2c1.915 0 3.5-1.585 3.5-3.5v-1c0-1.915-1.585-3.5-3.5-3.5h-2zm11 0c-1.915 0-3.5 1.585-3.5 3.5v1c0 1.915 1.585 3.5 3.5 3.5h2c1.915 0 3.5-1.585 3.5-3.5v-1c0-1.915-1.585-3.5-3.5-3.5h-2zm-33 3h2c.295 0 .5.205.5.5v1c0 .295-.205.5-.5.5h-2a.478.478 0 01-.5-.5v-1c0-.295.205-.5.5-.5zm11 0h2c.295 0 .5.205.5.5v1c0 .295-.205.5-.5.5h-2a.478.478 0 01-.5-.5v-1c0-.295.205-.5.5-.5zm11 0h2c.295 0 .5.205.5.5v1c0 .295-.205.5-.5.5h-2a.478.478 0 01-.5-.5v-1c0-.295.205-.5.5-.5zm11 0h2c.295 0 .5.205.5.5v1c0 .295-.205.5-.5.5h-2a.478.478 0 01-.5-.5v-1c0-.295.205-.5.5-.5z"/>
    </symbol>
    <symbol viewBox="0 0 48 48" id="icon-available-updates">
      <linearGradient id="aba" x1="25.442" x2="8.643" y1="19.5" y2="19.5" gradientUnits="userSpaceOnUse">
        <stop offset="0" stop-color="#007ccf"/>
        <stop offset=".317" stop-color="#0074c7"/>
        <stop offset=".818" stop-color="#005eb0"/>
        <stop offset="1" stop-color="#0055a6"/>
      </linearGradient>
      <linearGradient id="abb" x1="9.791" x2="20.131" y1="7.024" y2="56.354" gradientUnits="userSpaceOnUse">
        <stop offset="0" stop-color="#32bdef"/>
        <stop offset="1" stop-color="#1ea2e4"/>
      </linearGradient>
      <linearGradient id="abc" x1="26.442" x2="9.643" y1="19.5" y2="19.5" gradientTransform="rotate(180 24 24)" gradientUnits="userSpaceOnUse">
        <stop offset="0" stop-color="#007ccf"/>
        <stop offset=".317" stop-color="#0074c7"/>
        <stop offset=".818" stop-color="#005eb0"/>
        <stop offset="1" stop-color="#0055a6"/>
      </linearGradient>
      <linearGradient id="abd" x1="10.791" x2="21.131" y1="7.024" y2="56.354" gradientTransform="rotate(180 24 24)" gradientUnits="userSpaceOnUse">
        <stop offset="0" stop-color="#32bdef"/>
        <stop offset="1" stop-color="#1ea2e4"/>
      </linearGradient>
      <path fill="url(#aba)" d="M23 12h1a1 1 0 001-1V7a1 1 0 00-1-1h-1C14.163 6 7 13.163 7 22v11h6V22c0-5.523 4.477-10 10-10z"/>
      <path fill="url(#abb)" d="M23 6C14.163 6 7 13.163 7 22v11H2.81c-.72 0-1.08.87-.571 1.379L8.94 41.08a1.5 1.5 0 002.121 0l6.701-6.701c.509-.509.148-1.379-.572-1.379H13V17C13 7 23 6 23 6z"/>
      <path fill="url(#abc)" d="M24 36h-1a1 1 0 00-1 1v4a1 1 0 001 1h1c8.837 0 16-7.163 16-16V15h-6v11c0 5.523-4.477 10-10 10z"/>
      <path fill="url(#abd)" d="M24 42c8.837 0 16-7.163 16-16V15h4.19c.72 0 1.08-.87.571-1.379l-6.7-6.701a1.5 1.5 0 00-2.121 0l-6.701 6.701A.807.807 0 0029.81 15H34v16c0 10-10 11-10 11z"/>
    </symbol>
    <symbol viewBox="0 0 48 48" id="icon-barcode-scanner-2">
      <path d="M10.5 6C8.585 6 7 7.585 7 9.5v1.605c0 5.823 5.266 10.307 11.014 9.38l7.095-1.145c.641 1.667 1.418 2.771 2.026 3.365.715.699.912.708 1.176 1.762.269 1.078.075 1.407-.276 2.152-.35.745-1.008 2.02-.629 3.588.362 1.493 1.271 2.37 1.772 2.975.5.605.758.91.785 2.043.041 1.768.04 4.275.04 4.275 0 2.468 2.033 4.5 4.5 4.5h.995c3.485 0 6.125-3.291 5.37-6.693l-4.403-19.815C39.07 17.025 41 14.751 41 12.094V11.5C41 8.48 38.52 6 35.5 6h-25zm0 3h25c1.398 0 2.5 1.102 2.5 2.5v.594c0 1.238-.88 2.27-2.102 2.467l-18.363 2.962A6.47 6.47 0 0110 11.105V9.5c0-.295.205-.5.5-.5zm23.002 8.986l4.437 19.971A2.47 2.47 0 0135.498 41h-.994c-.847 0-1.5-.654-1.5-1.5 0 0 .002-2.512-.041-4.346-.043-1.812-.822-3.096-1.473-3.883-.65-.786-1.007-1.106-1.168-1.769-.14-.58.016-.734.426-1.606.41-.87.925-2.344.473-4.156-.42-1.683-1.397-2.602-1.99-3.181-.413-.403-.763-.914-1.12-1.704l5.391-.869zM7.477 30.98A1.5 1.5 0 006 32.5v9a1.5 1.5 0 103 0v-9a1.5 1.5 0 00-1.523-1.521zm15 0A1.5 1.5 0 0021 32.5v9a1.5 1.5 0 103 0v-9a1.5 1.5 0 00-1.523-1.521zm-4.493.007A1 1 0 0017 32v10a1 1 0 102 0V32a1 1 0 00-1.016-1.014zM12 31a1 1 0 00-1 1v10a1 1 0 001 1h2a1 1 0 001-1V32a1 1 0 00-1-1h-2z"/>
    </symbol>
    <symbol viewBox="0 0 48 48" id="icon-checkmark">
      <linearGradient id="ada" x1="21.241" x2="3.541" y1="39.241" y2="21.541" gradientUnits="userSpaceOnUse">
        <stop offset=".108" stop-color="#0d7044"/>
        <stop offset=".433" stop-color="#11945a"/>
      </linearGradient>
      <linearGradient id="adb" x1="-15.77" x2="26.403" y1="43.228" y2="43.228" gradientTransform="rotate(134.999 21.287 38.873)" gradientUnits="userSpaceOnUse">
        <stop offset="0" stop-color="#2ac782"/>
        <stop offset="1" stop-color="#21b876"/>
      </linearGradient>
      <path fill="url(#ada)" d="M16.599 41.42L1.58 26.401a1.98 1.98 0 010-2.802l4.019-4.019a1.98 1.98 0 012.802 0L23.42 34.599a1.98 1.98 0 010 2.802l-4.019 4.019a1.983 1.983 0 01-2.802 0z"/>
      <path fill="url(#adb)" d="M12.58 34.599L39.599 7.58a1.98 1.98 0 012.802 0l4.019 4.019a1.98 1.98 0 010 2.802L19.401 41.42a1.98 1.98 0 01-2.802 0l-4.019-4.019a1.983 1.983 0 010-2.802z"/>
    </symbol>
    <symbol viewBox="0 0 48 48" id="icon-conference">
      <path d="M24 3c-1.542 0-2.888.632-3.746 1.598C19.396 5.563 19 6.792 19 8c0 1.208.396 2.437 1.254 3.402C21.112 12.368 22.458 13 24 13c1.542 0 2.888-.632 3.746-1.598C28.604 10.437 29 9.208 29 8c0-1.208-.396-2.437-1.254-3.402C26.888 3.632 25.542 3 24 3zm0 3c.792 0 1.195.243 1.504.59.308.347.496.868.496 1.41 0 .542-.188 1.063-.496 1.41-.309.347-.712.59-1.504.59s-1.195-.243-1.504-.59C22.188 9.063 22 8.542 22 8c0-.542.188-1.063.496-1.41.309-.347.712-.59 1.504-.59zM13 9c-1.875 0-3.471.757-4.496 1.91C7.479 12.063 7 13.542 7 15c0 1.458.479 2.937 1.504 4.09S11.125 21 13 21c1.875 0 3.471-.757 4.496-1.91C18.521 17.937 19 16.458 19 15c0-1.458-.479-2.937-1.504-4.09S14.875 9 13 9zm22 0c-1.875 0-3.471.757-4.496 1.91C29.479 12.063 29 13.542 29 15c0 1.458.479 2.937 1.504 4.09S33.125 21 35 21c1.875 0 3.471-.757 4.496-1.91C40.521 17.937 41 16.458 41 15c0-1.458-.479-2.937-1.504-4.09S36.875 9 35 9zm-22 3c1.125 0 1.779.368 2.254.902.475.535.746 1.306.746 2.098 0 .792-.271 1.563-.746 2.098-.475.534-1.129.902-2.254.902s-1.779-.368-2.254-.902C10.271 16.563 10 15.792 10 15c0-.792.271-1.563.746-2.098C11.221 12.368 11.875 12 13 12zm22 0c1.125 0 1.779.368 2.254.902.475.535.746 1.306.746 2.098 0 .792-.271 1.563-.746 2.098-.475.534-1.129.902-2.254.902s-1.779-.368-2.254-.902C32.271 16.563 32 15.792 32 15c0-.792.271-1.563.746-2.098C33.221 12.368 33.875 12 35 12zm-11 7c-1.875 0-3.471.757-4.496 1.91C18.479 22.063 18 23.542 18 25c0 1.458.479 2.937 1.504 4.09S22.125 31 24 31c1.875 0 3.471-.757 4.496-1.91C29.521 27.937 30 26.458 30 25c0-1.458-.479-2.937-1.504-4.09S25.875 19 24 19zm0 3c1.125 0 1.779.368 2.254.902.475.535.746 1.306.746 2.098 0 .792-.271 1.563-.746 2.098-.475.534-1.129.902-2.254.902s-1.779-.368-2.254-.902C21.271 26.563 21 25.792 21 25c0-.792.271-1.563.746-2.098C22.221 22.368 22.875 22 24 22zM7.5 23C5.57 23 4 24.57 4 26.5V29c0 3.36 3.95 6 9 6h.21a5.524 5.524 0 013.15-3.57c-.95.35-2.1.57-3.36.57-3.43 0-6-1.58-6-3v-2.5c0-.28.22-.5.5-.5h8.56a8.239 8.239 0 01.19-3H7.5zm24.25 0a8.239 8.239 0 01.19 3h8.56c.28 0 .5.22.5.5V29c0 1.42-2.57 3-6 3-1.26 0-2.41-.22-3.36-.57A5.524 5.524 0 0134.79 35H35c5.05 0 9-2.64 9-6v-2.5c0-1.93-1.57-3.5-3.5-3.5h-8.75zM18.5 33c-1.915 0-3.5 1.585-3.5 3.5V39c0 1.918 1.28 3.481 2.926 4.469C19.572 44.456 21.686 45 24 45s4.428-.544 6.074-1.531C31.72 42.48 33 40.919 33 39v-2.5c0-1.915-1.585-3.5-3.5-3.5h-11zm0 3h11c.295 0 .5.205.5.5V39c0 .567-.4 1.255-1.469 1.896C27.463 41.538 25.828 42 24 42c-1.828 0-3.463-.462-4.531-1.104C18.4 40.256 18 39.566 18 39v-2.5c0-.295.205-.5.5-.5z"/>
    </symbol>
    <symbol viewBox="0 0 48 48" id="icon-contact-card">
      <path d="M8.5 8C6.032 8 4 10.032 4 12.5v23C4 37.968 6.032 40 8.5 40h31c2.468 0 4.5-2.032 4.5-4.5v-23c0-2.468-2.032-4.5-4.5-4.5h-31zm0 3h31c.846 0 1.5.654 1.5 1.5v23c0 .846-.654 1.5-1.5 1.5h-31c-.846 0-1.5-.654-1.5-1.5v-23c0-.846.654-1.5 1.5-1.5zm7.5 6a3 3 0 000 6 3 3 0 000-6zm10.5 2a1.5 1.5 0 100 3h9a1.5 1.5 0 100-3h-9zm-14 6a1.5 1.5 0 00-1.5 1.5c0 1.5 0 4.5 4.9 4.5h.2c4.9 0 4.9-3 4.9-4.5a1.5 1.5 0 00-1.5-1.5h-7zm14 1a1.5 1.5 0 100 3h9a1.5 1.5 0 100-3h-9z"/>
    </symbol>
    <symbol viewBox="0 0 48 48" id="icon-contacts">
      <path d="M13.5 4C10.48 4 8 6.48 8 9.5v29c0 3.02 2.48 5.5 5.5 5.5h26a1.5 1.5 0 100-3h-26a2.47 2.47 0 01-2.45-2H39.5a1.5 1.5 0 001.5-1.5v-28C41 6.48 38.52 4 35.5 4h-22zm0 3h22C36.898 7 38 8.102 38 9.5V36H11V9.5C11 8.102 12.102 7 13.5 7zm11 4c-2.468 0-4.5 2.032-4.5 4.5s2.032 4.5 4.5 4.5 4.5-2.032 4.5-4.5-2.032-4.5-4.5-4.5zm0 3c.846 0 1.5.654 1.5 1.5s-.654 1.5-1.5 1.5-1.5-.654-1.5-1.5.654-1.5 1.5-1.5zm-5 8a2.522 2.522 0 00-2.5 2.5V27c0 1.661 1.13 2.97 2.502 3.771C20.875 31.572 22.607 32 24.5 32c1.893 0 3.625-.428 4.998-1.229C30.871 29.971 32 28.661 32 27v-2.5c0-1.364-1.136-2.5-2.5-2.5h-10zm.5 3h9v2c0 .272-.215.714-1.014 1.18-.799.466-2.065.82-3.486.82-1.42 0-2.687-.354-3.486-.82-.8-.466-1.014-.908-1.014-1.18v-2z"/>
    </symbol>
    <symbol viewBox="0 0 48 48" id="icon-delete-sign">
      <linearGradient id="aha" x1="7.534" x2="27.557" y1="7.534" y2="27.557" gradientUnits="userSpaceOnUse">
        <stop offset="0" stop-color="#f44f5a"/>
        <stop offset=".443" stop-color="#ee3d4a"/>
        <stop offset="1" stop-color="#e52030"/>
      </linearGradient>
      <linearGradient id="ahb" x1="27.373" x2="40.507" y1="27.373" y2="40.507" gradientUnits="userSpaceOnUse">
        <stop offset="0" stop-color="#a8142e"/>
        <stop offset=".179" stop-color="#ba1632"/>
        <stop offset=".243" stop-color="#c21734"/>
      </linearGradient>
      <path fill="url(#aha)" d="M42.42 12.401a1.98 1.98 0 000-2.802L38.401 5.58a1.98 1.98 0 00-2.802 0L24 17.179 12.401 5.58a1.98 1.98 0 00-2.802 0L5.58 9.599a1.98 1.98 0 000 2.802L17.179 24 5.58 35.599a1.98 1.98 0 000 2.802l4.019 4.019a1.98 1.98 0 002.802 0L42.42 12.401z"/>
      <path fill="url(#ahb)" d="M24 30.821L35.599 42.42a1.98 1.98 0 002.802 0l4.019-4.019a1.98 1.98 0 000-2.802L30.821 24 24 30.821z"/>
    </symbol>
    <symbol viewBox="0 0 48 48" id="icon-email">
      <path d="M24 4C12.972 4 4 12.972 4 24s8.972 20 20 20c2.468 0 4.84-.448 7.027-1.27a1.5 1.5 0 10-1.054-2.808A16.951 16.951 0 0124 41c-9.406 0-17-7.594-17-17 0-9.406 7.594-17 17-17 9.406 0 17 7.594 17 17v2.5c0 2.503-1.997 4.5-4.5 4.5a4.477 4.477 0 01-4.5-4.5v-11a1.5 1.5 0 10-3 0v1.066C27.42 14.984 25.331 14 23 14c-5.058 0-9 4.595-9 10s3.942 10 9 10c2.872 0 5.383-1.483 7.018-3.754C31.319 32.483 33.739 34 36.5 34c4.125 0 7.5-3.375 7.5-7.5V24c0-11.028-8.972-20-20-20zm-1 13c3.214 0 6 3.03 6 7s-2.786 7-6 7-6-3.03-6-7 2.786-7 6-7z"/>
    </symbol>
    <symbol viewBox="0 0 48 48" id="icon-facebook-new">
      <path fill="#039be5" d="M24 5a19 19 0 100 38 19 19 0 100-38z"/>
      <path fill="#fff" d="M26.572 29.036h4.917l.772-4.995h-5.69v-2.73c0-2.075.678-3.915 2.619-3.915h3.119v-4.359c-.548-.074-1.707-.236-3.897-.236-4.573 0-7.254 2.415-7.254 7.917v3.323h-4.701v4.995h4.701v13.729c.931.14 1.874.235 2.842.235.875 0 1.729-.08 2.572-.194v-13.77z"/>
    </symbol>
    <symbol viewBox="0 0 48 48" id="icon-faq">
      <path d="M17 4C9.285 4 3 10.284 3 17.998c0 2.216.584 4.285 1.504 6.148l-1.422 5.09c-.437 1.56 1.118 3.118 2.678 2.684a1.5 1.5 0 00.002-.002l5.095-1.422c1.863.918 3.928 1.502 6.143 1.502.054 0 .106-.003.16-.004.976 6.77 6.805 12.004 13.84 12.004 2.215 0 4.28-.584 6.143-1.502l5.095 1.422a1.5 1.5 0 00.002.002c1.56.434 3.113-1.123 2.678-2.682l-1.422-5.092c.92-1.863 1.504-3.932 1.504-6.148C45 22.284 38.715 16 31 16c-.049 0-.096.007-.145.008C29.885 9.228 24.038 4 17 4zm0 3a10.976 10.976 0 0110.875 9.365 13.965 13.965 0 00-6.307 3.32l-3.109-7.58a1.5 1.5 0 00-1.49-1.125 1.5 1.5 0 00-.035.002 1.5 1.5 0 00-1.395 1.123l-4.428 10.827a1.5 1.5 0 102.778 1.136L14.734 22h4.797a13.897 13.897 0 00-2.48 6.994c-.017 0-.034.004-.051.004-1.945 0-3.758-.505-5.344-1.389a1.5 1.5 0 00-1.133-.134l-4.16 1.162 1.162-4.158a1.5 1.5 0 00-.134-1.135A10.916 10.916 0 016 17.998 10.976 10.976 0 0117 7zm.002 9.457L18.045 19h-2.082l1.039-2.543zM31 19c6.093 0 11 4.906 11 10.998 0 1.946-.506 3.76-1.39 5.346a1.5 1.5 0 00-.135 1.135l1.162 4.158-4.16-1.162a1.5 1.5 0 00-1.133.134A10.926 10.926 0 0131 40.998a10.968 10.968 0 01-10.975-10.477 1.5 1.5 0 00-.017-.369c0-.052-.008-.102-.008-.154A10.976 10.976 0 0131 19zm0 4c-2.744 0-5 2.256-5 5v3c0 2.452 1.834 4.421 4.176 4.832.51.766 1.932 2.668 4.824 2.668a1.5 1.5 0 100-3c-.443 0-.764-.306-1.133-.523C35.124 34.065 36 32.657 36 31v-3c0-2.744-2.256-5-5-5zm0 3c1.122 0 2 .878 2 2v3c0 1.105-.86 1.956-1.957 1.982a1.5 1.5 0 00-.082.002C29.86 32.961 29 32.107 29 31v-3c0-1.122.878-2 2-2z"/>
    </symbol>
    <symbol viewBox="0 0 48 48" id="icon-get-cash">
      <path d="M26 3c-5.505 0-10 4.495-10 10s4.495 10 10 10 10-4.495 10-10S31.505 3 26 3zm0 3c3.884 0 7 3.116 7 7s-3.116 7-7 7-7-3.116-7-7 3.116-7 7-7zm-1.25 3a1 1 0 00-.98.805l-.5 2.5a.998.998 0 00.98 1.195h2a.75.75 0 01.75.75c0 .515-.519.75-1 .75-.885 0-1.416-.315-1.455-.34a1.002 1.002 0 00-1.1 1.672C23.548 16.4 24.491 17 26 17c1.71 0 3-1.182 3-2.75a2.752 2.752 0 00-2.75-2.75h-.78l.1-.5h1.93a1 1 0 000-2h-2.75zm16.863 13.02c-1.12.01-2.184.453-3.129 1.156-1.014.753-4.066 3.032-6.707 5.004C31.205 26.352 29.506 25 27.5 25h-4.393c-2.81 0-4.121-.228-5.248-.467-1.126-.239-2.212-.533-4.033-.533-3.885 0-6.814 2.493-8.732 4.791-1.919 2.298-2.96 4.594-2.96 4.594a1.5 1.5 0 102.731 1.244s.9-1.96 2.531-3.914C9.03 28.76 11.26 27 13.826 27c1.522 0 2.18.206 3.41.467 1.23.26 2.888.533 5.871.533H27.5c.846 0 1.5.654 1.5 1.5 0 .47-.206.874-.53 1.146l-.04.032a1.5 1.5 0 00-.084.07 1.5 1.5 0 00-.002.002c-.239.159-.528.25-.844.25h-7a1.5 1.5 0 100 3h7c.94 0 1.815-.299 2.541-.8l.004-.003a1.5 1.5 0 00.18-.115s8.551-6.386 10.048-7.498a1.5 1.5 0 000-.002c.565-.42 1.037-.56 1.368-.562.33-.003.577.077.92.42.59.59.586 1.495.011 2.093-5.355 4.503-8.724 7.504-10.949 9.262C29.37 38.575 28.425 39 27.5 39c-3.652 0-7.7-1-12-1-2.5 0-4.257 1.344-5.2 2.6-.941 1.256-1.255 2.537-1.255 2.537a1.5 1.5 0 102.91.726s.186-.719.744-1.463C13.257 41.656 14 41 15.5 41c3.807 0 7.836 1 12 1 1.902 0 3.585-.956 5.982-2.85 2.368-1.87 5.693-4.84 11.016-9.316a1.5 1.5 0 00.184-.152c.007-.007.008-.017.015-.024l.004.004.053-.055a1.5 1.5 0 00.33-.533c1.246-1.752 1.165-4.19-.402-5.756-.83-.83-1.949-1.308-3.069-1.298z"/>
    </symbol>
    <symbol viewBox="0 0 48 48" id="icon-google-logo">
      <path fill="#FFC107" d="M43.611 20.083H42V20H24v8h11.303c-1.649 4.657-6.08 8-11.303 8-6.627 0-12-5.373-12-12s5.373-12 12-12c3.059 0 5.842 1.154 7.961 3.039l5.657-5.657C34.046 6.053 29.268 4 24 4 12.955 4 4 12.955 4 24s8.955 20 20 20 20-8.955 20-20c0-1.341-.138-2.65-.389-3.917z"/>
      <path fill="#FF3D00" d="M6.306 14.691l6.571 4.819C14.655 15.108 18.961 12 24 12c3.059 0 5.842 1.154 7.961 3.039l5.657-5.657C34.046 6.053 29.268 4 24 4 16.318 4 9.656 8.337 6.306 14.691z"/>
      <path fill="#4CAF50" d="M24 44c5.166 0 9.86-1.977 13.409-5.192l-6.19-5.238A11.91 11.91 0 0124 36c-5.202 0-9.619-3.317-11.283-7.946l-6.522 5.025C9.505 39.556 16.227 44 24 44z"/>
      <path fill="#1976D2" d="M43.611 20.083H42V20H24v8h11.303a12.04 12.04 0 01-4.087 5.571l.003-.002 6.19 5.238C36.971 39.205 44 34 44 24c0-1.341-.138-2.65-.389-3.917z"/>
    </symbol>
    <symbol viewBox="0 0 48 48" id="icon-information">
      <path d="M24 5c-1.542 0-2.888.632-3.746 1.598C19.396 7.563 19 8.792 19 10c0 1.208.396 2.437 1.254 3.402C21.112 14.368 22.458 15 24 15c1.542 0 2.888-.632 3.746-1.598C28.604 12.437 29 11.208 29 10c0-1.208-.396-2.437-1.254-3.402C26.888 5.632 25.542 5 24 5zm0 3c.792 0 1.195.243 1.504.59.308.347.496.868.496 1.41 0 .542-.188 1.063-.496 1.41-.309.347-.712.59-1.504.59s-1.195-.243-1.504-.59C22.188 11.063 22 10.542 22 10c0-.542.188-1.063.496-1.41.309-.347.712-.59 1.504-.59zm-3.523 8.979a1.5 1.5 0 00-.217.021H16a1.5 1.5 0 100 3h3v20h-3a1.5 1.5 0 100 3h4.254a1.5 1.5 0 00.486 0h6.514a1.5 1.5 0 00.486 0h4.76a1.5 1.5 0 100-3H29V22.5c0-3.02-2.48-5.5-5.5-5.5h-2.754a1.5 1.5 0 00-.27-.021zM22 20h1.5c1.398 0 2.5 1.102 2.5 2.5V40h-4V20z"/>
    </symbol>
    <symbol viewBox="0 0 48 48" id="icon-list">
      <path d="M7.5 5A2.522 2.522 0 005 7.5v6C5 14.864 6.136 16 7.5 16h6c1.364 0 2.5-1.136 2.5-2.5v-6C16 6.136 14.864 5 13.5 5h-6zM8 8h5v5H8V8zm12.5 1a1.5 1.5 0 100 3h21a1.5 1.5 0 100-3h-21zm-13 9.5A2.522 2.522 0 005 21v6c0 1.364 1.136 2.5 2.5 2.5h6c1.364 0 2.5-1.136 2.5-2.5v-6c0-1.364-1.136-2.5-2.5-2.5h-6zm.5 3h5v5H8v-5zm12.5 1a1.5 1.5 0 100 3h21a1.5 1.5 0 100-3h-21zM7.5 32A2.522 2.522 0 005 34.5v6C5 41.864 6.136 43 7.5 43h6c1.364 0 2.5-1.136 2.5-2.5v-6c0-1.364-1.136-2.5-2.5-2.5h-6zm.5 3h5v5H8v-5zm12.5 1a1.5 1.5 0 100 3h21a1.5 1.5 0 100-3h-21z"/>
    </symbol>
    <symbol viewBox="0 0 48 48" id="icon-loading">
      <path fill="#33c481" d="M23 43v-3a1 1 0 112 0v3a1 1 0 11-2 0z"/>
      <path fill="url(#apa)" d="M9.858 36.728l2.121-2.121a1 1 0 111.414 1.414l-2.121 2.121a1 1 0 11-1.414-1.414z"/>
      <path fill="url(#apb)" d="M13.393 34.607a1 1 0 010 1.414l-2.121 2.121a1 1 0 11-1.414-1.414l2.121-2.121a.999.999 0 011.414 0z"/>
      <path fill="url(#apc)" d="M10.998 31.48a1 1 0 01-.368 1.365l-2.6 1.496a1 1 0 11-.997-1.733l2.6-1.496a1 1 0 011.365.368z"/>
      <path fill="url(#apd)" d="M9.511 27.882a1 1 0 01-.707 1.225l-2.898.776a1 1 0 01-.518-1.932l2.898-.776a1 1 0 011.225.707z"/>
      <path fill="#61e3a7" d="M33.987 41.33a1 1 0 01-1.366-.367l-1.498-2.599a1 1 0 011.733-.999l1.498 2.599a1 1 0 01-.367 1.366zM29.155 43.325a1 1 0 01-1.224-.709l-.773-2.899a1 1 0 111.933-.515l.773 2.899a1 1 0 01-.709 1.224z"/>
      <path fill="#33c481" d="M18.809 43.315a.999.999 0 01-.706-1.225l.779-2.897a1 1 0 011.931.519l-.779 2.897a1 1 0 01-1.225.706z"/>
      <path fill="url(#ape)" d="M13.981 41.309a1 1 0 01-.364-1.366l1.503-2.596a.998.998 0 111.73 1.002l-1.503 2.596a.998.998 0 01-1.366.364z"/>
      <path fill="url(#apf)" d="M24 4C12.955 4 4 12.955 4 24a1 1 0 001 1h3a1 1 0 001-1c0-8.284 6.716-15 15-15s15 6.716 15 15a1 1 0 001 1h3a1 1 0 001-1c0-11.045-8.955-20-20-20z"/>
      <linearGradient id="apa" x1="-9.8" x2="24.724" y1="14.949" y2="49.473" gradientUnits="userSpaceOnUse">
        <stop offset="0" stop-color="#33c481"/>
        <stop offset="1" stop-color="#21a366"/>
      </linearGradient>
      <linearGradient id="apb" x1="-9.8" x2="24.724" y1="14.949" y2="49.473" gradientUnits="userSpaceOnUse">
        <stop offset="0" stop-color="#33c481"/>
        <stop offset="1" stop-color="#21a366"/>
      </linearGradient>
      <linearGradient id="apc" x1="-9.373" x2="25.151" y1="14.522" y2="49.046" gradientUnits="userSpaceOnUse">
        <stop offset="0" stop-color="#33c481"/>
        <stop offset="1" stop-color="#21a366"/>
      </linearGradient>
      <linearGradient id="apd" x1="-8.142" x2="26.382" y1="13.291" y2="47.815" gradientUnits="userSpaceOnUse">
        <stop offset="0" stop-color="#33c481"/>
        <stop offset="1" stop-color="#21a366"/>
      </linearGradient>
      <linearGradient id="ape" x1="-9.382" x2="25.142" y1="14.53" y2="49.054" gradientUnits="userSpaceOnUse">
        <stop offset="0" stop-color="#33c481"/>
        <stop offset="1" stop-color="#21a366"/>
      </linearGradient>
      <linearGradient id="apf" x1="4.542" x2="39.066" y1=".607" y2="35.131" gradientUnits="userSpaceOnUse">
        <stop offset="0" stop-color="#33c481"/>
        <stop offset="1" stop-color="#21a366"/>
      </linearGradient>
    </symbol>
    <symbol viewBox="0 0 48 48" id="icon-menu">
      <path d="M5.5 9a1.5 1.5 0 100 3h37a1.5 1.5 0 100-3h-37zm0 13.5a1.5 1.5 0 100 3h37a1.5 1.5 0 100-3h-37zm0 13.5a1.5 1.5 0 100 3h37a1.5 1.5 0 100-3h-37z"/>
    </symbol>
    <symbol viewBox="0 0 48 48" id="icon-menu-2">
      <path d="M24 33a3 3 0 100 6 3 3 0 100-6zm0-12a3 3 0 100 6 3 3 0 100-6zm0-12a3 3 0 100 6 3 3 0 100-6z"/>
    </symbol>
    <symbol viewBox="0 0 48 48" id="icon-menu-squared">
      <path d="M11.5 6C8.48 6 6 8.48 6 11.5v25c0 3.02 2.48 5.5 5.5 5.5h25c3.02 0 5.5-2.48 5.5-5.5v-25C42 8.48 39.52 6 36.5 6h-25zm0 3h25c1.398 0 2.5 1.102 2.5 2.5v25c0 1.398-1.102 2.5-2.5 2.5h-25A2.478 2.478 0 019 36.5v-25C9 10.102 10.102 9 11.5 9zM24 12a3 3 0 000 6 3 3 0 000-6zm0 9a3 3 0 000 6 3 3 0 000-6zm0 9a3 3 0 000 6 3 3 0 000-6z"/>
    </symbol>
    <symbol viewBox="0 0 48 48" id="icon-microsoft">
      <path fill="#ff5722" d="M22 22H6V6h16z"/>
      <path fill="#4caf50" d="M42 22H26V6h16z"/>
      <path fill="#ffc107" d="M42 42H26V26h16z"/>
      <path fill="#03a9f4" d="M22 42H6V26h16z"/>
    </symbol>
    <symbol viewBox="0 0 48 48" id="icon-money">
      <path d="M8.5 6C6.585 6 5 7.585 5 9.5v17C5 28.415 6.585 30 8.5 30h31c1.915 0 3.5-1.585 3.5-3.5v-17C43 7.585 41.415 6 39.5 6h-31zM11 9h26c0 1.66 1.34 3 3 3v12c-1.66 0-3 1.34-3 3H11c0-1.66-1.34-3-3-3V12c1.66 0 3-1.34 3-3zm13 2a5.666 5.666 0 00-4.588 2.336C18.43 14.688 18 16.352 18 18c0 1.648.429 3.312 1.412 4.664A5.666 5.666 0 0024 25a5.666 5.666 0 004.588-2.336C29.57 21.312 30 19.648 30 18c0-1.648-.429-3.312-1.412-4.664A5.666 5.666 0 0024 11zm0 3c1.042 0 1.645.39 2.162 1.102.517.71.838 1.796.838 2.898s-.321 2.188-.838 2.898C25.645 21.61 25.042 22 24 22c-1.042 0-1.645-.39-2.162-1.102C21.32 20.188 21 19.102 21 18s.321-2.188.838-2.898C22.355 14.39 22.958 14 24 14zm-12 2a2 2 0 000 4 2 2 0 000-4zm24 0a2 2 0 000 4 2 2 0 000-4zM8.045 31.998a3.45 3.45 0 003.312 3c10.875.376 18.925 4 23.25 5.945.77.347 1.433.644 1.98.868A2.471 2.471 0 0040 39.514V32h-3v4c-1.135 0-2.11.633-2.62 1.56-4.749-2.096-12.57-5.202-22.92-5.56l-.003-.002H8.045z"/>
    </symbol>
    <symbol viewBox="0 0 48 48" id="icon-money-bag">
      <path d="M24 2c-1.644 0-2.998.852-4.002 2H15.5a1.5 1.5 0 00-1.404 2.027l2.613 6.97c-2.882 2.3-12.06 10.522-11.648 21.878C5.246 39.962 9.474 44 14.557 44h18.886c5.083 0 9.311-4.038 9.496-9.125.414-11.356-8.766-19.578-11.648-21.879l2.613-6.969A1.5 1.5 0 0032.5 4h-4.498C26.998 2.852 25.644 2 24 2zm0 3c.93 0 1.71.499 2.148 1.254A1.5 1.5 0 0027.445 7h2.89l-1.874 5h-8.922l-1.875-5h2.89a1.5 1.5 0 001.298-.746C22.29 5.499 23.07 5 24 5zm-4.984 10h9.968c1.732 1.361 11.335 9.382 10.957 19.766C39.814 38.259 36.947 41 33.443 41H14.557c-3.504 0-6.371-2.741-6.498-6.234C7.682 24.382 17.284 16.36 19.016 15zm4.96 2.979A1.5 1.5 0 0022.5 19.5v.727c-1.996.57-3.5 2.342-3.5 4.505v.002c0 2.614 2.152 4.766 4.766 4.766h1.468c.993 0 1.766.773 1.766 1.766 0 .986-.765 1.755-1.752 1.763l-1.84.016a1.4 1.4 0 01-1.344-.984 1.5 1.5 0 10-2.86.9c.466 1.482 1.776 2.433 3.296 2.783v.756a1.5 1.5 0 103 0v-.518c2.489-.146 4.5-2.197 4.5-4.716 0-2.614-2.152-4.766-4.766-4.766h-1.468A1.744 1.744 0 0122 24.734v-.002c0-.982.758-1.75 1.74-1.765l.824-.012a1.4 1.4 0 011.348.994 1.5 1.5 0 102.87-.877c-.456-1.488-1.764-2.444-3.282-2.804V19.5a1.5 1.5 0 00-1.523-1.521z"/>
    </symbol>
    <symbol viewBox="0 0 48 48" id="icon-online-shop-2">
      <path d="M10.5 6a5.512 5.512 0 00-5.47 4.94v.001c-.02.184-.03.37-.03.559v1.71l-1.893 4.733a1.5 1.5 0 00-.103.657c.118 1.78.886 3.365 1.996 4.664V36.5c0 3.02 2.48 5.5 5.5 5.5h27c3.02 0 5.5-2.48 5.5-5.5V23.264c1.11-1.299 1.878-2.885 1.996-4.664a1.5 1.5 0 00-.103-.657L43 13.211V11.5A5.513 5.513 0 0037.5 6h-27zm0 3a1.5 1.5 0 11-.001 3.001A1.5 1.5 0 0110.5 9zm5 0a1.5 1.5 0 11-.001 3.001A1.5 1.5 0 0115.5 9zm6 0h16a1.5 1.5 0 010 3h-16a1.5 1.5 0 010-3zM7.516 15h32.968l1.448 3.62c-.166 1.356-.952 2.668-2.22 3.67C38.377 23.345 36.598 24 35 24a5.966 5.966 0 01-4.246-1.762 1.5 1.5 0 00-2.067-.052A6.945 6.945 0 0124 24c-1.81 0-3.44-.687-4.688-1.814a1.5 1.5 0 00-2.066.052A5.966 5.966 0 0113 24c-1.597 0-3.376-.654-4.713-1.71-1.267-1.002-2.053-2.314-2.219-3.67L7.516 15zm10.82 10.055C19.96 26.2 21.862 27 24 27s4.04-.8 5.664-1.945C31.174 26.197 32.968 27 35 27c1.745 0 3.47-.486 5-1.322V36.5c0 1.398-1.102 2.5-2.5 2.5h-27A2.478 2.478 0 018 36.5V25.678C9.53 26.514 11.255 27 13 27c2.032 0 3.826-.803 5.336-1.945z"/>
    </symbol>
    <symbol viewBox="0 0 48 48" id="icon-organization">
      <path d="M10.477 4.979A1.5 1.5 0 0010.26 5H8.5a1.5 1.5 0 100 3H9v19.102c-1.674.255-3 1.66-3 3.398v11A1.5 1.5 0 007.5 43h13a1.5 1.5 0 001.5-1.5V36h4v5.5a1.5 1.5 0 001.5 1.5h13a1.5 1.5 0 001.5-1.5v-11c0-1.738-1.326-3.143-3-3.398V8h.5a1.5 1.5 0 100-3h-1.754a1.5 1.5 0 00-.486 0H10.746a1.5 1.5 0 00-.27-.021zM12 8h24v20.5a1.5 1.5 0 001.5 1.5h1c.295 0 .5.205.5.5V40H29v-5.5a1.5 1.5 0 00-1.5-1.5h-7a1.5 1.5 0 00-1.5 1.5V40H9v-9.5c0-.295.205-.5.5-.5h1a1.5 1.5 0 001.5-1.5V8zm4 4a1 1 0 00-1 1v2a1 1 0 001 1h2a1 1 0 001-1v-2a1 1 0 00-1-1h-2zm7 0a1 1 0 00-1 1v2a1 1 0 001 1h2a1 1 0 001-1v-2a1 1 0 00-1-1h-2zm7 0a1 1 0 00-1 1v2a1 1 0 001 1h2a1 1 0 001-1v-2a1 1 0 00-1-1h-2zm-14 7a1 1 0 00-1 1v2a1 1 0 001 1h2a1 1 0 001-1v-2a1 1 0 00-1-1h-2zm7 0a1 1 0 00-1 1v2a1 1 0 001 1h2a1 1 0 001-1v-2a1 1 0 00-1-1h-2zm7 0a1 1 0 00-1 1v2a1 1 0 001 1h2a1 1 0 001-1v-2a1 1 0 00-1-1h-2zm-14 7a1 1 0 00-1 1v2a1 1 0 001 1h2a1 1 0 001-1v-2a1 1 0 00-1-1h-2zm7 0a1 1 0 00-1 1v2a1 1 0 001 1h2a1 1 0 001-1v-2a1 1 0 00-1-1h-2zm7 0a1 1 0 00-1 1v2a1 1 0 001 1h2a1 1 0 001-1v-2a1 1 0 00-1-1h-2zm-17 7a1 1 0 00-1 1v2a1 1 0 001 1h2a1 1 0 001-1v-2a1 1 0 00-1-1h-2zm20 0a1 1 0 00-1 1v2a1 1 0 001 1h2a1 1 0 001-1v-2a1 1 0 00-1-1h-2z"/>
    </symbol>
    <symbol viewBox="0 0 48 48" id="icon-overtime">
      <path d="M11.5 0C5.166 0 0 5.166 0 11.5S5.166 23 11.5 23 23 17.834 23 11.5 17.834 0 11.5 0zm0 3c4.712 0 8.5 3.788 8.5 8.5S16.212 20 11.5 20A8.477 8.477 0 013 11.5C3 6.788 6.788 3 11.5 3zm-.023 1.979A1.5 1.5 0 0010 6.5v5a1.5 1.5 0 00.44 1.06l2 2a1.5 1.5 0 102.12-2.12L13 10.878V6.5a1.5 1.5 0 00-1.523-1.521zM23.82 6c.424.948.744 1.952.94 3H35.5c1.93 0 3.5 1.57 3.5 3.5V14H24.76a13.46 13.46 0 01-.94 3H39v18.5c0 1.93-1.57 3.5-3.5 3.5h-23C10.57 39 9 37.43 9 35.5V24.76a13.46 13.46 0 01-3-.94V35.5c0 3.584 2.916 6.5 6.5 6.5h23c3.584 0 6.5-2.916 6.5-6.5v-23C42 8.916 39.084 6 35.5 6H23.82zM24 21a2.5 2.5 0 000 5 2.5 2.5 0 000-5zm8.5 0a2.5 2.5 0 000 5 2.5 2.5 0 000-5zm-17 9a2.5 2.5 0 000 5 2.5 2.5 0 000-5zm8.5 0a2.5 2.5 0 000 5 2.5 2.5 0 000-5z"/>
    </symbol>
    <symbol viewBox="0 0 48 48" id="icon-parse-resumes">
      <path d="M8.5 5A4.505 4.505 0 004 9.5v29C4 40.981 6.019 43 8.5 43h4.32a6.482 6.482 0 01-1.638-3H8.5c-.827 0-1.5-.673-1.5-1.5v-29C7 8.673 7.673 8 8.5 8h2.682a6.491 6.491 0 011.638-3H8.5zm9 0C15.02 5 13 7.02 13 9.5v29c0 2.48 2.02 4.5 4.5 4.5h8.63c-.09-.32-.13-.65-.13-1v-2h-8.5c-.83 0-1.5-.67-1.5-1.5v-29c0-.83.67-1.5 1.5-1.5h22c.83 0 1.5.67 1.5 1.5v14.88c1.07.21 2.09.51 3 .9V9.5C44 7.02 41.98 5 39.5 5h-22zm11 6a3.5 3.5 0 100 7 3.5 3.5 0 100-7zm-4.125 9c-.759 0-1.375.616-1.375 1.375v1.418C23 24.565 25.462 26 28.5 26c.033 0 .066-.003.1-.004 1.28-.795 2.936-1.354 4.736-1.674.424-.455.664-.975.664-1.529v-1.418c0-.759-.616-1.375-1.375-1.375h-8.25zM37 26c-4.971 0-9 1.791-9 4s4.029 4 9 4 9-1.791 9-4-4.029-4-9-4zm-15.5 2c-.83 0-1.5.67-1.5 1.5s.67 1.5 1.5 1.5H26v-1c0-.73.19-1.4.54-2H21.5zm6.5 5v3c0 2.21 4.03 4 9 4s9-1.79 9-4v-3c0 2.21-4.03 4-9 4s-9-1.79-9-4zm-6.5 1c-.83 0-1.5.67-1.5 1.5s.67 1.5 1.5 1.5H26v-3h-4.5zm6.5 5v3c0 2.21 4.03 4 9 4s9-1.79 9-4v-3c0 2.21-4.03 4-9 4s-9-1.79-9-4z"/>
    </symbol>
    <symbol viewBox="0 0 48 48" id="icon-pay">
      <path d="M21.5 5C19.585 5 18 6.585 18 8.5v6.38l-4.941 1.52a7.503 7.503 0 00-4.182 3.239 1.5 1.5 0 00-.008.013L2.215 30.727a1.5 1.5 0 102.57 1.546l6.647-11.062.004-.006a4.5 4.5 0 012.505-1.935L18 18.02v7.48c0 .119.013.234.025.35l-2.29 1.36a1.5 1.5 0 101.53 2.58l2.99-1.778a1.5 1.5 0 00.622-.37l5.637-3.349a1.5 1.5 0 00.039-.023 1.578 1.578 0 011.98.216c.543.543.614 1.333.235 1.946a1.5 1.5 0 00-.229.293c-.013.013-.023.03-.037.043l-12.371 11.46a1.5 1.5 0 00-.008.006A6.5 6.5 0 0111.67 40H3.5a1.5 1.5 0 100 3h8.17c2.415 0 4.74-.92 6.5-2.572l.004-.002L30.506 29H44.5a1.5 1.5 0 100-3H31.953c.11-1.303-.309-2.645-1.299-3.635a4.579 4.579 0 00-2.746-1.312 4.583 4.583 0 00-2.965.685L21 24.082v-7.9a1.5 1.5 0 000-.409V11c1.66 0 3-1.34 3-3h20.5a1.5 1.5 0 100-3h-23zM37 10a5.666 5.666 0 00-4.588 2.336C31.43 13.688 31 15.352 31 17c0 1.648.429 3.312 1.412 4.664A5.666 5.666 0 0037 24a5.666 5.666 0 004.588-2.336C42.57 20.312 43 18.648 43 17c0-1.648-.429-3.312-1.412-4.664A5.666 5.666 0 0037 10zm0 3c1.042 0 1.645.39 2.162 1.102.517.71.838 1.796.838 2.898s-.321 2.188-.838 2.898C38.645 20.61 38.042 21 37 21c-1.042 0-1.645-.39-2.162-1.102C34.32 19.188 34 18.102 34 17s.321-2.188.838-2.898C35.355 13.39 35.958 13 37 13zm-12 2a2 2 0 000 4 2 2 0 000-4z"/>
    </symbol>
    <symbol viewBox="0 0 48 48" id="icon-paypal">
      <path fill="#0d62ab" d="M18.7 13.767l.005.002A.977.977 0 0119.66 13h13.472c.017 0 .034-.007.051-.006C32.896 8.215 28.887 6 25.35 6H11.878a.984.984 0 00-.955.777l-.005-.002-5.889 27.038.013.001c-.014.064-.039.125-.039.194 0 .553.447.991 1 .991h8.071L18.7 13.767z"/>
      <path fill="#199be2" d="M33.183 12.994a10.65 10.65 0 01-.229 2.882c-1.281 5.995-5.912 9.115-11.635 9.115h-4.313a.919.919 0 00-.88.54l-1.74 8.049-.305 1.429h-.006l-1.263 5.796.013.001c-.014.064-.039.125-.039.194a1 1 0 001 1h7.333l.013-.01a.985.985 0 00.945-.788l.018-.015 1.812-8.416s.126-.803.97-.803h4.178c5.723 0 10.401-3.106 11.683-9.102 1.442-6.76-3.38-9.847-7.555-9.872z"/>
      <path fill="#006fc4" d="M19.66 13a.976.976 0 00-.955.769l-.005-.002-2.575 11.765a.919.919 0 01.88-.54h4.235c5.723 0 10.432-3.12 11.713-9.115a10.61 10.61 0 00.229-2.882c-.016-.002-.034.005-.05.005H19.66z"/>
    </symbol>
    <symbol viewBox="0 0 48 48" id="icon-qr-code">
      <path d="M10.5 6C8.032 6 6 8.032 6 10.5v7c0 2.468 2.032 4.5 4.5 4.5h7c2.468 0 4.5-2.032 4.5-4.5v-7C22 8.032 19.968 6 17.5 6h-7zm20 0C28.032 6 26 8.032 26 10.5v7c0 2.468 2.032 4.5 4.5 4.5h7c2.468 0 4.5-2.032 4.5-4.5v-7C42 8.032 39.968 6 37.5 6h-7zm-20 3h7c.846 0 1.5.654 1.5 1.5v7c0 .846-.654 1.5-1.5 1.5h-7c-.846 0-1.5-.654-1.5-1.5v-7c0-.846.654-1.5 1.5-1.5zm20 0h7c.846 0 1.5.654 1.5 1.5v7c0 .846-.654 1.5-1.5 1.5h-7c-.846 0-1.5-.654-1.5-1.5v-7c0-.846.654-1.5 1.5-1.5zM12 12v4h4v-4h-4zm20 0v4h4v-4h-4zM10.5 26C8.032 26 6 28.032 6 30.5v7c0 2.468 2.032 4.5 4.5 4.5h7c2.468 0 4.5-2.032 4.5-4.5v-7c0-2.468-2.032-4.5-4.5-4.5h-7zM26 26v5.5h5.5V26H26zm5.5 5.5v5h5v-5h-5zm5 0H42V26h-5.5v5.5zm0 5V42H42v-5.5h-5.5zm-5 0H26V42h5.5v-5.5zm-21-7.5h7c.846 0 1.5.654 1.5 1.5v7c0 .846-.654 1.5-1.5 1.5h-7c-.846 0-1.5-.654-1.5-1.5v-7c0-.846.654-1.5 1.5-1.5zm1.5 3v4h4v-4h-4z"/>
    </symbol>
    <symbol viewBox="0 0 48 48" id="icon-refund">
      <path d="M28.408 4.967a1.5 1.5 0 00-1.447 1.26C26.815 7.015 25.688 8 24 8s-2.815-.985-2.96-1.773a1.5 1.5 0 00-1.476-1.248 1.5 1.5 0 00-1.474 1.794C18.572 9.373 21.158 11 24 11s5.428-1.627 5.91-4.227a1.5 1.5 0 00-1.502-1.806zm-13.931.012A1.5 1.5 0 0013 6.5v12c0 1.915 1.585 3.5 3.5 3.5h15c1.915 0 3.5-1.585 3.5-3.5v-12a1.5 1.5 0 10-3 0V16c-1.66 0-3 1.34-3 3H19c0-1.66-1.34-3-3-3V6.5a1.5 1.5 0 00-1.523-1.521zM24 13a2 2 0 000 4 2 2 0 000-4zm17.613 9.02c-1.12.01-2.184.453-3.129 1.156-1.014.753-4.066 3.032-6.707 5.004C31.205 26.352 29.506 25 27.5 25h-4.393c-2.81 0-4.121-.228-5.248-.467-1.126-.239-2.212-.533-4.033-.533-3.885 0-6.814 2.493-8.732 4.791-1.919 2.298-2.96 4.594-2.96 4.594a1.5 1.5 0 102.731 1.244s.9-1.96 2.531-3.914C9.03 28.76 11.26 27 13.826 27c1.522 0 2.18.206 3.41.467 1.23.26 2.888.533 5.871.533H27.5c.846 0 1.5.654 1.5 1.5 0 .47-.206.874-.53 1.146l-.04.032a1.5 1.5 0 00-.084.07 1.5 1.5 0 00-.002.002c-.239.159-.528.25-.844.25h-7a1.5 1.5 0 100 3h7c.94 0 1.815-.299 2.541-.8l.004-.003a1.5 1.5 0 00.18-.115s8.551-6.386 10.048-7.498a1.5 1.5 0 000-.002c.565-.42 1.037-.56 1.368-.562.33-.003.577.077.92.42.59.59.586 1.495.011 2.093-5.355 4.503-8.724 7.504-10.949 9.262C29.37 38.575 28.425 39 27.5 39c-3.652 0-7.7-1-12-1-2.5 0-4.257 1.344-5.2 2.6-.941 1.256-1.255 2.537-1.255 2.537a1.5 1.5 0 102.91.726s.186-.719.744-1.463C13.257 41.656 14 41 15.5 41c3.807 0 7.836 1 12 1 1.902 0 3.585-.956 5.982-2.85 2.368-1.87 5.693-4.84 11.016-9.316a1.5 1.5 0 00.184-.152c.007-.007.008-.017.015-.024l.004.004.053-.055a1.5 1.5 0 00.33-.533c1.246-1.752 1.165-4.19-.402-5.756-.83-.83-1.949-1.308-3.069-1.298z"/>
    </symbol>
    <symbol viewBox="0 0 48 48" id="icon-skip">
      <path d="M22.771 8C10.241 8 5.107 20.943 5.107 20.943a1.5 1.5 0 102.786 1.114S12.33 11 22.77 11c7.517 0 12.423 5.763 14.59 9H32.5a1.5 1.5 0 100 3h9a1.5 1.5 0 001.5-1.5v-9a1.5 1.5 0 00-1.523-1.521A1.5 1.5 0 0040 12.5v6.023C37.588 14.823 31.91 8 22.771 8zM7.5 28C5.585 28 4 29.585 4 31.5v5C4 38.415 5.585 40 7.5 40h5c1.915 0 3.5-1.585 3.5-3.5v-5c0-1.915-1.585-3.5-3.5-3.5h-5zm14 0c-1.915 0-3.5 1.585-3.5 3.5v5c0 1.915 1.585 3.5 3.5 3.5h5c1.915 0 3.5-1.585 3.5-3.5v-5c0-1.915-1.585-3.5-3.5-3.5h-5zm14 0c-1.915 0-3.5 1.585-3.5 3.5v5c0 1.915 1.585 3.5 3.5 3.5h5c1.915 0 3.5-1.585 3.5-3.5v-5c0-1.915-1.585-3.5-3.5-3.5h-5zm-28 3h5c.295 0 .5.205.5.5v5c0 .295-.205.5-.5.5h-5a.478.478 0 01-.5-.5v-5c0-.295.205-.5.5-.5zm14 0h5c.295 0 .5.205.5.5v5c0 .295-.205.5-.5.5h-5a.478.478 0 01-.5-.5v-5c0-.295.205-.5.5-.5zm14 0h5c.295 0 .5.205.5.5v5c0 .295-.205.5-.5.5h-5a.478.478 0 01-.5-.5v-5c0-.295.205-.5.5-.5z"/>
    </symbol>
    <symbol viewBox="0 0 48 48" id="icon-skip-2">
      <linearGradient id="bfa" x1="7.032" x2="41" y1="14.5" y2="14.5" gradientUnits="userSpaceOnUse">
        <stop offset="0" stop-color="#32bdef"/>
        <stop offset="1" stop-color="#1ea2e4"/>
      </linearGradient>
      <linearGradient id="bfb" x1="9" x2="9" y1="26.064" y2="41.383" gradientUnits="userSpaceOnUse">
        <stop offset="0" stop-color="#0077d2"/>
        <stop offset="1" stop-color="#0b59a2"/>
      </linearGradient>
      <linearGradient id="bfc" x1="24" x2="24" y1="28.468" y2="41.428" gradientUnits="userSpaceOnUse">
        <stop offset="0" stop-color="#21ad64"/>
        <stop offset="1" stop-color="#088242"/>
      </linearGradient>
      <linearGradient id="bfd" x1="39" x2="39" y1="26.064" y2="41.383" gradientUnits="userSpaceOnUse">
        <stop offset="0" stop-color="#0077d2"/>
        <stop offset="1" stop-color="#0b59a2"/>
      </linearGradient>
      <linearGradient id="bfe" x1="38.875" x2="38.875" y1="7.426" y2="23.506" gradientUnits="userSpaceOnUse">
        <stop offset="0" stop-color="#32bdef"/>
        <stop offset="1" stop-color="#1ea2e4"/>
      </linearGradient>
      <path fill="url(#bfa)" d="M41 23h-4c0-7.168-5.832-13-13-13-6.866 0-12.506 5.351-12.969 12.101-.035.512-.482.899-.995.899H8.033a1.01 1.01 0 01-.999-1.088C7.597 13.043 14.991 6 24 6c9.374 0 17 7.626 17 17z"/>
      <path fill="url(#bfb)" d="M12 40H6a2 2 0 01-2-2v-6a2 2 0 012-2h6a2 2 0 012 2v6a2 2 0 01-2 2z"/>
      <path fill="url(#bfc)" d="M27 40h-6a2 2 0 01-2-2v-6a2 2 0 012-2h6a2 2 0 012 2v6a2 2 0 01-2 2z"/>
      <path fill="url(#bfd)" d="M42 40h-6a2 2 0 01-2-2v-6a2 2 0 012-2h6a2 2 0 012 2v6a2 2 0 01-2 2z"/>
      <path fill="url(#bfe)" d="M38.119 26.127l-3.873-4.472A1 1 0 0135.002 20h7.747a1 1 0 01.756 1.655l-3.873 4.472a1 1 0 01-1.513 0z"/>
    </symbol>
    <symbol viewBox="0 0 48 48" id="icon-submit-resume">
      <path d="M12.5 4C10.02 4 8 6.02 8 8.5v31c0 2.48 2.02 4.5 4.5 4.5h13.13c-.86-.88-1.58-1.89-2.16-3H12.5c-.83 0-1.5-.67-1.5-1.5v-31c0-.83.67-1.5 1.5-1.5h23c.83 0 1.5.67 1.5 1.5v13.65c1.04.17 2.05.45 3 .85V8.5C40 6.02 37.98 4 35.5 4h-23zM24 10a3.5 3.5 0 100 7 3.5 3.5 0 100-7zm-4.5 9a1.5 1.5 0 00-1.5 1.5v1c0 1.933 2.686 3.5 6 3.5s6-1.567 6-3.5v-1a1.5 1.5 0 00-1.5-1.5h-9zM35 24c-6.075 0-11 4.925-11 11s4.925 11 11 11 11-4.925 11-11-4.925-11-11-11zm-18.5 4c-.83 0-1.5.67-1.5 1.5s.67 1.5 1.5 1.5h6.14c.34-1.07.82-2.07 1.41-3H16.5zM36 29c.256 0 .512.097.707.293l5 5a.999.999 0 010 1.414l-5 5a.999.999 0 11-1.414-1.414L38.586 36H28a1 1 0 110-2h10.586l-3.293-3.293A.999.999 0 0136 29zm-19.5 5c-.83 0-1.5.67-1.5 1.5s.67 1.5 1.5 1.5h5.65c-.1-.66-.15-1.32-.15-2 0-.34.01-.67.05-1H16.5z"/>
    </symbol>
    <symbol viewBox="0 0 48 48" id="icon-transaction">
      <linearGradient id="bha" x1="10.726" x2="7.189" y1="36.367" y2="42.888" gradientTransform="matrix(1 0 0 -1 0 48)" gradientUnits="userSpaceOnUse">
        <stop offset="0" stop-color="#107c42"/>
        <stop offset=".378" stop-color="#189553"/>
        <stop offset=".724" stop-color="#1da55e"/>
        <stop offset="1" stop-color="#1faa62"/>
      </linearGradient>
      <linearGradient id="bhb" x1="9.605" x2="4.595" y1="43.602" y2="11.975" gradientTransform="matrix(1 0 0 -1 0 48)" gradientUnits="userSpaceOnUse">
        <stop offset="0" stop-color="#33c481"/>
        <stop offset="1" stop-color="#21a366"/>
      </linearGradient>
      <linearGradient id="bhc" x1="10.926" x2="5.686" y1="43.657" y2="10.572" gradientTransform="matrix(1 0 0 -1 0 48)" gradientUnits="userSpaceOnUse">
        <stop offset="0" stop-color="#33c481"/>
        <stop offset="1" stop-color="#21a366"/>
      </linearGradient>
      <linearGradient id="bhd" x1="13.314" x2="7.899" y1="43.469" y2="9.278" gradientTransform="matrix(1 0 0 -1 0 48)" gradientUnits="userSpaceOnUse">
        <stop offset="0" stop-color="#33c481"/>
        <stop offset="1" stop-color="#21a366"/>
      </linearGradient>
      <linearGradient id="bhe" x1="16.61" x2="11.048" y1="43.105" y2="7.982" gradientTransform="matrix(1 0 0 -1 0 48)" gradientUnits="userSpaceOnUse">
        <stop offset="0" stop-color="#33c481"/>
        <stop offset="1" stop-color="#21a366"/>
      </linearGradient>
      <linearGradient id="bhf" x1="27.969" x2="22.125" y1="41.611" y2="4.717" gradientTransform="matrix(1 0 0 -1 0 48)" gradientUnits="userSpaceOnUse">
        <stop offset="0" stop-color="#33c481"/>
        <stop offset="1" stop-color="#21a366"/>
      </linearGradient>
      <path fill="url(#bha)" d="M12.933 8.135L8 14.174v-9.54a.594.594 0 011.013-.419l3.92 3.92z"/>
      <path fill="url(#bhb)" d="M5 25h3a1 1 0 100-2H5a1 1 0 100 2z"/>
      <path fill="url(#bhc)" d="M5.649 29.92c.087 0 .174-.012.262-.035l2.89-.78a1 1 0 10-.522-1.931l-2.89.78a1 1 0 00.26 1.966z"/>
      <path fill="url(#bhd)" d="M7.551 34.5c.17 0 .343-.043.5-.135l2.59-1.5a.998.998 0 00.364-1.366.998.998 0 00-1.366-.364l-2.59 1.5a1 1 0 00.502 1.865z"/>
      <path fill="url(#bhe)" d="M10.57 38.43a.997.997 0 00.707-.293l2.109-2.11a.999.999 0 10-1.414-1.414l-2.109 2.11a.999.999 0 00.707 1.707z"/>
      <path fill="url(#bhf)" d="M24 4c11.028 0 20 8.972 20 20s-8.972 20-20 20c-3.648 0-7.065-.992-10.012-2.708-.469-.273-.615-.886-.343-1.357l1.492-2.584c.271-.469.874-.652 1.342-.379A14.89 14.89 0 0024 39c8.271 0 15-6.729 15-15S32.271 9 24 9c-2.909 0-5.612.851-7.91 2.293l2.695 2.695a.593.593 0 01-.42 1.012H8.792A.793.793 0 018 14.208v-2.157C11.651 7.175 17.454 4 24 4z"/>
      <path fill="#107c42" d="M24.739 29.068c.993-.16 1.49-.682 1.49-1.564 0-.714-.497-1.298-1.49-1.75-.429-.186-.94-.4-1.522-.623-1.626-.634-2.735-1.321-3.329-2.062-.501-.624-.79-1.363-.869-2.217-.113-1.224.273-2.49 1.092-3.369.776-.833 1.811-1.317 3.106-1.451v-1.488c0-.301.233-.546.52-.546h.481c.287 0 .52.244.52.546v1.444c1.281.064 2.279.261 2.992.592.183.085.29.285.29.495v1.707c0 .393-.385.662-.724.496a7.796 7.796 0 00-2.557-.731c-.472-.055-1.04-.071-1.557.028-.879.172-1.412.756-1.413 1.601-.001.751.475 1.359 1.448 1.881a8.12 8.12 0 001.522.634c1.524.523 2.611 1.234 3.272 1.974.66.74.99 1.635.99 2.685 0 1.21-.368 2.185-1.105 2.925s-1.789 1.19-3.157 1.351v1.827a.534.534 0 01-.52.546h-.481a.533.533 0 01-.52-.546v-1.761a8.178 8.178 0 01-3.639-.85.564.564 0 01-.299-.505V28.66c0-.406.407-.691.753-.508.3.159.65.311 1.05.456.799.292 1.511.459 2.136.503.531.034 1.04.023 1.52-.043z"/>
    </symbol>
  </defs>
</svg>