<svg xmlns="http://www.w3.org/2000/svg"  viewBox="0 0 48 48" width="96px" height="96px"><linearGradient id="mlHLu6eVG5sZAzhDhR8~Oa" x1="24" x2="24" y1="-2692.124" y2="-2725.784" gradientTransform="matrix(1 0 0 -1 0 -2681.89)" gradientUnits="userSpaceOnUse"><stop offset="0" stop-color="#ffd869"/><stop offset="1" stop-color="#fec52b"/></linearGradient><path fill="url(#mlHLu6eVG5sZAzhDhR8~Oa)" d="M42.342,13.699L25.789,5.422c-1.126-0.563-2.452-0.563-3.578,0L5.658,13.699 C4.642,14.207,4,15.246,4,16.382v22.146V39c0,1.105,0.895,2,2,2h36c1.105,0,2-0.895,2-2v-0.472V16.382 C44,15.246,43.358,14.207,42.342,13.699z"/><rect width="2" height="9" x="37" y="21" fill="#3a41ac"/><path fill="#3a41ac" d="M38,34.6c0,0,2-2.495,2-3.6s-0.895-2-2-2s-2,0.895-2,2S38,34.6,38,34.6z"/><path fill="#5059c9" d="M22.901,27.512L8.439,21.964c-0.586-0.225-0.586-0.989,0-1.214l14.462-5.547 c0.703-0.27,1.495-0.27,2.198,0l14.461,5.547c0.586,0.225,0.586,0.989,0,1.214l-14.461,5.547 C24.395,27.782,23.605,27.782,22.901,27.512z"/><path fill="#7b83eb" d="M24,21c-6.075,0-9,1.165-9,2.602v8.16C20,32,24,35,24,35s4-3,9-3.238v-8.16 C33,22.165,30.075,21,24,21z"/></svg>