<svg xmlns="http://www.w3.org/2000/svg"  viewBox="0 0 48 48" width="48px" height="48px"><path fill="#31c447" d="M42.562,16.715c-0.661-1.816-2.67-2.753-4.486-2.092c-0.965,0.351-1.671,1.087-2.031,1.969 c-0.551,1.025-1.372,1.821-2.438,2.209c-0.634,0.231-1.479,0.271-2.139,0.199l0.009,0.021c-0.155-0.016-0.309-0.005-0.457,0.049 c-0.682,0.248-0.968,1.186-0.637,2.094s1.152,1.443,1.834,1.195c0.208-0.076,0.374-0.221,0.502-0.405l0.008,0.018 c0.455-0.467,0.993-0.836,1.617-1.063c1.111-0.404,2.305-0.309,3.427,0.172l-0.005-0.014c0.818,0.391,1.786,0.469,2.705,0.134 C42.287,20.54,43.223,18.532,42.562,16.715z"/><path fill="#31c447" d="M24.338,38.434l0.016,0.003c-0.669-1.021-0.971-2.181-0.765-3.346 c0.112-0.636,0.431-1.333,0.801-1.861c0.132-0.148,0.225-0.319,0.259-0.514c0.126-0.715-0.543-1.431-1.495-1.599 c-0.952-0.168-1.826,0.276-1.952,0.991c-0.038,0.218,0.004,0.434,0.099,0.637l-0.02-0.003c0.177,0.627,0.228,1.278,0.113,1.932 c-0.202,1.146-0.868,2.118-1.821,2.845c-0.773,0.536-1.345,1.377-1.52,2.372c-0.336,1.904,0.935,3.719,2.839,4.055 s3.719-0.935,4.055-2.839C25.115,40.152,24.867,39.194,24.338,38.434z"/><path fill="#31c447" d="M19.087,17.069c-0.13-0.13-0.289-0.218-0.466-0.266l0.02-0.022 c-0.628-0.214-1.308-0.573-1.785-1.049c-0.828-0.828-1.243-1.938-1.288-3.145c0.002-0.928-0.35-1.862-1.05-2.562 c-1.367-1.367-3.583-1.367-4.95,0c-1.367,1.367-1.367,3.583,0,4.95c0.686,0.686,1.6,1.037,2.514,1.045 c1.207,0.045,2.388,0.484,3.216,1.312c0.422,0.422,0.813,1.134,1.045,1.722c0.047,0.186,0.134,0.354,0.27,0.49 c0.513,0.513,1.484,0.376,2.167-0.308S19.6,17.582,19.087,17.069z"/><path fill="#4ddb63" d="M40.367,26.357c-1.05-0.382-2.162-0.3-3.107,0.14l-0.016-0.003 c-1.198,0.581-2.462,0.728-3.62,0.306c-0.661-0.24-1.225-0.649-1.693-1.176l-0.015,0.04c-0.129-0.204-0.299-0.363-0.517-0.443 c-0.711-0.259-1.594,0.373-1.972,1.411c-0.378,1.038-0.107,2.089,0.604,2.348c0.217,0.079,0.45,0.067,0.68-0.007l-0.008,0.022 c0.686-0.095,1.369-0.044,2.019,0.192c1.157,0.421,2.029,1.344,2.574,2.556c0.445,0.959,1.268,1.743,2.334,2.131 c2.076,0.756,4.371-0.315,5.127-2.391C43.513,29.408,42.443,27.112,40.367,26.357z"/><path fill="#4ddb63" d="M19.852,28.157c-0.634-0.905-1.65-1.286-2.27-0.852c-0.19,0.133-0.313,0.331-0.385,0.561 l-0.025-0.035c-0.316,0.63-0.756,1.171-1.331,1.574c-0.988,0.692-2.214,0.877-3.49,0.651c-1.059-0.197-2.199,0.01-3.137,0.667 c-1.81,1.267-2.249,3.761-0.982,5.571s3.761,2.249,5.571,0.982c0.913-0.639,1.494-1.608,1.685-2.642l0.017-0.016 c0.212-1.314,0.816-2.432,1.826-3.139c0.567-0.397,1.213-0.623,1.901-0.708l-0.014-0.019c0.241,0.011,0.469-0.037,0.659-0.17 C20.496,30.147,20.485,29.062,19.852,28.157z"/><path fill="#4ddb63" d="M28,8.047c0-2.209-1.791-4-4-4s-4,1.791-4,4c0,1.117,0.46,2.125,1.198,2.85l0.003,0.022 c0.955,0.927,1.524,2.063,1.524,3.296c0,0.692-0.186,1.351-0.51,1.963h0.024C22.091,16.369,22,16.584,22,16.815 c0,0.757,0.895,1.371,2,1.371s2-0.614,2-1.371c0-0.231-0.091-0.446-0.239-0.637h0.043c-0.335-0.62-0.526-1.291-0.526-1.994 c0-1.22,0.561-2.344,1.498-3.266C27.528,10.191,28,9.176,28,8.047z"/><path fill="#185c37" d="M35.457,36.561c-0.498-0.712-1.237-1.166-2.031-1.299c-1.157-0.424-2.21-1.193-2.978-2.29 c-0.435-0.621-0.735-1.293-0.921-1.982l-0.015,0.009c-0.03-0.235-0.108-0.466-0.253-0.673c-0.476-0.68-1.412-0.846-2.091-0.37 c-0.679,0.475-0.843,1.411-0.367,2.091c0.138,0.197,0.317,0.345,0.515,0.453c0.559,0.417,1.179,1.022,1.582,1.598 c0.775,1.107,1.14,2.373,1.136,3.617l0.016-0.011c-0.142,0.779,0.009,1.611,0.491,2.3c0.95,1.357,2.821,1.687,4.178,0.737 C36.078,39.789,36.408,37.918,35.457,36.561z"/><path fill="#185c37" d="M35.457,7.679c-1.357-0.95-3.228-0.62-4.178,0.737c-0.49,0.7-0.634,1.536-0.477,2.312 c-0.008,1.223-0.369,2.465-1.131,3.553c-0.442,0.631-1.122,1.244-1.717,1.657l0.015,0.011c-0.15,0.101-0.286,0.227-0.395,0.383 c-0.476,0.68-0.312,1.616,0.367,2.091c0.679,0.475,1.615,0.309,2.091-0.37c0.122-0.174,0.2-0.364,0.24-0.56 c0.193-0.672,0.537-1.499,0.949-2.087c0.775-1.107,1.839-1.882,3.008-2.304l-0.012-0.008c0.771-0.125,1.494-0.546,1.978-1.237 C37.144,10.5,36.814,8.629,35.457,7.679z"/><path fill="#185c37" d="M15.663,22.407c-0.225,0-0.437,0.053-0.629,0.142c-0.658,0.221-1.516,0.403-2.221,0.403 c-1.351,0-2.596-0.427-3.613-1.143l0,0.005c-0.573-0.558-1.359-0.906-2.2-0.906c-1.657,0-3,1.343-3,3c0,1.657,1.343,3,3,3 c0.853,0,1.647-0.359,2.221-0.931c1.007-0.694,2.23-1.111,3.559-1.111c0.771,0,1.65,0.196,2.33,0.447l0-0.014 c0.172,0.068,0.357,0.108,0.553,0.108c0.83,0,1.503-0.672,1.503-1.5S16.493,22.407,15.663,22.407z"/><path d="M31.653,19.022l0.013,0.035c-0.216-0.059-0.437-0.063-0.646,0.012	c-0.682,0.248-0.967,1.186-0.637,2.094s1.152,1.443,1.834,1.195c0.208-0.076,0.375-0.221,0.503-0.406l0.007,0.019	c0.264-0.272,0.566-0.497,0.887-0.694c-0.226-0.798-0.548-1.554-0.954-2.258C32.327,19.059,31.99,19.059,31.653,19.022z" opacity=".05"/><path d="M24.337,33.282c0.159-0.158,0.274-0.347,0.312-0.565c0.126-0.715-0.543-1.431-1.495-1.599	c-0.952-0.168-1.826,0.276-1.952,0.991c-0.039,0.219,0.005,0.435,0.1,0.638l-0.02-0.004c0.085,0.3,0.138,0.605,0.161,0.913	c0.803,0.213,1.641,0.337,2.509,0.341c0.12-0.247,0.258-0.485,0.422-0.709L24.337,33.282z" opacity=".05"/><path d="M16.328,18.964c0.038,0.221,0.127,0.423,0.284,0.58c0.513,0.513,1.484,0.376,2.167-0.308	s0.821-1.654,0.308-2.167c-0.157-0.157-0.359-0.246-0.58-0.284l0.026-0.026c-0.326-0.111-0.636-0.259-0.927-0.439	c-0.637,0.531-1.2,1.145-1.689,1.817c0.159,0.266,0.293,0.547,0.396,0.843L16.328,18.964z" opacity=".05"/><path d="M31.931,25.623l-0.015,0.04c-0.129-0.204-0.299-0.363-0.517-0.443	c-0.711-0.259-1.594,0.373-1.972,1.411c-0.378,1.038-0.107,2.089,0.604,2.348c0.217,0.079,0.45,0.067,0.68-0.007l-0.008,0.022	c0.63-0.088,1.256-0.044,1.858,0.145c0.44-0.73,0.792-1.518,1.035-2.353C32.948,26.546,32.393,26.142,31.931,25.623z" opacity=".05"/><path d="M19.217,30.751c0.241,0.011,0.469-0.037,0.659-0.17c0.62-0.434,0.609-1.52-0.024-2.425	c-0.634-0.905-1.65-1.286-2.27-0.852c-0.19,0.133-0.313,0.331-0.385,0.561l-0.025-0.035c-0.316,0.63-0.756,1.171-1.331,1.574	c-0.057,0.04-0.123,0.062-0.181,0.098c0.48,0.725,1.056,1.379,1.703,1.955c0.559-0.383,1.193-0.604,1.868-0.688L19.217,30.751z" opacity=".05"/><path d="M22.215,16.178h0.024C22.091,16.369,22,16.584,22,16.815c0,0.757,0.895,1.371,2,1.371	s2-0.614,2-1.371c0-0.231-0.091-0.446-0.239-0.637h0.043c-0.335-0.62-0.526-1.291-0.526-1.994c0-0.031,0.01-0.061,0.011-0.092	C24.866,14.038,24.438,14,24,14s-0.866,0.038-1.289,0.093c0.001,0.042,0.014,0.081,0.014,0.122	C22.726,14.907,22.54,15.566,22.215,16.178z" opacity=".05"/><path d="M29.513,31c-0.029-0.235-0.108-0.467-0.254-0.675c-0.476-0.68-1.412-0.846-2.091-0.37	c-0.679,0.475-0.843,1.411-0.367,2.091c0.145,0.208,0.336,0.361,0.547,0.469c0,0,0.469,0.403,0.701,0.62	c0.664-0.296,1.287-0.664,1.866-1.091c-0.161-0.344-0.292-0.696-0.388-1.054L29.513,31z" opacity=".05"/><path d="M28.12,15.863c-0.211,0.108-0.402,0.261-0.547,0.469c-0.476,0.68-0.312,1.616,0.367,2.091	c0.679,0.475,1.615,0.309,2.091-0.37c0.145-0.208,0.224-0.44,0.254-0.675l0.015,0.01c0.079-0.295,0.191-0.584,0.314-0.869	c-0.549-0.486-1.146-0.918-1.793-1.275c-0.232,0.217-0.47,0.423-0.726,0.601L28.12,15.863z" opacity=".05"/><path d="M14.965,25.228c0.21,0.111,0.445,0.179,0.698,0.179c0.83,0,1.503-0.672,1.503-1.5	s-0.673-1.5-1.503-1.5c-0.254,0-0.489,0.069-0.698,0.179v-0.018c-0.285,0.103-0.584,0.177-0.887,0.24C14.031,23.2,14,23.596,14,24	c0,0.34,0.018,0.677,0.051,1.008c0.312,0.065,0.62,0.143,0.914,0.251V25.228z" opacity=".05"/><path d="M31.021,19.07c-0.682,0.248-0.967,1.186-0.637,2.094s1.152,1.443,1.834,1.195	c0.208-0.076,0.375-0.221,0.503-0.406l0.007,0.019c0.138-0.142,0.299-0.255,0.452-0.378c-0.239-0.91-0.608-1.765-1.088-2.548	C31.945,19.045,31.229,18.994,31.021,19.07z" opacity=".07"/><path d="M24.649,32.716c0.126-0.715-0.543-1.431-1.495-1.599c-0.952-0.168-1.826,0.276-1.952,0.991	c-0.039,0.219,0.005,0.435,0.1,0.638l-0.02-0.004c0.035,0.125,0.062,0.251,0.087,0.378C22.205,33.363,23.086,33.5,24,33.5	c0.082,0,0.161-0.01,0.243-0.012C24.287,33.421,24.61,32.935,24.649,32.716z" opacity=".07"/><path d="M16.328,18.964c0.038,0.221,0.127,0.423,0.284,0.58c0.513,0.513,1.484,0.376,2.167-0.308	s0.821-1.654,0.308-2.167c-0.157-0.157-0.553-0.311-0.553-0.311c-0.149-0.051-0.283-0.132-0.425-0.197	c-0.749,0.595-1.409,1.296-1.95,2.086c0.049,0.112,0.115,0.215,0.155,0.331L16.328,18.964z" opacity=".07"/><path d="M31.931,25.623l-0.015,0.04c-0.129-0.204-0.299-0.363-0.517-0.443	c-0.711-0.259-1.594,0.373-1.972,1.411c-0.378,1.038-0.107,2.089,0.604,2.348c0.217,0.079,0.45,0.067,0.68-0.007l-0.008,0.022	c0.454-0.063,0.906-0.055,1.349,0.022c0.469-0.75,0.836-1.567,1.082-2.436C32.68,26.34,32.279,26.015,31.931,25.623z" opacity=".07"/><path d="M19.217,30.751c0.241,0.011,0.469-0.037,0.659-0.17c0.62-0.434,0.609-1.52-0.024-2.425	c-0.634-0.905-1.65-1.286-2.27-0.852c-0.19,0.133-0.313,0.331-0.385,0.561l-0.025-0.035c-0.271,0.539-0.652,0.994-1.111,1.372	c0.489,0.743,1.08,1.412,1.752,1.991c0.441-0.222,0.918-0.361,1.418-0.423L19.217,30.751z" opacity=".07"/><path d="M22.239,16.178C22.091,16.369,22,16.584,22,16.815c0,0.757,0.895,1.371,2,1.371s2-0.614,2-1.371	c0-0.231-0.091-0.446-0.239-0.637h0.043c-0.268-0.497-0.438-1.026-0.498-1.578C24.878,14.541,24.444,14.5,24,14.5	c-0.442,0-0.874,0.041-1.3,0.1c-0.055,0.552-0.221,1.081-0.484,1.579H22.239z" opacity=".07"/><path d="M29.513,31c-0.029-0.235-0.108-0.467-0.254-0.675c-0.476-0.68-1.412-0.846-2.091-0.37	c-0.679,0.475-0.843,1.411-0.367,2.091c0.145,0.208,0.784,0.641,0.885,0.72c0.76-0.315,1.399-0.717,2.045-1.208	c-0.07-0.189-0.153-0.375-0.205-0.568L29.513,31z" opacity=".07"/><path d="M27.573,16.332c-0.476,0.68-0.312,1.616,0.367,2.091c0.679,0.475,1.615,0.309,2.091-0.37	c0.145-0.208,0.358-0.905,0.399-1.026c-0.609-0.562-1.287-1.048-2.027-1.437C28.298,15.672,27.718,16.124,27.573,16.332z" opacity=".07"/><path d="M14.965,25.228c0.21,0.111,0.445,0.179,0.698,0.179c0.83,0,1.503-0.672,1.503-1.5	s-0.673-1.5-1.503-1.5c-0.254,0-0.489,0.069-0.698,0.179v-0.018c-0.116,0.042-0.241,0.062-0.36,0.097	C14.543,23.103,14.5,23.546,14.5,24c0,0.391,0.031,0.774,0.077,1.153c0.128,0.039,0.263,0.061,0.387,0.107V25.228z" opacity=".07"/><linearGradient id="q7Yrmm8rGwfXOSXO3IfbSa" x1="24" x2="24" y1="13" y2="35.5" gradientUnits="userSpaceOnUse"><stop offset="0" stop-color="#21ad64"/><stop offset="1" stop-color="#088242"/></linearGradient><path fill="url(#q7Yrmm8rGwfXOSXO3IfbSa)" d="M24,15c-4.971,0-9,4.029-9,9s4.029,9,9,9s9-4.029,9-9S28.971,15,24,15L24,15z"/><path d="M21.5,18c-1.93,0-3.5,1.57-3.5,3.5c0,1.93,1.57,3.5,3.5,3.5c1.93,0,3.5-1.57,3.5-3.5	C25,19.57,23.43,18,21.5,18z" opacity=".05"/><path d="M21.5,18.438c-1.689,0-3.063,1.374-3.063,3.063c0,1.688,1.374,3.062,3.063,3.062	c1.689,0,3.062-1.374,3.062-3.062C24.563,19.811,23.189,18.438,21.5,18.438z" opacity=".07"/><path fill="#4ddb63" d="M21,24c-1.651,0-3-1.35-3-3s1.35-3,3-3s3,1.35,3,3S22.65,24,21,24z"/><path d="M27,25c-1.654,0-3,1.346-3,3c0,1.654,1.346,3,3,3c1.654,0,3-1.346,3-3C30,26.346,28.654,25,27,25z" opacity=".05"/><circle cx="27" cy="28" r="2.571" opacity=".07"/><path fill="#31c447" d="M26.5,30c-1.376,0-2.5-1.125-2.5-2.5s1.125-2.5,2.5-2.5s2.5,1.125,2.5,2.5S27.875,30,26.5,30z"/></svg>