<svg xmlns="http://www.w3.org/2000/svg"  viewBox="0 0 48 48" width="48px" height="48px"><circle cx="12" cy="12" r="6" fill="#33c481"/><linearGradient id="PiyBi4DnItLb7pUfFXj0Ya" x1="30" x2="42" y1="36" y2="36" gradientUnits="userSpaceOnUse"><stop offset="0" stop-color="#c965eb"/><stop offset="1" stop-color="#c767e5"/></linearGradient><path fill="url(#PiyBi4DnItLb7pUfFXj0Ya)" d="M40,42h-8c-1.105,0-2-0.895-2-2v-8c0-1.105,0.895-2,2-2h8c1.105,0,2,0.895,2,2v8	C42,41.105,41.105,42,40,42z"/><linearGradient id="PiyBi4DnItLb7pUfFXj0Yb" x1="29.5" x2="42.501" y1="12" y2="12" gradientUnits="userSpaceOnUse"><stop offset="0" stop-color="#42a3f2"/><stop offset="1" stop-color="#42a4eb"/></linearGradient><path fill="url(#PiyBi4DnItLb7pUfFXj0Yb)" d="M34.998,18.085l-5.083-5.083c-0.554-0.554-0.554-1.451,0-2.004l5.083-5.083	c0.554-0.554,1.451-0.554,2.004,0l5.083,5.083c0.554,0.554,0.554,1.451,0,2.004l-5.083,5.083	C36.449,18.638,35.551,18.638,34.998,18.085z"/><path fill="#7a848d" d="M12,28c-0.552,0-1-0.448-1-1v-5c0-0.552,0.448-1,1-1s1,0.448,1,1v5C13,27.552,12.552,28,12,28z"/><path fill="#7a848d" d="M36,27c-0.552,0-1-0.448-1-1v-5c0-0.552,0.448-1,1-1s1,0.448,1,1v5C37,26.552,36.552,27,36,27z"/><path fill="#7a848d" d="M26,13h-5c-0.552,0-1-0.448-1-1s0.448-1,1-1h5c0.552,0,1,0.448,1,1S26.552,13,26,13z"/><path fill="#ed6c47" d="M18,42H6c-0.36,0-0.693-0.194-0.87-0.507c-0.178-0.313-0.173-0.698,0.013-1.007l6-10	c0.361-0.603,1.354-0.603,1.715,0l6,10c0.186,0.309,0.19,0.694,0.013,1.007C18.693,41.806,18.36,42,18,42z"/><path fill="#7a848d" d="M13,23h-2c-0.404,0-0.769-0.244-0.924-0.617c-0.155-0.374-0.069-0.804,0.217-1.09l1-1	c0.391-0.391,1.023-0.391,1.414,0l1,1c0.286,0.286,0.372,0.716,0.217,1.09C13.769,22.756,13.404,23,13,23z"/><path fill="#7a848d" d="M25,13v-2c0-0.404,0.244-0.769,0.617-0.924c0.374-0.155,0.804-0.069,1.09,0.217l1,1	c0.391,0.391,0.391,1.023,0,1.414l-1,1c-0.286,0.286-0.716,0.372-1.09,0.217C25.244,13.769,25,13.404,25,13z"/><path fill="#7a848d" d="M35,25h2c0.404,0,0.769,0.244,0.924,0.617c0.155,0.374,0.069,0.804-0.217,1.09l-1,1	c-0.391,0.391-1.023,0.391-1.414,0l-1-1c-0.286-0.286-0.372-0.716-0.217-1.09C34.231,25.244,34.596,25,35,25z"/></svg>