<?xml version="1.0" encoding="UTF-8"?><svg version="1.1" id="Layer_1" xmlns:serif="http://www.serif.com/" xmlns="http://www.w3.org/2000/svg" xmlns:xlink="http://www.w3.org/1999/xlink" x="0px" y="0px" viewBox="0 0 800 768" style="enable-background:new 0 0 800 768;" xml:space="preserve" width="800px" height="768px">

<rect id="delivery-onlineshopping" x="16" width="767.1" height="767.1" style="fill:none;"/>
<g id="Calque3">
	<g>
		<path d="M616.6,247.8H515.7v94.4h88.6c6.7,0,12.2-5.5,12.2-12.2V247.8z" style="fill-rule:evenodd;clip-rule:evenodd;fill:#FFFFFF;"/>
		<path d="M618.5,247.8c0-1.1-0.9-1.9-1.9-1.9H515.7c-1.1,0-1.9,0.9-1.9,1.9v94.4c0,1.1,0.9,1.9,1.9,1.9h88.6
			c7.8,0,14.1-6.3,14.1-14.1V247.8z M614.6,249.7h-97v90.5h86.7c5.7,0,10.3-4.6,10.3-10.3V249.7z" style="fill-rule:evenodd;clip-rule:evenodd;fill:#142664;"/>
		<path d="M106.5,101.2V78.6c0-4.3,3.5-7.8,7.8-7.8h130c4.3,0,7.8,3.5,7.8,7.8v22.6H106.5z" style="fill-rule:evenodd;clip-rule:evenodd;fill:#FFFFFF;"/>
		<path d="M569.9,298.5c-0.2-0.5-0.3-1-0.3-1.5c0-2.3,1.9-4.2,4.2-4.2c2.3,0,4.2,1.9,4.2,4.2c0,2.3-1.9,4.2-4.2,4.2
			c-0.3,0-0.7,0-1-0.1l-14.9,17.2c0.6,1,0.9,2.1,0.9,3.3c0,3.5-2.8,6.3-6.3,6.3c-3.5,0-6.3-2.8-6.3-6.3c0-0.1,0-0.3,0-0.4l-10.6-4.1
			c-1-0.4-1.5-1.5-1.1-2.5c0.4-1,1.5-1.5,2.5-1.1l10.6,4.1c1.2-1.4,2.9-2.3,4.9-2.3c0.9,0,1.7,0.2,2.5,0.5L569.9,298.5L569.9,298.5z
			" style="fill-rule:evenodd;clip-rule:evenodd;fill:#142664;"/>
		<path d="M545.1,294c-2.5,1.9-5.6,3-8.9,3c-8.1,0-14.7-6.6-14.7-14.7c0-8.1,6.6-14.7,14.7-14.7
			c8.1,0,14.7,6.6,14.7,14.7c0,3.4-1.1,6.5-3.1,9l25.9,26.1c1.5-1,3.4-1.6,5.4-1.6c0.6,0,1.1,0,1.7,0.1l7.9-20.3
			c-1.4-1.2-2.4-3-2.4-5c0-3.5,2.9-6.4,6.4-6.4c3.5,0,6.4,2.9,6.4,6.4c0,3.5-2.9,6.4-6.4,6.4c-0.1,0-0.3,0-0.4,0l-7.9,20.3
			c2.7,1.7,4.5,4.8,4.5,8.2c0,5.4-4.4,9.7-9.7,9.7c-5.4,0-9.7-4.4-9.7-9.7c0-2,0.6-3.9,1.7-5.4L545.1,294L545.1,294z" style="fill-rule:evenodd;clip-rule:evenodd;fill:#FF2E93;"/>
		<path d="M253.8,94.8h-149v170.1c0,2,0.8,3.9,2.2,5.2c1.4,1.4,3.3,2.2,5.2,2.2c25.4,0,108.8,0,134.2,0
			c2,0,3.9-0.8,5.2-2.2c1.4-1.4,2.2-3.3,2.2-5.2C253.8,231.3,253.8,94.8,253.8,94.8z" style="fill-rule:evenodd;clip-rule:evenodd;fill:#FF2E93;"/>
		<path d="M252.1,91.9V78.3c0-4.1-3.3-7.4-7.4-7.4c-25,0-105.8,0-130.7,0c-4.1,0-7.4,3.3-7.4,7.4c0,6.1,0,13.6,0,13.6" style="fill:none;stroke:#142664;stroke-width:3.8352;stroke-linecap:round;stroke-linejoin:round;stroke-miterlimit:1.4382;"/>
		<rect x="120.8" y="226.7" width="10.4" height="32.3" style="fill-rule:evenodd;clip-rule:evenodd;fill:#FFFFFF;"/>
		<rect x="139.7" y="238.5" width="10.4" height="20.6" style="fill-rule:evenodd;clip-rule:evenodd;fill:#FFFFFF;"/>
		<rect x="158.6" y="242.9" width="10.4" height="16.2" style="fill-rule:evenodd;clip-rule:evenodd;fill:#FFFFFF;"/>
		<path d="M169,229.5c0-2.5-2-4.5-4.5-4.5c-0.4,0-0.9,0-1.4,0c-2.5,0-4.5,2-4.5,4.5c0,4.1,0,9.4,0,9.4H169V229.5z" style="fill-rule:evenodd;clip-rule:evenodd;fill:#00E6B3;"/>
		<path d="M169,242.9h-10.4v-13.4c0-2.5,2-4.5,4.5-4.5c0.4,0,0.9,0,1.4,0c2.5,0,4.5,2,4.5,4.5V242.9z M165.2,229.5
			c0-0.4-0.3-0.7-0.7-0.7c-0.4,0-0.9,0-1.4,0c-0.4,0-0.7,0.3-0.7,0.7v5.6h2.8V229.5z" style="fill-rule:evenodd;clip-rule:evenodd;fill:#142664;"/>
		<path d="M187.9,206.2c0-2.5-2-4.5-4.5-4.5c-0.4,0-0.9,0-1.4,0c-2.5,0-4.5,2-4.5,4.5c0,8.2,0,24.6,0,24.6h10.4V206.2z" style="fill-rule:evenodd;clip-rule:evenodd;fill:#00E6B3;"/>
		<path d="M187.9,240.9h-10.4v-34.7c0-2.5,2-4.5,4.5-4.5c0.4,0,0.9,0,1.4,0c2.5,0,4.5,2,4.5,4.5V240.9L187.9,240.9z
			 M184.1,226.9v-20.7c0-0.4-0.3-0.7-0.7-0.7c-0.4,0-0.9,0-1.4,0c-0.4,0-0.7,0.3-0.7,0.7v20.7H184.1z" style="fill-rule:evenodd;clip-rule:evenodd;fill:#142664;"/>
		<rect x="177.5" y="240.9" width="10.4" height="18.2" style="fill-rule:evenodd;clip-rule:evenodd;fill:#FFFFFF;"/>
		<path d="M190.5,163h-49.9c-1.1,0-1.9,0.9-1.9,1.9c0,1.1,0.9,1.9,1.9,1.9h49.9c1.1,0,1.9-0.9,1.9-1.9
			C192.4,163.8,191.6,163,190.5,163z" style="fill-rule:evenodd;clip-rule:evenodd;fill:#142664;"/>
		<path d="M131.9,163h-16.1c-1.1,0-1.9,0.9-1.9,1.9c0,1.1,0.9,1.9,1.9,1.9h16.1c1.1,0,1.9-0.9,1.9-1.9
			C133.8,163.8,133,163,131.9,163z" style="fill-rule:evenodd;clip-rule:evenodd;fill:#142664;"/>
		<path d="M212.4,152.7h-96.6c-1.1,0-1.9,0.9-1.9,1.9s0.9,1.9,1.9,1.9h96.6c1.1,0,1.9-0.9,1.9-1.9
			S213.4,152.7,212.4,152.7z" style="fill-rule:evenodd;clip-rule:evenodd;fill:#142664;"/>
		<path d="M173.7,173.2h-57.8c-1.1,0-1.9,0.9-1.9,1.9s0.9,1.9,1.9,1.9h57.8c1.1,0,1.9-0.9,1.9-1.9
			S174.7,173.2,173.7,173.2z" style="fill-rule:evenodd;clip-rule:evenodd;fill:#142664;"/>
		<path d="M212.4,142.5h-41.8c-1.1,0-1.9,0.9-1.9,1.9s0.9,1.9,1.9,1.9h41.8c1.1,0,1.9-0.9,1.9-1.9
			S213.4,142.5,212.4,142.5L212.4,142.5z" style="fill-rule:evenodd;clip-rule:evenodd;fill:#142664;"/>
		<path d="M161.9,142.5h-46c-1.1,0-1.9,0.9-1.9,1.9s0.9,1.9,1.9,1.9h46c1.1,0,1.9-0.9,1.9-1.9S162.9,142.5,161.9,142.5z
			" style="fill-rule:evenodd;clip-rule:evenodd;fill:#142664;"/>
		<path d="M242.7,112.8c0-4.2-3.4-7.6-7.6-7.6c-22.6,0-89.2,0-111.7,0c-4.2,0-7.6,3.4-7.6,7.6c0,3.6,0,7.9,0,11.5
			c0,4.2,3.4,7.6,7.6,7.6c22.6,0,89.2,0,111.7,0c4.2,0,7.6-3.4,7.6-7.6C242.7,120.7,242.7,116.4,242.7,112.8z" style="fill-rule:evenodd;clip-rule:evenodd;fill:#FFFFFF;"/>
		<path d="M115.8,261h69.6c1.1,0,1.9-0.9,1.9-1.9c0-1.1-0.9-1.9-1.9-1.9h-69.6c-1.1,0-1.9,0.9-1.9,1.9
			C113.9,260.1,114.8,261,115.8,261z" style="fill-rule:evenodd;clip-rule:evenodd;fill:#142664;"/>
		<path d="M536.1,127.4c0-2.6-1-5-2.8-6.8c-1.8-1.8-4.3-2.8-6.8-2.8H195.1c-2.6,0-5,1-6.8,2.8c-1.8,1.8-2.8,4.3-2.8,6.8
			V374c0,2.6,1,5,2.8,6.8c1.8,1.8,4.3,2.8,6.8,2.8h331.4c2.6,0,5-1,6.8-2.8c1.8-1.8,2.8-4.3,2.8-6.8V127.4z" style="fill-rule:evenodd;clip-rule:evenodd;fill:#FFFFFF;"/>
		<path d="M538,127.4c0-3.1-1.2-6-3.4-8.2c-2.2-2.2-5.1-3.4-8.2-3.4H195.1c-3.1,0-6,1.2-8.2,3.4
			c-2.2,2.2-3.4,5.1-3.4,8.2V374c0,3.1,1.2,6,3.4,8.2c2.2,2.2,5.1,3.4,8.2,3.4c50.2,0,281.2,0,331.4,0c3.1,0,6-1.2,8.2-3.4
			c2.2-2.2,3.4-5.1,3.4-8.2V127.4z M534.2,127.4V374c0,2.1-0.8,4-2.3,5.5c-1.4,1.4-3.4,2.3-5.5,2.3c-50.2,0-281.2,0-331.4,0
			c-2.1,0-4-0.8-5.5-2.3c-1.4-1.4-2.3-3.4-2.3-5.5V127.4c0-2.1,0.8-4,2.3-5.5c1.5-1.4,3.4-2.3,5.5-2.3h331.4c2.1,0,4,0.8,5.5,2.3
			C533.4,123.4,534.2,125.4,534.2,127.4z" style="fill-rule:evenodd;clip-rule:evenodd;fill:#142664;"/>
		<circle cx="240.4" cy="273.3" r="22.2" style="fill-rule:evenodd;clip-rule:evenodd;fill:#00E6B3;"/>
		<g>
			<path d="M380.8,136.1c-1.8-5-6.5-8.3-11.9-8.3c-7.4,0-17.8,0-25.2,0c-5.3,0-10.1,3.3-11.9,8.3
				c-2.2,6.2-4.9,13.6-4.9,13.6h58.7C385.7,149.6,383.1,142.3,380.8,136.1L380.8,136.1z" style="fill:none;stroke:#142664;stroke-width:3.8352;stroke-linecap:round;stroke-linejoin:round;stroke-miterlimit:1.4382;"/>
			<path d="M445.6,136.1c-1.8-5-6.5-8.3-11.9-8.3c-7.4,0-17.8,0-25.2,0c-5.3,0-10.1,3.3-11.9,8.3
				c-2.2,6.2-4.9,13.6-4.9,13.6h58.7C450.5,149.6,447.9,142.3,445.6,136.1L445.6,136.1z" style="fill:none;stroke:#142664;stroke-width:3.8352;stroke-linecap:round;stroke-linejoin:round;stroke-miterlimit:1.4382;"/>
		</g>
		<path d="M263.8,145.3l3.3-9.2c1.8-5,6.5-8.3,11.9-8.3c7.4,0,17.8,0,25.2,0c5.3,0,10.1,3.3,11.9,8.3l3.3,9.2h198.9
			c5.1,0,9.2,4.1,9.2,9.2v32.9H194.1c0,0,0-20.5,0-32.9c0-5.1,4.1-9.2,9.2-9.2L263.8,145.3L263.8,145.3z" style="fill-rule:evenodd;clip-rule:evenodd;fill:#00E6B3;"/>
		<path d="M192.2,191.1v179.3c0,3.7,3,6.7,6.7,6.7c37.7,0,286,0,323.7,0c3.7,0,6.7-3,6.7-6.7c0-29,0-179.3,0-179.3
			c0-1.1-0.9-1.9-1.9-1.9c-1.1,0-1.9,0.9-1.9,1.9c0,0,0,150.3,0,179.3c0,1.6-1.3,2.9-2.9,2.9c-37.7,0-286,0-323.7,0
			c-1.6,0-2.9-1.3-2.9-2.9V191.1c0-1.1-0.9-1.9-1.9-1.9C193.1,189.2,192.2,190,192.2,191.1L192.2,191.1z" style="fill-rule:evenodd;clip-rule:evenodd;fill:#142664;"/>
		<path d="M206.9,180.2c-1,0.2-1.9-0.2-2.5-1c-0.6-0.7-0.8-1.8-0.5-2.7c1-2.6,2.1-5.7,2.6-7.2c0.2-0.6,0.2-1.2,0-1.7
			c-0.6-1.9-2.1-6.6-3.3-10.4c-0.3-1,0-2.1,0.8-2.8c0.8-0.7,1.9-0.9,2.9-0.5c5.7,2.4,14.1,6,17.6,7.5c0.9,0.4,2,0.2,2.8-0.4
			c1.7-1.5,4.7-4,6.6-5.6c0.9-0.8,2.2-0.9,3.2-0.3c2.7,1.6,8,4.8,11.4,6.9c0.8,0.5,1.2,1.3,1.3,2.1c0.1,0.9-0.3,1.7-1,2.3
			c-3.4,2.7-8.6,7-10.3,8.4c-0.4,0.3-0.8,0.5-1.3,0.6C233.4,176,215.5,178.9,206.9,180.2L206.9,180.2z" style="fill-rule:evenodd;clip-rule:evenodd;fill:#FFFFFF;"/>
		<path d="M260.1,152.7v26.7c0,1.1,0.9,1.9,1.9,1.9c1.1,0,1.9-0.9,1.9-1.9v-26.7c0-1.1-0.9-1.9-1.9-1.9
			C260.9,150.8,260.1,151.6,260.1,152.7L260.1,152.7z" style="fill-rule:evenodd;clip-rule:evenodd;fill:#142664;"/>
		<path d="M300.8,152.7v26.7c0,1.1,0.9,1.9,1.9,1.9c1.1,0,1.9-0.9,1.9-1.9v-26.7c0-1.1-0.9-1.9-1.9-1.9
			C301.6,150.8,300.8,151.6,300.8,152.7z" style="fill-rule:evenodd;clip-rule:evenodd;fill:#142664;"/>
		<path d="M341.4,152.7v26.7c0,1.1,0.9,1.9,1.9,1.9c1.1,0,1.9-0.9,1.9-1.9v-26.7c0-1.1-0.9-1.9-1.9-1.9
			C342.3,150.8,341.4,151.6,341.4,152.7z" style="fill-rule:evenodd;clip-rule:evenodd;fill:#142664;"/>
		<path d="M444.5,166c0-7.4-6-13.3-13.3-13.3c-16.8,0-45.5,0-62.3,0c-7.4,0-13.3,6-13.3,13.3c0,0,0,0,0,0
			c0,7.4,6,13.3,13.3,13.3c16.8,0,45.5,0,62.3,0C438.5,179.4,444.5,173.4,444.5,166C444.5,166,444.5,166,444.5,166z" style="fill-rule:evenodd;clip-rule:evenodd;fill:#FFFFFF;"/>
		<path d="M295.1,166.3c0-2.1-1.7-3.8-3.8-3.8c-4.8,0-13,0-17.8,0c-2.1,0-3.8,1.7-3.8,3.8c0,0,0,0,0,0
			c0,2.1,1.7,3.8,3.8,3.8c4.8,0,13,0,17.8,0C293.3,170.1,295.1,168.4,295.1,166.3C295.1,166.3,295.1,166.3,295.1,166.3z" style="fill-rule:evenodd;clip-rule:evenodd;fill:#142664;"/>
		<path d="M335.7,166.3c0-2.1-1.7-3.8-3.8-3.8c-4.8,0-13,0-17.8,0c-2.1,0-3.8,1.7-3.8,3.8c0,0,0,0,0,0
			c0,2.1,1.7,3.8,3.8,3.8c4.8,0,13,0,17.8,0C334,170.1,335.7,168.4,335.7,166.3C335.7,166.3,335.7,166.3,335.7,166.3z" style="fill-rule:evenodd;clip-rule:evenodd;fill:#142664;"/>
		<path d="M432,170.3c-1,0.5-2,0.8-3.2,0.8c-3.7,0-6.7-3-6.7-6.7c0-3.7,3-6.7,6.7-6.7c3.7,0,6.7,3,6.7,6.7
			c0,1.2-0.3,2.2-0.8,3.2l3.5,3.5c0.7,0.7,0.7,2,0,2.7c-0.7,0.7-2,0.7-2.7,0L432,170.3z M430.8,166.4c0.5-0.5,0.8-1.2,0.8-2
			c0-1.6-1.3-2.9-2.9-2.9c-1.6,0-2.9,1.3-2.9,2.9c0,1.6,1.3,2.9,2.9,2.9C429.6,167.3,430.3,166.9,430.8,166.4
			C430.8,166.4,430.8,166.4,430.8,166.4C430.8,166.4,430.8,166.4,430.8,166.4L430.8,166.4z" style="fill-rule:evenodd;clip-rule:evenodd;fill:#142664;"/>
		<circle cx="467.5" cy="166" r="13.3" style="fill-rule:evenodd;clip-rule:evenodd;fill:#142664;"/>
		<path d="M472.4,169.5c0.3-0.5,0.3-1.1,0.1-1.6c-0.3-0.5-0.8-0.8-1.4-0.8h-7.2c-0.6,0-1.1,0.3-1.4,0.8
			c-0.3,0.5-0.2,1.1,0.1,1.6c0.9,1.3,2.7,2.3,4.9,2.3C469.7,171.8,471.5,170.8,472.4,169.5L472.4,169.5z" style="fill-rule:evenodd;clip-rule:evenodd;fill:#FFFFFF;"/>
		<circle cx="459.8" cy="164.8" r="1.5" style="fill-rule:evenodd;clip-rule:evenodd;fill:#FFFFFF;"/>
		<circle cx="475.1" cy="164.8" r="1.5" style="fill-rule:evenodd;clip-rule:evenodd;fill:#FFFFFF;"/>
		<circle cx="502.3" cy="166" r="13.3" style="fill-rule:evenodd;clip-rule:evenodd;fill:#142664;"/>
		<circle cx="200.8" cy="131.3" r="6.7" style="fill-rule:evenodd;clip-rule:evenodd;fill:#FF2E93;"/>
		<circle cx="120.6" cy="83.3" r="6.7" style="fill-rule:evenodd;clip-rule:evenodd;fill:#FF2E93;"/>
		<circle cx="221.2" cy="131.3" r="6.7" style="fill-rule:evenodd;clip-rule:evenodd;fill:#142664;"/>
		<circle cx="141" cy="83.3" r="6.7" style="fill-rule:evenodd;clip-rule:evenodd;fill:#142664;"/>
		<circle cx="241.5" cy="131.3" r="6.7" style="fill-rule:evenodd;clip-rule:evenodd;fill:#00E6B3;"/>
		<circle cx="161.4" cy="83.3" r="6.7" style="fill-rule:evenodd;clip-rule:evenodd;fill:#00E6B3;"/>
		<circle cx="240.4" cy="219.8" r="22.2" style="fill-rule:evenodd;clip-rule:evenodd;fill:#FF2E93;"/>
		<circle cx="240.4" cy="326.8" r="22.2" style="fill-rule:evenodd;clip-rule:evenodd;fill:#142664;"/>
		<path d="M276.3,317.1h86.9c1.6,0,2.9-1.3,2.9-2.9s-1.3-2.9-2.9-2.9h-86.9c-1.6,0-2.9,1.3-2.9,2.9
			S274.7,317.1,276.3,317.1z" style="fill-rule:evenodd;clip-rule:evenodd;fill:#142664;"/>
		<path d="M276.3,329.7h34.9c1.6,0,2.9-1.3,2.9-2.9c0-1.6-1.3-2.9-2.9-2.9h-34.9c-1.6,0-2.9,1.3-2.9,2.9
			C273.4,328.4,274.7,329.7,276.3,329.7z" style="fill-rule:evenodd;clip-rule:evenodd;fill:#142664;"/>
		<path d="M323.4,329.7h20c1.6,0,2.9-1.3,2.9-2.9c0-1.6-1.3-2.9-2.9-2.9h-20c-1.6,0-2.9,1.3-2.9,2.9
			C320.5,328.4,321.8,329.7,323.4,329.7z" style="fill-rule:evenodd;clip-rule:evenodd;fill:#142664;"/>
		<path d="M355.6,329.7h7.6c1.6,0,2.9-1.3,2.9-2.9c0-1.6-1.3-2.9-2.9-2.9h-7.6c-1.6,0-2.9,1.3-2.9,2.9
			C352.7,328.4,354,329.7,355.6,329.7z" style="fill-rule:evenodd;clip-rule:evenodd;fill:#142664;"/>
		<path d="M276.3,342.3h15.3c1.6,0,2.9-1.3,2.9-2.9c0-1.6-1.3-2.9-2.9-2.9h-15.3c-1.6,0-2.9,1.3-2.9,2.9
			C273.4,341,274.7,342.3,276.3,342.3z" style="fill-rule:evenodd;clip-rule:evenodd;fill:#142664;"/>
		<path d="M304.8,342.3h28.7c1.6,0,2.9-1.3,2.9-2.9c0-1.6-1.3-2.9-2.9-2.9h-28.7c-1.6,0-2.9,1.3-2.9,2.9
			C301.9,341,303.2,342.3,304.8,342.3z" style="fill-rule:evenodd;clip-rule:evenodd;fill:#142664;"/>
		<path d="M404.2,213c0-2.8-2.2-5-5-5h-13.8c-2.8,0-5,2.2-5,5v13.8c0,2.8,2.2,5,5,5h13.8c2.8,0,5-2.2,5-5V213z" style="fill-rule:evenodd;clip-rule:evenodd;fill:#00E6B3;"/>
		<path d="M404.2,266.5c0-2.8-2.2-5-5-5h-13.8c-2.8,0-5,2.2-5,5v13.8c0,2.8,2.2,5,5,5h13.8c2.8,0,5-2.2,5-5V266.5z" style="fill-rule:evenodd;clip-rule:evenodd;fill:#00E6B3;"/>
		<path d="M404.2,320c0-2.8-2.2-5-5-5h-13.8c-2.8,0-5,2.2-5,5v13.8c0,2.8,2.2,5,5,5h13.8c2.8,0,5-2.2,5-5V320z" style="fill-rule:evenodd;clip-rule:evenodd;fill:#FF2E93;"/>
		<path d="M276.3,263.7h47.2c1.6,0,2.9-1.3,2.9-2.9c0-1.6-1.3-2.9-2.9-2.9h-47.2c-1.6,0-2.9,1.3-2.9,2.9
			C273.4,262.4,274.7,263.7,276.3,263.7z" style="fill-rule:evenodd;clip-rule:evenodd;fill:#142664;"/>
		<path d="M336,263.7h27.2c1.6,0,2.9-1.3,2.9-2.9c0-1.6-1.3-2.9-2.9-2.9H336c-1.6,0-2.9,1.3-2.9,2.9
			C333.1,262.4,334.4,263.7,336,263.7z" style="fill-rule:evenodd;clip-rule:evenodd;fill:#142664;"/>
		<path d="M276.3,276.2h79.3c1.6,0,2.9-1.3,2.9-2.9c0-1.6-1.3-2.9-2.9-2.9h-79.3c-1.6,0-2.9,1.3-2.9,2.9
			C273.4,274.9,274.7,276.2,276.3,276.2z" style="fill-rule:evenodd;clip-rule:evenodd;fill:#142664;"/>
		<path d="M276.3,210.2h6.4c1.6,0,2.9-1.3,2.9-2.9s-1.3-2.9-2.9-2.9h-6.4c-1.6,0-2.9,1.3-2.9,2.9
			S274.7,210.2,276.3,210.2z" style="fill-rule:evenodd;clip-rule:evenodd;fill:#142664;"/>
		<path d="M295.9,210.2h40.6c1.6,0,2.9-1.3,2.9-2.9s-1.3-2.9-2.9-2.9h-40.6c-1.6,0-2.9,1.3-2.9,2.9
			S294.3,210.2,295.9,210.2z" style="fill-rule:evenodd;clip-rule:evenodd;fill:#142664;"/>
		<path d="M348.7,210.2h14.5c1.6,0,2.9-1.3,2.9-2.9s-1.3-2.9-2.9-2.9h-14.5c-1.6,0-2.9,1.3-2.9,2.9
			S347.1,210.2,348.7,210.2z" style="fill-rule:evenodd;clip-rule:evenodd;fill:#142664;"/>
		<path d="M276.3,222.7h86.9c1.6,0,2.9-1.3,2.9-2.9c0-1.6-1.3-2.9-2.9-2.9h-86.9c-1.6,0-2.9,1.3-2.9,2.9
			C273.4,221.4,274.7,222.7,276.3,222.7z" style="fill-rule:evenodd;clip-rule:evenodd;fill:#142664;"/>
		<path d="M276.3,235.3h28.6c1.6,0,2.9-1.3,2.9-2.9c0-1.6-1.3-2.9-2.9-2.9h-28.6c-1.6,0-2.9,1.3-2.9,2.9
			C273.4,234,274.7,235.3,276.3,235.3z" style="fill-rule:evenodd;clip-rule:evenodd;fill:#142664;"/>
		<path d="M317.5,235.3H336c1.6,0,2.9-1.3,2.9-2.9c0-1.6-1.3-2.9-2.9-2.9h-18.5c-1.6,0-2.9,1.3-2.9,2.9
			C314.6,234,315.9,235.3,317.5,235.3z" style="fill-rule:evenodd;clip-rule:evenodd;fill:#142664;"/>
		<path d="M397.9,219.2c0-1.3-0.5-2.6-1.5-3.5c-0.9-0.9-2.2-1.5-3.5-1.5h-1.2c-1.3,0-2.6,0.5-3.5,1.5
			c-0.9,0.9-1.5,2.2-1.5,3.5v1.2c0,1.3,0.5,2.6,1.5,3.5c0.9,0.9,2.2,1.5,3.5,1.5h1.2c1.3,0,2.6-0.5,3.5-1.5c0.9-0.9,1.5-2.2,1.5-3.5
			V219.2z" style="fill-rule:evenodd;clip-rule:evenodd;fill:#142664;"/>
		<path d="M397.9,270.7c0-0.8-0.3-1.5-0.9-2.1c-0.6-0.6-1.3-0.9-2.1-0.9h-5.4c-0.8,0-1.5,0.3-2.1,0.9s-0.9,1.3-0.9,2.1
			v5.4c0,0.8,0.3,1.5,0.9,2.1c0.6,0.6,1.3,0.9,2.1,0.9h5.4c0.8,0,1.5-0.3,2.1-0.9c0.6-0.6,0.9-1.3,0.9-2.1V270.7z" style="fill-rule:evenodd;clip-rule:evenodd;fill:#142664;"/>
		<path d="M397.9,326.2c0-1.3-0.5-2.6-1.5-3.5c-0.9-0.9-2.2-1.5-3.5-1.5h-1.2c-1.3,0-2.6,0.5-3.5,1.5
			c-0.9,0.9-1.5,2.2-1.5,3.5v1.2c0,1.3,0.5,2.6,1.5,3.5c0.9,0.9,2.2,1.5,3.5,1.5h1.2c1.3,0,2.6-0.5,3.5-1.5c0.9-0.9,1.5-2.2,1.5-3.5
			V326.2z" style="fill-rule:evenodd;clip-rule:evenodd;fill:#FFFFFF;"/>
		<path d="M502.2,314.4c0-2.2-0.9-4.3-2.4-5.9c-1.6-1.6-3.7-2.4-5.9-2.4c-14.9,0-46,0-60.9,0c-2.2,0-4.3,0.9-5.9,2.4
			c-1.6,1.6-2.4,3.7-2.4,5.9c0,7.4,0,18.1,0,25.5c0,2.2,0.9,4.3,2.4,5.9c1.6,1.6,3.7,2.4,5.9,2.4c14.9,0,46,0,60.9,0
			c2.2,0,4.3-0.9,5.9-2.4c1.6-1.6,2.4-3.7,2.4-5.9C502.2,332.5,502.2,321.8,502.2,314.4z" style="fill-rule:evenodd;clip-rule:evenodd;fill:#00E6B3;"/>
		<path d="M498.9,380.6l-10.9,4.3l-0.3-45.5l30.8,33.5l-10.9,4.3l4.1,10.5l-8.7,3.4L498.9,380.6L498.9,380.6z" style="fill-rule:evenodd;clip-rule:evenodd;fill:#FFFFFF;"/>
		<path d="M497.8,383.1l-9.1,3.6c-0.6,0.2-1.3,0.2-1.8-0.2c-0.5-0.4-0.8-0.9-0.8-1.6l-0.3-45.5c0-0.8,0.5-1.5,1.2-1.8
			c0.7-0.3,1.6-0.1,2.1,0.5l30.8,33.5c0.4,0.5,0.6,1.1,0.5,1.7c-0.1,0.6-0.6,1.1-1.2,1.4l-9.1,3.6l3.4,8.7c0.4,1-0.1,2.1-1.1,2.5
			l-8.7,3.4c-1,0.4-2.1-0.1-2.5-1.1L497.8,383.1L497.8,383.1z M515.2,372.1l-25.6-27.8l0.3,37.8l8.3-3.3c1-0.4,2.1,0.1,2.5,1.1
			l3.4,8.7l5.1-2l-3.4-8.7c-0.4-1,0.1-2.1,1.1-2.5L515.2,372.1L515.2,372.1z" style="fill-rule:evenodd;clip-rule:evenodd;fill:#142664;"/>
		<g>
			<circle cx="457.1" cy="338.9" r="2.4" style="fill-rule:evenodd;clip-rule:evenodd;fill:#142664;"/>
			<circle cx="472.7" cy="338.9" r="2.4" style="fill-rule:evenodd;clip-rule:evenodd;fill:#142664;"/>
			<path d="M440.7,313.1c0.5-0.5,1.2-0.8,2-0.5l5.6,1.7h33.4c0.6,0,1.2,0.3,1.6,0.8c0.4,0.5,0.4,1.2,0.2,1.8l-6.1,16.8
				c-0.3,0.8-1,1.3-1.8,1.3h-21.4c-0.8,0-1.5-0.5-1.8-1.3l-5.8-15.9l-2.5-0.8c-0.5,0.6-1.2,0.9-2,0.9c-1.4,0-2.6-1.2-2.6-2.6
				C439.5,314.4,440,313.6,440.7,313.1L440.7,313.1z M458.3,331.2v-5.1h-4.5l1.8,5.1H458.3z M462.1,326.1v5.1h5.7v-5.1H462.1z
				 M476.1,326.1h-4.6v5.1h2.7L476.1,326.1z M450.8,318.2l1.5,4.1h5.9v-4.1H450.8z M462.1,318.2v4.1h5.7v-4.1H462.1z M471.6,318.2
				v4.1h6l1.5-4.1H471.6L471.6,318.2z" style="fill-rule:evenodd;clip-rule:evenodd;fill:#142664;"/>
		</g>
		<path d="M457.6,212.2c0-2.2-0.9-4.3-2.4-5.8c-1.5-1.5-3.7-2.4-5.8-2.4c-4.9,0-11.2,0-16.2,0c-2.2,0-4.3,0.9-5.8,2.4
			c-1.5,1.5-2.4,3.7-2.4,5.8c0,17.4,0,57.7,0,75.1c0,2.2,0.9,4.3,2.4,5.8c1.5,1.6,3.7,2.4,5.8,2.4c4.9,0,11.2,0,16.2,0
			c2.2,0,4.3-0.9,5.8-2.4c1.5-1.5,2.4-3.7,2.4-5.8C457.6,269.9,457.6,229.6,457.6,212.2L457.6,212.2z" style="fill-rule:evenodd;clip-rule:evenodd;fill:#FF2E93;"/>
		<path d="M502.2,212.2c0-2.2-0.9-4.3-2.4-5.8c-1.5-1.5-3.7-2.4-5.8-2.4c-4.9,0-11.2,0-16.2,0c-2.2,0-4.3,0.9-5.8,2.4
			c-1.5,1.5-2.4,3.7-2.4,5.8c0,12.1,0,34.4,0,46.5c0,2.2,0.9,4.3,2.4,5.8c1.5,1.5,3.7,2.4,5.8,2.4c4.9,0,11.2,0,16.2,0
			c2.2,0,4.3-0.9,5.8-2.4c1.6-1.5,2.4-3.7,2.4-5.8C502.2,246.6,502.2,224.3,502.2,212.2z" style="fill-rule:evenodd;clip-rule:evenodd;fill:#00E6B3;"/>
		<path d="M502.2,285.6c0-2.2-0.9-4.3-2.4-5.8c-1.5-1.5-3.7-2.4-5.8-2.4c-4.9,0-11.2,0-16.2,0c-2.2,0-4.3,0.9-5.8,2.4
			c-1.5,1.5-2.4,3.7-2.4,5.8c0,0.6,0,1.1,0,1.7c0,2.2,0.9,4.3,2.4,5.8c1.5,1.6,3.7,2.4,5.8,2.4c4.9,0,11.2,0,16.2,0
			c2.2,0,4.3-0.9,5.8-2.4c1.6-1.5,2.4-3.7,2.4-5.8C502.2,286.8,502.2,286.2,502.2,285.6z" style="fill-rule:evenodd;clip-rule:evenodd;fill:#142664;"/>
		<path d="M131.2,204.9c0-2.5-2-4.5-4.5-4.5c-0.4,0-0.9,0-1.4,0c-2.5,0-4.5,2-4.5,4.5c0,5.3,0,13.4,0,13.4h10.4
			C131.2,218.3,131.2,204.9,131.2,204.9z" style="fill-rule:evenodd;clip-rule:evenodd;fill:#00E6B3;"/>
		<path d="M150.1,188c0-2.5-2-4.5-4.5-4.5c-0.4,0-0.9,0-1.4,0c-2.5,0-4.5,2-4.5,4.5c0,10.8,0,36.9,0,36.9h10.4V188z" style="fill-rule:evenodd;clip-rule:evenodd;fill:#00E6B3;"/>
		<path d="M638.8,226.3c0-5.5-4.5-10-10-10c-15.3,0-44.2,0-59.4,0c-5.5,0-10,4.5-10,10c0,11.8,0,31.3,0,43.1
			c0,5.5,4.5,10,10,10c15.3,0,44.2,0,59.4,0c5.5,0,10-4.5,10-10C638.8,257.5,638.8,238.1,638.8,226.3L638.8,226.3z" style="fill-rule:evenodd;clip-rule:evenodd;fill:#142664;"/>
		<circle cx="572.2" cy="230" r="3.5" style="fill-rule:evenodd;clip-rule:evenodd;fill:#00E6B3;"/>
		<circle cx="572.2" cy="247.8" r="3.5" style="fill-rule:evenodd;clip-rule:evenodd;fill:#00E6B3;"/>
		<circle cx="572.2" cy="265.6" r="3.5" style="fill-rule:evenodd;clip-rule:evenodd;fill:#00E6B3;"/>
		<path d="M585.1,231.9h9.1c1.1,0,1.9-0.9,1.9-1.9c0-1.1-0.9-1.9-1.9-1.9h-9.1c-1.1,0-1.9,0.9-1.9,1.9
			C583.2,231,584.1,231.9,585.1,231.9z" style="fill-rule:evenodd;clip-rule:evenodd;fill:#00E6B3;"/>
		<path d="M601.8,231.9h21.8c1.1,0,1.9-0.9,1.9-1.9c0-1.1-0.9-1.9-1.9-1.9h-21.8c-1.1,0-1.9,0.9-1.9,1.9
			C599.9,231,600.7,231.9,601.8,231.9z" style="fill-rule:evenodd;clip-rule:evenodd;fill:#00E6B3;"/>
		<path d="M585.1,249.7h42.7c1.1,0,1.9-0.9,1.9-1.9c0-1.1-0.9-1.9-1.9-1.9h-42.7c-1.1,0-1.9,0.9-1.9,1.9
			C583.2,248.9,584.1,249.7,585.1,249.7z" style="fill-rule:evenodd;clip-rule:evenodd;fill:#00E6B3;"/>
		<path d="M585.1,267.5h22.2c1.1,0,1.9-0.9,1.9-1.9c0-1.1-0.9-1.9-1.9-1.9h-22.2c-1.1,0-1.9,0.9-1.9,1.9
			C583.2,266.7,584.1,267.5,585.1,267.5z" style="fill-rule:evenodd;clip-rule:evenodd;fill:#00E6B3;"/>
		<path d="M614.8,267.5h3.5c1.1,0,1.9-0.9,1.9-1.9c0-1.1-0.9-1.9-1.9-1.9h-3.5c-1.1,0-1.9,0.9-1.9,1.9
			C612.9,266.7,613.8,267.5,614.8,267.5z" style="fill-rule:evenodd;clip-rule:evenodd;fill:#00E6B3;"/>
		<path d="M500.2,160.6l0.5-2.4h3.1l0.5,2.4c0.1,0,0.2,0.1,0.3,0.1l2.1-1.3l2.2,2.2l-1.3,2.1c0,0.1,0.1,0.2,0.1,0.3
			l2.4,0.5v3.1l-2.4,0.5c0,0.1-0.1,0.2-0.1,0.3l1.3,2.1l-2.2,2.2l-2.1-1.3c-0.1,0-0.2,0.1-0.3,0.1l-0.5,2.4h-3.1l-0.5-2.4
			c-0.1,0-0.2-0.1-0.3-0.1l-2.1,1.3l-2.2-2.2l1.3-2.1c0-0.1-0.1-0.2-0.1-0.3l-2.4-0.5v-3.1l2.4-0.5c0-0.1,0.1-0.2,0.1-0.3l-1.3-2.1
			l2.2-2.2l2.1,1.3C500,160.6,500.1,160.6,500.2,160.6L500.2,160.6z M502.3,163.3c1.5,0,2.7,1.2,2.7,2.7c0,1.5-1.2,2.7-2.7,2.7
			s-2.7-1.2-2.7-2.7C499.6,164.5,500.8,163.3,502.3,163.3z" style="fill-rule:evenodd;clip-rule:evenodd;fill:#FFFFFF;"/>
		<path d="M139.7,238.5V188c0-2.5,2-4.5,4.5-4.5c0.4,0,0.9,0,1.4,0c2.5,0,4.5,2,4.5,4.5v50.5H139.7z M146.2,188
			c0-0.4-0.3-0.7-0.7-0.7c-0.4,0-0.9,0-1.4,0c-0.4,0-0.7,0.3-0.7,0.7v33.1h2.8V188z" style="fill-rule:evenodd;clip-rule:evenodd;fill:#142664;"/>
		<path d="M120.8,226.7v-21.8c0-2.5,2-4.5,4.5-4.5c0.4,0,0.9,0,1.4,0c2.5,0,4.5,2,4.5,4.5v21.8L120.8,226.7L120.8,226.7
			z M127.3,214.5v-9.6c0-0.4-0.3-0.7-0.7-0.7c-0.4,0-0.9,0-1.4,0c-0.4,0-0.7,0.3-0.7,0.7v9.6C124.6,214.5,127.3,214.5,127.3,214.5z" style="fill-rule:evenodd;clip-rule:evenodd;fill:#142664;"/>
		<path d="M464.4,625.8c-44.6,0-80.9-36.2-80.9-80.9v-89.7h68.4v89.7c0,6.9,5.6,12.5,12.5,12.5h18.7
			c14.1,0,17.7-5.2,22.7-13.5l10-17.8c1-2,2.3-3.8,4-5.2l24.1-17.6c5.7-4.8,14.2-4.1,19.1,1.6c4.8,5.7,4.1,14.2-1.6,19.1l-18.2,17.6
			l-2.3,6c10.7,0.2,27.5,0.5,42.8,1.4c19.3,1.1,36,3,36,3c7.5,0,13.5,6.1,13.5,13.5c0,3.4-1.3,6.6-3.4,9c2.3,0.2,3.5,0.3,3.5,0.3
			c7.5,0,13.5,6.1,13.5,13.5c0,7.2-5.7,13.1-12.8,13.5c1.7,2.2,2.7,5,2.7,8.1c0,7.5-6.1,13.5-13.5,13.5c0,0-2.4,0.3-6.5,0.7
			c0.7,1.6,1,3.3,1,5.2c0,7.5-6.1,13.5-13.5,13.5c0,0-13.9,1.9-29.8,3c-15.9,1.1-26.6,1.4-34,1.4c-0.3,0-0.5,0-0.8,0
			c-0.6,0-1.3,0-1.9,0c-0.6,0-0.9,0-0.9,0c-1.1,0-2.3-0.1-3.3-0.3c-21.7-2.7-30.8-21.1-41.5-21.1H464.4L464.4,625.8z" style="fill-rule:evenodd;clip-rule:evenodd;fill:#FF2E93;"/>
		<path d="M630.2,573.8c0,0-7.3-0.2-17.2-0.3c-5.2-0.1-11.2-0.2-17.2-0.2c-3.5,0-7,0-10.3,0.1c-13.1,0.2-24,0.4-24,0.4
			c-0.8,0-1.4,0.6-1.4,1.4s0.6,1.4,1.4,1.4c0,0,10.9,0.3,24,0.4c3.3,0,6.8,0.1,10.3,0.1c6,0,11.9-0.1,17.2-0.2
			c9.9-0.1,17.2-0.3,17.2-0.3c0.8,0,1.4-0.6,1.4-1.4C631.6,574.4,631,573.8,630.2,573.8z" style="fill-rule:evenodd;clip-rule:evenodd;fill:#142664;"/>
		<path d="M634.1,600.4c0,0-7.8-0.2-18.3-0.3c-5.6-0.1-12-0.2-18.3-0.2c-3.7,0-7.4,0-11,0.1c-14,0.2-25.7,0.4-25.7,0.4
			c-0.8,0-1.4,0.6-1.4,1.4c0,0.8,0.6,1.4,1.4,1.4c0,0,11.7,0.3,25.7,0.4c3.6,0,7.3,0.1,11,0.1c6.4,0,12.7-0.1,18.3-0.2
			c10.5-0.1,18.3-0.3,18.3-0.3c0.8,0,1.4-0.6,1.4-1.4C635.6,601,634.9,600.4,634.1,600.4z" style="fill-rule:evenodd;clip-rule:evenodd;fill:#142664;"/>
		<path d="M616.5,622.1c0,0-5.9-0.2-13.9-0.3c-4.3-0.1-9.1-0.2-13.9-0.2c-2.8,0-5.7,0-8.4,0.1
			c-10.7,0.2-19.5,0.4-19.5,0.4c-0.8,0-1.4,0.6-1.4,1.4c0,0.8,0.6,1.4,1.4,1.4c0,0,8.9,0.3,19.5,0.4c2.7,0,5.5,0.1,8.4,0.1
			c4.8,0,9.7-0.1,13.9-0.2c8-0.1,13.9-0.3,13.9-0.3c0.8,0,1.4-0.6,1.4-1.4C617.9,622.8,617.3,622.1,616.5,622.1z" style="fill-rule:evenodd;clip-rule:evenodd;fill:#142664;"/>
		<path d="M438.6,471.4c0-1.1-0.9-1.9-1.9-1.9H323.6c-1.1,0-1.9,0.9-1.9,1.9v206.2c0,1.1,0.9,1.9,1.9,1.9h113.1
			c1.1,0,1.9-0.9,1.9-1.9V471.4L438.6,471.4z" style="fill-rule:evenodd;clip-rule:evenodd;fill:#142664;"/>
		<rect x="436.7" y="471.4" width="164.3" height="206.2" style="fill-rule:evenodd;clip-rule:evenodd;fill:#FFFFFF;"/>
		<path d="M602.9,471.4c0-1.1-0.9-1.9-1.9-1.9H436.7c-1.1,0-1.9,0.9-1.9,1.9v206.2c0,1.1,0.9,1.9,1.9,1.9H601
			c1.1,0,1.9-0.9,1.9-1.9V471.4L602.9,471.4z M438.6,473.4v202.4h160.5V473.4L438.6,473.4L438.6,473.4z" style="fill-rule:evenodd;clip-rule:evenodd;fill:#142664;"/>
		<rect x="325.6" y="510.3" width="108.7" height="24" style="fill-rule:evenodd;clip-rule:evenodd;fill:#00E6B3;"/>
		<path d="M587.5,600.1c0-3.4-2.8-6.2-6.2-6.2c-14.2,0-48.7,0-62.8,0c-3.4,0-6.2,2.8-6.2,6.2c0,13.3,0,44.2,0,57.5
			c0,3.4,2.8,6.2,6.2,6.2c14.2,0,48.7,0,62.8,0c3.4,0,6.2-2.8,6.2-6.2C587.5,644.4,587.5,613.4,587.5,600.1z" style="fill-rule:evenodd;clip-rule:evenodd;fill:#00E6B3;"/>
		<path d="M523.6,606.3h4.9c1.1,0,1.9-0.9,1.9-1.9c0-1.1-0.9-1.9-1.9-1.9h-4.9c-1.1,0-1.9,0.9-1.9,1.9
			C521.7,605.4,522.6,606.3,523.6,606.3z" style="fill-rule:evenodd;clip-rule:evenodd;fill:#142664;"/>
		<path d="M538.1,606.3h38.1c1.1,0,1.9-0.9,1.9-1.9c0-1.1-0.9-1.9-1.9-1.9h-38.1c-1.1,0-1.9,0.9-1.9,1.9
			C536.2,605.4,537,606.3,538.1,606.3z" style="fill-rule:evenodd;clip-rule:evenodd;fill:#142664;"/>
		<path d="M523.6,617.1h28.9c1.1,0,1.9-0.9,1.9-1.9c0-1.1-0.9-1.9-1.9-1.9h-28.9c-1.1,0-1.9,0.9-1.9,1.9
			C521.7,616.2,522.6,617.1,523.6,617.1z" style="fill-rule:evenodd;clip-rule:evenodd;fill:#142664;"/>
		<path d="M561.6,617.1h14.6c1.1,0,1.9-0.9,1.9-1.9c0-1.1-0.9-1.9-1.9-1.9h-14.6c-1.1,0-1.9,0.9-1.9,1.9
			C559.7,616.2,560.5,617.1,561.6,617.1z" style="fill-rule:evenodd;clip-rule:evenodd;fill:#142664;"/>
		<path d="M523.6,627.9h40.9c1.1,0,1.9-0.9,1.9-1.9s-0.9-1.9-1.9-1.9h-40.9c-1.1,0-1.9,0.9-1.9,1.9
			S522.6,627.9,523.6,627.9z" style="fill-rule:evenodd;clip-rule:evenodd;fill:#142664;"/>
		<rect x="438.8" y="510.3" width="160.3" height="24" style="fill-rule:evenodd;clip-rule:evenodd;fill:#00E6B3;"/>
		<path d="M523.6,639.3h52.5c1.1,0,1.9-0.9,1.9-1.9c0-1.1-0.9-1.9-1.9-1.9h-52.5c-1.1,0-1.9,0.9-1.9,1.9
			C521.7,638.4,522.6,639.3,523.6,639.3z" style="fill-rule:evenodd;clip-rule:evenodd;fill:#FFFFFF;"/>
		<path d="M378.5,361.5c2.4,0.1,4.7,0.6,6.9,1.4c0.5,0.2,1,0.4,1.5,0.6c0.4,0.2,0.8,0.4,1.3,0.6
			c0.7,0.3,1.4,0.6,2.1,0.8c2.5,0.8,5.2,1.2,7.9,1.1c2.5-0.1,5-0.5,7.3-1.4c0.5-0.2,1.1-0.4,1.6-0.7c0.4-0.2,0.8-0.4,1.3-0.6
			c0.7-0.3,1.5-0.6,2.3-0.9c2.8-0.9,5.9-1.2,8.9-1c2.2,0.2,4.3,0.7,6.4,1.4c0.5,0.2,0.9,0.4,1.4,0.6c0.4,0.2,0.8,0.4,1.2,0.6
			c0.7,0.3,1.4,0.6,2.1,0.8c2.6,0.9,5.3,1.2,8.1,1.2c2.2-0.1,4.4-0.5,6.5-1.1c0.7-0.2,1.4-0.5,2.1-0.8c0.4-0.2,0.8-0.4,1.2-0.6
			c0.5-0.2,1-0.4,1.5-0.6c2.2-0.8,4.5-1.3,6.9-1.4l0,0v80.4h-78.4L378.5,361.5L378.5,361.5L378.5,361.5z" style="fill-rule:evenodd;clip-rule:evenodd;fill:#00E6B3;"/>
		<path d="M456.9,441.9h-78.4v9.9c0,0.9,0.4,1.8,1,2.5c0.7,0.7,1.5,1,2.5,1c13,0,58.4,0,71.4,0c0.9,0,1.8-0.4,2.5-1
			c0.7-0.7,1-1.5,1-2.5C456.9,447.8,456.9,441.9,456.9,441.9z" style="fill-rule:evenodd;clip-rule:evenodd;fill:#142664;"/>
		<path d="M308.6,625.8c-44.6,0-80.9-36.2-80.9-80.9v-89.7h68.4v89.7c0,6.9,5.6,12.5,12.5,12.5h18.7
			c14.1,0,17.7-5.2,22.7-13.5l10-17.8c1-2,2.3-3.8,4-5.2l24.1-17.6c5.7-4.8,14.2-4.1,19.1,1.6c4.8,5.7,4.1,14.2-1.6,19.1l-18.2,17.6
			l-2.3,6c10.7,0.2,27.5,0.5,42.8,1.4c19.3,1.1,36,3,36,3c7.5,0,13.5,6.1,13.5,13.5c0,3.4-1.3,6.6-3.4,9c2.3,0.2,3.5,0.3,3.5,0.3
			c7.5,0,13.5,6.1,13.5,13.5c0,7.2-5.7,13.1-12.8,13.5c1.7,2.2,2.7,5,2.7,8.1c0,7.5-6.1,13.5-13.5,13.5c0,0-2.4,0.3-6.5,0.7
			c0.7,1.6,1,3.3,1,5.2c0,7.5-6.1,13.5-13.5,13.5c0,0-13.9,1.9-29.8,3c-15.9,1.1-26.6,1.4-34,1.4c-0.3,0-0.5,0-0.8,0
			c-0.6,0-1.3,0-1.9,0c-0.6,0-0.9,0-0.9,0c-1.1,0-2.3-0.1-3.3-0.3c-21.7-2.7-30.8-21.1-41.5-21.1H308.6L308.6,625.8z" style="fill-rule:evenodd;clip-rule:evenodd;fill:#FF2E93;"/>
		<path d="M222.8,361.5c2.4,0.1,4.7,0.6,6.9,1.4c0.5,0.2,1,0.4,1.5,0.6c0.4,0.2,0.8,0.4,1.3,0.6
			c0.7,0.3,1.4,0.6,2.1,0.8c2.5,0.8,5.2,1.2,7.9,1.1c2.5-0.1,5-0.5,7.3-1.4c0.5-0.2,1.1-0.4,1.6-0.7c0.4-0.2,0.8-0.4,1.3-0.6
			c0.7-0.3,1.5-0.6,2.3-0.9c2.8-0.9,5.9-1.2,8.9-1c2.2,0.2,4.3,0.7,6.4,1.4c0.5,0.2,0.9,0.4,1.4,0.6c0.4,0.2,0.8,0.4,1.2,0.6
			c0.7,0.3,1.4,0.6,2.1,0.8c2.6,0.9,5.3,1.2,8.1,1.2c2.2-0.1,4.4-0.5,6.5-1.1c0.7-0.2,1.4-0.5,2.1-0.8c0.4-0.2,0.8-0.4,1.2-0.6
			c0.5-0.2,1-0.4,1.5-0.6c2.2-0.8,4.5-1.3,6.9-1.4l0,0v80.4h-78.4L222.8,361.5L222.8,361.5L222.8,361.5z" style="fill-rule:evenodd;clip-rule:evenodd;fill:#00E6B3;"/>
		<path d="M210.5,362.5C210.5,362.5,210.5,362.4,210.5,362.5c3.3-1.9,7-3,11.1-3c4,0,7.8,1.1,11,2.9
			c2.7,1.5,5.8,2.4,9.1,2.4c3.3,0,6.4-0.9,9.1-2.4c3.3-1.9,7-2.9,11-2.9c4,0,7.8,1.1,11,2.9c2.7,1.5,5.8,2.4,9.1,2.4
			c3.3,0,6.4-0.9,9.1-2.4c3.3-1.9,7-2.9,11-2.9c4,0,7.8,1.1,11,2.9c0.9,0.5,1.2,1.7,0.7,2.6c-0.5,0.9-1.7,1.2-2.6,0.7
			c-2.7-1.5-5.8-2.4-9.1-2.4c-3.3,0-6.4,0.9-9.1,2.4c-3.3,1.9-7,2.9-11,2.9c-4,0-7.8-1.1-11-2.9c-2.7-1.5-5.8-2.4-9.1-2.4
			c-3.3,0-6.4,0.9-9.1,2.4c-3.3,1.9-7,2.9-11,2.9c-4,0-7.8-1.1-11-2.9c-2.7-1.5-5.8-2.4-9.1-2.4c-3.3,0-6.4,0.9-9.1,2.4
			c0,0,0,0-0.1,0c-1.5,0.8-2.7,0.4-3.2-0.4C208.7,364.5,209,363.3,210.5,362.5L210.5,362.5L210.5,362.5z" style="fill-rule:evenodd;clip-rule:evenodd;fill:#142664;"/>
		<path d="M301.1,441.9h-78.4v9.9c0,0.9,0.4,1.8,1,2.5c0.7,0.7,1.5,1,2.5,1c13,0,58.4,0,71.4,0c0.9,0,1.8-0.4,2.5-1
			c0.7-0.7,1-1.5,1-2.5C301.1,447.8,301.1,441.9,301.1,441.9z" style="fill-rule:evenodd;clip-rule:evenodd;fill:#142664;"/>
		<path d="M474,573.8c0,0-7.3-0.2-17.2-0.3c-5.2-0.1-11.2-0.2-17.2-0.2c-3.5,0-7,0-10.3,0.1
			c-13.1,0.2-24.1,0.4-24.1,0.4c-0.8,0-1.4,0.6-1.4,1.4s0.6,1.4,1.4,1.4c0,0,10.9,0.3,24.1,0.4c3.3,0,6.8,0.1,10.3,0.1
			c6,0,11.9-0.1,17.2-0.2c9.9-0.1,17.2-0.3,17.2-0.3c0.8,0,1.4-0.6,1.4-1.4C475.4,574.4,474.7,573.8,474,573.8z" style="fill-rule:evenodd;clip-rule:evenodd;fill:#142664;"/>
		<path d="M476.9,600.4c0,0-6.9-0.2-17.4-0.3c-5.6-0.1-12-0.2-18.3-0.2c-3.7,0-7.4,0-11,0.1c-14,0.2-25.7,0.4-25.7,0.4
			c-0.8,0-1.4,0.6-1.4,1.4c0,0.8,0.6,1.4,1.4,1.4c0,0,11.7,0.3,25.7,0.4c3.6,0,7.3,0.1,11,0.1c6.4,0,12.7-0.1,18.3-0.2
			c10.5-0.1,17.4-0.3,17.4-0.3c0.8,0,1.4-0.6,1.4-1.4C478.3,601,477.7,600.4,476.9,600.4z" style="fill-rule:evenodd;clip-rule:evenodd;fill:#142664;"/>
		<path d="M460.3,622.1c0,0-4.2-0.2-12.5-0.3c-4.4-0.1-9.4-0.2-14.4-0.2c-2.9,0-5.8,0-8.7,0.1
			c-11,0.2-20.2,0.4-20.2,0.4c-0.8,0-1.4,0.6-1.4,1.4c0,0.8,0.6,1.4,1.4,1.4c0,0,9.2,0.3,20.2,0.4c2.8,0,5.7,0.1,8.7,0.1
			c5,0,10-0.1,14.4-0.2c8.3-0.1,12.5-0.3,12.5-0.3c0.8,0,1.4-0.6,1.4-1.4C461.7,622.8,461,622.1,460.3,622.1L460.3,622.1z" style="fill-rule:evenodd;clip-rule:evenodd;fill:#142664;"/>
		<path d="M333.4,625.8c-0.7-0.5-1.4-1.1-2.1-1.6c-5.1-3.9-9.2-7.2-9.2-7.2c-0.6-0.5-0.8-1.3-0.3-2
			c0.5-0.6,1.3-0.8,2-0.3c0,0,4.4,2.9,9.7,6.5c1.3,0.9,2.7,1.9,4.1,2.9c1.7,1.2,3.4,2.5,5,3.7c-2.2-1.2-4.3-2-6.4-2L333.4,625.8
			L333.4,625.8z" style="fill-rule:evenodd;clip-rule:evenodd;fill:#142664;"/>
		<path d="M240,425.2c-1,0.2-1.9-0.2-2.5-1c-0.6-0.7-0.8-1.8-0.5-2.7c1.2-3.2,2.6-7.2,3.3-9c0.2-0.6,0.2-1.2,0-1.7
			c-0.7-2.2-2.6-8.2-4.1-12.8c-0.3-1,0-2.1,0.8-2.8c0.8-0.7,1.9-0.9,2.9-0.5c6.5,2.8,17.1,7.3,21,8.9c0.9,0.4,2,0.2,2.8-0.4
			c2-1.7,5.8-4.9,7.9-6.7c0.9-0.8,2.2-0.9,3.2-0.3c3.1,1.9,9.7,5.8,13.7,8.3c0.8,0.5,1.2,1.3,1.3,2.1c0.1,0.9-0.3,1.7-1,2.3
			c-3.9,3.1-10.3,8.4-12.2,10c-0.4,0.3-0.8,0.5-1.3,0.6C271.1,420.3,249.5,423.7,240,425.2L240,425.2z" style="fill-rule:evenodd;clip-rule:evenodd;fill:#FFFFFF;"/>
		<path d="M465.9,558.3c3.5,0,6.4,2.9,6.4,6.4c0,3.5-2.9,6.4-6.4,6.4s-5.1-2.9-5.1-6.4
			C460.8,561.2,462.3,558.3,465.9,558.3z" style="fill-rule:evenodd;clip-rule:evenodd;fill:#142664;"/>
		<path d="M389.2,505.5c3.1-1.8,7-0.7,8.8,2.4c1.8,3.1,0.7,7-2.4,8.8c-3.1,1.8-5.9,0.1-7.7-3
			C386.2,510.5,386.2,507.3,389.2,505.5L389.2,505.5z" style="fill-rule:evenodd;clip-rule:evenodd;fill:#142664;"/>
		<path d="M478.8,582c3.5,0,6.4,2.9,6.4,6.4s-2.9,6.4-6.4,6.4c-3.5,0-5.1-2.9-5.1-6.4S475.2,582,478.8,582z" style="fill-rule:evenodd;clip-rule:evenodd;fill:#142664;"/>
		<path d="M468.8,606.3c3.3,0,6,2.7,6,6c0,3.3-2.7,6-6,6c-3.3,0-4.8-2.7-4.8-6C464,609,465.5,606.3,468.8,606.3
			L468.8,606.3z" style="fill-rule:evenodd;clip-rule:evenodd;fill:#142664;"/>
		<path d="M450.2,628.4c2.9,0,5.3,2.4,5.3,5.3c0,2.9-2.4,5.3-5.3,5.3s-4.2-2.4-4.2-5.3
			C445.9,630.8,447.2,628.4,450.2,628.4z" style="fill-rule:evenodd;clip-rule:evenodd;fill:#142664;"/>
		<path d="M427.7,555.8c0,0-0.2,1.2-0.3,2.9c-0.1,0.9-0.2,1.9-0.2,2.9c0,0.6,0,1.2,0.1,1.8c0.2,2.3,0.4,4.1,0.4,4.1
			c0,0.8,0.6,1.4,1.4,1.4c0.8,0,1.4-0.6,1.4-1.4c0,0,0.3-1.8,0.4-4.1c0-0.6,0.1-1.2,0.1-1.8c0-1-0.1-2-0.2-2.9
			c-0.1-1.7-0.3-2.9-0.3-2.9c0-0.8-0.6-1.4-1.4-1.4C428.4,554.3,427.7,555,427.7,555.8L427.7,555.8z" style="fill-rule:evenodd;clip-rule:evenodd;fill:#142664;"/>
		<path d="M439.2,582.1c0,0-0.2,1.4-0.3,3.3c-0.1,1-0.2,2.1-0.2,3.3c0,0.7,0,1.3,0.1,2c0.2,2.5,0.4,4.6,0.4,4.6
			c0,0.8,0.6,1.4,1.4,1.4c0.8,0,1.4-0.6,1.4-1.4c0,0,0.3-2.1,0.4-4.6c0-0.6,0.1-1.3,0.1-2c0-1.1-0.1-2.3-0.2-3.3
			c-0.1-1.9-0.3-3.3-0.3-3.3c0-0.8-0.6-1.4-1.4-1.4C439.8,580.7,439.2,581.3,439.2,582.1z" style="fill-rule:evenodd;clip-rule:evenodd;fill:#142664;"/>
		<path d="M439.3,608.4c0,0-0.2,0.9-0.3,2.2c-0.1,0.7-0.2,1.4-0.2,2.2c0,0.4,0,0.9,0.1,1.3c0.2,1.7,0.4,3,0.4,3
			c0,0.8,0.6,1.4,1.4,1.4c0.8,0,1.4-0.6,1.4-1.4c0,0,0.3-1.3,0.4-3c0-0.4,0.1-0.9,0.1-1.3c0-0.8-0.1-1.5-0.2-2.2
			c-0.1-1.3-0.3-2.2-0.3-2.2c0-0.8-0.6-1.4-1.4-1.4C440,606.9,439.3,607.6,439.3,608.4z" style="fill-rule:evenodd;clip-rule:evenodd;fill:#142664;"/>
		<path d="M373.2,531.8c0,0-0.5-0.8-1.3-1.8c-0.4-0.5-0.9-1.1-1.4-1.6c-0.3-0.3-0.6-0.6-1-0.9c-1.3-1.1-2.4-1.8-2.4-1.8
			c-0.6-0.6-1.5-0.6-2,0c-0.6,0.6-0.6,1.5,0,2c0,0,0.8,1.1,1.8,2.4c0.3,0.3,0.5,0.7,0.9,1c0.5,0.5,1.1,1,1.6,1.4
			c1,0.8,1.8,1.3,1.8,1.3c0.6,0.6,1.5,0.6,2,0C373.7,533.3,373.7,532.4,373.2,531.8L373.2,531.8z" style="fill-rule:evenodd;clip-rule:evenodd;fill:#142664;"/>
		<path d="M431.2,610.4c0,0-0.2,0.4-0.3,1.1c-0.1,0.3-0.2,0.7-0.2,1.1c0,0.2,0,0.5,0.1,0.7c0.2,0.9,0.4,1.6,0.4,1.6
			c0,0.8,0.6,1.4,1.4,1.4c0.8,0,1.4-0.6,1.4-1.4c0,0,0.2-0.7,0.4-1.6c0-0.2,0.1-0.4,0.1-0.7c0-0.4-0.1-0.8-0.2-1.1
			c-0.2-0.7-0.3-1.1-0.3-1.1c0-0.8-0.6-1.4-1.4-1.4C431.8,609,431.2,609.7,431.2,610.4L431.2,610.4z" style="fill-rule:evenodd;clip-rule:evenodd;fill:#142664;"/>
		<path d="M377.4,524.6c0,0-0.2-0.4-0.6-1c-0.2-0.3-0.4-0.6-0.7-0.9c-0.2-0.2-0.3-0.3-0.5-0.4c-0.8-0.5-1.4-0.8-1.4-0.8
			c-0.6-0.6-1.5-0.6-2,0c-0.6,0.6-0.6,1.5,0,2c0,0,0.3,0.6,0.8,1.4c0.1,0.2,0.3,0.4,0.4,0.5c0.3,0.3,0.6,0.5,0.9,0.7
			c0.6,0.4,1,0.6,1,0.6c0.6,0.6,1.5,0.6,2,0C378,526.1,378,525.2,377.4,524.6L377.4,524.6z" style="fill-rule:evenodd;clip-rule:evenodd;fill:#142664;"/>
		<path d="M435.5,559.1c0,0-0.2,0.5-0.3,1.3c-0.1,0.4-0.2,0.8-0.2,1.3c0,0.3,0,0.5,0.1,0.8c0.2,1,0.4,1.8,0.4,1.8
			c0,0.8,0.6,1.4,1.4,1.4c0.8,0,1.4-0.6,1.4-1.4c0,0,0.3-0.8,0.4-1.8c0-0.2,0.1-0.5,0.1-0.8c0-0.4-0.1-0.9-0.2-1.3
			c-0.1-0.8-0.3-1.3-0.3-1.3c0-0.8-0.6-1.4-1.4-1.4C436.2,557.7,435.5,558.3,435.5,559.1z" style="fill-rule:evenodd;clip-rule:evenodd;fill:#142664;"/>
		<path d="M447,584c0,0-0.2,0.7-0.3,1.8c-0.1,0.5-0.2,1.1-0.2,1.8c0,0.4,0,0.7,0.1,1.1c0.2,1.4,0.4,2.5,0.4,2.5
			c0,0.8,0.6,1.4,1.4,1.4c0.8,0,1.4-0.6,1.4-1.4c0,0,0.3-1.1,0.4-2.5c0-0.3,0.1-0.7,0.1-1.1c0-0.6-0.1-1.2-0.2-1.8
			c-0.1-1-0.3-1.8-0.3-1.8c0-0.8-0.6-1.4-1.4-1.4C447.7,582.5,447,583.2,447,584L447,584z" style="fill-rule:evenodd;clip-rule:evenodd;fill:#142664;"/>
		<path d="M425.7,631.6c0,0-0.2,0.7-0.3,1.8c-0.1,0.5-0.2,1.1-0.2,1.8c0,0.4,0,0.7,0.1,1.1c0.2,1.4,0.4,2.5,0.4,2.5
			c0,0.8,0.6,1.4,1.4,1.4c0.8,0,1.4-0.6,1.4-1.4c0,0,0.3-1.1,0.4-2.5c0-0.3,0.1-0.7,0.1-1.1c0-0.6-0.1-1.2-0.2-1.8
			c-0.1-1-0.3-1.8-0.3-1.8c0-0.8-0.6-1.4-1.4-1.4C426.4,630.2,425.7,630.9,425.7,631.6z" style="fill-rule:evenodd;clip-rule:evenodd;fill:#142664;"/>
		<path d="M663.9,576c0,0,6,0.2,14,0.3c4.3,0.1,9.1,0.2,14,0.2c2.8,0,5.7,0,8.4-0.1c10.7-0.2,19.6-0.4,19.6-0.4
			c0.8,0,1.4-0.6,1.4-1.4c0-0.8-0.6-1.4-1.4-1.4c0,0-8.9-0.3-19.6-0.4c-2.7,0-5.6-0.1-8.4-0.1c-4.9,0-9.7,0.1-14,0.2
			c-8,0.1-14,0.3-14,0.3c-0.8,0-1.4,0.6-1.4,1.4C662.5,575.3,663.1,576,663.9,576z" style="fill-rule:evenodd;clip-rule:evenodd;fill:#00E6B3;"/>
		<path d="M161.9,573.1c0,0-6-0.2-14-0.3c-4.3-0.1-9.1-0.2-14-0.2c-2.8,0-5.7,0-8.4,0.1c-10.7,0.2-19.6,0.4-19.6,0.4
			c-0.8,0-1.4,0.6-1.4,1.4c0,0.8,0.6,1.4,1.4,1.4c0,0,8.9,0.3,19.6,0.4c2.7,0,5.6,0.1,8.4,0.1c4.9,0,9.7-0.1,14-0.2
			c8-0.1,14-0.3,14-0.3c0.8,0,1.4-0.6,1.4-1.4C163.3,573.8,162.7,573.1,161.9,573.1z" style="fill-rule:evenodd;clip-rule:evenodd;fill:#00E6B3;"/>
		<path d="M652.8,533.3c0,0,2-1.2,4.6-2.9c1.4-0.9,2.9-1.9,4.5-3c0.9-0.6,1.8-1.3,2.6-2c3.3-2.6,5.9-4.8,5.9-4.8
			c0.6-0.5,0.8-1.3,0.3-2s-1.3-0.8-2-0.3c0,0-2.9,1.8-6.4,4.1c-0.9,0.6-1.8,1.2-2.7,1.8c-1.5,1.1-3,2.3-4.3,3.3
			c-2.4,1.9-4.2,3.4-4.2,3.4c-0.6,0.5-0.8,1.3-0.3,2C651.3,533.6,652.2,533.8,652.8,533.3L652.8,533.3z" style="fill-rule:evenodd;clip-rule:evenodd;fill:#00E6B3;"/>
		<path d="M174.7,531c0,0-1.7-1.5-4.2-3.4c-1.3-1-2.8-2.2-4.3-3.3c-0.9-0.6-1.8-1.3-2.7-1.8c-3.4-2.3-6.4-4.1-6.4-4.1
			c-0.6-0.5-1.5-0.3-2,0.3c-0.5,0.6-0.3,1.5,0.3,2c0,0,2.6,2.2,5.9,4.8c0.8,0.6,1.7,1.3,2.6,2c1.5,1.1,3.1,2.1,4.5,3
			c2.6,1.7,4.6,2.9,4.6,2.9c0.6,0.5,1.5,0.3,2-0.3C175.5,532.4,175.3,531.5,174.7,531z" style="fill-rule:evenodd;clip-rule:evenodd;fill:#00E6B3;"/>
		<path d="M651.3,621.7c0,0,1.7,1,4.1,2.4c1.3,0.7,2.7,1.5,4.2,2.2c0.9,0.4,1.7,0.8,2.6,1.2c3.3,1.4,6.1,2.5,6.1,2.5
			c0.7,0.3,1.6,0.1,1.9-0.6c0.3-0.7,0.1-1.6-0.6-1.9c0,0-2.6-1.5-5.7-3.3c-0.8-0.4-1.6-0.9-2.5-1.3c-1.5-0.7-3-1.4-4.3-1.9
			c-2.5-1.1-4.4-1.8-4.4-1.8c-0.7-0.3-1.6-0.1-1.9,0.6C650.4,620.5,650.6,621.4,651.3,621.7L651.3,621.7z" style="fill-rule:evenodd;clip-rule:evenodd;fill:#00E6B3;"/>
		<path d="M173.2,619.2c0,0-1.9,0.7-4.4,1.8c-1.3,0.6-2.8,1.2-4.3,1.9c-0.9,0.4-1.7,0.9-2.5,1.3
			c-3.2,1.7-5.7,3.3-5.7,3.3c-0.7,0.3-1,1.2-0.6,1.9c0.3,0.7,1.2,1,1.9,0.6c0,0,2.8-1.1,6.1-2.5c0.8-0.4,1.7-0.7,2.6-1.2
			c1.5-0.7,2.9-1.5,4.2-2.2c2.4-1.3,4.1-2.4,4.1-2.4c0.7-0.3,1-1.2,0.6-1.9C174.8,619.1,173.9,618.8,173.2,619.2z" style="fill-rule:evenodd;clip-rule:evenodd;fill:#00E6B3;"/>
		<path d="M625,647.2c0,0,2.1,3.4,5,8c1.5,2.4,3.3,5.2,5.1,7.9c1.1,1.6,2.2,3.2,3.2,4.6c4.2,5.9,7.7,10.7,7.7,10.7
			c0.4,0.7,1.3,0.8,2,0.4c0.6-0.4,0.8-1.3,0.4-2c0,0-3.1-5.1-7-11.2c-1-1.5-2-3.2-3.1-4.7c-1.8-2.7-3.7-5.4-5.4-7.7
			c-3.1-4.4-5.5-7.6-5.5-7.6c-0.4-0.7-1.3-0.8-2-0.4C624.7,645.6,624.6,646.5,625,647.2L625,647.2z" style="fill-rule:evenodd;clip-rule:evenodd;fill:#00E6B3;"/>
		<path d="M198.5,645.6c0,0-2.4,3.2-5.5,7.6c-1.7,2.3-3.6,5-5.4,7.7c-1.1,1.6-2.1,3.2-3.1,4.7c-3.9,6.1-7,11.2-7,11.2
			c-0.4,0.6-0.3,1.5,0.4,2c0.7,0.4,1.5,0.3,2-0.4c0,0,3.5-4.8,7.7-10.7c1.1-1.5,2.2-3.1,3.2-4.6c1.8-2.7,3.6-5.5,5.1-7.9
			c2.9-4.6,5-8,5-8c0.4-0.6,0.3-1.5-0.4-2C199.8,644.8,198.9,644.9,198.5,645.6z" style="fill-rule:evenodd;clip-rule:evenodd;fill:#00E6B3;"/>
		<path d="M627.4,503.5c0,0,2.4-3.2,5.5-7.6c1.7-2.3,3.6-5,5.4-7.7c1.1-1.6,2.1-3.2,3.1-4.7c3.9-6.1,7-11.2,7-11.2
			c0.4-0.7,0.3-1.5-0.4-2c-0.6-0.4-1.5-0.3-2,0.4c0,0-3.5,4.8-7.7,10.7c-1.1,1.5-2.2,3.1-3.2,4.6c-1.8,2.7-3.6,5.5-5.1,7.9
			c-2.9,4.6-5,8-5,8c-0.4,0.6-0.3,1.5,0.4,2C626,504.3,626.9,504.2,627.4,503.5L627.4,503.5z" style="fill-rule:evenodd;clip-rule:evenodd;fill:#00E6B3;"/>
		<path d="M200.8,501.9c0,0-2.1-3.4-5-8c-1.5-2.4-3.3-5.2-5.1-7.9c-1.1-1.6-2.2-3.2-3.2-4.6c-4.2-5.9-7.7-10.7-7.7-10.7
			c-0.4-0.7-1.3-0.8-2-0.4c-0.6,0.4-0.8,1.3-0.4,2c0,0,3.1,5.1,7,11.2c1,1.5,2,3.2,3.1,4.7c1.8,2.7,3.7,5.4,5.4,7.7
			c3.1,4.4,5.5,7.6,5.5,7.6c0.4,0.6,1.3,0.8,2,0.4C201.1,503.5,201.3,502.6,200.8,501.9L200.8,501.9z" style="fill-rule:evenodd;clip-rule:evenodd;fill:#00E6B3;"/>
		<g>
			<path d="M526.8,646.2c0-0.5-0.4-0.8-0.8-0.8c-0.9,0-2.4,0-3.3,0c-0.5,0-0.8,0.4-0.8,0.8c0,2.2,0,8.2,0,10.4
				c0,0.5,0.4,0.8,0.8,0.8c0.9,0,2.4,0,3.3,0c0.5,0,0.8-0.4,0.8-0.8C526.8,654.4,526.8,648.4,526.8,646.2z" style="fill-rule:evenodd;clip-rule:evenodd;fill:#142664;"/>
			<path d="M531.8,646.2c0-0.5-0.4-0.8-0.8-0.8c-0.4,0-0.8,0-1.2,0c-0.5,0-0.8,0.4-0.8,0.8c0,2.2,0,8.2,0,10.4
				c0,0.5,0.4,0.8,0.8,0.8c0.4,0,0.8,0,1.2,0c0.5,0,0.8-0.4,0.8-0.8C531.8,654.4,531.8,648.4,531.8,646.2z" style="fill-rule:evenodd;clip-rule:evenodd;fill:#142664;"/>
			<path d="M569.9,646.2c0-0.5-0.4-0.8-0.8-0.8c-0.4,0-0.8,0-1.2,0c-0.5,0-0.8,0.4-0.8,0.8c0,2.2,0,8.2,0,10.4
				c0,0.5,0.4,0.8,0.8,0.8c0.4,0,0.8,0,1.2,0c0.5,0,0.8-0.4,0.8-0.8C569.9,654.4,569.9,648.4,569.9,646.2z" style="fill-rule:evenodd;clip-rule:evenodd;fill:#142664;"/>
			<path d="M577.9,646.2c0-0.5-0.4-0.8-0.8-0.8c-1.1,0-3,0-4.1,0c-0.5,0-0.8,0.4-0.8,0.8c0,2.2,0,8.2,0,10.4
				c0,0.5,0.4,0.8,0.8,0.8c1.1,0,3,0,4.1,0c0.5,0,0.8-0.4,0.8-0.8C577.9,654.4,577.9,648.4,577.9,646.2z" style="fill-rule:evenodd;clip-rule:evenodd;fill:#142664;"/>
			<path d="M548.6,646.2c0-0.2-0.1-0.4-0.2-0.6c-0.2-0.2-0.4-0.2-0.6-0.2c-0.9,0-2.3,0-3.2,0c-0.2,0-0.4,0.1-0.6,0.2
				c-0.2,0.2-0.2,0.4-0.2,0.6c0,2.2,0,8.2,0,10.4c0,0.2,0.1,0.4,0.2,0.6c0.2,0.2,0.4,0.2,0.6,0.2c0.9,0,2.3,0,3.2,0
				c0.2,0,0.4-0.1,0.6-0.2c0.2-0.2,0.2-0.4,0.2-0.6C548.6,654.4,548.6,648.4,548.6,646.2z" style="fill-rule:evenodd;clip-rule:evenodd;fill:#142664;"/>
			<path d="M541.6,646.2c0-0.2-0.1-0.4-0.2-0.6c-0.2-0.2-0.4-0.2-0.6-0.2c-1.4,0-4.4,0-5.9,0c-0.2,0-0.4,0.1-0.6,0.2
				c-0.2,0.2-0.2,0.4-0.2,0.6c0,2.2,0,8.2,0,10.4c0,0.2,0.1,0.4,0.2,0.6c0.2,0.2,0.4,0.2,0.6,0.2c1.4,0,4.4,0,5.9,0
				c0.2,0,0.4-0.1,0.6-0.2c0.2-0.2,0.2-0.4,0.2-0.6C541.6,654.4,541.6,648.4,541.6,646.2z" style="fill-rule:evenodd;clip-rule:evenodd;fill:#142664;"/>
			<path d="M564.9,646.2c0-0.5-0.4-0.8-0.8-0.8c-2.5,0-9.8,0-12.3,0c-0.5,0-0.8,0.4-0.8,0.8c0,2.2,0,8.2,0,10.4
				c0,0.5,0.4,0.8,0.8,0.8c2.5,0,9.8,0,12.3,0c0.5,0,0.8-0.4,0.8-0.8C564.9,654.4,564.9,648.4,564.9,646.2z" style="fill-rule:evenodd;clip-rule:evenodd;fill:#142664;"/>
		</g>
		<g>
			<path d="M478.4,638.6c0-0.2-0.1-0.4-0.2-0.6c-0.2-0.2-0.4-0.2-0.6-0.2c-0.7,0-1.6,0-2.4,0c-0.3,0-0.6-0.2-0.7-0.5
				c-0.1-0.3-0.1-0.6,0.1-0.9c1.5-2,4.4-5.9,5.7-7.7c0.2-0.2,0.4-0.3,0.7-0.3c0.3,0,0.5,0.1,0.7,0.3c1.3,1.7,4.2,5.6,5.7,7.7
				c0.2,0.3,0.2,0.6,0.1,0.9c-0.1,0.3-0.4,0.5-0.7,0.5c-0.8,0-1.8,0-2.4,0c-0.2,0-0.4,0.1-0.6,0.2c-0.2,0.2-0.2,0.4-0.2,0.6
				c0,3.1,0,13.7,0,16.8c0,0.2-0.1,0.4-0.2,0.6c-0.2,0.2-0.4,0.2-0.6,0.2c-0.9,0-2.4,0-3.3,0c-0.2,0-0.4-0.1-0.6-0.2
				c-0.2-0.2-0.2-0.4-0.2-0.6C478.4,652.4,478.4,641.7,478.4,638.6L478.4,638.6z" style="fill-rule:evenodd;clip-rule:evenodd;fill:#142664;"/>
			<path d="M494.7,638.6c0-0.2-0.1-0.4-0.2-0.6c-0.2-0.2-0.4-0.2-0.6-0.2c-0.7,0-1.6,0-2.4,0c-0.3,0-0.6-0.2-0.7-0.5
				c-0.1-0.3-0.1-0.6,0.1-0.9c1.5-2,4.4-5.9,5.7-7.7c0.2-0.2,0.4-0.3,0.7-0.3c0.3,0,0.5,0.1,0.7,0.3c1.3,1.7,4.2,5.6,5.7,7.7
				c0.2,0.3,0.2,0.6,0.1,0.9c-0.1,0.3-0.4,0.5-0.7,0.5c-0.8,0-1.8,0-2.4,0c-0.2,0-0.4,0.1-0.6,0.2c-0.2,0.2-0.2,0.4-0.2,0.6
				c0,3.1,0,13.7,0,16.8c0,0.2-0.1,0.4-0.2,0.6c-0.2,0.2-0.4,0.2-0.6,0.2c-0.9,0-2.4,0-3.3,0c-0.2,0-0.4-0.1-0.6-0.2
				c-0.2-0.2-0.2-0.4-0.2-0.6C494.7,652.4,494.7,641.7,494.7,638.6L494.7,638.6z" style="fill-rule:evenodd;clip-rule:evenodd;fill:#142664;"/>
		</g>
		<path d="M502,660H476c-1.1,0-1.9,0.9-1.9,1.9s0.9,1.9,1.9,1.9H502c1.1,0,1.9-0.9,1.9-1.9S503,660,502,660z" style="fill-rule:evenodd;clip-rule:evenodd;fill:#142664;"/>
		<path d="M366.3,362.5C366.3,362.5,366.3,362.4,366.3,362.5c3.3-1.9,7-3,11.1-3c4,0,7.8,1.1,11,2.9
			c2.7,1.5,5.8,2.4,9.1,2.4c3.3,0,6.4-0.9,9.1-2.4c3.3-1.9,7-2.9,11-2.9c4,0,7.8,1.1,11,2.9c2.7,1.5,5.8,2.4,9.1,2.4
			c3.3,0,6.4-0.9,9.1-2.4c3.3-1.9,7-2.9,11-2.9c4,0,7.8,1.1,11,2.9c0.9,0.5,1.2,1.7,0.7,2.6c-0.5,0.9-1.7,1.2-2.6,0.7
			c-2.7-1.5-5.8-2.4-9.1-2.4c-3.3,0-6.4,0.9-9.1,2.4c-3.3,1.9-7,2.9-11,2.9c-4,0-7.8-1.1-11-2.9c-2.7-1.5-5.8-2.4-9.1-2.4
			c-3.3,0-6.4,0.9-9.1,2.4c-3.3,1.9-7,2.9-11,2.9c-4,0-7.8-1.1-11-2.9c-2.7-1.5-5.8-2.4-9.1-2.4c-3.3,0-6.4,0.9-9.1,2.4
			c0,0,0,0-0.1,0c-1.5,0.8-2.7,0.4-3.2-0.4C364.5,364.5,364.7,363.3,366.3,362.5L366.3,362.5L366.3,362.5z" style="fill-rule:evenodd;clip-rule:evenodd;fill:#142664;"/>
	</g>
</g>
</svg>