<?xml version="1.0" encoding="UTF-8"?><svg version="1.1" id="Layer_1" xmlns:serif="http://www.serif.com/" xmlns="http://www.w3.org/2000/svg" xmlns:xlink="http://www.w3.org/1999/xlink" x="0px" y="0px" viewBox="0 0 800 768" style="enable-background:new 0 0 800 768;" xml:space="preserve" width="800px" height="768px">

<rect id="comingsoon-spaceinvasion" x="16" width="767.1" height="767.1" style="fill:none;"/>
<g id="Calque3">
	<g>
		<path d="M551.4,665.7c0,0,8.3-1.5,12.8-2.8c3.4-1,5.8-4.1,5.8-7.7V620c0-3.6-2.4-6.7-5.8-7.7
			c-4.5-1.3-12.8-2.8-12.8-2.8V665.7L551.4,665.7z" style="fill-rule:evenodd;clip-rule:evenodd;fill:#FFFFFF;"/>
		<path d="M568.1,485.3v58.6c0,0-22.7,13.1-32.1,18.5c-0.8,0.5-1.8,0.5-2.7,0c-0.8-0.5-1.3-1.4-1.3-2.3
			c0-12.2,0-45,0-52.5c0-1,0.5-1.8,1.3-2.3C539.8,501.6,568.1,485.3,568.1,485.3L568.1,485.3z" style="fill-rule:evenodd;clip-rule:evenodd;fill:#00E6B3;"/>
		<circle cx="546" cy="509.6" r="2.5" style="fill-rule:evenodd;clip-rule:evenodd;fill:#FFFFFF;"/>
		<circle cx="541.8" cy="544.6" r="3.6" style="fill-rule:evenodd;clip-rule:evenodd;fill:#FFFFFF;"/>
		<circle cx="551.6" cy="549.9" r="2.5" style="fill-rule:evenodd;clip-rule:evenodd;fill:#FFFFFF;"/>
		<circle cx="562.6" cy="530.2" r="2.5" style="fill-rule:evenodd;clip-rule:evenodd;fill:#FFFFFF;"/>
		<circle cx="557.9" cy="513.2" r="5.6" style="fill-rule:evenodd;clip-rule:evenodd;fill:#FFFFFF;"/>
		<path d="M435.4,304.5c0-47.8-38.8-86.6-86.6-86.6H264c-47.8,0-86.6,38.8-86.6,86.6v269.2h258V304.5z" style="fill-rule:evenodd;clip-rule:evenodd;fill:#FFFFFF;"/>
		<path d="M331.2,221.6l9-2c11.1-2.5,22.5-2.4,33.6,0.1c12.8,3,31.4,7.2,49.5,11.4c34.6,8,59.1,38.7,59.1,74.2v270.6
			h-50.7V305.3c0-35.5-24.5-66.3-59.1-74.2L331.2,221.6L331.2,221.6z" style="fill-rule:evenodd;clip-rule:evenodd;fill:#00E6B3;"/>
		<path d="M623,459.2c-16.5-0.4-28.5-6.2-36.6-14.2c-9.1-8.9-13.9-21.2-13.9-35.3c0-16.6-0.3-104.6-0.3-127.1
			c0-11.6-8.1-23.5-19.7-23.5h-74.3v-40.3h74.3c33.3,0,60,30.5,60,63.7c0,22.4,0.3,110.4,0.3,127.1c0,2.5,0.3,5,1.9,6.6
			c2.2,2.2,5.8,2.7,10.3,2.7c7.8,0,19.3,4.3,28.4,12.9c8.6,8.2,14.7,19.8,14.7,31.6c0,12.9-0.2,86.5-0.2,100.3
			c0,22.4-10.9,46.3-28.8,64.3c-17.7,17.8-42,29.8-67.6,29.8v-40.3c14.9,0,28.8-7.5,39.1-17.9c10.1-10.2,17.1-23.3,17.1-35.9
			c0-13.7,0.2-85.8,0.2-99.9c-0.2-0.3-0.7-1.3-1.1-1.8C625.7,461,623.8,459.7,623,459.2L623,459.2z" style="fill-rule:evenodd;clip-rule:evenodd;fill:#FF2E93;"/>
		<path d="M574.9,617.4c-1.2,0.1-2.4,0.1-3.6,0.1v40.3c2.3,0,4.6-0.1,6.9-0.3L574.9,617.4L574.9,617.4z M611.3,598.7
			c-3.5,3.7-7.5,7.1-11.9,9.9l21.9,33.8c6.9-4.5,13.3-9.9,19-15.8L611.3,598.7z M627.5,562.1c0,0.6,0,1.1,0,1.6c0,4-0.7,8-2,12
			l38.3,12.5c2.6-8.1,4-16.3,4-24.4c0-0.5,0-1,0-1.6L627.5,562.1z M627.6,505.7c0,6.7,0,13.5-0.1,20.1l40.3,0.1
			c0-6.6,0-13.5,0.1-20.1L627.6,505.7L627.6,505.7z M627.7,463.9c-0.1-0.3-0.5-1-0.8-1.3l32.3-24.1c5.5,7.3,8.8,16.1,8.8,25
			c0,1.4,0,3.5,0,6.1l-40.3-0.1L627.7,463.9L627.7,463.9z M578,433.7c5.2,10,13.9,18,26.4,22.3l13.1-38.1c-1.7-0.6-3.1-1.5-3.8-2.9
			L578,433.7L578,433.7z M572.3,368.6c0,7.3,0,14.1,0.1,20.1l40.3-0.1c0-6,0-12.9-0.1-20.1L572.3,368.6z M572.2,312.2
			c0,6.3,0,13.1,0.1,20.1l40.3-0.1c0-7,0-13.8-0.1-20.1L572.2,312.2z M567.8,268.5c2.1,3.1,3.5,6.7,4.1,10.5l39.8-6.1
			c-1.5-9.6-5.1-18.8-10.4-26.7L567.8,268.5L567.8,268.5z M534.5,259.2h17.9c0.3,0,0.7,0,1,0l2.5-40.2c-1.2-0.1-2.3-0.1-3.5-0.1
			h-17.9V259.2L534.5,259.2z M478.1,259.2h20.1v-40.3h-20.1V259.2z" style="fill-rule:evenodd;clip-rule:evenodd;fill:#142664;"/>
		<path d="M528.5,291.5c-0.2-1.6-1.6-2.8-3.3-2.8h-3.5c-1.7,0-3,1.2-3.3,2.8c-0.5,3.7-1.4,9.8-1.4,9.8h12.8
			C529.8,301.3,529,295.2,528.5,291.5L528.5,291.5z" style="fill-rule:evenodd;clip-rule:evenodd;fill:#142664;"/>
		<path d="M494.5,238.3c0,0,8.4,0,14.4,0c3.2,0,5.8,2.6,5.8,5.8c0,0.4,0,0.8,0,1.1c0,2.8-2,5.1-4.6,5.7
			c2.6,0.6,4.6,2.9,4.6,5.7c0,0.4,0,0.8,0,1.1c0,2.8-2,5.1-4.6,5.7c2.6,0.6,4.6,2.9,4.6,5.7c0,0.4,0,0.8,0,1.1c0,2.8-2,5.1-4.6,5.7
			c2.6,0.6,4.6,2.9,4.6,5.7c0,0.4,0,0.8,0,1.1c0,2.8-2,5.1-4.6,5.7c2.6,0.6,4.6,2.9,4.6,5.7c0,0.4,0,0.8,0,1.1
			c0,3.2-2.6,5.8-5.8,5.8h-14.4L494.5,238.3L494.5,238.3z" style="fill-rule:evenodd;clip-rule:evenodd;fill:#00E6B3;"/>
		<path d="M334.1,154.1c0-20.7,16.8-37.5,37.5-37.5c20.7,0,37.5,16.8,37.5,37.5v23.6c0,11.1,9,20.1,20.1,20.1
			c11.1,0,20.1-9,20.1-20.1v-23.6c0-42.9-34.8-77.8-77.8-77.8s-77.8,34.8-77.8,77.8c0,11.1,9,20.1,20.1,20.1
			C325,174.3,334.1,165.2,334.1,154.1z" style="fill-rule:evenodd;clip-rule:evenodd;fill:#FF2E93;"/>
		<path d="M334.1,154.1c0-4.5,0.8-8.8,2.3-12.8l-37.8-13.8c-3,8.3-4.7,17.3-4.7,26.6H334.1z M405.9,139
			c1.7,3.9,2.8,8.2,3.1,12.6l40.2-2.7c-0.6-9.3-2.9-18.2-6.5-26.3L405.9,139z M348.5,124.6c3.4-2.7,7.3-4.8,11.5-6.1l-12.4-38.3
			c-8.7,2.8-16.8,7.2-23.9,12.7L348.5,124.6z M380.7,117.8c4.3,1.1,8.3,2.9,11.9,5.3l22.6-33.3c-7.4-5-15.8-8.8-24.7-11.1
			L380.7,117.8z" style="fill-rule:evenodd;clip-rule:evenodd;fill:#142664;"/>
		<path d="M354.7,151.4c0-6.8,5.5-12.3,12.3-12.3s12.3,5.5,12.3,12.3v14.7c0,3.2,2.6,5.8,5.8,5.8c3.2,0,5.8-2.6,5.8-5.8
			v-14.7c0-13.2-10.7-23.9-23.9-23.9s-23.9,10.7-23.9,23.9c0,3.2,2.6,5.8,5.8,5.8C352.1,157.1,354.7,154.6,354.7,151.4z" style="fill-rule:evenodd;clip-rule:evenodd;fill:#142664;"/>
		<path d="M362.3,163.5c0,0-1.9-7.4-3.2-12.6c-0.7-3-3.4-5.1-6.5-5.1c-12.5,0-44.1,0-56.6,0c-3.1,0-5.8,2.1-6.5,5.1
			c-1.3,5.2-3.2,12.6-3.2,12.6H362.3L362.3,163.5z" style="fill-rule:evenodd;clip-rule:evenodd;fill:#FFFFFF;"/>
		<path d="M252.8,199.9c0,0-1.9-12.6-3-20.3c-0.5-3.3-3.3-5.7-6.6-5.7c-1.7,0-3.6,0-5.3,0c-3.3,0-6.2,2.4-6.6,5.7
			c-1.1,7.7-3,20.3-3,20.3L252.8,199.9L252.8,199.9z" style="fill-rule:evenodd;clip-rule:evenodd;fill:#FF2E93;"/>
		<path d="M244.1,196.2c0,0-0.6-8.2-0.9-12.4c-0.1-1.4-1.2-2.4-2.6-2.4h0c-1.4,0-2.5,1.1-2.6,2.4
			c-0.3,4.2-0.9,12.4-0.9,12.4H244.1z" style="fill-rule:evenodd;clip-rule:evenodd;fill:#142664;"/>
		<path d="M242,168.2c0,0,0.2-1.7,0.3-4c0.1-1.2,0.2-2.6,0.2-4c0-0.8,0-1.6-0.1-2.4c-0.2-3.1-0.4-5.6-0.4-5.6
			c0-0.8-0.6-1.4-1.4-1.4c-0.8,0-1.4,0.6-1.4,1.4c0,0-0.3,2.5-0.4,5.6c0,0.8-0.1,1.6-0.1,2.4c0,1.4,0.1,2.8,0.2,4
			c0.1,2.3,0.3,4,0.3,4c0,0.8,0.6,1.4,1.4,1.4S242,169,242,168.2z" style="fill-rule:evenodd;clip-rule:evenodd;fill:#FF2E93;"/>
		<path d="M226.2,176.8c0,0-1.4-1-3.3-2.3c-1-0.7-2.2-1.4-3.4-2.1c-0.7-0.4-1.4-0.8-2.1-1.1c-2.7-1.4-5.1-2.4-5.1-2.4
			c-0.7-0.4-1.5-0.2-1.9,0.5c-0.4,0.7-0.2,1.5,0.5,1.9c0,0,2.1,1.5,4.6,3.2c0.7,0.4,1.3,0.9,2,1.3c1.2,0.7,2.4,1.3,3.5,1.9
			c2.1,1,3.6,1.7,3.6,1.7c0.7,0.4,1.5,0.2,1.9-0.5C227.1,178,226.9,177.2,226.2,176.8z" style="fill-rule:evenodd;clip-rule:evenodd;fill:#FF2E93;"/>
		<path d="M252,169c0,0,0.6-0.6,1.3-1.6c0.4-0.5,0.8-1,1.1-1.6c0.2-0.3,0.4-0.7,0.5-1.1c0.6-1.4,1-2.6,1-2.6
			c0.4-0.7,0.2-1.5-0.5-1.9c-0.7-0.4-1.5-0.2-1.9,0.5c0,0-0.8,0.9-1.8,2.2c-0.2,0.3-0.5,0.6-0.7,1c-0.3,0.6-0.6,1.2-0.9,1.8
			c-0.5,1.1-0.7,1.9-0.7,1.9c-0.4,0.7-0.2,1.5,0.5,1.9C250.7,169.9,251.6,169.6,252,169L252,169z" style="fill-rule:evenodd;clip-rule:evenodd;fill:#FF2E93;"/>
		<path d="M231.7,167.5c0,0-0.3-0.8-0.7-1.9c-0.2-0.6-0.5-1.2-0.9-1.8c-0.2-0.4-0.4-0.7-0.7-1c-0.9-1.3-1.8-2.2-1.8-2.2
			c-0.4-0.7-1.3-0.9-1.9-0.5c-0.7,0.4-0.9,1.3-0.5,1.9c0,0,0.4,1.2,1,2.6c0.2,0.4,0.3,0.7,0.5,1.1c0.4,0.6,0.8,1.2,1.1,1.6
			c0.7,0.9,1.3,1.6,1.3,1.6c0.4,0.7,1.3,0.9,1.9,0.5C231.8,169.1,232.1,168.2,231.7,167.5L231.7,167.5z" style="fill-rule:evenodd;clip-rule:evenodd;fill:#FF2E93;"/>
		<path d="M222.5,186.5c0,0-0.8-0.2-2-0.3c-0.6-0.1-1.3-0.2-2-0.2c-0.4,0-0.8,0-1.2,0.1c-1.6,0.2-2.8,0.4-2.8,0.4
			c-0.8,0-1.4,0.6-1.4,1.4c0,0.8,0.6,1.4,1.4,1.4c0,0,1.2,0.3,2.8,0.4c0.4,0,0.8,0.1,1.2,0.1c0.7,0,1.4-0.1,2-0.2
			c1.2-0.1,2-0.3,2-0.3c0.8,0,1.4-0.6,1.4-1.4S223.3,186.5,222.5,186.5z" style="fill-rule:evenodd;clip-rule:evenodd;fill:#FF2E93;"/>
		<path d="M494.5,321.9h0.1c38,0,61.7,7.2,61.7,37v120.2h-61.8V321.9L494.5,321.9z" style="fill-rule:evenodd;clip-rule:evenodd;fill:#00E6B3;"/>
		<path d="M329,238.3c0,0,9.8-26.7,13.7-37.6c1-2.7,3.6-4.5,6.5-4.5h17.3c2.9,0,5.5-1.8,6.5-4.5l1.3-3.5l-8.1-22.1
			c-1-2.7-3.6-4.5-6.5-4.5H464c2.9,0,5.5,1.8,6.5,4.5c2.4,6.6,6.9,19,9.4,25.6c1,2.7,3.6,4.5,6.5,4.5h17.3c2.9,0,5.5,1.8,6.5,4.5
			c2.5,6.9,7.3,20.1,10.6,28.9c0.7,2,0.4,4.2-0.8,5.9c-1.2,1.7-3.2,2.8-5.3,2.8c-8.6,0-20.1,0-20.1,0v233.3c0,2,0.8,3.9,2.2,5.3
			s3.3,2.2,5.3,2.2c16.8,0,56.7,0,67.2,0c1.4,0,2.6,1.1,2.6,2.6c0,1.3,0,2.8,0,3.9c0,0.9-0.5,1.8-1.3,2.2
			c-5.7,3.3-28.4,16.4-34.1,19.7c-0.8,0.5-1.3,1.3-1.3,2.2c0,3,0,9.7,0,14.3c0,0.9,0.5,1.8,1.3,2.2s1.8,0.5,2.6,0
			c7-4.1,21.9-12.6,28.9-16.7c0.8-0.5,1.8-0.5,2.6,0c0.8,0.5,1.3,1.3,1.3,2.2c0,1.9,0,4,0,5.4c0,0.9-0.5,1.8-1.3,2.2
			c-5.7,3.3-28.4,16.4-34.1,19.7c-0.8,0.5-1.3,1.3-1.3,2.2c0,3,0,9.7,0,14.3c0,0.9,0.5,1.8,1.3,2.2s1.8,0.5,2.6,0
			c7-4.1,21.9-12.6,28.9-16.7c0.8-0.5,1.8-0.5,2.6,0s1.3,1.3,1.3,2.2v22l-31.5,18.2l1.5,2.5h-92.3V303.5c0-24.9-11.6-47.7-30.8-65.2
			L329,238.3L329,238.3z" style="fill-rule:evenodd;clip-rule:evenodd;fill:#142664;"/>
		<path d="M553.3,608.9c0-4.9-4-8.9-8.9-8.9c-27.2,0-107.4,0-107.4,0v72.7h107.4c4.9,0,8.9-4,8.9-8.9
			C553.3,649.9,553.3,622.9,553.3,608.9z" style="fill-rule:evenodd;clip-rule:evenodd;fill:#142664;"/>
		<path d="M466.6,607c0.6-1.6,0.3-3.4-0.6-4.8c-1-1.4-2.6-2.2-4.3-2.2c-43.4,0-263.6,0-294.7,0c-2.2,0-4.2,1.4-4.9,3.4
			c-4.1,11.2-17.2,47-22.8,62.2c-0.6,1.6-0.4,3.4,0.6,4.8c1,1.4,2.6,2.2,4.3,2.2h295.2c2.2,0,4.2-1.4,4.9-3.5
			C448.3,658,461.1,622.3,466.6,607z" style="fill-rule:evenodd;clip-rule:evenodd;fill:#00E6B3;"/>
		<circle cx="387.2" cy="633" r="2.9" style="fill-rule:evenodd;clip-rule:evenodd;fill:#142664;"/>
		<path d="M370.6,290.6l42.1,255.5H202.4l42.1-255.5H370.6L370.6,290.6z" style="fill-rule:evenodd;clip-rule:evenodd;fill:#00E6B3;"/>
		<path d="M251.1,361.3c0.1-0.3,0.2-0.5,0.2-0.5c0-0.8,0.6-1.4,1.4-1.4c0.8,0,1.4,0.6,1.4,1.4c0,0,0.1,0.2,0.2,0.5
			c0.3,0.1,0.5,0.2,0.5,0.2c0.8,0,1.4,0.6,1.4,1.4c0,0.8-0.6,1.4-1.4,1.4c0,0-0.2,0.1-0.5,0.2c-0.1,0.3-0.2,0.5-0.2,0.5
			c0,0.8-0.6,1.4-1.4,1.4c-0.8,0-1.4-0.6-1.4-1.4c0,0-0.1-0.2-0.2-0.5c-0.3-0.1-0.5-0.2-0.5-0.2c-0.8,0-1.4-0.6-1.4-1.4
			c0-0.8,0.6-1.4,1.4-1.4C250.6,361.5,250.8,361.4,251.1,361.3L251.1,361.3z M334.1,344.6L334.1,344.6c0.2-2.5,0.4-4.4,0.4-4.4
			c0-0.8,0.6-1.4,1.4-1.4c0.8,0,1.4,0.6,1.4,1.4c0,0,0.3,2,0.4,4.4l0,0c0.5,0,0.9,0.1,1.3,0.1c1.8,0.1,3.1,0.3,3.1,0.3
			c0.8,0,1.4,0.6,1.4,1.4c0,0.8-0.6,1.4-1.4,1.4c0,0-1.3,0.2-3.1,0.3c-0.4,0-0.8,0.1-1.3,0.1c0,0.5-0.1,0.9-0.1,1.3
			c-0.1,1.8-0.3,3.1-0.3,3.1c0,0.8-0.6,1.4-1.4,1.4c-0.8,0-1.4-0.6-1.4-1.4c0,0-0.2-1.3-0.3-3.1c0-0.4-0.1-0.9-0.1-1.3l0,0
			c-2.4-0.2-4.4-0.4-4.4-0.4c-0.8,0-1.4-0.6-1.4-1.4c0-0.8,0.6-1.4,1.4-1.4C329.7,345,331.6,344.7,334.1,344.6L334.1,344.6
			L334.1,344.6z M357.4,330.8c0.1-0.3,0.2-0.5,0.2-0.5c0-0.8,0.6-1.4,1.4-1.4c0.8,0,1.4,0.6,1.4,1.4c0,0,0.1,0.2,0.2,0.5
			c0.3,0.1,0.5,0.2,0.5,0.2c0.8,0,1.4,0.6,1.4,1.4c0,0.8-0.6,1.4-1.4,1.4c0,0-0.2,0.1-0.5,0.2c-0.1,0.3-0.2,0.5-0.2,0.5
			c0,0.8-0.6,1.4-1.4,1.4c-0.8,0-1.4-0.6-1.4-1.4c0,0-0.1-0.2-0.2-0.5c-0.3-0.1-0.5-0.2-0.5-0.2c-0.8,0-1.4-0.6-1.4-1.4
			c0-0.8,0.6-1.4,1.4-1.4C356.9,331,357.1,330.9,357.4,330.8z M279.7,322.7c0.2-1.1,0.3-2,0.3-2c0-0.8,0.6-1.4,1.4-1.4
			c0.8,0,1.4,0.6,1.4,1.4c0,0,0.2,0.8,0.3,2l0.1,0c1.1,0.1,1.9,0.3,1.9,0.3c0.8,0,1.4,0.6,1.4,1.4c0,0.8-0.6,1.4-1.4,1.4
			c0,0-0.8,0.2-1.9,0.3l-0.1,0l0,0.1c-0.1,1.1-0.3,1.9-0.3,1.9c0,0.8-0.6,1.4-1.4,1.4c-0.8,0-1.4-0.6-1.4-1.4c0,0-0.2-0.8-0.3-1.9
			l0-0.1c-1.1-0.2-2-0.3-2-0.3c-0.8,0-1.4-0.6-1.4-1.4c0-0.8,0.6-1.4,1.4-1.4C277.8,323.1,278.6,322.9,279.7,322.7L279.7,322.7z
			 M347.9,309.7c0.2-1.1,0.3-2,0.3-2c0-0.8,0.6-1.4,1.4-1.4c0.8,0,1.4,0.6,1.4,1.4c0,0,0.2,0.8,0.3,2l0.1,0c1.1,0.1,1.9,0.3,1.9,0.3
			c0.8,0,1.4,0.6,1.4,1.4s-0.6,1.4-1.4,1.4c0,0-0.8,0.2-1.9,0.3l-0.1,0l0,0.1c-0.1,1.1-0.3,1.9-0.3,1.9c0,0.8-0.6,1.4-1.4,1.4
			s-1.4-0.6-1.4-1.4c0,0-0.2-0.8-0.3-1.9l0-0.1c-1.1-0.2-2-0.3-2-0.3c-0.8,0-1.4-0.6-1.4-1.4s0.6-1.4,1.4-1.4
			C345.9,310.1,346.7,309.9,347.9,309.7L347.9,309.7z M264,305.8L264,305.8c0.2-2.5,0.4-4.4,0.4-4.4c0-0.8,0.6-1.4,1.4-1.4
			c0.8,0,1.4,0.6,1.4,1.4c0,0,0.3,2,0.4,4.4l0,0c0.5,0,0.9,0.1,1.3,0.1c1.8,0.1,3.1,0.3,3.1,0.3c0.8,0,1.4,0.6,1.4,1.4
			s-0.6,1.4-1.4,1.4c0,0-1.3,0.2-3.1,0.3c-0.4,0-0.8,0.1-1.3,0.1c0,0.5-0.1,0.9-0.1,1.3c-0.1,1.8-0.3,3.1-0.3,3.1
			c0,0.8-0.6,1.4-1.4,1.4c-0.8,0-1.4-0.6-1.4-1.4c0,0-0.2-1.3-0.3-3.1c0-0.4-0.1-0.9-0.1-1.3l0,0c-2.4-0.2-4.4-0.4-4.4-0.4
			c-0.8,0-1.4-0.6-1.4-1.4s0.6-1.4,1.4-1.4C259.5,306.2,261.5,306,264,305.8L264,305.8z" style="fill-rule:evenodd;clip-rule:evenodd;fill:#FFFFFF;"/>
		<path d="M417,381.4c0.1-0.3,0.2-0.5,0.2-0.5c0-0.8,0.6-1.4,1.4-1.4c0.8,0,1.4,0.6,1.4,1.4c0,0,0.1,0.2,0.2,0.5
			c0.3,0.1,0.5,0.2,0.5,0.2c0.8,0,1.4,0.6,1.4,1.4c0,0.8-0.6,1.4-1.4,1.4c0,0-0.2,0.1-0.5,0.2c-0.1,0.3-0.2,0.5-0.2,0.5
			c0,0.8-0.6,1.4-1.4,1.4c-0.8,0-1.4-0.6-1.4-1.4c0,0-0.1-0.2-0.2-0.5c-0.3-0.1-0.5-0.2-0.5-0.2c-0.8,0-1.4-0.6-1.4-1.4
			c0-0.8,0.6-1.4,1.4-1.4C416.4,381.6,416.6,381.5,417,381.4L417,381.4z M208.9,372.9L208.9,372.9c0.2-2.5,0.4-4.4,0.4-4.4
			c0-0.8,0.6-1.4,1.4-1.4s1.4,0.6,1.4,1.4c0,0,0.3,2,0.4,4.4l0,0c0.5,0,0.9,0.1,1.3,0.1c1.8,0.1,3.1,0.3,3.1,0.3
			c0.8,0,1.4,0.6,1.4,1.4c0,0.8-0.6,1.4-1.4,1.4c0,0-1.3,0.2-3.1,0.3c-0.4,0-0.8,0.1-1.3,0.1c0,0.5-0.1,0.9-0.1,1.3
			c-0.1,1.8-0.3,3.1-0.3,3.1c0,0.8-0.6,1.4-1.4,1.4s-1.4-0.6-1.4-1.4c0,0-0.2-1.3-0.3-3.1c0-0.4-0.1-0.9-0.1-1.3l0,0
			c-2.4-0.2-4.4-0.4-4.4-0.4c-0.8,0-1.4-0.6-1.4-1.4c0-0.8,0.6-1.4,1.4-1.4C204.4,373.4,206.4,373.1,208.9,372.9L208.9,372.9
			L208.9,372.9z M407.8,350.4c0.2-1.1,0.3-2,0.3-2c0-0.8,0.6-1.4,1.4-1.4c0.8,0,1.4,0.6,1.4,1.4c0,0,0.2,0.8,0.3,2l0.1,0
			c1.1,0.1,1.9,0.3,1.9,0.3c0.8,0,1.4,0.6,1.4,1.4c0,0.8-0.6,1.4-1.4,1.4c0,0-0.8,0.2-1.9,0.3l-0.1,0l0,0.1
			c-0.1,1.1-0.3,1.9-0.3,1.9c0,0.8-0.6,1.4-1.4,1.4c-0.8,0-1.4-0.6-1.4-1.4c0,0-0.2-0.8-0.3-1.9l0-0.1c-1.1-0.2-2-0.3-2-0.3
			c-0.8,0-1.4-0.6-1.4-1.4c0-0.8,0.6-1.4,1.4-1.4C405.8,350.8,406.7,350.6,407.8,350.4L407.8,350.4z M204.6,339.6
			c0.1-0.3,0.2-0.5,0.2-0.5c0-0.8,0.6-1.4,1.4-1.4s1.4,0.6,1.4,1.4c0,0,0.1,0.2,0.2,0.5c0.3,0.1,0.5,0.2,0.5,0.2
			c0.8,0,1.4,0.6,1.4,1.4c0,0.8-0.6,1.4-1.4,1.4c0,0-0.2,0.1-0.5,0.2c-0.1,0.3-0.2,0.5-0.2,0.5c0,0.8-0.6,1.4-1.4,1.4
			s-1.4-0.6-1.4-1.4c0,0-0.1-0.2-0.2-0.5c-0.3-0.1-0.5-0.2-0.5-0.2c-0.8,0-1.4-0.6-1.4-1.4c0-0.8,0.6-1.4,1.4-1.4
			C204.1,339.7,204.3,339.7,204.6,339.6L204.6,339.6z M219.7,323.2c0.2-1.1,0.3-2,0.3-2c0-0.8,0.6-1.4,1.4-1.4s1.4,0.6,1.4,1.4
			c0,0,0.2,0.8,0.3,2l0.1,0c1.1,0.1,1.9,0.3,1.9,0.3c0.8,0,1.4,0.6,1.4,1.4c0,0.8-0.6,1.4-1.4,1.4c0,0-0.8,0.2-1.9,0.3l-0.1,0l0,0.1
			c-0.1,1.1-0.3,1.9-0.3,1.9c0,0.8-0.6,1.4-1.4,1.4s-1.4-0.6-1.4-1.4c0,0-0.2-0.8-0.3-1.9l0-0.1c-1.1-0.2-2-0.3-2-0.3
			c-0.8,0-1.4-0.6-1.4-1.4c0-0.8,0.6-1.4,1.4-1.4C217.7,323.5,218.5,323.3,219.7,323.2L219.7,323.2z M401.3,315.4L401.3,315.4
			c0.2-2.5,0.4-4.4,0.4-4.4c0-0.8,0.6-1.4,1.4-1.4c0.8,0,1.4,0.6,1.4,1.4c0,0,0.3,2,0.4,4.4l0,0c0.5,0,0.9,0.1,1.3,0.1
			c1.8,0.1,3.1,0.3,3.1,0.3c0.8,0,1.4,0.6,1.4,1.4c0,0.8-0.6,1.4-1.4,1.4c0,0-1.3,0.2-3.1,0.3c-0.4,0-0.8,0.1-1.3,0.1
			c0,0.5-0.1,0.9-0.1,1.3c-0.1,1.8-0.3,3.1-0.3,3.1c0,0.8-0.6,1.4-1.4,1.4c-0.8,0-1.4-0.6-1.4-1.4c0,0-0.2-1.3-0.3-3.1
			c0-0.4-0.1-0.9-0.1-1.3l0,0c-2.4-0.2-4.4-0.4-4.4-0.4c-0.8,0-1.4-0.6-1.4-1.4c0-0.8,0.6-1.4,1.4-1.4
			C396.8,315.8,398.8,315.6,401.3,315.4L401.3,315.4L401.3,315.4z M386.6,303.3c0.1-0.3,0.2-0.5,0.2-0.5c0-0.8,0.6-1.4,1.4-1.4
			c0.8,0,1.4,0.6,1.4,1.4c0,0,0.1,0.2,0.2,0.5c0.3,0.1,0.5,0.2,0.5,0.2c0.8,0,1.4,0.6,1.4,1.4c0,0.8-0.6,1.4-1.4,1.4
			c0,0-0.2,0.1-0.5,0.2c-0.1,0.3-0.2,0.5-0.2,0.5c0,0.8-0.6,1.4-1.4,1.4c-0.8,0-1.4-0.6-1.4-1.4c0,0-0.1-0.2-0.2-0.5
			c-0.3-0.1-0.5-0.2-0.5-0.2c-0.8,0-1.4-0.6-1.4-1.4c0-0.8,0.6-1.4,1.4-1.4C386.1,303.5,386.3,303.4,386.6,303.3z" style="fill-rule:evenodd;clip-rule:evenodd;fill:#00E6B3;"/>
		<path d="M368,240c0,0,5.2,32,7.4,45.1c0.2,1.4-0.2,2.8-1.1,3.8c-0.9,1.1-2.2,1.7-3.6,1.7H244.4
			c-1.4,0-2.7-0.6-3.6-1.7c-0.9-1.1-1.3-2.5-1.1-3.8c2.1-13.1,7.4-45.1,7.4-45.1H368z" style="fill-rule:evenodd;clip-rule:evenodd;fill:#142664;"/>
		<path d="M377.9,238.3c0,0,4.1,24.9,5.9,36.2c0.2,1.4-0.2,2.8-1.1,3.8c-0.9,1.1-2.2,1.7-3.6,1.7
			c-24.1,0-119.1,0-143.1,0c-1.4,0-2.7-0.6-3.6-1.7c-0.9-1.1-1.3-2.5-1.1-3.8c1.9-11.3,5.9-36.2,5.9-36.2H377.9z" style="fill-rule:evenodd;clip-rule:evenodd;fill:#FF2E93;"/>
		<path d="M294.2,336c0,0,6.4,15.4,5.8,32.8c-0.3,8.9-3.2,17.9-10.6,25.2c-4.2,5.4-3.2,13.2,2.2,17.4
			c5.4,4.2,13.2,3.2,17.4-2.2c6.6-11.2,9-22.7,7.6-34c-2.7-22.9-17.3-42.3-17.3-42.3c-0.8-1.4-2.7-1.9-4.1-1.1
			C293.9,332.7,293.4,334.6,294.2,336L294.2,336z" style="fill-rule:evenodd;clip-rule:evenodd;fill:#142664;"/>
		<path d="M359.7,393c0.9-12.8-6.1-21-14.1-24.2c-9.6-3.9-21.2-0.1-28.1,12.4c-5.8,10.4-8.4,20.1-8.4,30.7
			c0,9.3,2.7,19.1,8,31.1c3.3,6,10.9,8.1,16.9,4.8c6-3.3,8.1-10.9,4.8-16.9c-5.3-7.7-8.7-14.2-9.9-20.7c-1.3-7.5-0.5-14.7,2.3-22.9
			c2.2-6.3,6.8-9.5,11.5-8.5c5.4,1.1,10.2,6.1,11.1,14.3c0,1.7,1.4,3,3.1,3C358.4,396,359.7,394.7,359.7,393L359.7,393z" style="fill-rule:evenodd;clip-rule:evenodd;fill:#142664;"/>
		<path d="M273.7,347.1c-8.3,11.4-6.6,20.7-3.9,30.6c2,7.2,4.8,14.6,3.5,24.2c-0.7,5.2-3.3,10.7-7.8,17.6
			c-3,6.1-0.5,13.6,5.6,16.6c6.1,3,13.6,0.5,16.6-5.6c4.1-11.5,5.5-20.4,4.7-28.2c-1.2-12.3-6.4-20.9-11-29.2
			c-3.7-6.8-6.6-13.2-2.5-22.9c0.8-1.5,0.3-3.3-1.1-4.1C276.4,345.1,274.5,345.7,273.7,347.1L273.7,347.1z" style="fill-rule:evenodd;clip-rule:evenodd;fill:#142664;"/>
		<path d="M284.6,385c-1.2-3-0.3-6.4,2.4-8.3c6.4-4.7,13.4-7.4,20.6-7.4c2.7,0,5.4,0.4,8.1,1.1c2.1,0.6,3.8,2.2,4.6,4.2
			c0.5,1.4,0.8,2.9,0.8,4.4c0,5-1.9,10.8-4.3,18.1c-1.8,5.3-1.7,10.5-0.8,15.1c1.7,7.8,5.7,13.4,5.7,13.4c0.7,1,2.1,1.3,3.2,0.6
			c1-0.7,1.3-2.1,0.6-3.2c0,0-3.1-5.1-3.9-11.8c-0.5-3.6-0.2-7.6,1.5-11.6c1.3-3.1,2.6-6.9,3.6-10.5c0.7-2.4,2.6-4.3,5.1-4.9
			c2.5-0.6,5,0.2,6.8,2.1c19.4,22.3,32.6,62.5,32.6,96.4c0,49.9-28.5,63.4-63.5,63.4S244,532.6,244,482.7
			c0-29.7,10.1-64.3,25.7-87.4c1.4-2,4-2.7,6.1-1.6c2.2,1.1,3.2,3.5,2.5,5.8c0,0.1-0.1,0.2-0.1,0.3c-1.4,3.8-1.5,7.3-0.7,10.2
			c1.3,5.2,4.7,8.6,4.7,8.6c0.8,0.9,2.3,1,3.2,0.2s1-2.3,0.2-3.2c0,0-2-2.8-2.5-6.6c-0.2-1.9,0.1-4.1,1.3-6.4c2-3.7,2.4-7,2.2-10
			C286.5,389.9,285.7,387.3,284.6,385L284.6,385z" style="fill-rule:evenodd;clip-rule:evenodd;fill:#FFFFFF;"/>
		<g>
			<path d="M267.8,436.2c0,0,0.5,0.2,1.2,0.3c0.4,0.1,0.8,0.2,1.2,0.2c0.3,0,0.5,0,0.7-0.1c1-0.2,1.7-0.4,1.7-0.4
				c0.8,0,1.4-0.6,1.4-1.4c0-0.8-0.6-1.4-1.4-1.4c0,0-0.7-0.2-1.7-0.4c-0.2,0-0.5-0.1-0.7-0.1c-0.4,0-0.9,0.1-1.2,0.2
				c-0.7,0.1-1.2,0.3-1.2,0.3c-0.8,0-1.4,0.6-1.4,1.4C266.4,435.6,267,436.2,267.8,436.2z" style="fill-rule:evenodd;clip-rule:evenodd;fill:#FF2E93;"/>
			<path d="M306.5,389.1c0,0,0.5,0.2,1.2,0.3c0.4,0.1,0.8,0.2,1.2,0.2c0.3,0,0.5,0,0.7-0.1c1-0.2,1.7-0.4,1.7-0.4
				c0.8,0,1.4-0.6,1.4-1.4c0-0.8-0.6-1.4-1.4-1.4c0,0-0.7-0.3-1.7-0.4c-0.2,0-0.5-0.1-0.7-0.1c-0.4,0-0.9,0.1-1.2,0.2
				c-0.7,0.2-1.2,0.3-1.2,0.3c-0.8,0-1.4,0.6-1.4,1.4C305.1,388.5,305.7,389.1,306.5,389.1L306.5,389.1z" style="fill-rule:evenodd;clip-rule:evenodd;fill:#FF2E93;"/>
			<path d="M332.6,407.1c0,0,0.5,0.2,1.2,0.3c0.4,0.1,0.8,0.2,1.2,0.2c0.3,0,0.5,0,0.7-0.1c1-0.2,1.7-0.4,1.7-0.4
				c0.8,0,1.4-0.6,1.4-1.4s-0.6-1.4-1.4-1.4c0,0-0.7-0.3-1.7-0.4c-0.2,0-0.5-0.1-0.7-0.1c-0.4,0-0.9,0.1-1.2,0.2
				c-0.7,0.2-1.2,0.3-1.2,0.3c-0.8,0-1.4,0.6-1.4,1.4C331.2,406.4,331.8,407.1,332.6,407.1L332.6,407.1z" style="fill-rule:evenodd;clip-rule:evenodd;fill:#FF2E93;"/>
			<path d="M249.1,475.4c0,0,0.3,0.2,0.9,0.3c0.3,0.1,0.6,0.2,0.9,0.2c0.2,0,0.4,0,0.5-0.1c0.7-0.2,1.3-0.4,1.3-0.4
				c0.8,0,1.4-0.6,1.4-1.4c0-0.8-0.6-1.4-1.4-1.4c0,0-0.5-0.2-1.3-0.4c-0.2,0-0.4-0.1-0.5-0.1c-0.3,0-0.6,0.1-0.9,0.2
				c-0.6,0.2-0.9,0.3-0.9,0.3c-0.8,0-1.4,0.6-1.4,1.4C247.7,474.7,248.3,475.4,249.1,475.4z" style="fill-rule:evenodd;clip-rule:evenodd;fill:#FF2E93;"/>
			<path d="M352.6,465c0,0,0.2,0.2,0.5,0.3c0.2,0.1,0.3,0.2,0.5,0.2c0.1,0,0.2,0,0.3-0.1c0.5-0.2,0.8-0.4,0.8-0.4
				c0.8,0,1.4-0.6,1.4-1.4c0-0.8-0.6-1.4-1.4-1.4c0,0-0.3-0.2-0.8-0.4c-0.1,0-0.2-0.1-0.3-0.1c-0.2,0-0.4,0.1-0.5,0.2
				c-0.4,0.2-0.5,0.3-0.5,0.3c-0.8,0-1.4,0.6-1.4,1.4C351.2,464.3,351.8,465,352.6,465z" style="fill-rule:evenodd;clip-rule:evenodd;fill:#FF2E93;"/>
			<path d="M329.6,435.1c0,0,0.2,0.2,0.5,0.3c0.2,0.1,0.3,0.2,0.5,0.2c0.1,0,0.2,0,0.3-0.1c0.5-0.2,0.8-0.4,0.8-0.4
				c0.8,0,1.4-0.6,1.4-1.4c0-0.8-0.6-1.4-1.4-1.4c0,0-0.3-0.2-0.8-0.4c-0.1,0-0.2-0.1-0.3-0.1c-0.2,0-0.4,0.1-0.5,0.2
				c-0.4,0.2-0.5,0.3-0.5,0.3c-0.8,0-1.4,0.6-1.4,1.4C328.2,434.5,328.8,435.1,329.6,435.1L329.6,435.1z" style="fill-rule:evenodd;clip-rule:evenodd;fill:#FF2E93;"/>
			<path d="M277.8,452.1c0,0,0.8,0.2,1.8,0.3c0.6,0.1,1.2,0.2,1.8,0.2c0.4,0,0.7,0,1.1-0.1c1.4-0.2,2.6-0.4,2.6-0.4
				c0.8,0,1.4-0.6,1.4-1.4c0-0.8-0.6-1.4-1.4-1.4c0,0-1.1-0.3-2.6-0.4c-0.4,0-0.7-0.1-1.1-0.1c-0.6,0-1.3,0.1-1.8,0.2
				c-1.1,0.1-1.8,0.3-1.8,0.3c-0.8,0-1.4,0.6-1.4,1.4C276.3,451.4,277,452.1,277.8,452.1L277.8,452.1z" style="fill-rule:evenodd;clip-rule:evenodd;fill:#FF2E93;"/>
			<path d="M252.7,484.2c0,0,0.8,0.2,1.8,0.3c0.6,0.1,1.2,0.2,1.8,0.2c0.4,0,0.7,0,1.1-0.1c1.4-0.2,2.6-0.4,2.6-0.4
				c0.8,0,1.4-0.6,1.4-1.4c0-0.8-0.6-1.4-1.4-1.4c0,0-1.1-0.3-2.6-0.4c-0.4,0-0.7-0.1-1.1-0.1c-0.6,0-1.3,0.1-1.8,0.2
				c-1.1,0.1-1.8,0.3-1.8,0.3c-0.8,0-1.4,0.6-1.4,1.4C251.2,483.6,251.9,484.2,252.7,484.2L252.7,484.2z" style="fill-rule:evenodd;clip-rule:evenodd;fill:#FF2E93;"/>
			<path d="M331.7,477.3c0,0,0.8,0.2,1.8,0.3c0.6,0.1,1.2,0.2,1.8,0.2c0.4,0,0.7,0,1.1-0.1c1.4-0.2,2.6-0.4,2.6-0.4
				c0.8,0,1.4-0.6,1.4-1.4c0-0.8-0.6-1.4-1.4-1.4c0,0-1.1-0.3-2.6-0.4c-0.4,0-0.7-0.1-1.1-0.1c-0.6,0-1.3,0.1-1.8,0.2
				c-1.1,0.1-1.8,0.3-1.8,0.3c-0.8,0-1.4,0.6-1.4,1.4C330.3,476.7,330.9,477.3,331.7,477.3L331.7,477.3z" style="fill-rule:evenodd;clip-rule:evenodd;fill:#FF2E93;"/>
			<path d="M290.6,410c0,0,0.8,0.2,1.8,0.3c0.6,0.1,1.2,0.2,1.8,0.2c0.4,0,0.7,0,1.1-0.1c1.4-0.2,2.6-0.4,2.6-0.4
				c0.8,0,1.4-0.6,1.4-1.4c0-0.8-0.6-1.4-1.4-1.4c0,0-1.1-0.3-2.6-0.4c-0.4,0-0.7-0.1-1.1-0.1c-0.6,0-1.3,0.1-1.8,0.2
				c-1.1,0.1-1.8,0.3-1.8,0.3c-0.8,0-1.4,0.6-1.4,1.4C289.2,409.3,289.8,410,290.6,410L290.6,410z" style="fill-rule:evenodd;clip-rule:evenodd;fill:#FF2E93;"/>
			<path d="M336.4,443c0,0,0.8,0.2,1.8,0.3c0.6,0.1,1.2,0.2,1.8,0.2c0.4,0,0.7,0,1.1-0.1c1.4-0.2,2.6-0.4,2.6-0.4
				c0.8,0,1.4-0.6,1.4-1.4c0-0.8-0.6-1.4-1.4-1.4c0,0-1.1-0.3-2.6-0.4c-0.4,0-0.7-0.1-1.1-0.1c-0.6,0-1.3,0.1-1.8,0.2
				c-1.1,0.1-1.8,0.3-1.8,0.3c-0.8,0-1.4,0.6-1.4,1.4C335,442.3,335.7,443,336.4,443z" style="fill-rule:evenodd;clip-rule:evenodd;fill:#FF2E93;"/>
			<path d="M258.1,442.8c0,0,1.3,0.2,3,0.3c0.9,0.1,2,0.2,3,0.2c0.6,0,1.2,0,1.8-0.1c2.3-0.2,4.3-0.4,4.3-0.4
				c0.8,0,1.4-0.6,1.4-1.4c0-0.8-0.6-1.4-1.4-1.4c0,0-1.9-0.3-4.3-0.4c-0.6,0-1.2-0.1-1.8-0.1c-1.1,0-2.1,0.1-3,0.2
				c-1.8,0.1-3,0.3-3,0.3c-0.8,0-1.4,0.6-1.4,1.4C256.7,442.2,257.3,442.8,258.1,442.8L258.1,442.8z" style="fill-rule:evenodd;clip-rule:evenodd;fill:#FF2E93;"/>
			<path d="M348.2,472.2c0,0,1.6,0.2,3.7,0.3c1.1,0.1,2.4,0.2,3.7,0.2c0.8,0,1.5,0,2.2-0.1c2.9-0.2,5.2-0.4,5.2-0.4
				c0.8,0,1.4-0.6,1.4-1.4c0-0.8-0.6-1.4-1.4-1.4c0,0-2.4-0.3-5.2-0.4c-0.7,0-1.5-0.1-2.2-0.1c-1.3,0-2.6,0.1-3.7,0.2
				c-2.1,0.1-3.7,0.3-3.7,0.3c-0.8,0-1.4,0.6-1.4,1.4C346.8,471.5,347.4,472.2,348.2,472.2z" style="fill-rule:evenodd;clip-rule:evenodd;fill:#FF2E93;"/>
			<path d="M294.3,395.3c0,0,1.6,0.2,3.7,0.3c1.1,0.1,2.4,0.2,3.7,0.2c0.8,0,1.5,0,2.2-0.1c2.9-0.2,5.2-0.4,5.2-0.4
				c0.8,0,1.4-0.6,1.4-1.4s-0.6-1.4-1.4-1.4c0,0-2.4-0.3-5.2-0.4c-0.7,0-1.5-0.1-2.2-0.1c-1.3,0-2.6,0.1-3.7,0.2
				c-2.1,0.1-3.7,0.3-3.7,0.3c-0.8,0-1.4,0.6-1.4,1.4S293.5,395.3,294.3,395.3z" style="fill-rule:evenodd;clip-rule:evenodd;fill:#FF2E93;"/>
		</g>
		<path d="M245,489.5c5.2,3.2,10.8,7.9,14.8,2.1c6.6-9.6,12.6-9.1,18.5-6.9c10.7,3.9,18.5-11.8,29.3-11.8
			c10.8,0,19.2,15.6,29.3,11.8c5.9-2.2,11-1.9,18.5,6.9c5.9,7,10.4,0.5,15.7-2.8c5.2-3.2,0.7,26,0.7,26H244
			C244,514.9,239.7,486.3,245,489.5L245,489.5z" style="fill-rule:evenodd;clip-rule:evenodd;fill:#FF2E93;"/>
		<path d="M214.2,538.3c0.9-1.2,2.2-2.6,4.1-3.9c2.7-2,6.7-3.5,12.5-4.4c7-1.1,13.1,2,19.4-1.1c0.4-0.2,0.8-0.5,1.1-0.9
			c-4.5-4.8-8.1-10.7-10.6-18l0,0l0,0c-1.6-5.1-2.7-14.5,1-16.5c3.7-2,12.9,16.5,24.6,16.5c11.7,0,19.2-16.8,41.3-16.8
			c22.1,0,29.5,16.8,41.3,16.8c11.7,0,20.9-18.5,24.6-16.5c3.7,2,2.7,12.4,1,16.5c-2.5,7.3-6.1,13.2-10.6,18
			c0.4,0.4,0.7,0.7,1.1,0.9c6.2,3.2,12.4,0.1,19.4,1.1c5.8,0.9,9.8,2.5,12.5,4.4c1.9,1.4,3.2,2.7,4.1,3.9l0,0l0,0c1.6,2,2,3.5,2,3.5
			c0.6,1.5-0.1,3.2-1.6,3.8c-0.1,0-0.2,0.1-0.4,0.1v0.3H214.2v-0.3c-0.1,0-0.2-0.1-0.4-0.1c-1.5-0.6-2.2-2.3-1.6-3.8
			C212.2,541.9,212.6,540.4,214.2,538.3L214.2,538.3L214.2,538.3L214.2,538.3z" style="fill-rule:evenodd;clip-rule:evenodd;fill:#142664;"/>
		<path d="M425.9,561l-13.1-14.8h-215l-13.7,15.5" style="fill:none;"/>
		<path d="M494.5,301.3h31.9c2.3,0,4.5,0.9,6.1,2.5c1.6,1.6,2.5,3.8,2.5,6.1c0,7.6,0,17.3,0,17.3h-40.6L494.5,301.3
			L494.5,301.3z" style="fill-rule:evenodd;clip-rule:evenodd;fill:#FFFFFF;"/>
		<ellipse cx="492.1" cy="537.9" rx="21.2" ry="24.2" style="fill-rule:evenodd;clip-rule:evenodd;fill:#FFFFFF;"/>
		<path d="M490.2,502.4v4.7c0,1.1,0.9,1.9,1.9,1.9c1.1,0,1.9-0.9,1.9-1.9v-4.7c0-1.1-0.9-1.9-1.9-1.9
			C491,500.4,490.2,501.3,490.2,502.4z" style="fill-rule:evenodd;clip-rule:evenodd;fill:#00E6B3;"/>
		<path d="M459.8,539.8h3.6c1.1,0,1.9-0.9,1.9-1.9c0-1.1-0.9-1.9-1.9-1.9h-3.6c-1.1,0-1.9,0.9-1.9,1.9
			C457.9,539,458.8,539.8,459.8,539.8z" style="fill-rule:evenodd;clip-rule:evenodd;fill:#00E6B3;"/>
		<path d="M482,507.6l0.3,1c0.3,1,1.3,1.6,2.3,1.4c1-0.3,1.6-1.3,1.4-2.3l-0.3-1c-0.3-1-1.3-1.6-2.3-1.4
			C482.3,505.5,481.7,506.6,482,507.6z" style="fill-rule:evenodd;clip-rule:evenodd;fill:#00E6B3;"/>
		<path d="M474.5,511.2l0.5,0.9c0.5,0.9,1.7,1.2,2.6,0.7c0.9-0.5,1.2-1.7,0.7-2.6l-0.5-0.9c-0.5-0.9-1.7-1.2-2.6-0.7
			C474.3,509.2,474,510.3,474.5,511.2L474.5,511.2z" style="fill-rule:evenodd;clip-rule:evenodd;fill:#00E6B3;"/>
		<path d="M468.2,516.5l0.6,0.8c0.6,0.8,1.8,1,2.7,0.4c0.8-0.6,1-1.8,0.4-2.7l-0.6-0.8c-0.6-0.8-1.8-1-2.7-0.4
			C467.7,514.5,467.6,515.7,468.2,516.5z" style="fill-rule:evenodd;clip-rule:evenodd;fill:#00E6B3;"/>
		<path d="M464.7,523.5l0.7,0.5c0.8,0.6,2,0.5,2.7-0.4c0.6-0.8,0.5-2-0.4-2.7l-0.7-0.5c-0.8-0.6-2-0.5-2.7,0.4
			C463.7,521.6,463.9,522.9,464.7,523.5L464.7,523.5z" style="fill-rule:evenodd;clip-rule:evenodd;fill:#00E6B3;"/>
		<path d="M462.8,531.5l0.8,0.3c1,0.4,2.1-0.2,2.4-1.2c0.4-1-0.2-2.1-1.2-2.4l-0.8-0.3c-1-0.4-2.1,0.2-2.4,1.2
			C461.3,530,461.8,531.1,462.8,531.5z" style="fill-rule:evenodd;clip-rule:evenodd;fill:#00E6B3;"/>
		<path d="M522.1,534.3h-4c-1.1,0-1.9,0.9-1.9,1.9s0.9,1.9,1.9,1.9h4c1.1,0,1.9-0.9,1.9-1.9S523.2,534.3,522.1,534.3z" style="fill-rule:evenodd;clip-rule:evenodd;fill:#FF2E93;"/>
		<path d="M517.5,526.2l-0.9,0.3c-1,0.3-1.6,1.4-1.2,2.4c0.3,1,1.4,1.6,2.4,1.2l0.9-0.3c1-0.3,1.6-1.4,1.2-2.4
			C519.6,526.4,518.5,525.9,517.5,526.2L517.5,526.2z" style="fill-rule:evenodd;clip-rule:evenodd;fill:#FF2E93;"/>
		<path d="M514.3,518.7l-0.8,0.5c-0.9,0.6-1.1,1.8-0.5,2.7c0.6,0.9,1.8,1.1,2.7,0.5l0.8-0.5c0.9-0.6,1.1-1.8,0.5-2.7
			C516.4,518.4,515.2,518.1,514.3,518.7L514.3,518.7z" style="fill-rule:evenodd;clip-rule:evenodd;fill:#FF2E93;"/>
		<path d="M509.9,512.5l-0.6,0.6c-0.8,0.7-0.8,1.9-0.1,2.7c0.7,0.8,1.9,0.8,2.7,0.1l0.6-0.6c0.8-0.7,0.8-1.9,0.1-2.7
			C511.9,511.8,510.6,511.8,509.9,512.5L509.9,512.5z" style="fill-rule:evenodd;clip-rule:evenodd;fill:#00E6B3;"/>
		<path d="M503.9,509l-0.5,0.7c-0.6,0.9-0.3,2.1,0.6,2.6c0.9,0.6,2.1,0.3,2.6-0.6l0.5-0.7c0.6-0.9,0.3-2.1-0.6-2.6
			C505.7,507.9,504.5,508.1,503.9,509L503.9,509z" style="fill-rule:evenodd;clip-rule:evenodd;fill:#00E6B3;"/>
		<path d="M497.2,507.1l-0.2,0.8c-0.3,1,0.3,2.1,1.3,2.4c1,0.3,2.1-0.3,2.4-1.3l0.2-0.8c0.3-1-0.3-2.1-1.3-2.4
			C498.6,505.5,497.5,506.1,497.2,507.1L497.2,507.1z" style="fill-rule:evenodd;clip-rule:evenodd;fill:#00E6B3;"/>
		<ellipse cx="497.5" cy="537.9" rx="15.8" ry="18.2" style="fill-rule:evenodd;clip-rule:evenodd;fill:#00E6B3;"/>
		<ellipse cx="497.5" cy="537.9" rx="2.7" ry="3.1" style="fill-rule:evenodd;clip-rule:evenodd;fill:#142664;"/>
		<path d="M507.8,528c0.2-0.6,0-1.2-0.4-1.6c-0.4-0.4-1-0.6-1.6-0.4c-1.7,0.5-3.9,1.1-5.6,1.5c-0.6,0.2-1,0.6-1.1,1.1
			c-0.1,0.6,0,1.2,0.4,1.6c1.2,1.2,2.8,2.8,4,4c0.4,0.4,1,0.6,1.6,0.4s1-0.6,1.1-1.1C506.7,531.9,507.3,529.7,507.8,528L507.8,528z" style="fill-rule:evenodd;clip-rule:evenodd;fill:#142664;"/>
		<path d="M474.9,403.9l-23.2,23.2c-0.7,0.7-2,0.7-2.7,0c-0.7-0.7-0.7-2,0-2.7l26.5-26.5c0.5-0.5,1.4-0.7,2.1-0.4
			c0.7,0.3,1.2,1,1.2,1.8v55.6h15.7c1.1,0,1.9,0.9,1.9,1.9c0,1.1-0.9,1.9-1.9,1.9h-17.6c-1.1,0-1.9-0.9-1.9-1.9V403.9L474.9,403.9z" style="fill-rule:evenodd;clip-rule:evenodd;fill:#00E6B3;"/>
		<path d="M518.5,489.8l9.9-9.9c0.7-0.7,2-0.7,2.7,0c0.7,0.7,0.7,2,0,2.7l-10.4,10.4c-0.4,0.4-0.8,0.6-1.4,0.6h-42.4
			c-0.5,0-1-0.2-1.4-0.6L449,466.6c-0.7-0.7-0.7-2,0-2.7c0.7-0.7,2-0.7,2.7,0l25.9,25.9H518.5L518.5,489.8z" style="fill-rule:evenodd;clip-rule:evenodd;fill:#00E6B3;"/>
		<path d="M449.4,501.2h-15.7c-1.1,0-1.9,0.9-1.9,1.9c0,1.1,0.9,1.9,1.9,1.9h15.7c1.1,0,1.9-0.9,1.9-1.9
			C451.3,502,450.4,501.2,449.4,501.2z" style="fill-rule:evenodd;clip-rule:evenodd;fill:#142664;"/>
		<path d="M449.4,340.1h-15.7c-1.1,0-1.9,0.9-1.9,1.9s0.9,1.9,1.9,1.9h15.7c1.1,0,1.9-0.9,1.9-1.9
			S450.4,340.1,449.4,340.1z" style="fill-rule:evenodd;clip-rule:evenodd;fill:#142664;"/>
		<path d="M449.4,512.5h-15.7c-1.1,0-1.9,0.9-1.9,1.9s0.9,1.9,1.9,1.9h15.7c1.1,0,1.9-0.9,1.9-1.9
			S450.4,512.5,449.4,512.5z" style="fill-rule:evenodd;clip-rule:evenodd;fill:#142664;"/>
		<path d="M544.5,579.5c0-2.8-1.1-5.5-3.1-7.5c-2-2-4.7-3.1-7.5-3.1c-54.1,0-300.5,0-354.6,0c-2.8,0-5.5,1.1-7.5,3.1
			c-2,2-3.1,4.7-3.1,7.5c0,3.2,0,6.7,0,9.9c0,2.8,1.1,5.5,3.1,7.5c2,2,4.7,3.1,7.5,3.1c54.1,0,300.5,0,354.6,0
			c2.8,0,5.5-1.1,7.5-3.1c2-2,3.1-4.7,3.1-7.5C544.5,586.3,544.5,582.7,544.5,579.5z" style="fill-rule:evenodd;clip-rule:evenodd;fill:#FF2E93;"/>
		<path d="M544.5,576.3c0,0-40-0.3-93.9-0.5c-28.7-0.1-61.3-0.2-93.9-0.3c-19,0-38.1,0.1-56.4,0.1
			c-71.8,0.2-131.5,0.6-131.5,0.6c-1.2,0-2.1,1-2.1,2.1s1,2.1,2.1,2.1c0,0,59.7,0.4,131.5,0.6c18.3,0.1,37.3,0.1,56.4,0.1
			c32.6,0,65.2-0.1,93.9-0.3c53.9-0.2,93.9-0.5,93.9-0.5c1.2,0,2.1-1,2.1-2.1S545.6,576.3,544.5,576.3L544.5,576.3z" style="fill-rule:evenodd;clip-rule:evenodd;fill:#142664;"/>
		<path d="M544.5,588.4c0,0-40-0.3-93.9-0.5c-28.7-0.1-61.3-0.2-93.9-0.3c-19,0-38.1,0.1-56.4,0.1
			c-71.8,0.2-131.5,0.6-131.5,0.6c-1.2,0-2.1,1-2.1,2.1c0,1.2,1,2.1,2.1,2.1c0,0,59.7,0.4,131.5,0.6c18.3,0.1,37.3,0.1,56.4,0.1
			c32.6,0,65.2-0.1,93.9-0.3c53.9-0.2,93.9-0.5,93.9-0.5c1.2,0,2.1-1,2.1-2.1C546.6,589.4,545.6,588.4,544.5,588.4L544.5,588.4z" style="fill-rule:evenodd;clip-rule:evenodd;fill:#142664;"/>
		<circle cx="534.6" cy="440.1" r="5.6" style="fill-rule:evenodd;clip-rule:evenodd;fill:#FFFFFF;"/>
		<circle cx="521.8" cy="449.3" r="3.6" style="fill-rule:evenodd;clip-rule:evenodd;fill:#FFFFFF;"/>
		<circle cx="527.1" cy="399.2" r="3.6" style="fill-rule:evenodd;clip-rule:evenodd;fill:#FFFFFF;"/>
		<circle cx="530.7" cy="341.7" r="3.6" style="fill-rule:evenodd;clip-rule:evenodd;fill:#FFFFFF;"/>
		<path d="M494.5,368.9c0.5-0.2,1.1-0.3,1.7-0.3c3.1,0,5.6,2.5,5.6,5.6s-2.5,5.6-5.6,5.6c-0.6,0-1.2-0.1-1.7-0.3V368.9
			L494.5,368.9z" style="fill-rule:evenodd;clip-rule:evenodd;fill:#FFFFFF;"/>
		<circle cx="503.7" cy="419.2" r="3.6" style="fill-rule:evenodd;clip-rule:evenodd;fill:#FFFFFF;"/>
		<circle cx="504.5" cy="469.6" r="3.6" style="fill-rule:evenodd;clip-rule:evenodd;fill:#FFFFFF;"/>
		<circle cx="538.9" cy="422.4" r="2.5" style="fill-rule:evenodd;clip-rule:evenodd;fill:#FFFFFF;"/>
		
			<ellipse transform="matrix(0.1602 -0.9871 0.9871 0.1602 75.4101 797.8594)" cx="506.6" cy="354.6" rx="2.5" ry="2.5" style="fill-rule:evenodd;clip-rule:evenodd;fill:#FFFFFF;"/>
		<circle cx="511.3" cy="384.2" r="2.5" style="fill-rule:evenodd;clip-rule:evenodd;fill:#FFFFFF;"/>
		<circle cx="544.4" cy="356" r="2.5" style="fill-rule:evenodd;clip-rule:evenodd;fill:#FFFFFF;"/>
		<path d="M176.3,615.6c0.8-2.2,2.9-3.7,5.2-3.7c12.8,0,53.8,0,71.3,0c1.8,0,3.5,0.9,4.6,2.4c1,1.5,1.3,3.4,0.7,5.1
			c-3.9,10.7-10.9,29.8-13.8,37.8c-0.8,2.2-2.9,3.7-5.2,3.7c-12.8,0-53.8,0-71.3,0c-1.8,0-3.5-0.9-4.6-2.4c-1-1.5-1.3-3.4-0.7-5.1
			C166.4,642.7,173.4,623.5,176.3,615.6L176.3,615.6z" style="fill-rule:evenodd;clip-rule:evenodd;fill:#142664;"/>
		<path d="M242.4,617.8c-0.1-0.5-0.5-0.8-0.9-1c-0.5-0.1-0.9,0-1.3,0.3c-3.8,3.8-13.4,13.2-17.8,17.5
			c-0.4,0.4-0.5,0.9-0.3,1.4c0.2,0.5,0.7,0.8,1.2,0.8c5.7,0,17.6,0,21.9,0c0.4,0,0.8-0.2,1-0.5c0.2-0.3,0.3-0.7,0.2-1.1
			C245.7,631.5,243.5,622.1,242.4,617.8L242.4,617.8z" style="fill-rule:evenodd;clip-rule:evenodd;fill:#FFFFFF;"/>
		<path d="M239,625.2c0-0.2-0.2-0.3-0.4-0.4c-0.2-0.1-0.4,0-0.5,0.1c-1.5,1.5-5.2,5.1-6.9,6.8c-0.1,0.1-0.2,0.4-0.1,0.6
			c0.1,0.2,0.3,0.3,0.5,0.3c2.2,0,6.8,0,8.5,0c0.2,0,0.3-0.1,0.4-0.2c0.1-0.1,0.1-0.3,0.1-0.4C240.2,630.5,239.4,626.9,239,625.2
			L239,625.2z" style="fill-rule:evenodd;clip-rule:evenodd;fill:#FF2E93;"/>
		<path d="M219.9,646.1h6.5c1.1,0,1.9-0.9,1.9-1.9s-0.9-1.9-1.9-1.9h-6.5c-1.1,0-1.9,0.9-1.9,1.9
			S218.8,646.1,219.9,646.1z" style="fill-rule:evenodd;clip-rule:evenodd;fill:#FF2E93;"/>
		<path d="M232,646.1h9.2c1.1,0,1.9-0.9,1.9-1.9s-0.9-1.9-1.9-1.9H232c-1.1,0-1.9,0.9-1.9,1.9S230.9,646.1,232,646.1z" style="fill-rule:evenodd;clip-rule:evenodd;fill:#FF2E93;"/>
		<path d="M217.1,652.5H228c1.1,0,1.9-0.9,1.9-1.9c0-1.1-0.9-1.9-1.9-1.9h-10.9c-1.1,0-1.9,0.9-1.9,1.9
			C215.2,651.7,216,652.5,217.1,652.5z" style="fill-rule:evenodd;clip-rule:evenodd;fill:#FF2E93;"/>
		<path d="M233.7,652.5h1.5c1.1,0,1.9-0.9,1.9-1.9c0-1.1-0.9-1.9-1.9-1.9h-1.5c-1.1,0-1.9,0.9-1.9,1.9
			C231.8,651.7,232.6,652.5,233.7,652.5z" style="fill-rule:evenodd;clip-rule:evenodd;fill:#FF2E93;"/>
		<path d="M194.2,641.1l11-21.4c0.6-1.3,2.1-1.9,3.5-1.4c1.4,0.4,2.2,1.7,2,3.2l-3.1,24.1l4.8-10.9c0.4-1,1.6-1.4,2.5-1
			c1,0.4,1.4,1.6,1,2.5c0,0-4.4,9.9-7.4,16.7c-0.6,1.3-2.1,2-3.4,1.6c-1.4-0.4-2.3-1.7-2.1-3.2l3.2-25.2l-10.1,19.6
			c-0.6,1.2-1.9,1.8-3.2,1.5c-1.3-0.3-2.2-1.3-2.3-2.6l-0.3-4l-6,10.6c-0.7,1.2-2.1,1.8-3.4,1.3c-1.3-0.4-2.1-1.7-2-3.1l1.5-15.1
			l-5.6,10.2c-0.5,0.9-1.7,1.3-2.6,0.8c-0.9-0.5-1.3-1.7-0.8-2.6c0,0,4.8-8.7,7.8-14.1c0.7-1.2,2.1-1.8,3.4-1.4
			c1.3,0.4,2.2,1.7,2,3.1l-1.6,15.2l5.3-9.4c0.6-1.1,1.9-1.7,3.2-1.4c1.2,0.3,2.2,1.3,2.3,2.6L194.2,641.1L194.2,641.1z" style="fill-rule:evenodd;clip-rule:evenodd;fill:#FF2E93;"/>
		<circle cx="268.2" cy="647.8" r="7.4" style="fill-rule:evenodd;clip-rule:evenodd;fill:#FF2E93;"/>
		<path d="M268.2,638.5c-5.1,0-9.3,4.2-9.3,9.3c0,5.1,4.2,9.3,9.3,9.3c5.1,0,9.3-4.2,9.3-9.3
			C277.5,642.6,273.3,638.5,268.2,638.5z M268.2,642.3c3,0,5.5,2.5,5.5,5.5c0,3-2.5,5.5-5.5,5.5s-5.5-2.5-5.5-5.5
			C262.7,644.8,265.1,642.3,268.2,642.3z" style="fill-rule:evenodd;clip-rule:evenodd;fill:#142664;"/>
		<circle cx="290.2" cy="647.8" r="7.4" style="fill-rule:evenodd;clip-rule:evenodd;fill:#FFFFFF;"/>
		<path d="M290.2,638.5c-5.1,0-9.3,4.2-9.3,9.3c0,5.1,4.2,9.3,9.3,9.3c5.1,0,9.3-4.2,9.3-9.3
			C299.5,642.6,295.3,638.5,290.2,638.5z M290.2,642.3c3,0,5.5,2.5,5.5,5.5c0,3-2.5,5.5-5.5,5.5c-3,0-5.5-2.5-5.5-5.5
			C284.7,644.8,287.2,642.3,290.2,642.3z" style="fill-rule:evenodd;clip-rule:evenodd;fill:#142664;"/>
		
			<ellipse transform="matrix(0.3827 -0.9239 0.9239 0.3827 102.8743 606.3458)" cx="505.2" cy="226.2" rx="2.9" ry="2.9" style="fill-rule:evenodd;clip-rule:evenodd;fill:#00E6B3;"/>
		<circle cx="466.3" cy="427.9" r="2.9" style="fill-rule:evenodd;clip-rule:evenodd;fill:#00E6B3;"/>
		<circle cx="321.4" cy="247.7" r="2.9" style="fill-rule:evenodd;clip-rule:evenodd;fill:#142664;"/>
		<circle cx="502.4" cy="320.6" r="2.9" style="fill-rule:evenodd;clip-rule:evenodd;fill:#142664;"/>
		<circle cx="562.7" cy="620.3" r="2.9" style="fill-rule:evenodd;clip-rule:evenodd;fill:#142664;"/>
		<circle cx="502.4" cy="311" r="2.9" style="fill-rule:evenodd;clip-rule:evenodd;fill:#142664;"/>
		
			<ellipse transform="matrix(0.3827 -0.9239 0.9239 0.3827 112.9168 599.6356)" cx="505.2" cy="215.3" rx="2.9" ry="2.9" style="fill-rule:evenodd;clip-rule:evenodd;fill:#00E6B3;"/>
		<path d="M483.2,636v-13c0-2.1-1.7-3.8-3.8-3.8c-2.1,0-3.8,1.7-3.8,3.8v13c0,2.1,1.7,3.8,3.8,3.8
			C481.5,639.8,483.2,638.1,483.2,636z" style="fill-rule:evenodd;clip-rule:evenodd;fill:#FF2E93;"/>
		<path d="M525.4,636v-12.7c0-2.1-1.7-3.8-3.8-3.8c-2.1,0-3.8,1.7-3.8,3.8V636c0,2.1,1.7,3.8,3.8,3.8
			C523.7,639.8,525.4,638.1,525.4,636z" style="fill-rule:evenodd;clip-rule:evenodd;fill:#FF2E93;"/>
		<path d="M533.6,613.5l-14.1,14.1c-1.1,1.1-1.1,2.9,0,4.1c1.1,1.1,2.9,1.1,4.1,0l14.1-14.1c1.1-1.1,1.1-2.9,0-4.1
			C536.6,612.4,534.8,612.4,533.6,613.5z" style="fill-rule:evenodd;clip-rule:evenodd;fill:#FFFFFF;"/>
		<path d="M491.4,613.5l-14.1,14.1c-1.1,1.1-1.1,2.9,0,4.1c1.1,1.1,2.9,1.1,4.1,0l14.1-14.1c1.1-1.1,1.1-2.9,0-4.1
			C494.4,612.4,492.6,612.4,491.4,613.5L491.4,613.5z" style="fill-rule:evenodd;clip-rule:evenodd;fill:#FFFFFF;"/>
		<path d="M513.8,656.3c0-1.2-0.5-2.3-1.3-3.1c-0.8-0.8-2-1.3-3.1-1.3c-4.5,0-11.4,0-15.9,0c-1.2,0-2.3,0.5-3.1,1.3
			c-0.8,0.8-1.3,2-1.3,3.1c0,2.6,0,5.8,0,8.4c0,1.2,0.5,2.3,1.3,3.1c0.8,0.8,2,1.3,3.1,1.3c4.5,0,11.4,0,15.9,0
			c1.2,0,2.3-0.5,3.1-1.3c0.8-0.8,1.3-2,1.3-3.1C513.8,662.1,513.8,658.9,513.8,656.3z" style="fill-rule:evenodd;clip-rule:evenodd;fill:#FF2E93;"/>
		<path d="M523,671.1c0-5.3,0-16.1,0-21.3c0-3.4-2.7-6.1-6-6.1c-7.5,0-23.4,0-31,0c-3.3,0-6,2.7-6,6.1
			c0,5.3,0,16.1,0,21.3c0,1.1,0.9,1.9,1.9,1.9c1.1,0,1.9-0.9,1.9-1.9c0-5.3,0-16.1,0-21.3c0-1.3,1-2.3,2.2-2.3c7.5,0,23.4,0,31,0
			c1.2,0,2.2,1,2.2,2.3c0,5.3,0,16.1,0,21.3c0,1.1,0.9,1.9,1.9,1.9C522.1,673,523,672.1,523,671.1z" style="fill-rule:evenodd;clip-rule:evenodd;fill:#FF2E93;"/>
		<path d="M493.3,659.2h7.3c1.1,0,1.9-0.9,1.9-1.9s-0.9-1.9-1.9-1.9h-7.3c-1.1,0-1.9,0.9-1.9,1.9
			S492.3,659.2,493.3,659.2z" style="fill-rule:evenodd;clip-rule:evenodd;fill:#142664;"/>
		<path d="M506.7,659.2h2.9c1.1,0,1.9-0.9,1.9-1.9s-0.9-1.9-1.9-1.9h-2.9c-1.1,0-1.9,0.9-1.9,1.9
			S505.6,659.2,506.7,659.2z" style="fill-rule:evenodd;clip-rule:evenodd;fill:#142664;"/>
		<path d="M493.3,665.6h10c1.1,0,1.9-0.9,1.9-1.9c0-1.1-0.9-1.9-1.9-1.9h-10c-1.1,0-1.9,0.9-1.9,1.9
			C491.4,664.7,492.3,665.6,493.3,665.6z" style="fill-rule:evenodd;clip-rule:evenodd;fill:#142664;"/>
		<circle cx="542.1" cy="660" r="3.5" style="fill-rule:evenodd;clip-rule:evenodd;fill:#FF2E93;"/>
		<circle cx="542.1" cy="647.5" r="3.5" style="fill-rule:evenodd;clip-rule:evenodd;fill:#FF2E93;"/>
		<path d="M510.1,249.5c0,0-1.7-0.2-3.9-0.3c-1.2-0.1-2.6-0.2-3.9-0.2c-0.8,0-1.6,0-2.4,0.1c-3,0.2-5.5,0.4-5.5,0.4
			c-0.8,0-1.4,0.6-1.4,1.4c0,0.8,0.6,1.4,1.4,1.4c0,0,2.5,0.3,5.5,0.4c0.8,0,1.6,0.1,2.4,0.1c1.4,0,2.7-0.1,3.9-0.2
			c2.3-0.1,3.9-0.3,3.9-0.3c0.8,0,1.4-0.6,1.4-1.4C511.6,250.2,510.9,249.5,510.1,249.5L510.1,249.5z" style="fill-rule:evenodd;clip-rule:evenodd;fill:#142664;"/>
		<path d="M510.1,262.1c0,0-1.7-0.2-3.9-0.3c-1.2-0.1-2.6-0.2-3.9-0.2c-0.8,0-1.6,0-2.4,0.1c-3,0.2-5.5,0.4-5.5,0.4
			c-0.8,0-1.4,0.6-1.4,1.4c0,0.8,0.6,1.4,1.4,1.4c0,0,2.5,0.3,5.5,0.4c0.8,0,1.6,0.1,2.4,0.1c1.4,0,2.7-0.1,3.9-0.2
			c2.3-0.1,3.9-0.3,3.9-0.3c0.8,0,1.4-0.6,1.4-1.4C511.6,262.7,510.9,262.1,510.1,262.1z" style="fill-rule:evenodd;clip-rule:evenodd;fill:#142664;"/>
		<path d="M510.1,274.7c0,0-1.7-0.2-3.9-0.3c-1.2-0.1-2.6-0.2-3.9-0.2c-0.8,0-1.6,0-2.4,0.1c-3,0.2-5.5,0.4-5.5,0.4
			c-0.8,0-1.4,0.6-1.4,1.4s0.6,1.4,1.4,1.4c0,0,2.5,0.3,5.5,0.4c0.8,0,1.6,0.1,2.4,0.1c1.4,0,2.7-0.1,3.9-0.2
			c2.3-0.1,3.9-0.3,3.9-0.3c0.8,0,1.4-0.6,1.4-1.4S510.9,274.7,510.1,274.7z" style="fill-rule:evenodd;clip-rule:evenodd;fill:#142664;"/>
		<path d="M510.1,287.2c0,0-1.7-0.2-3.9-0.3c-1.2-0.1-2.6-0.2-3.9-0.2c-0.8,0-1.6,0-2.4,0.1c-3,0.2-5.5,0.4-5.5,0.4
			c-0.8,0-1.4,0.6-1.4,1.4c0,0.8,0.6,1.4,1.4,1.4c0,0,2.5,0.3,5.5,0.4c0.8,0,1.6,0.1,2.4,0.1c1.4,0,2.7-0.1,3.9-0.2
			c2.3-0.1,3.9-0.3,3.9-0.3c0.8,0,1.4-0.6,1.4-1.4C511.6,287.9,510.9,287.2,510.1,287.2L510.1,287.2z" style="fill-rule:evenodd;clip-rule:evenodd;fill:#142664;"/>
		<path d="M317.5,656.7l11.2-31.6h-35c-0.6,0-1.2-0.3-1.6-0.8c-0.4-0.5-0.4-1.2-0.2-1.8l8.5-23.2c0.4-1,1.5-1.5,2.5-1.1
			c1,0.4,1.5,1.5,1.1,2.5l-7.5,20.6h35c0.6,0,1.2,0.3,1.6,0.8c0.4,0.5,0.4,1.2,0.2,1.7l-11.2,31.6h51.8l4.9-14.1
			c0.3-0.8,1-1.3,1.8-1.3h54.4c0.6,0,1.2,0.3,1.6,0.8c0.4,0.5,0.4,1.2,0.2,1.7l-10.2,28.6c-0.4,1-1.5,1.5-2.4,1.2
			c-1-0.4-1.5-1.5-1.2-2.4l9.3-26h-11.2l-3.2,9c-0.3,0.8-1,1.3-1.8,1.3h-24.6c-0.6,0-1.2-0.3-1.6-0.8c-0.4-0.5-0.5-1.2-0.2-1.7
			l2.7-7.7H382l-4.9,14c0,0,0,0,0,0.1l-4.6,13.2c-0.3,1-1.4,1.5-2.4,1.2s-1.5-1.4-1.2-2.4l3.7-10.7h-51.8l-4.3,12
			c-0.4,1-1.5,1.5-2.4,1.2c-1-0.4-1.5-1.5-1.2-2.4L317.5,656.7C317.5,656.7,317.5,656.7,317.5,656.7L317.5,656.7z M396.5,643.9
			l-2.2,6.4h20.5l2.3-6.4H396.5z M164.3,646.3h-17.8c-1.1,0-1.9,0.9-1.9,1.9c0,1.1,0.9,1.9,1.9,1.9h17.8c1.1,0,1.9-0.9,1.9-1.9
			C166.3,647.2,165.4,646.3,164.3,646.3z" style="fill-rule:evenodd;clip-rule:evenodd;fill:#142664;"/>
		<path d="M404.1,600.1h-8.5c0,0-2,5.6-3.6,10.1c-0.5,1.3-0.3,2.8,0.5,3.9c0.8,1.1,2.1,1.8,3.5,1.8c0,0,0,0,0,0
			c1.4,0,2.7-0.9,3.2-2.2C400.8,609.3,404.1,600.1,404.1,600.1L404.1,600.1z" style="fill-rule:evenodd;clip-rule:evenodd;fill:#142664;"/>
		<path d="M420.7,600.1h-8.5c0,0-2,5.6-3.6,10.1c-0.5,1.3-0.3,2.8,0.5,3.9s2.1,1.8,3.5,1.8c0,0,0,0,0,0
			c1.4,0,2.7-0.9,3.2-2.2C417.4,609.3,420.7,600.1,420.7,600.1L420.7,600.1z" style="fill-rule:evenodd;clip-rule:evenodd;fill:#142664;"/>
		<path d="M387.6,600.1h-8.5c0,0-2,5.6-3.6,10.1c-0.5,1.3-0.3,2.8,0.5,3.9c0.8,1.1,2.1,1.8,3.5,1.8c0,0,0,0,0,0
			c1.4,0,2.7-0.9,3.2-2.2C384.3,609.3,387.6,600.1,387.6,600.1L387.6,600.1z" style="fill-rule:evenodd;clip-rule:evenodd;fill:#142664;"/>
		<path d="M481.9,321.8c0-2.5-1-4.9-2.8-6.7c-1.8-1.8-4.2-2.8-6.7-2.8c0,0,0,0,0,0c-2.5,0-4.9,1-6.7,2.8
			s-2.8,4.2-2.8,6.7c0,14.1,0,40.3,0,54.3c0,2.5,1,4.9,2.8,6.7c1.8,1.8,4.2,2.8,6.7,2.8c0,0,0,0,0,0c2.5,0,4.9-1,6.7-2.8
			s2.8-4.2,2.8-6.7C481.9,362,481.9,335.8,481.9,321.8z" style="fill-rule:evenodd;clip-rule:evenodd;fill:#FF2E93;"/>
		<path d="M464.7,365.1h7.7c1.1,0,1.9-0.9,1.9-1.9c0-1.1-0.9-1.9-1.9-1.9h-7.7c-1.1,0-1.9,0.9-1.9,1.9
			C462.8,364.2,463.6,365.1,464.7,365.1z" style="fill-rule:evenodd;clip-rule:evenodd;fill:#FFFFFF;"/>
		<path d="M464.7,336.1h7.7c1.1,0,1.9-0.9,1.9-1.9c0-1.1-0.9-1.9-1.9-1.9h-7.7c-1.1,0-1.9,0.9-1.9,1.9
			C462.8,335.2,463.6,336.1,464.7,336.1z" style="fill-rule:evenodd;clip-rule:evenodd;fill:#FFFFFF;"/>
		<path d="M464.7,379.5h3.9c1.1,0,1.9-0.9,1.9-1.9c0-1.1-0.9-1.9-1.9-1.9h-3.9c-1.1,0-1.9,0.9-1.9,1.9
			C462.8,378.7,463.6,379.5,464.7,379.5z" style="fill-rule:evenodd;clip-rule:evenodd;fill:#FFFFFF;"/>
		<path d="M464.7,357.8h3.9c1.1,0,1.9-0.9,1.9-1.9s-0.9-1.9-1.9-1.9h-3.9c-1.1,0-1.9,0.9-1.9,1.9
			S463.6,357.8,464.7,357.8z" style="fill-rule:evenodd;clip-rule:evenodd;fill:#FFFFFF;"/>
		<path d="M464.7,372.3h3.9c1.1,0,1.9-0.9,1.9-1.9c0-1.1-0.9-1.9-1.9-1.9h-3.9c-1.1,0-1.9,0.9-1.9,1.9
			C462.8,371.4,463.6,372.3,464.7,372.3z" style="fill-rule:evenodd;clip-rule:evenodd;fill:#FFFFFF;"/>
		<path d="M464.7,350.6h3.9c1.1,0,1.9-0.9,1.9-1.9c0-1.1-0.9-1.9-1.9-1.9h-3.9c-1.1,0-1.9,0.9-1.9,1.9
			C462.8,349.7,463.6,350.6,464.7,350.6z" style="fill-rule:evenodd;clip-rule:evenodd;fill:#FFFFFF;"/>
		<path d="M464.7,328.9h3.9c1.1,0,1.9-0.9,1.9-1.9c0-1.1-0.9-1.9-1.9-1.9h-3.9c-1.1,0-1.9,0.9-1.9,1.9
			C462.8,328,463.6,328.9,464.7,328.9z" style="fill-rule:evenodd;clip-rule:evenodd;fill:#FFFFFF;"/>
		<path d="M464.7,343.3h3.9c1.1,0,1.9-0.9,1.9-1.9c0-1.1-0.9-1.9-1.9-1.9h-3.9c-1.1,0-1.9,0.9-1.9,1.9
			C462.8,342.5,463.6,343.3,464.7,343.3z" style="fill-rule:evenodd;clip-rule:evenodd;fill:#FFFFFF;"/>
		<path d="M464.7,321.6h3.9c1.1,0,1.9-0.9,1.9-1.9s-0.9-1.9-1.9-1.9h-3.9c-1.1,0-1.9,0.9-1.9,1.9
			S463.6,321.6,464.7,321.6z" style="fill-rule:evenodd;clip-rule:evenodd;fill:#FFFFFF;"/>
		<path d="M336.8,143.8C336.9,143.8,336.9,143.8,336.8,143.8h16c3.9,0,7.3,2.6,8.3,6.3l1.3,4.5c0,0,0,0,0,0.1l1.8,6.3
			c0.3,1-0.3,2.1-1.3,2.4c-1,0.3-2.1-0.3-2.4-1.3l-1.4-4.9h-19.3c-0.8,0-1.6-0.5-1.8-1.4l-2.5-8.1h-31.7l-3.5,12.6
			c-0.3,1-1.3,1.6-2.4,1.3c-1-0.3-1.6-1.3-1.3-2.4l3.3-11.6h-3.9c-2.1,0-4,1.4-4.6,3.5c-1.3,4.6-3.1,10.9-3.1,10.9
			c-0.3,1-1.3,1.6-2.4,1.3c-1-0.3-1.6-1.3-1.3-2.4c0,0,1.8-6.3,3.1-10.9c1-3.7,4.4-6.3,8.3-6.3h6.4c0,0,0,0,0.1,0L336.8,143.8
			L336.8,143.8z M358,153.3l-0.6-2.1c-0.6-2.1-2.5-3.5-4.6-3.5h-13.3l1.7,5.6H358L358,153.3z" style="fill-rule:evenodd;clip-rule:evenodd;fill:#142664;"/>
		<path d="M494.5,299.4h30.1h1.8c2.8,0,5.5,1.1,7.5,3.1c2,2,3.1,4.7,3.1,7.5v17.3c0,1.1-0.9,1.9-1.9,1.9
			s-1.9-0.9-1.9-1.9v-11.1h-18.4c-1.1,0-1.9-0.9-1.9-1.9v-11.1h-18.4c-1.1,0-1.9-0.9-1.9-1.9S493.4,299.4,494.5,299.4L494.5,299.4z
			 M516.7,312.4h16.5V310c0-1.8-0.7-3.5-2-4.8c-1.3-1.3-3-2-4.8-2h-9.7V312.4z" style="fill-rule:evenodd;clip-rule:evenodd;fill:#142664;"/>
		<path d="M568.2,629.8V620c0-2.7-1.8-5.1-4.4-5.8c-4.5-1.3-10-2.8-10-2.8c-1-0.3-1.6-1.3-1.3-2.4
			c0.3-1,1.3-1.6,2.4-1.3c0,0,5.5,1.5,10,2.8c4.3,1.2,7.2,5.1,7.2,9.5v9.6c0.3,0.5,0.3,1.2,0,1.7v8.7c0.3,0.5,0.3,1.2,0,1.7v13.5
			c0,4.4-3,8.3-7.2,9.5c-4.5,1.3-10,2.8-10,2.8c-1,0.3-2.1-0.3-2.4-1.3c-0.3-1,0.3-2.1,1.3-2.4c0,0,5.5-1.5,10-2.8
			c2.6-0.7,4.4-3.1,4.4-5.8v-9.5l-13.5,13.5c-0.7,0.7-2,0.7-2.7,0c-0.7-0.7-0.7-2,0-2.7l16.2-16.2v-5l-13.5,13.5
			c-0.7,0.7-2,0.7-2.7,0c-0.7-0.7-0.7-2,0-2.7L568.2,629.8z" style="fill-rule:evenodd;clip-rule:evenodd;fill:#142664;"/>
		<path d="M179.6,564.6V303.5c0,0,0-0.6,0-0.6c0.2-22,9.6-42.3,25.4-58.6c0.7-0.8,0.7-2,0-2.7c-0.8-0.7-2-0.7-2.7,0
			c-16.5,17-26.3,38.2-26.5,61.2l0,0.7v261.1c0,1.1,0.9,1.9,1.9,1.9S179.6,565.6,179.6,564.6z M226.2,548h-27.5l-13.1,14.9
			c-0.7,0.8-1.9,0.9-2.7,0.2c-0.8-0.7-0.9-1.9-0.2-2.7l13.7-15.5c0.4-0.4,0.9-0.7,1.4-0.7h215c0.6,0,1.1,0.2,1.4,0.7l13.1,14.8
			c0.7,0.8,0.6,2-0.2,2.7c-0.8,0.7-2,0.6-2.7-0.2L411.9,548h-16.1v14.5c0,1.1-0.9,1.9-1.9,1.9c-1.1,0-1.9-0.9-1.9-1.9V548h-22.5v5.9
			c0,0.5-0.2,1-0.6,1.4l-8.7,8.7c-0.7,0.7-2,0.7-2.7,0c-0.7-0.7-0.7-2,0-2.7l8.1-8.1V548H243.9l-4.9,5.6h23.2c1.1,0,1.9,0.9,1.9,1.9
			v7.1c0,1.1-0.9,1.9-1.9,1.9c-1.1,0-1.9-0.9-1.9-1.9v-5.2h-25.6c-0.8,0-1.4-0.4-1.7-1.1c-0.3-0.7-0.2-1.5,0.3-2.1l5.5-6.2h-7.4
			l-13.1,14.9c-0.7,0.8-1.9,0.9-2.7,0.2c-0.8-0.7-0.9-1.9-0.2-2.7L226.2,548L226.2,548z" style="fill-rule:evenodd;clip-rule:evenodd;fill:#142664;"/>
		<circle cx="276.2" cy="558.8" r="2.9" style="fill-rule:evenodd;clip-rule:evenodd;fill:#142664;"/>
		<circle cx="285.7" cy="558.8" r="2.9" style="fill-rule:evenodd;clip-rule:evenodd;fill:#142664;"/>
		<circle cx="408.2" cy="553.8" r="2.9" style="fill-rule:evenodd;clip-rule:evenodd;fill:#142664;"/>
		<circle cx="440.6" cy="352.3" r="2.9" style="fill-rule:evenodd;clip-rule:evenodd;fill:#142664;"/>
		<path d="M240.1,274.5h4.6c1.1,0,1.9-0.9,1.9-1.9s-0.9-1.9-1.9-1.9h-4.6c-1.1,0-1.9,0.9-1.9,1.9S239,274.5,240.1,274.5
			z" style="fill-rule:evenodd;clip-rule:evenodd;fill:#FFFFFF;"/>
		<path d="M252.2,274.5h4.6c1.1,0,1.9-0.9,1.9-1.9s-0.9-1.9-1.9-1.9h-4.6c-1.1,0-1.9,0.9-1.9,1.9
			S251.1,274.5,252.2,274.5z" style="fill-rule:evenodd;clip-rule:evenodd;fill:#FFFFFF;"/>
		<circle cx="371.8" cy="270.1" r="5.1" style="fill-rule:evenodd;clip-rule:evenodd;fill:#FFFFFF;"/>
		<path d="M443.9,463.3h4.5c1.1,0,1.9,0.9,1.9,1.9c0,1.1-0.9,1.9-1.9,1.9H442c-1.1,0-1.9-0.9-1.9-1.9v-39.5
			c0-1.1,0.9-1.9,1.9-1.9h6.5c1.1,0,1.9,0.9,1.9,1.9c0,1.1-0.9,1.9-1.9,1.9h-4.5V463.3z" style="fill-rule:evenodd;clip-rule:evenodd;fill:#142664;"/>
		<path d="M425.3,194.7c-2.1-5.3-3.2-11.1-3.2-17.1c0-4.8,0.7-9.5,2-13.8c0.3-1,1.4-1.6,2.4-1.3c1,0.3,1.6,1.4,1.3,2.4
			c-1.2,4-1.9,8.3-1.9,12.7c0,6,1.2,11.7,3.4,16.9c0,0,0,0,0,0.1c0.6,0,1.2,0,1.9-0.1c4.2-0.1,8.8-0.2,13.3-0.2c0.1,0,0.3,0,0.4,0
			c-1.9-3-3.5-6.4-4.5-9.9c-0.2-0.6,0-1.2,0.3-1.7c0.4-0.5,0.9-0.8,1.5-0.8h20.8c1.1,0,1.9,0.9,1.9,1.9s-0.9,1.9-1.9,1.9H445
			c1.1,3.1,2.7,6,4.7,8.6c2.8,0,5.6,0.1,8.2,0.2c11.2,0.3,20,0.7,20,0.7c0.5,0,0.9,0.4,0.9,0.9s-0.4,0.9-0.9,0.9c0,0-5.3,0.3-13,0.5
			c6,6.5,14.6,10.5,24.1,10.5c1.3,0,2.5-0.1,3.8-0.2v-10c0-1.1,0.9-1.9,1.9-1.9c1.1,0,1.9,0.9,1.9,1.9v11.6c0,0,0,0,0,0.1v17.1
			c0,0.9-0.7,1.7-1.6,1.9c-2.8,0.5-5.6,0.7-8.5,0.7c-13.2,0-25.3-5-34.5-13.1L438.2,230l25.5,25.5c0.4,0.4,0.6,0.8,0.6,1.4V282h30.2
			c1.1,0,1.9,0.9,1.9,1.9c0,1.1-0.9,1.9-1.9,1.9h-32.1c-1.1,0-1.9-0.9-1.9-1.9V270h-18.9c-1.1,0-1.9-0.9-1.9-1.9
			c0-1.1,0.9-1.9,1.9-1.9h18.9v-8.5l-37.2-37.2h-11c-1.1,0-1.9-0.9-1.9-1.9c0-1.1,0.9-1.9,1.9-1.9h11.7c0.5,0,1,0.2,1.4,0.6l10,10
			l13.7-13.7c-4.4-4.5-7.9-9.7-10.4-15.6c-2.6,0-5.1-0.1-7.5-0.2c-11.2-0.3-20-0.8-20-0.8c-0.5,0-0.9-0.4-0.9-0.9s0.4-0.9,0.9-0.9
			C411.3,195.3,417.1,195,425.3,194.7z M460,197.8c-0.7,0-1.4,0-2.1,0.1c-2.8,0.1-5.8,0.2-8.8,0.2c-0.2,0-0.5,0.1-0.7,0
			c-1.3,0-2.5,0-3.8,0c-0.5,0-1.1,0-1.6,0c2.5,5.3,6,10.1,10.2,14.1c0,0,0,0,0,0c8.7,8.2,20.4,13.3,33.2,13.3c2.1,0,4.2-0.1,6.3-0.4
			v-13.3c-1.2,0.1-2.5,0.2-3.8,0.2c-11.7,0-22.2-5.5-28.9-14.1C460.1,197.9,460.1,197.9,460,197.8L460,197.8z M408.4,174.9v-10.4
			c0-1.1,0.9-1.9,1.9-1.9c1.1,0,1.9,0.9,1.9,1.9v12.4c0,1.1-0.9,1.9-1.9,1.9h-27.9l-8.3,8.3c-0.7,0.7-2,0.7-2.7,0
			c-0.7-0.7-0.7-2,0-2.7l8.9-8.9c0.4-0.4,0.8-0.6,1.4-0.6H408.4z" style="fill-rule:evenodd;clip-rule:evenodd;fill:#00E6B3;"/>
		<path d="M430.8,281.5l12-12c0.7-0.7,0.7-2,0-2.7c-0.7-0.7-2-0.7-2.7,0l-12,12c-0.7,0.7-0.7,2,0,2.7
			C428.9,282.3,430.1,282.3,430.8,281.5z" style="fill-rule:evenodd;clip-rule:evenodd;fill:#142664;"/>
		<path d="M207.5,238.3c0,0,9.8-26.7,13.7-37.6c1-2.7,3.6-4.5,6.5-4.5H245c2.9,0,5.5-1.8,6.5-4.5
			c2.4-6.6,6.9-19,9.4-25.6c1-2.7,3.6-4.5,6.5-4.5h92.5c2.9,0,5.5,1.8,6.5,4.5c2.4,6.6,6.9,19,9.4,25.6c1,2.7,3.6,4.5,6.5,4.5h17.3
			c2.9,0,5.5,1.8,6.5,4.5c4,10.9,15.1,41.2,15.1,41.2l-29.2-3.6H207.5z" style="fill-rule:evenodd;clip-rule:evenodd;fill:#00E6B3;"/>
		<path d="M340.8,181.8c-1.1-1.2-2.7-1.9-4.4-1.9c-9,0-39,0-48.1,0c-1.7,0-3.2,0.7-4.4,1.9c-2.9,3.1-8.5,9.3-12.3,13.4
			c-2.1,2.3-2.1,5.7,0,8c3.8,4.1,9.5,10.3,12.3,13.4c1.1,1.2,2.7,1.9,4.4,1.9c9,0,39,0,48.1,0c1.7,0,3.2-0.7,4.4-1.9
			c2.9-3.1,8.5-9.3,12.3-13.4c2.1-2.3,2.1-5.7,0-8C349.4,191.2,343.7,185,340.8,181.8z" style="fill-rule:evenodd;clip-rule:evenodd;fill:#FF2E93;"/>
		<path d="M288.4,178h48.1c2.2,0,4.3,0.9,5.8,2.5l12.3,13.4c2.7,3,2.7,7.6,0,10.6c-3.8,4.1-9.5,10.3-12.3,13.4
			c-1.5,1.6-3.6,2.5-5.8,2.5h-48.1c-2.2,0-4.3-0.9-5.8-2.5c-2.9-3.1-8.5-9.3-12.3-13.4c-2.7-3-2.7-7.6,0-10.6
			c3.8-4.1,9.5-10.3,12.3-13.4C284.1,178.9,286.2,178,288.4,178L288.4,178z M342.5,212.1v-1.2h-6.8v5.8h0.7c1.1,0,2.2-0.5,3-1.3
			L342.5,212.1z M325.1,210.9v5.8h6.8v-5.8H325.1z M314.5,210.9v5.8h6.8v-5.8H314.5z M303.9,210.9v5.8h6.8v-5.8H303.9z M293.3,210.9
			v5.8h6.8v-5.8H293.3z M289.5,216.7v-5.8h-6.8v1.6l2.7,3c0.8,0.8,1.8,1.3,3,1.3H289.5z M277.8,207h1.1v-5.8h-6.3
			c0.2,0.3,0.3,0.5,0.6,0.8L277.8,207z M282.7,201.2v5.8h6.8v-5.8H282.7z M293.3,201.2v5.8h6.8v-5.8H293.3z M303.9,201.2v5.8h6.8
			v-5.8H303.9z M314.5,201.2v5.8h6.8v-5.8H314.5z M325.1,201.2v5.8h6.8v-5.8H325.1z M335.7,201.2v5.8h6.8v-5.8H335.7z M352.3,201.2
			h-6v5.8h0.8l4.6-5.1C351.9,201.7,352.1,201.5,352.3,201.2z M272.6,197.4h6.3v-5.8h-1.1l-4.6,5.1
			C272.9,196.8,272.7,197.1,272.6,197.4L272.6,197.4z M282.7,191.5v5.8h6.8v-5.8H282.7z M293.3,191.5v5.8h6.8v-5.8H293.3z
			 M303.9,191.5v5.8h6.8v-5.8H303.9z M314.5,191.5v5.8h6.8v-5.8H314.5z M325.1,191.5v5.8h6.8v-5.8H325.1z M335.7,191.5v5.8h6.8v-5.8
			H335.7z M347.1,191.5h-0.8v5.8h6c-0.2-0.3-0.3-0.5-0.6-0.8L347.1,191.5L347.1,191.5z M289.5,181.8h-1.1c-1.1,0-2.2,0.5-3,1.3
			l-2.7,3v1.6h6.8V181.8z M293.3,187.7h6.8v-5.8h-6.8V187.7z M303.9,187.7h6.8v-5.8h-6.8V187.7z M314.5,187.7h6.8v-5.8h-6.8V187.7z
			 M325.1,187.7h6.8v-5.8h-6.8V187.7z M335.7,181.8v5.8h6.8v-1.2l-3.1-3.4c-0.8-0.8-1.8-1.3-3-1.3H335.7z" style="fill-rule:evenodd;clip-rule:evenodd;fill:#142664;"/>
		<circle cx="343.1" cy="171.4" r="2.9" style="fill-rule:evenodd;clip-rule:evenodd;fill:#142664;"/>
		<circle cx="332" cy="171.4" r="2.9" style="fill-rule:evenodd;clip-rule:evenodd;fill:#142664;"/>
		<path d="M387.2,220.5v17.7c0,1.1-0.9,1.9-1.9,1.9c-1.1,0-1.9-0.9-1.9-1.9v-19.6c0-1.1,0.9-1.9,1.9-1.9h27
			c1.1,0,1.9,0.9,1.9,1.9c0,1.1-0.9,1.9-1.9,1.9H387.2z" style="fill-rule:evenodd;clip-rule:evenodd;fill:#142664;"/>
		<path d="M341.8,215.5l24.1,24.1c0.7,0.7,2,0.7,2.7,0c0.7-0.7,0.7-2,0-2.7l-24.1-24.1c-0.7-0.7-2-0.7-2.7,0
			C341.1,213.5,341.1,214.7,341.8,215.5z M234.3,223.7c-0.9-1.4-1.5-3.2-1.5-5c0-5.1,4.1-9.2,9.2-9.2c4.4,0,8.1,3.1,9,7.3h45.4
			c1.1,0,1.9,0.9,1.9,1.9c0,1.1-0.9,1.9-1.9,1.9H251c-0.9,4.2-4.6,7.3-9,7.3c-1.9,0-3.6-0.5-5-1.5l-13.3,13.3c-0.7,0.7-2,0.7-2.7,0
			c-0.7-0.7-0.7-2,0-2.7L234.3,223.7z M238.2,222.5c1,1,2.3,1.6,3.8,1.6c3,0,5.4-2.4,5.4-5.4s-2.4-5.4-5.4-5.4s-5.4,2.4-5.4,5.4
			C236.6,220.1,237.2,221.4,238.2,222.5C238.2,222.4,238.2,222.4,238.2,222.5C238.2,222.5,238.2,222.5,238.2,222.5z M372.8,183.7
			h-28.5c-1.1,0-1.9,0.9-1.9,1.9s0.9,1.9,1.9,1.9h28.5c1.1,0,1.9-0.9,1.9-1.9S373.8,183.7,372.8,183.7z" style="fill-rule:evenodd;clip-rule:evenodd;fill:#142664;"/>
		<path d="M328.3,254.9l-8.2,8.2c-0.4,0.4-0.8,0.6-1.4,0.6h-11.6l-4.8,4.8V280c0,1.1-0.9,1.9-1.9,1.9
			c-1.1,0-1.9-0.9-1.9-1.9v-12.2c0-0.5,0.2-1,0.6-1.4l14.8-14.8v-11.4h-50.7l-3.6,21.9c-0.2,0.9-1,1.6-1.9,1.6h-22.4
			c-1.1,0-1.9-0.9-1.9-1.9c0-1.1,0.9-1.9,1.9-1.9H256l3.2-19.7h-51.8c-1.1,0-1.9-0.9-1.9-1.9c0-1.1,0.9-1.9,1.9-1.9h54
			c0,0,0,0,0.1,0h130.2c1.1,0,1.9,0.9,1.9,1.9c0,1.1-0.9,1.9-1.9,1.9h-74.1v10.9h27.3c0.5,0,1,0.2,1.4,0.6l13.3,13.3
			c1.4-3.9,4.9-6.9,9.1-7.6v-8.2c0-1.1,0.9-1.9,1.9-1.9h7.4c1.1,0,1.9,0.9,1.9,1.9c0,1.1-0.9,1.9-1.9,1.9h-5.5v8
			c0,1.1-0.9,1.9-1.9,1.9c-4.3,0-7.8,3.5-7.8,7.8c0,0.8-0.5,1.5-1.2,1.8c-0.7,0.3-1.5,0.1-2.1-0.4l-15.3-15.3L328.3,254.9
			L328.3,254.9z M317.9,259.9l5-5h-7l-5,5H317.9z" style="fill-rule:evenodd;clip-rule:evenodd;fill:#142664;"/>
		<path d="M417.6,233c1.6,4.7,3.2,7.9,9.5,14.1c6.2,6.2-13-2.8-13-2.8S416,228.3,417.6,233z" style="fill-rule:evenodd;clip-rule:evenodd;fill:#00E6B3;"/>
		<path d="M537.4,621.7c3,0,5.5-3.1,5.5-6.8c0-3.7-2.5-6.8-5.5-6.8h-46.9v13.6L537.4,621.7L537.4,621.7L537.4,621.7z" style="fill-rule:evenodd;clip-rule:evenodd;fill:#00E6B3;"/>
		<ellipse cx="490.4" cy="614.9" rx="5.5" ry="6.8" style="fill-rule:evenodd;clip-rule:evenodd;fill:#FFFFFF;"/>
		<path d="M486.1,618.9c0.3,0.4,0.6,0.8,1.1,1.2c0.9,0.7,2.3,1.4,4.2,1.6l-3.2,3.2c-1.4-0.5-2.5-1.1-3.4-1.8
			c-0.6-0.5-1.1-1-1.5-1.4L486.1,618.9L486.1,618.9z" style="fill-rule:evenodd;clip-rule:evenodd;fill:#142664;"/>
	</g>
</g>
</svg>