<?xml version="1.0" encoding="UTF-8"?>
<svg xmlns="http://www.w3.org/2000/svg" width="512pt" height="512pt"
     viewBox="0 0 512 512" version="1.1">
  <g id="surface1">
    <path style=" stroke:none;fill-rule:nonzero;fill:#F48884;fill-opacity:1;"
          d="M 348.398438 154.398438 L 348.398438 356.398438 C 348.398438 394 385.605469 424.398438 348.398438 424.398438 L 133.199219 424.398438 C 96 424.398438 133.199219 394 133.199219 356.398438 L 133.199219 152.398438 L 299.601563 152.398438 L 348.398438 154.398438 "/>
    <path style=" stroke:none;fill-rule:nonzero;fill:#FFFFFF;fill-opacity:1;"
          d="M 348.398438 154.398438 L 348.398438 228.398438 L 133.199219 228.398438 L 133.199219 152.398438 L 299.601563 152.398438 L 348.398438 154.398438 "/>
    <path style=" stroke:none;fill-rule:nonzero;fill:#DB7A77;fill-opacity:1;"
          d="M 348.398438 228.398438 L 309.199219 228.398438 L 309.199219 356 C 309.199219 393.601563 346.398438 424 309.199219 424 L 348 424 C 362.949219 424 366.074219 419.195313 364.414063 411.039063 C 361.613281 398.660156 348.398438 378.808594 348.398438 356.398438 L 348.398438 228.398438 "/>
    <path style=" stroke:none;fill-rule:nonzero;fill:#E5E5E5;fill-opacity:1;"
          d="M 311.113281 152.871094 L 309.199219 154.398438 L 309.199219 228.398438 L 348.398438 228.398438 L 348.398438 154.398438 L 311.113281 152.871094 "/>
    <path style=" stroke:none;fill-rule:nonzero;fill:#FFFFFF;fill-opacity:1;"
          d="M 184 314.398438 C 177.199219 314.398438 172 309.199219 172 302.398438 L 172 152.398438 C 172 145.601563 177.199219 140.398438 184 140.398438 C 190.800781 140.398438 196 145.601563 196 152.398438 L 196 302.398438 C 196 309.199219 190.398438 314.398438 184 314.398438 Z "/>
    <path style=" stroke:none;fill-rule:nonzero;fill:#FFFFFF;fill-opacity:1;"
          d="M 236.800781 314.398438 C 230 314.398438 224.800781 309.199219 224.800781 302.398438 L 224.800781 152.398438 C 224.800781 145.601563 230 140.398438 236.800781 140.398438 C 243.601563 140.398438 248.800781 145.601563 248.800781 152.398438 L 248.800781 302.398438 C 248.800781 309.199219 243.199219 314.398438 236.800781 314.398438 Z "/>
    <path style=" stroke:none;fill-rule:nonzero;fill:#FFFFFF;fill-opacity:1;"
          d="M 289.601563 314.398438 C 282.800781 314.398438 277.601563 309.199219 277.601563 302.398438 L 277.601563 152.398438 C 277.601563 145.601563 282.800781 140.398438 289.601563 140.398438 C 296.398438 140.398438 301.601563 145.601563 301.601563 152.398438 L 301.601563 302.398438 C 301.601563 309.199219 296 314.398438 289.601563 314.398438 Z "/>
    <path style=" stroke:none;fill-rule:nonzero;fill:#FFFFFF;fill-opacity:1;"
          d="M 333.199219 88 L 132.398438 88 C 114.800781 88 100.398438 102.398438 100.398438 120.398438 C 100.398438 138.398438 114.800781 152.800781 132.398438 152.800781 L 318 152.800781 C 327.199219 152.800781 331.601563 160.398438 331.601563 169.601563 C 331.601563 178.800781 339.199219 186.398438 348.398438 186.398438 C 357.601563 186.398438 365.199219 178.800781 365.199219 169.601563 L 365.199219 120.398438 C 365.199219 102.398438 350.800781 88 333.199219 88 Z "/>
    <path style=" stroke:none;fill-rule:nonzero;fill:#454B54;fill-opacity:1;"
          d="M 382 174.398438 L 376.800781 174.398438 C 377.199219 172.800781 377.199219 171.199219 377.199219 169.601563 L 377.199219 120.398438 C 377.199219 96 357.601563 76 333.199219 76 L 132.398438 76 C 108 76 88.398438 96 88.398438 120.398438 C 88.398438 140.800781 102.398438 158 121.199219 163.199219 L 121.199219 356 C 121.199219 368.398438 116 380.398438 111.601563 390.800781 C 106.398438 403.601563 101.199219 415.601563 108 425.601563 C 114 434.800781 125.199219 435.601563 133.199219 435.601563 L 348.398438 435.601563 C 356.398438 435.601563 368 434.398438 373.601563 425.601563 C 380.398438 415.601563 375.199219 403.601563 370 390.800781 C 366.800781 383.601563 363.601563 376 362 368 L 382.398438 368 C 407.601563 368 428 347.199219 428 322 L 428 220.398438 C 427.601563 195.199219 407.199219 174.398438 382 174.398438 Z M 112.398438 120.398438 C 112.398438 109.199219 121.601563 100 132.398438 100 L 333.199219 100 C 344.398438 100 353.199219 109.199219 353.199219 120.398438 L 353.199219 169.601563 C 353.199219 172.398438 351.199219 174.398438 348.398438 174.398438 C 345.601563 174.398438 343.601563 172 343.601563 169.601563 C 343.601563 152.398438 333.199219 140.800781 318 140.800781 L 132.398438 140.800781 C 121.199219 140.398438 112.398438 131.601563 112.398438 120.398438 Z M 348.398438 412 L 133.199219 412 C 131.601563 412 130.398438 412 129.199219 412 C 130 408.800781 132 404.398438 133.601563 400.800781 C 138.800781 388.800781 145.199219 373.601563 145.199219 356.398438 L 145.199219 164.398438 L 317.601563 164.398438 C 318 164.398438 318 164.398438 318 164.398438 C 318.398438 164.800781 318.800781 166.398438 318.800781 169.199219 C 318.800781 180.800781 325.601563 190.800781 335.601563 195.601563 L 335.601563 356 C 335.601563 373.199219 342 388.398438 347.199219 400.398438 C 348.800781 404 350.800781 408.398438 351.601563 411.601563 C 351.199219 412 350 412 348.398438 412 Z M 403.601563 322 C 403.601563 334 394 344 382 344 L 360.398438 344 L 360.398438 198.398438 L 382 198.398438 C 394 198.398438 403.601563 208.398438 403.601563 220.398438 Z "/>
  </g>
</svg>
