<?xml version="1.0" encoding="UTF-8" standalone="yes"?>
<svg xmlns="http://www.w3.org/2000/svg" xmlns:xlink="http://www.w3.org/1999/xlink" viewBox="0 0 50 50" version="1.1" width="500" height="500" fill="#ffffff">
  <g id="surface1">
    <path style=" " d="M 9.59375 0 C 9.539063 0.015625 9.488281 0.0390625 9.4375 0.0625 C 9.4375 0.0625 3 2.199219 3 8.53125 C 3 11.179688 4.648438 13.296875 6.84375 14.59375 C 6.632813 14.71875 6.433594 14.839844 6.25 14.96875 C 4.773438 15.988281 4.203125 16.789063 2.84375 17 C 2.457031 17.058594 2.136719 17.335938 2.03125 17.714844 C 1.921875 18.089844 2.046875 18.496094 2.34375 18.75 C 5.273438 21.257813 8.308594 21.242188 10.40625 20.5 C 10.515625 20.460938 10.613281 20.417969 10.71875 20.375 C 9.839844 22.382813 9.15625 24.25 8.6875 25.65625 C 8.542969 26.089844 8.710938 26.566406 9.09375 26.8125 C 9.09375 26.8125 17 31.980469 17 41 C 17.003906 41.273438 17.113281 41.53125 17.3125 41.71875 C 17.3125 41.71875 18 42.351563 19.09375 43.0625 C 19.046875 43.367188 19 43.683594 19 44 C 19 47.300781 21.699219 50 25 50 C 28.300781 50 31 47.300781 31 44 C 31 43.683594 30.957031 43.363281 30.90625 43.0625 C 32 42.351563 32.6875 41.71875 32.6875 41.71875 C 32.886719 41.53125 32.996094 41.273438 33 41 C 33 31.980469 40.90625 26.8125 40.90625 26.8125 C 41.289063 26.566406 41.457031 26.089844 41.3125 25.65625 C 40.84375 24.246094 40.160156 22.382813 39.28125 20.375 C 39.386719 20.417969 39.484375 20.460938 39.59375 20.5 C 41.691406 21.242188 44.726563 21.257813 47.65625 18.75 C 47.953125 18.496094 48.078125 18.089844 47.96875 17.714844 C 47.863281 17.335938 47.542969 17.058594 47.15625 17 C 45.796875 16.789063 45.226563 15.988281 43.75 14.96875 C 43.566406 14.839844 43.367188 14.71875 43.15625 14.59375 C 45.351563 13.296875 47 11.179688 47 8.53125 C 47 2.199219 40.5625 0.0625 40.5625 0.0625 C 40.433594 0.015625 40.292969 -0.0078125 40.15625 0 C 39.757813 0.0390625 39.421875 0.308594 39.296875 0.691406 C 39.175781 1.070313 39.292969 1.488281 39.59375 1.75 C 39.59375 1.75 41.46875 3.277344 41.46875 6.65625 C 41.46875 7.261719 41.199219 7.761719 40.65625 8.25 C 40.113281 8.738281 39.285156 9.179688 38.25 9.40625 C 36.179688 9.863281 33.40625 9.539063 30.9375 8.03125 C 30.90625 8.007813 30.875 7.988281 30.84375 7.96875 C 29.109375 6.613281 27.171875 5.75 25 5.75 C 22.808594 5.75 20.84375 6.621094 19.09375 8 C 19.082031 8.011719 19.074219 8.019531 19.0625 8.03125 C 16.59375 9.539063 13.820313 9.863281 11.75 9.40625 C 10.714844 9.179688 9.886719 8.738281 9.34375 8.25 C 8.800781 7.761719 8.53125 7.261719 8.53125 6.65625 C 8.53125 3.277344 10.40625 1.75 10.40625 1.75 C 10.75 1.460938 10.859375 0.972656 10.667969 0.566406 C 10.476563 0.15625 10.039063 -0.0742188 9.59375 0 Z M 6.90625 4.09375 C 6.691406 4.851563 6.53125 5.6875 6.53125 6.65625 C 6.53125 7.871094 7.125 8.964844 8 9.75 C 8.875 10.535156 10.039063 11.054688 11.34375 11.34375 C 12.71875 11.648438 14.285156 11.671875 15.875 11.375 C 15.460938 11.910156 15.070313 12.464844 14.6875 13.03125 C 14.472656 13.027344 14.277344 13 14.03125 13 C 12.074219 13 10.539063 13.222656 9.3125 13.5625 C 6.882813 12.71875 5 10.796875 5 8.53125 C 5 6.484375 5.898438 5.125 6.90625 4.09375 Z M 43.09375 4.09375 C 44.101563 5.125 45 6.484375 45 8.53125 C 45 10.796875 43.117188 12.71875 40.6875 13.5625 C 39.460938 13.222656 37.925781 13 35.96875 13 C 35.722656 13 35.527344 13.027344 35.3125 13.03125 C 34.929688 12.460938 34.539063 11.910156 34.125 11.375 C 35.714844 11.671875 37.28125 11.648438 38.65625 11.34375 C 39.960938 11.054688 41.125 10.535156 42 9.75 C 42.875 8.964844 43.46875 7.871094 43.46875 6.65625 C 43.46875 5.6875 43.308594 4.851563 43.09375 4.09375 Z M 25 7.75 C 26.617188 7.75 28.210938 8.441406 29.6875 9.59375 C 29.734375 9.640625 29.789063 9.683594 29.84375 9.71875 C 31.316406 10.90625 32.675781 12.558594 33.90625 14.4375 C 33.957031 14.554688 34.03125 14.660156 34.125 14.75 C 34.796875 15.800781 35.410156 16.902344 35.96875 18 C 35.976563 18.03125 35.988281 18.0625 36 18.09375 C 36.003906 18.101563 35.996094 18.117188 36 18.125 C 36.027344 18.179688 36.058594 18.230469 36.09375 18.28125 C 37.445313 20.972656 38.472656 23.640625 39.15625 25.625 C 37.566406 26.773438 31.339844 31.828125 31.0625 40.46875 C 30.957031 40.5625 30.65625 40.816406 30.21875 41.125 C 30.128906 40.96875 30.070313 40.804688 29.96875 40.65625 C 29.972656 40.605469 30 40.550781 30 40.5 C 30 39.671875 29.328125 39 28.5 39 C 27.671875 39 27 39.671875 27 40.5 C 27 41.308594 27.636719 41.96875 28.4375 42 C 28.460938 42.039063 28.476563 42.082031 28.5 42.125 C 27.503906 42.601563 26.300781 43 25 43 C 23.699219 43 22.496094 42.601563 21.5 42.125 C 21.523438 42.082031 21.539063 42.039063 21.5625 42 C 22.363281 41.96875 23 41.308594 23 40.5 C 23 39.671875 22.328125 39 21.5 39 C 20.671875 39 20 39.671875 20 40.5 C 20 40.550781 19.996094 40.605469 20 40.65625 C 19.898438 40.804688 19.835938 40.96875 19.75 41.125 C 19.324219 40.820313 19.039063 40.558594 18.9375 40.46875 C 18.660156 31.839844 12.449219 26.789063 10.84375 25.625 C 11.523438 23.652344 12.535156 20.992188 13.875 18.3125 C 13.910156 18.273438 13.941406 18.230469 13.96875 18.1875 C 13.980469 18.167969 13.988281 18.144531 14 18.125 C 14.027344 18.066406 14.046875 18 14.0625 17.9375 C 14.609375 16.871094 15.195313 15.800781 15.84375 14.78125 C 15.890625 14.734375 15.933594 14.679688 15.96875 14.625 C 15.984375 14.601563 16.015625 14.585938 16.03125 14.5625 C 16.070313 14.503906 16.101563 14.441406 16.125 14.375 C 17.335938 12.535156 18.679688 10.921875 20.125 9.75 C 20.179688 9.714844 20.234375 9.671875 20.28125 9.625 C 21.769531 8.453125 23.367188 7.75 25 7.75 Z M 13.4375 15 C 13.046875 15.664063 12.664063 16.355469 12.3125 17.03125 C 12.15625 17.1875 11.191406 18.105469 9.71875 18.625 C 8.441406 19.078125 6.902344 19.183594 5.09375 18.1875 C 5.929688 17.695313 6.671875 17.128906 7.40625 16.625 C 7.945313 16.253906 8.5625 15.910156 9.40625 15.625 C 9.597656 15.613281 9.78125 15.550781 9.9375 15.4375 C 10.824219 15.199219 11.96875 15.035156 13.4375 15 Z M 36.5625 15 C 38.066406 15.035156 39.230469 15.21875 40.125 15.46875 C 40.273438 15.5625 40.449219 15.617188 40.625 15.625 C 41.453125 15.910156 42.058594 16.257813 42.59375 16.625 C 43.328125 17.128906 44.070313 17.695313 44.90625 18.1875 C 43.097656 19.183594 41.558594 19.078125 40.28125 18.625 C 38.808594 18.105469 37.84375 17.1875 37.6875 17.03125 C 37.335938 16.355469 36.953125 15.664063 36.5625 15 Z M 15.125 22.1875 C 15.125 22.1875 14.226563 26.386719 17.8125 27.78125 C 20.039063 28.648438 21.96875 26.78125 21.96875 26.78125 Z M 34.875 22.1875 L 28.03125 26.78125 C 28.03125 26.78125 29.960938 28.648438 32.1875 27.78125 C 35.773438 26.386719 34.875 22.1875 34.875 22.1875 Z M 21 44.125 C 22.15625 44.628906 23.511719 45 25 45 C 26.488281 45 27.84375 44.628906 29 44.125 C 28.933594 46.285156 27.179688 48 25 48 C 22.820313 48 21.066406 46.285156 21 44.125 Z "/>
  </g>
</svg>
