<?xml version="1.0" encoding="UTF-8"?>
<svg xmlns="http://www.w3.org/2000/svg" xmlns:xlink="http://www.w3.org/1999/xlink" width="512pt" height="512pt" viewBox="0 0 512 512" version="1.1">
<g id="surface1">
<path style=" stroke:none;fill-rule:nonzero;fill:#FFFFFF;fill-opacity:1;" d="M 16 296 L 496 296 L 496 496 L 16 496 Z "/>
<path style=" stroke:none;fill-rule:nonzero;fill:#D3D8DD;fill-opacity:1;" d="M 16 216 L 496 216 L 496 296 L 16 296 Z "/>
<path style=" stroke:none;fill-rule:nonzero;fill:#444B54;fill-opacity:1;" d="M 496 204 L 16 204 C 9.199219 204 4 209.199219 4 216 L 4 496 C 4 502.800781 9.199219 504 16 504 C 22.800781 504 28 502.800781 28 496 L 28 308 L 484 308 L 484 496 C 484 502.800781 489.199219 504 496 504 C 502.800781 504 508 502.800781 508 496 L 508 216 C 508 209.199219 502.800781 204 496 204 Z M 28 228 L 484 228 L 484 284 L 28 284 Z "/>
<path style=" stroke:none;fill-rule:nonzero;fill:#FFFFFF;fill-opacity:1;" d="M 340 96 L 340 496 L 172 496 L 172 96 L 256 16 Z "/>
<path style=" stroke:none;fill-rule:nonzero;fill:#444B54;fill-opacity:1;" d="M 496 484 L 352 484 L 352 96 C 352 92.800781 350.800781 89.601563 348.398438 87.601563 L 264.398438 7.601563 C 259.601563 3.199219 252.398438 3.199219 248 7.601563 L 164 87.601563 C 161.199219 89.601563 160 92.800781 160 96 L 160 484 L 16 484 C 9.199219 484 4 489.199219 4 496 C 4 502.800781 9.199219 508 16 508 L 496 508 C 502.800781 508 508 502.800781 508 496 C 508 489.199219 502.800781 484 496 484 Z M 328 484 L 296 484 L 296 436 C 296 414 278 396 256 396 C 234 396 216 414 216 436 L 216 484 L 184 484 L 184 101.199219 L 256 32.398438 L 328 100.800781 Z "/>
<path style=" stroke:none;fill-rule:nonzero;fill:#D3D8DD;fill-opacity:1;" d="M 256 128 C 249.199219 128 244 122.800781 244 116 C 244 109.199219 249.199219 104 256 104 C 262.800781 104 268 109.199219 268 116 C 268 122.800781 262.800781 128 256 128 Z "/>
<path style=" stroke:none;fill-rule:nonzero;fill:#D3D8DD;fill-opacity:1;" d="M 256 140 C 242.800781 140 232 129.199219 232 116 C 232 102.800781 242.800781 92 256 92 C 269.199219 92 280 102.800781 280 116 C 280 129.199219 269.199219 140 256 140 Z M 256 116 Z M 256 116 Z M 256 116 Z M 256 116 Z M 256 116 Z M 256 116 Z M 256 116 Z M 256 116 Z "/>
<path style=" stroke:none;fill-rule:nonzero;fill:#D3D8DD;fill-opacity:1;" d="M 268 352 L 244 352 L 244 196 C 244 189.199219 249.199219 184 256 184 C 262.800781 184 268 189.199219 268 196 Z "/>
<path style=" stroke:none;fill-rule:nonzero;fill:#D3D8DD;fill-opacity:1;" d="M 268 364 L 244 364 C 237.199219 364 232 358.800781 232 352 L 232 196 C 232 182.800781 242.800781 172 256 172 C 269.199219 172 280 182.800781 280 196 L 280 352 C 280 358.800781 274.800781 364 268 364 Z "/>
<path style=" stroke:none;fill-rule:nonzero;fill:#D3D8DD;fill-opacity:1;" d="M 72 368 L 60 368 L 60 350 C 60 346.800781 62.800781 344 66 344 C 69.199219 344 72 346.800781 72 350 Z "/>
<path style=" stroke:none;fill-rule:nonzero;fill:#D3D8DD;fill-opacity:1;" d="M 72 380 L 60 380 C 53.199219 380 48 374.800781 48 368 L 48 350 C 48 340 56 332 66 332 C 76 332 84 340 84 350 L 84 368 C 84 374.800781 78.800781 380 72 380 Z "/>
<path style=" stroke:none;fill-rule:nonzero;fill:#D3D8DD;fill-opacity:1;" d="M 72 448 L 60 448 L 60 430 C 60 426.800781 62.800781 424 66 424 C 69.199219 424 72 426.800781 72 430 Z "/>
<path style=" stroke:none;fill-rule:nonzero;fill:#D3D8DD;fill-opacity:1;" d="M 72 460 L 60 460 C 53.199219 460 48 454.800781 48 448 L 48 430 C 48 420 56 412 66 412 C 76 412 84 420 84 430 L 84 448 C 84 454.800781 78.800781 460 72 460 Z "/>
<path style=" stroke:none;fill-rule:nonzero;fill:#D3D8DD;fill-opacity:1;" d="M 132 368 L 120 368 L 120 350 C 120 346.800781 122.800781 344 126 344 C 129.199219 344 132 346.800781 132 350 Z "/>
<path style=" stroke:none;fill-rule:nonzero;fill:#D3D8DD;fill-opacity:1;" d="M 132 380 L 120 380 C 113.199219 380 108 374.800781 108 368 L 108 350 C 108 340 116 332 126 332 C 136 332 144 340 144 350 L 144 368 C 144 374.800781 138.800781 380 132 380 Z "/>
<path style=" stroke:none;fill-rule:nonzero;fill:#D3D8DD;fill-opacity:1;" d="M 132 448 L 120 448 L 120 430 C 120 426.800781 122.800781 424 126 424 C 129.199219 424 132 426.800781 132 430 Z "/>
<path style=" stroke:none;fill-rule:nonzero;fill:#D3D8DD;fill-opacity:1;" d="M 132 460 L 120 460 C 113.199219 460 108 454.800781 108 448 L 108 430 C 108 420 116 412 126 412 C 136 412 144 420 144 430 L 144 448 C 144 454.800781 138.800781 460 132 460 Z "/>
<path style=" stroke:none;fill-rule:nonzero;fill:#D3D8DD;fill-opacity:1;" d="M 452 368 L 440 368 L 440 350 C 440 346.800781 442.800781 344 446 344 C 449.199219 344 452 346.800781 452 350 Z "/>
<path style=" stroke:none;fill-rule:nonzero;fill:#D3D8DD;fill-opacity:1;" d="M 452 380 L 440 380 C 433.199219 380 428 374.800781 428 368 L 428 350 C 428 340 436 332 446 332 C 456 332 464 340 464 350 L 464 368 C 464 374.800781 458.800781 380 452 380 Z "/>
<path style=" stroke:none;fill-rule:nonzero;fill:#D3D8DD;fill-opacity:1;" d="M 452 448 L 440 448 L 440 430 C 440 426.800781 442.800781 424 446 424 C 449.199219 424 452 426.800781 452 430 Z "/>
<path style=" stroke:none;fill-rule:nonzero;fill:#D3D8DD;fill-opacity:1;" d="M 452 460 L 440 460 C 433.199219 460 428 454.800781 428 448 L 428 430 C 428 420 436 412 446 412 C 456 412 464 420 464 430 L 464 448 C 464 454.800781 458.800781 460 452 460 Z "/>
<path style=" stroke:none;fill-rule:nonzero;fill:#D3D8DD;fill-opacity:1;" d="M 396 368 L 384 368 L 384 350 C 384 346.800781 386.800781 344 390 344 C 393.199219 344 396 346.800781 396 350 Z "/>
<path style=" stroke:none;fill-rule:nonzero;fill:#D3D8DD;fill-opacity:1;" d="M 396 380 L 384 380 C 377.199219 380 372 374.800781 372 368 L 372 350 C 372 340 380 332 390 332 C 400 332 408 340 408 350 L 408 368 C 408 374.800781 402.800781 380 396 380 Z "/>
<path style=" stroke:none;fill-rule:nonzero;fill:#D3D8DD;fill-opacity:1;" d="M 396 448 L 384 448 L 384 430 C 384 426.800781 386.800781 424 390 424 C 393.199219 424 396 426.800781 396 430 Z "/>
<path style=" stroke:none;fill-rule:nonzero;fill:#D3D8DD;fill-opacity:1;" d="M 396 460 L 384 460 C 377.199219 460 372 454.800781 372 448 L 372 430 C 372 420 380 412 390 412 C 400 412 408 420 408 430 L 408 448 C 408 454.800781 402.800781 460 396 460 Z "/>
</g>
</svg>
