<?xml version="1.0" encoding="UTF-8"?>
<svg xmlns="http://www.w3.org/2000/svg" xmlns:xlink="http://www.w3.org/1999/xlink" width="512pt" height="512pt" viewBox="0 0 512 512" version="1.1">
<g id="surface2732">
<path style=" stroke:none;fill-rule:nonzero;fill:rgb(100%,100%,100%);fill-opacity:1;" d="M 256 508 L 256 199.199219 C 256 192.398438 258.398438 185.601562 262.398438 180.398438 L 297.199219 136.800781 C 301.601562 131.601562 303.601562 124.800781 303.601562 118 L 303.601562 53.601562 L 259.199219 53.601562 L 259.199219 89.601562 L 214 89.601562 L 214 53.601562 L 154 53.601562 L 154 89.601562 L 108.800781 89.601562 L 108.800781 53.601562 L 64 53.601562 L 64 118 C 64 124.800781 66.398438 131.601562 70.398438 136.800781 C 82 151.601562 105.199219 180.398438 105.199219 180.398438 C 109.601562 185.601562 111.601562 192.398438 111.601562 199.199219 L 111.601562 508 L 164.398438 508 L 187.601562 500 L 210.800781 508 Z M 256 508 "/>
<path style=" stroke:none;fill-rule:nonzero;fill:rgb(26.666667%,29.411765%,32.941176%);fill-opacity:1;" d="M 260 199.199219 C 260 192.398438 262.398438 185.601562 266.398438 180.398438 L 301.199219 136.800781 C 305.601562 131.601562 307.601562 124.800781 307.601562 118 L 307.601562 53.601562 L 263.199219 53.601562 L 263.199219 89.601562 L 260 89.601562 C 260 106.398438 246.398438 119.601562 229.601562 119.601562 L 113.601562 119.601562 C 108.800781 119.601562 104.398438 123.199219 104 128 C 103.601562 133.199219 108 137.601562 112.800781 137.601562 L 228 137.601562 C 238 137.601562 243.199219 149.601562 236.398438 156.800781 C 236.398438 156.800781 228 166 225.601562 168.800781 C 220.398438 175.601562 212.800781 179.199219 204.398438 179.199219 L 155.601562 179.199219 C 150.800781 179.199219 146.398438 182.800781 146 187.601562 C 145.601562 192.800781 150 197.199219 154.800781 197.199219 L 217.199219 197.199219 C 233.601562 197.199219 248 211.199219 248 227.601562 Z M 260 199.199219 "/>
<path style=" stroke:none;fill-rule:nonzero;fill:rgb(26.666667%,29.411765%,32.941176%);fill-opacity:1;" d="M 260 507.601562 C 253.199219 507.601562 248 502.398438 248 495.601562 L 248 199.199219 C 248 189.601562 251.199219 180.398438 257.199219 172.800781 L 292 129.199219 C 294.398438 126 296 122 296 118 L 296 65.601562 L 275.199219 65.601562 L 275.199219 89.601562 C 275.199219 96.398438 270 101.601562 263.199219 101.601562 L 218 101.601562 C 211.199219 101.601562 206 96.398438 206 89.601562 L 206 65.601562 L 170 65.601562 L 170 89.601562 C 170 96.398438 164.800781 101.601562 158 101.601562 L 121.199219 101.601562 C 114.398438 101.601562 109.199219 96.398438 109.199219 89.601562 C 109.199219 82.800781 114.398438 77.601562 121.199219 77.601562 L 146 77.601562 L 146 53.601562 C 146 46.800781 151.199219 41.601562 158 41.601562 L 218 41.601562 C 224.800781 41.601562 230 46.800781 230 53.601562 L 230 77.601562 L 250.800781 77.601562 L 250.800781 53.601562 C 250.800781 46.800781 256 41.601562 262.800781 41.601562 L 308 41.601562 C 314.800781 41.601562 320 46.800781 320 53.601562 L 320 118 C 320 127.601562 316.800781 136.800781 310.800781 144.398438 L 276 188 C 273.601562 191.199219 272 195.199219 272 199.199219 L 272 495.601562 C 272 502 266.800781 507.601562 260 507.601562 Z M 260 507.601562 "/>
<path style=" stroke:none;fill-rule:nonzero;fill:rgb(26.666667%,29.411765%,32.941176%);fill-opacity:1;" d="M 112 508 C 105.199219 508 100 502.800781 100 496 L 100 199.199219 C 100 195.199219 98.398438 191.199219 96 188 L 61.199219 144.398438 C 55.199219 136.800781 52 127.601562 52 118 L 52 53.601562 C 52 46.800781 57.199219 41.601562 64 41.601562 L 96.800781 41.601562 C 103.601562 41.601562 108.800781 46.800781 108.800781 53.601562 C 108.800781 60.398438 103.601562 65.601562 96.800781 65.601562 L 76 65.601562 L 76 118 C 76 122 77.601562 126 80 129.199219 L 114.800781 172.800781 C 120.800781 180.398438 124 189.601562 124 199.199219 L 124 496 C 124 502.800781 118.800781 508 112 508 Z M 211.199219 508 L 164.800781 508 C 158 508 152.800781 502.800781 152.800781 496 L 152.800781 443.601562 C 152.800781 424 168.398438 408.398438 188 408.398438 C 207.601562 408.398438 223.199219 424 223.199219 443.601562 L 223.199219 496 C 223.199219 502.800781 218 508 211.199219 508 Z M 256 496 L 260 336 L 300.800781 337.601562 L 300.800781 369.601562 L 350 369.601562 L 350 337.601562 L 402 337.601562 L 402 369.601562 L 451.199219 369.601562 L 451.199219 337.601562 L 496 337.601562 L 496 496 Z M 256 496 "/>
<path style=" stroke:none;fill-rule:nonzero;fill:rgb(26.666667%,29.411765%,32.941176%);fill-opacity:1;" d="M 496 508 L 260 508 C 253.199219 508 248 502.800781 248 496 L 248 337.601562 C 248 330.800781 253.199219 325.601562 260 325.601562 L 300.800781 325.601562 C 307.601562 325.601562 312.800781 330.800781 312.800781 337.601562 L 312.800781 357.601562 L 337.601562 357.601562 L 337.601562 337.601562 C 337.601562 330.800781 342.800781 325.601562 349.601562 325.601562 L 401.601562 325.601562 C 408.398438 325.601562 413.601562 330.800781 413.601562 337.601562 L 413.601562 357.601562 L 438.398438 357.601562 L 438.398438 337.601562 C 438.398438 330.800781 443.601562 325.601562 450.398438 325.601562 L 496 325.601562 C 502.800781 325.601562 508 330.800781 508 337.601562 L 508 496 C 508 502.800781 502.800781 508 496 508 Z M 272 484 L 484 484 L 484 349.601562 L 463.199219 349.601562 L 463.199219 369.601562 C 463.199219 376.398438 458 381.601562 451.199219 381.601562 L 402.398438 381.601562 C 395.601562 381.601562 390.398438 376.398438 390.398438 369.601562 L 390.398438 349.601562 L 362.398438 349.601562 L 362.398438 369.601562 C 362.398438 376.398438 357.199219 381.601562 350.398438 381.601562 L 300.800781 381.601562 C 294 381.601562 288.800781 376.398438 288.800781 369.601562 L 288.800781 349.601562 L 272 349.601562 Z M 272 484 "/>
<path style=" stroke:none;fill-rule:nonzero;fill:rgb(26.666667%,29.411765%,32.941176%);fill-opacity:1;" d="M 16 496 L 16 332 L 64 332 L 64 364 L 112 364 L 112 496 Z M 16 496 "/>
<path style=" stroke:none;fill-rule:nonzero;fill:rgb(26.666667%,29.411765%,32.941176%);fill-opacity:1;" d="M 112 508 L 16 508 C 9.199219 508 4 502.800781 4 496 L 4 332 C 4 325.199219 9.199219 320 16 320 L 64 320 C 70.800781 320 76 325.199219 76 332 L 76 352 L 112 352 C 118.800781 352 124 357.199219 124 364 L 124 496 C 124 502.800781 118.800781 508 112 508 Z M 28 484 L 100 484 L 100 376 L 64 376 C 57.199219 376 52 370.800781 52 364 L 52 344 L 28 344 Z M 28 484 "/>
<path style=" stroke:none;fill-rule:nonzero;fill:rgb(26.666667%,29.411765%,32.941176%);fill-opacity:1;" d="M 112 508 L 64 508 C 57.199219 508 52 502.800781 52 496 C 52 489.199219 57.199219 484 64 484 L 112 484 C 118.800781 484 124 489.199219 124 496 C 124 502.800781 118.800781 508 112 508 Z M 112 508 "/>
</g>
</svg>
