<?xml version="1.0" encoding="UTF-8"?>
<svg xmlns="http://www.w3.org/2000/svg" xmlns:xlink="http://www.w3.org/1999/xlink" width="512pt" height="512pt" viewBox="0 0 512 512" version="1.1">
<g id="surface1">
<path style=" stroke:none;fill-rule:nonzero;fill:#FFFFFF;fill-opacity:1;" d="M 51.199219 459.199219 L 146.800781 228.800781 C 226.800781 249.601563 260.800781 283.601563 281.601563 363.601563 Z "/>
<path style=" stroke:none;fill-rule:nonzero;fill:#FFFFFF;fill-opacity:1;" d="M 51.199219 459.199219 L 146.800781 228.800781 C 226.800781 249.601563 260.800781 283.601563 281.601563 363.601563 Z "/>
<path style=" stroke:none;fill-rule:nonzero;fill:#FCF09D;fill-opacity:1;" d="M 236.398438 274 C 168.800781 219.601563 98.800781 350.398438 67.601563 419.601563 L 51.199219 459.199219 L 281.601563 363.601563 C 271.199219 323.601563 257.601563 295.199219 236.398438 274 Z "/>
<path style=" stroke:none;fill-rule:nonzero;fill:#F9B040;fill-opacity:1;" d="M 266.800781 320 L 56 448 L 51.199219 459.199219 L 281.601563 363.601563 C 277.199219 347.199219 272.398438 332.800781 266.800781 320 Z "/>
<path style=" stroke:none;fill-rule:nonzero;fill:#444B54;fill-opacity:1;" d="M 51.199219 471.199219 C 48 471.199219 45.199219 470 42.800781 467.601563 C 39.199219 464 38.398438 459.199219 40.398438 454.398438 L 118.398438 266.398438 C 120.800781 260.398438 128 257.199219 134 260 C 140 262.398438 143.199219 269.601563 140.398438 275.601563 L 73.601563 436.800781 L 267.199219 356.398438 C 249.199219 304.398438 196 253.601563 144 240.398438 C 137.601563 238.800781 133.601563 232 135.199219 225.601563 C 136.800781 219.199219 143.601563 215.199219 150 216.800781 C 214 233.199219 276.800781 296.398438 293.199219 360 C 294.800781 365.601563 291.601563 372 286 374 L 56 470.398438 C 54.398438 471.199219 52.800781 471.199219 51.199219 471.199219 Z "/>
<path style=" stroke:none;fill-rule:nonzero;fill:#444B54;fill-opacity:1;" d="M 254 224 C 252 224 250.398438 223.601563 248.800781 222.800781 C 242.800781 220 240.398438 212.800781 243.601563 206.800781 C 265.199219 164 265.199219 113.199219 243.601563 70.398438 C 240.800781 64.398438 243.199219 57.199219 248.800781 54.398438 C 254.800781 51.601563 262 54 264.800781 59.601563 C 289.601563 109.199219 289.601563 168 264.800781 217.601563 C 262.800781 221.601563 258.398438 224 254 224 Z "/>
<path style=" stroke:none;fill-rule:nonzero;fill:#444B54;fill-opacity:1;" d="M 298.800781 268.398438 C 294.398438 268.398438 290 266 288 261.601563 C 285.199219 255.601563 287.601563 248.398438 293.199219 245.601563 C 342.800781 220.800781 401.601563 220.800781 451.199219 245.601563 C 457.199219 248.398438 459.601563 255.601563 456.398438 261.601563 C 453.601563 267.601563 446.398438 270 440.398438 266.800781 C 397.601563 245.601563 346.800781 245.601563 304 266.800781 C 302.398438 268 300.398438 268.398438 298.800781 268.398438 Z "/>
<path style=" stroke:none;fill-rule:nonzero;fill:#444B54;fill-opacity:1;" d="M 201.601563 194 C 195.199219 194 190 189.199219 189.601563 182.800781 C 188.800781 172.398438 184.398438 162.800781 177.199219 155.601563 C 172.398438 150.800781 172.398438 143.199219 177.199219 138.800781 C 182 134 189.601563 134 194 138.800781 C 205.199219 150 212.398438 165.199219 213.601563 181.199219 C 214 188 209.199219 193.601563 202.398438 194 C 202 194 202 194 201.601563 194 Z "/>
<path style=" stroke:none;fill-rule:nonzero;fill:#659EC9;fill-opacity:1;" d="M 137.601563 128 C 130.800781 128 125.601563 122.800781 125.601563 116 C 125.601563 109.199219 130.800781 104 137.601563 104 C 144.398438 104 149.601563 109.199219 149.601563 116 C 149.601563 122.800781 144.398438 128 137.601563 128 Z "/>
<path style=" stroke:none;fill-rule:nonzero;fill:#F9B040;fill-opacity:1;" d="M 369.601563 388.398438 C 362.800781 388.398438 357.601563 383.199219 357.601563 376.398438 C 357.601563 369.601563 362.800781 364.398438 369.601563 364.398438 C 376.398438 364.398438 381.601563 369.601563 381.601563 376.398438 C 381.601563 382.800781 376.398438 388.398438 369.601563 388.398438 Z "/>
<path style=" stroke:none;fill-rule:nonzero;fill:#FF697B;fill-opacity:1;" d="M 327.199219 114 C 320.398438 114 315.199219 108.800781 315.199219 102 C 315.199219 95.199219 320.398438 90 327.199219 90 C 334 90 339.199219 95.199219 339.199219 102 C 339.199219 108.800781 333.601563 114 327.199219 114 Z "/>
<path style=" stroke:none;fill-rule:nonzero;fill:#8FE5B5;fill-opacity:1;" d="M 228 144.800781 C 221.199219 144.800781 216 139.601563 216 132.800781 C 216 126 221.199219 120.800781 228 120.800781 C 234.800781 120.800781 240 126 240 132.800781 C 240 139.601563 234.800781 144.800781 228 144.800781 Z "/>
<path style=" stroke:none;fill-rule:nonzero;fill:#444B54;fill-opacity:1;" d="M 318.800781 218.398438 C 312 218.398438 306.800781 213.199219 306.800781 206.398438 C 306.800781 199.601563 312 194.398438 318.800781 194.398438 C 325.601563 194.398438 330.800781 199.601563 330.800781 206.398438 C 330.800781 213.199219 325.199219 218.398438 318.800781 218.398438 Z "/>
<path style=" stroke:none;fill-rule:nonzero;fill:#06A18C;fill-opacity:1;" d="M 383.601563 198.800781 C 376.800781 198.800781 371.601563 193.601563 371.601563 186.800781 C 371.601563 180 376.800781 174.800781 383.601563 174.800781 C 390.398438 174.800781 395.601563 180 395.601563 186.800781 C 395.601563 193.601563 390.398438 198.800781 383.601563 198.800781 Z "/>
<path style=" stroke:none;fill-rule:nonzero;fill:#F967F9;fill-opacity:1;" d="M 448.800781 320.398438 C 442 320.398438 436.800781 315.199219 436.800781 308.398438 C 436.800781 301.601563 442 296.398438 448.800781 296.398438 C 455.601563 296.398438 460.800781 301.601563 460.800781 308.398438 C 460.800781 314.800781 455.601563 320.398438 448.800781 320.398438 Z "/>
<path style=" stroke:none;fill-rule:nonzero;fill:#444B54;fill-opacity:1;" d="M 363.601563 336.800781 C 360.398438 336.800781 357.601563 335.601563 355.199219 333.199219 C 348 326 338.398438 321.601563 328 320.800781 C 321.199219 320.398438 316.398438 314.398438 316.800781 308 C 317.199219 301.199219 323.199219 296.398438 329.601563 296.800781 C 345.601563 298 360.800781 304.800781 372 316.398438 C 376.800781 321.199219 376.800781 328.800781 372 333.199219 C 369.601563 335.601563 366.398438 336.800781 363.601563 336.800781 Z "/>
</g>
</svg>
