<?xml version="1.0" encoding="UTF-8" standalone="yes"?>
<svg xmlns="http://www.w3.org/2000/svg" viewBox="0 0 50 50" version="1.1"
     width="500" height="500" fill="#ffffff">
  <g id="surface1">
    <path style=" "
          d="M 12.90625 3 C 8.8125 3 5.5 4.847656 3.3125 7.5625 C 1.125 10.277344 0 13.84375 0 17.40625 C 0 28.464844 7.96875 32.578125 8.4375 32.8125 C 8.453125 32.820313 8.59375 32.90625 8.59375 32.90625 C 9.054688 33.074219 9.566406 32.882813 9.804688 32.457031 C 10.046875 32.03125 9.941406 31.496094 9.5625 31.1875 C 9.5625 31.1875 8.507813 30.472656 7.34375 28.53125 C 6.179688 26.589844 5 23.492188 5 18.8125 C 5 16.957031 5.707031 14.933594 6.84375 13.4375 C 7.980469 11.941406 9.476563 11 11.09375 11 C 12.664063 11 14.742188 12.292969 15.9375 13.8125 C 14.042969 14.679688 10.476563 16 7 16 C 6.449219 16 6 16.449219 6 17 C 6 17.796875 6.398438 18.375 6.875 18.90625 C 7.351563 19.4375 7.976563 19.910156 8.65625 20.34375 C 9.75 21.039063 10.996094 21.609375 12.21875 21.8125 C 12.046875 22.375 11.886719 22.9375 11.75 23.46875 C 11.277344 25.3125 11 26.84375 11 26.84375 C 10.957031 27.136719 11.050781 27.4375 11.25 27.65625 C 11.25 27.65625 13.171875 29.917969 15.125 33.25 C 17.078125 36.582031 19 40.957031 19 45 C 18.992188 45.28125 19.105469 45.554688 19.3125 45.75 C 19.3125 45.75 21.722656 48 25 48 C 28.277344 48 30.6875 45.75 30.6875 45.75 C 30.894531 45.554688 31.007813 45.28125 31 45 C 31 40.957031 32.921875 36.582031 34.875 33.25 C 36.828125 29.917969 38.75 27.65625 38.75 27.65625 C 38.949219 27.4375 39.042969 27.136719 39 26.84375 C 39 26.84375 38.660156 24.515625 37.71875 21.875 C 37.738281 21.875 37.761719 21.875 37.78125 21.875 C 39.089844 21.492188 40.507813 20.8125 41.6875 20.03125 C 42.277344 19.640625 42.800781 19.226563 43.21875 18.75 C 43.636719 18.273438 44 17.71875 44 17 C 44 16.449219 43.550781 16 43 16 C 40.585938 16 38.410156 15.496094 36.78125 14.96875 C 35.96875 14.707031 35.285156 14.433594 34.78125 14.21875 C 34.40625 14.058594 34.234375 13.996094 34.03125 13.90625 C 34.023438 13.894531 34.007813 13.886719 34 13.875 C 35.183594 12.328125 37.3125 11 38.90625 11 C 40.523438 11 42.019531 11.941406 43.15625 13.4375 C 44.292969 14.933594 45 16.957031 45 18.8125 C 45 23.492188 43.820313 26.589844 42.65625 28.53125 C 41.492188 30.472656 40.4375 31.1875 40.4375 31.1875 C 40.058594 31.496094 39.953125 32.03125 40.195313 32.457031 C 40.433594 32.882813 40.945313 33.074219 41.40625 32.90625 C 41.40625 32.90625 41.546875 32.820313 41.5625 32.8125 C 42.03125 32.578125 50 28.464844 50 17.40625 C 50 13.84375 48.859375 10.277344 46.65625 7.5625 C 44.453125 4.847656 41.140625 3 37 3 C 31.246094 3 27.613281 6.789063 26 9.0625 C 25.671875 9.03125 25.34375 9 25 9 C 24.660156 9 24.328125 9.03125 24 9.0625 C 22.386719 6.789063 18.746094 3 12.90625 3 Z M 12.90625 5 C 17.300781 5 20.238281 7.589844 21.8125 9.53125 C 20.046875 10.113281 18.550781 11.140625 17.3125 12.40625 C 15.808594 10.542969 13.53125 9 11.09375 9 C 8.710938 9 6.664063 10.363281 5.25 12.21875 C 3.835938 14.074219 3 16.464844 3 18.8125 C 3 21.226563 3.320313 23.230469 3.78125 24.96875 C 2.792969 22.996094 2 20.644531 2 17.40625 C 2 14.269531 3.015625 11.121094 4.875 8.8125 C 6.734375 6.503906 9.398438 5 12.90625 5 Z M 37 5 C 40.558594 5 43.253906 6.503906 45.125 8.8125 C 46.996094 11.121094 48 14.269531 48 17.40625 C 48 20.644531 47.207031 22.996094 46.21875 24.96875 C 46.679688 23.230469 47 21.226563 47 18.8125 C 47 16.464844 46.164063 14.074219 44.75 12.21875 C 43.335938 10.363281 41.289063 9 38.90625 9 C 36.476563 9 34.191406 10.519531 32.6875 12.375 C 31.425781 11.109375 29.933594 10.074219 28.1875 9.5 C 29.765625 7.5625 32.707031 5 37 5 Z M 25 11 C 25.417969 11 25.832031 11.042969 26.21875 11.09375 C 26.230469 11.09375 26.238281 11.09375 26.25 11.09375 C 28.949219 11.46875 30.953125 13.0625 32.59375 15.28125 C 32.703125 15.433594 32.855469 15.554688 33.03125 15.625 C 33.023438 15.621094 33.453125 15.828125 34 16.0625 C 34.546875 16.296875 35.269531 16.589844 36.15625 16.875 C 37.515625 17.3125 39.3125 17.667969 41.25 17.84375 C 41.039063 18.023438 40.875 18.1875 40.59375 18.375 C 39.621094 19.019531 38.308594 19.621094 37.21875 19.9375 C 37.121094 19.964844 37.023438 20.007813 36.9375 20.0625 C 36.609375 19.34375 36.269531 18.628906 35.84375 17.96875 C 35.667969 17.636719 35.320313 17.429688 34.945313 17.433594 C 34.570313 17.4375 34.230469 17.652344 34.0625 17.992188 C 33.894531 18.328125 33.933594 18.730469 34.15625 19.03125 C 36.050781 21.957031 36.84375 26.28125 36.9375 26.8125 C 36.652344 27.152344 35.011719 29 33.125 32.21875 C 31.160156 35.570313 29.222656 39.976563 29.0625 44.4375 C 28.714844 44.71875 27.089844 46 25 46 C 22.910156 46 21.285156 44.71875 20.9375 44.4375 C 20.777344 39.976563 18.839844 35.570313 16.875 32.21875 C 14.988281 29 13.347656 27.152344 13.0625 26.8125 C 13.109375 26.550781 13.285156 25.539063 13.6875 23.96875 C 14.140625 22.210938 14.820313 20.148438 15.53125 19.0625 C 15.761719 18.734375 15.773438 18.300781 15.5625 17.960938 C 15.351563 17.621094 14.957031 17.441406 14.5625 17.5 C 14.28125 17.542969 14.03125 17.699219 13.875 17.9375 C 13.507813 18.5 13.191406 19.179688 12.90625 19.875 C 12.082031 19.808594 10.761719 19.320313 9.71875 18.65625 C 9.253906 18.359375 8.898438 18.046875 8.59375 17.75 C 12.117188 17.421875 15.40625 16.316406 17.125 15.5 C 17.273438 15.429688 17.402344 15.320313 17.5 15.1875 C 19.019531 13.109375 20.972656 11.542969 23.59375 11.125 C 23.65625 11.121094 23.71875 11.109375 23.78125 11.09375 C 24.167969 11.042969 24.582031 11 25 11 Z M 18.5 26 C 17.671875 26 17 26.894531 17 28 C 17 29.105469 17.671875 30 18.5 30 C 19.328125 30 20 29.105469 20 28 C 20 26.894531 19.328125 26 18.5 26 Z M 31.5 26 C 30.671875 26 30 26.894531 30 28 C 30 29.105469 30.671875 30 31.5 30 C 32.328125 30 33 29.105469 33 28 C 33 26.894531 32.328125 26 31.5 26 Z M 25 39 C 24.328125 39 23.707031 39.109375 23.15625 39.375 C 22.605469 39.640625 22 40.199219 22 41 C 21.949219 41.550781 22.355469 42.042969 22.90625 42.09375 C 23.457031 42.144531 23.949219 41.738281 24 41.1875 C 24.007813 41.183594 24.015625 41.195313 24.03125 41.1875 C 24.203125 41.105469 24.570313 41 25 41 C 25.429688 41 25.796875 41.105469 25.96875 41.1875 C 25.992188 41.199219 25.992188 41.191406 26 41.1875 C 26.050781 41.738281 26.542969 42.144531 27.09375 42.09375 C 27.644531 42.042969 28.050781 41.550781 28 41 C 28 40.199219 27.394531 39.640625 26.84375 39.375 C 26.292969 39.109375 25.671875 39 25 39 Z "/>
  </g>
</svg>
