<?xml version="1.0" encoding="iso-8859-1"?>
<!-- Generator: Adobe Illustrator 17.1.0, SVG Export Plug-In . SVG Version: 6.00 Build 0)  -->
<!DOCTYPE svg PUBLIC "-//W3C//DTD SVG 1.1//EN" "http://www.w3.org/Graphics/SVG/1.1/DTD/svg11.dtd">
<svg fill="#ffffff" id="Capa_1" style="enable-background:new 0 0 512.024 512.024;" version="1.1"
     viewBox="0 0 512.024 512.024"
     x="0px" xml:space="preserve" xmlns="http://www.w3.org/2000/svg"
     y="0px">
<g>
	<path d="M176.034,287.855c-8.821,0-15.998,7.176-15.998,15.998s7.177,15.998,15.998,15.998s15.998-7.176,15.998-15.998
		S184.856,287.855,176.034,287.855z"/>
  <path d="M335.99,287.855c-8.821,0-15.998,7.176-15.998,15.998s7.177,15.998,15.998,15.998s15.998-7.176,15.998-15.998
		S344.811,287.855,335.99,287.855z"/>
  <path d="M461.989,359.839h1.965h0c2.392,0,4.658-1.07,6.178-2.917c1.52-1.847,2.133-4.277,1.672-6.625
		c-0.278-1.416-6.164-29.723-33.961-50.693c0.086-0.016,0.173-0.032,0.259-0.047c5.01-0.911,9.743-1.772,13.387-2.476
		c2.017-0.39,3.516-0.695,4.583-0.936c6.517-1.466,7.885-5.317,7.885-8.289c0-19.268-7.871-39.528-21.347-55.583l10.918-10.587
		c2.46-2.386,3.127-6.074,1.659-9.171c-7.956-16.775-23.723-37.496-45.484-50.693c36.788-36.716,34.811-101.857,23.98-138.019
		c-6.006-20.055-12.396-23.117-16.681-23.676c-6.449-0.845-14.458,2.516-24.477,10.266c-19.3,14.928-49.367,50.342-55.871,88.534
		c-4.691-0.891-9.164-1.568-13.263-2.038c0.465-0.717,0.876-1.358,1.23-1.921c1.899-3.019,4.052-6.441,1.811-10.701
		c-1.383-2.629-4.133-4.289-7.104-4.289c-28.801,0-47.827,6.035-63.316,20.495c-15.489-14.461-34.515-20.495-63.315-20.495
		c-2.971,0-5.721,1.66-7.104,4.289c-2.241,4.26-0.089,7.682,1.811,10.701c0.354,0.563,0.764,1.204,1.229,1.921
		c-3.936,0.451-8.213,1.09-12.698,1.928c-6.542-38.15-36.569-73.51-55.85-88.424c-10.019-7.75-18.026-11.112-24.477-10.266
		c-4.284,0.559-10.675,3.621-16.681,23.675c-10.808,36.089-12.8,101.041,23.759,137.797c-21.95,13.185-37.848,34.046-45.848,50.915
		c-1.469,3.097-0.802,6.785,1.659,9.171l10.918,10.587c-13.476,16.056-21.347,36.316-21.347,55.583c0,2.972,1.368,6.822,7.885,8.289
		c1.066,0.24,2.565,0.546,4.583,0.936c3.644,0.703,8.376,1.564,13.387,2.476c0.086,0.016,0.172,0.031,0.259,0.047
		c-27.798,20.971-33.684,49.277-33.962,50.693c-0.461,2.347,0.152,4.777,1.672,6.625c1.52,1.847,3.786,2.917,6.178,2.917h1.965
		c-4.745,9.025-9.965,21.368-9.965,31.989c0,4.418,3.582,8,8,8h18.831c-7.437,16.072-10.835,30.998-10.835,39.987
		c0,2.76,1.454,5.388,3.795,6.85c3.914,2.442,7.441,0.714,9.775-0.427c2.866-1.402,8.539-4.178,16.565-5.575
		c-1.509,10.427-2.517,26.689,2.233,41.574c0.65,2.037,2.089,3.729,3.995,4.699c1.907,0.969,4.122,1.135,6.15,0.461
		c0.194-0.064,16.814-5.524,35.661-7.102c-1.433,7.063-3.452,15.575-5.52,20.288c-1.055,2.403-0.864,5.171,0.511,7.407
		c1.375,2.235,3.759,3.654,6.38,3.797c0.681,0.037,4.701,0.239,11.063,0.239c22.176,0,72.774-2.462,109.338-22.892
		c36.567,20.432,87.165,22.892,109.338,22.892c6.358,0,10.381-0.202,11.063-0.239c2.621-0.143,5.005-1.562,6.38-3.797
		c1.375-2.236,1.566-5.004,0.511-7.407c-2.068-4.712-4.086-13.222-5.519-20.285c18.798,1.581,35.469,7.036,35.66,7.099
		c2.028,0.673,4.244,0.507,6.15-0.461c1.906-0.97,3.344-2.662,3.995-4.699c4.75-14.884,3.743-31.146,2.233-41.574
		c8.027,1.397,13.7,4.173,16.565,5.575c2.335,1.143,5.863,2.87,9.775,0.427c2.342-1.461,3.795-4.089,3.795-6.85
		c0-8.99-3.399-23.915-10.835-39.987h18.831c4.418,0,8-3.582,8-8C471.954,381.208,466.734,368.864,461.989,359.839z M381.83,43.346
		c14.143-17.07,26.628-25.453,31.686-27.056c4.198,6.59,11.771,31.762,10.976,62.169c-0.663,25.363-6.621,43.481-14.086,56.33
		c-12.951-13.41-30.752-23.733-53.033-30.702c-1.704-0.533-3.4-1.028-5.088-1.501C355.242,84.01,365.897,62.576,381.83,43.346z
		 M99.094,16.29c5.059,1.604,17.544,9.987,31.686,27.056c15.89,19.178,26.531,40.547,29.522,59.088
		c-1.874,0.519-3.756,1.061-5.65,1.653c-22.084,6.908-39.765,17.11-52.687,30.347c-10.371-18.114-13.41-39.291-13.846-55.975
		C87.324,48.051,94.896,22.879,99.094,16.29z M219.591,379.426c4.365,3.024,10.258,5.828,18.175,8.149
		c6.131,1.797,9.264,8.065,10.246,10.416v25.593c-18.786-1.089-33.268-5.891-39.894-11.064
		C208.728,400.254,212.729,388.736,219.591,379.426z M256.012,343.844c19.134,0,31.989,6.427,31.989,15.993
		c0,4.406-6.82,9.035-18.244,12.383c-5.995,1.757-10.476,5.204-13.746,8.86c-3.27-3.655-7.75-7.102-13.745-8.859
		c-11.424-3.349-18.244-7.978-18.244-12.384C224.023,350.271,236.879,343.844,256.012,343.844z M264.012,397.996
		c0.99-2.352,4.154-8.636,10.246-10.422c7.924-2.323,13.821-5.13,18.187-8.157c6.87,9.299,10.857,20.782,11.463,33.1
		c-6.625,5.173-21.108,9.977-39.896,11.066V397.996z M215.228,445.271c-0.239-0.714-0.583-1.4-1.031-2.038
		c-1.743-3.605-3.154-7.455-4.183-11.497c12.084,5.098,28.366,8.081,45.998,8.081s33.914-2.983,45.998-8.081
		c-1.029,4.042-2.44,7.891-4.183,11.497c-0.448,0.639-0.792,1.324-1.031,2.038c-8.472,15.911-23.582,26.533-40.784,26.533
		S223.7,461.182,215.228,445.271z M431.963,383.828c-2.86,0-5.502,1.526-6.931,4.004c-1.428,2.478-1.426,5.529,0.007,8.004
		c6.532,11.283,10.797,22.483,13.032,31.394c-5.774-1.83-13.255-3.414-22.104-3.414c-2.484,0-4.826,1.159-6.34,3.128
		c-1.514,1.969-2.026,4.535-1.389,6.936c0.056,0.208,4.794,18.425,1.905,35.916c-9.432-2.466-25.596-5.926-42.038-5.926
		c-2.341,0-4.565,1.026-6.085,2.807c-1.52,1.781-2.183,4.139-1.815,6.451c0.267,1.675,2.078,12.778,4.781,22.86
		c-17.672-0.065-54.317-1.774-85.083-13.412c12.977-5.9,23.857-16.442,30.992-29.803c3.932-1.964,17.462,2.538,28.77,9.768
		c1.319,0.847,2.821,1.268,4.321,1.268c1.639,0,3.274-0.502,4.666-1.501c2.665-1.913,3.892-5.257,3.096-8.439l-6.454-25.815
		c9.81-3.191,22.582,0.843,27.3,3.014c2.896,1.352,6.32,0.849,8.706-1.277s3.277-5.47,2.267-8.502l-13.466-40.397l16.404-5.468
		c4.191-1.397,6.457-5.928,5.06-10.119c-1.397-4.192-5.927-6.457-10.119-5.06l-23.993,7.998c-2.013,0.671-3.677,2.114-4.625,4.012
		c-0.949,1.897-1.105,4.095-0.434,6.107l11.136,33.408c-0.056-0.01-0.111-0.02-0.168-0.03c-12.595-2.203-23.646-0.294-31.959,5.525
		c-2.715,1.9-3.977,5.278-3.173,8.494l3.715,14.859c-4.624-1.851-9.719-3.4-14.693-3.951c1.746-6.48,2.702-13.341,2.737-20.445
		c0.002-0.045,0.002-0.09,0.003-0.135c0-0.089,0.006-0.177,0.006-0.266c0-18.433-6.07-35.725-17.16-49.081
		c0.847-2.416,1.165-4.757,1.165-6.903c0-14.759-12.568-31.993-47.989-31.993s-47.989,17.234-47.989,31.993
		c0,2.152,0.319,4.5,1.171,6.923c-11.07,13.363-17.167,30.727-17.167,49.061c0,0.089,0.006,0.177,0.006,0.266
		c0.001,0.045,0.001,0.09,0.003,0.135c0.035,7.104,0.991,13.965,2.737,20.445c-4.974,0.551-10.069,2.1-14.693,3.951l3.715-14.859
		c0.804-3.215-0.458-6.594-3.173-8.494c-8.313-5.819-19.364-7.729-31.96-5.525c-0.056,0.01-0.112,0.02-0.168,0.03l11.136-33.408
		c0.671-2.013,0.515-4.21-0.434-6.107c-0.949-1.898-2.613-3.341-4.625-4.012l-23.993-7.998c-4.193-1.397-8.723,0.869-10.119,5.06
		c-1.397,4.191,0.868,8.722,5.06,10.119l16.404,5.468l-13.466,40.397c-1.008,3.025-0.114,6.355,2.26,8.483
		c2.375,2.128,5.796,2.638,8.693,1.305c4.736-2.179,17.509-6.216,27.32-3.022l-6.454,25.815c-0.795,3.18,0.433,6.52,3.093,8.434
		c1.392,1,3.029,1.504,4.67,1.504c1.497,0,2.996-0.419,4.313-1.261c11.313-7.234,24.843-11.737,28.776-9.772
		c7.133,13.358,18.01,23.899,30.985,29.8c-30.74,11.614-67.398,13.335-85.074,13.409c2.702-10.08,4.513-21.179,4.78-22.854
		c0.368-2.313-0.295-4.67-1.815-6.451c-1.52-1.781-3.744-2.807-6.085-2.807c-16.441,0-32.606,3.46-42.038,5.926
		c-2.889-17.491,1.85-35.706,1.902-35.906c0.646-2.402,0.136-4.969-1.378-6.943c-1.514-1.974-3.86-3.132-6.348-3.132
		c-8.85,0-16.331,1.584-22.104,3.414c2.235-8.911,6.5-20.111,13.032-31.394c1.433-2.475,1.436-5.527,0.007-8.004
		c-1.429-2.478-4.071-4.004-6.931-4.004H57.336c2.859-10.314,9.824-22.219,13.125-27.164c0.189-0.257,0.359-0.521,0.511-0.789
		c0.708-1.21,1.075-2.566,1.093-3.93c0.001-0.037,0.001-0.072,0.001-0.108c0-1.67-0.518-3.247-1.422-4.553
		c-0.001-0.001-0.002-0.003-0.003-0.004c-0.002-0.003-0.004-0.005-0.005-0.008c-0.209-0.301-0.438-0.585-0.683-0.851
		c-0.842-0.917-1.903-1.642-3.119-2.089c-0.003-0.001-0.007-0.002-0.012-0.004c-0.345-0.127-0.7-0.23-1.063-0.309
		c-0.004-0.001-0.009-0.001-0.013-0.003c-0.593-0.127-1.188-0.191-1.779-0.178l-4.862,0c4.751-11.177,15.886-29.512,40.29-40.713
		c3.174-1.457,5.062-4.835,4.625-8.3c-0.756-6.003-5.352-6.894-12.967-8.368c-3.944-0.764-9.192-1.719-14.267-2.642
		c-3.934-0.715-8.692-1.581-12.371-2.282c1.703-15.68,9.584-31.719,21.803-43.938c1.516-1.515,2.359-3.575,2.343-5.718
		c-0.017-2.143-0.893-4.19-2.431-5.682l-12.244-11.873c10.173-18.417,29.906-40.18,56.25-47.309c3.057-0.827,5.338-3.379,5.818-6.51
		s-0.932-6.249-3.601-7.954l-15.742-10.058c27.191-24.834,70.758-30.519,86.414-30.519c2.971,0,5.697-1.646,7.08-4.275
		c1.383-2.629,1.195-5.809-0.488-8.257c-0.609-0.887-1.237-1.804-1.866-2.729c21.798,2.319,32.994,9.962,42.238,20.527
		c0.024,0.028,0.052,0.052,0.077,0.079c0.094,0.104,0.194,0.204,0.295,0.304c0.099,0.099,0.198,0.198,0.301,0.291
		c0.028,0.025,0.052,0.053,0.081,0.078c0.061,0.053,0.126,0.097,0.188,0.148c0.121,0.1,0.242,0.198,0.367,0.29
		c0.093,0.068,0.188,0.13,0.283,0.194c0.124,0.083,0.248,0.165,0.376,0.24c0.107,0.063,0.217,0.121,0.326,0.179
		c0.119,0.063,0.237,0.125,0.358,0.181c0.123,0.057,0.249,0.109,0.374,0.159c0.112,0.045,0.223,0.09,0.337,0.13
		c0.136,0.048,0.273,0.089,0.41,0.13c0.108,0.032,0.216,0.063,0.325,0.09c0.143,0.035,0.286,0.064,0.43,0.092
		c0.108,0.02,0.216,0.041,0.325,0.057c0.143,0.021,0.286,0.036,0.43,0.049c0.114,0.011,0.227,0.021,0.341,0.026
		c0.137,0.007,0.275,0.008,0.412,0.008c0.121,0,0.243-0.001,0.364-0.007c0.13-0.006,0.259-0.017,0.389-0.03
		c0.128-0.012,0.256-0.026,0.383-0.044c0.124-0.018,0.246-0.041,0.369-0.064c0.13-0.025,0.26-0.051,0.39-0.083
		c0.121-0.03,0.24-0.064,0.36-0.1c0.127-0.037,0.253-0.075,0.378-0.119c0.123-0.043,0.245-0.092,0.366-0.141
		c0.117-0.047,0.233-0.095,0.347-0.148c0.128-0.059,0.254-0.125,0.379-0.191c0.104-0.055,0.207-0.109,0.309-0.169
		c0.132-0.077,0.26-0.161,0.388-0.247c0.092-0.062,0.185-0.122,0.275-0.188c0.126-0.092,0.248-0.191,0.369-0.291
		c0.062-0.051,0.127-0.095,0.188-0.148c0.029-0.025,0.053-0.053,0.081-0.078c0.103-0.093,0.201-0.191,0.3-0.29
		c0.101-0.1,0.201-0.201,0.295-0.305c0.025-0.028,0.052-0.051,0.077-0.079c9.244-10.564,20.44-18.208,42.239-20.527
		c-0.629,0.924-1.257,1.842-1.866,2.729c-1.683,2.448-1.871,5.627-0.488,8.257c1.383,2.629,4.109,4.275,7.08,4.275
		c15.655,0,59.223,5.688,86.415,30.519l-15.743,10.058c-2.668,1.705-4.081,4.824-3.601,7.954s2.761,5.683,5.818,6.51
		c26.345,7.128,46.078,28.891,56.25,47.309l-12.244,11.873c-1.539,1.492-2.414,3.539-2.431,5.682
		c-0.016,2.143,0.828,4.203,2.343,5.718c12.219,12.219,20.1,28.258,21.803,43.938c-3.679,0.701-8.438,1.566-12.371,2.282
		c-5.075,0.923-10.323,1.878-14.267,2.642c-7.615,1.475-12.211,2.365-12.967,8.368c-0.436,3.465,1.452,6.844,4.626,8.3
		c24.413,11.206,35.545,29.548,40.292,40.713l-4.865,0c-0.58-0.007-1.175,0.05-1.761,0.174c-0.004,0.001-0.007-0.003-0.013,0.003
		c-0.362,0.078-0.717,0.18-1.063,0.306c-1.237,0.45-2.315,1.187-3.168,2.12c-0.002,0.002-0.004,0.005-0.007,0.007l-0.001,0.001
		c-0.231,0.254-0.447,0.524-0.646,0.809c0,0,0,0,0,0c-0.003,0.004-0.006,0.009-0.009,0.013c-0.002,0.003-0.005,0.007-0.007,0.01
		c0,0.001-0.001,0.001-0.001,0.002c-0.904,1.306-1.422,2.883-1.422,4.554c0,0.036,0,0.071,0.001,0.108
		c0.018,1.364,0.385,2.72,1.093,3.93c0.153,0.271,0.325,0.538,0.517,0.797c3.307,4.943,10.271,16.83,13.125,27.155H431.963z"/>
  <path d="M379.443,293.15l11.189-16.785c2.063-3.093,1.722-7.2-0.822-9.912c-17.246-18.38-40.896-27.678-66.581-26.167
		c-23.622,1.384-46.792,12.189-57.656,26.887c-2.626,3.553-1.875,8.562,1.679,11.188c3.553,2.626,8.563,1.875,11.188-1.679
		c6.603-8.933,23.728-19.135,45.725-20.424c13.547-0.794,32.625,1.636,49.48,16.743l-12.321,18.481
		c-1.331,1.996-1.695,4.483-0.994,6.776s2.395,4.152,4.613,5.062c12.408,5.092,23.366,21.795,27.377,34.925
		c1.053,3.447,4.222,5.665,7.648,5.665c0.774,0,1.561-0.113,2.34-0.351c4.226-1.291,6.605-5.762,5.314-9.988
		C403.397,319.736,393.18,302.668,379.443,293.15z"/>
  <path d="M188.795,240.286c-25.693-1.508-49.336,7.788-66.581,26.167c-2.544,2.711-2.885,6.818-0.822,9.912l11.189,16.785
		c-13.736,9.519-23.954,26.586-28.18,40.423c-1.291,4.226,1.088,8.697,5.314,9.988c0.779,0.238,1.565,0.351,2.34,0.351
		c3.426,0,6.595-2.218,7.648-5.665c4.011-13.13,14.969-29.833,27.377-34.925c2.219-0.91,3.912-2.769,4.613-5.062
		s0.336-4.781-0.994-6.776l-12.321-18.481c16.854-15.108,35.938-17.536,49.48-16.743c21.997,1.289,39.122,11.491,45.724,20.424
		c2.627,3.554,7.636,4.305,11.188,1.679c3.553-2.626,4.305-7.636,1.679-11.188C235.587,252.475,212.417,241.67,188.795,240.286z"/>
  <path d="M247.592,463.584c2.773,0.15,5.606,0.227,8.42,0.227c2.997,0,6.014-0.086,8.968-0.257c4.411-0.255,7.78-4.038,7.525-8.449
		c-0.255-4.412-4.048-7.778-8.449-7.525c-5.134,0.297-10.465,0.306-15.598,0.028c-4.401-0.237-8.182,3.144-8.421,7.555
		S243.18,463.345,247.592,463.584z"/>
</g>
  <g>
</g>
  <g>
</g>
  <g>
</g>
  <g>
</g>
  <g>
</g>
  <g>
</g>
  <g>
</g>
  <g>
</g>
  <g>
</g>
  <g>
</g>
  <g>
</g>
  <g>
</g>
  <g>
</g>
  <g>
</g>
  <g>
</g>
</svg>
