<?xml version="1.0" encoding="utf-8"?>
<!-- Generator: Adobe Illustrator 23.0.6, SVG Export Plug-In . SVG Version: 6.00 Build 0)  -->
<svg fill="#ffffff" id="Ebene_1" style="enable-background:new 0 0 573.5 640.93;" version="1.1"
     viewBox="0 0 573.5 640.93"
     x="0px" xml:space="preserve" xmlns="http://www.w3.org/2000/svg" y="0px">
<title>OOwlsnur</title>
  <path d="M194.09,454.05c16.62,0,28.35-10.39,32.67-16.52c3.63-5.17,2.41-12.29-2.72-15.96c-5.16-3.7-12.34-2.6-16.15,2.49
	c-0.21,0.28-5.2,6.8-13.79,6.8c-8.45,0-13.42-6.31-13.78-6.78c-3.76-5.18-11.01-6.34-16.19-2.58c-5.12,3.71-6.32,10.84-2.7,16.03
	C165.73,443.67,177.46,454.05,194.09,454.05z"/>
  <path d="M179.22,137c-46.19,0-83.63,37.44-83.63,83.63s37.44,83.63,83.63,83.63s83.63-37.44,83.63-83.63l0,0
	C262.8,174.46,225.39,137.05,179.22,137z M179.22,280.38c-32.99,0-59.74-26.75-59.74-59.74s26.75-59.74,59.74-59.74
	s59.74,26.75,59.74,59.74C238.92,253.62,212.2,280.34,179.22,280.38z"/>
  <path d="M300.61,424.07c-0.21,0.28-5.2,6.8-13.79,6.8c-8.45,0-13.42-6.31-13.78-6.78c-3.76-5.18-11.01-6.34-16.19-2.58
	c-5.12,3.71-6.32,10.85-2.7,16.03c4.31,6.13,16.04,16.52,32.67,16.52s28.35-10.39,32.67-16.52c3.63-5.17,2.41-12.29-2.72-15.96
	C311.6,417.87,304.42,418.98,300.61,424.07z"/>
  <path d="M540.44,297.86c-13.28-78.98,7.96-137.19,7.9-137.19c1.02-2.05,25.16-51.42,25.16-148.71c0-6.6-5.35-11.95-11.95-11.95
	c-2.59,0-5.1,0.84-7.17,2.39l-90.72,68.04c-19.71-5.77-85.22-22.64-176.91-22.64s-157.2,16.87-176.91,22.64L19.11,2.4
	C13.84-1.56,6.36-0.5,2.39,4.77C0.84,6.85,0,9.37,0,11.96c0,97.29,24.12,146.66,24.74,147.82c0.23,0.56,22.58,57.68,11.22,137.23
	c-0.03,0.22-0.06,0.44-0.07,0.66C5.75,395.63,17.45,515.51,69.47,585.93c22.51,30.5,49.39,48.45,78.35,52.62
	c0,0.33-0.43,0.92-0.1,0.97c23.18,3.18,258.43,0,278.2,0c0.32,0-0.08-0.6-0.09-0.9c28.92-4.07,55.76-21.97,78.26-52.4
	c52.03-70.38,67.35-188.1,37.24-286.26C541.1,299.23,540.81,298.53,540.44,297.86z M485.45,572.44
	c-13.87,18.74-36.39,40.6-66.27,43.35l-264.7-0.02c-29.93-2.89-52.49-24.81-66.37-43.6c-45.92-62.18-59.39-164.42-35.8-253.29
	c9.85,4.53,24.09,13.7,36.99,33.5c25.56,39.24,29.83,101.58,12.33,180.3c-1.39,6.25,2.55,12.44,8.8,13.83s12.44-2.55,13.83-8.8
	c19.15-86.16,13.92-152.77-15.53-197.99C92.75,315.18,73.16,302.89,60.09,297c11.16-84.04-12.15-143.59-13.54-146.97
	c-0.22-0.43-18.66-38.76-22.11-113.76l75.92,56.93c3.13,2.35,7.22,3.02,10.93,1.78C112,94.74,182.68,71.7,286.75,71.7
	S461.49,94.75,462.2,94.98c3.71,1.24,7.8,0.57,10.93-1.78l75.92-56.93c-3.44,75-21.93,113.41-22.5,114.62
	c-1,2.54-24.31,62.11-13.13,146.17c-13.07,5.92-32.57,18.21-48.51,42.65c-29.46,45.22-34.72,111.83-15.63,197.99
	c1.35,6.26,7.52,10.24,13.78,8.88s10.24-7.52,8.88-13.78c-0.01-0.04-0.02-0.07-0.02-0.11c-17.34-78.27-13.19-140.4,11.99-179.66
	c12.99-20.23,28.59-30.1,38.56-34.69C546.03,407.4,531.38,510.3,485.45,572.44z"/>
  <path d="M339.96,299.58c-5.44-3.65-12.82-2.2-16.47,3.24c-0.01,0.02-0.02,0.04-0.04,0.06l-37.71,56.56l-37.71-56.56
	c-3.65-5.47-11.04-6.95-16.51-3.3c-5.47,3.65-6.95,11.04-3.3,16.51l47.61,71.42c3.65,5.47,11.04,6.94,16.5,3.3
	c1.31-0.87,2.43-1.99,3.3-3.3l47.61-71.42C346.89,310.63,345.43,303.24,339.96,299.58C339.96,299.58,339.96,299.58,339.96,299.58z"
  />
  <path d="M179.22,196.74c-13.2,0-23.9,10.7-23.9,23.9c0,13.2,10.7,23.9,23.9,23.9c13.2,0,23.9-10.7,23.9-23.9l0,0
	C203.11,207.45,192.41,196.75,179.22,196.74z"/>
  <path d="M365.85,495.49c3.63-5.17,2.41-12.29-2.72-15.96c-5.17-3.7-12.34-2.59-16.15,2.49c-0.21,0.28-5.2,6.8-13.79,6.8
	c-8.45,0-13.42-6.31-13.78-6.78c-3.76-5.18-11.01-6.34-16.19-2.58c-5.12,3.71-6.32,10.85-2.7,16.03
	c4.31,6.13,16.04,16.52,32.67,16.52S361.54,501.63,365.85,495.49z"/>
  <path d="M477.91,220.64c0-46.19-37.44-83.63-83.63-83.63s-83.63,37.44-83.63,83.63c0,46.19,37.44,83.63,83.63,83.63l0,0
	C440.45,304.22,477.86,266.81,477.91,220.64z M394.28,280.38c-32.99,0-59.74-26.75-59.74-59.74s26.75-59.74,59.74-59.74
	c32.99,0,59.74,26.75,59.74,59.74c0,0,0,0,0,0C453.98,253.62,427.26,280.34,394.28,280.38L394.28,280.38z"/>
  <path d="M217.28,639.52H170.9 M402.75,639.52h-46.38"/>
  <path d="M228.86,512.01c16.62,0,28.35-10.39,32.67-16.52c3.63-5.17,2.41-12.29-2.72-15.96c-5.17-3.7-12.34-2.59-16.15,2.49
	c-0.21,0.28-5.2,6.8-13.79,6.8c-8.45,0-13.42-6.31-13.78-6.78c-3.76-5.18-11.01-6.34-16.19-2.58c-5.12,3.71-6.32,10.84-2.7,16.03
	C200.51,501.63,212.24,512.01,228.86,512.01z"/>
  <path d="M394.28,196.74c-13.2,0-23.9,10.7-23.9,23.9c0,13.2,10.7,23.9,23.9,23.9c13.2,0,23.9-10.7,23.9-23.9l0,0
	C418.17,207.45,407.47,196.75,394.28,196.74z"/>
  <path d="M286.82,569.97c16.62,0,28.35-10.39,32.67-16.52c3.63-5.17,2.41-12.29-2.72-15.96c-5.16-3.71-12.34-2.6-16.15,2.49
	c-0.21,0.28-5.2,6.8-13.79,6.8c-8.45,0-13.42-6.31-13.78-6.78c-3.76-5.18-11.01-6.34-16.19-2.58c-5.12,3.71-6.32,10.85-2.7,16.03
	C258.47,559.58,270.2,569.97,286.82,569.97z"/>
  <path d="M412.22,437.54c3.63-5.17,2.41-12.29-2.72-15.96c-5.16-3.7-12.34-2.59-16.15,2.49c-0.21,0.28-5.2,6.8-13.79,6.8
	c-8.45,0-13.42-6.31-13.78-6.78c-3.76-5.18-11.01-6.34-16.19-2.58c-5.12,3.71-6.32,10.85-2.7,16.03
	c4.31,6.13,16.04,16.52,32.67,16.52S407.91,443.67,412.22,437.54z"/>
</svg>
