<svg data-name="Ebene 1" fill="#ffffff" id="Ebene_1" viewBox="0 0 583.796 554.432" xmlns="http://www.w3.org/2000/svg">
  <title>Penguin_2</title>
  <path
    d="M451.16,511.04a178.364,178.364,0,0,0-31.26-37.17c-1.03-.93-2.08-1.85-3.13-2.76a179.893,179.893,0,0,0-253.72,18.58q-.855.975-1.68,1.98a175.4,175.4,0,0,0-40.3,96.02,8.561,8.561,0,0,0,7.7,9.34,7.687,7.687,0,0,0,.83.04,8.564,8.564,0,0,0,8.51-7.74,160.535,160.535,0,0,1,3.81-22.63c17.23-70.97,81.23-122.05,157.29-122.05,83.91,0,153.17,62.2,161.1,144.68a8.7,8.7,0,0,0,.13.87,8.558,8.558,0,0,0,16.91-2.5A174.84,174.84,0,0,0,451.16,511.04Z"
    transform="translate(-7.002 -42.64)"/>
  <path
    d="M585.29,596.49a8.431,8.431,0,0,1-3.06.57,8.57,8.57,0,0,1-8-5.5c-24.36-63.71-53.41-159.5-53.41-254.1,0-91.4-14.85-157.32-45.41-201.54-34.86-50.45-91.45-75.37-172.93-76.13-1.29-.01-2.59-.02-3.9-.02-1.09,0-2.19,0-3.27.02-1.28.01-2.55.03-3.82.05-79.43,1.5-134.8,26.42-169.11,76.08C91.82,180.14,76.97,246.06,76.97,337.46c0,94.6-29.04,190.39-53.41,254.1a8.556,8.556,0,0,1-8,5.5,8.431,8.431,0,0,1-3.06-.57,8.559,8.559,0,0,1-4.93-11.05C28.23,531.41,52.34,453.9,58.4,374.33c.94-12.27,1.45-24.58,1.45-36.87,0-96.31,15.39-163.44,48.44-211.27,38.24-55.34,99.35-82.69,186.74-83.53,1.18-.02,2.37-.02,3.56-.02,1.4,0,2.79.01,4.18.02,87.39.84,148.49,28.19,186.73,83.53,33.05,47.83,48.44,114.96,48.44,211.27,0,12.29.51,24.6,1.45,36.87,6.07,79.57,30.18,157.08,50.84,211.11A8.548,8.548,0,0,1,585.29,596.49Z"
    transform="translate(-7.002 -42.64)"/>
  <path
    d="M131.12,295.8c-3.8,7.66-2.74,16.89,2.74,24.1,4.35,5.71,18.1,18.3,51.67,11.82,2.82-.54,5.67-1.09,8.53-1.64,3.28,2.67,6.3,5.19,9.24,7.64,26.5,22.11,39.8,33.21,96.92,33.21s70.42-11.1,96.92-33.21c2.94-2.45,5.96-4.97,9.24-7.64,2.86.55,5.7,1.09,8.53,1.64a93.126,93.126,0,0,0,17.54,1.81c21.06,0,30.63-9.04,34.13-13.63,5.49-7.21,6.54-16.44,2.74-24.1-4.17-8.41-13.22-13.43-24.21-13.43-52.45,0-75.89-22.28-96.56-41.93-14.42-13.7-28.03-26.65-48.32-26.65s-33.9,12.94-48.32,26.65c-20.68,19.66-44.12,41.93-96.56,41.93C144.33,282.37,135.28,287.39,131.12,295.8Zm169.09,58.01c-49.67,0-59.96-7.58-84.12-27.7,4.27-.72,8.47-1.39,12.58-1.98.23-.03.45-.07.68-.1l1.48-.21c26.33-3.58,49.81-3.92,61.46,5.5.08.07.17.14.25.2a19.3,19.3,0,0,1,1.56,1.43,8.555,8.555,0,0,0,6.11,2.56,8.25,8.25,0,0,0,.86-.04,8.542,8.542,0,0,0,5.25-2.52c.5-.5,1.02-.98,1.56-1.43.08-.07.17-.14.26-.21,11.65-9.42,35.12-9.08,61.44-5.51l1.54.21.6.08q6.18.885,12.61,1.98C360.17,346.23,349.88,353.81,300.21,353.81ZM146.46,303.4c1.21-2.45,4.53-3.91,8.87-3.91,59.29,0,87.65-26.96,108.36-46.65,13.4-12.73,23.08-21.93,36.52-21.93s23.13,9.2,36.52,21.93c20.71,19.69,49.07,46.65,108.36,46.65,4.34,0,7.66,1.46,8.87,3.91.91,1.84.54,4.08-1.02,6.13-3.88,5.1-15.07,9.19-34.8,5.38q-6.375-1.23-12.45-2.36a.185.185,0,0,1-.07-.02c-22.22-4.16-43.05-7.63-61.11-8.13-1.7-.05-3.38-.09-5.02-.09-16.23,0-29.33,2.71-39.28,9.54-10.95-7.52-25.74-10.04-44.31-9.45l-.94.03c-.59.02-1.18.04-1.78.07-17.42.76-37.27,4.08-58.39,8.03a.235.235,0,0,1-.08.02c-4.06.76-8.19,1.54-12.44,2.36-19.74,3.81-30.92-.28-34.8-5.38C145.92,307.48,145.54,305.24,146.46,303.4Z"
    transform="translate(-7.002 -42.64)"/>
  <path
    d="M480.18,182.5c-5.08-12.69-14.95-19.68-27.8-19.68-7.89,0-17.1,2.6-27.36,7.73-29.63,14.82-53.26,17.92-67.87,17.92a67.117,67.117,0,0,1-14.07-1.21,5.175,5.175,0,0,0-6.06,6.95,76.322,76.322,0,0,0,16.11,23.12c10.45,10.44,28.83,22.9,57.11,22.9,18.58,0,37.01-6.26,53.29-18.1a97.493,97.493,0,0,0,19.27-18.19,5.215,5.215,0,0,0,1.04-3.11A54.832,54.832,0,0,0,480.18,182.5Zm-50.52-2.68c.13-.06.25-.12.38-.18a29.04,29.04,0,0,1-27.75,49.13,29.339,29.339,0,0,1-20.73-32.3,182.7,182.7,0,0,0,48.1-16.65Zm-78.41,18.86c1.77.1,3.74.16,5.91.16a125.079,125.079,0,0,0,13.81-.79,39.684,39.684,0,0,0,6.52,24.39,66.9,66.9,0,0,1-16.72-12.14,71.139,71.139,0,0,1-9.52-11.62Zm92.11,23.48a38.937,38.937,0,0,0,2.75-5.03,39.894,39.894,0,0,0-5.86-41.74,39.5,39.5,0,0,1,12.13-2.21c17.9,0,20.61,19.79,21.01,25.91a94.315,94.315,0,0,1-30.03,23.07Z"
    transform="translate(-7.002 -42.64)"/>
  <circle cx="403.238" cy="158.2" r="8.55"/>
  <path
    d="M118.06,166.79a5.323,5.323,0,0,0-.02,3.37,101.465,101.465,0,0,0,12.67,24.24c11.86,17.06,27.65,29.45,45.65,35.82,27.4,9.7,49.32,3.92,62.89-2.63a76.829,76.829,0,0,0,23.24-16.9,5.316,5.316,0,0,0,.88-5.48,5.384,5.384,0,0,0-4.47-3.34,68.633,68.633,0,0,1-14.03-3.65c-14.15-5.01-36.03-16.13-59.84-40.66-8.24-8.49-16.3-14.17-23.95-16.88-12.45-4.41-24.32-1.01-33.43,9.55A55.8,55.8,0,0,0,118.06,166.79ZM218.6,197.61a29.656,29.656,0,0,1-30.75,24.22,29,29,0,0,1-7.93-1.63,30.554,30.554,0,0,1-20.13-25.61,29.849,29.849,0,0,1,17.39-29.93c.1.1.2.21.3.31a190.431,190.431,0,0,0,41.12,32.64Zm15.58,20.55a67.473,67.473,0,0,1-20.21,6.04,40.146,40.146,0,0,0,14.37-21.42,129.831,129.831,0,0,0,13.12,5.5q3.15,1.11,5.78,1.87a73.2,73.2,0,0,1-13.06,8.01ZM128.74,168.67c2.42-5.8,11.57-24.06,28.91-17.92a40.963,40.963,0,0,1,11.03,6.3,40.191,40.191,0,0,0-18.46,44.29A99.014,99.014,0,0,1,128.74,168.67Z"
    transform="translate(-7.002 -42.64)"/>
  <ellipse cx="189.342" cy="192.018" rx="8.72" ry="8.83" transform="translate(-81.083 91.674) rotate(-33.046)"/>
</svg>
