<?xml version="1.0" encoding="UTF-8"?>
<svg height="512pt" version="1.1" viewBox="0 0 512 512"
     width="512pt" xmlns="http://www.w3.org/2000/svg">
  <g id="surface1">
    <path
      d="M 436 471.601563 L 76 471.601563 C 56 471.601563 40 455.601563 40 435.601563 L 40 104.398438 C 40 84.398438 56 68.398438 76 68.398438 L 436 68.398438 C 456 68.398438 472 84.398438 472 104.398438 L 472 435.601563 C 472 455.601563 456 471.601563 436 471.601563 Z "
      style=" stroke:none;fill-rule:nonzero;fill:#FFFFFF;fill-opacity:1;"/>
    <path
      d="M 40 187.199219 L 40 104.398438 C 40 84.398438 56 68.398438 76 68.398438 L 434.398438 68.398438 C 454.800781 68.398438 471.199219 85.601563 470.398438 106 L 468.398438 187.199219 Z "
      style=" stroke:none;fill-rule:nonzero;fill:#F37778;fill-opacity:1;"/>
    <path
      d="M 468.398438 199.199219 L 40 199.199219 C 33.199219 199.199219 28 194 28 187.199219 C 28 180.398438 33.199219 175.199219 40 175.199219 L 468.398438 175.199219 C 475.199219 175.199219 480.398438 180.398438 480.398438 187.199219 C 480.398438 194 475.199219 199.199219 468.398438 199.199219 Z "
      style=" stroke:none;fill-rule:nonzero;fill:#454B54;fill-opacity:1;"/>
    <path
      d="M 175.199219 273.601563 C 175.199219 298.5625 154.964844 318.800781 130 318.800781 C 105.035156 318.800781 84.800781 298.5625 84.800781 273.601563 C 84.800781 248.636719 105.035156 228.398438 130 228.398438 C 154.964844 228.398438 175.199219 248.636719 175.199219 273.601563 Z "
      style=" stroke:none;fill-rule:nonzero;fill:#E4DAEC;fill-opacity:1;"/>
    <path
      d="M 301.199219 273.601563 C 301.199219 298.5625 280.964844 318.800781 256 318.800781 C 231.035156 318.800781 210.800781 298.5625 210.800781 273.601563 C 210.800781 248.636719 231.035156 228.398438 256 228.398438 C 280.964844 228.398438 301.199219 248.636719 301.199219 273.601563 Z "
      style=" stroke:none;fill-rule:nonzero;fill:#E4DAEC;fill-opacity:1;"/>
    <path
      d="M 427.199219 273.601563 C 427.199219 298.5625 406.964844 318.800781 382 318.800781 C 357.035156 318.800781 336.800781 298.5625 336.800781 273.601563 C 336.800781 248.636719 357.035156 228.398438 382 228.398438 C 406.964844 228.398438 427.199219 248.636719 427.199219 273.601563 Z "
      style=" stroke:none;fill-rule:nonzero;fill:#E4DAEC;fill-opacity:1;"/>
    <path
      d="M 301.199219 392.398438 C 301.199219 417.363281 280.964844 437.601563 256 437.601563 C 231.035156 437.601563 210.800781 417.363281 210.800781 392.398438 C 210.800781 367.4375 231.035156 347.199219 256 347.199219 C 280.964844 347.199219 301.199219 367.4375 301.199219 392.398438 Z "
      style=" stroke:none;fill-rule:nonzero;fill:#E4DAEC;fill-opacity:1;"/>
    <path
      d="M 427.199219 392.398438 C 427.199219 417.363281 406.964844 437.601563 382 437.601563 C 357.035156 437.601563 336.800781 417.363281 336.800781 392.398438 C 336.800781 367.4375 357.035156 347.199219 382 347.199219 C 406.964844 347.199219 427.199219 367.4375 427.199219 392.398438 Z "
      style=" stroke:none;fill-rule:nonzero;fill:#B8ABC9;fill-opacity:1;"/>
    <path
      d="M 175.199219 392.398438 C 175.199219 417.363281 154.964844 437.601563 130 437.601563 C 105.035156 437.601563 84.800781 417.363281 84.800781 392.398438 C 84.800781 367.4375 105.035156 347.199219 130 347.199219 C 154.964844 347.199219 175.199219 367.4375 175.199219 392.398438 Z "
      style=" stroke:none;fill-rule:nonzero;fill:#E4DAEC;fill-opacity:1;"/>
    <path
      d="M 436 483.601563 L 76 483.601563 C 49.601563 483.601563 28 462 28 435.601563 L 28 104.398438 C 28 78 49.601563 56.398438 76 56.398438 L 436 56.398438 C 462.398438 56.398438 484 78 484 104.398438 L 484 435.601563 C 484 462 462.398438 483.601563 436 483.601563 Z M 76 80.398438 C 62.800781 80.398438 52 91.199219 52 104.398438 L 52 435.601563 C 52 448.800781 62.800781 459.601563 76 459.601563 L 436 459.601563 C 449.199219 459.601563 460 448.800781 460 435.601563 L 460 104.398438 C 460 91.199219 449.199219 80.398438 436 80.398438 Z "
      style=" stroke:none;fill-rule:nonzero;fill:#454B54;fill-opacity:1;"/>
    <path
      d="M 148 115.601563 C 141.199219 115.601563 136 110.398438 136 103.601563 L 136 31.601563 C 136 24.800781 141.199219 19.601563 148 19.601563 C 154.800781 19.601563 160 24.800781 160 31.601563 L 160 103.601563 C 160 110 154.800781 115.601563 148 115.601563 Z "
      style=" stroke:none;fill-rule:nonzero;fill:#454B54;fill-opacity:1;"/>
    <path
      d="M 364 115.601563 C 357.199219 115.601563 352 110.398438 352 103.601563 L 352 31.601563 C 352 24.800781 357.199219 19.601563 364 19.601563 C 370.800781 19.601563 376 24.800781 376 31.601563 L 376 103.601563 C 376 110 370.800781 115.601563 364 115.601563 Z "
      style=" stroke:none;fill-rule:nonzero;fill:#454B54;fill-opacity:1;"/>
  </g>
</svg>
