<?xml version="1.0" encoding="UTF-8" standalone="yes"?>
<svg xmlns="http://www.w3.org/2000/svg" viewBox="0 0 50 50" version="1.1" width="500" height="500" fill="#ffffff">
  <g id="surface1">
    <path style=" " d="M 11.007813 1 C 10.671875 0.996094 10.359375 1.164063 10.171875 1.4375 C 10.171875 1.4375 9 3.214844 9 6 C 9 7.953125 9.683594 9.328125 10.652344 10.496094 C 11.535156 11.570313 12.664063 12.664063 13.90625 14.261719 C 13.691406 14.972656 13 17.40625 13 21 C 13 22.128906 12.535156 23.855469 12.03125 25.777344 C 11.53125 27.695313 11 29.832031 11 32 C 11 36.101563 12.117188 39.519531 15.296875 41.722656 C 15.589844 42.570313 16.070313 43.339844 16.644531 44.011719 C 17.59375 45.113281 18.796875 46.007813 19.980469 46.730469 C 22.34375 48.171875 24.683594 48.949219 24.683594 48.949219 L 25 49.054688 L 25.316406 48.949219 C 25.316406 48.949219 27.65625 48.171875 30.019531 46.730469 C 31.203125 46.007813 32.40625 45.113281 33.355469 44.011719 C 33.929688 43.339844 34.410156 42.570313 34.703125 41.722656 C 37.882813 39.519531 39 36.101563 39 32 C 39 29.832031 38.46875 27.695313 37.96875 25.777344 C 37.464844 23.855469 37 22.128906 37 21 C 37 17.40625 36.308594 14.972656 36.09375 14.261719 C 37.335938 12.664063 38.464844 11.570313 39.347656 10.496094 C 40.316406 9.328125 41 7.953125 41 6 C 41 3.214844 39.828125 1.4375 39.828125 1.4375 C 39.628906 1.144531 39.289063 0.980469 38.933594 1.003906 C 38.578125 1.027344 38.265625 1.234375 38.105469 1.554688 C 38.105469 1.554688 37.929688 1.921875 37.328125 2.640625 C 36.726563 3.355469 35.730469 4.355469 34.183594 5.429688 C 32.636719 6.496094 31.84375 7.882813 31.433594 9 C 30.183594 7.699219 28.183594 6 25 6 C 21.816406 6 19.816406 7.699219 18.566406 9 C 18.15625 7.882813 17.363281 6.496094 15.816406 5.429688 C 14.269531 4.355469 13.273438 3.355469 12.671875 2.640625 C 12.070313 1.921875 11.894531 1.554688 11.894531 1.554688 C 11.726563 1.214844 11.382813 1.003906 11.007813 1 Z M 11.152344 4.71875 C 11.984375 5.824219 13.195313 7.863281 13.730469 10.914063 C 13.125 10.25 12.597656 9.710938 12.191406 9.222656 C 11.378906 8.234375 11 7.546875 11 6 C 11 5.476563 11.070313 5.082031 11.152344 4.71875 Z M 38.847656 4.71875 C 38.929688 5.082031 39 5.476563 39 6 C 39 7.546875 38.621094 8.234375 37.808594 9.222656 C 37.402344 9.710938 36.875 10.25 36.269531 10.914063 C 36.804688 7.863281 38.015625 5.824219 38.847656 4.71875 Z M 14.6875 7.078125 C 17.007813 8.6875 17 11.011719 17 11.011719 C 17.003906 11.441406 17.28125 11.816406 17.691406 11.949219 C 18.097656 12.085938 18.542969 11.941406 18.800781 11.597656 C 18.800781 11.597656 21.667969 8 25 8 C 28.332031 8 31.199219 11.597656 31.199219 11.597656 C 31.457031 11.941406 31.902344 12.085938 32.308594 11.949219 C 32.71875 11.816406 32.996094 11.441406 33 11.011719 C 33 11.011719 32.992188 8.6875 35.3125 7.078125 C 34.585938 8.882813 34.011719 11.175781 34 13.9375 C 34 13.953125 34 13.96875 34 13.984375 L 34 14 C 34 14.011719 34 14.023438 34 14.035156 C 34 14.046875 34 14.054688 34 14.0625 C 34.003906 14.089844 34.007813 14.117188 34.011719 14.144531 C 34.011719 14.152344 34.011719 14.160156 34.015625 14.167969 C 34.023438 14.234375 34.039063 14.300781 34.0625 14.363281 C 34.105469 14.492188 35 17.253906 35 21 C 35 22.613281 35.535156 24.390625 36.03125 26.28125 C 36.53125 28.175781 37 30.167969 37 32 C 37 35.054688 36.4375 37.277344 34.847656 38.96875 C 34.734375 38.539063 34.578125 38.132813 34.425781 37.753906 C 34.160156 37.085938 33.894531 36.550781 33.894531 36.550781 C 33.648438 36.058594 33.046875 35.859375 32.550781 36.105469 C 32.058594 36.351563 31.859375 36.953125 32.105469 37.449219 C 32.105469 37.449219 32.339844 37.914063 32.574219 38.496094 C 32.804688 39.078125 33 39.832031 33 40 C 33 40.949219 32.574219 41.84375 31.832031 42.707031 C 31.09375 43.574219 30.046875 44.367188 28.980469 45.019531 C 27 46.230469 25.285156 46.800781 25 46.902344 C 24.714844 46.800781 23 46.230469 21.019531 45.019531 C 19.953125 44.367188 18.90625 43.574219 18.167969 42.707031 C 17.425781 41.84375 17 40.949219 17 40 C 17 39.832031 17.195313 39.078125 17.425781 38.496094 C 17.660156 37.914063 17.894531 37.449219 17.894531 37.449219 C 18.058594 37.128906 18.042969 36.746094 17.847656 36.445313 C 17.652344 36.144531 17.3125 35.96875 16.953125 35.988281 C 16.589844 36.007813 16.265625 36.222656 16.105469 36.550781 C 16.105469 36.550781 15.839844 37.085938 15.574219 37.753906 C 15.421875 38.132813 15.265625 38.539063 15.152344 38.96875 C 13.5625 37.277344 13 35.054688 13 32 C 13 30.167969 13.46875 28.175781 13.96875 26.28125 C 14.464844 24.390625 15 22.613281 15 21 C 15 17.285156 15.875 14.546875 15.933594 14.378906 C 15.976563 14.265625 16 14.144531 16 14.019531 C 16 14.003906 16 13.988281 16 13.972656 C 16 13.957031 16 13.9375 16 13.921875 C 15.996094 13.917969 15.996094 13.917969 15.996094 13.914063 C 15.984375 11.164063 15.410156 8.875 14.6875 7.078125 Z M 24.957031 15 C 24.503906 15.019531 24.117188 15.34375 24.019531 15.792969 L 21.824219 26.058594 C 19.535156 26.855469 18 29.148438 18 31.5 C 17.996094 31.859375 18.183594 32.195313 18.496094 32.378906 C 18.808594 32.558594 19.191406 32.558594 19.503906 32.378906 C 19.816406 32.195313 20.003906 31.859375 20 31.5 C 20 30.558594 20.503906 29.5 21.246094 28.753906 L 21.019531 29.792969 C 20.90625 30.332031 21.25 30.863281 21.789063 30.980469 C 22.332031 31.09375 22.863281 30.75 22.980469 30.207031 L 25 20.777344 L 27.019531 30.207031 C 27.136719 30.75 27.667969 31.09375 28.210938 30.980469 C 28.75 30.863281 29.09375 30.332031 28.980469 29.792969 L 28.753906 28.753906 C 29.496094 29.5 30 30.558594 30 31.5 C 29.996094 31.859375 30.183594 32.195313 30.496094 32.378906 C 30.808594 32.558594 31.191406 32.558594 31.503906 32.378906 C 31.816406 32.195313 32.003906 31.859375 32 31.5 C 32 29.148438 30.464844 26.855469 28.175781 26.058594 L 25.980469 15.792969 C 25.875 15.316406 25.445313 14.980469 24.957031 15 Z M 15 29 C 14.449219 29 14 29.449219 14 30 C 14 30.550781 14.449219 31 15 31 C 15.550781 31 16 30.550781 16 30 C 16 29.449219 15.550781 29 15 29 Z M 35 29 C 34.449219 29 34 29.449219 34 30 C 34 30.550781 34.449219 31 35 31 C 35.550781 31 36 30.550781 36 30 C 36 29.449219 35.550781 29 35 29 Z M 19.984375 38.984375 C 19.433594 38.996094 18.992188 39.449219 19 40 C 19 40 19.007813 40.441406 19.175781 40.941406 C 19.34375 41.441406 19.675781 42.089844 20.292969 42.707031 C 20.542969 42.96875 20.917969 43.074219 21.265625 42.980469 C 21.617188 42.890625 21.890625 42.617188 21.980469 42.265625 C 22.074219 41.917969 21.96875 41.542969 21.707031 41.292969 C 21.324219 40.910156 21.15625 40.558594 21.074219 40.308594 C 20.992188 40.058594 21 40 21 40 C 21.003906 39.730469 20.898438 39.46875 20.707031 39.277344 C 20.515625 39.085938 20.253906 38.980469 19.984375 38.984375 Z M 29.984375 38.984375 C 29.433594 38.996094 28.992188 39.449219 29 40 C 29 40 29.007813 40.058594 28.925781 40.308594 C 28.84375 40.558594 28.675781 40.910156 28.292969 41.292969 C 28.03125 41.542969 27.925781 41.917969 28.019531 42.265625 C 28.109375 42.617188 28.382813 42.890625 28.734375 42.980469 C 29.082031 43.074219 29.457031 42.96875 29.707031 42.707031 C 30.324219 42.089844 30.65625 41.441406 30.824219 40.941406 C 30.992188 40.441406 31 40 31 40 C 31.003906 39.730469 30.898438 39.46875 30.707031 39.277344 C 30.515625 39.085938 30.253906 38.980469 29.984375 38.984375 Z "/>
  </g>
</svg>
