<?xml version="1.0" encoding="utf-8"?>
<!-- Generator: Adobe Illustrator 24.0.1, SVG Export Plug-In . SVG Version: 6.00 Build 0)  -->
<svg id="Layer_1" style="enable-background:new 0 0 1920 600;" version="1.1" viewBox="0 0 1920 600" x="0px"
     xml:space="preserve" xmlns="http://www.w3.org/2000/svg" y="0px">
<style type="text/css">
	.st0 {
    display: none;
    fill: #BCBEC0;
  }

  .st1 {
    display: none;
    fill: #A7A9AC;
  }

  .st2 {
    display: none;
    fill: #939598;
  }

  .st3 {
    display: none;
    fill: #808285;
  }

  .st4 {
    display: none;
    fill: #6D6E71;
  }

  .st5 {
    display: none;
    fill: #58595B;
  }

  .st6 {
    fill: #303030;
  }
</style>
  <path class="st0" d="M1915.3,214.4c-10.1,0.2-20.3,1.8-30.4,2.7c-9.6,0.9-19.8,2.5-29.4,0.8c-11.6-2-21.2-5.2-33-1.8
	c-3.8,1.1-3.8,1.1-3.8,1.1c-4,0.4-8.1,1.4-9,2.2c0,0,0,0-1,0.7c-7.1,4.9-17.2,3.9-25.2,1.3c-4.8-1.6-4.8-1.6-4.8-1.6
	c-4.8-2.6-11.5-4.7-14.9-4.6c0,0,0,0-3.1,0c-6.4,0.1-12.7,0-19.1-0.6c-6.1-0.6-11.9-2-18-1.5c-10.4,0.7-20.6,3.2-31.1,3.8
	c-4.4,0.3-4.4,0.3-4.4,0.3c-4.9,0-17.4,1-27.7,2.2c0,0,0,0-10.8-1.2c-5.8-0.6-11.8-0.8-17.8-0.6c-3,0.1-6,0.2-8.9,0.2
	c-5.6-0.3-10.6,1.2-15.6-0.3c-21.7-8.9-43.3-20.8-66.8-14c-9.4,1.4-9.4,1.4-9.4,1.4c-10.4-0.5-26.6,2.1-36.1,5.9
	c0,0-1.5,0.6-11.7,2.3c-10.8,1.8-21.1,1.6-31.9,2.2c-11.7,0.7-21.6,7.1-33.2,8.6c-11.1,1.4-21.7,0.7-32.5-1.9
	c-8.7-2.1-17.2-4.2-25.9-6c-2.2-0.4-4.4-0.9-6.6-1.3c-14.3-1.8-25.9-12.2-42.6-10.7c-16.7,3-35,5.9-52.1,3.2
	c-2.8-0.1-5.6-0.3-8.5-0.6c-10.3-1-20.2-3.2-29.8-6.5c-9.9-3.4-18.9-8.6-28.9-11.8c-10.7-3.4-22-6-33.3-7.5c-7.5-1-7.5-1-7.5-1
	c-8-1.9-15-3.4-15.5-3.4c0,0,0,0-0.5,0c-24,1.1-36,5.6-62,6.7c-3.2,0.2-6.5,0.3-9.8,0.4c-16.4,0.6-34.1,1.1-34.1,1.1
	c-10.4,0.3-21.8,0.6-25.4,0.9c0,0,0,0-3.3,0.2c-3,0.2-5.9,0.3-8.9,0.5c-3,0.2-6.1,0.3-9.2,0.5c-43.1,2.6-121.5,4.9-121.5,4.9
	c-10.4,0.3-22.2,0.7-26.3,0.8c0,0,0,0-3.7,0.1c-26.1,0.8-52.3,1.5-78.8,2.1c-28.9,0.6-59.1,1.3-88.5,1c-31.7-0.3-63.3-2.6-63.3-2.6
	c-10.4-0.8-27.3-1.3-37.7-1.2c0,0-35.4,0.3-63.2,0c-5.9-0.1-11.9-0.1-17.9-0.2c-3,0-6-0.1-8.9-0.1c-108.2-1.1-229.5,21.8-229.5,21.8
	c-10.2,1.9-26.9,4.3-37.3,5.4c0,0-25.1,2.6-55,3.6c-3.9,0.1-7.8,0.2-11.8,0.3c-20.9,0.3-43.2,0.1-64.8-0.5
	c-3.6-0.1-7.2-0.2-10.7-0.4c-22.3-1.2-47.8-1.8-63-2L0,600h1920V214.6C1918.4,214.5,1916.9,214.4,1915.3,214.4z"
        id="level-1"/>
  <path class="st1" d="M1920,257.5c-7.4,3.6-14.8,7.1-22.7,8.2c-17.6,2.5,3.1,32.8-53.3-8.5c-6.5-4.8-17.8-0.7-26.5,2.8
	c-10,4.1-32.1-3-42.4-0.8c-19,4-19.2,31.1-37.9,25.2c-7.3-2.3-16.5-12.5-16.5-12.5c-6.7-7.5-12.8-13.4-13.6-13.2c0,0,0,0-0.9-0.1
	c-19.3-1.4-36.2-3.2-36.2-3.2c-11.9-1.2-29.5-1.9-39.3-1.5c0,0,0,0-7.4-0.5c-1.2-0.1-1.2-0.1-1.2-0.1c-1.3-0.1-2.3,0-3.6,0.1
	c-1.2,0.1-3.3,0.4-4.6,0.5c0,0,0,0-2.5,0.7c-0.8,0.2-0.8,0.2-0.8,0.2c-1,0.1-1.9,0.1-3.1,0.2c-1.2,0.1-8.5-0.8-16.2-1.8
	c-3.9-0.5-7.8-1.4-10.9-2.1c-9.2-6.1-16.9,4-16.9,1.1c-9.6-31.7-57.6-27.4-83.7-41.7c-3.3-1.4-6.7-3.1-9.3-4.6
	c-2.6-1.4-4.5-2.6-4.7-2.9c-0.6-0.6-1-1.1-1.7-1.7c-5.8-5.2-5.8-5.2-5.8-5.2c-6-4.7-13.1-10.2-14.2-10.8c-1.1-0.6-6.2-3.2-11.2-5.7
	c0,0,0,0-7.5-2.5c-1.1-0.4-1.1-0.4-1.1-0.4c-1.2-0.4-2-0.9-2.9-1.5c-0.9-0.6-4.8-3.5-8.6-6.4c0,0,0,0-4.7-0.4
	c-0.9-0.1-0.9-0.1-0.9-0.1c-1,0-2,0.2-3.2,0.3c-1.2,0.2-7.5,1.1-14.1,2.1c0,0,0,0-7.6,1.7c-1.1,0.2-1.1,0.2-1.1,0.2
	c-1.2,0.2-3.5,2.9-6.3,6.1c-2.8,3.2-13.4,2-23.6-2.7c0,0-19.7-9.1-42.5-12c-1.2-0.2-2.4-0.3-3.6-0.4c-3-0.4-3-0.4-3-0.4
	c-0.9-0.3-6.2,3.4-6.9,1.2c-0.7-2.1-4.8-6.1-9.2-8.8c-4.3-2.7-10.2-5.8-10.8-6.1c-0.6-0.4-1.2-0.6-1.7-0.9c-1.1-0.6-1.1-0.6-1.1-0.6
	c-0.1,0-3.2-0.2-4.5-0.3c-1.4-0.2-5.9-0.8-10.2-1.4c0,0,0,0-6.3-0.8c-1.2-0.2-2.3-0.2-3.4-0.2c-1.1,0.1-1.1,0.1-1.1,0.1
	c-0.8,0.3-1.4,0.9-2.1,1.6c-0.5,0.5-3.9,4.5-8.1,9.7c-1.4,1.7-3,3.6-4.5,5.5c-10.6,10.6-20.2,20.7-18.2,33.7c-3.8,0-1.9-8.7-7.7-2.9
	c-7.7,8.7-17.3,5.8-23,13c-9.6,10.1-25,7.2-33.9,15.8c-0.6,0.4-1.1,0.8-1.6,1.2c-18.3,13.9-21.8,22-37.4,38.6
	c-2.9,3.3-2.9,3.3-2.9,3.3c-3.2,4.8-5.9,16-5.9,25v151.9L1101,600h819V257.5z" id="level-2"/>
  <path class="st2" d="M1916,317.9c-3.1-2.6-7.1-8.4-11.9-6.7c-2.7,1-2.7,1-2.7,1c-2.7,1.3-7.2,5.7-9.9,9.8
	c0,0,0,0-3.7,3.1c-12.6,10.6-28.3,4.7-38.9-5c-1.4-1.3-1.4-1.3-1.4-1.3c-1.6-1.3-5.6-2.2-8.9-1.8c0,0,0,0-3-1.1
	c-7.7-2.8-13.6-8.8-21.7-10.4c-1.3-0.3-1.3-0.3-1.3-0.3c-1-0.6-5-0.4-8.8,0.3c0,0,0,0-3.6,1.5c-8.7,3.7-17.4,7.2-27.2,6.3
	c-9.4-0.9-18.4-2-27.8-2.3c-9.7-0.2-19.4-0.9-28.4-4.4c-4.8-1.9-9.6-4.3-14.8-5.2c-4.8-0.9-7.5,1.1-11.8,2.5
	c-9.3,3-19.5,1.5-29.2,2.1c-10,0.6-19.7,2-29.4,3.9c-20.4,4.1-41,7.6-61.9,5.4c-20.1-2.2-37.5-13.8-57.7-14.2
	c-3.5-0.1-3.5-0.1-3.5-0.1c-2-2.1-12.1-3.9-22.5-3.9c0,0-20.8,0-26.9,0c-6.1,0-12.8-0.6-14.8-1.3c-2.1-0.7-13.9-5.5-23.2-9.6
	c0,0-5.5-2.4-17.9-4.1c-19-2-38.4-1.5-57.4-1c-35.8,0.9-82.4-9.7-82.4-9.7c-10.1-2.3-26.2-7.2-35.7-10.8c0,0-8.7-3.3-16.2-10
	c-6.2-5.8-17.4-5.8-21.2-10.8c-3.7-5-3.7-5-3.7-5c-3.6-2.2-8.5-5.7-10.9-7.7c0,0,0,0-1.5-2.3c-7.5-10.8-23.7-18.3-39.8-20.8
	c-15-2.5-31.1,4.2-43.6,6.7c-26.2,5.8-67.1,4.1-67.1,4.1c-10.4-0.4-22.2-1.9-26.3-3.3c-4.1-1.4-23.3-5.8-33.4-7.8
	c0,0-66.2-13-87.4-37.1c-8.7-10-24.3-17.1-24.3-17.1c-9.3-4.3-17.1-8.5-17.5-9.4c-0.3-0.9-9.2-6.7-18.1-10.8
	c-8.9-4.1-32.8-17.3-34.9-19.1c-1-0.9-3.1-3.4-5.5-6.4c-1.2-1.5-2.4-3.1-3.6-4.6c-17-16.9-31.4-6.7-46.4-24.9
	c-8.3-9.1-28.9-11.6-44-18.6c-2.7-0.6-5.4-1.3-8.2-1.9c-8.8-1.9-8.8-1.9-8.8-1.9c-4,2.4-11.2,6.8-15.9,9.9c0,0,0,0-0.6,1
	c-9.4,14.6-15,9-28.3,20.6c-11.4,9.9-29.3,28.5-44.7,33.2c-9.3,2.8-17.7,11.6-27.1,13.8c-9.1,2.1-18.1,4.6-27.4,5.7
	c-19.8,2.3-37,7.1-54.6,15.6c-16.6,8.1-34.2,16-53.4,16.9c-20.5,1.1-43.6-1.7-62.4,7.6c-4.7,2.3-4.7,2.3-4.7,2.3
	c-4.9,2.7-8.9,5.8-8.9,6.9c0,1-4,3.4-5.7,5.2c-1.7,1.8-12.8,11.4-18.5,19.3c0,0-32,43.8-73.1,47.2c-34.9,2.5-93.3-22.4-123.2-13.3
	c-18.7,5.8-27.4,23.3-46.1,34.1c-19.9,10.8-44.8,15.8-67.3,22.4c-1.2,0.3-2.4,0.6-3.4,0.9L0,600l1920,3V320.7
	C1918.6,319.9,1917.3,319,1916,317.9z" id="level-3"/>
  <path class="st3" d="M1899.6,342.3c-20.6,6-44,2.8-64.7-0.6c-10.1-1.7-20.2-3.7-30.3-5.5c-11.7-2-22.5-5.7-33.8-8.8
	c-11-3-23.1-2.5-34.4-3.9c-12.4-1.5-24.5-6.7-36-10.6c-10.8-3.6-21.7-6.9-33.1-9.1c-12.4-2.3-25.5-2-38.2-2
	c-10.8,0-21.4-0.4-32.1-1.6c-12.6-1.4-23.8-6.1-36-8.8c-21.6-4.8-44.6,1.8-65.9,4.6c-22.5,3-41.8,14-64.5,16.1
	c-23.8,2.2-48.6-5.4-72.1-7.4c-12.2-1.1-24.2-0.7-35.8,2.5c-13.6,3.6-27.2,6.6-41.2,8.5c-25.7,3.5-51.9,3.1-77.2-2
	c-9.9-2-11-2.4-11-2.4c-9.9-3.1-18.9-5.4-19.9-5.2c0,0,0,0-1.2-0.1c-26.1-1.2-59.3-3.5-59.3-3.5c-10.4-0.7-27.4-1-37.7-0.7
	c0,0-5.1,0.1-15-0.3c-1.6-0.1-1.6-0.1-1.6-0.1c-1.8-0.1-3.2,0-4.8,0.1c-1.7,0.1-4.5,0.3-6.3,0.5c0,0,0,0-3.3,0.6
	c-1.1,0.2-1.1,0.2-1.1,0.2c-1.3,0.1-2.6,0.1-4.2,0.2c-1.6,0-11.4-0.7-21.7-1.6l-0.4,0c-10.3-0.9-21.3-3-22.3-3.4
	c-0.9-0.4-1.7-0.7-2.6-1.2c-8.3-3.6-8.3-3.6-8.3-3.6c-7.9-3.4-17.3-7.3-18.5-7.7c-1.2-0.4-2.2-0.7-3.6-1.1c-1.4-0.4-1.4-0.4-1.4-0.4
	c-1.5-0.4-2.9-0.6-4.5-0.8c-1.6-0.2-4.2-0.6-5.8-0.8c-1.6-0.3-6.9-1-8.6-1.3c-1.8-0.3-10.2-2.1-18.8-3.9c-8.6-1.8-19.5-4.1-21.2-4.5
	c-1.7-0.4-5.2-1.2-7.6-1.9c0,0,0,0-3.7-1.3c-0.9-0.3-0.9-0.3-0.9-0.3c-1-0.3-2.3-0.5-3.8-0.7c-1.5-0.2-10.1-2.4-19.1-4.9
	c-9-2.5-18.2-6.1-19-6.6c-0.8-0.5-1.4-1-2.2-1.5c-7.8-4.6-7.8-4.6-7.8-4.6c-8.1-4.2-17.7-9-19.2-9.5c-1.5-0.6-8.3-2.8-15.2-5
	c0,0,0,0-10.2-2.2c-1.5-0.3-1.5-0.3-1.5-0.3c-1.6-0.3-2.7-0.8-3.9-1.3c-1.3-0.5-6.5-3.1-11.7-5.6c0,0,0,0-6.3-0.3
	c-1.3-0.1-1.3-0.1-1.3-0.1c-1.4,0-2.7,0.1-4.3,0.3c-1.6,0.1-10.2,1-19.1,1.9c0,0,0,0-10.3,1.5c-1.5,0.2-1.5,0.2-1.5,0.2
	c-1.6,0.2-3,0.2-4.6,0.1c-1.7-0.1-11.5-0.8-21.8-1.7c0,0-40.6-3.4-71.5-6c-1.6-0.1-3.3-0.3-4.9-0.4c-4-0.4-4-0.4-4-0.4
	c-1.3-0.3-6.1-1.3-7.9-1.7c-1.7-0.4-7.9-2.6-13.8-5c-5.9-2.4-13.8-5.1-14.6-5.4c-0.9-0.3-1.6-0.6-2.3-0.8c-1.5-0.5-1.5-0.5-1.5-0.5
	c-0.1,0-4.3-0.2-6.1-0.3c-1.9-0.1-8-0.7-13.7-1.2c0,0,0,0-8.5-0.7c-1.6-0.1-3.2-0.2-4.6-0.2c-1.4,0-1.4,0-1.4,0
	c-1.1,0.3-1.9,0.8-2.9,1.4c-0.9,0.6-8.3,6.3-16.3,12.7c0,0-4.6,3.6-22.9,11.6c-3.2,1.3-6.5,2.6-9.9,3.9c-1.1,0.4-1.1,0.4-1.1,0.4
	c-1.2,0.5-2.2,0.9-3.4,1.5c-1.2,0.6-4.7,2.3-7.9,3.9c-12.4,7.2-25.7,16.8-34,24.9c-11.7,14.5-35,4.8-51.2,16.5
	c-2.1,1.3-4.1,2.6-6,3.9c-9.3,6.4-16.1,12.6-29.3,21.7c-9.2,6.7-16.7,19.9-34.7,17.6c-1.7-0.2-20.9-11.2-22.5-11.4
	c-6.9-0.8-12.6,0.7-18.2,2.3c-5.9,1.6-5.9,1.6-5.9,1.6c-4.3,0.2-12,0.3-13.8,0.1c-1.8-0.2-6.3-0.2-9.8,0c-3.6,0.1-9.4,0.6-13,1
	c0,0,0,0-0.7,0.2c-0.7,0.2-0.7,0.2-0.7,0.2c-1.8,1.1-7.8,3.9-13.3,6.1c-5.5,2.2-12.9,5.5-14.4,6c-1.5,0.5-5.3,1.6-8.3,2.5
	c-3,0.8-8.6,2.4-9.7,2.7c-1.1,0.2-2,0.4-3.1,0.6c-5.8,0.5-5.8,0.5-5.8,0.5c-3.8,0-10.4-0.2-14.5-0.4c0,0,0,0-1.4-0.6
	c-1.4-0.6-1.4-0.6-1.4-0.6c-3.2-0.2-9.7-0.6-14.5-0.9c-4.8-0.3-12.4-1.3-13.8-1.8c-1.4-0.5-5.7-1.8-9.4-2.8c-3.7-1-9.9-2.8-13.8-4
	c0,0,0,0-1.4-0.2c-1.4-0.2-1.4-0.2-1.4-0.2c-2,0.1-3.6,0.3-5.1,0.4c-15,1.3-28.3,4.9-36.7,6.2c-13.3,2.2-21.4,2.2-21.4,2.2
	c-10.4,0-23,0-24.9,0.1c-1.9,0.1-4.1,0.1-5,0.2c0,0,0,0-3.1,0.1c-1.6,0.1-1.6,0.1-1.6,0.1c-1.7,0.1-3,0.3-4.6,0.5
	c-1.4,0.2-9.2,0.6-18.2,0.8L0,600h1920V335.4C1913.1,337.5,1906.6,340.2,1899.6,342.3z" id="level-4"/>
  <path class="st4" d="M1904.4,364.2c-3,0-6.1,0-9.1-0.1c-7.5-0.2-7.5-0.2-7.5-0.2c-6.5-1.2-12.3-2.4-12.9-2.7
	c-0.6-0.3-7.4-2.1-14.4-3.4c-6.9-1.3-31.6-1.2-32-1.1c0,0,0,0-0.4,0.1c-8.2,1.1-14.5,2.8-22.1,6.3c-5.5,2.5-10.9,4.9-16.8,6
	c-7.3,1.3-15.2,1.7-22.5,1.3c-4.8-0.2-8.5,4.6-13.8,4.4c-6.8-0.2-12.2-3-18.6-5c-5.2-1.6-10.6-1.4-15.7-3.4
	c-8.3-3.2-8.3-3.2-8.3-3.2c-7.8-5.9-22.5-12.2-32.7-13.9c0,0-8.1-1.4-22.8-2.4c-3.1-0.2-3.1-0.2-3.1-0.2c-3.6-0.1-14.9-0.9-25.3-1.8
	l-51.2-0.1c-9.9-3.2-18.8-5.2-19.8-4.5c0,0,0,0-1.1,0.3c-0.7,0.2-0.7,0.2-0.7,0.2c-0.8,0.1-1.6,0.3-1.8,0.6c0,0,0,0-0.2,0.1
	c-4.1,2.7-8.7,4-12.9,6.4c-3.9,2.2-4.2,4.6-6.4,8.3c-3.9,6.5-11.6,6.7-17.9,5.5c-7.5-1.4-13.2-4.5-19.4-9.2
	c-4.7-3.6-12.5-11.3-18.8-8.4c-3.4,1.5-3.4,1.5-3.4,1.5c-3.1-1.5-8.7-2.3-12.6-1.7c0,0,0,0-3.7-0.5c-4.5-0.6-4.5-0.6-4.5-0.6
	c-4.4-1.6-16.4-2.8-26.8-2.8c0,0-8.9,0-22.2-0.9c-3.1-0.2-3.1-0.2-3.1-0.2c-3.5-0.3-13.2-1.4-21.7-2.5c-8.5-1.1-31.1,0.6-32.4,1.8
	c0,0,0,0-1.9,0.6c-6.2,1.8-12.5,2-18.9,2.3c-6,0.3-11.1,2.2-17,3.4c-12.7,2.7-25.6,1.9-38.5,1.7c-11.3-0.2-22-2.1-32.3-7
	c-5.2-2.5-9.6-5.3-14.1-9c-1.1-0.9-1.1-0.9-1.1-0.9c-1.1-0.8-2.4-1.6-2.9-1.7c0,0,0,0-0.4-0.1c-2-0.5-4-0.9-6.2-1.4
	c-2.2-0.5-2.2-0.5-2.2-0.5c-2.6-0.5-7.2-1.1-10.3-1.3c0,0,0,0-2.9-0.1c-2.9-0.1-2.9-0.1-2.9-0.1c-3.2,0-14.4-0.3-24.8-0.6
	c0,0-1,0-9.2-1.4c-8.5-1.5-16.6-2.9-26.7-2c-23.9,1.9-35.9,9.3-62,11.2c-3.2,0.3-6.5,0.5-9.8,0.7c-16.4,1-34.1,1.7-34.1,1.7
	c-10.4,0.4-21.8,1.1-25.4,1.4c0,0,0,0-3.3,0.3c-3,0.3-5.9,0.6-8.9,0.9c-3,0.3-6.1,0.6-9.2,0.9c-7.7,0.8-7.7,0.8-7.7,0.8
	c-8.6,0.9-16.7,3.1-18,4.9c0,0,0,0-2.2,0.8c-8.1,2.9-15.7,9.1-24.5,9.3c-9.7,0.2-19.4-4.3-29.1-1.9c-11.8,2.9-21.2,11.6-32.9,14.9
	c-10,2.9-19.7,4.4-29.5,8.1c-8.4,3.2-17.9,4.3-26.3,0.5c-7.3-3.3-14.1-8.3-21.7-11c-20.5-7.3-44.1-10.1-44.1-10.1
	c-10.3-1.2-27.3-2-37.6-1.7c0,0-23.9,0.7-45.1,0.3c-31.7-0.6-63.3-4.4-63.3-4.4c-10.3-1.2-23-2.1-28.2-1.9c-5.2,0.2-19,0.5-19.2,0.6
	c0,0,0,0-0.2,0.1c-6.7,2.6-12.7,6.7-19.9,7.8c-7.5,1.2-7.5,1.2-7.5,1.2c-7.5,2.3-14.3,4.6-15.3,5.2c-1,0.6-4.6,1.6-5.9,2.1
	c0,0,0,0-1.4,0c0,0,0,0,0,0c-0.1,0-4.1,2.1-8.9,4.7c0,0,0,0-6-3.2c-1.5-0.8-1.5-0.8-1.5-0.8c-1.3-1.5-5.6-3.9-9.5-5.4
	c0,0,0,0-3.6-1.8c-5.3-2.7-10.9-4.5-16.1-7.5c-1.6-0.9-1.6-0.9-1.6-0.9c-1-1.4-4.8-2.5-8.6-2.4c-3.8,0.1-14.9,1.8-16.7,3.3
	c0,0,0,0-2.6,0.2c-6.9,0.4-12.6,1.5-18.9,4.4c-5,2.3-10,4.2-15.4,4.4c-10.6,0.4-13.3-0.1-13.3-0.1c-10.2-1.7-26.9-1.1-36.9,1.4
	l-78.7,18.5c-10,2.7-20.2,6.4-22.6,8.1c0,0,0,0-2,2c-3,2.9-5.9,4.9-9.7,6.3c-3.8,1.5-8.6,0-12.5-0.2c-4.8-0.2-9.6,0.1-14.4,0.7
	c-11,1.4-20.9,2.7-31.5,6.1c-9.1,2.9-18.4,3.5-27.8,1.5c-10.9-2.3-20.6-5-31.8-4.5c-8.5,0.4-16.8,5.1-25.3,6.5
	c-9.8,1.7-19.5,3.9-29.1,0.2c-4.2-1.6-7.8-4.3-11.7-6.4c-4.4-2.3-8.8-2-13.6-2c-2.2,0-2.2,0-2.2,0c-1.7-1.1-11.6-1.9-22-1.9
	l-6.6-0.4L0,600h1920V364.2C1915.7,364.2,1910.4,364.3,1904.4,364.2z" id="level-5"/>
  <path class="st5" d="M1920,425.5c-2.6-1-9-2.9-14.2-4.3c0,0,0,0-9.8,1.3c-7.1,1-7.1,1-7.1,1c-4.3-0.2-9.1-0.4-10.8-0.5
	c-1.6-0.1-3-0.1-4.4-0.2c0,0,0,0-1.3-0.1c-2.3-0.2-4.7-0.3-7-0.5c-1.2-0.1-2.3-0.2-3.5-0.2c-12.2-0.8-21.8-6.7-33.6-8.3
	c-1.3-0.2-2.3-0.3-3.6-0.5c-1.3-0.2-12.4-1.8-21.8-2.8c-9.4-1-18.1-2.2-19.2-2.7c-1.1-0.5-2-0.9-3-0.8c0,0,0,0-0.9,0.1
	c-2.7,0.2-5.4,0.4-8.2,0.3c-3.5,0-7.1-0.1-10.6-0.3c-1.2-0.1-2.2,0-3.4,0c-1.2,0-13.3,0.8-23.6,1.6c0,0-0.4,0-10.8-1.4
	c-1.3-0.2-2.3-0.4-3.6-0.6c-1.3-0.2-8.4-0.7-12.9-0.4c-4.5,0.3-9.7,0.7-11.5,0.9c-1.8,0.2-14.1-1.9-24.2-4.1l-2-0.4
	c-10.1-2.3-19.6-4.4-21-4.8c-1.4-0.4-2.6-0.7-3.5-1.1c0,0,0,0-0.9-0.4c-0.9-0.4-2-0.8-3.4-1.3c0,0,0,0-0.6-0.1
	c-0.6-0.1-2.8,0-3.4,0.2c-0.6,0.3-0.6,0.3-0.6,0.3c-3.4,0.8-11.7,3.3-18.4,5.7c-6.7,2.4-14.8,5.2-18,6.4c0,0,0,0-1.8,1
	c-1.8,1-1.8,1-1.8,1c-5.1,1.9-12.3,4-16,4.7c0,0,0,0-5.3-0.1c-4.6-0.1-4.6-0.1-4.6-0.1c-1.5,0.3-4.3,0.6-6.1,0.8
	c-1.8,0.2-14.4,0.4-24.8,0.4c0,0-1.4,0-4.7,4.8c-3.3,4.8-3.3,4.8-3.3,4.8c-8.1,3.8-16,7.2-17.6,7.7c-1.6,0.5-8.4,0.8-12,0.7
	c0,0,0,0-5-1.6c-4.6-1.5-4.6-1.5-4.6-1.5c-2.5-0.2-6-0.3-7.9-0.4c-1.9,0-14.4-1.2-24.7-2.8l-35.7-5.5c-10.3-1.6-20.5-3.5-22.6-4.4
	c0,0,0,0,0,0c0,0,0,0,0,0c-2.5-0.4-7.3-1.4-10.6-2.1c-3.3-0.7-7.5-1.6-9.3-1.9c-1.8-0.3-13.9-0.2-23.7,0.1c0,0,0,0-11.6-0.4
	c-2.5-0.1-5-0.2-7.5-0.3c-1.2,0-2.5-0.1-3.7-0.1c-45.1-1.5-84.5,23.4-84.5,23.4c-8.7,5.5-16.9,10.6-18.3,11.3
	c-1.4,0.7-11.1,4.3-19,7c0,0,0,0-12.5,1.5c-1.6,0.2-3.3,0.3-5,0.4c-8.7,0.5-18,0.2-27-0.8c-1.5-0.2-2.6-0.2-4.1-0.3
	c-1.4-0.1-13.6,0.2-24,0.6c0,0-5.8,0.2-20.8-5.3c-8.3-3.1-10.2-3-10.2-3c-10.4,0.8-20.2,1.7-21.8,1.8c-1.6,0.2-3,0.3-4.5,0.5
	c0,0,0,0-1.3,0.3c-4.1,0.8-7.8,2.1-11.1,3.6c-1.1,0.5-2.1,0.8-3.3,1.2c-1.2,0.4-8.7,2.5-13.8,3.8c0,0,0,0-3.2,2.9
	c-0.6,0.6-1.3,1-2.1,1.5c-0.8,0.5-7.6,3.9-12.4,6.5c-4.8,2.6-9.7,5.3-11,6c-1.2,0.7-4.1,4.2-6.1,6.1c-2,1.9-4.4,4-5.4,4.7
	c-1,0.8-1.8,1.4-3.2,1.9c0,0,0,0-1.3,0.5c-11.4,4.3-23.2,7.1-35.6,7.7c-0.9,0-1.8-0.1-2.8-0.2c-1-0.2-6.1-1.6-8.5-2.3c0,0,0,0-2.9-3
	c-4.6-4.9-4.6-4.9-4.6-4.9c-3.7,1.6-11.2,3.4-16.6,4c-5.4,0.6-19.2-5.3-24.5-8c-5.2-2.7-11.7-5.3-14.4-5.8c0,0,0,0-0.4-0.2
	c-0.4-0.2-0.4-0.2-0.4-0.2c-2.4-1.3-11.7-6.4-20.6-11.3c-8.9-4.9-17.4-9.4-18.9-9.9c-1.4-0.6-6-1-6.9-1c0,0,0,0-3.2,0
	c-3.1,0-6.2,0-9.3,0.2c-1.4,0.1-1.4,0.1-1.4,0.1c-0.2,0-1.9,0.1-3.8,0.2c-1.8,0.1-3.4,0.2-5.8,0.4c0,0,0,0-2.2,0.2
	c-1.1,0.1-2,0.3-3.1,0.5c-1.1,0.3-7.9,2.1-12.7,3.1c-4.8,0.9-9.6,2.3-10.8,3c-1.2,0.7-5.7,1.5-7,1.6c0,0,0,0-4-0.1
	c-1.3,0-2.3-0.3-3.4-0.6c-1.1-0.3-11-3.8-19.9-6.4c-8.9-2.6-17.3-5.1-18.7-5.6c-1.4-0.5-2.5-0.9-5-0.6c0,0,0,0-2.7,1
	c-3.2,1.1-3.2,1.1-3.2,1.1c-2.2,0-5.3,0-7-0.1c-1.7,0-3-0.1-4.7-0.3c0,0,0,0-1.5-0.2c-10.2-1.6-10.2-1.6-10.2-1.6
	c-7.6-2.5-15.1-5-16.8-5.5c-1.7-0.5-13.7-3.3-23.9-5.6c0,0-7.6-1.7-22.3-5.6c-10-2.9-10-2.9-10-2.9c-5.8-4.6-11.6-8.9-13-9.6
	c-1.3-0.7-13.3-2.8-23.6-4.1l-8.3-1.1c-10.3-1.3-21.2-2.2-24.2-2c0,0,0,0-0.9,0.5c-0.9,0.5-0.9,0.5-0.9,0.5c-2.8,1.8-13,4.1-22.6,5
	c-9.6,0.9-18.8,2-20.5,2.3c-1.7,0.3-7.4,0.1-9.6-0.2c-2.2-0.3-6.2-0.8-9-1.1c0,0,0,0-0.6,0.2c-0.6,0.2-0.6,0.2-0.6,0.2
	c-2.5,0.3-4.6,0.6-6.1,0.5c-3-0.2-3-0.2-3-0.2c-0.8-0.1-2.7-0.4-4.3-0.7c-1.6-0.2-2.8-0.4-4.2-0.7c0,0,0,0-1.2-0.2
	c-10.8-2.1-20.3-5.3-28-9.4c-6.6-3.6-12.7-7.4-20.3-10.6c-1.9-0.8-9.4-3.1-0.5-0.3c-2.6-0.8-5.2-1.6-7.8-2.5c-0.4-0.1-1-0.2-1.8-0.2
	c-0.8,0-9.8,0.2-16.8,0.5c0,0,0,0-9,0.6c-19,1.1-35.2-6.6-35.2-6.6c-9.3-4.5-20.6-8.5-25-9c0,0,0,0-4-0.1
	c-9.6-0.2-19.3-0.9-28.9-0.5c-11.3,0.5-18.2,3.5-27.1,9.9c-7.4,5.3-15,7.9-24.3,7.5c-4.2-0.2-9.5-1.1-13.6,0.2
	c-2.6,0.8-4.5,3.2-6.5,4.8c-6.9,5.5-14.6,9.1-23,11.9c-9,3-17.4,5.8-25.5,10.8c-8,4.9-15.1,7-24.4,8.6c-8.6,1.5-17.6,4.4-26.4,3.6
	c-8.9-0.8-17-8.3-26.2-5.5c-8.9,2.7-15.3,10.8-25.5,10c-7.7-0.6-13.7-3.9-20.4-7.2c-4.4-2.1-9-3.2-13.4-5.1c-4.5-2-8.2-5-12.5-7.3
	c-9.3-4.9-19.5-0.4-29.5-1.7c-3.8-0.5-7.4-1.2-11-2.3L0,600h1920L1920,425.5C1920,425.5,1920,425.5,1920,425.5z"
        id="level-6"/>
  <path class="st6" d="M1906.5,439.9c-8.7-0.3-30.4-2.8-31.4-2.9c0,0,0,0-0.9-0.1c-7-0.7-13.8-1.6-20.2-2.6
	c-15.8-2.4-33.7-3.2-52.5-3.5c-0.9,0-0.9,0-0.9,0c-1,0-5.2,0.2-9.2,0.5c-4,0.3-16.5-0.5-17.6-0.5c0,0,0,0-1,0
	c-46.6,0.2-110.1-7.8-110.1-7.8c-10.3-1.3-22.5-2.7-27.1-3.1c-4.6-0.4-16.9,0.8-19.2,1.5c-2.3,0.7-15.2,3.2-22.5,4.3
	s-31,6.6-38.3,7.9c-7.3,1.3-36.8,4.4-47.2,5.1l-27.5,5.5c-10.3,1.6-19,3-19.4,3.1c0,0,0,0-1.2-0.1c-0.6,0-0.6,0-0.6,0
	c-0.8,0-1.8-0.1-2.2-0.2c-0.4-0.1-2.3,0.3-3.4,1c-1.1,0.6-7.2,1.7-9.5,0.4c-2.3-1.3-13-0.3-13.8-0.2c0,0,0,0-0.8,0.1
	c-4.6,0.8-4.6,0.8-4.6,0.8c-5.5,0.1-10.5,0.1-11.1,0c0,0,0,0-0.6-0.1c-1.7-0.2-1.7-0.2-1.7-0.2c-1.8,0.1-9,2.7-15.8,5.6
	c-6.9,2.9-36,3.6-42.4,3.2c0,0,0,0-6.1-0.3c-0.9,0-0.9,0-0.9,0c-1,0-5.1-0.7-9.1-1.4c-4-0.7-19.6-0.4-20.5-0.5c0,0,0,0-0.8-0.1
	c-4.2-0.4-8.3-0.9-12.1-1.5c-0.8-0.1-0.8-0.1-0.8-0.1c-1.6-0.8-4.4-2.5-6.3-3.6c-1.9-1.2-11.6-1.5-13.4-0.1c0,0,0,0-6.9,0.5
	c-0.8,0-1.5,0.1-2.1,0.2c-4.6,0.4-6.7,1.3-7.2,3.1c-0.1,0.2-0.1,0.2-0.1,0.2c0,0.2-0.9,0.8-1.9,1.3c0,0,0,0-1.3,0.3
	c-0.6,0.2-0.6,0.2-0.6,0.2c-0.8,0.2-9.6,2.6-19.6,5.5c0,0-3.5,1-16.4,3.8c-0.7,0.2-1.4,0.3-2.2,0.5c-7.9,1.8-7.9,1.8-7.9,1.8
	c-8.5,2.1-17.4,4.2-19.8,4.7c-2.4,0.5-11.2,2.6-13.9,3.5c-2.8,0.8-8.5,4.8-10.7,6.4c0,0,0,0-3,1.3c-8.8,4-22.6,7.5-36.3,8.6
	c-13.3,1-18.8-0.8-18.8-0.8c-9.8-3.2-26.3-4.7-36.6-3.4l-38.1,2.3c-10,2.7-18.5,5-18.9,5c-0.4,0.1-8.1,0.6-16.2,1.1
	c-8.1,0.5-27.9,4-28.3,4c-0.4,0-6.2-0.7-12.1-1.5c0,0,0,0-4.6,1.7c-2.9,1-2.9,1-2.9,1c-4.6,0.5-9.3,0.9-10.3,0.9c0,0,0,0-0.9,0
	c-37.7-0.6-69.5-8.3-100.1-15.4c-0.7-0.2-1.5-0.3-2.2-0.5c-8.3-2-8.3-2-8.3-2c-7.7-2.9-14-5.3-14.1-5.3c-0.1-0.1-1.1-1-2.1-1.9
	c0,0,0,0-1.2-0.7c-0.4-0.2-0.4-0.2-0.4-0.2c-0.5-0.3-4.9-0.9-9.8-1.5c0,0,0,0-1.6-1.5c-0.3-0.2-0.3-0.2-0.3-0.2
	c-0.3-0.3-3.9-1.4-8-2.4c-4.1-1-13.4-4.5-14.2-4.6c0,0,0,0-0.8-0.1c-6.7-0.6-14.1-0.8-20.7-0.8c-3.3,0-3.3,0-3.3,0
	c-3.5-0.8-7-1.5-7.8-1.6c0,0,0,0-0.7-0.1c-7-1.1-7-1.1-7-1.1c-6.7-1.6-12.7-3.1-13.4-3.2c0,0,0,0-0.6-0.1c-3.9-0.4-3.9-0.4-3.9-0.4
	c-5.6-0.1-10.4-0.1-10.7-0.1c-0.3,0-1.8,0-2.8-0.1c0,0,0,0-0.9-0.1c-3.6-0.3-3.6-0.3-3.6-0.3c-3.9-0.4-13.8-2-22.1-3.7
	c0,0,0,0-6.4-1.4c-0.6-0.1-0.6-0.1-0.6-0.1c-0.7-0.1-5.5-1.1-10.8-2.1c0,0,0,0-4.5-0.9c-0.6-0.1-0.6-0.1-0.6-0.1
	c-0.7-0.1-4.4-1.1-8.3-2.2c-3.9-1-13.7-2.8-14.4-2.9c0,0,0,0-0.7,0c-4.7,0-4.7,0-4.7,0c-7.1,0.7-13.7,1.2-14.7,1.2c0,0,0,0-0.9,0
	c-12.9-0.7-26-0.7-38.5,0.3c-0.9,0.1-0.9,0.1-0.9,0.1c-1,0.1-4.9,0.8-8.8,1.6c-3.9,0.8-15.8,3.1-16.4,3.2c0,0,0,0-0.6,0
	c-3.1,0.2-3.1,0.2-3.1,0.2c-4.7,0-9.1,0.1-9.8,0.2c0,0,0,0-0.7,0.1c-2,0.3-2,0.3-2,0.3c-2.2,0.5-4.1,0.9-4.4,0.9
	c-0.2,0-4.2,0.9-8.3,1.9c-4,0.9-20.3,3.2-30.7,3.9c0,0-41.1,2.4-69.5,7c-8.2,1.4-18.3,1.9-28.9,1.7c-0.9,0-0.9,0-0.9,0
	c-1,0-7.4-0.8-14.3-1.6c-6.9-0.9-28.6-3.1-31.9-3.2c0,0,0,0-3.2,0.2c-2.6,0.2-2.6,0.2-2.6,0.2c-2.7,0-5.8,0-6.8,0c0,0,0,0-0.9,0
	c-20.4-0.7-38.9-2.2-58.7-4.8c-18.3-2.2-37.9-1.9-58-1.7c-0.9,0-0.9,0-0.9,0c-1,0-10.3,0-20.7,0.1l-25-1.4
	c-10.3-1.4-19.2-2.7-19.8-2.7c0,0,0,0-0.6,0c-1.1,0-2.2,0.1-3.3,0.1c-1.7,0.1-1.7,0.1-1.7,0.1c-1.8-0.1-11.7-1.8-21.8-4l-39.7-9.7
	c-10.2-2.1-20-3.9-21.8-4.1c-1.8-0.1-15,1.6-25.3,3.3l-25.9,3.6c-4.7,0.5-9.2,1-12.9,1.6L0,600h1920V440.3
	C1916,440.2,1911.1,440.1,1906.5,439.9z" id="level-7"/>
</svg>
