<?xml version="1.0" encoding="utf-8"?>
<!-- Generator: Adobe Illustrator 24.0.1, SVG Export Plug-In . SVG Version: 6.00 Build 0)  -->
<svg id="Layer_1" style="enable-background:new 0 0 1920 600;" version="1.1" viewBox="0 0 1920 600" x="0px"
     xml:space="preserve" xmlns="http://www.w3.org/2000/svg" y="0px">
<style type="text/css">
	.st0 {
    display: none;
    fill: #99CFFF;
  }

  .st1 {
    fill: #BDBDBD;
  }

  .st2 {
    display: none;
    fill: #5297DE;
  }

  .st3 {
    display: none;
    fill: #2A53A1;
  }

  .st4 {
    display: none;
    fill: #1B2F80;
  }

  .st5 {
    display: none;
    fill: #1B1B54;
  }
</style>
  <path class="st0" d="M2441.1,257c-15,0.1-30.1,1.2-45.1,1.8c-14.2,0.6-29.3,1.7-43.5,0.5c-17.2-1.4-31.4-3.5-48.9-1.2
	c-5.7,0.7-11.2,1.1-16.6,1.2c-1.1,0.6-2.4,1.1-3.9,1.6c-10.6,3.3-25.4,2.6-37.4,0.9c-7.1-1.1-13.6-2.6-20.1-4.2
	c-6.5,0-8-3.4-14.1-3.3c-9.5,0.1-12.1-10.4-21.6-10.8c-9-0.4-25.4-16.3-34.5-16c-15.5,0.5-29.8,16.4-45.3,16.8
	c-6.5,0.2-19.7,9.6-26.3,9.5c-15.4,2.1-20.8,6.6-36.8,5.8c-17.3-0.9-36-9.6-53.3-9.3c-14.7,0.3-27.8,7.9-39.9,4.9
	c-3.1-0.8-6.2-1.5-9.3-2.3c-4.9-0.4-9.7-0.8-14.3-1.5c-6.8-1-14.2-2.6-21.6-2.5c-7.9,0-19.7,8.2-27.4,8.6
	c-13.8,0.8-26.8,6.6-40.7,6.5c-13.4,2.8-24.8-8.9-39.9-7.8c-15.9,1.2-31.3,1.1-47.4,1.5c-17.4,0.4-32,4.8-49.2,5.8
	c-16.4,1-32.2,0.5-48.1-1.3c-19.4-2.1-38.1-4.3-58.1-5.6c-15.3-1-28-5-43.6-5.4c-33.3-0.9-66,2.2-99.5,0.6
	c-15.3-0.7-29.9-2.2-44.1-4.4c-14.7-2.3-28-5.8-42.8-7.9c-15.8-2.3-32.7-4-49.4-5.1c-11.1-0.7-22.4-1.3-32.7-3c-0.7,0-1.4,0-2.2,0
	c-35.5,0.8-53.3,3.8-91.9,4.5c-4.8,0.1-9.6,0.2-14.5,0.3c-24.4,0.4-50.8,0.6-78.5,1c-4.8,0.1-9.7,0.3-14.6,0.4
	c-4.4,0.1-8.8,0.2-13.2,0.4c-4.5,0.1-9,0.2-13.6,0.4c-63.9,1.8-129,4-208.2,3.7c-5.5,0.1-11,0.2-16.5,0.2
	c-38.7,0.5-77.6,1-116.9,1.4c-42.9,0.4-87.7,0.9-131.3,0.7c-47-0.2-84.3-1-121.8-2.7c-40.6,0.5-80.4,0.3-121.8,0.1
	c-8.8,0-17.6-0.1-26.5-0.1c-4.4,0-8.8,0-13.2-0.1c-160.4-0.7-255.2,10.6-367.7,17c-35.5,1.5-65.1,3-109.4,3.7
	c-5.8,0.1-11.6,0.1-17.6,0.2c-31,0.2-64,0.1-96-0.4c-5.3-0.1-10.7-0.2-15.9-0.2c-49.4-1.2-91.5,0-136.4-1.3L-442,590h2928l0.4-329.9
	C2471.2,259.6,2456.2,256.9,2441.1,257z"/>
  <path class="st1" d="M2484.8,317.2c-6-0.8-10.6,0.6-16.5,0.9c-9.8,0.5-18.9-2.3-26.1-6c-4.6-2.4-10.6-7.9-17.6-6.3
	c-4.1,0.9-7.7,2.1-11.4,3.2c-3.6,3.5-7.4,7-12.9,9.9c-18.6,10-42,4.4-57.7-4.7c-2.1-1.2-4.1-2.3-6.3-3.5c-4.5,0.5-9,0.5-13.5-0.5
	c-11.4-2.6-20.2-8.3-32.2-9.8c-1.9-0.2-3.5-0.7-4.7-1.2c-5,0.4-10.2,1.3-15.6,2.8c-12.9,3.5-25.8,6.8-40.3,5.9
	c-13.9-0.9-27.3-1.9-41.3-2.1c-14.3-0.2-28.8-0.8-42.2-4.2c-7.1-1.8-14.3-4-21.9-4.9c-7.2-0.8-11.1,1-17.5,2.3
	c-13.8,2.8-28.9,1.4-43.2,1.9c-14.8,0.6-29.2,1.8-43.6,3.7c-30.2,3.9-60.8,7.2-91.7,5.1c-29.8-2-55.5-13-85.6-13.4
	c-5.1-0.1-8.6-1.6-10.4-3.7c-51.5,0-84.1,0-84.3-0.1c-5.5,0-11.1-2.3-14.8-3.1c-18.5-3.1-33.2-9.4-51.7-10.9
	c-28.2-1.9-56.9-1.4-85.1-1c-53.1,0.9-104.8,1.7-149.4-13.1c-18.5-5.5-38.8-9.4-49.9-15.6c-9.2-5.5-25.9-5.5-31.4-10.2
	c-5.5-4.7-11.5-3.8-15.2-8.5c-3.3-2.7-6.5-3.4-8.8-5.6c-11.1-10.2-35.1-17.2-59.1-19.5c-22.2-2.3-46.2,3.9-64.6,6.3
	c-38.8,5.5-84.9,7-127.4,3.1c-9.2-1.6-22.2-4.7-33.2-6.3c-64.6-6.2-125.6-15.6-157-38.3c-12.9-9.4-40.6-15.6-60.9-23.4
	c-1.8-1.6-1.8-3.1-3.7-4.7c-22.2-8.6-48-14.1-70.2-21.9c-5.5-2.3-11.1-6.2-12.9-8.6c-7.4-7.8-11.9-22.3-32.2-24.6
	c-9.2-1.6-10.3-6.2-12.8-7c-8-2.2-11.3-8.9-13.6-11.6c0-1.6-19.3-36-23-37.7c-4.6-2.2-4.6-13.7-6.3-16.2c-5.4-0.4-13.1,6.3-18.2,5.4
	c-2.7,0.4-14.8-5.1-17.6-4.8c-17,2-23.3,6.3-39.7,4.1c-13-1.8-14.9-0.9-23.9,2.3c-0.9,1-12.6,5.2-13.6,6.1
	c-14,13.7-17,36.9-36.9,47.8c-16.9,9.3-37.5,43.3-60.4,47.7c-13.7,2.6-26.3,10.9-40.2,13c-13.5,2-26.8,4.4-40.6,5.4
	c-29.3,2.2-54.9,6.6-80.9,14.7c-24.6,7.6-50.7,15-79.2,15.9c-30.5,1-64.6-1.6-92.6,7.1c-6.9,2.2-13.5,4.5-20.1,6.9
	c-0.5,1.7,0.1,3.6-3.8,3.6c-9.2,1.6-9.2,6.2-16.6,7.8c-51.7,14.1-62.9,54.7-123.9,57.8c-51.7,2.3-138.3-21.1-182.6-12.5
	c-27.7,5.5-40.6,21.9-68.3,32c-29.6,10.2-66.5,14.8-99.7,21.1c-15.9,2.6-31.9,4.7-48.1,6.4L-442,590h2928l0.4-272.6
	C2485.9,317.3,2485.4,317.3,2484.8,317.2z"/>
  <path class="st2" d="M2486,590l0.4-255.6c-6.9,0.2-13.7,0.6-20.6,1.4c-16.4,1.8-30.5,6.5-46.1,9.6c-30.5,6.1-65.2,2.8-96-0.6
	c-15-1.7-29.9-3.8-44.9-5.6c-17.3-2.1-33.4-5.8-50.2-8.9c-16.3-3-34.2-2.5-51-4c-18.4-1.5-36.3-6.8-53.4-10.8
	c-16-3.7-32.1-7.1-49-9.2c-18.4-2.4-37.8-2-56.6-2c-16,0-31.8-0.4-47.7-1.6c-18.7-1.5-35.3-6.2-53.3-9c-32.1-4.9-66.1,1.8-97.8,4.7
	c-33.3,3-61.9,14.3-95.7,16.4c-35.4,2.2-72-5.5-106.9-7.6c-18-1.1-35.8-0.7-53.1,2.5c-20.1,3.7-40.3,6.7-61.1,8.7
	c-38.2,3.6-76.9,3.2-114.5-2.1c-14.7-2-29-4.9-43-8.1c-1.3,0.3-2.9,0.4-4.6,0.3c-38.7-1.2-77.5-2-115.9-4.8
	c-17.9,0.5-35.5,0.7-50.3,0.3c-2.4-0.1-2.4-0.1-2.4-0.1c-2.7-0.1-7.9,0.1-11.7,0.3c0,0-4.7,0.3-9.7,0.9c-1.7,0.2-1.7,0.2-1.7,0.2
	c-1.9,0.1-6.7,0.2-10.5,0.3l-56.3-3.5c-2.6-1-6-2.1-7.6-2.5c0,0,0,0-1.4-0.4c-12.3-3.7-33.6-10-33.6-10c-2.9-0.9-7.1-1.9-9.3-2.3
	c0,0,0,0-2.1-0.4c-2-0.4-2-0.4-2-0.4c-2.3-0.4-7.3-0.9-11.1-1.1l-8.4-1c-3.8-0.2-9.8-0.8-13.3-1.4l-46.3-6.8
	c-3.6-0.4-9.4-1.3-12.8-1.9c0,0-6.7-1.2-12.3-2.5c-1.4-0.3-1.4-0.3-1.4-0.3c-1.6-0.3-5.9-0.9-9.6-1.2l-48.5-9.2
	c-1.8-1.1-4.5-2.5-6-3.1c0,0,0,0-1.3-0.5c-11.6-4.6-33.4-12.4-33.4-12.4c-2.7-0.9-7.5-2.3-10.7-3c0,0-18.5-4.1-33.6-6.3
	c-2.2-0.3-2.2-0.3-2.2-0.3c-2.4-0.3-6.6-1.4-9.3-2.3c0,0-13.8-4.7-23.2-5c-1.9-0.1-1.9-0.1-1.9-0.1c-2.1,0-6.9,0.3-10.7,0.5
	c0,0-10.1,4.5-25.3,6c-2.2,0.2-20.4-5.2-20.4-5.2c-2.4,0.2-3.3,7.3-7.1,7.1c0,0-40.3,53.2-115.1-0.6c-2-1.4-19.2-4.4-21.7-4.5
	c-6-0.4-13.8-8.4-13.8-8.4c-3.5-0.5-9.3-1.4-12.9-1.9l-31.7-8.8c-3.6-0.5-7.3-1.2-8.2-1.6c0,0,0,0-1.1-0.3c-2.2-0.6-2.4-0.6-2.4-0.6
	c-3.9,0-10.1-0.3-13.9-0.5c0,0-15.4-1-28-1.7c-2.3-0.1-4.7-0.2-6.8-0.2c-2.1,0.1-2.1,0.1-2.1,0.1c-1.7,0.3-4.8,1.4-6.8,2.5
	c0,0-28.4,15.5-55.6,23.6c-4.8,1.3-9.7,2.7-14.6,3.9c-1.7,0.4-1.7,0.4-1.7,0.4c-1.8,0.5-5.6,1.6-8.3,2.5c0,0-8.5,2.9-16.1,4.9
	c-1.5,0.4-1.5,0.4-1.5,0.4c-1.7,0.4-5.5,1.5-8.4,2.3c0,0-6.8,2-13.6,3.5c-1.7,0.4-3.4,0.8-5.1,1.2c-14.7,3.5-16.5,10.7-16.5,10.7
	c-0.3,1.3-3.7,2.5-7.6,2.6l-12,2.6c-3.7,0.4-7.8,1.1-9.2,1.6c0,0,0,0-1.3,0.4c-5.3,1.7-11.2,3.3-17.4,5.3c-1.2,0.3-2.2,0.7-3.3,1.1
	c-36.7,12.4-43.8,19.8-75,34.6c-13.6,6.9-24.7,20.3-51.5,17.9c-2.4-0.2-31-11.4-33.4-11.6c-10.2-0.8-18.6,0.8-26.9,2.3
	c-8.7,1.6-20.5,2-20.5,2c-3.8,0.1-10-0.1-13.7-0.5l-19.3,0.5c-3.8,0.1-9.6,0.7-10.5,0.9c-1,0.2-3.6,1.2-5.9,2.3l-29.5,8.3
	c-2.5,1-7.3,2.3-10.7,2.9l-16.3,3.1c-3.2,0.7-7.3,1.4-9.1,1.6c0,0,0,0-1.7,0.1c-8.6,0.5-18.9,0.6-18.9,0.6c-3.9,0-11.1-0.5-13.2-1.1
	c-2-0.6-6.8-1-10.7-0.9l-25.7-1.2c-3.8-0.2-9-1.2-11.6-2.2l-20-3.8c-2.7-0.9-10.5-2.1-12.6-2.3c-2.1-0.2-5.5-0.1-7.5,0.1
	c0,0,0,0-2.2,0.1c-22.2,1.3-42,4.9-54.4,6.3c-19.7,2.3-59.7,2.3-59.7,2.3c-3.9,0-10.1,0.1-14,0.2c0,0-2.3,0.1-7,0.2
	c-2.3,0.1-2.3,0.1-2.3,0.1c-2.6,0.1-7.6,0.5-11.2,1l-63.3,0.9c-1.6,0-3.1-0.1-4.3-0.1L-442,590"/>
  <path class="st3" d="M2425,375c-4.5,0-9,0-13.5-0.1c-11.2-0.1-23-0.1-28.7-1.8c-1.8-0.3-3.2-0.7-4.3-1.2c-12.1-3.7-37.2-3.5-65-2.7
	c-0.5,0.1-1,0.1-1.6,0.2c-12.2,0.9-21.5,2.1-32.8,4.7c-8.2,1.9-16.1,3.7-24.9,4.5c-10.8,1-22.5,1.3-33.4,1
	c-7.1-0.2-12.6,3.4-20.5,3.3c-10.1-0.1-18.1-2.3-27.6-3.8c-7.7-1.2-15.7-1-23.3-2.6c-12.2-2.4-21.4-7.9-33.2-10.5
	c-20-1.6-39.6-3.4-61.4-4.2c-4.6-0.2-9.4-0.3-14.2-0.3c-54.4,6.8-79-3.4-130.4-5.6c-1.2,0.5-2.7,0.9-4.3,1.1
	c-1.1,0.1-2.1,0.2-3.1,0.3c-0.3,0.1-0.6,0.3-0.9,0.4c-6.1,2-12.9,3-19.1,4.8c-5.8,1.7-6.2,3.5-9.6,6.3c-5.8,4.9-17.2,5-26.6,4.2
	c-11.1-1-19.6-3.4-28.7-6.9c-6.9-2.7-18.6-8.5-27.9-6.3c-5,1.2-9.7,0.6-13.2-0.9c-5.2,0.4-10.4,0.7-15.9,0.4
	c-6.7-0.4-12.7-1.3-18.4-2.6c-21.4,0.2-41.2,0-61-0.6c-4.6-0.2-9.3-0.3-13.9-0.6c-17.3-1.8-45.9-3-67.5-1.9c-1.4,1-3.5,1.8-6.3,2.2
	c-9.2,1.4-18.5,1.5-28,1.7c-8.9,0.2-16.5,1.6-25.1,2.6c-18.8,2-38,1.4-57,1.3c-16.7-0.1-32.6-1.6-47.9-5.3c-7.7-1.9-14.3-4-20.9-6.8
	c-1.6-0.7-3.1-1.3-4.6-1.8c-0.7-0.1-1.4-0.1-2-0.2c-2.9-0.3-6-0.7-9.2-1.1c-3.2-0.4-6.6-0.7-10.3-1.1c-4-0.2-8.2-0.3-12.4-0.3
	c-4.2-0.1-8.6-0.1-13-0.1c-16.7,0.6-29.5-0.5-41.7-1.5c-12.6-1.1-24.6-2.2-39.6-1.5c-35.5,1.4-53.3,7-91.9,8.4
	c-4.8,0.2-9.6,0.4-14.5,0.5c-24.4,0.8-50.8,1.2-78.5,1.9c-4.8,0.2-9.7,0.5-14.6,0.7c-4.4,0.2-8.8,0.4-13.2,0.7
	c-4.5,0.2-9,0.4-13.6,0.7c-11.5,0.6-22.9,1.2-34.6,1.8c-1.4,1.3-3.6,2.4-7,3c-12,2.2-23.3,6.9-36.3,7c-14.4,0.1-28.8-3.3-43.2-1.5
	c-17.5,2.2-31.5,8.7-48.7,11.2c-14.8,2.2-29.2,3.3-43.7,6.1c-12.5,2.4-26.5,3.2-39,0.4c-10.9-2.5-20.9-6.3-32.1-8.3
	c-30.5-5.5-63.2-3.2-93.2-9.4c-31.5,0.5-63.4,0.9-94.8,0.6c-47-0.4-84.2-1.9-121.7-5c-14,0.3-28,0.5-41.9,0.6
	c-0.3,0.1-0.5,0.1-0.8,0.2c-10,2-18.8,5-29.5,5.9c-11.1,0.9-22.1-0.3-31.2,4.1c-2.5,1.1-5.2,1.6-7.8,1.7c-1.6,0.5-3.5,0.7-5.5,0.7
	c-0.1,0-0.1,0-0.2,0c-5.3,2.6-13.1,3.6-22,1.2c-2.3-0.6-4.1-1.6-5.7-2.6c-5.8-0.7-10.6-2-16-3.4c-7.9-2-16.2-3.4-23.9-5.7
	c-2.4-0.7-4-1.6-5-2.6c-10.3,0.1-20.3,0.3-30.1,0.5c-2,1.3-4.9,2.1-8.7,2.2c-10.2,0.3-18.7,1.1-28.1,3.3c-7.4,1.7-14.8,3.2-22.9,3.3
	c-15.8,0.3-31.7-1-47.3-2.4c-61.7,5.8-115,14.2-170.8,21c-3.3,1.1-6.5,2.3-9.5,3.8c-4.5,2.2-8.7,3.7-14.4,4.8
	c-5.7,1.1-12.8,0-18.6-0.1c-7.2-0.2-14.3,0.1-21.4,0.6c-16.3,1.1-31.1,2-46.7,4.6c-13.6,2.2-27.3,2.6-41.2,1.1
	c-16.1-1.7-30.5-3.7-47.1-3.4c-12.6,0.3-24.9,3.8-37.5,4.9c-14.6,1.3-28.9,2.9-43.2,0.2c-6.2-1.2-11.5-3.2-17.4-4.8
	c-6.5-1.7-13.1-1.5-20.1-1.5c-3.3,0-6-0.6-7.9-1.5c-27.4-0.1-53.6,0.2-80.8-1.3l-0.1,195h2928l0.4-216.4
	C2466,374.9,2445.5,375,2425,375z"/>
  <path class="st4" d="M244.2,416.7c2,0.3,4,0.6,6.1,0.9C246.7,417.1,244.9,416.8,244.2,416.7z"/>
  <path class="st4" d="M2486.4,590V428.7c-3.4,0.1-12.3,0.2-19.7,0.2c-1.9,0-1.9,0-1.9,0c-2.1,0-5.9-0.1-8.6-0.1
	c-2.6,0-7.5-1.5-7.9-1.7c-0.4-0.2-4-1-7.4-1.5c0,0-14-1.8-28.5-0.9c-10.5,0.7-22.1,0.5-22.1,0.5c-3.8-0.1-8.8-0.2-11-0.3
	c0,0,0,0-2-0.1c-3.4-0.1-6.9-0.2-10.3-0.3c-1.7-0.1-3.4-0.1-5.2-0.2c-18.1-0.6-32.3-4.8-49.8-5.9c-1.9-0.1-1.9-0.1-1.9-0.1
	c-2.2-0.1-6.9-0.5-10.3-1l-50.9-2.6c-2.6-0.8-6-1.3-7.4-1.3c0,0,0,0-1.3,0.1c-4,0.2-8,0.3-12.2,0.2c-5.3,0-10.5-0.1-15.7-0.2
	c-1.7,0-1.7,0-1.7,0c-1.9,0-6.6,0-10.4,0.2c0,0-28.5,1-44,0c-1.9-0.1-1.9-0.1-1.9-0.1c-2.1-0.2-6.8-0.6-10.4-1l-24.4,0.8
	c-3.6,0.4-9.6,0.5-13.4,0.2l-57.5-6.2c-3.6-0.4-7.6-1-9-1.3c0,0,0,0-1.3-0.3c-1.4-0.3-1.4-0.3-1.4-0.3c-1.6-0.3-3.7-0.6-4.6-0.7
	c-0.9-0.1-4.2,0-5.1,0.2c-0.9,0.2-6.2,0.9-10,1.2l-36.4,6.2c-3.4,0.5-8.5,1.5-11.2,2.2c-2.7,0.7-12.9,3-16.6,3.3
	c0,0-9.8,0.8-17.6,0.7c-6.8-0.1-10.9,0.2-10.9,0.2c-3.7,0.3-9.9,0.5-13.7,0.5c0,0-30.1,0-35,3.4c-4.9,3.4-26.7,8.3-26.7,8.3
	c-3,0.7-8.6,1.2-12.4,1.2c0,0-9.7-0.1-17.1-1.2c-6.8-1.1-13.4-1.3-13.4-1.3c-3.8-0.1-10.1-0.1-13.9,0l-108.3-8
	c-3.2-0.6-5.9-1.1-5.9-1.1c0,0-3.1-0.3-6.8-0.6l-18-1.9c-3.5-0.5-9.5-0.8-13.3-0.7c0,0-26.6,0.4-43.8,0.1c-3.7-0.1-7.4-0.1-11.1-0.2
	c-1.8,0-3.7-0.1-5.5-0.1c-66.9-1.1-148.7,23.9-148.7,23.9c-2.6,0.8-7.4,1.9-10.7,2.4c0,0-21.2,3.5-39.7,4.6
	c-2.4,0.1-4.9,0.2-7.3,0.3c-12.9,0.4-26.7,0.1-40.1-0.5c-2.2-0.1-2.2-0.1-2.2-0.1c-2.4-0.1-7.6-0.2-11.4-0.1c0,0-36.6,0.6-58.9-3.4
	c-12.3-2.2-43-1-43-1c-3.8,0.2-8.8,0.4-11.1,0.6c0,0,0,0-2,0.2c-6,0.6-11.6,1.5-16.5,2.5c-1.6,0.4-1.6,0.4-1.6,0.4
	c-1.9,0.4-6.4,1.1-9.9,1.5c0,0-13.8,1.7-18.5,3.8c-0.9,0.4-0.9,0.4-0.9,0.4c-0.9,0.5-4.3,1.4-7.6,1.9l-25.9,6.8
	c-3.4,0.5-6.6,1.7-7,2.8l-10.7,4.8c-2.1,0.9-5.4,2-7.5,2.4c0,0,0,0-1.9,0.3c-16.8,3.1-34.4,5.1-52.8,5.5c-1.4,0-1.4,0-1.4,0
	c-1.5,0-5.6-0.4-9-0.9c0,0-6.4-1-10.6-3.1c-6.9-3.5-17-1.4-17-1.4c-3.1,0.6-28.9,1.6-36.6-1.4l-28.2-7c-3.7-0.3-7.2-0.6-7.8-0.8
	c-0.6-0.1-4.4-1.1-7.1-1.9l-48.2-12.8c-2.5-0.8-7.7-1.5-11.5-1.5c0,0-2.5,0-7.3,0c-4.6,0-9.2,0-13.7,0.1c-2.1,0-2.7,0.1-2.7,0.1
	c-3.8,0.1-9.9,0.3-13.6,0.4c0,0,0,0-3.3,0.1c-1.6,0.1-1.6,0.1-1.6,0.1c-1.8,0.1-5.8,0.7-8.8,1.3l-25.7,2.4c-1.7,0.9-6.3,1.8-10.1,2
	c0,0-3.3,0.1-9.3,0.1c-2,0-2,0-2,0c-2.2-0.1-6.1-0.8-8.5-1.6l-48-6.7c-2.4-0.8-7.4-1.3-11.1-1.1c0,0,0,0-4,0.7
	c-4.7,0.8-10.6,0.8-10.6,0.8c-3.9,0-9-0.1-11.4-0.3c0,0,0,0-2.2-0.2c-15.1-1.2-35.5-4.5-35.5-4.5c-3.3-0.5-9-1.3-12.6-1.7
	c0,0-38.6-4.2-60.3-7c-14.8-2-30.5-8-30.5-8c-2.3-0.9-7.1-1.8-10.9-2.1l-67.8-4.2c-3.9,0-8.1,0.3-9.5,0.7c-1.4,0.4-5.4,2.4-9,2.7
	l-51.6,2.5c-3.4,0.5-9.2,0.8-13,0.6l-11.7-0.7c-3.7-0.3-7.5-0.4-8.4-0.2c-0.9,0.2-5.3,0.6-7.8,0.6c0,0,0,0-2.2-0.1
	c-4.4-0.1-6.6-0.3-6.6-0.3c-3.7-0.3-8.4-0.6-10.4-0.8c0,0,0,0-1.8-0.2c-16.1-1.5-30.2-3.8-41.5-6.8c-9.7-2.6-18.9-5.3-30.1-7.6
	c-2-0.4-8.5-1.4-6.7-1.1c-1.8-0.3-3.7-0.6-5.5-0.9c-0.6-0.1-0.6-0.1-0.6-0.1c-0.6-0.1-4.2-0.1-8.1-0.1c0,0-19,0.4-32.3,0.8
	c-28.2,0.8-57.3-5.2-77.3-10.6c-5.9-0.4-11.9-0.7-17.9-0.7c-14.3-0.1-28.7-0.7-42.9-0.4c-16.8,0.3-26.9,2.5-40.1,7.1
	c-11,3.8-22.2,5.7-36,5.4c-6.2-0.1-14.1-0.8-20.1,0.2c-3.8,0.6-6.6,2.3-9.6,3.5c-10.3,4-21.6,6.5-34.1,8.6
	c-13.4,2.2-25.8,4.2-37.8,7.8c-11.9,3.5-22.4,5-36.2,6.2c-12.8,1-26.1,3.1-39.2,2.6c-13.2-0.6-25.2-6-38.9-4
	c-13.1,1.9-22.7,7.8-37.8,7.2c-11.4-0.4-20.3-2.8-30.3-5.2c-6.5-1.5-13.4-2.3-19.9-3.7c-6.6-1.4-12.1-3.6-18.5-5.2
	c-13.8-3.5-28.9-0.3-43.7-1.2c-7.4-0.5-14.2-1.1-21.1-2.5c-4.9-1-10.9-2.8-16.4-2.8c-7.4,0-14.7,0.7-21.9,1.6V590"/>
  <path class="st5" d="M2482.6,474.5c-5.3-0.3-11.3,0.2-16.7,0.8c-6.3,0.6-11.8,1.3-14.4,0.5c-19.8-4.6-47-1.3-67.4-4.2
	c-1.3-0.1-2.6-0.2-3.9-0.3c-10.4-0.9-20.8-6.3-30-3.4c-36.5,11.5-50-4.2-77.8-4.5c-1.4,0-2.8,0-4.2,0c-11.4,7.4-21.7,1.2-34.1-0.1
	c-1.4,0-3-0.6-4.3,0c-97.6,46.2-140.8,1.4-191-13.3c-9.9-2.7-24.7-2-34.6-0.7c-7.4,0.7-12.4,3.3-19.8,4.6
	c-19.8,2.6-39.5,5.3-56.8,9.9c-14.8,4.6-39.5,6-61.8,8c-29.7,3.3-61.7,4.5-79,12.4c0,0.2-17.6-0.7-19.3-0.8c-0.9,0-1.7,3.1-2.8,3
	c-1.1-0.2-2.9,2.8-3.9,2.7c-10.7,0.4-8.6,4.8-13.6,6.8c-7.4-2-10-12.9-22-10.5c-1.1,0.2-2.2,0.3-3.4,0.5c-6.8,1-14.2,2-21.7,1.3
	c-0.8-0.1-1.6-0.2-2.5-0.3c-2.5-0.2-4.9-0.2-7.4,0.1c-24.7,2.6-37.1,13.9-64.3,11.9c-8.3-0.4-17.1-0.7-26.2-1.1
	c-1.3,0-2.6-0.1-3.9-0.2c-14.4-2.7-21.8-3.4-38.9-2.1c-1.3-0.1-2.5-0.2-3.8-0.3c-6.3-0.5-12.3-1.2-18-2c-1.2-0.2-4.3-2-5.4-2.1
	c-14.6-1.1-10.2-5.5-20.1-6.2c-5-0.7-5,3.3-15.3,4c-1.1,0.1-2.2,0.1-3.2,0.2c-6.8,0.6-9.9,1.7-10.7,4c-0.1,0.2-0.2,0.4-0.2,0.6
	c-1,0.8-2.7,1.3-4.6,1.7c-1,0.2-2,0.4-3.1,0.6c-22.2,2.1-32.1,8.1-51.2,11.7c-1,0.2-2.1,0.4-3.2,0.6c-11.7,2.3-23.4,4.7-34.6,7.2
	c-6.4,1.3-12.9,2.6-19.7,3.8c-7.4,2-14.8,4-17.2,6.6c-2.5,1.8-6.1,3.6-10.5,5.4c-13.1,5.2-33.5,9.7-53.9,11.2
	c-19.8,1.3-34.6-7.3-54.4-8.6c-47-2.6-74.1,8.6-111.2,12.6c-1.1,0.2-2.2,0.3-3.3,0.5c-23.9,0.9-43.7,2.2-62.7,6.3
	c-1.1,0-2.2,0.1-3.2,0.1c-10.7-4.2-15.7-2-22.6,0.2c-4.3,1.3-9.3,2.7-16.8,2.5c-1.4,0-2.8,0-4.2,0c-55.8-0.7-103.1-10.8-148.3-20
	c-1.1-0.2-2.2-0.4-3.3-0.7c-12.3-2.6-22.2-6-33-9.4c-0.3-0.2-0.6-0.4-0.8-0.6c-1.1-1.1-2.6-2.1-4.3-3.1c-0.6-0.3-1.2-0.6-1.9-0.9
	c-10.1,0-13.2-1.4-15.6-3.3c-0.4-0.3-0.8-0.6-1.2-1c-7.4-3.6-22.2-5-29.8-8.2c-1.2-0.1-2.4-0.2-3.6-0.3c-9.9-0.8-20.9-1.1-30.7-1.1
	c-5,0-9.9-0.7-14.4-1.8c-1.1-0.1-2.1-0.3-3.2-0.4c-10.4-1.4-20.3-2.8-28.5-5.2c-0.8-0.1-1.8-0.2-2.7-0.3c-5.7-0.5-13.2-0.4-20.9-0.7
	c-0.7,0.1-1.4,0.1-2.1,0.2c-1.4-0.1-2.7-0.2-4-0.3c-5.3-0.4-10.5-0.9-15.7-1.3c-10.3-0.5-22.3-3.9-31.8-5.7
	c-0.9-0.2-1.9-0.4-2.8-0.5c-7.4-1.1-14.2-2.4-20.8-3.6c-1-0.2-1.9-0.3-2.8-0.5c-6.1-3.6-20.9-5-29.9-6.1c-0.9-0.1-1.9-0.1-2.8-0.1
	c-6.9,0-15.5,1.4-26.1,1.6c-1.3-0.1-2.5-0.1-3.8-0.2c-19.2-0.9-38.5-1-57,0.4c-1.3,0.1-2.7,0.2-4,0.3c-11,1.7-20.9,3.7-33,5.9
	c-0.8,0.1-1.7,0.2-2.6,0.2c-4.6,0.3-10,0.3-17.1,0.3c-1,0.1-2,0.2-3,0.4c-3,0.4-5.9,0.9-8.8,1.5c-0.7,0.1-1.3,0.2-2.1,0.3
	c-10.4,2.1-21.7,4.4-28.4,5.8c-32.1,7.3-74.6-5.3-116.6,0.6c-12.1,1.8-35.8,32.2-51.1,29.1c-7.5-1.5-22.9-13.6-24.1-13.6
	c-12.9-19.8-23.1-7.5-42.9-9.5c-4.1-0.4-8.9-0.1-13.7,0.1c-3.9,0.2-7.8,0.4-11.2,0.3c-1.4,0-2.8-0.1-4.2-0.1
	c-30.2-0.9-57.7-2.9-87-6.2c-27.2-2.8-56.2-2.5-86-2.2c-1.3,0-2.7,0-4,0c-33.6,2.1-63.2,0.1-92.9-5.2c-0.8-0.1-1.7-0.2-2.5-0.2
	c-1.6,0-3.3,0.1-4.9,0.2c-2.5,0.2-5,0.3-7.4,0c-37.1-8.6-76.6-13.9-113.7-22.5c-4.9-0.7-9.9-0.7-14.8,0
	c-29.7,5.3-59.3,8.6-93.9,11.3c-4.9,0-7.4,2.6-9.9,2.6c-8.9,0.2-16.9,0.9-24.4,1.8V600h2928.3V474.5
	C2485.2,474.5,2483.9,474.5,2482.6,474.5z"/>
</svg>
