<svg viewBox="0 0 1920.17 280.13" xmlns="http://www.w3.org/2000/svg">
  <defs>
    <style>.cls-1 {
      fill: #757575;
    }

    .cls-2 {
      fill: #e0e0e0;
    }

    .cls-3 {
      fill: #fafafa;
    }</style>
  </defs>
  <title>Asset 8</title>
  <g data-name="Layer 2" id="Layer_2">
    <g data-name="Layer 1" id="Layer_1-2">
      <path class="cls-1"
            d="M1904.58,44.36c-3,0-6.07,0-9.1-.08l-7.53-.17c-6.52-1.22-12.33-2.44-12.92-2.71A138.52,138.52,0,0,0,1860.67,38c-6.9-1.28-31.62-1.16-32-1.07l-.37.05a71.92,71.92,0,0,0-22.13,6.3c-5.5,2.54-10.89,4.9-16.83,6a102.39,102.39,0,0,1-22.52,1.33c-4.77-.21-8.52,4.58-13.81,4.45-6.81-.17-12.2-3-18.59-5-5.22-1.62-10.59-1.39-15.75-3.41l-8.26-3.25c-7.77-5.9-22.51-12.16-32.75-13.91,0,0-8.12-1.39-22.8-2.37l-3.12-.21c-3.56-.11-15-.92-25.31-1.79l-51.15-.1c-9.87-3.16-18.77-5.19-19.77-4.5l-1.11.27-.71.17a4.36,4.36,0,0,0-1.79.55l-.23.15c-4.09,2.66-8.67,4-12.87,6.39-3.93,2.23-4.21,4.59-6.45,8.33-3.88,6.48-11.58,6.69-17.93,5.52-7.5-1.37-13.2-4.48-19.35-9.17-4.67-3.55-12.54-11.28-18.81-8.41l-3.36,1.53a26.1,26.1,0,0,0-12.61-1.73l-3.7-.47-4.52-.58c-4.35-1.57-16.42-2.84-26.82-2.83,0,0-8.87,0-22.24-.86l-3.12-.21c-3.45-.29-13.23-1.43-21.74-2.54s-31.1.55-32.39,1.83l-1.91.56c-6.22,1.8-12.48,2-18.88,2.28-6,.26-11.14,2.18-17,3.42-12.68,2.7-25.6,1.87-38.46,1.69-11.29-.16-22-2.09-32.33-7a64.78,64.78,0,0,1-14.11-9L1222,9.47a11.43,11.43,0,0,0-2.94-1.69l-.44-.1q-3-.69-6.19-1.4l-2.17-.47A94.29,94.29,0,0,0,1200,4.48l-2.88-.08-2.85-.08c-3.25,0-14.41-.26-24.79-.6,0,0-1,0-9.25-1.44-8.51-1.46-16.59-2.92-26.72-2-23.94,1.87-35.93,9.33-62,11.17-3.23.28-6.46.51-9.76.71-16.44,1-34.07,1.74-34.07,1.74-10.38.43-21.82,1.08-25.42,1.44l-3.28.33c-3,.3-5.92.58-8.88.87l-9.17.87-7.72.77c-8.57.9-16.68,3.08-18,4.85l-2.24.81c-8.07,2.9-15.71,9.1-24.48,9.27-9.73.2-19.41-4.31-29.15-1.94-11.83,2.89-21.23,11.56-32.87,14.9-10,2.86-19.68,4.44-29.45,8.12-8.43,3.18-17.85,4.29-26.32.52-7.35-3.26-14.1-8.33-21.65-11C768.54,36.42,745,33.57,745,33.57a307.2,307.2,0,0,0-37.64-1.75s-23.89.67-45.06.3c-31.7-.56-63.34-4.37-63.34-4.37-10.31-1.25-23-2.11-28.18-1.93s-19,.51-19.2.61l-.19.07c-6.72,2.62-12.7,6.66-19.88,7.83L524,35.54c-7.46,2.3-14.34,4.65-15.3,5.23s-4.56,1.58-5.85,2.12h-1.4c-.05,0-4.07,2.12-8.93,4.72l-6-3.18L485,43.62c-1.29-1.49-5.56-3.92-9.49-5.41l-3.63-1.83c-5.32-2.68-10.92-4.54-16.12-7.52l-1.61-.93c-1-1.41-4.82-2.49-8.59-2.39s-14.93,1.78-16.75,3.34l-2.59.15a49.62,49.62,0,0,0-18.92,4.44c-5,2.29-10,4.21-15.45,4.4-10.64.38-13.31-.07-13.31-.07-10.24-1.71-26.87-1.09-36.95,1.36L262.9,57.63c-10,2.74-20.16,6.36-22.57,8.05l-2,2A27.5,27.5,0,0,1,228.56,74c-3.82,1.46-8.62,0-12.51-.15a82.79,82.79,0,0,0-14.42.73c-11,1.39-20.95,2.71-31.53,6.12a53.48,53.48,0,0,1-27.8,1.51c-10.87-2.28-20.57-5-31.78-4.48-8.51.38-16.76,5.08-25.28,6.54-9.84,1.69-19.49,3.87-29.15.24-4.21-1.59-7.77-4.3-11.72-6.39-4.38-2.3-8.82-2-13.58-2H28.54C26.85,75,17,74.12,6.57,74.19L0,73.78.17,280.13h1920V44.32C1915.85,44.36,1910.52,44.38,1904.58,44.36Z"
            id="level-5"/>
      <path class="cls-2"
            d="M1920.15,105.65c-2.63-1-9-2.93-14.24-4.32l-9.77,1.32-7.1,1-10.77-.45c-1.63-.08-3-.14-4.44-.23l-1.35-.09-7-.48c-1.15-.07-2.33-.15-3.48-.24-12.18-.77-21.78-6.71-33.55-8.29-1.31-.18-2.35-.34-3.63-.53s-12.37-1.8-21.81-2.78-18.07-2.22-19.17-2.74a5.72,5.72,0,0,0-3-.82l-.9.08a82.35,82.35,0,0,1-8.25.35c-3.54,0-7.07-.14-10.56-.29-1.17-.06-2.17,0-3.4,0s-13.28.84-23.64,1.61c0,0-.37,0-10.84-1.37-1.3-.17-2.34-.37-3.6-.62a84.63,84.63,0,0,0-12.94-.43c-4.52.3-9.67.7-11.46.88s-14.06-1.85-24.19-4.11l-2-.43c-10.13-2.26-19.58-4.41-21-4.78a21.51,21.51,0,0,1-3.49-1.12l-.9-.39c-.92-.4-2-.79-3.42-1.27l-.63-.09a11.27,11.27,0,0,0-3.43.25l-.6.26c-3.37.75-11.65,3.3-18.4,5.67s-14.84,5.23-18,6.37l-1.84,1-1.84,1a108.18,108.18,0,0,1-16,4.66l-5.26-.13-4.61-.12c-1.52.25-4.27.63-6.1.83s-14.43.38-24.83.38c0,0-1.38,0-4.71,4.76l-3.33,4.76c-8.07,3.77-16,7.24-17.56,7.7s-8.44.78-12,.74l-5-1.62-4.56-1.48c-2.47-.16-6-.32-7.89-.37s-14.39-1.21-24.65-2.78l-35.7-5.47c-10.26-1.57-20.45-3.53-22.63-4.35l0,0,0,0c-2.51-.42-7.29-1.37-10.64-2.1s-7.52-1.57-9.28-1.87-13.86-.23-23.72.06l-11.64-.4-7.45-.27-3.72-.11c-45.15-1.48-84.5,23.4-84.5,23.4-8.7,5.5-16.94,10.59-18.32,11.32s-11.14,4.27-19,7L1200,135.54c-1.64.16-3.29.29-5,.38a174.2,174.2,0,0,1-27-.75c-1.5-.16-2.65-.22-4.06-.3s-13.65.22-24,.56c0,0-5.81.19-20.81-5.3-8.33-3.14-10.18-3-10.18-3-10.36.85-20.17,1.67-21.81,1.82s-3,.29-4.54.53l-1.35.27a53,53,0,0,0-11.11,3.56c-1.11.49-2.08.83-3.26,1.25s-8.68,2.46-13.78,3.79l-3.18,2.92a15.83,15.83,0,0,1-2.09,1.51c-.81.52-7.59,3.88-12.4,6.49l-11,6c-1.23.66-4.14,4.2-6.13,6.06s-4.44,4-5.44,4.74a13.18,13.18,0,0,1-3.2,1.92l-1.28.48a114.83,114.83,0,0,1-35.64,7.66,14.72,14.72,0,0,1-2.82-.24c-1-.15-6.09-1.58-8.46-2.32l-2.88-3L954,165.65a73.46,73.46,0,0,1-16.55,4c-5.37.63-19.24-5.34-24.46-8s-11.7-5.31-14.38-5.81l-.4-.18-.41-.19c-2.41-1.34-11.7-6.45-20.64-11.34s-17.44-9.36-18.86-9.93a34.42,34.42,0,0,0-6.89-1.05l-3.22,0c-3.09,0-6.18,0-9.27.16l-1.4.06-3.76.24c-1.85.11-3.36.21-5.81.4l-2.23.16a18.79,18.79,0,0,0-3.07.54c-1.07.26-7.91,2.13-12.68,3.06s-9.64,2.27-10.81,3-5.71,1.53-7,1.61l-4-.08a12.2,12.2,0,0,1-3.38-.55c-1.12-.3-11-3.79-19.89-6.37s-17.29-5.11-18.66-5.62a8.8,8.8,0,0,0-5-.61l-2.67,1-3.19,1.13c-2.18,0-5.33,0-7-.06a38.3,38.3,0,0,1-4.67-.33l-1.47-.24L712.05,129c-7.57-2.51-15.12-5-16.79-5.47s-13.73-3.29-23.86-5.56c0,0-7.62-1.7-22.28-5.59l-10-2.85c-5.8-4.56-11.63-8.86-13-9.55s-13.33-2.76-23.64-4.09l-8.27-1.07c-10.3-1.33-21.2-2.23-24.21-2l-.91.53-.92.52c-2.84,1.8-13,4-22.57,5s-18.79,2-20.5,2.27a53.8,53.8,0,0,1-9.59-.2c-2.17-.28-6.21-.76-9-1.07l-.61.23-.61.23a39.61,39.61,0,0,1-6.11.51l-3-.16L492,100c-1.56-.24-2.83-.44-4.18-.67l-1.2-.23c-10.83-2.06-20.34-5.25-28-9.45C452.05,86,445.9,82.22,438.3,79.07c-1.89-.78-9.41-3.14-.45-.3-2.61-.82-5.22-1.65-7.79-2.5a9,9,0,0,0-1.8-.21c-.78,0-9.79.23-16.84.5l-9,.56c-19,1.09-35.15-6.64-35.15-6.64-9.32-4.46-20.56-8.52-25-9l-4.05-.08c-9.61-.2-19.33-.94-28.93-.54-11.31.47-18.16,3.51-27.08,9.91-7.44,5.33-15,7.93-24.3,7.51-4.21-.19-9.49-1.15-13.58.21-2.55.84-4.47,3.22-6.5,4.84-6.92,5.51-14.55,9.11-23,11.94-9,3-17.39,5.84-25.49,10.82s-15.14,7-24.42,8.59c-8.62,1.47-17.58,4.35-26.42,3.57s-17-8.33-26.25-5.54c-8.85,2.66-15.31,10.84-25.48,10-7.7-.6-13.67-3.86-20.43-7.19-4.35-2.14-9-3.18-13.41-5.15s-8.2-5-12.5-7.25c-9.33-4.91-19.52-.4-29.48-1.69A62.64,62.64,0,0,1,0,99.14l.17,181h1920V105.67Z"
            id="level-6"/>
      <path class="cls-3"
            d="M1906.62,184.06c-8.7-.28-30.42-2.81-31.4-2.9l-.87-.09c-7-.71-13.8-1.58-20.23-2.61-15.81-2.35-33.71-3.2-52.51-3.46h-.92c-1,0-5.21.19-9.24.45s-16.52-.53-17.58-.53h-1c-46.58.2-110.06-7.85-110.06-7.85-10.3-1.3-22.48-2.71-27.07-3.14s-16.87.83-19.16,1.54-15.17,3.21-22.5,4.33-31,6.63-38.33,7.89-36.81,4.39-47.18,5.09l-27.51,5.46c-10.26,1.63-19,3-19.38,3.13l-1.17-.06-.59,0c-.81,0-1.8-.13-2.2-.19a8.06,8.06,0,0,0-3.35,1c-1.07.64-7.17,1.66-9.46.4s-13-.31-13.79-.17l-.76.13-4.61.78c-5.5.11-10.5.13-11.11,0l-.56-.07-1.66-.19c-1.83.14-9,2.66-15.84,5.61s-36,3.56-42.38,3.25l-6.09-.28-.87,0c-1-.05-5.07-.67-9.12-1.39s-19.6-.38-20.53-.47l-.84-.08c-4.22-.41-8.28-.91-12.14-1.52l-.79-.12c-1.57-.83-4.41-2.46-6.3-3.62s-11.6-1.48-13.44-.07l-6.95.49c-.76,0-1.47.1-2.13.16-4.57.44-6.66,1.34-7.24,3.11l-.06.15a7,7,0,0,1-1.88,1.32l-1.3.33-.65.17c-.8.15-9.61,2.62-19.57,5.48,0,0-3.54,1-16.4,3.78l-2.16.48-7.92,1.8c-8.49,2.06-17.39,4.19-19.79,4.73s-11.2,2.63-14,3.47-8.46,4.83-10.72,6.37l-3,1.34c-8.82,4-22.58,7.45-36.33,8.6-13.32,1-18.76-.77-18.76-.77-9.85-3.22-26.33-4.74-36.63-3.38l-38.07,2.28c-10,2.71-18.53,5-18.94,5.05s-8.1.61-16.2,1.07-27.86,4-28.26,4-6.23-.68-12.06-1.53l-4.65,1.68-2.88,1c-4.63.5-9.29.9-10.33.9h-.93c-37.65-.58-69.54-8.29-100-15.42l-2.24-.52-8.32-2c-7.67-2.86-14-5.26-14.13-5.34s-1.14-1-2.09-1.94l-1.18-.73-.41-.25a85.86,85.86,0,0,0-9.79-1.52l-1.64-1.45-.27-.24a55,55,0,0,0-8-2.42c-4.11-1-13.36-4.47-14.25-4.57l-.84-.08c-6.66-.6-14.07-.83-20.73-.83h-3.34c-3.49-.76-7-1.47-7.77-1.59l-.71-.1-7-1.06c-6.69-1.64-12.69-3.06-13.35-3.15l-.64-.07-3.86-.39c-5.62-.09-10.44-.14-10.7-.12a23.29,23.29,0,0,1-2.75-.06l-.89-.08-3.55-.34c-3.88-.38-13.83-2-22.11-3.66L679.38,197l-.63-.14L668,194.78l-4.46-.91-.64-.13c-.69-.15-4.44-1.12-8.33-2.17s-13.66-2.84-14.35-2.88h-5.33c-7.12.69-13.71,1.21-14.65,1.15l-.87,0a275.23,275.23,0,0,0-38.46.33l-.9.08c-1,.1-4.94.83-8.81,1.62s-15.76,3.13-16.39,3.2l-.62,0-3.07.23c-4.66,0-9.08.09-9.81.18l-.66.1-2,.3-4.37.93c-.24.05-4.24.93-8.26,1.87a283.87,283.87,0,0,1-30.7,3.85s-41.14,2.45-69.47,7a163.42,163.42,0,0,1-28.88,1.69l-.87,0c-1,0-7.4-.75-14.33-1.62s-28.62-3.15-31.94-3.2l-3.23.18-2.64.15c-2.7,0-5.78,0-6.84,0l-.93,0c-20.38-.71-38.92-2.19-58.68-4.78-18.33-2.18-37.9-1.89-58-1.68h-.9c-1,0-10.32.05-20.71.08l-25-1.4c-10.28-1.44-19.21-2.68-19.83-2.74l-.55,0c-1.11,0-2.22.06-3.33.14l-1.67.13c-1.84-.07-11.66-1.85-21.82-4l-39.71-9.67c-10.16-2.1-20-3.94-21.81-4.08s-15,1.65-25.28,3.34l-25.93,3.59c-4.7.5-9.23,1.05-12.91,1.55V280H1920.17V184.46C1916.15,184.36,1911.27,184.21,1906.62,184.06Z"
            id="level-7"/>
    </g>
  </g>
</svg>
