<svg xmlns="http://www.w3.org/2000/svg"  viewBox="0 0 48 48" width="144px" height="144px"><linearGradient id="P7ofLKH4gXVHbvzG1Bfk8a" x1="4.872" x2="45.811" y1="4.872" y2="45.811" gradientUnits="userSpaceOnUse"><stop offset="0" stop-color="#bd4ff4"/><stop offset=".587" stop-color="#a235ec"/><stop offset="1" stop-color="#8c20e5"/></linearGradient><path fill="url(#P7ofLKH4gXVHbvzG1Bfk8a)" d="M43.125,9H4.875C3.287,9,2,10.287,2,11.875v24.25C2,37.713,3.287,39,4.875,39h38.25	C44.713,39,46,37.713,46,36.125v-24.25C46,10.287,44.713,9,43.125,9z"/><path fill="#7219a4" d="M40.5,19h-13c-0.276,0-0.5-0.224-0.5-0.5v-1c0-0.276,0.224-0.5,0.5-0.5h13 c0.276,0,0.5,0.224,0.5,0.5v1C41,18.776,40.776,19,40.5,19z"/><path fill="#7219a4" d="M38.5,23h-11c-0.276,0-0.5-0.224-0.5-0.5v-1c0-0.276,0.224-0.5,0.5-0.5h11 c0.276,0,0.5,0.224,0.5,0.5v1C39,22.776,38.776,23,38.5,23z"/><path fill="#7219a4" d="M38.5,31h-11c-0.276,0-0.5-0.224-0.5-0.5v-1c0-0.276,0.224-0.5,0.5-0.5h11 c0.276,0,0.5,0.224,0.5,0.5v1C39,30.776,38.776,31,38.5,31z"/><path fill="#7219a4" d="M40.5,27h-13c-0.276,0-0.5-0.224-0.5-0.5v-1c0-0.276,0.224-0.5,0.5-0.5h13 c0.276,0,0.5,0.224,0.5,0.5v1C41,26.776,40.776,27,40.5,27z"/><path d="M18.911,31.017c-0.238,0-0.473-0.063-0.681-0.183l-3.73-2.152l-3.729,2.151	c-0.209,0.12-0.444,0.183-0.681,0.183c-0.413,0-0.799-0.185-1.061-0.507C8.77,30.19,8.67,29.775,8.756,29.371l0.894-4.213	l-3.198-2.881c-0.406-0.367-0.553-0.916-0.384-1.435c0.169-0.52,0.611-0.877,1.154-0.934l4.281-0.452l1.754-3.933	c0.221-0.498,0.698-0.808,1.244-0.808c0.545,0,1.022,0.31,1.245,0.808l1.753,3.933l4.282,0.452c0.543,0.058,0.985,0.416,1.153,0.935	c0.168,0.52,0.021,1.068-0.385,1.433l-3.198,2.882l0.894,4.213c0.085,0.403-0.014,0.818-0.272,1.138	C19.71,30.832,19.324,31.017,18.911,31.017z" opacity=".05"/><path d="M18.911,30.517c-0.15,0-0.299-0.04-0.431-0.116l-3.98-2.296L10.521,30.4	c-0.133,0.076-0.282,0.116-0.431,0.116c-0.262,0-0.506-0.117-0.672-0.322c-0.164-0.202-0.227-0.464-0.172-0.721l0.954-4.495	l-3.413-3.075c-0.257-0.232-0.35-0.58-0.243-0.908s0.387-0.555,0.73-0.591l4.568-0.483l1.871-4.196	c0.14-0.315,0.442-0.511,0.788-0.511s0.647,0.196,0.788,0.512l1.871,4.196l4.569,0.482c0.344,0.037,0.624,0.263,0.73,0.592	s0.013,0.676-0.244,0.907l-3.412,3.075l0.953,4.495c0.054,0.255-0.008,0.518-0.172,0.72C19.417,30.399,19.172,30.517,18.911,30.517z" opacity=".07"/><linearGradient id="P7ofLKH4gXVHbvzG1Bfk8b" x1="9.059" x2="19.614" y1="373.643" y2="359.523" gradientTransform="matrix(1 0 0 -1 0 390)" gradientUnits="userSpaceOnUse"><stop offset="0" stop-color="#ffda1c"/><stop offset="1" stop-color="#feb705"/></linearGradient><path fill="url(#P7ofLKH4gXVHbvzG1Bfk8b)" d="M14.831,15.931l1.988,4.46l4.855,0.513c0.312,0.033,0.438,0.42,0.205,0.63l-3.627,3.268	l1.013,4.776c0.065,0.307-0.264,0.547-0.536,0.39l-4.229-2.44l-4.229,2.44c-0.272,0.157-0.601-0.082-0.536-0.39l1.013-4.776	l-3.627-3.268c-0.233-0.21-0.107-0.597,0.205-0.63l4.855-0.513l1.988-4.46C14.296,15.643,14.704,15.643,14.831,15.931z"/></svg>