<svg xmlns="http://www.w3.org/2000/svg"  viewBox="0 0 48 48" width="144px" height="144px"><path fill="#50e6ff" d="M37,5c0,0.552-0.448,1-1,1s-1-0.448-1-1h-2c0,0.552-0.448,1-1,1s-1-0.448-1-1h-2c0,0.552-0.448,1-1,1	s-1-0.448-1-1h-2c0,0.552-0.448,1-1,1s-1-0.448-1-1h-2c0,0.552-0.448,1-1,1s-1-0.448-1-1h-2c0,0.552-0.448,1-1,1s-1-0.448-1-1h-2	c0,0.552-0.448,1-1,1s-1-0.448-1-1h-1C9.448,5,9,5.448,9,6v35c0,1.105,0.895,2,2,2h26c1.105,0,2-0.895,2-2V6c0-0.552-0.448-1-1-1H37	z"/><path fill="#057093" d="M34.5,13h-21c-0.276,0-0.5-0.224-0.5-0.5v-2c0-0.276,0.224-0.5,0.5-0.5h21c0.276,0,0.5,0.224,0.5,0.5	v2C35,12.776,34.776,13,34.5,13z"/><path fill="#057093" d="M34.5,20h-2c-0.276,0-0.5-0.224-0.5-0.5v-1c0-0.276,0.224-0.5,0.5-0.5h2c0.276,0,0.5,0.224,0.5,0.5v1	C35,19.776,34.776,20,34.5,20z"/><path fill="#057093" d="M26.5,20h-13c-0.276,0-0.5-0.224-0.5-0.5v-1c0-0.276,0.224-0.5,0.5-0.5h13c0.276,0,0.5,0.224,0.5,0.5	v1C27,19.776,26.776,20,26.5,20z"/><path fill="#057093" d="M34.5,24h-2c-0.276,0-0.5-0.224-0.5-0.5v-1c0-0.276,0.224-0.5,0.5-0.5h2c0.276,0,0.5,0.224,0.5,0.5v1	C35,23.776,34.776,24,34.5,24z"/><path fill="#057093" d="M23.5,24h-10c-0.276,0-0.5-0.224-0.5-0.5v-1c0-0.276,0.224-0.5,0.5-0.5h10c0.276,0,0.5,0.224,0.5,0.5	v1C24,23.776,23.776,24,23.5,24z"/><path fill="#057093" d="M34.5,28h-2c-0.276,0-0.5-0.224-0.5-0.5v-1c0-0.276,0.224-0.5,0.5-0.5h2c0.276,0,0.5,0.224,0.5,0.5v1	C35,27.776,34.776,28,34.5,28z"/><path fill="#057093" d="M26.5,28h-13c-0.276,0-0.5-0.224-0.5-0.5v-1c0-0.276,0.224-0.5,0.5-0.5h13c0.276,0,0.5,0.224,0.5,0.5	v1C27,27.776,26.776,28,26.5,28z"/><path fill="#057093" d="M34.5,32h-2c-0.276,0-0.5-0.224-0.5-0.5v-1c0-0.276,0.224-0.5,0.5-0.5h2c0.276,0,0.5,0.224,0.5,0.5v1	C35,31.776,34.776,32,34.5,32z"/><path fill="#057093" d="M23.5,32h-10c-0.276,0-0.5-0.224-0.5-0.5v-1c0-0.276,0.224-0.5,0.5-0.5h10c0.276,0,0.5,0.224,0.5,0.5	v1C24,31.776,23.776,32,23.5,32z"/><path fill="#057093" d="M34.5,38h-4c-0.276,0-0.5-0.224-0.5-0.5v-1c0-0.276,0.224-0.5,0.5-0.5h4c0.276,0,0.5,0.224,0.5,0.5v1	C35,37.776,34.776,38,34.5,38z"/><path fill="#057093" d="M26.5,38h-9c-0.276,0-0.5-0.224-0.5-0.5v-1c0-0.276,0.224-0.5,0.5-0.5h9c0.276,0,0.5,0.224,0.5,0.5v1	C27,37.776,26.776,38,26.5,38z"/><radialGradient id="X7Yt_olXcJ4RKPVHGYpHHa" cx="39.075" cy="28.374" r="6.676" gradientUnits="userSpaceOnUse"><stop offset="0"/><stop offset="1" stop-opacity="0"/></radialGradient><path fill="url(#X7Yt_olXcJ4RKPVHGYpHHa)" d="M39,21.01c-4.002,0.913-7,4.494-7,8.768s2.998,7.855,7,8.768V21.01z"/><radialGradient id="X7Yt_olXcJ4RKPVHGYpHHb" cx="37.351" cy="37.883" r="11.287" gradientUnits="userSpaceOnUse"><stop offset="0"/><stop offset="1" stop-opacity="0"/></radialGradient><path fill="url(#X7Yt_olXcJ4RKPVHGYpHHb)" d="M38,26c-6.617,0-12,5.383-12,12c0,1.786,0.403,3.476,1.105,5H37c1.105,0,2-0.895,2-2V26.051	C38.669,26.023,38.338,26,38,26z"/><circle cx="41" cy="29.778" r="7" fill="#ff8f6b"/><circle cx="41" cy="29.778" r="5" fill="#ed6c47"/><linearGradient id="X7Yt_olXcJ4RKPVHGYpHHc" x1="31.136" x2="45.056" y1="-174.864" y2="-160.944" gradientTransform="translate(0 206)" gradientUnits="userSpaceOnUse"><stop offset="0" stop-color="#fede00"/><stop offset="1" stop-color="#ffd000"/></linearGradient><circle cx="38" cy="38" r="10" fill="url(#X7Yt_olXcJ4RKPVHGYpHHc)"/><circle cx="38" cy="38" r="8" fill="#f5be00"/><path fill="#fee119" d="M35.767,41.685v-1.49c0.541,0.331,1.117,0.497,1.728,0.497c0.46,0,0.82-0.109,1.079-0.328	c0.259-0.219,0.389-0.516,0.389-0.892c0-0.784-0.554-1.176-1.662-1.176c-0.361,0-0.797,0.033-1.309,0.099v-4.423h4.384v1.425h-2.893	v1.584c0.232-0.022,0.451-0.033,0.657-0.033c0.813,0,1.45,0.214,1.91,0.64c0.46,0.427,0.69,1.002,0.69,1.723	c0,0.798-0.274,1.451-0.823,1.957c-0.548,0.507-1.292,0.759-2.231,0.759C36.926,42.028,36.286,41.914,35.767,41.685z"/></svg>