<svg xmlns="http://www.w3.org/2000/svg"  viewBox="0 0 48 48" width="96px" height="96px"><linearGradient id="NOym_MWXn_NqLuEERx94Ya" x1="9.858" x2="38.387" y1="9.858" y2="38.387" gradientUnits="userSpaceOnUse"><stop offset="0" stop-color="#00bffe"/><stop offset="1" stop-color="#1d55c4"/></linearGradient><path fill="url(#NOym_MWXn_NqLuEERx94Ya)" d="M44,24c0,11.045-8.955,20-20,20S4,35.045,4,24S12.955,4,24,4S44,12.955,44,24z"/><linearGradient id="NOym_MWXn_NqLuEERx94Yb" x1="10.205" x2="38.625" y1="9.68" y2="38.1" gradientUnits="userSpaceOnUse"><stop offset="0" stop-color="#84e1fe"/><stop offset="1" stop-color="#167cf7"/></linearGradient><path fill="url(#NOym_MWXn_NqLuEERx94Yb)" d="M23.77,34.508c0.23,0.683,0,1.596-0.229,2.055c-0.225,0.684-0.454,1.597-0.913,2.051	c-0.454,0.459-0.913,0.689-1.367,0.917c-0.684,0.454-1.142,1.367-1.826,2.055c0,0.225-0.913,1.386-1.142,1.386	c-0.085,0.045-0.166,0.086-0.248,0.127c-1.348-0.42-2.628-0.988-3.837-1.669c-0.008-0.024-0.017-0.047-0.026-0.072	c0-0.229-0.225-1.6-0.225-1.826c-0.229-0.687-0.459-1.6-0.687-2.284c-0.454-1.142-1.367-2.284-1.367-3.651	c0-1.143,0.225-2.28-0.459-3.197c-0.913-1.142-2.739-1.142-3.652-1.826c-1.372-0.913-2.739-2.28-3.423-3.652	c-0.163-0.27-0.273-0.521-0.363-0.768C4.007,24.101,4,24.052,4,24c0-5.356,2.118-10.21,5.548-13.8	c1.876-1.517,5.535-2.215,7.756-1.545c0.684,0.225,3.145,1.697,3.145,2.381c0,0.229,0,0.229-0.229,0.459	c-0.225,0.229-0.455,0.229-0.684,0.229c-0.684,0-2.839-0.497-3.069-0.727c-1.372-0.458-3.423,2.51-3.651,3.423	c-0.229,0.687-0.229,2.284,0.913,2.513c0.684,0,3.814-2.656,4.273-2.885c1.826-0.225,3.237,1.34,3.696,2.941	c0.684,1.826-3.175,3.591-4.547,4.05c-0.454,0.229-0.683-0.229-1.142,0c-1.138,0.454-1.811,1.474-1.947,2.839	c-0.115,1.155-0.229,2.281-0.454,3.423c-0.229,0-0.698-0.003-0.698-0.232v-0.454c0-0.689-0.229-1.601-0.913-1.83	c-0.229-0.224-0.552,0.136-0.781,0.136c-0.684,0-1.367-0.687-2.051-0.229c-0.459,0.454-0.913,1.142-0.913,1.826	c0,0.23,0,0.459,0.225,0.684c0.459,0.229,0.913-0.225,1.372,0c0.454,0,0.454,0.459,0.454,0.687c0.459,0.684,0.913,1.597,1.6,1.826	h4.564c0.684,0.229,1.826,0.454,2.284,0.913c0.224,0.454,0.224,0.913,0.454,1.367c1.142,1.142,2.509,1.142,3.88,1.6	C23.541,33.824,23.771,34.049,23.77,34.508z M36.524,8.42c-0.101,0.03-0.202,0.057-0.301,0.1c-0.684,0.229-2.469,3.525-2.926,4.208	c-0.229,0.229-0.454,0.684-0.229,0.913c0,0.229,0.229,0.229,0.459,0.229c0.454,0.229,0.516,0.324,0.974,0.549	c0.229,0,0.454,0.229,0.229,0.459c0,0,0,0.229-0.229,0.229c-1.142,1.142-2.284,2.055-3.423,3.193	c-0.23,0.231-0.383,0.69-0.383,0.914c0,0.229,0.153,0.229,0.153,0.459s-0.229,0.229-0.459,0.454	c-0.454,0.229-0.913,0.459-1.142,0.687c-0.225,0.454,0,1.142-0.225,1.597c-0.23,1.142-0.917,2.055-1.372,3.197	c-0.459,0.684-0.868,1.367-1.327,2.055c0,0.913-0.229,1.597,0.229,2.28c1.142,1.6,3.428,0.069,5.025,0.752	c0.454,0.229,0.845,0.271,1.142,0.684c0.567,0.787,0.636,2.445,0.866,3.133c0.225,0.913,0.454,1.826,0.913,2.739	c0.227,1.132,0.675,2.263,0.906,3.167C40.596,36.804,44,30.803,44,24C44,17.699,41.079,12.086,36.524,8.42z M28.608,9.357	c0.68-0.437,1.135-1.308,1.363-1.961c0.223-0.438,0.907-1.308,0.68-1.961c-0.177-0.34-0.897-0.544-1.423-0.721	C27.558,4.263,25.812,4,24,4c-0.46,0-0.911,0.038-1.363,0.069c-0.381,0.132-0.709,0.356-0.833,0.714	c-0.228,1.089,0.68,0.87,1.586,1.089c0,0,0.228,1.742,0.228,1.961c0.228,1.089-0.455,1.742-0.455,2.828c0,0.656,0,1.745,0.455,2.18	h0.228c0.228,0,0.451-0.219,0.907-0.433c0.68-0.438,1.363-1.089,2.042-1.527C27.474,10.447,28.153,9.791,28.608,9.357z"/></svg>