<svg xmlns="http://www.w3.org/2000/svg"  viewBox="0 0 48 48" width="144px" height="144px"><linearGradient id="c9JPdhlXcchWduL76TtX1a" x1="35.379" x2="36.162" y1="697.57" y2="705.006" gradientTransform="translate(0 -659.89)" gradientUnits="userSpaceOnUse"><stop offset="0" stop-color="#0370c8"/><stop offset=".484" stop-color="#036fc5"/><stop offset=".775" stop-color="#036abd"/><stop offset="1" stop-color="#0362b0"/></linearGradient><path fill="url(#c9JPdhlXcchWduL76TtX1a)" d="M36,37.972c-4.97,0-9,2.565-9,5.362v0.595c0,0.576,0.504,1.043,1.125,1.043h15.75	c0.621,0,1.125-0.467,1.125-1.043v-0.595C45,40.537,40.97,37.972,36,37.972z"/><path fill="#d6a121" d="M38.211,39.051c0,0.911-1.251,1.921-2.211,1.921s-2.211-1.01-2.211-1.921c0-1.267,0-3.379,0-3.379	h4.421C38.211,35.673,38.211,37.785,38.211,39.051z"/><linearGradient id="c9JPdhlXcchWduL76TtX1b" x1="40.355" x2="41.493" y1="692.429" y2="692.429" gradientTransform="translate(0 -659.89)" gradientUnits="userSpaceOnUse"><stop offset="0" stop-color="#c48f0c"/><stop offset=".251" stop-color="#d19b16"/><stop offset=".619" stop-color="#dca51f"/><stop offset="1" stop-color="#e0a922"/></linearGradient><path fill="url(#c9JPdhlXcchWduL76TtX1b)" d="M40.651,31.157h-0.292v2.763h0.389c0.284,0,0.527-0.216,0.575-0.511l0.19-1.176	C41.605,31.67,41.193,31.157,40.651,31.157z"/><linearGradient id="c9JPdhlXcchWduL76TtX1c" x1="31.659" x2="30.503" y1="692.429" y2="692.429" gradientTransform="translate(0 -659.89)" gradientUnits="userSpaceOnUse"><stop offset="0" stop-color="#c48f0c"/><stop offset=".251" stop-color="#d19b16"/><stop offset=".619" stop-color="#dca51f"/><stop offset="1" stop-color="#e0a922"/></linearGradient><path fill="url(#c9JPdhlXcchWduL76TtX1c)" d="M31.349,31.157h0.292v2.763h-0.389c-0.284,0-0.527-0.216-0.575-0.511l-0.19-1.176	C30.395,31.67,30.807,31.157,31.349,31.157z"/><radialGradient id="c9JPdhlXcchWduL76TtX1d" cx="111.492" cy="811.05" r="6.755" gradientTransform="matrix(.7837 0 0 .7956 -51.376 -613.433)" gradientUnits="userSpaceOnUse"><stop offset="0" stop-color="#ffcf54"/><stop offset=".261" stop-color="#fdcb4d"/><stop offset=".639" stop-color="#f7c13a"/><stop offset="1" stop-color="#f0b421"/></radialGradient><path fill="url(#c9JPdhlXcchWduL76TtX1d)" d="M36,25.704c-2.182,0-4.421,0.337-4.421,5.124c0,0.384,0,2.931,0,3.34	c0,1.709,2.653,3.804,4.421,3.804s4.421-2.095,4.421-3.804c0-0.41,0-2.956,0-3.34C40.421,26.041,38.182,25.704,36,25.704z"/><radialGradient id="c9JPdhlXcchWduL76TtX1e" cx="44.013" cy="756.074" r="16.581" gradientTransform="translate(-7.53 -641.901) scale(.8816)" gradientUnits="userSpaceOnUse"><stop offset="0" stop-color="#c26715"/><stop offset=".508" stop-color="#b85515"/><stop offset="1" stop-color="#ad3f16"/></radialGradient><path fill="url(#c9JPdhlXcchWduL76TtX1e)" d="M36,23.972c-2.406,0-2.763,0.904-2.763,0.904c-0.978,0.145-2.763,0.753-2.763,3.517	c0,0.914,0.45,3.194,1.105,4.421c0.302-3.618,0.69-5.526,1.658-5.526c0.7,0,1.256-1.105,2.763-1.105	c1.272,0,1.588,1.105,2.763,1.105c1.658,0,1.658,4.956,1.658,5.526c0.712-1.274,1.105-3.623,1.105-4.421	C41.526,25.605,39.432,23.972,36,23.972z"/><radialGradient id="c9JPdhlXcchWduL76TtX1f" cx="52.892" cy="757.412" r="21.301" gradientTransform="matrix(.8431 0 0 .8816 -9.611 -641.901)" gradientUnits="userSpaceOnUse"><stop offset="0" stop-color="#c26715"/><stop offset=".508" stop-color="#b85515"/><stop offset="1" stop-color="#ad3f16"/></radialGradient><path fill="url(#c9JPdhlXcchWduL76TtX1f)" d="M34.895,23.972c-2.206,0-2.211,2.211-2.211,2.211c-0.027,0.747,0.518,1.105,3.316,1.105	c1.689,0,4.421-0.502,4.421-3.316C40.421,23.972,38.723,23.972,34.895,23.972z"/><linearGradient id="c9JPdhlXcchWduL76TtX1g" x1="8.839" x2="14.003" y1="676.312" y2="686.025" gradientTransform="translate(0 -659.89)" gradientUnits="userSpaceOnUse"><stop offset="0" stop-color="#32bdef"/><stop offset="1" stop-color="#1ea2e4"/></linearGradient><path fill="url(#c9JPdhlXcchWduL76TtX1g)" d="M12,16.972c-4.97,0-9,2.565-9,5.362v0.595c0,0.576,0.504,1.043,1.125,1.043h15.75	c0.621,0,1.125-0.467,1.125-1.043v-0.595C21,19.537,16.97,16.972,12,16.972z"/><path fill="#d6a121" d="M14.211,18.051c0,0.911-1.251,1.921-2.211,1.921s-2.211-1.01-2.211-1.921c0-1.267,0-3.379,0-3.379	h4.421C14.211,14.673,14.211,16.785,14.211,18.051z"/><linearGradient id="c9JPdhlXcchWduL76TtX1h" x1="16.355" x2="17.493" y1="671.429" y2="671.429" gradientTransform="translate(0 -659.89)" gradientUnits="userSpaceOnUse"><stop offset="0" stop-color="#c48f0c"/><stop offset=".251" stop-color="#d19b16"/><stop offset=".619" stop-color="#dca51f"/><stop offset="1" stop-color="#e0a922"/></linearGradient><path fill="url(#c9JPdhlXcchWduL76TtX1h)" d="M16.651,10.157h-0.292v2.763h0.389c0.284,0,0.527-0.216,0.575-0.511l0.19-1.176	C17.605,10.67,17.193,10.157,16.651,10.157z"/><linearGradient id="c9JPdhlXcchWduL76TtX1i" x1="7.659" x2="6.503" y1="671.429" y2="671.429" gradientTransform="translate(0 -659.89)" gradientUnits="userSpaceOnUse"><stop offset="0" stop-color="#c48f0c"/><stop offset=".251" stop-color="#d19b16"/><stop offset=".619" stop-color="#dca51f"/><stop offset="1" stop-color="#e0a922"/></linearGradient><path fill="url(#c9JPdhlXcchWduL76TtX1i)" d="M7.349,10.157h0.292v2.763H7.252c-0.284,0-0.527-0.216-0.575-0.511l-0.19-1.176	C6.395,10.67,6.807,10.157,7.349,10.157z"/><radialGradient id="c9JPdhlXcchWduL76TtX1j" cx="80.868" cy="784.655" r="6.755" gradientTransform="matrix(.7837 0 0 .7956 -51.376 -613.433)" gradientUnits="userSpaceOnUse"><stop offset="0" stop-color="#ffcf54"/><stop offset=".261" stop-color="#fdcb4d"/><stop offset=".639" stop-color="#f7c13a"/><stop offset="1" stop-color="#f0b421"/></radialGradient><path fill="url(#c9JPdhlXcchWduL76TtX1j)" d="M12,4.704c-2.182,0-4.421,0.337-4.421,5.124c0,0.384,0,2.931,0,3.34	c0,1.709,2.653,3.804,4.421,3.804s4.421-2.095,4.421-3.804c0-0.41,0-2.956,0-3.34C16.421,5.041,14.182,4.704,12,4.704z"/><radialGradient id="c9JPdhlXcchWduL76TtX1k" cx="16.79" cy="732.254" r="16.581" gradientTransform="translate(-7.53 -641.901) scale(.8816)" gradientUnits="userSpaceOnUse"><stop offset="0" stop-color="#c26715"/><stop offset=".508" stop-color="#b85515"/><stop offset="1" stop-color="#ad3f16"/></radialGradient><path fill="url(#c9JPdhlXcchWduL76TtX1k)" d="M12,2.972c-2.406,0-2.763,0.904-2.763,0.904C8.259,4.021,6.474,4.629,6.474,7.394	c0,0.914,0.45,3.194,1.105,4.421c0.302-3.618,0.69-5.526,1.658-5.526c0.7,0,1.256-1.105,2.763-1.105	c1.272,0,1.588,1.105,2.763,1.105c1.658,0,1.658,4.956,1.658,5.526c0.712-1.274,1.105-3.623,1.105-4.421	C17.526,4.605,15.432,2.972,12,2.972z"/><radialGradient id="c9JPdhlXcchWduL76TtX1l" cx="24.426" cy="733.591" r="21.301" gradientTransform="matrix(.8431 0 0 .8816 -9.611 -641.901)" gradientUnits="userSpaceOnUse"><stop offset="0" stop-color="#c26715"/><stop offset=".508" stop-color="#b85515"/><stop offset="1" stop-color="#ad3f16"/></radialGradient><path fill="url(#c9JPdhlXcchWduL76TtX1l)" d="M10.895,2.972c-2.206,0-2.211,2.211-2.211,2.211C8.658,5.93,9.203,6.288,12,6.288	c1.689,0,4.421-0.502,4.421-3.316C16.421,2.972,14.723,2.972,10.895,2.972z"/><path fill="#64717c" d="M37.75,21c-0.385,0-0.752-0.224-0.917-0.6C34.6,15.297,29.562,12,24,12	c-0.682,0-1.287,0.042-1.848,0.128c-0.546,0.079-1.057-0.29-1.141-0.836c-0.084-0.546,0.29-1.057,0.836-1.141	C22.511,10.05,23.215,10,24,10c6.357,0,12.114,3.768,14.666,9.599c0.222,0.506-0.009,1.096-0.515,1.317	C38.021,20.973,37.884,21,37.75,21z"/><path fill="#64717c" d="M23.001,41.96c-0.021,0-0.043,0-0.065-0.002c-7.572-0.487-13.791-6.302-14.787-13.827	c-0.073-0.547,0.313-1.05,0.86-1.123c0.544-0.069,1.05,0.312,1.123,0.86c0.872,6.582,6.311,11.667,12.933,12.093	c0.551,0.036,0.969,0.511,0.934,1.062C23.964,41.553,23.524,41.96,23.001,41.96z"/></svg>