<svg xmlns="http://www.w3.org/2000/svg"  viewBox="0 0 48 48" width="144px" height="144px"><linearGradient id="SVGID_1_" x1="20.932" x2="24.488" y1="-185.227" y2="-196.686" gradientTransform="matrix(1 0 0 -1 0 -154)" gradientUnits="userSpaceOnUse"><stop offset="0" stop-color="#f44f5a"/><stop offset=".443" stop-color="#ee3d4a"/><stop offset="1" stop-color="#e52030"/></linearGradient><path fill="url(#SVGID_1_)" d="M12.4,33.9c-2.7,1.9-4.4,4.4-4.4,7V42c0,1.1,0.9,2,2,2h28c1.1,0,2-0.9,2-2v-1.1c0-2.6-1.7-5.1-4.4-7	C32.7,31.9,15.3,31.9,12.4,33.9z"/><radialGradient id="SVGID_2_" cx="23.754" cy="1255.405" r="13.71" gradientTransform="translate(0 -1234)" gradientUnits="userSpaceOnUse"><stop offset=".376" stop-color="#261103"/><stop offset=".68" stop-color="#431d06"/><stop offset="1" stop-color="#662c09"/></radialGradient><path fill="url(#SVGID_2_)" d="M24,9C13.7,9,11.1,25.6,11.1,25.6c0,3,1.4,5.6,4.3,6.2C17.9,32.5,21,33,24,33s6.1-0.5,8.6-1.1	c2.9-0.7,4.3-3.3,4.3-6.2C36.8,25.6,34.3,9,24,9z"/><linearGradient id="SVGID_3_" x1="21.765" x2="27.574" y1="28.212" y2="43.084" gradientUnits="userSpaceOnUse"><stop offset="0" stop-color="#f0f0f0"/><stop offset="1" stop-color="#bbc1c4"/></linearGradient><path fill="url(#SVGID_3_)" d="M24,42c5.5,0,10.2-3.4,11.6-8.1c-2.9-2-7-3.3-11.6-3.3s-8.7,1.3-11.6,3.3C13.8,38.6,18.5,42,24,42z"/><path fill="#d6a121" d="M29,32c0,1.9-2.8,4-5,4s-5-2.1-5-4c0-2.6,0-7,0-7h10C29,25,29,29.4,29,32z"/><radialGradient id="SVGID_4_" cx="-923.045" cy="1277.873" r="10.72" gradientTransform="matrix(-.9136 0 0 .9667 -819.294 -1215.284)" gradientUnits="userSpaceOnUse"><stop offset="0" stop-color="#ffcf54"/><stop offset=".261" stop-color="#fdcb4d"/><stop offset=".639" stop-color="#f7c13a"/><stop offset="1" stop-color="#f0b421"/></radialGradient><path fill="url(#SVGID_4_)" d="M24,8.1c3.9,0,8,0.7,8,9.7c0,0.7,0,5.7,0,6.5c0,3.2-4.9,7.7-8,7.7s-8-4.5-8-7.7c0-0.8,0-5.8,0-6.5	C16,9,20.1,8.1,24,8.1z"/><radialGradient id="SVGID_5_" cx="16.884" cy="1240.456" r="31.581" gradientTransform="translate(0 -1234)" gradientUnits="userSpaceOnUse"><stop offset="0" stop-color="#c26715"/><stop offset=".508" stop-color="#b85515"/><stop offset="1" stop-color="#ad3f16"/></radialGradient><path fill="url(#SVGID_5_)" d="M24,6c-5.2,0-6,2-6,2c-2.1,0.3-7,1-7,17.5c0,3.8,1.9,5.2,2.6,5.6C11,16.7,20.6,19,19,10	c4,11.8,16.3,0.1,15.9,20.7c1.2-0.9,2.1-2.8,2.1-5.3C37,11.7,31.4,6,24,6z"/><path fill="#edbe00" d="M14.4,12h19.2L34,3.9c0-0.5-0.5-0.8-0.9-0.6L28.1,6l-3.3-5.5c-0.4-0.6-1.3-0.6-1.7,0L19.9,6l-4.9-2.7	c-0.4-0.2-1,0.1-0.9,0.6L14.4,12z"/><path fill="#e3a600" d="M33.6,14H14.4c-0.2,0-0.4-0.2-0.4-0.4v-2.1c0-0.2,0.2-0.4,0.4-0.4h19.1c0.2,0,0.4,0.2,0.4,0.4v2.1	C34,13.8,33.8,14,33.6,14z"/><path fill="#343434" d="M23,38c0-0.6,0.4-1,1-1c0.6,0,1,0.4,1,1s-1,2-1,2S23,38.6,23,38z"/><path fill="#343434" d="M31,37c0,0,1-1.4,1-2s-0.4-1-1-1c-0.6,0-1,0.4-1,1S31,37,31,37z"/><path fill="#343434" d="M17,37c0,0,1-1.4,1-2s-0.4-1-1-1c-0.6,0-1,0.4-1,1S17,37,17,37z"/></svg>