<svg xmlns="http://www.w3.org/2000/svg"  viewBox="0 0 48 48" width="144px" height="144px"><linearGradient id="AhUni2Ewwo9TRLcIV0mGja" x1="7.899" x2="31.892" y1="9.569" y2="36.181" gradientUnits="userSpaceOnUse"><stop offset="0" stop-color="#ffcf54"/><stop offset=".261" stop-color="#fdcb4d"/><stop offset=".639" stop-color="#f7c13a"/><stop offset="1" stop-color="#f0b421"/></linearGradient><path fill="url(#AhUni2Ewwo9TRLcIV0mGja)" d="M37.981,27.032l0.481-0.363L23.54,13.121L28,9H3v18l14.94,14.872 C18.58,42.562,19.486,43,20.5,43c1.933,0,3.5-1.567,3.5-3.5c0-0.02-0.006-0.038-0.006-0.058C24.586,39.788,25.265,40,26,40 c1.924,0,3.528-1.359,3.911-3.169C30.259,36.93,30.62,37,31,37c2.209,0,4-1.791,4-4c0-0.017-0.005-0.034-0.005-0.051 C35.161,32.973,35.327,33,35.5,33c1.933,0,3.5-1.567,3.5-3.5C39,28.537,38.61,27.665,37.981,27.032z"/><circle cx="30.079" cy="9.868" r="3.868" fill="#c16e14"/><g><linearGradient id="AhUni2Ewwo9TRLcIV0mGjb" x1="41.047" x2="26.533" y1="10.474" y2="32.824" gradientUnits="userSpaceOnUse"><stop offset=".488" stop-color="#c16e14"/><stop offset=".511" stop-color="#ba6a13"/><stop offset=".745" stop-color="#744109"/><stop offset=".914" stop-color="#492802"/><stop offset="1" stop-color="#381e00"/></linearGradient><path fill="url(#AhUni2Ewwo9TRLcIV0mGjb)" d="M38,9l-6.302-2.613L28.1,6.562l-1.71,0.869l-0.227,8.072c0,0,9.969,9.827,11.575,11.288 C38.646,27.615,39,28.822,39,29.387C39,29.781,38.962,30,38.962,30H45V9H38z"/><path fill="#c16e14" d="M10,15.579C10,18.021,11.979,20,14.421,20c0.467,0,0.909-0.092,1.332-0.227l11.005-4.342 l1.183-8.791L10,15.579z"/></g></svg>