<svg xmlns="http://www.w3.org/2000/svg"  viewBox="0 0 48 48" width="144px" height="144px"><linearGradient id="SVGID_1_" x1="8.663" x2="38.122" y1="-434.059" y2="-458.915" gradientTransform="matrix(1 0 0 -1 0 -426)" gradientUnits="userSpaceOnUse"><stop offset="0" stop-color="#a1aab3"/><stop offset="1" stop-color="#8f979e"/></linearGradient><path fill="url(#SVGID_1_)" d="M41,35H7c-1.1,0-2-0.9-2-2V9c0-1.1,0.9-2,2-2h34c1.1,0,2,0.9,2,2v24C43,34.1,42.1,35,41,35z"/><radialGradient id="SVGID_2_" cx="88.756" cy="-705.158" r="86.245" gradientTransform="matrix(.8095 0 0 -.7188 -24.765 -447.933)" gradientUnits="userSpaceOnUse"><stop offset=".323" stop-color="#23d9d6"/><stop offset=".427" stop-color="#23d4d7"/><stop offset=".542" stop-color="#21c7dc"/><stop offset=".664" stop-color="#1fb0e2"/><stop offset=".789" stop-color="#1c91ec"/><stop offset=".917" stop-color="#1969f8"/><stop offset=".944" stop-color="#1860fb"/></radialGradient><rect width="34" height="24" x="7" y="9" fill="url(#SVGID_2_)"/><linearGradient id="SVGID_3_" x1="24" x2="24" y1="-460.985" y2="-468.014" gradientTransform="matrix(1 0 0 -1 0 -426)" gradientUnits="userSpaceOnUse"><stop offset="0" stop-color="#484b4f"/><stop offset=".23" stop-color="#656d75"/><stop offset=".367" stop-color="#727d86"/></linearGradient><path fill="url(#SVGID_3_)" d="M33,38h-5v-3h-8v3h-5c-0.6,0-1,0.4-1,1v2c0,0.6,0.4,1,1,1h18c0.6,0,1-0.4,1-1v-2C34,38.4,33.6,38,33,38z"/><path fill="#184f85" d="M38,16H27v14.1c0,0.5,0.4,0.9,0.9,0.9h9.1c0.5,0,0.9-0.4,0.9-0.9V16z"/><path fill="#50e6ff" d="M38,16H27v-2.1c0-0.5,0.4-0.9,0.9-0.9h9.1c0.5,0,0.9,0.4,0.9,0.9V16z"/><path fill="#ca4e2a" d="M25,14H10v16c0,0.6,0.4,1,1,1h13c0.6,0,1-0.4,1-1V14z"/><path fill="#ff8f6b" d="M25,14H10v-2c0-0.6,0.4-1,1-1h13c0.6,0,1,0.4,1,1V14z"/><path fill="#b63016" d="M20.6,13h-4.1c-0.3,0-0.5-0.2-0.5-0.5s0.2-0.5,0.5-0.5h4.1c0.3,0,0.5,0.2,0.5,0.5S20.9,13,20.6,13z"/><circle cx="14.5" cy="12.5" r=".5" fill="#b63016"/><path fill="#0c63ad" d="M34.5,15h-2.1c-0.3,0-0.5-0.2-0.5-0.5s0.2-0.5,0.5-0.5h2.1c0.3,0,0.5,0.2,0.5,0.5S34.8,15,34.5,15z"/><circle cx="30.5" cy="14.5" r=".5" fill="#0c63ad"/></svg>