<?xml version="1.0" encoding="UTF-8"?>
<svg width="210.67" height="138.67" version="1.2" viewBox="0 0 158 104" xmlns="http://www.w3.org/2000/svg" xmlns:cc="http://creativecommons.org/ns#" xmlns:dc="http://purl.org/dc/elements/1.1/" xmlns:rdf="http://www.w3.org/1999/02/22-rdf-syntax-ns#" xmlns:xlink="http://www.w3.org/1999/xlink">
 <defs></defs>
 <g>
  <path d="m68.734 30h-1.1406l-0.73828-2.6289h-2.4883l-0.75 2.6289h-1.0469l2.6758-8.2109h0.8125zm-2.1055-3.4141-0.64453-2.25c-0.08594-0.30078-0.16016-0.58984-0.22266-0.86328-0.06641-0.27344-0.10156-0.50391-0.10938-0.68359h-0.02344c-0.0078 0.17969-0.04297 0.40625-0.11328 0.67188-0.06641 0.26562-0.14453 0.54687-0.23047 0.85156l-0.67968 2.2734zm6.9141 3.4141h-0.88281v-0.64453h-0.02344c-0.02344 0.05078-0.07422 0.11719-0.15234 0.21094-0.08203 0.08984-0.17969 0.17578-0.30469 0.26172-0.12109 0.08203-0.27344 0.15625-0.44531 0.21875-0.17578 0.0625-0.37109 0.09375-0.58203 0.09375-0.25391 0-0.48438-0.03516-0.68359-0.10938-0.20312-0.07813-0.375-0.19922-0.51953-0.36328-0.14453-0.16797-0.2539-0.38281-0.32812-0.65234-0.074219-0.26562-0.11328-0.58984-0.11328-0.98047v-3.7461h0.96484v3.6758c0 0.47656 0.07812 0.81641 0.23047 1.0156 0.15625 0.20312 0.39453 0.30469 0.72266 0.30469 0.27734 0 0.51172-0.07031 0.69922-0.20703 0.19141-0.14062 0.34375-0.27734 0.45312-0.41016v-4.3789h0.96484zm3.9375-4.5586c-0.0625-0.07031-0.17578-0.16797-0.34375-0.29297-0.16797-0.12109-0.38281-0.18359-0.65625-0.18359-0.25391 0-0.44531 0.05859-0.58203 0.17969-0.13281 0.11719-0.20312 0.26172-0.20312 0.42969 0 0.21094 0.0625 0.39062 0.1875 0.52734 0.12109 0.14063 0.30859 0.28906 0.5625 0.44531l0.35938 0.21484c0.38672 0.23047 0.69141 0.48047 0.91406 0.74609 0.22266 0.26563 0.33594 0.60938 0.33594 1.0273 0 0.45312-0.16016 0.83203-0.47266 1.1445-0.3125 0.30859-0.76172 0.46094-1.3516 0.46094-0.22656 0-0.42969-0.02344-0.60547-0.07031-0.17578-0.04688-0.32812-0.10156-0.45703-0.16406-0.13281-0.06641-0.24219-0.13672-0.32812-0.21094-0.08594-0.07422-0.16016-0.14453-0.21484-0.20703l0.46484-0.76172c0.04687 0.04688 0.10547 0.10156 0.17188 0.16406 0.06641 0.06641 0.14844 0.125 0.24609 0.1875 0.09375 0.05859 0.19922 0.10938 0.32031 0.14844 0.11719 0.03906 0.25781 0.05859 0.41406 0.05859 0.28516 0 0.50391-0.0625 0.65625-0.19141 0.15234-0.125 0.22656-0.28125 0.22656-0.46484 0-0.13281-0.01953-0.25-0.05469-0.34766-0.03516-0.10156-0.08984-0.19141-0.16016-0.26953-0.07031-0.07813-0.15625-0.15625-0.26172-0.22656-0.10156-0.07031-0.22266-0.14844-0.35547-0.23828l-0.35937-0.22265c-0.35547-0.23438-0.63672-0.47656-0.83594-0.72656-0.20313-0.25391-0.30469-0.58203-0.30469-0.97656 0-0.21484 0.04297-0.41016 0.125-0.58984s0.19922-0.33203 0.35156-0.46484c0.14844-0.12891 0.32422-0.23438 0.52734-0.30859 0.20312-0.07422 0.41797-0.11328 0.64844-0.11328 0.22266 0 0.41406 0.02344 0.57031 0.06641 0.16016 0.04297 0.29688 0.09766 0.41406 0.16406 0.11328 0.07031 0.20703 0.13672 0.28516 0.20312 0.07422 0.06641 0.13672 0.125 0.18359 0.17188zm8.2344-1.1523-1.7344 5.7109h-0.85937l-0.58204-2c-0.0859-0.28516-0.16015-0.55078-0.21875-0.79688-0.0625-0.24609-0.0977-0.48047-0.11328-0.70312h-0.0234c-0.0195 0.22266-0.0625 0.46094-0.13282 0.71484-0.0703 0.25391-0.15625 0.51953-0.25 0.79688l-0.65237 1.9883h-0.82422l-1.7969-5.7109h1.0352l0.85938 3.2344c0.07813 0.30078 0.14844 0.58203 0.20703 0.83984 0.05859 0.25781 0.09375 0.5 0.10156 0.73047h0.02344c0.02344-0.23047 0.07422-0.46875 0.14844-0.71875 0.07422-0.25 0.16016-0.52344 0.25781-0.81641l0.61719-1.8672-0.42969-1.4023h1l0.87109 3.1523c0.0859 0.32422 0.16406 0.62891 0.23438 0.91406 0.0742 0.28516 0.11328 0.53125 0.12109 0.73828h0.0234c0.0156-0.20703 0.0547-0.45312 0.12109-0.74219 0.0625-0.28906 0.13672-0.59375 0.22266-0.91016l0.84765-3.1523zm0.51171 4.2578c0-0.33203 0.0664-0.60938 0.19141-0.83203 0.12891-0.22266 0.29688-0.40234 0.51172-0.54297 0.21484-0.13672 0.46484-0.23828 0.75781-0.29688 0.28906-0.05859 0.59375-0.08984 0.92188-0.08984h0.29687v-0.54688c0-0.48438-0.0859-0.81641-0.25781-1-0.16797-0.18359-0.41016-0.27344-0.71875-0.27344-0.28516 0-0.52344 0.0625-0.71484 0.18359-0.19141 0.125-0.33985 0.23437-0.44922 0.32812l-0.40625-0.64062c0.0625-0.06641 0.14453-0.13672 0.24218-0.21484 0.10157-0.07813 0.22266-0.15625 0.36329-0.22656 0.14453-0.07031 0.30468-0.13281 0.48828-0.17969 0.18359-0.04687 0.39062-0.07031 0.61718-0.07031 0.58985 0 1.0352 0.16406 1.3359 0.48828 0.30078 0.32422 0.45313 0.84766 0.45313 1.5703v2.6055c0 0.24609 4e-3 0.48828 0.0234 0.72266 0.0156 0.23047 0.0312 0.39062 0.0469 0.46875h-0.91797l-0.0352-0.63281h-0.0234c-0.0312 0.07422-0.0781 0.15234-0.14453 0.24609-0.0625 0.08984-0.14063 0.17578-0.23829 0.25-0.0937 0.07422-0.20703 0.14062-0.34375 0.19531-0.13281 0.05469-0.29296 0.08203-0.47656 0.08203-0.21484 0-0.41406-0.03906-0.60156-0.11719-0.18359-0.08203-0.34766-0.19141-0.48828-0.33203-0.13672-0.14453-0.2461-0.3125-0.32031-0.50781-0.0742-0.19531-0.11329-0.40625-0.11329-0.63672m1.7266 0.77344c0.13672 0 0.2539-0.01953 0.35937-0.05859 0.10156-0.03906 0.19141-0.08594 0.26563-0.14453 0.0742-0.05469 0.14062-0.11719 0.1914-0.18359 0.0508-0.06641 0.0977-0.125 0.13672-0.17188v-1.2617l-0.30859 0.01172c-0.46094 0.01563-0.8125 0.09375-1.0469 0.23828-0.23828 0.14453-0.35937 0.375-0.35937 0.69141 0 0.29297 0.0664 0.51172 0.20312 0.66016 0.13282 0.14453 0.32032 0.21875 0.5586 0.21875m-0.22657-6.6758c0 0.18359-0.0547 0.32812-0.16406 0.44141-0.11328 0.10937-0.24609 0.16797-0.40625 0.16797-0.16015 0-0.29297-0.05859-0.40234-0.16797-0.11328-0.11328-0.16797-0.25781-0.16797-0.44141 0-0.18359 0.0547-0.32812 0.16797-0.44141 0.10937-0.10938 0.24219-0.16406 0.40234-0.16406 0.16016 0 0.29297 0.05469 0.40625 0.16406 0.10938 0.11328 0.16406 0.25781 0.16406 0.44141m1.832 0c0 0.18359-0.0547 0.32812-0.16407 0.44141-0.11328 0.10937-0.24609 0.16797-0.40625 0.16797-0.16015 0-0.29297-0.05859-0.40234-0.16797-0.11328-0.11328-0.16797-0.25781-0.16797-0.44141 0-0.18359 0.0547-0.32812 0.16797-0.44141 0.10937-0.10938 0.24219-0.16406 0.40234-0.16406 0.16016 0 0.29297 0.05469 0.40625 0.16406 0.10938 0.11328 0.16407 0.25781 0.16407 0.44141m4.2617 2.4883c-0.0234-0.01562-0.0742-0.03516-0.15625-0.05859-0.0781-0.02344-0.18359-0.03516-0.32031-0.03516-0.30078 0-0.53515 0.07813-0.70703 0.24219-0.17187 0.16016-0.29297 0.33984-0.36328 0.52734v4.1914h-0.96484v-5.7109h0.88281v0.77344h0.0234c0.0391-0.11328 0.0898-0.22266 0.15234-0.32812 0.0664-0.10938 0.14453-0.20312 0.23828-0.28516 0.0977-0.08594 0.21094-0.14844 0.33984-0.19922 0.13282-0.04687 0.28907-0.07031 0.46875-0.07031 0.13672 0 0.2461 0.01172 0.32813 0.03516 0.082 0.02344 0.14844 0.04297 0.19531 0.05859zm3.3906-0.05859h-1.25v3.1641c0 0.40234 0.0547 0.67969 0.15625 0.82812 0.10156 0.14453 0.27734 0.21875 0.52344 0.21875 0.14062 0 0.26562-0.01953 0.36718-0.05859 0.10547-0.03906 0.17969-0.07812 0.22657-0.10937l0.13281 0.77344c-0.0391 0.03516-0.13672 0.08203-0.28516 0.15234-0.15234 0.06641-0.35547 0.09766-0.60937 0.09766-0.49219 0-0.85938-0.13672-1.1055-0.41016-0.24609-0.27344-0.37109-0.72656-0.37109-1.3594v-3.2969h-0.6875v-0.64453l0.6875-0.14063 0.10937-1.5977h0.85547v1.5977h1.3711zm2.0586 4.9258h-0.96484v-5.7109h0.96484zm-0.47656-7.0938c-0.19531 0-0.35547-0.0625-0.47656-0.19141-0.11719-0.125-0.17578-0.29297-0.17578-0.5 0-0.19531 0.0586-0.35938 0.17578-0.48828 0.12109-0.125 0.28125-0.1875 0.47656-0.1875 0.19141 0 0.34766 0.0625 0.46484 0.1875 0.1211 0.12891 0.17969 0.29297 0.17969 0.48828 0 0.20703-0.0586 0.375-0.17969 0.5-0.11718 0.12891-0.27343 0.19141-0.46484 0.19141m6.0469 2.1328h-0.71485c0.1836 0.30078 0.27344 0.64063 0.27344 1.0195 0 0.30469-0.0469 0.57422-0.14844 0.81641-0.0977 0.24219-0.23828 0.44922-0.41406 0.61328-0.17969 0.16797-0.39063 0.29297-0.63281 0.38281-0.24219 0.085937-0.5 0.12891-0.77735 0.12891h-0.15625c-0.0469 0-0.0977-0.0039-0.15625-0.01172-0.0937 0.03906-0.1914 0.10156-0.29687 0.19141-0.10156 0.08594-0.15625 0.20312-0.15625 0.34375 0 0.11719 0.0469 0.21875 0.14062 0.29297 0.0898 0.07422 0.23828 0.11328 0.44532 0.11328h0.72656c0.26953 0 0.51953 0.02734 0.75 0.08203 0.22656 0.05469 0.42969 0.14453 0.59765 0.26953 0.17188 0.12109 0.30469 0.27734 0.40235 0.46875 0.0937 0.1875 0.14062 0.42188 0.14062 0.6875 0 0.3125-0.0664 0.59375-0.19531 0.84766-0.13281 0.25391-0.31641 0.47266-0.55469 0.65234-0.23828 0.18359-0.52734 0.32812-0.86718 0.42969-0.34375 0.10156-0.72266 0.15625-1.1445 0.15625-0.60937 0-1.0742-0.13281-1.3906-0.39844-0.31641-0.26953-0.47656-0.64844-0.47656-1.1484 0-0.21484 0.0391-0.39844 0.11328-0.55469 0.0742-0.15625 0.16406-0.28906 0.26562-0.40625 0.10547-0.11328 0.21094-0.20312 0.31641-0.27344 0.10937-0.06641 0.19141-0.12109 0.25781-0.16016v-0.02344c-0.24609-0.18359-0.37109-0.44922-0.37109-0.79688 0-0.15234 0.0312-0.28125 0.0898-0.39062 0.0586-0.11328 0.12891-0.20312 0.20313-0.27734 0.0742-0.07031 0.15234-0.12891 0.22656-0.17188 0.0742-0.04297 0.13281-0.07422 0.17187-0.08984v-0.02344c-0.29296-0.13281-0.53125-0.34766-0.70703-0.63672-0.17968-0.28906-0.26953-0.66016-0.26953-1.1133 0-0.31641 0.0508-0.59375 0.15625-0.83594 0.10156-0.24219 0.24219-0.44141 0.41406-0.60156 0.17579-0.16016 0.37891-0.27734 0.61329-0.35938 0.23437-0.07813 0.48828-0.11719 0.75781-0.11719s0.52344 0.04687 0.76172 0.14453h1.7383zm-2.6524 4.7812c-0.16797 0-0.3164-0.01172-0.4414-0.03516-0.0703 0.03906-0.14063 0.08594-0.21094 0.14453-0.0664 0.05469-0.12891 0.12109-0.1836 0.19922-0.0547 0.08203-0.0977 0.17188-0.13671 0.28125-0.0352 0.10547-0.0508 0.23047-0.0508 0.375 0 0.60938 0.33594 0.91797 1.0117 0.91797 0.57813 0 1.0078-0.11328 1.2852-0.33984 0.27734-0.22656 0.41406-0.48828 0.41406-0.78125 0-0.27734-0.0859-0.47266-0.26172-0.58984-0.17578-0.11328-0.41015-0.17188-0.70312-0.17188zm1.2734-3.7617c0-0.41016-0.0977-0.70312-0.29297-0.87891-0.19531-0.17578-0.42187-0.26172-0.68359-0.26172-0.27735 0-0.51563 0.08594-0.71485 0.26172-0.19922 0.17578-0.29687 0.46875-0.29687 0.87891 0 0.41406 0.0977 0.70703 0.29687 0.88281 0.19922 0.17578 0.42969 0.26172 0.69141 0.26172 0.27734 0 0.51172-0.08594 0.70703-0.26172 0.19531-0.17578 0.29297-0.46875 0.29297-0.88281m6.0664 0.15625c0 0.24609-8e-3 0.45703-0.0234 0.63672-0.0156 0.17969-0.0312 0.33594-0.0469 0.47266h-2.918c0.0352 0.67188 0.17969 1.168 0.4375 1.4844 0.25782 0.31641 0.62891 0.47656 1.1133 0.47656 0.16406 0 0.3164-0.01953 0.44921-0.05859 0.13672-0.03906 0.25391-0.08984 0.35157-0.14453 0.10156-0.05469 0.18359-0.10938 0.25-0.16406 0.0703-0.05859 0.11718-0.10156 0.14843-0.13281l0.35938 0.67969c-0.0391 0.03906-0.10156 0.09766-0.17969 0.17188-0.0781 0.07422-0.1875 0.15234-0.32031 0.22656-0.13672 0.07422-0.30078 0.14062-0.5 0.19531-0.19922 0.05469-0.43359 0.08203-0.70313 0.08203-0.35546 0-0.67968-0.05859-0.96875-0.17578-0.28906-0.12109-0.53515-0.30469-0.73828-0.55469-0.20312-0.25-0.35937-0.56641-0.46875-0.95312-0.11328-0.38281-0.16797-0.84766-0.16797-1.3828 0-0.51172 0.0586-0.94922 0.17188-1.3164 0.11719-0.37109 0.27344-0.67187 0.46875-0.91016 0.19922-0.23828 0.42969-0.41406 0.69141-0.53125 0.26171-0.11328 0.54296-0.17188 0.84375-0.17188 0.54687 0 0.97656 0.17188 1.2852 0.51953 0.3125 0.34375 0.46485 0.85938 0.46485 1.5508m-1.8086-1.2852c-0.33984 0-0.61328 0.14453-0.82031 0.42969s-0.32422 0.69531-0.35938 1.2383h2.0859c8e-3 -0.04297 0.0117-0.09766 0.0156-0.17578 4e-3 -0.07422 8e-3 -0.15625 8e-3 -0.24219 0-0.39844-0.082-0.70313-0.23828-0.92188-0.16016-0.21875-0.39063-0.32812-0.69141-0.32812m5.5586 0.51172c-0.0625-0.07031-0.17968-0.16797-0.34375-0.29297-0.16796-0.12109-0.38671-0.18359-0.65625-0.18359-0.2539 0-0.44921 0.05859-0.58203 0.17969-0.13672 0.11719-0.20312 0.26172-0.20312 0.42969 0 0.21094 0.0625 0.39062 0.18359 0.52734 0.125 0.14063 0.3125 0.28906 0.56641 0.44531l0.35547 0.21484c0.39062 0.23047 0.69531 0.48047 0.91797 0.74609 0.22265 0.26563 0.33203 0.60938 0.33203 1.0273 0 0.45312-0.15625 0.83203-0.46875 1.1445-0.3125 0.30859-0.76563 0.46094-1.3516 0.46094-0.23046 0-0.43359-0.02344-0.60546-0.07031-0.17579-0.04687-0.32813-0.10156-0.46094-0.16406-0.12891-0.06641-0.23828-0.13672-0.32422-0.21094-0.0898-0.07422-0.16016-0.14453-0.21484-0.20703l0.46484-0.76172c0.0469 0.04688 0.10156 0.10156 0.17187 0.16406 0.0664 0.06641 0.14844 0.125 0.24219 0.1875 0.0937 0.05859 0.20313 0.10938 0.32031 0.14844 0.1211 0.03906 0.25782 0.05859 0.41797 0.05859 0.28516 0 0.50391-0.0625 0.65625-0.19141 0.14844-0.125 0.22657-0.28125 0.22657-0.46484 0-0.13281-0.0195-0.25-0.0547-0.34766-0.0352-0.10156-0.0898-0.19141-0.16016-0.26953-0.0742-0.07813-0.16015-0.15625-0.26172-0.22656-0.10547-0.07031-0.22265-0.14844-0.35937-0.23828l-0.35547-0.22266c-0.35938-0.23438-0.63672-0.47656-0.83984-0.72656-0.20313-0.25391-0.30469-0.58203-0.30469-0.97656 0-0.21484 0.043-0.41016 0.125-0.58984 0.0859-0.17969 0.20312-0.33203 0.35156-0.46484 0.15234-0.12891 0.32813-0.23438 0.53125-0.30859 0.20313-0.07422 0.41797-0.11328 0.64844-0.11328 0.22265 0 0.41015 0.02344 0.57031 0.06641s0.29688 0.09766 0.41016 0.16406c0.11718 0.07031 0.21093 0.13672 0.28515 0.20312 0.0781 0.06641 0.13672 0.125 0.1836 0.17188zm9.4842 4.5586h-1.1445l-0.73438-2.6289h-2.4883l-0.75 2.6289h-1.0469l2.6758-8.2109h0.80859zm-2.1055-3.4141-0.64453-2.25c-0.0859-0.30078-0.16406-0.58984-0.22656-0.86328-0.0625-0.27344-0.0977-0.50391-0.10547-0.68359h-0.0234c-8e-3 0.17969-0.0469 0.40625-0.11328 0.67188-0.0664 0.26562-0.14453 0.54687-0.23438 0.85156l-0.67578 2.2734zm5.9141 3.4141v-3.6758c0-0.46875-0.0664-0.80859-0.20312-1.0156-0.13672-0.20312-0.35156-0.30859-0.65625-0.30859-0.15625 0-0.29688 0.01953-0.42188 0.0625-0.12109 0.03906-0.23047 0.08594-0.32812 0.14844-0.0937 0.05859-0.17578 0.125-0.2461 0.19531-0.0742 0.07031-0.13281 0.13672-0.17968 0.19141v4.4023h-0.96485v-5.7109h0.87891v0.64063h0.0273c0.0391-0.0625 0.0977-0.14063 0.17578-0.23047 0.0781-0.09375 0.17969-0.17969 0.29688-0.26172 0.12109-0.08594 0.25781-0.15234 0.41797-0.21094 0.16015-0.05469 0.33594-0.08203 0.53515-0.08203 0.65235 0 1.1094 0.25391 1.3789 0.76172 0.0586-0.07813 0.13281-0.16406 0.22656-0.25781 0.0977-0.08984 0.20703-0.17188 0.33594-0.25 0.125-0.07422 0.26953-0.13672 0.42578-0.18359 0.16016-0.04687 0.33594-0.07031 0.52344-0.07031 1.1602 0 1.7383 0.67188 1.7383 2.0234v3.832h-0.96484v-3.6758c0-0.46875-0.082-0.80859-0.25-1.0156-0.16403-0.20312-0.41012-0.30859-0.73824-0.30859-0.26954 0-0.49219 0.06641-0.67188 0.19922-0.17578 0.12891-0.31641 0.25391-0.42187 0.375 0.0156 0.08594 0.0273 0.17969 0.0352 0.27734 8e-3 0.10156 0.0117 0.20313 0.0117 0.31641v3.832zm7.8398-4.9258h-1.25v3.1641c0 0.40234 0.0547 0.67969 0.15625 0.82812 0.10156 0.14453 0.27734 0.21875 0.52343 0.21875 0.14454 0 0.26563-0.01953 0.3711-0.05859 0.10156-0.03906 0.17578-0.07812 0.22265-0.10937l0.13282 0.77344c-0.0391 0.03516-0.13672 0.08203-0.28516 0.15234-0.15234 0.06641-0.35547 0.09766-0.60937 0.09766-0.49219 0-0.85938-0.13672-1.1055-0.41016-0.2461-0.27344-0.36719-0.72656-0.36719-1.3594v-3.2969h-0.69141v-0.64453l0.69141-0.14063 0.10547-1.5977h0.85547v1.5977h1.3711z"/>
  <path d="m54.5 62h1.5v20h-3.5v-20z" fill="#f8d100"/>
  <path d="m54.5 41.898h1.5v20.102h-3.5v-20.102z" fill="#e3000c"/>
  <path d="m43.391 28.992c1.0234 1.6172 1.8242 1.5898 3.0352 1.5898-1-0.76562-1.6641-1.75-1.9766-2.25l-1.8711-2.9922c-0.18359-0.92578-0.66016-1.7891-1.375-2.4336 0.23828-0.08984 0.4375-0.1875 0.55859-0.27734-1.2188 0-2.4297-0.62109-3.0977-0.62109-0.42578 0-0.70312 0.25781-0.70312 0.59766 0.02734 0.375 0.41797 0.75781 1.1328 0.75781 0.16406 0 0.37109-0.01953 0.59766-0.05859 0.39062 0.53906 0.70312 1.0312 0.70312 1.7266 0 1.3125-1.5664 2.332-3.1484 2.332-0.08984 0-0.17578-0.0039-0.26172-0.01172-0.14453-0.32422-0.62109-0.86719-0.62109-1.4883 0-1.0391 0.67969-1.8906 0.67969-2.9219 0-0.64062-0.3125-1.0391-0.43359-1.2031 0.19531-0.17969 0.40625-0.40234 0.45703-0.55469-0.11328 0.05078-0.24609 0.05859-0.44531 0.05859-0.75391 0-1.375-0.19922-1.9766-0.19922-0.34375 0-0.4375 0.10547-0.4375 0.20703 0 0.03516 0.0078 0.07422 0.01563 0.09375-0.125-0.05078-0.24609-0.08203-0.39063-0.10938-0.17578-0.03516-0.36719-0.05078-0.57031-0.05078-0.73438 0-0.99609 0.30859-0.99609 0.57031 0 0.22266 0.17969 0.62891 0.375 0.9375 0.28516-0.14453 0.62891-0.24219 0.78516-0.24219 0.39063 0 0.73438 0.37109 0.91797 0.80859-0.26172 0.03125-0.3125 0.04297-0.57812 0.04297-0.71094 0-1.1953-0.25391-1.2969-0.25391-0.0078 0-0.02734 0.0039-0.02734 0.01953 0 0.10156 0.20312 0.36328 0.60156 0.51172 0.52344 0.19141 1.3125 0.26953 1.4414 0.29297 0 0.01953-0.13281 0.26953-0.28125 0.31641-0.03125 0.01172-0.05469 0.01172-0.09375 0.0039-0.54688-0.10547-0.69922-0.15234-1.3945-0.41797-0.02344-0.0078-0.03516 0.0078-0.03516 0.02734 0 0.27734 0.71094 0.88281 1.3516 1.1133-0.53516 0.67969-1.1992 1.3789-1.5156 2.4375-0.08594 0.0078-0.17188 0.01172-0.26172 0.01172-1.582 0-3.1484-1.0195-3.1484-2.332 0-0.69531 0.3125-1.1875 0.70312-1.7266 0.22656 0.03906 0.43359 0.05859 0.59766 0.05859 0.71484 0 1.1055-0.38281 1.1328-0.75781 0-0.33984-0.27734-0.59766-0.70703-0.59766-0.66406 0-1.875 0.62109-3.0938 0.62109 0.12109 0.08984 0.32031 0.1875 0.55859 0.27734-0.71484 0.64453-1.1914 1.5078-1.375 2.4336l-1.8711 2.9922c-0.3125 0.5-0.97656 1.4844-1.9766 2.25 1.207 0 2.0117 0.02734 3.0352-1.5898l0.95703-1.5352c0.07031 0.19922 0.16016 0.39062 0.26172 0.58203l-1.9062 3.0508c-0.31641 0.50391-0.97656 1.4805-1.9805 2.2539 1.2109 0 2.0117 0.02734 3.0352-1.5898l1.6406-2.6289c0.125 0.12891 0.25391 0.25781 0.39062 0.37891l-2.3164 3.7109c-0.32031 0.50391-0.97266 1.4766-1.9805 2.25 1.2109 0 2.0117 0.02734 3.0352-1.5898l2.2578-3.6172c0.14844 0.09375 0.30078 0.1875 0.45703 0.27344l-2.7539 4.4102c-0.32031 0.50781-0.97266 1.4766-1.9805 2.25 1.2109 0 2.0117 0.02734 3.0352-1.5938l2.8398-4.543c0.16797 0.06641 0.33984 0.12891 0.51172 0.18359l-3.207 5.1328c-0.3125 0.5-0.98438 1.4883-1.9805 2.25 1.2109 0 2.0117 0.02734 3.0352-1.5898l3.418-5.4727c0.03516 0.0078 0.07031 0.01563 0.10547 0.01953 0.09375 0.29688 0.15625 0.57422 0.15625 0.84766 0 1.7188-1.1289 3.2383-2.4805 4.4102 0.08594 0.03906 0.23828 0.05078 0.375 0.05078 0.28125 0 0.46094-0.01563 0.58594-0.03906-0.3125 0.71484-0.98438 1.6367-1.3242 2.1133-0.44531-0.08203-1.0898-0.14453-1.5117-0.14453-0.44141 0-0.49219 0.25781-0.49219 0.48828 0 0.40234 0.1875 0.72266 0.40625 0.89844 0.08203-0.20312 0.24609-0.48047 1.0625-0.48047 0.01563 0 0.04297 0.0039 0.08203 0.0078-0.23828 0.26562-0.98438 0.86719-0.98438 1.3555 0 0.32031 0.35156 0.80469 0.81641 0.80469-0.02734-0.10547-0.02344-0.19922-0.02344-0.26953 0-0.39844 0.35156-0.85938 0.64453-1.1797-0.0078 0.09766-0.0039 0.08594-0.0039 0.19922 0 0.92969 0.08594 1.3594 0.67578 1.3594 0.28906 0 0.48828-0.16016 0.55859-0.20703-0.38672-0.35547-0.40234-0.63281-0.40234-1.1562v-0.44922c0.0039-0.12109 0-0.27734-0.01953-0.39062 0.21484-0.03125 0.30078-0.03125 0.46094-0.03125 0 0 0.83984-0.06641 1.043 0.37109 0.22656-0.21094 0.55859-0.50391 0.55859-0.83203 0-0.21094-0.10156-0.45703-0.53516-0.45703-0.16406 0-0.67969 0.10156-1.1094 0.10156 0.11328-0.25781 0.63281-1.0117 1.0781-1.5586 0.06641 0.21094 0.17188 0.44141 0.40625 0.62891 0.03125-0.35156 0.23828-1.4648 0.78906-2.1133 0.06641 0.4375 0.15234 0.89062 0.15234 1.8398 0 2.3125-0.55859 4.0234-1.7383 4.3477 0.15234 0.26953 0.47656 0.50781 0.81641 0.50781 0.42969 0 0.66797-0.48828 0.90625-0.94922 0.125 0.33984 0.46875 1.1758 0.81641 1.1758 0.34375 0 0.69141-0.83594 0.81641-1.1758 0.23828 0.46094 0.47266 0.94922 0.90625 0.94922 0.33594 0 0.66406-0.23828 0.81641-0.50781-1.1797-0.32422-1.7383-2.0352-1.7383-4.3477 0-0.94922 0.08594-1.4023 0.15234-1.8398 0.54688 0.64844 0.75391 1.7617 0.78906 2.1133 0.23047-0.1875 0.33984-0.41797 0.40625-0.62891 0.44531 0.54688 0.96094 1.3008 1.0781 1.5586-0.43359 0-0.94531-0.10156-1.1094-0.10156-0.43359 0-0.53516 0.24609-0.53516 0.45703 0 0.32812 0.33203 0.62109 0.55859 0.83203 0.20312-0.4375 1.043-0.37109 1.043-0.37109 0.16016 0 0.24609 0 0.46094 0.03125-0.01953 0.11328-0.02344 0.26953-0.02344 0.39062 0.0039 0.18359 0.0039 0.31641 0.0039 0.44922 0 0.52344-0.01953 0.80078-0.40234 1.1562 0.070318 0.046887 0.26954 0.20704 0.5586 0.20704 0.58984 0 0.67578-0.42969 0.67578-1.3594 0-0.11328 0.0039-0.10156-0.0039-0.19922 0.29297 0.32031 0.64453 0.78125 0.64453 1.1797 0 0.07031 0 0.16406-0.02734 0.26953 0.46875 0 0.82031-0.48438 0.82031-0.80469 0-0.48828-0.74609-1.0898-0.98438-1.3555 0.03906-0.0039 0.06641-0.0078 0.08203-0.0078 0.81641 0 0.98047 0.27734 1.0625 0.48047 0.21875-0.17578 0.40625-0.49609 0.40625-0.89844 0-0.23047-0.05078-0.48828-0.49219-0.48828-0.42188 0-1.0664 0.0625-1.5117 0.14453-0.33984-0.47656-1.0117-1.3984-1.3281-2.1133 0.12891 0.02344 0.30859 0.03906 0.58594 0.03906 0.14062 0 0.29297-0.01172 0.37891-0.05078-1.3516-1.1719-2.4805-2.6914-2.4805-4.4102 0-0.27344 0.0625-0.55078 0.15625-0.84766 0.03516-0.0039 0.07031-0.01172 0.10547-0.01953l3.418 5.4727c1.0195 1.6172 1.8242 1.5898 3.0352 1.5898-0.99609-0.76172-1.668-1.75-1.9805-2.25l-3.207-5.1328c0.17188-0.05469 0.34375-0.11719 0.51172-0.18359l2.8398 4.543c1.0234 1.6211 1.8242 1.5938 3.0352 1.5938-1.0078-0.77344-1.6602-1.7422-1.9805-2.25l-2.7539-4.4102c0.15625-0.08594 0.30859-0.17969 0.45703-0.27344l2.2578 3.6172c1.0234 1.6172 1.8242 1.5898 3.0352 1.5898-1.0078-0.77344-1.6602-1.7461-1.9805-2.25l-2.3164-3.7109c0.13672-0.12109 0.26562-0.25 0.38672-0.37891l1.6445 2.6289c1.0234 1.6172 1.8242 1.5898 3.0352 1.5898-1.0078-0.77344-1.6602-1.75-1.9805-2.2539l-1.9062-3.0508c0.10156-0.19141 0.19141-0.38281 0.26172-0.58203zm-15.305-3.5156c0-1.1406 0.82812-2.043 1.1211-2.2969 0.07031 0.01953 0.14063 0.03516 0.20703 0.05078-0.30859 0.37891-0.85547 1.0117-0.85547 1.8516 0 1.668 1.7812 3.1172 3.8008 3.1172-0.01563 0.14453-0.01953 0.29297-0.01953 0.44922 0 0.24219 0.01172 0.47266 0.03516 0.69141-2.2812-0.01563-4.2891-1.8672-4.2891-3.8633m3.0898 13.676-0.01172 0.03906h0.03906c0.64062 0 0.95312-0.04687 1.1602-0.07813 0.10938-0.01563 0.1875-0.02344 0.26953-0.02344 0.16406 0 0.29297 0.01563 0.29297 0.21484 0 0.14062-0.16016 0.35547-0.31641 0.48437-0.23438-0.22266-0.5625-0.26953-1.043-0.26953-0.22266 0-0.51953 0.03906-0.67578 0.0625l-0.02344 0.0039-0.02734 0.0039 0.0078 0.07422c0.01953 0.13281 0.03906 0.30078 0.03906 0.51953v0.20312l-0.0039 0.25c0 0.54688 0.07422 0.85547 0.26562 1.0898-0.05078 0.01953-0.12891 0.03516-0.17969 0.03516-0.33984 0-0.4375-0.14844-0.4375-1.1211 0-0.19531-0.0078-0.37891-0.01563-0.50391l-0.01172-0.17969-0.04297 0.03516c-0.5 0.38281-1.0156 1.0664-1.0469 1.5781-0.15234-0.09766-0.31641-0.31641-0.31641-0.48437 0-0.28125 0.41797-0.69922 0.90625-1.1836l0.27734-0.28125 0.03516-0.03516-0.08984-0.02344c-0.10547-0.02734-0.30078-0.07422-0.46484-0.07422-0.54297 0-0.88672 0.10156-1.0977 0.33203-0.07422-0.10937-0.13672-0.36328-0.13672-0.51562 0-0.09375 0.01953-0.16406 0.05859-0.20313 0.04687-0.04687 0.12109-0.04687 0.1875-0.04687h0.01172c0.60156 0 1.3164 0.10937 1.5977 0.15625l0.01563 0.0039 0.01172-0.01563c0.04687-0.06641 1.1953-1.5898 1.4922-2.3984 0.06641-0.02344 0.125-0.04297 0.24609-0.04297 0.22656 0 0.28516 0.15234 0.35156 0.38281-0.71484 0.86719-1.1602 1.543-1.3242 2.0117m6.1758-2.3945c0.12109 0 0.17969 0.01953 0.24609 0.04297 0.30078 0.80859 1.4414 2.332 1.4922 2.3984l0.0078 0.01563 0.01953-0.0039c0.28125-0.04688 0.99609-0.15625 1.5977-0.15625h0.01172c0.06641 0 0.14062 0 0.1875 0.04687 0.03906 0.03906 0.05859 0.10938 0.05859 0.20313 0 0.15234-0.0625 0.40625-0.14063 0.51562-0.21094-0.23047-0.55078-0.33203-1.0938-0.33203-0.16406 0-0.35937 0.04687-0.46484 0.07422l-0.04297 0.01172-0.05078 0.01172 0.31641 0.31641c0.48828 0.48438 0.90625 0.90234 0.90625 1.1836 0 0.16797-0.16406 0.38672-0.31641 0.48437-0.03125-0.51172-0.54688-1.1953-1.0508-1.5781l-0.04297-0.03125-0.0078 0.17578c-0.0078 0.125-0.01563 0.30859-0.01563 0.50391 0 0.97266-0.10156 1.1211-0.4375 1.1211-0.05078 0-0.12891-0.01563-0.17969-0.03516 0.1875-0.23437 0.26562-0.54297 0.26562-1.0898l-0.0039-0.25-0.0039-0.20312c0-0.21875 0.02344-0.38672 0.04297-0.51953l0.0078-0.07422-0.05078-0.0078c-0.16016-0.02344-0.45312-0.0625-0.67578-0.0625-0.48047 0-0.80859 0.04687-1.043 0.26953-0.15624-0.12889-0.31639-0.34374-0.31639-0.48436 0-0.19922 0.125-0.21484 0.29297-0.21484 0.08203 0 0.16016 0.0078 0.26953 0.02344 0.20703 0.03125 0.51953 0.07813 1.1602 0.07813h0.03906l-0.01172-0.03907c-0.16406-0.46875-0.60937-1.1445-1.3242-2.0117 0.0625-0.23047 0.125-0.38281 0.35156-0.38281m-2.6484-13.301c-0.07422-0.29688-0.22266-0.60156-0.41797-0.83203-0.17578-0.20703-0.46484-0.45312-0.85938-0.45312-0.17969 0-0.47656 0.08594-0.66797 0.16406-0.07422-0.12891-0.21094-0.44141-0.21094-0.58203 0-0.14453 0.24609-0.29297 0.71484-0.29297 1.0312 0 1.6484 0.46484 1.6484 1.25 0 0.27344-0.10938 0.52344-0.20703 0.74609m0.46094-1.0195c-0.03516-0.21875-0.12109-0.42188-0.25-0.58984 0.0078-0.20312 0.08984-0.39453 0.41797-0.23828-0.17578 0.17969-0.04297 0.5-0.04297 0.5s0.35938-0.16797 0.28516-0.40625c0.53516 0.12891 0.15234 0.84766-0.41016 0.73438m2.0078 6.9023c0.02734-0.22656 0.04297-0.45703 0.04297-0.69141 0-0.13281 0-0.28125-0.01563-0.44922 1.9961-0.02734 3.7422-1.4648 3.7422-3.1172 0-0.83984-0.54688-1.4727-0.85938-1.8516 0.07031-0.01563 0.14063-0.03125 0.21094-0.05078 0.29297 0.25391 1.1211 1.1562 1.1211 2.2969 0 1.9805-1.9805 3.8203-4.2422 3.8633"/>
  <path d="m56 22v20h-3.5v-20z"/>
 </g>
</svg>
