<?xml version="1.0" encoding="UTF-8" standalone="no"?>
<svg height="390px" version="1.1" viewBox="0 0 740 390" width="740px"
     xmlns="http://www.w3.org/2000/svg"
     xmlns:sketch="http://www.bohemiancoding.com/sketch/ns">
  <!-- Generator: Sketch 3.4.3 (16618) - http://www.bohemiancoding.com/sketch -->
  <title>2015_Logo_TUM_neg_RGB</title>
  <desc>Created with Sketch.</desc>
  <defs></defs>
  <g fill="none" fill-rule="evenodd" id="Page-1" sketch:type="MSPage" stroke="none" stroke-width="1">
    <g fill="#3070b3" id="2015_Logo_TUM_neg_RGB" sketch:type="MSArtboardGroup">
      <path
        d="M405,9.13352234e-15 L370,2.70412665e-15 L370,320 L290,320 L290,1.5562918e-14 L255,9.13352234e-15 L0,1.35206332e-15 L0,70 L70,70 L70,390 L140,390 L140,70 L220,70 L220,390 L255,390 L405,390 L440,390 L440,70 L520,70 L520,390 L590,390 L590,70 L670,70 L670,390 L740,390 L740,35 L740,1.35206332e-15 L405,1.35206332e-15 Z"
        id="Rectangle-1" sketch:type="MSShapeGroup"></path>
    </g>
  </g>
</svg>
