<svg xmlns="http://www.w3.org/2000/svg" viewBox="0 0 2121.28 2095.28"><title>signIn</title><g id="Layer_2" data-name="Layer 2"><g id="Layer_2-2" data-name="Layer 2"><g id="xHXnrc.tif"><path d="M1140,872.3a.58.58,0,0,0,.14.25h0s0-.07.07-.11Zm-84.16,4.39-7-4.5c2.36,1.5,4.68,3,7,4.53l.68-.07A2.48,2.48,0,0,1,1055.87,876.69ZM723.39,1299.54a2.86,2.86,0,0,0,1,.54v0A3.48,3.48,0,0,1,723.39,1299.54Zm-.82,22.07c-.71,3.07-1.46,6.18-2.21,9.25.75-3.07,1.5-6.14,2.25-9.25Zm-13.93,49h0v-.25A.87.87,0,0,1,708.65,1370.56Zm-11.82,15.53a2.48,2.48,0,0,1-.11-.71,1,1,0,0,0,0,.46v.07l.11.43a8.53,8.53,0,0,0,.54,1.39,0,0,0,0,1,0,0v0A8.43,8.43,0,0,1,696.83,1386.1Zm.61,1.68a10.42,10.42,0,0,0,1.36,2h0A14.62,14.62,0,0,1,697.43,1387.78Z" style="fill:#163846;"/><path d="M697.4,1387.74a0,0,0,0,1,0,0v0Z" style="fill:#163847;"/><path d="M696.83,1386.1c0-.07,0-.14-.07-.18l.11.43A.61.61,0,0,1,696.83,1386.1Z" style="fill:#e6686d;"/><path d="M1293.93,1369.14c-5.14-2.18-2.79-4.11.18-6a2.33,2.33,0,0,1,2.25-1.75c-.68-4.14-2.25-8.28-6.18-9.78-11.82-4.57-10.93-12.82-7.25-22.21-.18-2.29-.36-4.61-.57-6.89-4.93-1.14-5.07-4-2.68-7.68a9.28,9.28,0,0,1-.86-.82c-3.11-3.21-3.11-6.57-1.82-10a28.15,28.15,0,0,1,2-4c-4-23-8.75-45.92-11.46-69.06-1.18-9.82,4.46-20.25-1.32-30.14-1.68-12.46,1.46-24.82,1.32-37.35-.14-13.75-1.36-28.35,3.57-43.67,4.57-14.32,1-31.46,16.46-42.56-8.46-4.43-20.1,6.18-22.53-5.36-1.79-8.46-3.79-18.64.71-27.71l-.21-7.68c-2.11-3.32-4-6.61-1-10.39-1.54-6.61-4.75-13.6,4.25-17.68,2.64-13.18,2.75-26.46,1.54-39.81-4.5-11.64-7.61-24.14-1.71-35.39,3-5.75-5.93-9.18-.11-13.35-5.11-4-1.36-8-.46-12.5,5-24.82-5.36-32.42-29.53-32.32-32.71.21-65.74,4.71-98.34-2.43-4.21,6.86-10.57,3.07-16.14,3.14-4.71-1.68-10.21,1.64-14.57-2.29h0c-2.89-1-5.07,0-6.68,2.5-.39,1.54-.64,2-.5-.07-1.82-.64-3.68-1.29-5.53-1.89-3.64,2.75-7.82,1.79-11.89,1.86h0a7.73,7.73,0,0,0-2.86,1.32c-5.39,2-10.82,2.46-16.28.39-2.68,0-5.36.07-8,.07l-1.29.36-.5-1.21v0l-7-4.5c-7,5.39-14.64,3.75-22.25,2.11-.46.29-.89.61-1.36.93s-.82.68-1.25,1c-2.14,3-4.61,3-7.32.89-26.89-1.29-54.17-6.07-80.52-2.89-24.57,2.93-49,.93-73.34,2.32-38,2.25-76.49-3.32-114.94-.89-8.68.54-10.11,3.25-12.43,10.61-3.57,11.32,1.54,22.64-2.29,33.49,1.68,16.43,4.86,32.85-1.57,49,.93,11.39-5.71,23,2.93,34.35,3.71,4.89,4.78,12.64-4,16.18,15.6,12.89,5.28,29.1,5.61,44,5.21,12.39,5.18,23.89-5.53,33.67,0,2.64-.07,5.28-.11,8,5.64-.18,8.28,2.46,8,8.18-.39,7-6,7.14-10.78,8.46.82,2.5,1.68,5,2.5,7.53l1.25-.39,1,.93a5.72,5.72,0,0,1,1.75.07c.43.14,1.14.89,1.07,1-1.29,2.36-4.32,5.14-3.82,6.89,6.25,20.78-.11,42.31,4,63.17-2.11,21.32-4.43,42.64-6.11,64a19.27,19.27,0,0,1-1,5.14,10.08,10.08,0,0,1-2,3.14,11.38,11.38,0,0,1-.93.93h0a14.74,14.74,0,0,1,2.25,3.57c.14.39.29.79.39,1.18,1.93,7.25-4.57,14.18-3.61,21.35v0c0,5.18-.07,10.36-.07,15.53,1.36,2.57,1.46,4.78-1.75,6v0h0c-.71,3.07-1.46,6.18-2.21,9.25,9.46,16.53-9.11,20.07-13.93,30,2.36,2.25,4.28,4.64,3.39,8.21l.07,1.29-1.21.21h0c-2,.75-4.07,1.5-6.11,2.21,3.61,5.64,5.18,11.46,1.54,17.75,12.57-4.21,8.89,9,13.68,12.5,22.82,16.75,45.06,33.85,70.52,47.42,45.38,24.25,93.45,37.28,143.37,46,4.07.71,8.75.43,5.82,7.14-2.39,5.39,2.25,10.18,2.36,15.43,5.25,7.43.5,13.07-2.93,19.39-17.46,32.17-48.71,51.21-73.31,76.45-22.53,23.07-31.28,41.74-22.25,69.34,1.86,5.68,4.43,11,10,14.18,20.39,11.75,40.64,23.82,61.31,35,4.36,2.32,10.5,1.11,15.64,2.25,8.93,2,18.78-2.11,26.82,7,5.32,6,10.93-6.14,22-1.11,20.67,9.39,46,8.68,69,4.36,27.57-5.18,54.28-14.35,80.45-25,9.5-3.86,15-12,20.92-18,6.46-6.57,12-11.89,20.25-16.43,4.07-2.25,9.18-15.89,4.18-21.1-7.68-7.93-.36-11.18,1.43-16.32v0c-.21-.18-.43-.39-.64-.61,0,0,0,0,0,0a.42.42,0,0,1-.18-.18l-.43-.43a21.1,21.1,0,0,1-2-2.5c-.29-.43-.57-.86-.82-1.32s-.46-.89-.71-1.36-.43-.93-.64-1.43-.39-.93-.61-1.43-.36-1-.54-1.46c-.36-1-.68-1.93-1-2.93-.39-1.36-.82-2.71-1.29-4-.21-.68-.46-1.36-.71-2s-.5-1.32-.79-2c-.14-.36-.32-.71-.5-1.07s-.36-.71-.54-1.07c-15.64-23.42-36.74-40.53-61.7-53-14.18-7-25.89-17.18-36-28.82-5.39-6.21,3.64-11.89,4.68-18.21-.57-5.28-.79-10.64-1.82-15.85-2.18-11.07-1.71-16.39,12.75-20.64,11.86-3.5,23,0,34.6-4.11,31-11,59.45-27,89.23-40.21,19.35-8.61,35.07-22.78,51.35-36.32,6.64-5.53,7.93-17.25,15.21-17.14,10.5.11,16.14-6.11,23.39-10.64C1301.15,1376.81,1298.47,1373,1293.93,1369.14ZM821.7,1087.87c-14.46-6.46-23-21.71-33.28-34.42-10.57-13.14-9.86-27.64-14.89-40.53-9.11-23.17-6.82-48.6,16.71-65.49,5.39-3.86-.07-5.93.57-9,1.43-11.61,5.36-21.53,19.93-19.68,4,.5,7.61.75,9.43-2.36C832.59,895,852,896.72,872.08,900c19.53,3.29,39,5.28,55.78,18.71,13,10.36,25.46,20.6,35.24,34.1,4.32,6,8.82,11.21,5.53,19.18-1,2.5-1.89,4.57.71,7.71,7.75,9.18,6.18,18.14-3.54,25.57-3.54,2.68-5.71,5.89-5.32,10.57,2.21,27.21-15.07,44.88-33.46,59.1C895.36,1099.4,858.58,1104.29,821.7,1087.87Zm296.41,102.62c-5.39,17.39-46.92,48.42-69.42,48.38-7.39,2.46-17.39,8.11-29.35,8.57-36.85,1.46-67.59-12.78-96.66-33.67-11-7.89-18.78-18.89-30.42-26.17-10.36-6.5-8.36-22.32,2.11-29.67,21.46-15.1,42.42-10.39,59.2,10.82,5.68,7.18,12.43,17,26.46,11.75,10.25-3.79,19.78,5.61,29.67,8.53,17.07,5,29.39-8.93,44.78-6.82,1.39-14,23.92-17.71,17.21-35.92-1.39-3.79,3.71-3.54,5.93-4.68,6.61-3.36,13.1.79,15.6,5,3.43,5.75,7.28,10,13,12.53C1121.18,1165.57,1122.43,1176.6,1118.11,1190.49Zm126.26-187c-5.68,4.11-9.57,9.07-7.43,14.5,6.93,17.64-8.36,23.25-15.71,33.74-5.86,8.32-8.07,17.93-18,24.6-33.21,22.39-68,27-104.34,11.71-14.85-6.25-23.21-21.07-33.49-33.6-10.18-12.35-13.25-27.32-14.39-38.85-1.79-17.64.11-37.81,10.07-55.1,13-22.57,32.53-36.31,55.7-47.67,12.32-6,23.14-12.93,33.28-11.89,45.67,2.18,72.92,27.07,93.66,59.56,4.71,7.36-1.43,21.21,11.11,26.85C1251.44,992.92,1249.23,1000.06,1244.37,1003.52Z" style="fill:#f1bb05;"/><path d="M386.1,1191.1A163.35,163.35,0,0,1,356,1205.77c-19.53,6.89-27.46,27.14-33.28,42.14-7,18-.64,41-1.11,61.77-.46,20-2.36,40-3.54,60-.86,15,.18,30-.71,45.06-1.29,21.92-.43,44.17-4.61,65.81-4.86,25.25-5.39,51-9,76.34-1.32,9.36-.89,18.21-6.57,26.28C287,1585,278.83,1581,272.19,1574c-6-6.28-11,3.29-17.78-.29-17.25-9.07-35.39-16.53-53.38-24.1-20.32-8.5-37-23.28-54.42-35.6-8.68-6.11-22.07-7.46-28-20-5.71-12.14-17.64-20.64-26.25-31.28-11.43-14-24.64-27.1-32.53-43.21-16.18-33.07-31.6-66.42-43.46-101.66-8.43-25-5.68-51.6-16.14-75.66-1.11-2.54,1.36-4.18,3.39-5.5,1.71-3.54-4-10.53,5-10.75,0-2.39,0-4.78.07-7.21-7.25-9.93-5.57-30.67,3.14-38.89-7.18-10.53-3.11-43.42,7.11-56.6,5.57-7.25,12-14.28,7.25-24.42-3.32-7,5.21-7.68,7.25-11.46,7.68-14.32,12-30.14,23.64-43.35,17.14-19.35,36.28-37,52.2-57.38,2.32-9.18,9.64-12,17.68-14,11-16,24.46-29.17,42.92-36.24,14-5.36,28.32-9.11,38.67-21.71,3.57-4.28,12.07-6.39,18.25-6.32,26,.29,39.89-24.42,63.63-29.46,15.78-3.36,33.64,1.93,47.46-10.25,10.28,49.42,12.64,99.87,20.1,149.69,2.46,16.5,6.21,33,4.57,50.24-1.07,11.39,13.57,19.28,10,32.35-7.43,8.68,3,14.93,3.21,22.75C376.42,1146.57,378.06,1169.35,386.1,1191.1Z" style="fill:#163847;"/><path d="M1344.43,1887.15c-4.5,4.18-11.25,11.43-10.07,15.25,7,22.89-13,21.53-23.64,28.53-.5.32-1.11,1.11-1.36,1-27.07-12.14-53.1,5.18-80.77,2.61-32.49-3-66.1-1.71-99.34,0-26.64,1.39-54.1-1.71-81.24-1.71-56.17,0-112.34.46-168.51.46-58.06,0-116.16-1.89-174.11.5-16.28.68-32.21-2.5-48.24-.68-9.21,1.07-9.93-4.82-8.78-11.21,2.46-13.78,10.61-27.17-5.93-39.49-4.89-3.64-1.07-17.64,0-25.25,5-35.24,16.35-69,33-100.95s37-61.24,61.77-86.45C771.46,1635,811.88,1606.66,848,1574c21.32-19.21,48.17-27.67,68.84-46.56a34.49,34.49,0,0,1,23-8.43c5.25,7.43.5,13.07-2.93,19.39-17.46,32.17-48.71,51.21-73.31,76.45-22.53,23.07-31.28,41.74-22.25,69.34,1.86,5.68,4.43,11,10,14.18,20.39,11.75,40.64,23.82,61.31,35,4.36,2.32,10.5,1.11,15.64,2.25,8.93,2,18.78-2.11,26.82,7,5.32,6,10.93-6.14,22-1.11,20.67,9.39,46,8.68,69,4.36,27.57-5.18,54.28-14.35,80.45-25,9.5-3.86,15-12,20.92-18,6.46-6.57,12-11.89,20.25-16.43,4.07-2.25,9.18-15.89,4.18-21.1-7.68-7.93-.36-11.18,1.43-16.32v0c-.46-.39-.86-.79-1.29-1.21a21.1,21.1,0,0,1-2-2.5c-.29-.43-.57-.86-.82-1.32s-.46-.89-.71-1.36-.43-.93-.64-1.43-.39-.93-.61-1.43-.36-1-.54-1.46c-.36-1-.68-1.93-1-2.93-.39-1.36-.82-2.71-1.29-4-.21-.68-.46-1.36-.71-2a18.79,18.79,0,0,0-.79-2c-.14-.36-.32-.71-.5-1.07s-.36-.71-.54-1.07c-15.64-23.42-36.74-40.53-61.7-53-14.18-7-25.89-17.18-36-28.82-5.39-6.21,3.64-11.89,4.68-18.21,45.85,23.67,85.31,56,123.48,90.23,21.46,19.28,45.49,35.49,64.6,57.63,41.21,47.85,75.2,98.91,87.48,162.72,2.79,14.53.54,29.17,5.07,43.24C1350.67,1882.76,1347.17,1884.61,1344.43,1887.15Z" style="fill:#68c6d5;"/><path d="M524.5,1375.17c3.57,7.43,4.64,14.39-2.29,21-11.57,11.07-22.25,22.75-39.64,25.1a13.94,13.94,0,0,0-8.43,4.07c-3.82,3.68-6.28,9.75-8,17.85-4.78,22.46,3,45.1-.93,67.67a14.52,14.52,0,0,0,2.36,10c17,23.71,9.89,52.56,17.18,78.16,6.57,23,2.46,47.06,9.53,69.74-2.25,5.53,3.5,9.11,3.39,14.14-6.28,22.25,5.18,43.21,4.43,65.56-1.11,32.74,8,64.88,8,98.48-.07,34.35-2,69.13-.07,103.87,1.43,25.35.57,55.45-23.71,75.27a8.73,8.73,0,0,0-2.25,2.61c-2.93,5.89,3.18,15-6.46,18.53-23.92,8.75-46.53,21-74,17.18-17.18-2.36-33.49-7.46-47.67-15.28-18.82-10.36-36.92-23.17-47.56-43.92-21.64-42.24-27.32-86.63-23.28-133.44.89-10.25.11-21.35,0-32.07,0-1.68-1.86-3.86-1.25-4.93,9.36-16.35.5-34.28,4-50.28,4.46-20.57-.21-41,3.07-60.67,7.5-44.63,3.14-89.77,8.78-134.37.25-2-1.64-4.18-2.54-6.28,5.68-8.07,5.25-16.93,6.57-26.28,3.64-25.35,4.18-51.1,9-76.34,4.18-21.64,3.32-43.88,4.61-65.81.89-15.1-.14-30.07.71-45.06,1.18-20,3.07-39.92,3.54-60,.46-20.78-5.93-43.81,1.11-61.77,5.82-15,13.75-35.24,33.28-42.14a163.35,163.35,0,0,0,30.14-14.68c5.75.89,12.46,4.18,17.07,2.29,27.35-11.21,56.78-7.68,84.81-13.32,5.28,7.39,19.53,3.46,20.46,16.28-8.18,2.32-4.46,8.46-3.93,13.21,2.61,22.75-1.11,25.78-24,24.42-13.53-.82-27.28,1.61-41,2.54-12.93.93-19.39,16.43-18.21,20.39,2.82,9.32,13.78,2.64,20.89,1.14,17.68-3.68,34.92-9.14,53.49-7.53,8.14.68,17.32-3.07,17.14,10.46-.14,12.18.82,25.07-16.21,26.46-15.25,1.25-29.82,6.68-45.35,6.43-10.36-.14-15.07,8.43-13.75,16.82,1.36,8.82,9,2.68,14.32,2.82,21.21.64,41.24-4.82,61.38-10.14,5.36-1.43,8.39,1.57,11.11,6.36,10.86,19.07,4.11,33.78-17.5,36.67-13.78,1.82-27.64,3.54-41.49,4.61-10,.79-10.93,7.5-11,14.93,0,9.28,6.78,11.61,13.35,9.21,12.57-4.57,26-.79,38.46-5.93C513,1366.42,520.5,1367,524.5,1375.17Z" style="fill:#f2bb05;"/><path d="M2120.25,1979.92c-2.21,16.64-5.36,34.89-1.89,52.53,2,10.5.5,20.25-11.68,22.75-11.82,2.39-10.61,14-15.89,20.71-12.89,16.46-31.57,12.75-46.38,13.14-78,2.14-156.19,2.14-234.28,1.07-41.21-.57-82.34,1.57-123.48,1.14-12.25-.14-25,1.46-37.39-3.68-7.11-3-15.68,6.11-23.14,2-18.28-10-35.46,3.79-53.74,1.11-18.57-2.75-37.89-.64-56.85.11-13.1.5-26,2.07-39.28-.29-10.18-1.79-20.39-2.61-30.92,3.18-14.71,8.11-50.49-16.46-51.35-35-.93-20.6-4.93-40.74-1.18-62,3.14-17.89-.39-37-1.82-55.56-.39-4.86,0-7.78,4.11-10.36,1.64-1.07,5.71-2.82,3-5-17.78-14.21-.86-30.85-3.61-46-.11-.43.79-1,.86-1.5,1.29-11.57-1.61-23.25-1.57-34.71,0-12.53,3.25-26.57.79-37.53-5.89-26.25-2.86-53.06-2.14-78.09,1.07-37.39,0-74.81-.11-112.09-.07-25.89.32-51.7,1.61-77.52.32-7-2.11-12.57-5.43-18.18,6.93-20.07,1.61-41.6,6-61.24,3.93-17.46-3.54-32.42-2.61-49,1.5-26.89,4.46-53.88,3-81.06-.61-11.25-2.32-24.1,5.43-34.64.5,1.71,1.54,2.71,3.21,1.54.21-.14-.93-2.21-1.46-3.39.5-7.28-5.36-9.71-9.93-13.18,9.39-12.21-3.18-28.6,7.46-40.35,5.78-6.36,10.07-11-2.18-14.85-3.75-1.18-5.57-37.74-1.79-40.06,9.46-5.82,3.39-10.11.18-15.68-2.39-4.11-8.21-9-3.43-13.89,3.79-3.93,9.57-9,15.5-6.18,8.78,4.21,13.07-.11,17.57-6.18a8.84,8.84,0,0,1,9.18-3.86c33.74,5.28,67.35.43,101.09-.29,23.85-.46,47.92-1.86,71.88-1.43,3.64,11.07,12.28,8.21,20.43,7.61,25.78-1.89,25.78-1.82,30.21,25-15.6,1.36-31.17,1.86-46.74-.14-3.64,11.5-12.85,5.5-17.21,3-7.61-4.25-16.1-4.28-21.89-2-20.53,8.36-41.21-.61-62.13,2.32-18.71,2.57-33.57,7-47.06,19-3.32-2-6.36-6.68-10.78-3.39-4.07,3.07.64,6.18,1.07,9.36.5,3.43-.29,7-.11,10.5,1.18,28.25-2.46,56.28-4.89,84.27-.79,8.68,7,12.75,5.36,21.21-5.93,31.53.54,63.52-2.07,95.34-1.57,19.32,5.28,40,.64,58.17-5.86,23,0,45.56-2.93,68.31-1.21,9.14.68,20.39-1.75,30.71-2.39,10,9.46,17.28,6,27.07-7.82,21.89,1.07,44-2.11,66.13-4.11,28.42-1.64,57.17.68,85.66,3.18,38.85-2.57,77.56-.64,116.41,1.71,34.24.75,68.63,1.57,102.91a329,329,0,0,1-5.18,65.42c-1.21,6.89,3.43,7.93,8.75,7.64,14.82-.68,29.71-1.14,44.42-1.89,32.14-1.61,64.56,1.36,96.73,4.14,7.36.64,14.14,2.25,21.5.18,10.93-3.11,22-4.46,33,.11,3.46,1.43,7.53,1.32,9.93-1.68,5.78-7.25,12.14-4.89,19.25-2.75,7.46,2.29,18.07,7.32,22.39,4.25,11.21-8,22.75-6.64,33.67-4.68,20.28,3.61,41.35,10,60.74,4.14,17.07-5.14,33.35-.36,50.13-3.29,18.78-3.29,39.64-2.5,58.77-.75,43.39,4,87.09-5.53,130,4.89,5.32,2.5,10.5,5.43,16,7.5,17,6.32,20.42,2.07,22.64-16.18,1.82-15.35-2.14-29.89-1.61-45,1.75-48.21,2-96.55.46-144.76-.64-20.14.82-40.49-.25-60.74-1-19,3.07-40.64,1.93-60.27-1.93-33.46,2.89-67.06-1.71-100.05-2.46-17.68,13.5-37.28-5.28-53,.93-1,2.46-1.89,2.75-3,4.28-18.89,9.64-38.28,5-57.31-5.28-22-5-44.63-3-65.81,3.11-33.92.5-67.84,2.25-101.62,2-38.28-.93-77.59-1.36-116.48,0-3.43.21-8.53-1.79-10-12.75-9.43-9.68-23-8-34.67,1.32-9.07-1.14-7.43-7.57-8-34.17-3.11-68.13,3.36-102.66.11-28.57-2.68-58,1.18-87-1.71,5.25-10.61-1.89-21.39.5-32,22.92.36,45.74,7.82,68.88.93,4.86-1.43,12.14-2.5,15.43,0,12.93,9.82,23.78.75,35.39-2,29.1.86,58.31,3.39,87.27-1.46,10-1.68,19.53,6.14,29.6.61.32-.18,5.21,5.14,5.5,8.14,2.93,30.85,8.86,61.1,6.14,92.95-1.57,18.43-2,38.31-1.86,57.49.11,12.75-.39,27.39.61,39.35,1.5,17.71-1.5,35,.11,52.2,2.5,26.32.89,52.42.89,78.59,0,25.28-5.28,50.35-1.89,75.7a291.73,291.73,0,0,1,1.14,70.81c-1.21,10.68-1.11,21.14,1.75,31.78,1.68,6.07,3,14.21.32,19.14-12.07,22.32,7.21,44.21-1.93,66.24-4.18,5.11-5.78-4.14-10.53-2.75-.14.29-1.29,1.86-.93,2.29,18.89,24.78,10.93,53,12,80.52.79,20-.18,40.49,3.29,60.06a77.68,77.68,0,0,1-.29,30.71C2113.43,1925.29,2123.93,1952.1,2120.25,1979.92Z" style="fill:#e56368;"/><path d="M435.34,869.55a19,19,0,0,1,.46,5.89h0A17.89,17.89,0,0,0,435.34,869.55Z" style="fill:#e6686d;"/><path d="M530.07,1078.15c.68-5.64-2.5-9-7.28-10.5-15.6-4.86-20-16.1-18.53-31.07q-.32-10.71-.57-21.5c-.29-6.39,6.36-11,4.61-17.78,0-3.57,0-7.14,0-10.68,4.71-6.25,4.57-14.39,7.82-20.89,6-12.1-6.07-24.85,2.5-36.31,3.29-2.43,2.79-4.75-.25-7-1.21-6-2.43-12-3.64-18,.25-4.61-2.86-6.36-6.5-7.61a5,5,0,0,0-.71-3.11c-4.68-7.78-9.32-15.57-14-23.35-6.11-1.86-8.18-7.71-12.11-11.82-6.25-6.5-12.46-14.07-23.39-11.18-6.86-10.18-14.21,2-21.25-.5-14.14-7.28-21.53-21-31.17-32.64a2.1,2.1,0,0,1-.79-2v0c-1.25-1.43-2.5-2.93-3.75-4.39-4.14-.07-8.28-.39-12.43-.21-11.32.46-23.82-8.11-33.64,3.25-6.68,7.71-3.5,22.75-18.1,25a10.88,10.88,0,0,0,.43,5c4.64,9.25.82,18.57.57,27.85,10.28,49.42,12.64,99.87,20.1,149.69,2.46,16.5,6.21,33,4.57,50.24-1.07,11.39,13.57,19.28,10,32.35-7.43,8.68,3,14.93,3.21,22.75.57,22.85,2.21,45.63,10.25,67.38,5.75.89,12.46,4.18,17.07,2.29,27.35-11.21,56.78-7.68,84.81-13.32a34.8,34.8,0,0,0-1.36-22.32c-9.21-23-8.11-48-13.35-71.77-.79-3.54,3.86-3.57,6.36-4.71,4.82,2.5,11.11.79,15.25,5.21a8.81,8.81,0,0,1,.36,1,19.42,19.42,0,0,1,.64,2.18c.07.36.18.75.29,1.11.18.75.36,1.5.57,2.25,1.11,3.93,2.75,7.28,7.93,6.71l.86-.11c.61-.11,1.25-.29,1.93-.46.36-.11.71-.25,1.07-.36,3.43-1.82,6.86-3.68,10.25-5.53,8.07,0,18.1,2,21.71-6.89C543.11,1079.87,533.64,1081,530.07,1078.15ZM362.21,899.36c-9.32,3.75-15.78-.18-12.6-12.85,3.71-15,13.32-23.25,27.1-27.1,9-2.5,18.5-3.29,27.78-4.82,3.61,0,7.21,0,10.86,0q1.29.64,2.57,1.18,1,.48,2,.86c1,.43,2,.82,2.93,1.25s1.93.86,2.86,1.32a21,21,0,0,1,6,4,12.73,12.73,0,0,1,2.18,2.79,12.08,12.08,0,0,1,1.46,3.54,17.89,17.89,0,0,1,.5,5.89h0l-7.36,3.39C409.13,894.29,383.78,890.69,362.21,899.36ZM458,1121.57c-1.61,4.86-4.53,8.64-10.39,7.25-15.07-3.57-29.53.68-42.78,6.07-15.32,6.21-19.32,1.61-18.5-12.85.14-2.29-.79-4.64-1.21-7,14.21-12.64,27.14-26.82,49.81-22.21,9.25,1.86,18.85-5.75,29.07-3.79C466.94,1100.83,461.48,1111,458,1121.57Zm26.1-167c-1.61,5.32,1.57,12-4.39,16.07l-3.43,5.25c0,12.93,5,26.85-7.36,37.35-8.64-8.28-3.71-21.32-10.61-30.21-3.46-9.14-9.89-17.57-6.68-28.24,6.86-7.21,1.57-11.21-4-15.14-2.93-5.57.11-13.78-7.61-17.25-.14-2.5-.32-5-.46-7.46l.36-.36c10.25-4.36,8-9.28.68-14.43-.54-3.29-1-6.57-1.57-9.86.39-3.68.75-7.39,1.11-11.07,24.28,2.21,31.92,22.1,41.89,39.49-2.68,5.11-.71,7.32,4.64,7.43a6.21,6.21,0,0,1,3.46,6.68C475.83,936.64,486.26,947.32,484.08,954.53Z" style="fill:#e56368;"/><path d="M446,79.53C450,69,460.6,66.71,469,62.07c15.48-8.59,31.85-15.6,47.24-24.32,13.17-7.47,20.56-2.48,27.11,9,7.89,13.88,10.65,29.6,17.27,44.09C580,133.26,597,176.7,614.88,219.79c3.67,8.88,7.57,17.88,4.1,27.88-11.5,6.07-23.08,12-34.46,18.27-6.81,3.76-13.29,5.75-19.18-1.16-27.62-32.42-49.28-68.92-71.53-105C477.48,133.26,465.51,104.14,446,79.53Z" style="fill:#e6686d;"/><path d="M560.28,1646.44c-26.17-4.93-48.49,1.57-66,22.28-7.07-22.67-3-46.74-9.53-69.74-7.28-25.6-.14-54.45-17.18-78.16a14.52,14.52,0,0,1-2.36-10c3.93-22.57-3.86-45.21.93-67.67,24-7,48.53-12.85,68.13-29.92,6.75,38.24,22.57,74.52,24.53,113.84.18,3.5,4.28,6.78,6.53,10.18-.18,29.28-1.18,58.6,0,87.81C565.74,1633.48,552,1637.27,560.28,1646.44Z" style="fill:#e6686d;"/><path d="M336.82,275.32c3.92-27.25,20.73-48.68,33.34-71.84,5.61-10.3,15.72-3.22,21.69,1.16,25.65,18.85,54.46,32.61,80.39,50.84,19.42,13.65,40.75,23.83,60.88,36.13l11,10.32c2.62,10.2-8,16.37-7.84,25.85-9.24,4.07-7.21,22.79-22.59,18.34-35.1-10.15-68.89-23.89-102.42-38.34C386.39,297.06,363.24,282.42,336.82,275.32Z" style="fill:#e6686d;"/><path d="M643.75,22.45c3.79-9.56,12.7-7.42,19.89-8.1,16.49-1.55,33-2.31,49.59-3.29,7.13-.42,12.62.49,12.61,10.1-.05,58.25,3.6,116.58-4.16,174.64-.38,2.84-2,5.5-3.07,8.25-52.59,1.6-46.83,11.31-54.34-42.46C657.77,115.17,650.61,68.83,643.75,22.45Z" style="fill:#e6686d;"/><path d="M544.09,301.93l-11-10.32c-10-26.71-30.16-47.22-43.77-71.75-17.15-30.92-36.68-60.72-51.24-92.8-6.52-14.36.93-32.28,7.85-47.53,19.53,24.61,31.5,53.73,47.84,80.24,22.24,36.08,43.91,72.58,71.53,105,5.89,6.91,12.37,4.92,19.18,1.16,11.38-6.28,23-12.2,34.46-18.27-.85,38.92-15.48,57.59-52.22,69C551.94,321.33,553.07,304.56,544.09,301.93Z" style="fill:#57b6c9;"/><path d="M336.82,275.32c26.42,7.1,49.56,21.74,74.42,32.45,33.52,14.45,67.32,28.19,102.42,38.34,15.38,4.45,13.35-14.27,22.59-18.34.11,21.38-8.53,40-18.14,58.41-4.67,8.95-10.85,8-19.35,5.69-52.56-14.41-101.27-38.08-150.12-61.44C323.7,318.51,324,318.32,333.32,292.5,335.29,287.06,335.7,281.06,336.82,275.32Z" style="fill:#57b6c9;"/><path d="M643.75,22.45c6.86,46.38,14,92.71,20.51,139.14,7.51,53.77,1.76,44.05,54.34,42.46-2.42,13.27-5,26.51-7.2,39.81-.85,5.07-4.12,6.27-8.44,7.49C668.83,261,659,256,653.12,221q-11.48-68.45-19.54-137.45C631.17,62.78,632.79,41.55,643.75,22.45Z" style="fill:#57b6c9;"/><path d="M494.29,1668.73c17.51-20.7,39.82-27.2,66-22.3,2,19.76,4.2,39.07-10.26,56.39-13.61,16.3-18.07,17-34.93,3.64-8.23-6.54-8.47-18.13-17.43-23.6C497.79,1677.85,492.06,1674.24,494.29,1668.73Z" style="fill:#57b6c9;"/><path d="M697.43,1387.74v0a0,0,0,0,0,0,0,8.53,8.53,0,0,1-.54-1.39l-.11-.43v-.07a1,1,0,0,1,0-.46,2.48,2.48,0,0,0,.11.71A8.43,8.43,0,0,0,697.43,1387.74Z" style="fill:#d76468;"/><path d="M698.83,1389.78h0a10.42,10.42,0,0,1-1.36-2A14.62,14.62,0,0,0,698.83,1389.78Z" style="fill:#d76468;"/><path d="M666.63,331.08c-.93.68-2.51,2.09-2.69,1.93-1.5-1.34-1.13-1.79.85-1.22.46.13,1.09-.31,1.66-.54A1.46,1.46,0,0,1,666.63,331.08Z" style="fill:#163846;"/><path d="M1083,143.29c-1,1.36-2,2.75-3,4.14C1079.44,144.93,1080.33,143.46,1083,143.29Z" style="fill:#204250;"/><path d="M1868.22,1168.49c-1.82,18.82-11.32,36.28-9.64,55.67-21.67,13-21.07,18.5-42.64-2.64-1.11,25.6-18.57,22.92-35.28,21.64-2.25-4-4.78-7.82-6.64-12-1.39-3.07,3.32-9.36-3.43-9.36-6.11,0-5,6.61-6.18,10.82-9,8.82-19,13.75-32.46,12-14.07-1.82-19.68-11.71-24.21-23.82-17.39,24-28.21,24-42.46,1.57q-3.59-26.67-7.11-53.42c-4.43-26.82-4.43-26.89-30.21-25-8.14.61-16.78,3.46-20.43-7.61,16-29.92,39-53.06,71.34-63.35,15.1-4.82,30.6-10.82,47.6-10.43,12.57.25,25.1-3.79,36.35,5.61,1.75,1.46,4.86,1.36,7.61.11a9.85,9.85,0,0,0,1.57-.89l.75-.54a29.12,29.12,0,0,1,2.43-2.07,14.53,14.53,0,0,1,2.29-1.39c.36-.18.71-.36,1.07-.5a9.13,9.13,0,0,1,1.21-.36,7.18,7.18,0,0,1,.86-.14,8.11,8.11,0,0,1,.93-.07,7.5,7.5,0,0,1,3.29.75,12.5,12.5,0,0,1,2.21,1.46c.25.21.5.43.71.64a32.39,32.39,0,0,1,5.14,6.86c6-6,10.89.79,16.32,1.5,5.28-2.25,9.53-.54,13.18,3.43a4,4,0,0,1,1.75,2.32q1.5.43,1.07,1.82c2,.54,4,1,6,1.57,1.5.68,3,1.39,4.46,2.11,19.07,12,24.53,32.78,33.07,51.6C1866.33,1147.1,1873.47,1157.89,1868.22,1168.49Z" style="fill:#f1bb05;"/><path d="M1404.38,354.71c4.57,3.57,7.25,9.71,14,10.28l.46.46c-5,11.57-11.86,13-21.17,4.21-4.68-4.43-10.18-7.93-15.28-11.86-6.21-6.21-14.82-6.89-22.5-8-35.28-5.32-57.24-34.89-88.48-47.38-12.93-5.14-26.32-8.86-39.14-14.71-7-3.21-15.68-2.75-21.57-9.71-1.5-1.79-5.64-2.75-8-2.11-20.71,5.43-40.17.46-59.81-5.61-4.46-1.39-10.11,1.68-15.25,1.86-23.39.75-35.24-15.85-23.17-36.21,8-13.53,12.85-31.14,31.46-37.14,17.28-5.57,35.46-11.61,52.13-5.14,10.82,4.25,19.28-.82,28.89.82,22.42,3.93,43.35,14.78,64.31,19,23.35,4.71,35.49,24.82,58.67,28.89,14.89,2.57,35.53,10.82,40.78,32.67.79,3.32,10.57,3.61,14.28,7.25,14.82,14.43,26.46,31.82,35.46,50,5.25,10.64-7.18,16.78-15.68,21.53C1412,355.35,1407.88,354.46,1404.38,354.71Z" style="fill:#e6686d;"/><path d="M538.82,1356.82c10.68,19.85,4.64,38.24-4.53,56.45-19.6,17.07-44.14,22.92-68.13,29.92,1.71-8.11,4.18-14.18,8-17.85a13.94,13.94,0,0,1,8.43-4.07c17.39-2.36,28.07-14,39.64-25.1,6.93-6.61,5.86-13.57,2.29-21-4-8.21-11.53-8.75-18.32-6-12.46,5.14-25.89,1.36-38.46,5.93-6.57,2.39-13.35.07-13.35-9.21,0-7.43.93-14.14,11-14.93,13.85-1.07,27.71-2.79,41.49-4.61,21.6-2.89,28.35-17.6,17.5-36.67-2.71-4.78-5.75-7.78-11.11-6.36-20.14,5.32-40.17,10.78-61.38,10.14-5.28-.14-13,6-14.32-2.82-1.32-8.39,3.39-17,13.75-16.82,15.53.25,30.1-5.18,45.35-6.43,17-1.39,16.07-14.28,16.21-26.46.18-13.53-9-9.78-17.14-10.46-18.57-1.61-35.82,3.86-53.49,7.53-7.11,1.5-18.07,8.18-20.89-1.14-1.18-4,5.28-19.46,18.21-20.39,13.68-.93,27.42-3.36,41-2.54,22.92,1.36,26.64-1.68,24-24.42-.54-4.75-4.25-10.89,3.93-13.21,7.18,1.68,13.21,5.07,17.43,11.32-3.39,14.53-4.68,28.21,5.71,41.42,4.32,5.5,3.11,14,2,22-.86,6.61-7,14.53-.14,21.32,17.82,17.6,19.85,37.49,9.18,59.42C541.28,1353.53,538.43,1356,538.82,1356.82Z" style="fill:#5bb5b5;"/><path d="M595.45,1363.67c-9.5,1.54-19.67,5.43-28.82-2.36-6.82-5.82-12.6-15-24-9.5,10.68-21.92,8.64-41.81-9.18-59.42-6.82-6.78-.71-14.71.14-21.32,1.11-8,2.32-16.5-2-22-10.39-13.21-9.11-26.89-5.71-41.42,10.53-1.29,16.35,6.68,22.21,12.75,35.24,36.35,47.81,82.45,55,130.73C604,1357.46,600.67,1362.82,595.45,1363.67Z" style="fill:#f1bb05;"/><path d="M724.43,1300v0a2.86,2.86,0,0,1-1-.54A3.48,3.48,0,0,0,724.43,1300Z" style="fill:#d76468;"/><path d="M727.64,1277.51a14.74,14.74,0,0,0-2.25-3.57h0A12.66,12.66,0,0,1,727.64,1277.51Z" style="fill:#d76468;"/><path d="M1140.28,872.44s0,.07-.07.11h0a.58.58,0,0,1-.14-.25Z" style="fill:#d76468;"/><path d="M1969.46,1089.9c-7.46-26.92-26.5-45.28-42.24-66.24-10.21-13.6-25.57-22.42-34.85-37-2.32-9.18-9.61-12.07-17.71-13.93a90.5,90.5,0,0,0-41.56-35.81c-6.61-2.79-13.35-6.28-20.28-8.86-20.18-7.57-34.78-31.35-61.17-21.17-.32.14-1.54-1.11-1.86-1.89-6.14-15.64-21.46-18.25-34.35-24.5-10.78-5.25-23.42.36-32.53-3.29-24.85-9.89-50.06-9.68-75.7-9.53-2.75,0-8.61,2.86-7.68-3.25,3-19.18-4-38.24-2.39-56.45,2.54-29.92-4.89-58.74-5.61-88.16a157.48,157.48,0,0,0-9.14-47.38c-9.78-27.32-14.75-56.45-27.39-83.38-2.46-5.28-12.78-7.14-8.5-11.57,10-10.39.75-15.46-3.82-21.71-7.39-10.25-18.18-20.1-22.28-30.21-6.43-15.89-12.82-32.53-24.53-43.21-25.17-23-36.56-58.6-69.67-74-5.14-2.39-7.14-8.39,1.25-13.32,14.07-8.25,18.82-27.71,36.81-31.92,1.5-.36,3.93-2.64,3.75-3.07-5.71-13.25,10.32-18.32,10.78-29,.29-7.28,13.21-.71,10.21-7.71-8.36-19.64,10.32-32.28,12-50.06,1.32-14,4.68-27.14.14-41-7.71-4.71-15.07-10.36-3.79-18,6.25-4.25-2.86-10.28,3.36-13.21-10-7.32-1.57-18-2.68-26.39-3.07-23.46-7.18-42.14-25.67-61.35-1.54-1.57-3.29-5-2.57-6.28,9.82-18.68-24.85-20-14.89-38.46.07-.14-.75-1.18-1.18-1.18-11.93-.32-21.14,2.64-27.17-16.14-4-12.68-28.49-19-44.06-27.67-12.46-7-29.39-7.43-39.14-13.82-13.14-8.57-17.32-4.21-27,8.07C1319.5.1,1314.61-1,1302.4.49c-17.18,2.14-32.78,10.68-50.74,9.89-6.86-.32-13.71-6.21-13.89-5.89-6.68,12.93-19.32,5.82-28.49,9.18-27.89,10.11-51.53,27.46-73.56,47-19.14,17-33.64,36.6-35.49,63.31-.25,3.54-2.82,2.82-5.07,2.5-8.78-1.39-10.61,0-5,8.43,3,4.53-5.18,5-7.18,8.36-1,1.36-2,2.75-3,4.14a12.83,12.83,0,0,0,.57,10.68c-6.64,13.71-8.46,28.21-7.14,43.24-7,12.1-.93,23.1,3.82,34.1-18.35,4.25-37.1-10.39-53.7,4a11.2,11.2,0,0,0-2-2.29c-10.75-7.25-29-7.07-41.46.61-1.29.79-1.57,2.43-3.57.93-12-9-24.82-4.36-37.74-2.79-11.57,1.39-23.6,4.89-34,5.21-20.07.64-38.78-.57-53.92,15-.93,1-1.32,1.93-2.5.64-.68-.75-.89-2.93-1.07-2.93-12,1.79-27.57-11-35.17,2.18-7.07,12.18-17.71,7.53-26,11.89-2.21,1.18-5.46-.21-9.39,2.64-10.5,7.68-22.21,15-34.57,18.57-28.67,8.21-50.78,27.32-75.59,42-1.68,4.5-1.21,8.78-8.46,11.25-10.64,3.57-22.75,9.57-28.89,18.28-14.82,21.14-38.28,32.21-57,47.38-16.43,13.32-25.07,32.24-42.14,44.46-7.71,5.5-13,19.07-21.46,26.42C491,494.22,485.9,517,473.44,535.32c-8.53,12.57-30.28,23.07-18.75,45.06.14.25-.57,1-1,1.43-18.78,20.67-22.28,47.56-29.24,72.92-5.36,19.39-14.28,37.67-12.21,59.35.46,5-3.21,10.93,2.43,16-19.89,6.5-1.93,21.28-6.61,32.24-5.82,13.71-5,30.24-7,45.56,1.25,1.46,2.5,3,3.75,4.39v0l.39.25c.39.29.89.61.89.61l-.5,1.18c9.64,11.61,17,25.35,31.17,32.64,7,2.54,14.39-9.68,21.25.5,10.93-2.89,17.14,4.68,23.39,11.18,3.93,4.11,6,10,12.11,11.82,4.68,7.78,9.32,15.57,14,23.35a5,5,0,0,1,.71,3.11c3.64,1.25,6.75,3,6.5,7.61,1.21,6,2.43,12,3.64,18,3,2.21,3.54,4.53.25,7-8.57,11.46,3.54,24.21-2.5,36.31-3.25,6.5-3.11,14.64-7.82,20.89,0,3.54,0,7.11,0,10.68,1.75,6.78-4.89,11.39-4.61,17.78q.27,10.77.57,21.5c-1.5,15,2.93,26.21,18.53,31.07,4.78,1.5,8,4.86,7.28,10.5,3.57,2.89,13,1.71,10.39,8.25-3.61,8.89-13.64,6.89-21.71,6.89-3.39,1.86-6.82,3.71-10.25,5.57a6.12,6.12,0,0,1-1.07.32,15,15,0,0,1-1.93.46l-.86.11c-5.18.57-6.82-2.79-7.93-6.71-.21-.75-.39-1.5-.57-2.25-.11-.36-.21-.75-.29-1.11-.21-.75-.39-1.5-.64-2.18a8.81,8.81,0,0,0-.36-1c-4.14-4.43-10.43-2.71-15.25-5.21-2.5,1.14-7.14,1.18-6.36,4.71,5.25,23.78,4.14,48.81,13.35,71.77a34.8,34.8,0,0,1,1.36,22.32c5.28,7.39,19.53,3.46,20.46,16.28,7.18,1.68,13.21,5.07,17.43,11.32,10.53-1.29,16.35,6.68,22.21,12.75,35.24,36.35,47.81,82.45,55,130.73.93,6.32-2.36,11.68-7.57,12.53-9.5,1.54-19.67,5.43-28.82-2.36-6.82-5.82-12.6-15-24-9.5-1.32,1.71-4.18,4.21-3.79,5,10.68,19.85,4.64,38.24-4.53,56.45,6.75,38.24,22.57,74.52,24.53,113.84.18,3.5,4.28,6.78,6.53,10.18,11.25-1.21,27.75,13.14,31.53-10.64.11-.57,3.25-.71,5-1,18.75-2.82,26.53-21,40.35-30.74,12.07-8.53,24.07-22.57,32-36.56,12-21.14,26.67-42.06,24.6-68.56h0a10.42,10.42,0,0,1-1.36-2,0,0,0,0,0,0,0,8.53,8.53,0,0,1-.54-1.39l-.11-.43v-.07a1,1,0,0,1,0-.46,2.48,2.48,0,0,0,.11.71,8.43,8.43,0,0,0,.61,1.64v0a14.62,14.62,0,0,0,1.39,2l5.25.75c3.64-6.28,2.07-12.11-1.54-17.75,2-.71,4.11-1.46,6.11-2.21a.87.87,0,0,0,0-.25l0-.54a2.07,2.07,0,0,0,0-.36l1.07-.36c.89-3.57-1-6-3.39-8.21,4.82-9.93,23.39-13.46,13.93-30,.75-3.07,1.5-6.18,2.21-9.25h0v0c3.21-1.18,3.11-3.39,1.75-6,0-5.18,0-10.36.07-15.53a2.86,2.86,0,0,1-1-.54,3.48,3.48,0,0,0,1,.5c-1-7.18,5.53-14.1,3.61-21.35-.11-.39-.25-.79-.39-1.18a14.74,14.74,0,0,0-2.25-3.57h0a11.38,11.38,0,0,0,.93-.93,10.08,10.08,0,0,0,2-3.14,19.27,19.27,0,0,0,1-5.14c1.68-21.35,4-42.67,6.11-64-4.14-20.85,2.21-42.39-4-63.17-.5-1.75,2.54-4.53,3.82-6.89.07-.11-.64-.86-1.07-1a5.72,5.72,0,0,0-1.75-.07,12.85,12.85,0,0,0-2.25-.54c-.82-2.5-1.68-5-2.5-7.53,4.75-1.32,10.39-1.5,10.78-8.46.29-5.71-2.36-8.36-8-8.18,0-2.68.07-5.32.11-8,10.71-9.78,10.75-21.28,5.53-33.67-.32-14.85,10-31.07-5.61-44,8.78-3.54,7.71-11.28,4-16.18-8.64-11.32-2-23-2.93-34.35,6.43-16.14,3.25-32.57,1.57-49,3.82-10.86-1.29-22.17,2.29-33.49,2.32-7.36,3.75-10.07,12.43-10.61,38.46-2.43,76.91,3.14,114.94.89,24.35-1.39,48.78.61,73.34-2.32,26.35-3.18,53.63,1.61,80.52,2.89,2.43-.29,4.89-.57,7.32-.89.43-.36.82-.71,1.25-1s.89-.64,1.36-.93c7.61,1.64,15.28,3.29,22.25-2.11l7,4.5a2.48,2.48,0,0,0,.68,0,3.16,3.16,0,0,0,.46,0l.64,1c2.68,0,5.36,0,8-.07,5.46,2.07,10.89,1.64,16.28-.39a7.73,7.73,0,0,1,2.86-1.32h0c4.07-.07,8.25.89,11.89-1.86,1.86.61,3.71,1.25,5.53,1.89l.5.07c1.61-2.5,3.79-3.5,6.68-2.5h0c4.36,3.93,9.86.61,14.57,2.29,5.57-.07,11.93,3.71,16.14-3.14h0a.58.58,0,0,1-.14-.25l.25.14s0,.07-.07.11c32.6,7.14,65.63,2.64,98.34,2.43,24.17-.11,34.49,7.5,29.53,32.32-.89,4.46-4.64,8.46.46,12.5-5.82,4.18,3.14,7.61.11,13.35-5.89,11.25-2.79,23.75,1.71,35.39,1.21,13.35,1.11,26.64-1.54,39.81-9,4.07-5.78,11.07-4.25,17.68-3.07,3.79-1.14,7.07,1,10.39l.21,7.68c-4.5,9.07-2.5,19.25-.71,27.71,2.43,11.53,14.07.93,22.53,5.36-15.46,11.11-11.89,28.25-16.46,42.56-4.93,15.32-3.71,29.92-3.57,43.67.14,12.53-3,24.89-1.32,37.35,5.78,9.89.14,20.32,1.32,30.14,2.71,23.14,7.5,46.06,11.46,69.06a28.15,28.15,0,0,0-2,4c-1.29,3.43-1.29,6.78,1.82,10a9.28,9.28,0,0,0,.86.82c-2.39,3.71-2.25,6.53,2.68,7.68.21,2.29.39,4.61.57,6.89-3.68,9.39-4.57,17.64,7.25,22.21,3.93,1.5,5.5,5.64,6.18,9.78a2.33,2.33,0,0,0-2.25,1.75c-3,1.93-5.32,3.86-.18,6,4.53,3.86,7.21,7.68-.36,11.18.71,6.21,9.78,11.21,9.25,12.14-8,14.39,4.78,25,8.71,34.89,15.32,38.6,45.35,66.74,76.91,92.84,6.93-20.07,1.61-41.6,6-61.24,3.93-17.46-3.54-32.42-2.61-49,1.5-26.89,4.46-53.88,3-81.06-.61-11.25-2.32-24.1,5.43-34.64l1.75-1.86c.5-7.28-5.36-9.71-9.93-13.18,9.39-12.21-3.18-28.6,7.46-40.35,5.78-6.36,10.07-11-2.18-14.85-3.75-1.18-5.57-37.74-1.79-40.06,9.46-5.82,3.39-10.11.18-15.68-2.39-4.11-8.21-9-3.43-13.89,3.79-3.93,9.57-9,15.5-6.18,8.78,4.21,13.07-.11,17.57-6.18a8.84,8.84,0,0,1,9.18-3.86c33.74,5.28,67.35.43,101.09-.29,23.85-.46,47.92-1.86,71.88-1.43,16-29.92,39-53.06,71.34-63.35,15.1-4.82,30.6-10.82,47.6-10.43,12.57.25,25.1-3.79,36.35,5.61,1.75,1.46,4.86,1.36,7.61.11a13.68,13.68,0,0,0,1.57-.89c.25-.18.5-.39.75-.57a28.3,28.3,0,0,1,2.43-2,14.53,14.53,0,0,1,2.29-1.39,7.18,7.18,0,0,1,1.07-.5,9.13,9.13,0,0,1,1.21-.36,7.18,7.18,0,0,1,.86-.14,8.11,8.11,0,0,1,.93-.07,7.5,7.5,0,0,1,3.29.75,9.51,9.51,0,0,1,2.21,1.46c.25.21.5.43.71.64a32.39,32.39,0,0,1,5.14,6.86c6-6,10.89.79,16.32,1.5,5.28-2.25,9.53-.54,13.18,3.43a4,4,0,0,1,1.75,2.32q1.5.43,1.07,1.82c2,.54,4,1,6,1.57,1.5.68,3,1.39,4.46,2.11,19.07,12,24.53,32.78,33.07,51.6,22.92.36,45.74,7.82,68.88.93,4.86-1.43,12.14-2.5,15.43,0,12.93,9.82,23.78.75,35.39-2C1978.6,1121.72,1973.78,1105.43,1969.46,1089.9ZM1418.88,365.46c-5,11.57-11.86,13-21.17,4.21-4.68-4.43-10.18-7.93-15.28-11.86-6.21-6.21-14.82-6.89-22.5-8-35.28-5.32-57.24-34.89-88.48-47.38-12.93-5.14-26.32-8.86-39.14-14.71-7-3.21-15.68-2.75-21.57-9.71-1.5-1.79-5.64-2.75-8-2.11-20.71,5.43-40.17.46-59.81-5.61-4.46-1.39-10.11,1.68-15.25,1.86-23.39.75-35.24-15.85-23.17-36.21,8-13.53,12.85-31.14,31.46-37.14,17.28-5.57,35.46-11.61,52.13-5.14,10.82,4.25,19.28-.82,28.89.82,22.42,3.93,43.35,14.78,64.31,19,23.35,4.71,35.49,24.82,58.67,28.89,14.89,2.57,35.53,10.82,40.78,32.67.79,3.32,10.57,3.61,14.28,7.25,14.82,14.43,26.46,31.82,35.46,50,5.25,10.64-7.18,16.78-15.68,21.53-2.79,1.54-6.89.64-10.39.89,4.57,3.57,7.25,9.71,14,10.28l1.07-1.39C1419.27,364.25,1419.09,364.85,1418.88,365.46Z" style="fill:#163847;"/><path d="M1024,876.26c-2.14,3-4.61,3-7.32.89C1019.09,876.87,1021.55,876.58,1024,876.26Z" style="fill:#d76468;"/><path d="M406.13,813.13l-.5,1.18a2.1,2.1,0,0,1-.79-2l.39.25C405.63,812.81,406.13,813.13,406.13,813.13Z" style="fill:#d76468;"/><path d="M1419.48,363.6c-.21.64-.39,1.25-.61,1.86l-.46-.46Z" style="fill:#204250;"/><path d="M1057.66,877.58l-1.29.36-.5-1.21v0a2.48,2.48,0,0,0,.68,0,3.16,3.16,0,0,0,.46,0Z" style="fill:#d76468;"/><path d="M1102.79,875.9c-.39,1.54-.64,2-.5-.07Z" style="fill:#d76468;"/><path d="M709.9,1370.35l-1.21.21h0a.87.87,0,0,0,0-.25l0-.54a2.07,2.07,0,0,0,0-.36l1.07-.36Z" style="fill:#d76468;"/><path d="M732.43,1129.61a12.85,12.85,0,0,0-2.25-.54l1.25-.39Z" style="fill:#204250;"/><path d="M969.35,979.74c-2.61-3.14-1.75-5.21-.71-7.71,3.29-8-1.21-13.21-5.53-19.18-9.78-13.5-22.28-23.75-35.24-34.1-16.75-13.43-36.24-15.43-55.78-18.71-20-3.32-39.49-5-51.92,16.35-1.82,3.11-5.39,2.86-9.43,2.36-14.57-1.86-18.5,8.07-19.93,19.68-.64,3.07,4.82,5.14-.57,9-23.53,16.89-25.82,42.31-16.71,65.49,5,12.89,4.32,27.39,14.89,40.53,10.28,12.71,18.82,28,33.28,34.42,36.89,16.43,73.67,11.53,105.34-12.89,18.39-14.21,35.67-31.89,33.46-59.1-.39-4.68,1.79-7.89,5.32-10.57C975.53,997.88,977.1,988.92,969.35,979.74ZM900,1041.45c-35.71,23.53-57.42,16.35-73.45-3.21-8.82-10.75-20.71-28.67-8.11-45.92,4.82-6.61.36-13.28,5.21-20.71,16.5-25.32,40.92-13.14,61.85-15.57,4.68-.54,10.43,8.43,15.68,13,6.39,2.68,17.32,3.32,6.07,13.75C918.79,1007.09,915.72,1031.13,900,1041.45Z" style="fill:#faf7f0;"/><path d="M1243.73,960.53c-20.75-32.49-48-57.38-93.66-59.56-10.14-1-21,5.89-33.28,11.89-23.17,11.36-42.67,25.1-55.7,47.67-10,17.28-11.86,37.46-10.07,55.1,1.14,11.53,4.21,26.5,14.39,38.85,10.28,12.53,18.64,27.35,33.49,33.6,36.35,15.32,71.13,10.68,104.34-11.71,9.93-6.68,12.14-16.28,18-24.6,7.36-10.5,22.64-16.1,15.71-33.74-2.14-5.43,1.75-10.39,7.43-14.5,4.86-3.46,7.07-10.61,10.46-16.14C1242.3,981.74,1248.44,967.89,1243.73,960.53Zm-41.56,46.13c-7.5,16.78-14.93,32.1-30.28,44-7.36,5.64-13.28,1.54-19.64,3.32-22.07,6.18-51-11.61-55.92-31.53-14.32-4.86-16.1-26.67-3.21-39.42l.71-.46c1.86-4.71-1.46-11.68,6.11-13.85,9.75-3.68,16.71-11.64,27.17-15.07,33.71-11,50.17-9.28,68.2,18.18C1199.88,978.74,1208.56,992.42,1202.17,1006.67Z" style="fill:#faf7f0;"/><path d="M1048.69,1238.89c-7.39,2.45-17.4,8.1-29.35,8.57-36.86,1.45-67.6-12.8-96.65-33.7-11-7.89-18.8-18.87-30.44-26.16-10.36-6.49-8.33-22.33,2.1-29.67,21.48-15.1,42.42-10.39,59.2,10.82,5.68,7.18,12.45,17,26.48,11.76,10.24-3.82,19.79,5.6,29.65,8.51,17.08,5,29.39-8.92,44.79-6.81,1.4-14,23.93-17.73,17.22-35.93-1.4-3.8,3.71-3.54,5.93-4.67,6.6-3.37,13.1.76,15.58,4.93,3.44,5.77,7.3,10,13.06,12.54,14.91,6.48,16.18,17.49,11.85,31.4C1112.7,1207.89,1071.2,1238.89,1048.69,1238.89Z" style="fill:#e56368;"/><path d="M1170,1645.3a21.1,21.1,0,0,0,2,2.5A16.13,16.13,0,0,1,1170,1645.3Z" style="fill:#d76468;"/><path d="M1173.31,1649v0a14.24,14.24,0,0,1-1.29-1.25C1172.46,1648.23,1172.85,1648.62,1173.31,1649Z" style="fill:#d76468;"/><path d="M1140.28,872.44s0,.07-.07.11h0a.58.58,0,0,1-.14-.25Z" style="fill:#163846;"/><path d="M2016.2,1964.74c1.64-16.21-9.28-35.42,8.46-49.17.57-.43-1.71-5.28-3.36-7.57-4.46-6.18-6.25-13.39-4.86-20.28,5.93-29.74-1.11-59.56.21-89.48,1.29-29.42,8.57-60-.61-89.63a4.93,4.93,0,0,1,0-3.43c11.36-21.07-1.46-42.85,1.82-63.67,3.89-24.6-8.32-50.42,6.39-74,1-1.64,1.25-5.64.14-6.61-19.35-16.6-3.75-35.56-3.86-53.38,0-2.86,1.86-6.07,1.07-8.53-9.39-30.39-4.36-62.17-4.39-92.59-.07-23.6-4.68-48.42,2.11-72.63,2.43-8.75-4.75-18.89-2.68-29.82,1.46-7.82-5.32-17.28,6.28-22.5.71-.32,1.07-3.86.29-4.68-12.07-13.07-6.64-29.17-7.57-44-.61-9.86-5.25-11-13.68-11.18-28.17-.61-56.17,3.93-84.13,3.18-19.78-.54-39.42-4-59.24-.64-21.67,13-21.07,18.5-42.64-2.64-1.11,25.6-18.57,22.92-35.28,21.64-9,2-9.53-9-16.25-10.5-9,8.82-19,13.75-32.46,12-14.07-1.82-19.68-11.71-24.21-23.82-17.39,24-28.21,24-42.46,1.57-43.56-.75-87.16-.61-130.69-1.07-21.17-.25-43.81-10-65.1,2-5.07,2.86-6.21-2-7.82-6.25-3.5-9.07-.29-17.32,1.46-25.85-3.32-2-6.36-6.68-10.78-3.39-4.07,3.07.64,6.18,1.07,9.36.5,3.43-.29,7-.11,10.5,1.18,28.25-2.46,56.28-4.89,84.27-.79,8.68,7,12.75,5.36,21.21-5.93,31.53.54,63.52-2.07,95.34-1.57,19.32,5.28,40,.64,58.17-5.86,23,0,45.56-2.93,68.31-1.21,9.14.68,20.39-1.75,30.71-2.39,10,9.46,17.28,6,27.07-7.82,21.89,1.07,44-2.11,66.13-4.11,28.42-1.64,57.17.68,85.66,3.18,38.85-2.57,77.56-.64,116.41,1.71,34.24.75,68.63,1.57,102.91a329,329,0,0,1-5.18,65.42c-1.21,6.89,3.43,7.93,8.75,7.64,14.82-.68,29.71-1.14,44.42-1.89,32.14-1.61,64.56,1.36,96.73,4.14,7.36.64,14.14,2.25,21.5.18,10.93-3.11,22-4.46,33,.11,3.46,1.43,7.53,1.32,9.93-1.68,5.78-7.25,12.14-4.89,19.25-2.75,7.46,2.29,18.07,7.32,22.39,4.25,11.21-8,22.75-6.64,33.67-4.68,20.28,3.61,41.35,10,60.74,4.14,17.07-5.14,33.35-.36,50.13-3.29,18.78-3.29,39.64-2.5,58.77-.75,43.39,4,87.09-5.53,130,4.89C2010.27,2020.38,2013.48,1991.6,2016.2,1964.74Zm-469.06-649.6c7.5-7.82,17-6.75,26.6-6.43,29.92,1,59.88,2.64,89.81,1.93,16.43-.36,33,5.18,49.35-.71,1.18-.43,3,1,4.46,1.5-.75,2.07-1.39,5.86-2.32,5.93-14,1.11-24.32,15.32-40.14,10-41.31,2.79-83.06,1-124.8,0-2.39-.07-4.86.93-5.5-2.25A10.54,10.54,0,0,1,1547.14,1315.15Zm43.1,371c21.53-4.21,43.28-2.18,65-2.39,33.71-.32,67.42-.75,101.12-.86,6.39,0,13.07-.89,19.18,2.32,1.46-.25,2.89-.57,4.36-.86,2.71-.57,5.46-1.21,8.18-1.61.39-.07.79-.14,1.18-.18a33.21,33.21,0,0,1,3.75-.32c10.39-.39,16.1,3.29,15.5,15.71-1,21.82-1.29,43.81.32,65.56.82,11.21-11.46,14-11.36,22,.21,17.53-11.86,6.93-17,7.5-55.56,6.18-111.34-.79-167.11,2-22,1.07-45,.86-67.17-2-12.32-1.61-22.17-6.11-20.53-24,2.11-23.32-.32-47.1-1.5-70.63-.46-9.32.46-12.46,11.89-13.32C1554.28,1683.62,1572.21,1680.76,1590.24,1686.15Zm-25-32.78a169.18,169.18,0,0,1,59.81-.25c13.14,2.29,25.1,1.36,37.92,0,16.89-1.75,34.07-.43,51.92-.43-4.82,14.32-12.57,19-26.14,18.75-40.67-.86-81.41,0-122.12-.39-5.14,0-13.43,3.36-15.1-4.86C1549.57,1656.37,1558.74,1654.58,1565.28,1653.37Zm135.37,166.15c-1.68,9.07-8.18,10.57-18.39,9.14-3.64-.75-12.28.39-10-9.86,3-13.35,14.78-2,21.67-6.61C1697.25,1810,1701.65,1814.2,1700.65,1819.52Zm-35.49,3c0,8.07-7.43,5.78-12.25,6.28-12.89,1.36-25.78,2.43-38.71,3.61-18.32-.29-36.35-6-54.78-3-3.82.61-7.25-1.11-7.71-5.43-.57-5,2.61-7.89,7.21-8.43,23.17-2.75,46.49-4.93,69.81-3.54,7.68.43,15,.86,22.71,0C1658.44,1811.34,1665.12,1814.38,1665.15,1822.55Zm293.13,64.13c0,14.21-1,28.39-.18,42.71,1,17.32-15.46,28.39-32.46,26.89-13-1.14-26.67.71-39.6,1.64-42.49,3.11-85.41,2.71-127.26.79-70.59-3.25-140.94,3.61-211.32-1.18-16-1.11-21.64-9.78-21.21-27,.57-22.39-.5-44.92-2.14-67.27-.79-10.82,1.54-12.32,12.78-14.18,25.64-4.21,51,1,69.92-1,26.57,0,47-2,67,.43,38.71,4.86,77.16-4.75,115.59-.61,44.71,4.78,89.45-5.53,134.19,1.57,10.86,1.71,25.57-9.82,32.57,2.43C1961.28,1861,1958.24,1874.94,1958.28,1886.69ZM1957.06,1772c-.75,6-5.11,7-10,7.21-.61,1.14-1.21,2.25-1.82,3.39,10.36,21.07-8.57,6.61-12.53,10.32-24.39,4.11-49,6.39-73.13.14-12.28-3.14-22.1-7.32-18.46-26.71,3.89-20.75-.36-43.24-2.36-64.88-1-11.53.11-15.71,13.89-16.57,24.53-1.57,48.81-7.18,72.92,2.14,6.18-3.89,12.93-5,20.14-4.68,8.28.39,13.14,3.43,12.71,12.75-.93,21-1.46,42-2.18,63v0A16.12,16.12,0,0,1,1957.06,1772Zm1.25-208.07c0,14.82-1.36,29.57-.18,44.49,1,12.57-20.07,26.67-32.67,26.35-13.14-.32-26.67.75-39.6,1.71-42.49,3.18-85.45,2.79-127.3.79-69.42-3.29-138.62,3.71-207.82-1.21-19.53-1.39-25-8-24.42-27.17.68-21.82-.39-43.74-2-65.52-.82-10.75-.25-14,12.89-15.82,25.64-3.61,50.92,1,69.17-.75,26.75,0,46.56-1.86,66,.39,39.28,4.57,78.34-4.61,117.37-.64,44.74,4.53,89.48-5.61,134.23,1.64,10.71,1.75,25.17-9.71,32.39,2.71C1961.24,1539.5,1958.35,1552.78,1958.31,1564Zm-289.88-59.63c-7.36.57-14.71,1.29-22.1,1.93-2.82.29-5.61.5-8.43.71q-2.36.21-4.71.32c-1.57.14-3.14.21-4.68.29-2.21.14-4.46.25-6.71.29-4.28.14-8.53.18-12.82,0q-4.61-.11-9.21-.54c-2-.18-4.07-.39-6.11-.68-1-.14-2.07-.29-3.07-.46-9.89-1.57-18.46,2.79-27.71.68-4.64-1-11.71,2.82-11.89-6-.18-7.25,4.18-9.86,11.28-10.64,22.25-2.5,44.42-.36,66.63-.14,24.6.25,49.21-.21,73.81.36,4.53.11,13.6-5,13.39,5.07-.18,8-6.61,12.32-15,11.71-10.86-.79-21.71-1.82-32.57-2.75l.14-.11Zm289.41-111.09c1.86,15.82-2.79,32.14.86,47.92,2.61,11.32-12.93,11.39-11.82,23.67.54,6.32-14.78.64-22,2-13.57,2.64-26.89.39-39.85,1.57-29,2.64-57.78-.32-86.63.29-61.52,1.36-123-2.57-184.68,1.18-22.6,1.39-46.06,0-69.06-1.64-13.89-1-19-10.89-18.5-26.14.61-21.82-.29-43.74-1.86-65.49-.82-11.25-.18-15.14,13.6-17,25.07-3.39,49.78,1.21,67.63-.61,26.5,0,46.35-1.89,65.7.36,39.89,4.64,79.56-4.64,119.12-.64,44.74,4.57,89.45-5.57,134.19,1.61,10.21,1.64,23.21-8.39,31.67,1.64C1963.13,1370.24,1956.6,1382.56,1957.85,1393.24Z" style="fill:#fbfcfd;"/><path d="M2069.54,1567.06c.93-1,2.46-1.89,2.75-3,4.28-18.89,9.64-38.28,5-57.31-5.28-22-5-44.63-3-65.81,3.11-33.92.5-67.84,2.25-101.62,2-38.28-.93-77.59-1.36-116.48,0-3.43.21-8.53-1.79-10-12.75-9.43-9.68-23-8-34.67,1.32-9.07-1.14-7.43-7.57-8-34.17-3.11-68.13,3.36-102.66.11-28.57-2.68-58,1.18-87-1.71-1.82,18.82-11.32,36.28-9.64,55.67,19.82-3.39,39.46.11,59.24.64,28,.75,56-3.79,84.13-3.18,8.43.18,13.07,1.32,13.68,11.18.93,14.85-4.5,31,7.57,44,.79.82.43,4.36-.29,4.68-11.61,5.21-4.82,14.68-6.28,22.5-2.07,10.93,5.11,21.07,2.68,29.82-6.78,24.21-2.18,49-2.11,72.63,0,30.42-5,62.2,4.39,92.59.79,2.46-1.07,5.68-1.07,8.53.11,17.82-15.5,36.78,3.86,53.38,1.11,1,.89,5-.14,6.61-14.71,23.53-2.5,49.35-6.39,74-3.29,20.82,9.53,42.6-1.82,63.67a4.93,4.93,0,0,0,0,3.43c9.18,29.67,1.89,60.2.61,89.63-1.32,29.92,5.71,59.74-.21,89.48-1.39,6.89.39,14.1,4.86,20.28,1.64,2.29,3.93,7.14,3.36,7.57-17.75,13.75-6.82,33-8.46,49.17-2.71,26.85-5.93,55.63,21.14,74.88,5.32,2.5,10.5,5.43,16,7.5,17,6.32,20.42,2.07,22.64-16.18,1.82-15.35-2.14-29.89-1.61-45,1.75-48.21,2-96.55.46-144.76-.64-20.14.82-40.49-.25-60.74-1-19,3.07-40.64,1.93-60.27-1.93-33.46,2.89-67.06-1.71-100.05C2072.37,1602.42,2088.33,1582.81,2069.54,1567.06ZM2034,1681.47l.14-.93,1,.61Z" style="fill:#57b6c9;"/><path d="M1611.52,1168.71c0,.07,0,.11-.07.18h-.11Z" style="fill:#57b6c9;"/><path d="M1665.3,1222.45c-43.56-.75-87.16-.61-130.69-1.07-21.17-.25-43.81-10-65.1,2-5.07,2.86-6.21-2-7.82-6.25-3.5-9.07-.29-17.32,1.46-25.85,13.5-12,28.35-16.39,47.06-19,20.92-2.93,41.6,6,62.13-2.32,5.78-2.32,14.28-2.29,21.89,2,4.36,2.46,13.57,8.46,17.21-3,15.57,2,31.14,1.5,46.74.14Q1661.73,1195.76,1665.3,1222.45Z" style="fill:#57b6c9;"/><path d="M1403.49,1295.76c-1.68,1.18-2.71.18-3.21-1.54l1.75-1.86C1402.56,1293.54,1403.7,1295.61,1403.49,1295.76Z" style="fill:#163846;"/><path d="M1611.52,1168.7l-1.32-.84,1.13,1Z" style="fill:#57b6c9;"/><path d="M484.08,954.53c-1.61,5.32,1.57,12-4.39,16.07-5-.75-4,2.39-3.43,5.25,0,12.93,5,26.85-7.36,37.35-8.64-8.28-3.71-21.32-10.61-30.21-3.46-9.14-9.89-17.57-6.68-28.24,6.86-7.21,1.57-11.21-4-15.14-2.93-5.57.11-13.78-7.61-17.25-.14-2.5-.32-5-.46-7.46l.36-.36c10.25-4.36,8-9.28.68-14.43-.54-3.29-1-6.57-1.57-9.86.39-3.68.75-7.39,1.11-11.07,24.28,2.21,31.92,22.1,41.89,39.49-2.68,5.11-.71,7.32,4.64,7.43a6.21,6.21,0,0,1,3.46,6.68C475.83,936.64,486.26,947.32,484.08,954.53Z" style="fill:#204250;"/><path d="M458,1121.57c-1.61,4.86-4.53,8.64-10.39,7.25-15.07-3.57-29.53.68-42.78,6.07-15.32,6.21-19.32,1.61-18.5-12.85.14-2.29-.79-4.64-1.21-7,14.21-12.64,27.14-26.82,49.81-22.21,9.25,1.86,18.85-5.75,29.07-3.79C466.94,1100.83,461.48,1111,458,1121.57Z" style="fill:#5bb5b5;"/><path d="M435.84,875.44h0l-7.36,3.39c-19.32,15.46-44.67,11.86-66.24,20.53-9.32,3.75-15.78-.18-12.6-12.85,3.71-15,13.32-23.25,27.1-27.1,9-2.5,18.5-3.29,27.78-4.82,3.61,0,7.21,0,10.86,0q1.29.64,2.57,1.18,1,.48,2,.86c1,.43,2,.82,2.93,1.25s1.93.86,2.86,1.32a21,21,0,0,1,6,4,12.73,12.73,0,0,1,2.18,2.79,12.08,12.08,0,0,1,1.46,3.54A17.89,17.89,0,0,1,435.84,875.44Z" style="fill:#5bb5b5;"/><path d="M479.69,970.6l-3.43,5.25C475.69,973,474.69,969.85,479.69,970.6Z" style="fill:#d76468;"/><path d="M1780.67,1243.16c-9,2-9.53-9-16.25-10.5,1.14-4.21.07-10.78,6.18-10.82,6.75,0,2,6.28,3.43,9.36C1775.88,1235.34,1778.42,1239.2,1780.67,1243.16Z" style="fill:#faf7f0;"/><path d="M900,1041.45c-35.71,23.53-57.42,16.35-73.45-3.21-8.82-10.75-20.71-28.67-8.11-45.92,4.82-6.61.36-13.28,5.21-20.71,16.5-25.32,40.92-13.14,61.85-15.57,4.68-.54,10.43,8.43,15.68,13,6.39,2.68,17.32,3.32,6.07,13.75C918.79,1007.09,915.72,1031.13,900,1041.45Z" style="fill:#163847;"/><path d="M1202.17,1006.67c-7.5,16.78-14.93,32.1-30.28,44-7.36,5.64-13.28,1.54-19.64,3.32-22.07,6.18-51-11.61-55.92-31.53-14.32-4.86-16.1-26.67-3.21-39.42l.71-.46c1.86-4.71-1.46-11.68,6.11-13.85,9.75-3.68,16.71-11.64,27.17-15.07,33.71-11,50.17-9.28,68.2,18.18C1199.88,978.74,1208.56,992.42,1202.17,1006.67Z" style="fill:#163847;"/><path d="M1606.79,1848.13c26.59,0,47.06-2.05,67,.44,38.73,4.84,77.16-4.75,115.6-.63,44.71,4.79,89.45-5.53,134.18,1.58,10.86,1.73,25.58-9.81,32.59,2.43,5.18,9,2.13,23,2.17,34.75,0,14.22-1,28.38-.17,42.69,1,17.33-15.47,28.39-32.49,26.9-13-1.14-26.67.72-39.58,1.66-42.5,3.09-85.42,2.7-127.27.77-70.57-3.25-140.95,3.59-211.31-1.19-16-1.08-21.63-9.78-21.2-27,.56-22.4-.5-44.9-2.14-67.27-.8-10.82,1.51-12.34,12.78-14.19C1562.52,1844.9,1587.84,1850.08,1606.79,1848.13Zm293.51,92.6c40.21-.38,40.26-.38,40.53-40.5.05-7.72-1.09-15.49-.53-23.15.67-9.21-2.19-11.75-11.85-12-41.17-1.24-82.2,2.35-123.62-2.18-35.43-3.88-71.84,2.36-107.79,1.92-42.56-.52-85.15,2.18-127.75-1.78-10.67-1-24.72-.43-24.29,18.86.33,14.68.82,29.58,0,44.1s5.4,17.36,16.16,15.72c28.16-4.28,56.5-1.5,84.32.17,43.59,2.61,87.08-.3,130.61.86C1817.28,1943.82,1858.88,1941.52,1900.3,1940.72Z" style="fill:#68c6d5;"/><path d="M1605.54,1359c26.5,0,46.33-1.86,65.69.39,39.88,4.63,79.54-4.67,119.14-.65,44.71,4.54,89.42-5.57,134.17,1.6,10.23,1.64,23.23-8.4,31.67,1.66,6.93,8.26.4,20.6,1.64,31.26,1.85,15.81-2.79,32.15.84,47.91,2.61,11.32-12.91,11.41-11.81,23.68.56,6.33-14.75.64-22,2.06-13.57,2.63-26.87.38-39.85,1.57-29,2.65-57.75-.33-86.6.29-61.53,1.33-123-2.6-184.69,1.17-22.6,1.38-46.07,0-69.06-1.65-13.9-1-19-10.89-18.52-26.15a645.27,645.27,0,0,0-1.84-65.49c-.82-11.25-.17-15.13,13.62-17C1563,1356.2,1587.66,1360.8,1605.54,1359Zm293.64,92.17c8.88,0,17.81-.52,26.64.13,10.68.78,15.12-3.23,14.71-14.15-.62-16.6-.94-33.26-.19-49.84.45-10-3.17-12.84-12.29-11-3.31.67-6.81,1.75-10,1.28-37.9-5.62-76,.34-114.31-3.39-37.69-3.68-76.5,2.91-114.84,1.58-40.16-1.39-80.35,2.17-120.55-2.08-9.81-1-23.15-.33-23.25,18.14-.08,15.29.87,30.7-.1,45.83-.86,13.51,5.67,16.8,15.3,15,27-5.08,54.32-2.12,80.67-.19,45.41,3.33,90.62-.45,135.91,1C1817.35,1454.69,1858.39,1452.81,1899.17,1451.15Z" style="fill:#68c6d5;"/><path d="M1606.38,1526.83c26.74,0,46.58-1.85,65.94.39,39.3,4.55,78.37-4.61,117.39-.66,44.72,4.53,89.46-5.61,134.2,1.65,10.73,1.74,25.2-9.72,32.4,2.72,4.95,8.55,2,21.85,2,33,0,14.82-1.37,29.57-.18,44.49,1,12.56-20.1,26.65-32.67,26.34-13.14-.33-26.69.77-39.62,1.74-42.51,3.16-85.45,2.78-127.3.78-69.41-3.31-138.61,3.7-207.81-1.23-19.52-1.39-25-8-24.44-27.17.68-21.81-.4-43.74-2-65.52-.79-10.76-.25-14,12.89-15.81C1562.85,1524,1588.15,1528.62,1606.38,1526.83ZM1900,1619c8.3,0,16.65-.59,24.88.14,11.51,1,16.18-3.24,15.64-15-.73-16-1-32.1-.15-48.09.57-10.91-4-11.84-13.44-12.26-40.57-1.81-81,2-121.86-2.06-35.32-3.49-71.78,2.93-107.78,1.89-42.56-1.22-85.15,2-127.75-1.93-10.84-1-24.77-.81-24.5,18.59.2,14.7.8,29.58,0,44.11-.82,15.68,5.59,16.92,17.57,15.84,43.32-3.93,86.59,3.1,129.92.89,12.8-.65,26.39-4.37,38.19-1.27,15.88,4.18,31.81,2.52,46.76,1.78C1818.39,1619.53,1859.22,1621,1900,1619Z" style="fill:#68c6d5;"/><path d="M1775.49,1685.24c5.82-1,11.61-2.78,17.45-3,10.41-.38,16.13,3.28,15.52,15.74a539.5,539.5,0,0,0,.31,65.54c.83,11.22-11.47,14-11.36,22,.24,17.55-11.86,6.93-17,7.51-55.56,6.17-111.35-.79-167.13,2-22,1.08-44.95.86-67.17-2-12.29-1.6-22.15-6.11-20.53-24,2.11-23.32-.32-47.1-1.5-70.64-.47-9.33.47-12.48,11.91-13.31,18.31-1.33,36.24-4.2,54.27,1.2q0,6.86-.08,13.74a36.56,36.56,0,0,1-17.54-.21c-16.45-3.9-24.6,1.83-27.11,17.77-2.42,15.34.12,30.8-.87,46-.84,12.81,5.71,15.8,14.15,14.29,28.82-5.14,57.58.33,86.4-1,43.64-2,87.45-.78,131.19-.48,9.53.07,14.43-2.51,14.12-12.92-.47-16-1-32.15.09-48.12.82-12.07-3.74-16.11-14.95-14.65Z" style="fill:#68c6d5;"/><path d="M1947.06,1779.24l-1.82,3.38c-7,0-11.8,2.69-12.54,10.32-24.37,4.12-49,6.4-73.11.17-12.3-3.17-22.12-7.35-18.48-26.72,3.91-20.77-.36-43.26-2.35-64.89-1.06-11.53.09-15.7,13.87-16.58,24.54-1.57,48.82-7.17,72.94,2.15q0,6.73,0,13.45c-22.24,5.66-44.62,1.52-67.49.74,0,20.17.79,40.12-.29,60-.67,12.45,4.22,15.1,15.35,14.59,15.26-.7,31.57-3.22,45.64,1,17.2,5.16,21.48-.78,22.77-15.28l14.63-3.41a16.14,16.14,0,0,1,.84,13.86C1952.09,1772.14,1947.22,1772.42,1947.06,1779.24Z" style="fill:#57b6c9;"/><path d="M1590.16,1699.89q0-6.87.08-13.74c21.53-4.2,43.29-2.18,65-2.4,33.7-.33,67.4-.74,101.1-.86,6.41,0,13.09-.88,19.18,2.34q.08,7.65.16,15.29c-47.67.4-95.36,2.57-143-1-7.18-3-14.52-12.46-21.32.52Z" style="fill:#57b6c9;"/><path d="M1714.93,1652.73c-4.84,14.3-12.57,19-26.12,18.73-40.69-.86-81.42,0-122.13-.38-5.14,0-13.45,3.35-15.11-4.87-2-9.86,7.17-11.64,13.69-12.84a169.63,169.63,0,0,1,59.84-.26c13.13,2.31,25.09,1.37,37.92,0C1679.89,1651.42,1697.07,1652.73,1714.93,1652.73Z" style="fill:#68c6d5;"/><path d="M1674.91,1327.32c-41.31,2.77-83.06,1-124.81,0-2.41-.06-4.86.93-5.5-2.27-.73-3.61-.17-7.08,2.55-9.91,7.5-7.82,17-6.75,26.58-6.45,29.93,1,59.9,2.65,89.81,2,16.43-.38,33,5.16,49.36-.74,1.15-.42,3,1,4.46,1.52-.77,2.07-1.41,5.87-2.33,5.94C1701.09,1318.45,1690.73,1332.68,1674.91,1327.32Z" style="fill:#68c6d5;"/><path d="M1668.64,1504.31c-26,2-52.26,6-78,1.88-9.89-1.58-18.46,2.79-27.72.68-4.64-1.06-11.7,2.81-11.9-6-.16-7.26,4.17-9.86,11.29-10.65,22.24-2.49,44.41-.35,66.62-.12,24.6.25,49.22-.22,73.81.36,4.55.11,13.64-5.07,13.4,5.07-.19,8-6.6,12.31-15,11.7-10.87-.78-21.72-1.81-32.58-2.74l-1.31-2.14c0,.43-.24,1.05,0,1.26A4.81,4.81,0,0,0,1668.64,1504.31Z" style="fill:#68c6d5;"/><path d="M1614.21,1832.44c-18.34-.28-36.35-5.95-54.79-3-3.83.62-7.25-1.12-7.72-5.43-.54-5,2.63-7.87,7.22-8.42,23.19-2.75,46.5-4.93,69.82-3.55,7.67.45,15,.87,22.72,0,7-.76,13.67,2.27,13.68,10.42s-7.42,5.79-12.23,6.3C1640,1830.21,1627.11,1831.27,1614.21,1832.44Z" style="fill:#68c6d5;"/><path d="M1925.62,1700.54q0-6.73,0-13.45c6.17-3.9,12.92-5,20.12-4.68,8.29.39,13.15,3.4,12.73,12.75-1,21-1.49,42-2.19,63l-14.64,3.41c-.45-15.66-2-31.38-1-46.95C1941.34,1702.22,1936.08,1699.42,1925.62,1700.54Z" style="fill:#68c6d5;"/><path d="M1682.27,1828.67c-3.65-.77-12.32.38-10-9.85,3-13.38,14.76-2,21.67-6.62,3.32-2.22,7.71,2,6.72,7.33C1699,1828.6,1692.48,1830.1,1682.27,1828.67Z" style="fill:#68c6d5;"/><path d="M1932.71,1792.94c.73-7.63,5.56-10.29,12.54-10.32C1955.6,1803.71,1936.68,1789.25,1932.71,1792.94Z" style="fill:#68c6d5;"/><path d="M1947.06,1779.24c.16-6.82,5-7.1,10-7.23C1956.32,1778,1952,1779,1947.06,1779.24Z" style="fill:#68c6d5;"/><polygon points="2035.17 1681.17 2033.99 1681.46 2034.13 1680.54 2035.17 1681.17" style="fill:#fbfcfd;"/><path d="M1900.3,1940.72c-41.41.79-83,3.09-124.19,2-43.53-1.17-87,1.75-130.61-.86-27.82-1.67-56.16-4.45-84.32-.17-10.77,1.64-17-1.2-16.16-15.72s.3-29.43,0-44.1c-.43-19.29,13.62-19.85,24.29-18.86,42.6,4,85.19,1.26,127.75,1.78,36,.44,72.37-5.8,107.79-1.92,41.43,4.54,82.46.95,123.62,2.18,9.66.29,12.52,2.83,11.85,12-.55,7.66.59,15.43.53,23.15C1940.55,1940.34,1940.5,1940.34,1900.3,1940.72Z" style="fill:#fbfcfd;"/><path d="M1899.17,1451.15c-40.78,1.66-81.82,3.54-122.32,2.27-45.29-1.42-90.5,2.35-135.91-1-26.35-1.93-53.71-4.88-80.67.19-9.62,1.81-16.16-1.48-15.3-15,1-15.13,0-30.53.1-45.83.1-18.47,13.44-19.17,23.25-18.14,40.2,4.25,80.39.69,120.55,2.08,38.34,1.33,77.14-5.26,114.84-1.58,38.3,3.74,76.41-2.23,114.31,3.39,3.21.48,6.71-.61,10-1.28,9.12-1.84,12.74,1,12.29,11-.75,16.58-.43,33.24.19,49.84.41,10.92-4,14.93-14.71,14.15C1917,1450.63,1908.06,1451.15,1899.17,1451.15Z" style="fill:#fbfcfd;"/><path d="M1900,1619c-40.79,2.08-81.63.57-122.48,2.6-14.94.74-30.88,2.4-46.76-1.78-11.8-3.11-25.4.62-38.19,1.27-43.33,2.21-86.6-4.82-129.92-.89-12,1.09-18.38-.16-17.57-15.84.76-14.53.16-29.41,0-44.11-.27-19.41,13.66-19.6,24.5-18.59,42.59,3.94,85.19.71,127.75,1.93,36,1,72.46-5.38,107.78-1.89,40.86,4,81.29.25,121.86,2.06,9.44.42,14,1.36,13.44,12.26-.83,16-.58,32.08.15,48.09.54,11.78-4.13,16.05-15.64,15C1916.67,1618.36,1908.32,1619,1900,1619Z" style="fill:#fbfcfd;"/><path d="M1632.65,1699.5c47.64,3.6,95.33,1.43,143,1,11.21-1.46,15.76,2.58,14.95,14.65-1.08,16-.56,32.09-.09,48.12.31,10.42-4.59,13-14.12,12.92-43.74-.3-87.55-1.57-131.19.48-28.82,1.35-57.58-4.11-86.4,1-8.43,1.5-15-1.48-14.15-14.29,1-15.18-1.55-30.64.87-46,2.52-15.95,10.66-21.68,27.11-17.77a36.56,36.56,0,0,0,17.54.21l21.17.13Z" style="fill:#fbfcfd;"/><path d="M1925.62,1700.54c10.45-1.12,15.72,1.69,15,14.08-1,15.57.57,31.29,1,46.95-1.29,14.5-5.57,20.44-22.77,15.28-14.07-4.22-30.38-1.7-45.64-1-11.13.51-16-2.14-15.35-14.59,1.07-19.85.29-39.8.29-60C1881,1702.06,1903.39,1706.2,1925.62,1700.54Z" style="fill:#fbfcfd;"/><path d="M1632.65,1699.5l-21.32.52C1618.12,1687,1625.46,1696.45,1632.65,1699.5Z" style="fill:#68c6d5;"/><path d="M1668.64,1504.31a4.81,4.81,0,0,1-1.49-.74c-.21-.21,0-.83,0-1.26l1.31,2.14Z" style="fill:#fbfcfd;"/></g></g></g></svg>