<?xml version="1.0" encoding="UTF-8"?>
<svg height="480pt" version="1.1" viewBox="0 0 480 480"
     width="480pt" xmlns="http://www.w3.org/2000/svg">
  <g id="surface1">
    <path
      d="M 212 448 L 32 268 C 16 252 16 227 32 211 L 212 31 C 228 15 253 15 269 31 L 449 211 C 465 227 465 252 449 268 L 269 448 C 253 464 227 464 212 448 Z "
      style=" stroke:none;fill-rule:nonzero;fill:#F44336;fill-opacity:1;"/>
    <path
      d="M 216 327 C 216 324 217 321 218 318 C 219 315 221 313 223 311 C 225 309 228 307 231 306 C 234 305 237 304 241 304 C 245 304 248 305 251 306 C 254 307 257 309 259 311 C 261 313 263 315 264 318 C 265 321 266 324 266 327 C 266 330 265 333 264 336 C 263 339 261 341 259 343 C 257 345 254 347 251 348 C 248 349 245 350 241 350 C 237 350 234 349 231 348 C 228 347 226 345 223 343 C 221 341 219 339 218 336 C 217 333 216 331 216 327 Z M 258 281 L 222 281 L 217 130 L 263 130 Z "
      style=" stroke:none;fill-rule:nonzero;fill:#FFFFFF;fill-opacity:1;"/>
  </g>
</svg>
