<svg xmlns="http://www.w3.org/2000/svg" viewBox="0 0 301.19 386.07"><title>Done_education_Student</title><g id="Layer_2" data-name="Layer 2"><g id="Layer_1-2" data-name="Layer 1"><path d="M137.41,158.84c-2.52,2.54-5.11,5.16-6.45,8.48a23.42,23.42,0,0,0-1.34,8.16,57.82,57.82,0,0,0,1.61,16.33c1.4,5.32,3.8,10.3,5.94,15.37a166.6,166.6,0,0,1,11.34,40.38,2.1,2.1,0,0,0,2.46,2.12,126.17,126.17,0,0,0,24.21,0c4.61-.44,9.4-1.21,13.15-3.94,6-4.38,7.75-12.65,7.27-20.07s-2.7-14.67-2.72-22.1a37.7,37.7,0,0,1,6.67-21.43c2.08-3,4.71-5.94,5-9.58.2-2.12-.15-4.83,1.73-5.84a73.78,73.78,0,0,0-15.62-15.56c-3.27-2.4-6.94-4.6-11-4.86-4.8-.31-9.31,2.13-14,3.17a24.61,24.61,0,0,1-8,.43c-2.5-.27-5.8-2.31-8.14-2.15C145.62,148.06,140.17,156.07,137.41,158.84Z" style="fill:#fff;"/><g id="fEmnCO"><path d="M208.64,167.24c.55.1.9.82,1.59.49.06,0,.27.07.27.11.06,1.34,1.59.92,2.11,1.81s1.92.58,2,1.85c1.35,0,1.91,1.6,3.26,1.68a1.53,1.53,0,0,1,.85.45,30.87,30.87,0,0,0,4.69,3.31c.55.35,1.32.42,1.92.85s1,.57,1.27,1.08c.69,1.39,2.29,1.56,3.28,2.55.23.23.53.44.6.73.24.94,1.18,1.18,1.79,1.6s1.11.51,1.29,1.23c.08.31.43.2.65.27a13.76,13.76,0,0,1,0,2.55,17.3,17.3,0,0,0,0,3.06c0,1.12-.08,2.24-.18,3.37-.12,1.34.43,2.73-.18,4.07,0,.1.07.27.07.41a10.88,10.88,0,0,1-.09,2.25c-.25,1.2-.08,2.44-.22,3.66-.07.62.25,1.43.09,2a15.5,15.5,0,0,0-.18,3.1c-.06,1,.07,2,0,3.05s-.21,2.29-.27,3.43c0,.76.4,1.65.25,2.22a3,3,0,0,0,.06,2,.71.71,0,0,1,0,.51c-.33,1.21-.63,2.43.26,3.56a.27.27,0,0,1,0,.2c-.84.41,0,1.21-.4,1.71h0l-.23,0c-.89-.91-2-.32-3-.46a47.4,47.4,0,0,0-5.33.1,29.34,29.34,0,0,1-5.48-.43,5.26,5.26,0,0,0-2.06-.06c-.77.16-.63,1-.63,1.62a28.88,28.88,0,0,0,.19,4,14.47,14.47,0,0,1,0,3.14c-.1,1.25,0,2.48,0,3.71a28.65,28.65,0,0,0,.14,5.63,5.59,5.59,0,0,1-.09,2.21c-.35,1.21.28,2.33,0,3.53-.13.52-.49,1.46.26,2.1.21.18-.39.31-.37.68a29.4,29.4,0,0,1,0,3c-.08,1.39.5,2.78,0,4.18a.87.87,0,0,0,0,.54c.55,1.53,0,3.06,0,4.59a34.61,34.61,0,0,0,.08,5.21,11.06,11.06,0,0,1,0,3.56,3.86,3.86,0,0,0,.19,2.4.93.93,0,0,1,0,.81,3.89,3.89,0,0,0-.09,2.33c.14.51.26,1.21-.52,1.56-.16.07-.06.46,0,.71.74,2.08.28,4.2.24,6.31,0,.67.2,1.33.19,2s.26,1.33-.67,1.52c-.32.07-.15.28-.2.47-.15.62.41,1.5-.65,1.85a1.43,1.43,0,0,0-.37,1.31c.13.34.08.59-.55.67-.87.12-1.6,1-2.59.92a10,10,0,0,0-3.61,1c-1.21.4-2.56.2-3.75.79a18.58,18.58,0,0,0-2.3.11c-2-.22-3.93.28-5.89-.1a5.9,5.9,0,0,0-3.09.27c-1,.38-1.65-.74-2.8-.23a7.13,7.13,0,0,1-3.22,0,24.5,24.5,0,0,0-3.09,0c-1.06,0-2.2.38-3.14-.46,0-.35.36-.69-.08-1.07s-.19-.68.06-1a2.83,2.83,0,0,0,.44-1.95c0-1.54,0-3.07,0-4.61,0-.44-.31-.92-.18-1.24a2.4,2.4,0,0,0-.22-2.38.78.78,0,0,1,.08-.92.94.94,0,0,0,.29-1.17,2.65,2.65,0,0,1,.08-2.08c.4-.91-1.19-1.77,0-2.59-.33-.88.37-1.66.21-2.59-.11-.66-1-1.46,0-2.14,0,0-.07,0-.09-.06a2.76,2.76,0,0,1-.09-2c.14-1,.55-2,.12-3.07a3.21,3.21,0,0,1-.13-2.11,11,11,0,0,0,.41-3.4,22.1,22.1,0,0,1,0-3c.07-1.54,0-3.08.08-4.62,0-.69.77-1.23.37-2-.27-.51,0-1.06-.07-1.58a12.51,12.51,0,0,1,.18-2.53c.2-1.46-.34-2.87-.19-4.34,0-.42.45-1,0-1.42s-.47-.5.07-.66c.22-.07.34-.27.24-.4-.66-.84-.09-1.89-.55-2.79a1.78,1.78,0,0,1,.16-1.67c.2-.33.37-.82.06-1-1.07-.6-.4-1.36-.18-2s.45-1.05-.15-1.53c-.22-.17-.32-.51-.07-.66a1.39,1.39,0,0,0,.47-1.82c-.45-1.4.15-2.86-.36-4.24a1.09,1.09,0,0,1,0-.85c.63-.93-.55-2,.3-2.92-.81-1.11.56-2.35-.24-3.52-.3-.44.09-1.3,0-1.67-.41-1.2.92-2.49-.28-3.55,0,0,0-.15,0-.21.71-1.35.5-2.82.63-4.25,0-.34.42-.71.34-1-.56-2-.06-4,.17-6,.31-2.6.07-5.19.31-7.78a11.62,11.62,0,0,0-.34-4.85,1.11,1.11,0,0,1,.37-1.18c1.87-1.3,3.14-3.26,5.13-4.47a15.09,15.09,0,0,0,2.54-2.39c.69-.7,1.67-.88,2.26-1.69.24-.33.19-1,.61-1,.71,0,.82-.5,1.2-.83s1.25-.59,1.53-1.33c0-.08.36,0,.51-.1s.72-.2.69-.7a.81.81,0,0,1,.55-.69c1,0,1.41-1,2.06-1.47.41-.31,1.19-.28,1.24-.79.08-.9,1.55-.8,1.24-1.88,0,0,.11-.07.17-.1a7.26,7.26,0,0,0,2.45-1.72c.67-.7,1.18-1.67,2.22-2A1.26,1.26,0,0,0,208.64,167.24Z" style="fill:#53b8cb;"/><path d="M96.92,218.64c-.41-.75.35-1.22.49-1.84a19.35,19.35,0,0,1,1.41-2.91c.28-.7.49-1.41.73-2.11a12.76,12.76,0,0,1,1.73-3c1-1.49,1.81-3.12,2.69-4.69,1.18-2.12,2.2-4.33,3.29-6.5a1.83,1.83,0,0,1,.42-.6c.46-.38,1.17-.53,1-1.42,0-.18.44-.55.73-.74s.59-.35.47-.64c-.43-1.06.62-1.76,1-2.05a6.79,6.79,0,0,0,1.55-2.44c1-1.79,2.24-3.46,3.25-5.26.79-1.4,2.16-2.47,2.91-3.88s1.94-2,2.46-3.37a4.87,4.87,0,0,1,1.37-1.68c1.14-1,1.75-2.45,2.76-3.57,1.24-1.36,2.21-3,3.47-4.32a4.33,4.33,0,0,1,1.13-1c1.18,1.91,3.16,3,4.64,4.63,1.18,1.28,2.94,1.93,3.88,3.59.73,1.3,2.43,1.79,3.09,3.25.13.29.48.26.76.35s1,.41,1,.5c-.27,1.14.73,1.36,1.28,1.89s1.53.8,1.65,1.11c.56,1.38,1.78,2,2.7,3,.56.59,1.42.74,1.87,1.43a22.77,22.77,0,0,0,4.34,4.34c.47.42,1,1.13.83,1.54-.56,1.25.24,2.52-.23,3.73a1.84,1.84,0,0,0-.13.95,22.44,22.44,0,0,1,.13,4.93c0,1.07-.37,2.28.87,3.07a1.25,1.25,0,0,0-.93,1.24c-.08.94.26,1.85.19,2.7-.2,2.42,0,4.83-.1,7.24-.05,1.95.36,3.93.13,5.84-.21,1.75,0,3.47-.17,5.2-.34,3.18,0,6.36,0,9.55a33,33,0,0,1,0,4.92,3.61,3.61,0,0,0-.12,1.16,19.31,19.31,0,0,1,.14,4.88c-.06,1.11-.41,2.35.88,3.12a2.8,2.8,0,0,0-.82,3.35,1.52,1.52,0,0,1,.07,1.15,3.5,3.5,0,0,0,0,2.25c.26.9-.13,1.73,0,2.64.13,1.2-.21,2.46,0,3.74a5.05,5.05,0,0,1,.15,2,17.9,17.9,0,0,0-.24,3.41c-.12,1,.23,2.13,0,3.17-.17.82.11,1.07.94,1.13-.84,0-1.09.41-1.09,1.07,0,.83,0,1.66,0,2.48-.12,1.8.63,3.58.12,5.39a.29.29,0,0,0,0,.11,19.19,19.19,0,0,1,0,4.7c0,.39-.28.78-.17,1.16a14.38,14.38,0,0,1,.17,5.28c-.07.8-.23,1.78.51,2.36.59.46.63.59-.09.84a.66.66,0,0,0-.44.88,13.73,13.73,0,0,1-3.19,0,35.89,35.89,0,0,0-3.64.12c-1.05.1-2.21-.73-3.18.25,0,0-.19-.09-.29-.09a45.08,45.08,0,0,0-6-.09c-2,.12-3.94-.21-5.91-.2-.1,0-.19-.08-.29-.12-1.27-.23-2.53-.47-3.81-.67a1.28,1.28,0,0,1-1.08-.59.53.53,0,0,0-.65-.26c-1.23.37-2.31-.18-3.39-.6-.35-.13-.58-.5-1-.38s-.3-.25-.28-.44A1.57,1.57,0,0,0,122,293c-.45-.24-.24-.93-.21-1.25.22-2.43,0-4.87.07-7.3,0-1.78-.06-3.59,0-5.37.05-2.06-.12-4.12,0-6.2a19.17,19.17,0,0,0-.14-5.83,5.76,5.76,0,0,1,.07-2.42,5.51,5.51,0,0,0,0-2.07,1.69,1.69,0,0,1,0-.86,2.91,2.91,0,0,0,0-2.5,1.45,1.45,0,0,0-.12-.17c1-.83,0-1.9.3-2.88s-.29-2.25-.13-3.33a19.94,19.94,0,0,0,0-4.24,4.4,4.4,0,0,1,.18-1c.13-.59,1.1-.43,1.06-1.1a1.14,1.14,0,0,1,.65-1.23,1.08,1.08,0,0,0,.55-1.11c-.18-1,1-1.45,1-2.52a3.07,3.07,0,0,1,1.25-1.9c1.12-.75,0-2.35,1.09-3.18.12-.09-.14-.28-.27-.4-.46-.44-1.19-.76-1.45-1.17-.74-1.15-2-1.38-3-2-.33-.2-1.22.23-.81-.77,0-.09-.19-.42-.28-.41-1.16,0-1.92-.89-2.57-1.47-1.95-1.75-4.47-2.38-6.56-3.8a26.76,26.76,0,0,0-5.56-2.88c-.74-.28-1.26-.91-2-1.24a9.9,9.9,0,0,1-2.32-1.86c-.59-.53-1-1.17-1.88-1.14a1.19,1.19,0,0,1-.79-.28A2.68,2.68,0,0,0,96.92,218.64Z" style="fill:#53b8cb;"/><path d="M63.55,174.6c-.23,1.14-1.4.74-2,.73-1.88,0-3.74.28-5.6.34a19.08,19.08,0,0,1-3.87,0c-2-.39-4.05.6-6.11-.23-.79-.32-1.86-.92-2.93-.36-.29.15-.5-.18-.73-.35s-.69-.69-1.18-.13c-.13.15-.47.09-.72,0a12.27,12.27,0,0,0-3.23-.73,18.27,18.27,0,0,1-2.94-1c-1.3-.46-2.37-1.34-3.66-1.76a9.48,9.48,0,0,0-2.68-.78c-.43,0-1-.65-1.58-1-1.73-1.13-3.49-2.2-5.3-3.2-.15-.08-.44-.21-.43-.26.19-.84-.61-.83-1-1.17-.58-.54-1.18-1.06-1.79-1.58-1.48-1.27-2.75-2.75-4.15-4.1-.45-.43-.23-.82-.25-1.2,0-.88-.89-1.24-1.1-2.06a9.82,9.82,0,0,0-1.32-2.7,26.05,26.05,0,0,0-1.17-2.38c-.86-1.1-.79-2.61-1.46-3.82-.12-.22.06-.28.12-.31.3-.14.35-.16.14-.54-.63-1.15-1.38-2.34-.87-3.75.12-.33-.09-.51-.19-.67-.28-.44-.68-.79-.08-1.28.25-.2,0-.39-.11-.54s-.3-.34-.2-.46c.92-1.12-.14-2.15-.07-3.17.08-1.26-.08-2.52.07-3.77a8.33,8.33,0,0,0,.28-1.74c-.16-.78.33-1.46,0-2.28-.18-.49.46-1.3.57-2a4.82,4.82,0,0,1,.52-1.25s.13-.05.2-.07c-.76-.89.19-1.64.45-2.2.66-1.38,1.42-2.78,2-4.14.78-1.75,2.4-3,2.73-5,.1-.62.9-1,1.49-1.43,1.16-.81,1.72-2.21,2.82-3.07.93-.74,1.85-1.49,2.79-2.21s2.22-1.46,3.31-2.17a11.65,11.65,0,0,1,4.71-2.09,10.74,10.74,0,0,0,2.14-.49,5.39,5.39,0,0,1,2.93-.22c1.89.5,3.7-.24,5.6.24a72.71,72.71,0,0,0,8,1.55c1.24.17,2.35.87,3.64.73.5-.06.76.44,1.21.6,1.78.62,3.57,1.22,5.31,2a25.68,25.68,0,0,0,4.18,2c1.58.38,2.44,1.57,3.74,2.14a15.49,15.49,0,0,1,1.4.72c1.16.66,2.35,1.27,3.44,2a12.12,12.12,0,0,0,4.89,2.17c1.18.21,2,1.39,3.19,1.68a13.75,13.75,0,0,1,3.39,1.67,1.68,1.68,0,0,0,.85.1,10,10,0,0,1,3.62,1.12c1.29.56,2.79.69,3.82,1.8.15.17.23-.06.36-.07.57,0,1.25-1,1.69.17.72-.63,1.2.39,1.87.26s1.53.29,2.29.38c.52.06,1.09-.54,1.48.36.08.19.51-.33,1-.3.85,0,1.82.31,2.57-.25s1.33.63,1.86-.19c2,.54,3.64-.82,5.51-1a9.93,9.93,0,0,0,2.46-1c1.74-.8,3.09-2.19,4.83-2.93.45-.19.91-.27,1-.94a1.24,1.24,0,0,1,.87-.77c1.23-.14,1.6-1.25,2.33-1.94a.94.94,0,0,1,1.36,0c1.17.86,1.59,2.41,2.91,3.16.09.05.68.5.65.76a10.66,10.66,0,0,1-.1,1.94,13.91,13.91,0,0,1-.61,1.88c-.15.3.06.87-.65.57-.22-.1-.26.18-.25.36s0,.33.07.42c.53.6-.6.79-.31,1.4s-.11,1.12-.68,1.55a2.24,2.24,0,0,0-.69,1.25,8,8,0,0,1-1.73,3.21c-.53.67-.52,1.52-1.07,2.05-.38.37.07,1.43-1,1.2,0,0-.1.32,0,.49.3.47.25.74-.38.72-.08,0-.2-.06-.24.11a8.11,8.11,0,0,1-1.7,2.83c-.69.49-.51,1.36-1.1,1.86a12.32,12.32,0,0,0-2.61,2.65c-.47.74-1.21,1.25-1.52,2.17-.2.61-1,1-1.49,1.47a15,15,0,0,0-1.94,2.34c-.41.55-1.06.8-1.49,1.41-.77,1.07-2,1.95-2.58,3-.79,1.48-2.5,1.9-3.15,3.38-.17.39-.6.24-.9.42-.88.54-1.36,1.48-2.19,2A17.72,17.72,0,0,0,95.41,160a3.1,3.1,0,0,1-1.85.89c-.42,0,0,.53-.57.74a22.35,22.35,0,0,0-4.61,2.84c-1.53,1.07-3.22,1.76-4.78,2.71s-3.53,1.85-5.2,2.95c-.22.15-.3-.12-.45-.06s-1-.51-.87.45c0,.24-.25.18-.42.2a6.08,6.08,0,0,0-3,1.43,1.64,1.64,0,0,1-1.61.46,1.52,1.52,0,0,0-1.09.23,5.39,5.39,0,0,1-2.35.54,7.31,7.31,0,0,0-2.52.82,2.74,2.74,0,0,1-1,.23c-.34,0-.78-.17-1,.22C63.55,175.65,63.89,174.3,63.55,174.6Zm21-18.5a1.38,1.38,0,0,0-1.64.65c-.16.21-.38.55-.54.45-.78-.5-1.16.38-1.63.42-1.64.13-2.1,1.64-3.2,2.36-.59.39-.66,1.14-1.05,1.56s-.21,1-.26,1.5.51,0,.79.05a1.56,1.56,0,0,1,.28.15c1.07.63,2.15-.11,3.23,0a.26.26,0,0,0,.19-.08c.78-.91,1.93-1,3-1.25a12,12,0,0,0,4.57-2,15.92,15.92,0,0,1,2.31-1.77,6.86,6.86,0,0,0,2.73-3.79v-.21c.29-.81.6-1.62-.12-2.39-.15-.16-.23-.43.07-.53a1.34,1.34,0,0,0,.61-2.12.9.9,0,0,1,.24-1.38c.34-.3.35-.53,0-.78a.67.67,0,0,1-.34-.49,4,4,0,0,0-.64-2.39,15.89,15.89,0,0,0-1.34-1.71,9.83,9.83,0,0,0-1.75-.81c-.71-.38-1.08-.1-1.27.61-.25-.28-.43-.64-.69-.71s-.94-.42-1.21.08-.73.76-1.11.35a2.63,2.63,0,0,0-1.73-.86c-.34,0-.68-.06-.76-.47a17.62,17.62,0,0,1,0-4.39,8.07,8.07,0,0,0,.07-2.49,3.4,3.4,0,0,1,0-1.86,2.44,2.44,0,0,0-.15-2c-.28-.53,0-.56.4-.7a4.83,4.83,0,0,1,4.08.76,4.07,4.07,0,0,1,1.89,2.18,4,4,0,0,0,3.13,3.24c1.69.47,2.55-.38,2.28-2.1-.15-1-1.18-1.73-.55-2.85.16-.29-.26-.41-.47-.45-.56-.1-.73-.26-.25-.72a.53.53,0,0,0,0-.51c-.69-.88-.86-2.33-2.44-2.26-.21,0-.3-.18-.39-.34-.48-.86-2.78-2-3.71-1.81-.21,0-.25.19-.53,0a2.68,2.68,0,0,0-2.56-.51,21.12,21.12,0,0,1-2.19.26c-.16,0-.46,0-.5-.12-.39-1.08-.9-.35-1.28-.05a1.51,1.51,0,0,1-.83.41c-.79.08-1.1.74-1.58,1.27s.19,1.92-1.26,1.56c0,0-.06.06-.06.08.1.79-.55,1.28-.79,1.94-.58,1.61-.24,3.33-.69,4.94-.06.22,0,.37.24.38s.47.11.41.53c-.09.58-.22.29-.48.14s-.27.17-.34.34,0,.32.23.37.63.14.32.51c-.51.61-.49,1,.14,1.49-.22.3-1,.57-.67.8,1,.78-.18,2.35,1.17,2.92.09,0-.11.23-.23.3s-.17.36,0,.43c.93.4,1.21,1.41,2,2,1.17.88,1,.14,1.09-.76.31.37.51.6.7.84,0,0-.07.1-.07.16a1,1,0,0,0,1.2,1.18c.24,0,.47-.41.53.16,0,.31.33.34.6.34,1.18,0,2.27.7,3.32.29l-.47,9.59ZM37.32,152c.24-.15.7-.29.7-.44,0-1.06,1.59-1.52,1.05-2.76,0-.06.07-.19.13-.25a6.92,6.92,0,0,0,.86-1.39c.27-.7-.68-1.77.66-2.14,0,0,.06-.2.07-.31.05-1.42.12-2.83.14-4.25,0-.55.84-1.17-.1-1.67.05-.09.09-.23.16-.25.47-.14.42-.48.43-.86,0-.81.69-1.61,0-2.44,0,0,.07-.21.15-.27.91-.73.62-1.93.69-2.76a16.2,16.2,0,0,0,.24-3.07c-.14-1.25.43-2.43.36-3.68,0-.28-.52-.31-.21-.68a1.49,1.49,0,0,0-.06-2c-.12-.17-.38-.33-.11-.53,1.3-1,.07-2.33.53-3.45.12-.29-.13-.74-.34-1.1a8.16,8.16,0,0,0-2.1-2,2.82,2.82,0,0,0-2.1-1c-.56,0-1.35.39-1.32.66.17,1.36-.69,2.88.58,4.07.2.19-.06.24-.13.26-.67.22-.48.82-.52,1.27s.22,1.26.1,1.52a8.65,8.65,0,0,0-.76,3c-.06.55.21,1.31-.35,1.78s-1.36,1-.83,2c-.41.11-.08.59-.41.76-.89.48-.94,1.61-1.83,2.25s-1.4,1.39-2.37,1.6a1.73,1.73,0,0,0-1.28,1,24.38,24.38,0,0,1-.35-6c.05-.77-.37-1.47-.06-2.29.25-.66.07-1.47.4-2.18a.76.76,0,0,0-.24-.8c-.31-.37-.49-.71.16-1a.53.53,0,0,0,.26-.45c-.38-1.33.38-2.64.1-3.95-.38-1.78-1.35-3.13-3.71-2.18a15.52,15.52,0,0,1-3.69,1.15,17.69,17.69,0,0,0-2.92,1c-1.66.54-1.07,2.32-1.34,3.53a17.13,17.13,0,0,0-.31,3.16c0,1.12-.4,2.39,0,3.33.49,1.14-.39,2.53.81,3.42l-.26.14a.62.62,0,0,0-.24.84,5.2,5.2,0,0,1,1.46,3.09c0,.05.12.09.15.15.43.84,1.72.61,2,1.61,0,0,.06,0,.09.05.58.12,1.48-.44,1.56.75,0,0,.24.1.29.05.64-.55,1.18.08,1.5.32,1.39,1,2.88.85,4.41.66.42-.05.79-.67,1.3-.09.13.15.47-.1.63-.3a.77.77,0,0,1,.76-.29c.62.05.62,0,.53-.62,0-.22.06-.3.3-.33a4.84,4.84,0,0,0,.81-.23h0c-.16.24-.4.49-.08.74a.4.4,0,0,0,.63-.2c.21-.56.89-.4,1.18-.84.12-.18.34-.16.57,0s-.05.36,0,.49c.29.92-.59,1.77-.29,2.58.48,1.27-1.05,2.41-.11,3.64,0,0,0,.18-.06.18-1.09.07-.57,1-.88,1.55-.67,1.08-.51,2.56-1.66,3.41a.37.37,0,0,0-.08.3c.13.77-.64,1.29-.58,2.07,0,.11-.42,1-.75.65-.67-.62-.84.12-1.24.25-.74.25-.73,1.6-1.86,1.24,0,0,0,.05-.05.09-.21,1.15-.94,1-1.77.76a1.07,1.07,0,0,0-.89.32,1.28,1.28,0,0,1-2.1.08c.31.76-.79,1.35-.06,2.05-.9.81.18,2-.62,2.87,1,.08,1.86.1,2.73.22s1.3-.8,2.08-.26c.11.07.17-.16.23-.29.24-.56.53-.71,1.23-.52s1.58.5,1.94-.76c.19-.66,1.43-.42,1.76-1.24a1.77,1.77,0,0,0,.2.06c1,.09,1.33-.26,1.11-1.15,0-.16-.05-.34.11-.34.86,0,1-1.22,2-1.08.07,0,.56-.21.46-.57-.18-.63-.2-.68.42-.71.39,0,.4-.24.47-.46.13-.41-.24-.22-.39-.29s-.29-.2-.13-.41Zm22.86-34.81c-.1-.7-.64-.94-1.08-.68-.71.41-1.92-.28-2.23,1a.5.5,0,0,1-.4,0c-.42-.27-.69-.37-.78.3,0,.25-.35.14-.54,0-.45-.32-.72,0-1,.27s-.76.8-1.17,1.17c-.14.13-.34.07-.21.43.37,1-.12,1.54-1.23,1.58-.2,0-.27.11-.27.24A2.29,2.29,0,0,1,50,123.83c-.11.05-.18.23-.23.36a15.87,15.87,0,0,0-.61,2c-.33,1.81-1.13,3.54-.93,5.44a.84.84,0,0,1-.07.42c-.91,1.95-.22,4.08-.7,6.1-.17.72.15,1.69,0,2.44s.25,1.49,0,2.36a5.78,5.78,0,0,0,.31,2.76c.16.64-.68.65-.34,1.26s-.2,1.58.67,2.12c.19.12.09.38-.16.52a.31.31,0,0,0,0,.55c.91.5-.08,1.15.17,1.69-1.12.22-.35.91-.24,1.29a5.25,5.25,0,0,1,.25,1.77,21.81,21.81,0,0,0,.41,4c.12,2,1.86,3.08,2,4.91a.24.24,0,0,0,.13.16c1.1.44,1.75,1.54,2.77,2,.85.41,1.83,1.12,2.79.75.75-.29,1.15-.23,1.57.33.21.28.6.19.59,0,0-.66.52-.17.68-.38.52.86,1.63-.29,2.12.63.5-.59,1.18.42,1.59-.12.82-1.09,2-1.88,2.53-3.17a2.64,2.64,0,0,0,.21-1.87c-.15-.4-2.4-.7-2.56-.32-.26.62-.52.4-.73.12-.42-.54-.8-.3-1.21,0-.17.11-.4.31-.54.26a3.29,3.29,0,0,0-2.27-.22c-.25.09-.3-.16-.22-.34s.12-.41-.11-.41c-1.61,0-.25-1.45-.93-1.88.74-1,.22-2.15.26-3.17A25,25,0,0,0,57,151.9c-.08-.55.16-1.14-.56-1.65.82.15,1.12,0,.79-.64-.59-1.09,0-2.2,0-3.3a12.16,12.16,0,0,1,.14-3c0-.24.62-1,.8-.94,1.24.56,2.51,0,3.76.09.82.07,1.36-.16,1.26-1.13.34.15.09,1.06.76.59,2-1.38,4.19-2.55,4.65-5.27a.6.6,0,0,1,.32-.41c1.61-.47,1-2.1,1.52-3.11a5.24,5.24,0,0,0,.12-2.11c0-.76-.28-1.6-.23-2.23.1-1.27-.5-2.42-.29-3.65.06-.34-.1-.62-.51-.84s-1-.7-.23-1.27a.4.4,0,0,0,.11-.58c-.66-.91-.55-2.16-1.29-3-.35-.39-.31-1.13-1-1.21a4.34,4.34,0,0,1-1.85-1c-.33-.23-.63-.41-1-.22s-.69,0-1-.23A2.22,2.22,0,0,0,60.18,117.15ZM104,143.59c.19-.87,0-1.26-.76-1.11-.3.06-.43-.1-.41-.34.06-.75-.38-.84-1-.94s-1.32-.86-2.2-.51c-1.09.43-.67,1.46-.79,2.17-.15.91-.87,2,.16,2.88.21.19,0,.55-.16.85a1.34,1.34,0,0,0,.07,1.71c.95,1.05,2.25,1,3.52.95.21,0,.27-.11.37-.29.41-.78.17-1.94,1.39-2.25.24-.06.09-.44.09-.69A7.91,7.91,0,0,0,104,143.59Z" style="fill:#173847;"/><path d="M121.7,39a6.6,6.6,0,0,1-.89-4.06c.05-.72-.24-1.79,0-2.09.61-.67-.57-1.66.55-2l-.09-.28c-.22-.62-.17-1.33-.34-1.89a11.78,11.78,0,0,1-.14-3.57c0-.46,0-.68.5-.64.2,0,.37-.09.34-.32s-.22-.17-.4-.11c-.51.18-.68-.08-.53-.52.34-1-.21-2-.11-3,.14-1.51.22-3,.23-4.54,0-.66.51-1.33,0-2-.23-.28-.1-.63,0-.93a1.48,1.48,0,0,0-.06-1.34c-.2-.33-.29-.46.22-.66s.35-.7-.05-1c-.55-.45-.49-.68.71-.56a6.84,6.84,0,0,0-4-.48c-1.27.11-2.52,0-3.77,0-1.87.07-3.73-.54-5.61.08-.65.21-1.36-.15-2.09-.14-1,0-2.05.17-3.08.11a2.88,2.88,0,0,0-1.41-1.24c-1-.45-1.48-.2-1.61,1C99.21,8,99.87,7,99.62,6.15s.1-1.5-.18-2.24a.86.86,0,0,1,.23-.81c.77-.9,1.55-1.79,2.35-2.66a.64.64,0,0,1,.81,0,1.46,1.46,0,0,0,1.52,0c1-.37,2.13,0,3.21-.16.83-.16,1.65.25,2.54-.1,1.24-.5,2.5.18,3.77.22a3.29,3.29,0,0,0,1.12,0,11,11,0,0,1,3.88,0c.44,0,1-.19,1.5-.2,1.17,0,2.36.34,3.53-.09.2-.07.4.11.58.24a1.77,1.77,0,0,0,1.5.16c1.31-.26,2.68-.67,4,0,.28.15.25-.1.37-.12s.6-.24.7-.14c.81.77,1.69,0,2.48.19,1.19.23,2.33-.25,3.53,0,.6.14,1.37-.36,2,.06s1.59-.6,2.29.17c.61-.9,1.37-.1,2.05-.15,1.36-.11,2.72-.12,4.08-.32a1.76,1.76,0,0,1,1.14.13c.61.42,1.15.13,1.75.07a19.29,19.29,0,0,1,4-.07,6.49,6.49,0,0,0,1.46-.1,41.56,41.56,0,0,1,4.26.16,37.72,37.72,0,0,1,3.88-.08c1.3.14,2.62-.25,3.91.12.21.06.33,0,.49-.06a4.83,4.83,0,0,1,2.4.12c1,.36,1.93-.28,2.93-.25.51,0,1,0,1.53,0,1.47,0,2.93.21,4.41.17,1.08,0,2.26-.42,3.45,0,.43.16,1.32-.29,1.89.07.77.48,1.56-.65,2.24.15.61-.88,1.4-.13,2.06-.13,1.39,0,2.74-.22,4.11-.33A2.67,2.67,0,0,1,195,.61a.71.71,0,0,0,.5.12A12.55,12.55,0,0,1,200.59.5a6,6,0,0,0,1.06-.19,17.18,17.18,0,0,1,4.26.19c.94.13,1.84-.34,2.84-.22,1.27.16,2.59-.09,3.85.08,1.45.2,2.89-.29,4.37.24.7.25,1.71-.3,2.61-.28a13.24,13.24,0,0,1,3.95.35,3.45,3.45,0,0,0,1.75-.25.73.73,0,0,1,1,.47c0,.1.06.25.13.28,2,.82,1,2.24.78,3.55-.06.33-.52.79.1,1.12.08,0,.08.27.08.41A3.37,3.37,0,0,1,224.51,9c-2.56,0-5.12,0-7.69,0-.54-.85-1.61.39-2.14-.54a.18.18,0,0,0-.17,0c-.86.8-1.87.5-2.85.37-.67-.09-1.32.36-2.08,0,1.62,1.62.75,3.67.85,5.43.09,1.61,0,3.33,0,5-.07,3.65.06,7.31,0,11,0,1.58.31,3.16,0,4.71-.12.57.41.75.41,1.17a4.15,4.15,0,0,1-.61,2,2.57,2.57,0,0,1-2.54,1.33,6.65,6.65,0,0,0-2.28-.18c-1.48.45-2.9-.37-4.39.06s-2.83-.5-4.24.1a.36.36,0,0,1-.3-.07,1.34,1.34,0,0,0-1.42-.1,7.14,7.14,0,0,1-3.47.08c-1.85-.15-3.67.11-5.5,0-.85-.07-1.74.23-2.57.08a12.7,12.7,0,0,0-3.69-.08c-2.17.25-4.32-.14-6.48,0-1,.07-2,0-3,.12-.85.09-1.69-.15-2.56-.15-1.68,0-3.38.25-5.05.11-1.92-.16-3.84.1-5.75-.17-1.29-.18-2.6.15-3.92.07-.48,0-.91-.35-1.43-.2a14.71,14.71,0,0,1-4,.25,24.58,24.58,0,0,1-3.14-.08c-1.54-.18-3.13.12-4.68,0-.77-.06-1.48.31-2.2.13a10.46,10.46,0,0,0-3.69-.1c-1.84.19-3.68-.34-5.45.08-1.15.27-2.46-.87-3.44.45,0,.06-.31,0-.4,0C123.75,39.08,122.62,39.4,121.7,39Zm52.05-26.86c1.11,0,1.4-.26,1.83-1.42a.42.42,0,0,1,.31-.23c.89,0,.86-.74.84-1.23s-.78-.67-1.12-.61A7.05,7.05,0,0,1,173,8.46a3.8,3.8,0,0,0-1.56.1c-.5.1-1,.39-1.54.18a2.84,2.84,0,0,0-2.2.3c-.78.28-.67,1-.92,1.57-.18.43-.56.74-.16,1.15a1,1,0,0,0,1.48.11,1.15,1.15,0,0,1,1-.21C170.66,12.09,172.33,11.46,173.75,12.13Zm-33.62-1.7a1.41,1.41,0,0,0,1.25,1c.94.17,1.79-.18,2.66-.07s1.53,0,1.66-1c0-.09-.06-.39.16-.25.73.45.54-.13.69-.5.41-1.09.35-1.66-1-1.18-.11,0-.26-.11-.4-.12-1.21-.1-2.42-.57-3.63,0a.94.94,0,0,1-.74,0,3.26,3.26,0,0,0-2.4,0,3.55,3.55,0,0,0-1.48,2.15c0,.09.06.22.12.24.74.16,1.47.34,2.22.44C139.73,11.28,139.57,10.52,140.13,10.42Zm17.06,1.06c.83.05,1.18-.78,1.93-.72.92.07,1.22-.81,1.71-1.33.26-.29.1-.69-.33-1-1-.64-2.06-.21-3.07-.46s-1.67.63-2.7.2c-.3-.13-1.25-.51-1.77,0a4.84,4.84,0,0,0-1.42,1.5,1.27,1.27,0,0,0-.07,1.25c.27.61.63.56,1.11.55s1-.31,1.13-.26C154.88,11.92,156.17,10.75,157.19,11.48Zm45.74-1.89a5.29,5.29,0,0,1,.93-.24c.82,0,.8-.74.85-1.2.08-.68-.64-.7-1-.63a6.54,6.54,0,0,1-2.3.16c-.68-.11-1.36.3-2,.11a2.67,2.67,0,0,0-3.67,2.14c0,.34-.09.65.55.79a31.27,31.27,0,0,0,5.88.27,1.6,1.6,0,0,0,1.13-.58C203.65,10.07,203.61,9.79,202.93,9.59Zm-79.09.94a1,1,0,0,0,1.16.91c.88-.09,1.73.13,2.6.09s1.55-.86,2.4-.12c0,0,.25-.1.37-.18A6.77,6.77,0,0,0,132,9.48a.6.6,0,0,0-.3-1A5.49,5.49,0,0,1,130.56,8c-.71-.4-1.17.47-1.25.37-.77-1-1.74-.29-2.51-.23C125.25,8.25,123.94,8.71,123.84,10.53Zm63.24.5a1.45,1.45,0,0,0,1.45-1.09c.14-.4.25-.57.62-.48a.61.61,0,0,0,.8-.37c.17-.37-.23-.49-.39-.7a1.24,1.24,0,0,0-1.4-.55,2.08,2.08,0,0,1-1.45-.2c-.88-.33-1.7-.53-2.46.28-.27.29-.56.42-.56-.2s-.39-.41-.64-.22-.78.53-.91.89c-.24.64-.73,1.31-.47,2,.19.52.85.57,1.34.54A15.27,15.27,0,0,1,187.08,11Z" style="fill:#173847;"/><path d="M133,297.73c.1,0,.19.12.29.12,2,0,4,.32,5.91.2a45.08,45.08,0,0,1,6,.09c.1,0,.26.13.29.09,1-1,2.13-.15,3.18-.25a35.89,35.89,0,0,1,3.64-.12,13.73,13.73,0,0,0,3.19,0,8.13,8.13,0,0,0,3.3-1c.91-.58,1.72-1.42,3-.72a4,4,0,0,1-.33-2.2c.44-1.19,0-2.3.1-3.43.08-1.42-.4-2.86.19-4.28a2,2,0,0,0,0-1.29,8.28,8.28,0,0,1-.08-3.6c0-.26.26-.45.17-.79a18.4,18.4,0,0,1-.25-4.2c0-1,.41-2,.15-2.9a23.89,23.89,0,0,1-.19-3.12c-.22-1.37.25-2.72.09-4.07a15.82,15.82,0,0,1,0-1.81,10,10,0,0,0,.1-2.07c-.15-.62-.42-1.13,0-1.71a.19.19,0,0,0-.15-.32c-.61,0-.32-.49-.43-.78-.37-1,.45-1.86.42-2.92s-.39-2.52.21-3.72c0-.08,0-.28,0-.31-1-.46-.4-1.07-.16-1.65a1.46,1.46,0,0,0,.08-1.23,4,4,0,0,1-.18-1.69,12.4,12.4,0,0,0,.13-2.15c.66-.56,1.43-.09,2.14-.15,1.87-.16,3.75-.07,5.63-.07,2,0,4.06,0,6.09,0a2.79,2.79,0,0,1,.71.2,3.12,3.12,0,0,0,.19,2,.56.56,0,0,1,0,.51,3.51,3.51,0,0,0,0,2.82c.25.51.59.86-.14,1.19a.29.29,0,0,0-.17.36c.3.79-.07,1.72.13,2.35.38,1.2-.47,2.56.59,3.59.15.15-.09.27-.06.35.23.81-.88,1.46-.38,2.17s-.63.86-.28,1.43,0,1.18.15,1.53c.57,1.21-.82,2.5.26,3.6,0,0,0,.14,0,.21a10.23,10.23,0,0,0-.26,3.14c-.13,2.33,0,4.68.07,7a24.42,24.42,0,0,0-.16,3.32,6.65,6.65,0,0,1,.24,1.16c0,1.21-.6,2.41-.25,3.56a9.8,9.8,0,0,1,.16,3.52,10.14,10.14,0,0,0-.12,3.13c.32,1.1-.05,2.08,0,3.06.73.17,1.46-.45,2.26.48a2.74,2.74,0,0,0,2.7,1c.95.84,2.08.44,3.14.46a24.5,24.5,0,0,1,3.09,0,7.13,7.13,0,0,0,3.22,0c1.15-.51,1.78.61,2.8.23a5.9,5.9,0,0,1,3.09-.27c2,.38,3.91-.12,5.89.1a18.58,18.58,0,0,1,2.3-.11c-.25,1.1.48,2.17-.09,3.38a3.5,3.5,0,0,0,.14,2.62,1.47,1.47,0,0,1-.06,1,5.78,5.78,0,0,0,.06,3,1.6,1.6,0,0,1-.15,1.59s-.06.08,0,.09c.58,1-.49,2,.09,3s0,1.9,0,2.84c0,1.3,0,2.59,0,3.89,0,.37.13.71-.19,1-.15.13-.26.36-.16.48.69.76.12,1.61.19,2.41a4.53,4.53,0,0,0,.37,2.32.69.69,0,0,1-.13,1l-.13-.35a1.14,1.14,0,0,0-.17.12c-.2.22,0,.27.14.38a9,9,0,0,1-.19,4.08c-.15.41.28.6.27,1.06a59,59,0,0,0,0,7.48c.08.68-.41,1.37.19,2.08.2.24-.44.13-.71.33,1.16.86.29,2.07.53,3.11.07.31-.23.42-.39.6a6.11,6.11,0,0,1-3.53,2.13c-1.09-.49-2.29,0-3.3-.18-2.05-.36-4.06,0-6.07-.1a24.27,24.27,0,0,0-5.06,0l-.2.23v0a2.39,2.39,0,0,0-1.55-.33c-.67.11-1.06-.45-1.48-.86s-.82-.9-1.64-.81c.67-.87.2-1.7.21-2.49,0-.56.61-1.59-.68-1.71.77-.56,0-1.14,0-1.73a6.25,6.25,0,0,0-1.09-3.9c-.35-.51.19-.9,0-1.5-.37-1.47-1.34-2.81-1-4.45a2.49,2.49,0,0,0-.91-2.34c-.29-.25.16-.46-.05-.66.68-.68-.61-1.55.21-2.22-.79-.35-.61-1.21-1-1.78a1.21,1.21,0,0,1-.18-1c.34-1-.21-1.84-.3-2.76s-.18-1.64-.27-2.45c-.06-.51-.44-.65-.46-1-.11-1.22-1.2-2.27-.58-3.64a1.87,1.87,0,0,0-.19-1.24,13.8,13.8,0,0,1-.84-4.59,12.42,12.42,0,0,0-.56-1.83,13.18,13.18,0,0,1-.36-4.48c0-.27-.18-.36-.32-.51a1.69,1.69,0,0,1-.27-1.88c.08-.2.1-.34,0-.47-.66-.81,0-2-.77-2.76,0,0,0-.07,0-.08.89-.7-.09-1.29-.14-1.93a15.45,15.45,0,0,0-.46-2.19,2.17,2.17,0,0,0-.13-.28c1.12-.63.17-1.31-.08-1.8a13.93,13.93,0,0,1-.56-2.89,9.85,9.85,0,0,1-.62-3.2A5.34,5.34,0,0,0,169,285c0,.59-.63,1.12-.57,1.82,0,.25-.07.57.06.74.25.35.33.45-.18.66-.76.31-.21,1.06-.26,1.56a48.93,48.93,0,0,1-1.17,6.6c-.15.61.22,1.29-.36,1.94s0,1.82-.35,2.49c-.57,1-.4,2.11-.76,3.1-.63,1.7-.63,3.52-1.11,5.25a6.82,6.82,0,0,1-.67,1.78c-.54.9-.24,2-.42,3.05a12.56,12.56,0,0,1-.77,3.69.35.35,0,0,0,0,.17c.15,1.79-.61,3.39-1,5.07,0,0,0,.1,0,.1-.89.34-.44,1.23-.72,1.83s-.34,1.53-.6,2.27a14.7,14.7,0,0,0-.94,2.8,20.13,20.13,0,0,1-1.26,5c-1,2.35-.93,4.94-2,7.27-.36.77,0,1.89.11,2.85,0,.18.32.47,0,.49-1.07.08-1.51,1-2.25,1.57-.47.33-.93-.26-1.25.22-.33-.25-.6.26-.88.1-1.08-.62-2.25-.14-3.35-.2-1.44-.08-2.92.05-4.39,0-1.88-.13-3.77.45-5.65,0-1.54.72-3.39,0-4.92-1.82a1.51,1.51,0,0,1-.27-1.36,2,2,0,0,0-.17-1.38c-.12-.39.73-.28.63-.94-.1-.13-.49.14-.65-.16.73-1,.29-2.21.32-3.29,0-1.27-.16-2.66,0-3.85s-.73-2.34.26-3.36c-.52-.45-.39-1-.33-1.61.1-.89-.26-1.79.07-2.67.1-.11.35-.17.14-.38a1.13,1.13,0,0,0-.17-.12l-.14.35a.71.71,0,0,1-.13-1,5.3,5.3,0,0,0,.22-3.46,1.28,1.28,0,0,1,.15-.86.64.64,0,0,0,0-.95c-.53-.56-.13-1.26,0-1.78a20.77,20.77,0,0,0,0-4c0-.94.41-1.86.22-2.57-.31-1.16-.05-2.3-.34-3.41-.16-.63.32-1.08.27-1.7-.14-1.71,0-3.47-.14-5.14C133,300.31,133.2,299,133,297.73Z" style="fill:#e86166;"/><path d="M211.72,76.36c0,.81,0,1.62,0,2.43q0,3.55,0,7.11c0,1,.74,2,0,2.83-.92,1-.11,2-.17,3,0,.54-.26.78-1,1,.59.07.9.08.93.5s-.31.3-.51.4-.29.13-.24.38c.3,1.5-.32,2.83-.78,4.2s-1.62,2-1.74,3.39c-.05.58-.71.56-.93,1.1a25.31,25.31,0,0,1-1.07,2.85c-.6,1.07-1.53,1.91-2.08,3a16.48,16.48,0,0,1-1.67,2.43c-.65.84-1.12,2-2.27,2.38a2.64,2.64,0,0,0-1.34,1.25,2.65,2.65,0,0,1-1.59,1.41c-.86.26-1.49,1.27-2.35,1.81a7.68,7.68,0,0,1-2.33,1.19,8.61,8.61,0,0,0-1.12.56c-1.51.59-2.73,1.88-4.52,1.86-.45,0-.89.95-1.35,0-.19.19-.35.48-.58.55a25.66,25.66,0,0,1-5.49,1c-.86.08-1.87-.22-2.68.46-.15.13-.49,0-.74,0a9.8,9.8,0,0,0-2.74-.15c-1.67,0-3.28.53-5,.28a14.15,14.15,0,0,0-3.59,0,7.51,7.51,0,0,1-2,0c-.56-.08-1.11,0-1.66-.09a4.46,4.46,0,0,1-2-.4c-.77.3-1.61.07-2.4.37-.45.17-.94-.22-1.43-.29-2.28-.3-4.67-.2-6.82-1.2-.89-.42-1.85-.24-2.74-.56a20.77,20.77,0,0,1-4-1.92c-.78-.48-1.68-.51-2.42-1a10.68,10.68,0,0,1-1.83-1.3c-.83-.91-2.27-1.12-2.84-2.21s-1.69-1.44-2.42-2.22a7.84,7.84,0,0,1-1.58-2.12,12.29,12.29,0,0,0-1.36-1.91,25.44,25.44,0,0,1-2.66-4c-.27-.57-.06-1.32-.63-1.75-1.07-.8-.71-2.54-2.06-3.15.13-1.07-1-1.63-1.08-2.62a5.13,5.13,0,0,0-.5-2.19c-.15-.28-.24-.53,0-.78s.15-.5-.18-.59-.43,0-.42-.36.34-.42.64-.49a1.5,1.5,0,0,1-.52-2.12,1.31,1.31,0,0,0-.08-1.34,3.38,3.38,0,0,1-.41-2.56,18.62,18.62,0,0,0,.12-4.89c-.07-1.68,0-3.35.11-5a1.13,1.13,0,0,0-.13-.49c-.14-1.45.39-2.91,0-4.36-.24-1,.16-1.88.09-2.88-.22-3.26-.08-6.54-.08-9.82.34-.38.75,0,1.12-.06,1.89-.13,3.78-.09,5.67-.2.44,0,.77.52,1.21.16s.6,0,.52.33a19.9,19.9,0,0,0,0,2.89,5.05,5.05,0,0,0,.34,2.63c.2.43.8.65.43,1.4-.26.53.36,1.22.67,1.66s.23,1.27.64,1.81,1.37.87,1,1.88c-.08.21.35.28.41.44.14.41.85.42.67,1a5.27,5.27,0,0,1,0,1.36,8.55,8.55,0,0,0,0,4c.46,2,.36,4.11,1.65,5.85a1.3,1.3,0,0,1,.19.83c0,.57.27.81.69,1.07.66.4,1.63.73,1.84,1.31.36,1,1.15.8,1.77,1.09.39.18.39-.52.8-.33,1.82.84,3.58.12,5.34-.23,2.23-.45,3.23-2.75,5.24-3.54,0,0,.08-.12.09-.19.09-1.15,1.05-1.63,1.79-2.23,1.12-.91,2.47-1.49,3.66-2.32.58-.4,1-1,1.75-1.28.46-.14.79.11,1.21,0a13.61,13.61,0,0,1,4.74-.79c1.6.06,3.22-.2,4.82-.12.72,0,1.6-.15,2.12.17a3,3,0,0,0,1.86.69A1.7,1.7,0,0,1,175,79c1,1.21,2.43,1.76,3.69,2.58A9.54,9.54,0,0,1,181.31,84c.22.31-.15.8.25.79,1.29,0,1.61,1.2,2.32,1.82,2.22,1.94,4.78,2.32,7.53,2.18.45,0,.83-.39,1.38,0,.21.14,1.3.09,1.43-.37.26-.92,1-1.15,1.64-1.53a2.63,2.63,0,0,0,1.46-2.24,3.57,3.57,0,0,1,.78-1.52c.23-.34.47-.78.38-1.08a3.8,3.8,0,0,1,.34-2.27,9,9,0,0,0,.31-1.86c.09-1.54-.13-3.06-.08-4.59,0-.14,0-.32,0-.4.44-.51,1.2-.74,1.06-1.7s1-.85,1.19-1.57c0-.07.09-.14.07-.2-.2-.82.45-1.3.71-1.94.18-.45.67-1,.13-1.57-.17-.18-.18-.21.07-.34.71-.34.7-1.06.81-1.71a22.53,22.53,0,0,0,.05-3.31c0-1.11.76-.8,1.29-1,.11,0,.26.14.4.14,1.64,0,3.28-.05,4.92-.12.68,0,1.39-.49,2,.17a3.12,3.12,0,0,0-.15,1.28c0,.89.11,1.78.08,2.67-.07,2.4-.17,4.81-.11,7.22,0,.67.33,1.44-.35,2C212.13,74,211.43,75.24,211.72,76.36ZM153.85,92.59c-1.46-.07-2,.62-1.77,2.08a4.08,4.08,0,0,1,0,2,7.29,7.29,0,0,0,0,2.1c0,.79-.33,1.67.74,2.08a.32.32,0,0,1,0,.17c-.9,1,.86,1.46.46,2.34,1.62.84,2.09,2.76,3.53,3.76,1.05.73,2,1.74,3.41,1.69a4.85,4.85,0,0,1,2.2.64,8.09,8.09,0,0,0,3.67.69,5.34,5.34,0,0,1,2.4,0,6.3,6.3,0,0,0,2.74-.42c.58-.16,1-.77,1.77-.57.22.06,1-.33,1.52-.38A6.26,6.26,0,0,0,177.8,107a18.6,18.6,0,0,0,2.44-2.95c1.14-1.43,1.26-1.37,1.36-3.08a.33.33,0,0,1,.15-.25c1.29-.43.54-1.55.63-2.27.18-1.33-.35-2.71,0-4.1.12-.45.2-1.15-.45-1.35a14.34,14.34,0,0,0-3.43-.93c-.49,0-1,.16-1.42.09A49.63,49.63,0,0,0,170,92c-2.38,0-4.78-.06-7.18.05s-4.81.09-7.21,0C154.86,92,154.48,92.65,153.85,92.59Z" style="fill:#e86166;"/><path d="M269.81,158.23c-.95.62-2,.24-3,.27a13.28,13.28,0,0,1-4-.63c-.29-.08-.55-.44-.87-.15a.93.93,0,0,0-.18,1,16,16,0,0,1,.23,5.51c-.07,1,.26,1.89.13,2.83a27.32,27.32,0,0,0-.09,5.15,21.43,21.43,0,0,1,.27,3.45c-.21,1.94.06,3.87-.24,5.83-.26,1.67,0,3.44-.15,5.16-.15,1.53.16,3.12-.05,4.54-.18,1.21.26,2.22.16,3.31-.21.88-.41,1.76-.62,2.64a1.11,1.11,0,0,0,.41,1.11c-.12.14.06.34,0,.38-.9,1-.05,2.29-.4,3.36-.46,1.4.58,3-.54,4.26.54,1.81.27,3.68.41,5.51.06.77.32,1.58-.33,2.25a.39.39,0,0,0-.1.29,8.1,8.1,0,0,1-.1,2.95,8.27,8.27,0,0,0,.06,1.84c.15,1-.18,1.49-1.18,1.69s-2-.42-3-.51c-1.13-.1-1.79-1.08-2.88-1.05a1,1,0,0,1-.69-.25c-.83-.85-2-1-3-1.51a47.27,47.27,0,0,0-7-2.65,10.69,10.69,0,0,1-1.52-1q0-8,0-16A11.35,11.35,0,0,1,246.7,200c.45.41,1.09.32,1.64.67a10.53,10.53,0,0,0-.11-3.39c-.11-.56.56-1.07.33-1.84a3.83,3.83,0,0,1,0-2.86c.09-.19-.52-.36-.44-.91s-.2-1.25.4-1.81c.33-.31-.17-.73-.15-1.18.06-1.85.45-3.71,0-5.55a1.68,1.68,0,0,1,.11-1,2.07,2.07,0,0,0,.15-1.26,11.91,11.91,0,0,1-.17-3.49c-.06-1.78,0-3.57,0-5.36s-.23-3.74-.18-5.59a35.7,35.7,0,0,1,.22-5.45,17.74,17.74,0,0,0-.12-3.14c0-1.19,0-2.39,0-3.58a3.38,3.38,0,0,0,0-1.66c-.5-1.08.41-2.14,0-3.14s.17-1.72.2-2.57c.41,0,.74,0,.62-.57s.17-1.29-.83-1.17q.4-2.32.8-4.64c.08-.49.49-.81.75-1.15,1.12-1.5,2-3.13,3.09-4.65a16.36,16.36,0,0,0,2-4.32,10.58,10.58,0,0,0,.74-3.43,12.75,12.75,0,0,1,.42-3.66c.15-.54-.5-.87-.42-1.41a9,9,0,0,0,0-2.95c0-.15.07-.46.16-.48,1-.23,1.53-1.45,2.83-1.33a5.3,5.3,0,0,1,2.48.45c1.57.91,1.61,2.42,1.8,3.88,0,.17,0,.42.08.55a1.25,1.25,0,0,1,.26,1.55c-.16.32,0,.69.16,1,.18.51.41,1-.06,1.58s.26,1,.23,1.68c-.11,2.26.36,4.56-.67,6.73-.28.58,0,.71.5.6,1-.21,2.07-.07,3-.67a.6.6,0,0,1,.51,0,1.94,1.94,0,0,0,1.39.09c1.4-.29,2.78-.64,4.17-1,.21.37.48.26.67,0a1.6,1.6,0,0,1,1.44-.46c.39.12.64-.41,1-.24a.94.94,0,0,0,1.14.69,10.84,10.84,0,0,1,2.83,2.95.78.78,0,0,1-.26,1.21c-1.73.74-2.83,2.46-4.84,2.84-1.52.28-3,.88-4.56.76-.45,0-.75,0-.89-.64a5.47,5.47,0,0,0-1-1.74c-.15-.22-.36-.25-.58.08a3,3,0,0,0-.09,3.22c.39.81,1.61,1.65,2.35,1.29s1.62.1,2.41-.25,1.76-.18,2.61-.71c.56-.35,1.46-.21,2.13-.61.18-.1.42-.08.51-.33.34-.93,1.35-.88,2-1.34.42-.29,1.94.52,2.17,1.07.14.33.2.69.35,1,.31.63,1,1.39-.57,1.08-.24,0-.36.29-.44.54-.48,1.57-1.91,2.1-3.18,2.7A22.37,22.37,0,0,1,274.6,148c-.87.25-1.74-.25-2.66,0-1.1.31-1.49-.67-2-1.37a.77.77,0,0,0-1.29.16,2.31,2.31,0,0,0,.84,2.68c1.09.59,2.15,1.28,3.51.48.27-.16,1,.12,1.55,0a19.81,19.81,0,0,0,6.09-1.87c.69-.39,1,.36.88.65-.19.73-.16,1.6-.94,2.09-1.14.72-1.92,1.91-3.36,2.25a8.13,8.13,0,0,1-1.54.28c-.35,0-.63,0-.83.27-.07.12-.1.32-.28.25-1.48-.6-3-.1-4.53-.29-.73-.09-1.29-.34-1.41-1.19-1,1.21-1.11,2.28,0,2.64.91.29,1.72.93,2.89.78s2.46-.08,3.69-.2c.46,0,.94.08,1.36-.24a.68.68,0,0,1,1,.21c.3.48-.26.47-.51.57a13.74,13.74,0,0,1-3.43,1.23,3.24,3.24,0,0,0-1,.56c-.33-.12-.58-1-1-.1l-.71.18C270.38,157.28,270.13,157.95,269.81,158.23Zm-12.5-6a21,21,0,0,0,3.16-1.82,7.4,7.4,0,0,0,3.26-3.66,9.47,9.47,0,0,0,1-5,1.4,1.4,0,0,0-.84-1.21c-.66-.22-.52.6-.79.93a.62.62,0,0,0-.1.31,9.05,9.05,0,0,1-2.62,5.85,10.37,10.37,0,0,1-2.88,2.16c-.95.37-.56.82-.58,1.21A3.8,3.8,0,0,0,257.31,152.26Z" style="fill:#f3bd1e;"/><path d="M112.38,240.65c.08.87-.5,1.55-.8,2.27a23.7,23.7,0,0,1-1.27,2.81c-.29.5-.13,1.09-.38,1.67a19.35,19.35,0,0,0-1.51,4.82c-.25,1.69-1.09,3.14-1.46,4.78-.6,2.72-1.74,5.29-2.42,8-.29,1.15-1,2.2-1.34,3.39-.57,2-1.3,4-1.75,6.09s-1.28,4.08-1.75,6.17-1,4.14-1.49,6.21a27.64,27.64,0,0,1-1,3.94.6.6,0,0,0,.37.79c1.74.62,2.7,2.17,4,3.34a7.07,7.07,0,0,0,.82.58c.84.59.43,1.58.81,2.32.22.45-.52.65-.84,1a4,4,0,0,1-3.51-1c-.32-.31-.53-.88-1.11-.64a1,1,0,0,0-.64,1.38c.06.16-.14.4-.19.61-.35,1.78-.69,3.56-1,5.35-.06.42.29.92-.29,1.23a.33.33,0,0,0-.1.48c.61.83.24,1.54-.24,2.24-.09.13-.23.19-.09.43.49.8.14,1.7.05,2.49-.19,1.7-.91,3.34-.44,5.09-.07.08-.2.18-.19.25.08.57.17,1.37-.49,1.4s-1.9.07-2.27-.59a3,3,0,0,1-.39-2.12,3.71,3.71,0,0,0,.06-.63c.3-1-.59-2.27.5-3.2,0,0,0-.14-.06-.19-.75-.94-.31-2-.3-3a11.2,11.2,0,0,0-.4-2.27c-.07-.34-.32-.36-.59-.28s-.18.23-.17.43a22.69,22.69,0,0,1-.28,6,3.3,3.3,0,0,0,.2,2.38,1.42,1.42,0,0,1-.11.19c-.27.34-.09,1.12-.68,1.07a2.09,2.09,0,0,1-1.76-.86c-.38-.64-.87-1.24-.65-2.07.65-.52.05-1.19.19-1.71.47-1.79-.2-3.63.32-5.42.19-.66-.57-.71-1-.83a.47.47,0,0,0-.64.41c-.1,1.56-.14,3.12-.22,4.68a1.82,1.82,0,0,1-.21.94c-.3.41-.06.68.07,1a3.55,3.55,0,0,1-3.07.51c-.87-.54-.48-1.43-.49-2.19.08-2.08.18-4.15.22-6.23,0-.62.47-1,.52-1.63.18-2,.38-4,.58-6a.72.72,0,0,0-.26-.67c.66-1.55.2-3.26.69-4.84a.64.64,0,0,0-.21-.78A4.43,4.43,0,0,0,84,288c-.13-.75.33-1.48.35-2.31.08-3,1.12-5.9,1.81-8.82a37.06,37.06,0,0,0,.6-3.86c0-.37-.1-.76.42-.89.14,0,.34-.18.22-.4-.54-1,.08-1.82.28-2.73a16.27,16.27,0,0,0,.28-2.67,14.58,14.58,0,0,1,.71-3.94s0-.09,0-.11c1-1.12.74-2.57,1.11-3.84a26.82,26.82,0,0,0,.75-3,19.34,19.34,0,0,1,1.7-4.56c.59-1.34.92-2.78,1.39-4.13.77-2.21,1.94-4.25,2.52-6.54a11.29,11.29,0,0,1,1.62-4.19c.7-.93.29-2.23,1.15-3.07.63.1,1.39.09,1.81.53,1.32,1.4,3.17,2,4.63,3.09s3.53.76,4.37,2.64l.16-.06c.66-.27,1,.22,1.37.59S111.87,240.55,112.38,240.65Z" style="fill:#f3bd1e;"/><path d="M181.13,297.45a2.74,2.74,0,0,1-2.7-1c-.8-.93-1.53-.31-2.26-.48-.06-1,.31-2,0-3.06a10.14,10.14,0,0,1,.12-3.13,9.8,9.8,0,0,0-.16-3.52c-.35-1.14.25-2.35.25-3.56a6.65,6.65,0,0,0-.24-1.16,24.42,24.42,0,0,1,.16-3.32c0-2.34-.2-4.69-.07-7a10.23,10.23,0,0,1,.26-3.14c0-.07.05-.18,0-.21-1.08-1.11.31-2.39-.26-3.6-.17-.35.14-1-.15-1.53s.76-.74.28-1.43.62-1.37.38-2.17c0-.08.22-.21.06-.35-1.07-1-.22-2.39-.59-3.59-.2-.63.18-1.56-.13-2.35a.29.29,0,0,1,.17-.36c.72-.33.39-.68.14-1.19a3.51,3.51,0,0,1,0-2.82.56.56,0,0,0,0-.51,3.12,3.12,0,0,1-.19-2c-.1-1.88.45-3.75-.15-5.64-.2-.64.31-1.46.28-2-.06-1,.23-2-.29-2.92-.37-.65.29-1.11.21-1.77a16,16,0,0,1,0-4c.07-.54-.36-.75-.3-1.23a31.19,31.19,0,0,0,.25-3.23c0-1,.36-2.29.09-3.08-.51-1.48.15-2.8,0-4.19-.08-.58-.91-1.48.31-1.93a1.78,1.78,0,0,1-.35-.49c-.29-.84.74-1.34.41-2.12,0-.08.29-.19.14-.32-1.16-1-.27-2.42-.63-3.63a3.93,3.93,0,0,1,0-2.34c.78-.92,0-1.48,0-2.17s-.23-1.59.32-2.28a.4.4,0,0,0,0-.31c-.58-2-.13-4,0-6,0-.75-.44-1.39-.46-2.17s.33-1.44.29-2.22a37.87,37.87,0,0,1-.07-5.24,2.86,2.86,0,0,1,1.15-2c2-1.67,3.82-3.58,5.72-5.38,1.31-1.24,2.53-2.67,4.31-3.38,1.29-.52,1.93-1.83,2.88-2.77,2.22-2.19,4.5-4.31,6.62-6.58a2.1,2.1,0,0,1,.94-.52c.82-.18.33-.53.16-.88.87-.07,1.68,0,2.07-1.12a3.88,3.88,0,0,1,1.3-1.28,2.28,2.28,0,0,0,1.08-2.3c.42,1.08,1.57,1.33,2.17,2.13,1.24,1.65,2.94,2.9,4,4.7a1.26,1.26,0,0,1-.77.72c-1,.32-1.55,1.29-2.22,2a7.26,7.26,0,0,1-2.45,1.72c-.06,0-.17.08-.17.1.3,1.08-1.16,1-1.24,1.88,0,.51-.83.48-1.24.79-.65.49-1,1.48-2.06,1.47a.81.81,0,0,0-.55.69c0,.5-.4.54-.69.7s-.48,0-.51.1c-.27.74-1,.89-1.53,1.33s-.49.87-1.2.83c-.42,0-.37.65-.61,1-.6.81-1.57,1-2.26,1.69a15.09,15.09,0,0,1-2.54,2.39c-2,1.21-3.26,3.17-5.13,4.47a1.11,1.11,0,0,0-.37,1.18,11.62,11.62,0,0,1,.34,4.85c-.23,2.59,0,5.19-.31,7.78-.23,2-.73,3.95-.17,6,.08.27-.31.65-.34,1-.13,1.43.07,2.91-.63,4.25,0,.06,0,.18,0,.21,1.2,1.06-.12,2.36.28,3.55.12.37-.27,1.23,0,1.67.81,1.17-.57,2.41.24,3.52-.85.89.34,2-.3,2.92a1.09,1.09,0,0,0,0,.85c.5,1.38-.09,2.84.36,4.24a1.39,1.39,0,0,1-.47,1.82c-.26.15-.15.49.07.66.6.47.36.94.15,1.53s-.89,1.37.18,2c.31.17.14.66-.06,1a1.78,1.78,0,0,0-.16,1.67c.46.9-.11,2,.55,2.79.1.13,0,.33-.24.4-.54.17-.45.31-.07.66s0,1,0,1.42c-.16,1.47.39,2.87.19,4.34a12.51,12.51,0,0,0-.18,2.53c0,.52-.2,1.07.07,1.58.4.77-.34,1.31-.37,2-.05,1.54,0,3.09-.08,4.62a22.1,22.1,0,0,0,0,3,11,11,0,0,1-.41,3.4,3.21,3.21,0,0,0,.13,2.11c.43,1,0,2.05-.12,3.07a2.76,2.76,0,0,0,.09,2s.06,0,.09.06c-1.06.68-.13,1.49,0,2.14.16.93-.54,1.71-.21,2.59-1.23.82.36,1.68,0,2.59a2.65,2.65,0,0,0-.08,2.08.94.94,0,0,1-.29,1.17.78.78,0,0,0-.08.92,2.4,2.4,0,0,1,.22,2.38c-.13.33.19.8.18,1.24,0,1.54,0,3.07,0,4.61a2.83,2.83,0,0,1-.44,1.95c-.25.31-.36.73-.06,1S181.14,297.09,181.13,297.45Z" style="fill:#173847;"/><path d="M161.68,245.91a12.4,12.4,0,0,1-.13,2.15,4,4,0,0,0,.18,1.69,1.46,1.46,0,0,1-.08,1.23c-.24.58-.86,1.19.16,1.65.05,0,.08.23,0,.31-.6,1.2-.25,2.54-.21,3.72s-.79,1.89-.42,2.92c.11.3-.19.75.43.78a.19.19,0,0,1,.15.32c-.43.59-.16,1.09,0,1.71a10,10,0,0,1-.1,2.07,15.82,15.82,0,0,0,0,1.81c.16,1.36-.31,2.7-.09,4.07a23.89,23.89,0,0,0,.19,3.12c.26.93-.19,1.91-.15,2.9a18.4,18.4,0,0,0,.25,4.2c.1.34-.14.53-.17.79a8.28,8.28,0,0,0,.08,3.6,2,2,0,0,1,0,1.29c-.6,1.42-.11,2.86-.19,4.28-.07,1.13.33,2.23-.1,3.43a4,4,0,0,0,.33,2.2c-1.3-.7-2.1.14-3,.72a8.13,8.13,0,0,1-3.3,1A.66.66,0,0,1,156,297c.72-.25.68-.38.09-.84-.75-.59-.58-1.57-.51-2.36a14.38,14.38,0,0,0-.17-5.28c-.11-.38.12-.77.17-1.16a19.19,19.19,0,0,0,0-4.7.29.29,0,0,1,0-.11c.51-1.81-.25-3.59-.12-5.39.06-.82,0-1.65,0-2.48,0-.65.25-1.09,1.09-1.07-.82-.06-1.11-.3-.94-1.13.21-1-.13-2.13,0-3.17a17.9,17.9,0,0,1,.24-3.41,5.05,5.05,0,0,0-.15-2c-.23-1.28.11-2.54,0-3.74-.1-.91.29-1.74,0-2.64a3.5,3.5,0,0,1,0-2.25,1.52,1.52,0,0,0-.07-1.15,2.8,2.8,0,0,1,.82-3.35c-1.29-.77-.94-2-.88-3.12a19.31,19.31,0,0,0-.14-4.88,3.61,3.61,0,0,1,.12-1.16,33,33,0,0,0,0-4.92c0-3.18-.36-6.37,0-9.55.19-1.73,0-3.45.17-5.2.23-1.91-.18-3.9-.13-5.84.06-2.41-.09-4.82.1-7.24.07-.85-.27-1.76-.19-2.7a1.25,1.25,0,0,1,.93-1.24c-1.24-.79-.91-2-.87-3.07a22.44,22.44,0,0,0-.13-4.93,1.84,1.84,0,0,1,.13-.95c.47-1.21-.33-2.47.23-3.73.18-.41-.36-1.12-.83-1.54a22.77,22.77,0,0,1-4.34-4.34c-.45-.69-1.31-.84-1.87-1.43-.92-1-2.14-1.61-2.7-3-.12-.31-1.15-.62-1.65-1.11s-1.55-.75-1.28-1.89c0-.09-.64-.38-1-.5s-.63-.06-.76-.35c-.66-1.46-2.36-1.95-3.09-3.25-.94-1.66-2.71-2.32-3.88-3.59-1.49-1.61-3.47-2.72-4.64-4.63l4.08-4.59c.12-.13.28-.31.45-.13a43,43,0,0,1,3.3,3.46c1,1.4,2.29,2.6,3.3,4s2.34,2,3.33,3.17a6.09,6.09,0,0,0,2.71,1.67,7.72,7.72,0,0,1,2.06,1.56,23.11,23.11,0,0,1,3.64,3.8c.53.7,1.57,1.27,2.27,2.05,1.37,1.52,2.76,3,4.18,4.49a9,9,0,0,0,1.9,1.55,2.12,2.12,0,0,1,.87,2.47,7.17,7.17,0,0,0,0,3,3.19,3.19,0,0,1,0,1.63c-.6,2.05-.18,4.09,0,6.13a.75.75,0,0,1,0,.42c-.56.95,0,1.88,0,2.82a1.84,1.84,0,0,1-.16,1.14c-.3.51-.87,1.11.16,1.52,0,0,.07.23,0,.31-.66,1.23.08,2.57-.3,3.9-.17.58.16,1.37-.49,1.92.66.37-.47,1.48.69,1.65-.07.41-.13.82-.22,1.22,0,.07-.16.11-.24.17,1.12,1.14.2,2.41.24,3.62a5.18,5.18,0,0,0,.26,1.31c.11.36.32.55-.18.92s0,1,0,1.59c0,1.63.26,3.28.17,4.88a46.61,46.61,0,0,0-.08,5.77,26.27,26.27,0,0,1-.26,4.16c0,.43.5.52.42.94s0,1.12-.15,1.7C161.27,242.47,161.74,244.2,161.68,245.91Z" style="fill:#173847;"/><path d="M159,123.14a4.46,4.46,0,0,0,2,.4c.55.07,1.1,0,1.66.09a7.51,7.51,0,0,0,2,0,14.15,14.15,0,0,1,3.59,0c1.74.26,3.35-.25,5-.28a9.8,9.8,0,0,1,2.74.15,1.66,1.66,0,0,0,0,1.34c.16.88-.48,1.7,0,2.64.29.61-.13.82-1.14.4.49.65.39,1.38,1,1.88a1.24,1.24,0,0,1,.15,1.13,27.06,27.06,0,0,0-.24,4.48.42.42,0,0,0,.07.31c.81.66.84,1.8,1.75,2.5a16.13,16.13,0,0,1,2.49,2.34c.86,1,2.09,1.61,2.84,2.72a6.11,6.11,0,0,0,1.71,1.89c.67.4,1.26.92,2,1.28-.61.45-.52,1.6-1.59,1.61,0,0,0,.05-.07.08a40.33,40.33,0,0,1-3.7,3.88c-.78.8-1.88,1.45-2.29,2.4a3.11,3.11,0,0,1-1.77,1.64c-.85.43-1.1,1.48-2,1.9-.2.09-.21.36,0,.57a.23.23,0,0,1-.09.36c-1.44.27-1.79,1.72-2.75,2.51-.52.42-.78,1.26-1.29,1.56a17.86,17.86,0,0,0-2.81,2.6c-.43.39-.37.5-.92,0a7.28,7.28,0,0,0-.62-.42,14,14,0,0,1-2.71-2.4c-1-1.2-2.24-2.16-3-3.55-.07-.13-.26-.48-.6-.33-.18.08-.41.09-.42-.16,0-1.38-1.3-1.81-2-2.66a2.31,2.31,0,0,0-1-.55c-.79-.24-.49-1-.91-1.37-1.42-1.22-2.65-2.64-4-3.93a7.38,7.38,0,0,1-2-2.37c-.49-1.73.68-2.87,1.72-3.73a21.86,21.86,0,0,0,2.46-3.1c.39-.46,1-.84,1.15-1.5.18-.11.35-.31.55-.33,1-.11,1.19-.58.78-1.43a15.55,15.55,0,0,0,1.71-2.37c.52-.67.28-1.59.46-2.39a25.1,25.1,0,0,0,.28-4.37c0-.71-.32-1.58-.25-2.41,0-.07,0-.16,0-.21C159.4,125.08,158.9,124.1,159,123.14Z" style="fill:#f3bd1e;"/><path d="M121.7,39c.93.42,2.06.1,2.91.8.09.07.36.1.4,0,1-1.32,2.29-.18,3.44-.45,1.76-.42,3.61.11,5.45-.08a10.46,10.46,0,0,1,3.69.1c.72.19,1.43-.19,2.2-.13,1.55.12,3.14-.18,4.68,0a24.58,24.58,0,0,0,3.14.08,14.71,14.71,0,0,0,4-.25c.52-.15.94.17,1.43.2,1.32.08,2.63-.25,3.92-.07,1.92.27,3.84,0,5.75.17,1.67.14,3.37-.1,5.05-.11.87,0,1.71.24,2.56.15,1-.11,2,0,3-.12,2.16-.15,4.31.24,6.48,0a12.7,12.7,0,0,1,3.69.08c.82.15,1.72-.15,2.57-.08,1.83.14,3.66-.12,5.5,0a7.14,7.14,0,0,0,3.47-.08,1.34,1.34,0,0,1,1.42.1.36.36,0,0,0,.3.07c1.41-.6,2.87.29,4.24-.1s2.91.39,4.39-.06a6.65,6.65,0,0,1,2.28.18,2.57,2.57,0,0,0,2.54-1.33c.31.21.22.55.15.8a3.23,3.23,0,0,0,.86,2.91c.39.47-.11.64,0,1a13.61,13.61,0,0,1,.62,3.37,59.13,59.13,0,0,1-.17,6.6c-.14,1,.2,2.14.09,3.22a28.39,28.39,0,0,0-3.36,0c-1.48.27-2.87-.05-4.29.08l-.11,0A1.7,1.7,0,0,1,201.79,55c-.39-.8-.27-1.82-1.06-2.41-.22-.16-.69-.36-.68-.39.57-1.47-1-1.81-1.42-2.72.32-1,1.24-1.91.43-3.18-.33-.52.19-1.64-1.16-1.24-.17,0-.36-.34-.27-.68s.36-.39.15-.73c-.35.34-.57-.05-.86-.13-.71-.19-1.06-.87-1.67-1.25a17.3,17.3,0,0,0-4.35-1.66c-2.41-.72-4.89-.32-7.33-.48-.26,0-.26.16-.31.34A10.89,10.89,0,0,1,182,43.8a2,2,0,0,0-.32,1.32c-2.56.24-4.57,1.67-6.61,3l-.23-.3c-.23.52-.45.49-1,.26-.38-.16-.94-.57-1-.55-1,.55-1.39-.58-2.1-.79s-1.45-.27-1.79.57c-.07.17,0,.56-.2.51-.94-.18-.82.59-1,1.06a.67.67,0,0,1-.54.47,12.86,12.86,0,0,1-4.58.23,16.52,16.52,0,0,0-3.73-.57l-1.66-1.68c-.08-.41-.41-.25-.66-.29h0c0-.39-.48-.57-.49-.72-.06-.62-1.73-.68-.37-1.74a1.19,1.19,0,0,1-1.34-.54A15.81,15.81,0,0,0,153,42.28a12.12,12.12,0,0,0-3-2.16,1.31,1.31,0,0,0-.72-.18,18.36,18.36,0,0,1-5.13.13c-3-.33-5.6,1-8.34,1.67-.43.11-1.22-.27-1.5.51a4,4,0,0,0-.38,2.64c.21.65.43,1.33-.35,1.8a.41.41,0,0,0-.14.24c.75.69.18,1.88,1,2.55-.5.67-1.57,1.2-1.48,2,.14,1.2-1.14,1.18-1.28,2,0,.07-.06.14-.07.21-.21,1.84-.3,1.87-2.08,2-.83.07-1.63-.05-2.44,0a42.43,42.43,0,0,0-5.7.14L121.5,50c0-.1,0-.26,0-.28-1.69-.76-.07-1.75-.12-2.6s.82-1.9.8-3a3,3,0,0,0-.06-.79c-.21-.78-.46-1.59.19-2.32.26-.29.37-.59-.08-.88A1.06,1.06,0,0,1,121.7,39Z" style="fill:#e86166;"/><path d="M301.18,108.94c0,.44.18,1-.68.79-.17,0-.19,0,.07.74-.35.6.43,1.24-.11,1.85s-1.08,1.54-1.75,2.19c-.83.8-2,1.72-2.17,2.58-.32,1.34-1.48,1.83-2,2.93a9.74,9.74,0,0,1-1.66,2.23.69.69,0,0,1-.87.21,3.48,3.48,0,0,1-1.34-3,3.27,3.27,0,0,1,.9-2.33c1-1,1.37-2.42,2.44-3.36.28-.24.43-.67.91-.66.24,0,.6,0,.46-.4s0-.6-.47-.75a8.93,8.93,0,0,0-2.55-.2c-2.1,0-4.19-.25-6.28-.28a7.49,7.49,0,0,0-2.48,0,1.36,1.36,0,0,1-1.47-.64,1.29,1.29,0,0,1,0-1.5,1.15,1.15,0,0,0-.15-1.81c-.62-.54,0-1.15.17-1.49a48.19,48.19,0,0,0,2.48-5c.68-1.4,1.29-2.9,1.92-4.35.09-.21.4-.53.09-.78a.78.78,0,0,0-.83,0c-1.4.74-2.89,1.28-4.33,1.91a42.12,42.12,0,0,1-4.64,2.26,6.08,6.08,0,0,0-1.79,1.27c-.31.25-.55.58-1,.66a4.57,4.57,0,0,0-1.92-1.16c0-.28.06-.59-.37-.66-1.18-.18-1.11-1.13-1.14-2a16.16,16.16,0,0,0-.55-4.15,3.15,3.15,0,0,1,.12-2.21c.11-.24-.41-.85-.42-1.35a17.32,17.32,0,0,1,.07-3.64c.09-.46-.34-.69-.35-1.17,0-1.63-.28-3.25-.4-4.88,0-.48-.51-.75-.43-1.34.05-.38-.52-.2-.71.08-.52.76-1,1.55-1.49,2.31-1,1.52-2.18,2.94-3.22,4.45-.33.49-.35,1-.7,1.53a48.72,48.72,0,0,0-3.81,6c-.72,1.42-1.5,2.79-2.35,4.12a.83.83,0,0,0-.91.08c-.22,0-.57.07-.63,0a1.47,1.47,0,0,0-2.19-.67c-.16.08-.3-.07-.42-.24-.68-.92-1.72-1.47-2.41-2.4-.39-.51-1.19-.44-1.71-1a29.16,29.16,0,0,0-2.69-2.16c-.13-.11-.47-.13-.31-.46s.13-.47-.18-.45a2.13,2.13,0,0,0-.92.25c-.28.16.08.38.06.52-.2,1.32.84,2.53.22,3.9-.37.81.23,1.63.25,2.49a20.59,20.59,0,0,1-.39,3.44c0,.12-.24.2-.11.42.88,1.47.09,3.13.5,4.63.29,1-.3,2.19.5,3.18.37.46-.2.75-.49,1l-1.3.19a2.44,2.44,0,0,1-2.25-1.77,14.69,14.69,0,0,1-.58-3.53c0-1.08.52-2.39-.24-3.51a1.33,1.33,0,0,1,0-1c.56-1.53-.27-3.05.1-4.64a7.77,7.77,0,0,0-.37-4.28c-.2-.55.09-.88.08-1.32a19.43,19.43,0,0,0-.51-3.62c-.12-.56.09-1.18.86-1.15a1.5,1.5,0,0,0,1.64-1c.09-.23.33-.32.38-.2.41,1,1.49,1.08,2.24,1.57,1.63,1,3.19,2.18,4.81,3.23a19.84,19.84,0,0,0,3.7,2.42,1.19,1.19,0,0,1,.61.53c.45,1.2.88.44,1.31,0,1.07-.07.28-.87.49-1.27.76-.24.31-1.08.78-1.57a1.88,1.88,0,0,1,.93-.7c.58-.16,1.13-.41.69-1.22a1,1,0,0,1,.25-1.17c.79-.82,1.1-2,1.75-2.76,1.11-1.28,1.79-2.85,3-4A9.54,9.54,0,0,0,265,77c.54-1.3,1.71-2.1,2.16-3.39.23-.65.93-1,1.28-1.58a.66.66,0,0,1,1.06-.06c.83,1.29,2.38,2,2.74,3.65a39,39,0,0,1,.8,4.66c.13,1.43.76,2.82.64,4.29-.13,1.66.52,3.26.42,4.87a14,14,0,0,0,.47,4.61,5.27,5.27,0,0,1,.06,1.18c0,.39-.37.9.26,1.1a1.68,1.68,0,0,0,1.71-.18A12.25,12.25,0,0,1,280.16,94a17.38,17.38,0,0,0,1.63-.85c1.1-.63,2.4-.81,3.39-1.63.18-.15.37-.3.58-.24,1,.31,1.69-.46,2.23-1,1.1-1,2.43-1,3.71-1.15.32-.05.67.06.68.51,0,1.74.58,3.64-.52,5.13s-1.15,3.4-2.14,4.93a38.2,38.2,0,0,0-2.58,5.15,1.47,1.47,0,0,0-.2.58c0,.63-.79,1.21-.36,1.82s1.11,0,1.72.12c1.45.27,3-.08,4.42.57.27.12.23-.17.24-.33s.15-.35.23-.21c.79,1.22,1.84,0,2.75.29.46.13,1,0,1.41.37.05,0,.13.13.17.12a3.2,3.2,0,0,1,3,.71c.2.29.33.19.42-.08ZM272.77,83.53l.16-.1s0-.08-.05-.08l-.17,0Z" style="fill:#e86166;"/><path d="M198.63,49.47c.46.91,2,1.25,1.42,2.72,0,0,.46.23.68.39.79.6.67,1.62,1.06,2.41A1.7,1.7,0,0,0,204,56.09l.11,0c1.42-.13,2.81.2,4.29-.08a28.39,28.39,0,0,1,3.36,0,1.83,1.83,0,0,0,1.41.13c.44-.1,1-.29,1.3.32a4.32,4.32,0,0,1-2.6,3.3c-.62-.66-1.32-.2-2-.17-1.64.07-3.28.09-4.92.12-.13,0-.29-.17-.4-.14-.53.15-1.27-.16-1.29,1a22.53,22.53,0,0,1-.05,3.31c-.11.65-.1,1.37-.81,1.71-.26.12-.24.16-.07.34.54.55,0,1.12-.13,1.57-.25.64-.91,1.12-.71,1.94,0,.06-.06.13-.07.2-.15.73-1.31.76-1.19,1.57s-.62,1.19-1.06,1.7c-.07.08,0,.27,0,.4a2.94,2.94,0,0,0-1.29.88,7.91,7.91,0,0,1-3.12,2.21,10.67,10.67,0,0,1-2.37,1.2c-1.5.26-3,.38-4.51.64a23.58,23.58,0,0,1-5.35-.19,9.18,9.18,0,0,1-4.61-1.45,17.19,17.19,0,0,1-3.42-2.37c-.31-.33.4-.58-.2-.75a2.37,2.37,0,0,1-2-2.51c0-.29-.21-.23-.34-.28-.56-.22-.78-.74-1-1.21-.11-.21.29-.37.06-.75-.53-.88-1.57-1.68-.82-2.94.05-.09,0-.18-.14-.23-.83-.29-.77-1.06-.83-1.7-.08-.85,0-1.72-.05-2.58s.26-1.74-.09-2.32-1.46-.09-2.19-.39a1.36,1.36,0,0,0,.36-1.26c-.45-.71-.28-1.66-.93-2.25a13.6,13.6,0,0,1,3.14.1c.87.1.89-.4,1.3-.61.68-.34,0-1.08.53-1.53s1.3-.85.94-1.8c0-.06.17-.21.28-.3.61-.45.79-1.45,1.82-1.34.14,0,.24-.11.21-.3-.07-.5.39-.72.59-1.08,2-1.38,4-2.81,6.61-3a16.74,16.74,0,0,1,2.83-.25,12.94,12.94,0,0,1,4.16.14c1.11.22,2.36.28,3.55.4a2.5,2.5,0,0,1,1,.38,16,16,0,0,0,2.71,1.47c.93.32,1.19,1.33,2,1.65C197.54,49.87,198.09,49.66,198.63,49.47Zm-17.58.25c-.07,0-.17,0-.2.05-1.19,1.35-3.21,1.69-4.1,3.42-.21.4-.85.21-1,.87-.41,1.44-1.06,2.81-1.42,4.28a22,22,0,0,0-.37,4c-.14,2.14,1,3.84,1.44,5.76.29,1.18,1.33,1.89,2.28,2.66,2.09,1.67,2.25,1.82,4.15,2.27a22.74,22.74,0,0,0,7.64.2c1-.11,2.12,0,3-1a15.57,15.57,0,0,1,2.05-1.57,5.61,5.61,0,0,0,1.93-2,36.17,36.17,0,0,0,1.53-4.54,7.26,7.26,0,0,0,.29-2.74,21.63,21.63,0,0,0-1.16-5.27,8.1,8.1,0,0,0-2.7-3.87c-1.44-1.08-2.69-2.4-4.66-2.46-1.7,0-3.39-.2-5.09-.2C183.43,49.57,182.26,50,181.05,49.72Z" style="fill:#53b8cb;"/><path d="M139.76,153.68c.7-.44,1.06-1.32,2.07-1.41.54,0,1.15.07,1.27.36.4,1,1.56,1.12,2.19,1.91s1.28,1.5,1.92,2.26a19.83,19.83,0,0,0,3.17,3.38,27.43,27.43,0,0,1,3.44,3.62,46,46,0,0,0,3.77,3.66,19.14,19.14,0,0,1,4.07,4.74c.34.57.93,1,1.31,1.54.65.95,1.7,1.57,2.09,2.75a.82.82,0,0,0,1,.33.69.69,0,0,1,1,.23c.57.79,1,.49,1.59-.08,1.35-1.35,2.62-2.76,4.09-4a19.68,19.68,0,0,0,2-2.64,32,32,0,0,1,3.77-3.77,37.61,37.61,0,0,0,4.56-4.75c1.06-1.3,2.52-2.11,3.55-3.44a20.76,20.76,0,0,0,1.64-1.94c.53-.94,1.43-1.45,2-2.3.19-.3.46-.7,1-.48.21.09.28,0,.36-.24.48-1.14,1.41-1.58,2.34-.91a5,5,0,0,1,1.84,2.55c.63,1.88-.41,2.82-1.6,3.77-.35.28-.69.5-.69,1,0,.09-.11.26-.17.26-1.33,0-1.08,1.48-1.82,2a9.65,9.65,0,0,0-1.68,1.58c-.5.59-1.07,1.22-1.56,1.84-.67.83-1.25,1.76-2,2.52-1.66,1.72-3.73,3-5.08,5.06-.21.31-.63.48-.91.76-2.65,2.62-5.56,5-7.77,8-.79,1.08-2.1,1.51-2.74,2.69-.15.28-.46.17-.7.11a1.16,1.16,0,0,1-.57-.3c-.6-.71-1.41.26-2-.29s-.5-1.41-1.42-1.5c-.54-.05-.73-.65-.94-1-.83-1.3-2.36-1.48-3.42-2.36-1.47-1.22-2.93-2.47-4.27-3.81a37.81,37.81,0,0,1-4.48-4.76,1.08,1.08,0,0,0-.38-.36,13.44,13.44,0,0,1-3.33-3.18c-.75-.84-1.55-1.69-2.2-2.55-1-1.26-2.35-2.09-3.12-3.46-.11-.19-.37-.31-.22-.66s.14-.78-.44-.29c-.26.22-.52-.06-.59-.29a4,4,0,0,0-1.74-2c-.62-.46-1.22-1.1-.65-2a1.1,1.1,0,0,0,0-1,1.73,1.73,0,0,0,.27-1h0A.2.2,0,0,0,139.76,153.68Z" style="fill:#53b8cb;"/><path d="M121.44,55.75a42.43,42.43,0,0,1,5.7-.14c.81,0,1.62.11,2.44,0,1.78-.15,1.88-.18,2.08-2,0-.07.05-.13.07-.21.14-.82,1.42-.8,1.28-2-.09-.75,1-1.29,1.48-2,.31.12.62.25.86-.12-.5-.27-.16-.31.06-.58a7.71,7.71,0,0,1,2.65-2,14.38,14.38,0,0,1,2.77-1.35,24.52,24.52,0,0,1,4.51-.63,16.07,16.07,0,0,1,4.18.17c1.08.22,2.3.27,3.46.39a2.91,2.91,0,0,1,1.28.54,20.74,20.74,0,0,0,2.37,1.16h0c.12.33.42.23.66.29l1.66,1.68c0,.11,0,.29.07.31.93.29,1.84,1.22,1.86,1.78,0,1.15,1,1.48,1.33,2.25,0,.09.12.25.08.3-.63.71.74.82.42,1.42a3.05,3.05,0,0,0,1.47-.13c.2-.08.35-.26.56,0a1.89,1.89,0,0,1-.19.83c-.89,1.64-1.77,3.28-2.6,4.95-1.4,2.8-2.15,5.9-3.84,8.56-.25.4.41.84-.16,1-.8.26-.41.69-.21,1.09.1.21.41.33.28.64-.44,1-.08,1.62,1,1.84,0,0,.05.06.06.09a.12.12,0,0,1,0,.09c-1,.59-1.75,1.64-2.94,2.07-1,.38-1.93,1.14-3,1.42-1.42.37-2.93.41-4.39.65a24.19,24.19,0,0,1-5.46-.19A8.77,8.77,0,0,1,139,76.73c-1.29-.83-2.91-1.31-3.68-2.67-.38-.68-.88-.5-1.28-.79.18-.59-.53-.6-.67-1-.06-.16-.49-.23-.41-.44.39-1-.55-1.32-1-1.88s-.22-1.23-.64-1.81-.93-1.13-.67-1.66c.37-.75-.23-1-.43-1.4a5.05,5.05,0,0,1-.34-2.63,19.9,19.9,0,0,1,0-2.89c.08-.33,0-.75-.52-.33s-.77-.19-1.21-.16c-1.89.11-3.79.07-5.67.2-.37,0-.77-.32-1.12.06-2.45,0-2.62-.26-1.7-2.44C120.06,56.12,120.9,56.16,121.44,55.75ZM135.11,65a22.23,22.23,0,0,1,1.24,3.37,7.07,7.07,0,0,0,2.2,2.46,8,8,0,0,0,6.1,2.52c.8,0,1.6.09,2.43,0,2.12-.2,4.38.44,6.23-1.18.07-.07.21-.06.3-.11a12.44,12.44,0,0,0,3.35-2.7c1-1,1.16-2.72,1.67-4.08a13.69,13.69,0,0,0,.38-4.66c0-2.19-1.06-4-1.58-5.94a4.6,4.6,0,0,0-2.27-2.52c-1.28-.8-2.19-2-4-2.23a35.34,35.34,0,0,0-7.43-.17c-.74.07-1.77-.12-2.17.23-1.31,1.16-3.21,1.6-4,3.32-.16.33-.64,0-.86.6A35.62,35.62,0,0,0,135,58.72a10.25,10.25,0,0,0-.19,3.58C134.94,63.17,134.9,64.08,135.11,65Z" style="fill:#53b8cb;"/><path d="M112.38,240.65c-.51-.1-.76-.54-1.09-.86s-.72-.86-1.37-.59l-.16.06c-.83-1.88-3-1.59-4.37-2.64s-3.3-1.69-4.63-3.09c-.41-.44-1.18-.43-1.81-.53-.31-1-1.21-1.16-2-1.51-.06,0-.2,0-.21,0-.53-1.28-2.08-1.11-2.88-2a.56.56,0,0,1-.16-.58c.45-.68-.11-1.59.52-2.23a.46.46,0,0,0,.09-.4,3.14,3.14,0,0,1,.87-3.42c.51-.58.37-1.44.8-2.16s.4-1.45.92-2.05a2.68,2.68,0,0,1,3.11.44,1.19,1.19,0,0,0,.79.28c.91,0,1.29.61,1.88,1.14a9.9,9.9,0,0,0,2.32,1.86c.76.34,1.28,1,2,1.24a26.76,26.76,0,0,1,5.56,2.88c2.09,1.42,4.61,2.05,6.56,3.8.65.58,1.41,1.51,2.57,1.47.09,0,.32.32.28.41-.41,1,.48.57.81.77,1,.62,2.22.86,3,2,.26.4,1,.73,1.45,1.17.13.12.39.31.27.4-1.1.83,0,2.43-1.09,3.18a3.07,3.07,0,0,0-1.25,1.9c0,1.08-1.16,1.5-1,2.52a1.08,1.08,0,0,1-.55,1.11,1.14,1.14,0,0,0-.65,1.23c0,.66-.92.51-1.06,1.1-.47-.49.13-1.09-.21-1.67-.19-.32-.3-.61-.66-.72-2-.6-3.6-1.94-5.48-2.74a9.61,9.61,0,0,1-2.21-1.48A1.08,1.08,0,0,0,112.38,240.65Z" style="fill:#173847;"/><path d="M83.66,290.24a.64.64,0,0,1,.21.78c-.49,1.58,0,3.29-.69,4.84a14.85,14.85,0,0,0-1.77,2.42,14.69,14.69,0,0,1-1.14,1.58c-.59.93,0,1.91-.54,2.75-.39.62-.46,1.2.68,1.38a1.49,1.49,0,0,0-.79,2c.28,1.25.49,2.52.72,3.78-.46-.28-.9-.74-1.39-.81-1.39-.2-2.43-1.14-3.7-1.56-1.46-.49-2.68-1.54-4.22-1.81-.59-.1-.68-.74-1.24-1a27.78,27.78,0,0,1-3.58-1.76,2.71,2.71,0,0,0-1.41-.6c-.68,0-.92-.8-1.42-1.18-.95-.73-1.48-1.9-2.55-2.54A1.13,1.13,0,0,1,60.2,297c.08-.23-.35-.79-.5-1-1.06-1.18-.68-2.47-.57-3.77a2.7,2.7,0,0,0-.26-1.88c-.4-.62.55-2.37,1.06-2.83a14.12,14.12,0,0,0,1.54-1.72,15.66,15.66,0,0,1,2.11-1.79c.45-.4,1-.7,1.2-1.29.08-.2.34-.52.43-.35.57,1,1.32.24,2,.25,1,0,1.52.86,2.23,1.38a2.48,2.48,0,0,0,2,.78c.28-.05.73.39,1,.7a1,1,0,0,0,1.09.39.62.62,0,0,1,.6.15c1,1,2.5,1.05,3.65,1.77s2.64.89,3.8,1.82A3.73,3.73,0,0,0,83.66,290.24Z" style="fill:#53b8cb;"/><path d="M94.8,316.5c-.47-1.76.25-3.4.44-5.09.09-.79.44-1.7-.05-2.49-.15-.24,0-.3.09-.43.47-.7.85-1.42.24-2.24a.33.33,0,0,1,.1-.48c.59-.31.23-.82.29-1.23,1-.45,1.36-1.48,2.1-2.17a2.46,2.46,0,0,1,1.57-.92,4.53,4.53,0,0,0,2.76-1,4,4,0,0,1,1.54-.71,17.54,17.54,0,0,1,2.47,1.32,2.07,2.07,0,0,0,1,.09c.23,0,0-.67.38-.35s.64.5.43,1c-.06.13-.09.27-.17.52a1.32,1.32,0,0,1,1.91.52c.6-.29-.49-.77.29-.92.5-.1.54.35.76.61.38.44.54,1.19,1.53.78.59-.25.74.72,1.12,1.11.8-.81,1.23-.72,1.8.36a.83.83,0,0,1,0,.31c1.17-.36,1.81,1,2.86.89.23,0,.5,0,.6.09.79.79,2.16.32,2.76,1.13.36.48,1.41.18,1.21,1.15a.22.22,0,0,0,.29.22c.88-.43.51.33.38.48-.28.33-.21.53,0,.81,1.06,1.2.89,2.93,1.77,4.21a.33.33,0,0,1,0,.31c-.73.77-.21,1.76-.49,2.63s-1,1.62-.8,2.64a6,6,0,0,1-.7.84,21.38,21.38,0,0,1-2.8,3c-.55.39-.93,1.07-1.72,1.22a14,14,0,0,1-4.4-.06c-1.68-.19-3.14-1.21-4.86-1.08-1.54-1.46-3.78-1.27-5.47-2.32a13.52,13.52,0,0,0-2-1.26c-.87-.35-1.56-1.12-2.58-1.1-.54,0-.36-.61-.79-.76a12.46,12.46,0,0,0-2.68-1C95.58,317.08,95.38,316.41,94.8,316.5ZM118.88,322c.31.14.48-.09.68-.23l1.67-1.22a4.67,4.67,0,0,0,1.67-3.65c.09-1.08-1-1.89-.89-3,0,0-.2-.07-.27-.14A3.34,3.34,0,0,0,119,313c-.27,0-.53,0-.66-.27a.4.4,0,0,1,.23-.54c.84-.34.57-1.24,1-1.81.2-.28-.18-.87-.3-.8-.76.44-1.44-.17-2.2-.06a7.31,7.31,0,0,0-3.46,1.58c-.68.52-.86,1.41-1.51,1.73-1,.47-.93,1.34-1.1,2.09-.12.52-.3,1-.42,1.52-.25,1.1-.9,2.23.22,3.35.41.41,1.17,1.07,1.16,1.27,0,.85.6.9,1,1.3,1,1,4.28.57,5.07-.09C118.35,322.05,118.49,321.78,118.88,322Z" style="fill:#53b8cb;"/><path d="M150,147.84a7.38,7.38,0,0,0,2,2.37c1.36,1.29,2.59,2.71,4,3.93.42.36.12,1.13.91,1.37a2.31,2.31,0,0,1,1,.55c.71.85,2,1.28,2,2.66,0,.25.24.24.42.16.34-.15.53.2.6.33.74,1.39,2,2.36,3,3.55a14,14,0,0,0,2.71,2.4,7.28,7.28,0,0,1,.62.42c.55.49.5.37.92,0A17.86,17.86,0,0,1,171,163c.5-.3.76-1.13,1.29-1.56,1-.78,1.32-2.24,2.75-2.51a.23.23,0,0,0,.09-.36c-.17-.21-.15-.48,0-.57.88-.41,1.13-1.47,2-1.9a3.11,3.11,0,0,0,1.77-1.64c.41-1,1.51-1.6,2.29-2.4a40.33,40.33,0,0,0,3.7-3.88s0-.08.07-.08c1.06,0,1-1.15,1.59-1.61.62-.18,1.14-.16,1.34.6,0,.16.22.43.29.41,1.48-.32,1.23,1,1.36,1.64a3.14,3.14,0,0,1-.62,2.29c-.71,1.16-2.08,1.55-2.61,3a3.66,3.66,0,0,1-2.34,2.47c-.13,0-.36.16-.36.22.17,1.14-.91,1.54-1.44,2.18S181.11,161,180,161.1c-.13,0-.32.1-.35.19-.37,1.42-1.74,2-2.54,3.07s-1.72,1.72-2.51,2.67a8.31,8.31,0,0,1-2.39,2.15c-.37.2-.4.59-.55.9a4.76,4.76,0,0,1-5.51,2.33c-.36-.12-.22-.4-.4-.57-.87-.8-2.28-1.05-2.55-2.47-1-.15-1.13-1.46-2.1-1.7a.65.65,0,0,1-.32-.27,42.12,42.12,0,0,0-3.93-4.26c-.47-.5-1.5-.84-1.33-1.87,0,0-.15-.15-.25-.16-.76-.12-1.11-.94-1.54-1.15a3.29,3.29,0,0,1-1.4-1.49c-.78-1.36-2.22-2.08-3-3.45a12.44,12.44,0,0,1-.94-1.55c-.06-.16-.12-.21-.31-.29a4.28,4.28,0,0,1-2.38-4.73c.16-.51.12-1.35,1.14-1,.28.1.31-.33.44-.53s.25-.71.77-.59,1.12.47,1,.8C148.74,148.44,149.69,147.65,150,147.84Z" style="fill:#53b8cb;"/><path d="M138.23,347.11c1.88.48,3.77-.09,5.65,0,1.47.1,2.94,0,4.39,0,1.11.06,2.27-.42,3.35.2.28.16.55-.35.88-.1a16.48,16.48,0,0,1-1.06,5.45c-.19.62.22,1,.07,1.49a28.44,28.44,0,0,0-.41,4.32,32.9,32.9,0,0,0-.51,4.24,15.52,15.52,0,0,1-.6,4.4c-.41,1.46-1.07,2.85-1.43,4.34-1.5-1-3.16-.91-4.84-.65h0a7.2,7.2,0,0,1-1.27,0c-.39-.08-.8-.29-1.13,0-1.05.83-2.18.36-3.29.28a1.52,1.52,0,0,1,0-1.42c.36-.71,0-1.53.06-2.33.1-1.07-.47-2.18.1-3.27,0-.06.07-.17,0-.2-1-1.17.06-2.5-.31-3.76a7,7,0,0,1,.08-2.34,40.73,40.73,0,0,0,0-5.36A40.41,40.41,0,0,1,138.23,347.11Z" style="fill:#f3bd1e;"/><path d="M186.31,347.3a24.27,24.27,0,0,1,5.06,0c2,.09,4-.27,6.07.1,1,.18,2.2-.31,3.3.18-.3,2.16.12,4.32,0,6.48a15.9,15.9,0,0,0-.08,3c.29,1.83-.2,3.65.14,5.5a13.13,13.13,0,0,1-.11,2.59,21.1,21.1,0,0,1-.27,4.35c-.09.39.29,1.1.25,1.71-.14.05-.31.18-.4.14-.92-.49-2.12.6-2.94-.53-.09-.12-.51-.09-.72,0a4.08,4.08,0,0,1-1.59.13h0a8,8,0,0,0-5,.5,29.86,29.86,0,0,0-1.24-3.83,13.66,13.66,0,0,1-.67-4.61,8.38,8.38,0,0,0-.41-3.49,2.34,2.34,0,0,1-.16-1.17,22.92,22.92,0,0,0-.18-3.66c-.07-2.46-.95-4.74-1.33-7.12v0C186.29,347.55,186.31,347.43,186.31,347.3Z" style="fill:#f3bd1e;"/><path d="M241.64,197.79q0,8,0,16c-.46.43-.09.88,0,1.27.24.89-.75,1.8.1,2.69.24.26-.48,0-.46.62,0,1.33-.08,2.67-.07,4a7.7,7.7,0,0,1,0,2.3c-.05.18-.16.6.33.33.1.5-.43.89-.59.78-1.07-.76-1.94.58-3,.16-.91-.36-1.87.32-2.88.2-.34,0-1,.34-1.51.35.42-.5-.44-1.3.4-1.71a.27.27,0,0,0,0-.2c-.88-1.13-.59-2.35-.26-3.56a.71.71,0,0,0,0-.51,3,3,0,0,1-.06-2c.14-.57-.29-1.46-.25-2.22.06-1.15.22-2.29.27-3.43s-.09-2,0-3.05a15.5,15.5,0,0,1,.18-3.1c.16-.62-.16-1.43-.09-2,.14-1.23,0-2.47.22-3.66a10.88,10.88,0,0,0,.09-2.25c0-.14-.12-.31-.07-.41.61-1.34.07-2.73.18-4.07.1-1.12.15-2.25.18-3.37a17.3,17.3,0,0,1,0-3.06,13.76,13.76,0,0,0,0-2.55,33.75,33.75,0,0,1,3.79,2.48,10.74,10.74,0,0,1,2.4,2.18c.37.65,1.58,1.17,1,2.47-.21.46.2,1.5.33,2.26C241.91,195.73,241.14,196.74,241.64,197.79Zm-7.15-2.1-.08.06s0,.07.06.07.05,0,.08-.05Z" style="fill:#173847;"/><path d="M211.83,59.76a4.32,4.32,0,0,0,2.6-3.3,2.85,2.85,0,0,0,2.09-.75.31.31,0,0,1,.52.15c.31.91.8.64,1.33.24a.39.39,0,0,0,.11.19c.06.69.79.43,1,.49.8.17,1.49.61,2.26.81.07,0,.12.08.19.1,1,.27.92.43,2.28,1.44a6.24,6.24,0,0,1,1.51,1.34,10.92,10.92,0,0,1,1.64,3.85,13.14,13.14,0,0,1,.28,2.59c0,1.3-.82,2.33-1,3.55-.15,1-1.07,1.5-1.47,2.25-.52,1-1.43,1.44-2,2.28a.94.94,0,0,1-.61.4c-1.29.06-2,1.33-3.27,1.44a14.93,14.93,0,0,0-2.76.33,4.62,4.62,0,0,1-3.12-.54c-.56-.3-1.16-.09-1.72-.23-.28-1.13.42-2.37-.4-3.43.68-.57.36-1.34.35-2-.06-2.41,0-4.81.11-7.22,0-.89-.05-1.78-.08-2.67A3.12,3.12,0,0,1,211.83,59.76Z" style="fill:#f3bd1e;"/><path d="M119.74,56.87c-.92,2.18-.75,2.43,1.7,2.44,0,3.27-.14,6.56.08,9.82.07,1-.33,1.91-.09,2.88.36,1.45-.17,2.9,0,4.36a13.2,13.2,0,0,0-3.09,1.05c-.53.27-.79-.32-1.26-.38a16.67,16.67,0,0,1-2.23-.24c-.92-.24-1.8-.62-2.69-.94.34-.69-.47-.29-.54-.58-.65.22-1-.13-1.18-.68s-.8-.18-1-.58c-.43-1.08-1.66-1.67-2-2.58a8.52,8.52,0,0,1-1-3.15c0-.45-.36-.64-.44-1.05a6.45,6.45,0,0,1,.06-2.14,9.21,9.21,0,0,1,.69-2.39A17.35,17.35,0,0,1,108.34,60c.08-.11.13-.28.24-.34a11.14,11.14,0,0,0,2.61-2.3s.09-.07.13-.07a4,4,0,0,0,3.09-.59c.28-.14.95.4.89-.41a.39.39,0,0,0,.11-.19c.47.31,1,.77,1.28-.18.06-.18.32-.45.5-.24.63.76,1.55.62,2.35.85C119.64,56.54,119.68,56.75,119.74,56.87Z" style="fill:#f3bd1e;"/><path d="M138,371.1c1.11.09,2.24.55,3.29-.28.33-.26.74,0,1.13,0a7.2,7.2,0,0,0,1.27,0c-.14.16-.29.34-.12.53s.26,0,.33-.1.19-.46-.22-.43c1.68-.27,3.34-.39,4.84.65.54.15,1.06.28.7,1.06s.79.51.69,1.08c.59.06.43.56.38.83a13.62,13.62,0,0,0,0,3.73,1.19,1.19,0,0,1-.11.66c-.63,1.53-.33,3.17-.36,4.74,0,.88-.09,1.77-.7,2.18a2.1,2.1,0,0,1-2.29-.33c-.55-.39-1-.87-1.57-1.31.13-.35.27-.7.4-1.06s-.1-.47-.43-.42c-.07-.43,0-.93-.55-1.13a.09.09,0,0,0,0-.15,3.31,3.31,0,0,1-.46-2.22c.13-.68-.79-1.24-1.53-1.11a36.5,36.5,0,0,1-5.67.12c-1.61,0-3.22,0-4.83.08-.26,0-3-.35-3.32-.42a2,2,0,0,0-.54,0c-2,0-2.72-.94-2.09-2.93a3,3,0,0,1,.52-1.27c.49-.47.07-.74-.12-1.08,1.38-.28,2.47-1.15,3.84-1.41a16,16,0,0,1,5.29.18A3,3,0,0,0,138,371.1Z" style="fill:#173847;"/><path d="M195.07,370.89a4.08,4.08,0,0,0,1.59-.13c.21-.09.64-.12.72,0,.82,1.13,2,0,2.94.53.08,0,.26-.09.4-.14a5.36,5.36,0,0,0,2.63,0,13.83,13.83,0,0,1,5.66.14c1,.25,1.58,1.21,2.63,1.15,0,0,.15.07.15.09-.19,1.43.77,2.64.78,4.05,0,1-.77,1.06-1.3,1.14a51.35,51.35,0,0,1-7.77.54c-2.29,0-4.57,0-6.86,0-.67,0-1.44-.58-2,.12-.4.51-.11,1.24-.27,1.85-.23.83-.92,1.49-.88,2.41-1,.39-.12.85,0,1.27a6.46,6.46,0,0,1-2,1.68c-.54.31-1.41.68-1.94.16a2.24,2.24,0,0,1-.61-2.14c.19-.79-.22-1.63,0-2.45.26-1.14-.55-2.12-.41-3.27a14.43,14.43,0,0,0,0-3.61.57.57,0,0,1,.21-.63c.45-.39,1.15-.73.76-1.61-.22-.49.6-.29.64-.69a8,8,0,0,1,5-.5c-.31,0-.36.17-.23.41s.22.25.34.13S195.21,371.05,195.07,370.89Z" style="fill:#173847;"/><path d="M100,8.73c.14-1.16.59-1.41,1.61-1A2.88,2.88,0,0,1,103.07,9c.12.25.49.54.26.75-1.24,1.13.82,2.65-.47,3.74a2.58,2.58,0,0,1,.29,2.4c-.2,1,.21,2,0,2.76-.52,1.61.18,3.07.1,4.6a29.55,29.55,0,0,0,0,3.28c.09,1.43-.17,2.86-.1,4.32a3.1,3.1,0,0,0,1.71,3c.56.28.66,1.05.94,1.53.53.89.22,1.66.31,2.47,0,.27.17.58-.26.71s-.21.55-.1.7c.84,1.18.47,2.31-.16,3.38-.3.52.19.79.17,1.21-.05,1-.06,1.93-.06,2.9,0,.23-.08.36-.28.38a23.37,23.37,0,0,0-4.14,1c-.63.16-1.24-.54-1.88,0,0,0-.09-.06-.08-.08.26-1.07-1-1.5-1-2.42,0,.08.11.19.2.1s0-.17,0-.26a7.17,7.17,0,0,1-.81-3.2c0-.55.35-1.25.16-1.74s.43-.91.05-1.46.44-1.18.38-1.88a5.37,5.37,0,0,1,.16-1.91c.17-.61.31-1.32,1.14-1.53s.43-1.14.41-1.57c-.14-2.51.08-5,0-7.53s-.08-5.14-.06-7.71c0-.42-.29-1.05.51-1.16,0,0,.07-.12.1-.18-1.18-.59.57-1.55-.28-2.21-.39-.3-.09-.75,0-1,.41-1-.53-2,.27-3C100.7,9.1,100.07,9,100,8.73Z" style="fill:#e86166;"/><path d="M14.47,84c1.63-.05,2.66.24,3.46,1.55C19.56,88.25,21,91,22.45,93.83c.16.3.29.69.72.86,1.18.48,1.08,1.8,1.65,2.68.11.16-.12.3-.24.44s-.6.49-.6.74c0,1.2-.94,1.1-1.63,1.17a2.77,2.77,0,0,1-2.46-1.08c-.62-.75-1.26-1.49-1.89-2.24A4.58,4.58,0,0,1,17,94.72c-.21-.86-1.15-1.46-.85-2.46a.34.34,0,0,0-.1-.29c-1.46-1.08-1.88-2.85-2.85-4.24-.5-.71-.87-1.27-.52-2.11a.19.19,0,0,0,0-.1c-.28-1.1.06-1.48,1.37-1.5Z" style="fill:#e86166;"/><path d="M39.56,323.42c-.18-.19-.4-.47-.2-.66a2.77,2.77,0,0,0,.62-2.33c0-.56.43-.56.68-.81a21.68,21.68,0,0,1,2.89-2.47c.85-.59,1.59-1.53,2.48-2.14a16.87,16.87,0,0,1,3.45-2.38c.56-.21.55-1,1-1.06,1-.24,1.58-1.19,2.57-1.43.37-.09.44-.65.88-.71l1.12,2c-.12.28.08.46.22.65-.09.88-1.24,1.19-1.17,2.16A14.89,14.89,0,0,1,51,316.06c-.34.19-1.31-.17-.79.89.13.26-.47.09-.67.43-.7,1.21-2,1.75-3,2.61a24.25,24.25,0,0,0-3.76,3.13.92.92,0,0,1-.81.39c-.86-.25-.85.3-.89.84a.25.25,0,0,0-.19,0h-.89C39.94,324,40.08,323.56,39.56,323.42Z" style="fill:#e86166;"/><path d="M40.59,304.46c-1.19-.07-2.24.54-3.4.66a21.13,21.13,0,0,0-3.64,1.14c-.65.19-1.23-.42-1.88-.51-.5-1,.22-1.92.4-2.88.73-.46,1.26-1.23,2.18-1.39,2.37-.41,4.65-1.2,7-1.58a30.41,30.41,0,0,1,3.73-.47c.86,0,.72.77,1.18,1.06.29.18,0,.56-.33.75a.31.31,0,0,0-.12.45c.52.93-.3,1.35-.75,1.92a4.45,4.45,0,0,1-.56-.26,1.16,1.16,0,0,0-1.37,0c-.56.46.64.37.33.83-.66.18-1.23-.5-1.9-.19-.06-.21.19-.62-.38-.5S40.45,304,40.59,304.46Z" style="fill:#e86166;"/><path d="M45.5,288.91a2.37,2.37,0,0,1-1.31-.4c-1.56-.89-3.43-1-4.92-2.09-.62-.45-1.42.13-2.16-.3-1.06-.62-1.32-1.27-.55-2.21a19.63,19.63,0,0,1,1.41-1.5c.12-.12.44-.24.47-.2.54.65,1.25,0,1.78.24,2.38.91,5,1.24,7.15,2.71,1.42,1,1.58,1,.27,2.53A3,3,0,0,1,45.5,288.91Z" style="fill:#e86166;"/><path d="M31.15,82.76c2.15,0,3,1.52,3,3.49a.56.56,0,0,0,.07.4,7.53,7.53,0,0,1,1,2.67c.28,1.23,1.15,2.28.94,3.68a1.48,1.48,0,0,1-2,1.34,4,4,0,0,1-2.87-3.2,7,7,0,0,0-1-2.81c-.36-.5.21-1.13-.18-1.63s-.68-.9-.16-1.47c.08-.09-.07-.4-.14-.61C29.32,83.05,29.52,82.77,31.15,82.76Z" style="fill:#e86166;"/><path d="M6.07,104.12c0,.73.77.88,1.13,1.34a21,21,0,0,0,3.48,3.75c.4.31.89.95.7,1.39a2,2,0,0,1-2.17,1,2.81,2.81,0,0,1-2.46-1.14c-.25-.37-1-.12-1.39-.65a15.63,15.63,0,0,1-1.84-2.3c-.28-.52-.76-.19-1.09-.5-.8-.76-1.46-1.64-2.2-2.44a.6.6,0,0,1,.12-1A6.12,6.12,0,0,1,4.7,103s.07.12.1.19C4.84,104.05,5.28,104.33,6.07,104.12Z" style="fill:#e86166;"/><path d="M80.35,309.74c-.24-1.26-.44-2.53-.72-3.78a1.49,1.49,0,0,1,.79-2c-1.13-.18-1.07-.76-.68-1.38.52-.83,0-1.82.54-2.75a14.69,14.69,0,0,0,1.14-1.58,14.85,14.85,0,0,1,1.77-2.42.72.72,0,0,1,.26.68c-.2,2-.41,4-.58,6-.05.59-.51,1-.52,1.63,0,2.08-.14,4.15-.22,6.23C81.59,310,80.85,310.18,80.35,309.74Z" style="fill:#e86166;"/><path d="M103.88,299.71a4,4,0,0,0-1.54.71,4.53,4.53,0,0,1-2.76,1,2.46,2.46,0,0,0-1.57.92c-.74.69-1.13,1.72-2.1,2.17.34-1.78.68-3.56,1-5.35,0-.21.24-.45.19-.61a1,1,0,0,1,.64-1.38c.58-.24.79.33,1.11.64a4,4,0,0,0,3.51,1Z" style="fill:#e86166;"/><path d="M85.68,312.1c-.14-.32-.38-.6-.07-1a1.82,1.82,0,0,0,.21-.94c.08-1.56.13-3.12.22-4.68a.47.47,0,0,1,.64-.41c.48.12,1.24.17,1,.83-.52,1.79.15,3.62-.32,5.42-.14.52.46,1.19-.19,1.71Z" style="fill:#e86166;"/><path d="M90.42,314.69a3.3,3.3,0,0,1-.2-2.38,22.69,22.69,0,0,0,.28-6c0-.2-.06-.36.17-.43s.52-.06.59.28a11.2,11.2,0,0,1,.4,2.27c0,1-.46,2,.3,3,0,0,.08.17.06.19-1.09.92-.2,2.15-.5,3.2Z" style="fill:#e86166;"/><path d="M261.81,198.23a1.11,1.11,0,0,1-.41-1.11c.21-.88.41-1.76.62-2.64A8.34,8.34,0,0,1,261.81,198.23Z" style="fill:#f6c1ba;"/><path d="M218.37,56.09c.11,0,.21-.07.26.07s-.1.08-.16.12A.39.39,0,0,1,218.37,56.09Z" style="fill:#f3bd1e;"/><path d="M115.31,56.28c-.05,0-.16-.1-.16-.12s.16-.11.26-.06A.39.39,0,0,1,115.31,56.28Z" style="fill:#f3bd1e;"/><path d="M139.76,153.68a.2.2,0,0,1-.17.24Z" style="fill:#f6c1ba;"/><path d="M233.32,226.5l.23,0C233.49,226.58,233.42,226.7,233.32,226.5Z" style="fill:#173847;"/><path d="M60.18,117.15a2.22,2.22,0,0,1,3.08-.35c.34.26.57.49,1,.23s.63,0,1,.22a4.34,4.34,0,0,0,1.85,1c.66.08.63.82,1,1.21.75.83.63,2.09,1.29,3a.4.4,0,0,1-.11.58c-.77.57-.21,1,.23,1.27s.57.49.51.84c-.21,1.23.39,2.39.29,3.65-.05.63.2,1.47.23,2.23a5.24,5.24,0,0,1-.12,2.11c-.55,1,.08,2.64-1.52,3.11a.6.6,0,0,0-.32.41c-.46,2.72-2.68,3.89-4.65,5.27-.68.47-.42-.44-.76-.59.1,1-.44,1.2-1.26,1.13-1.25-.1-2.51.47-3.76-.09-.18-.08-.75.7-.8.94a12.16,12.16,0,0,0-.14,3c.06,1.1-.54,2.21,0,3.3.33.6,0,.79-.79.64.72.51.49,1.1.56,1.65a25,25,0,0,1,.06,4.32c0,1,.48,2.19-.26,3.17.68.44-.67,1.88.93,1.88.23,0,.19.22.11.41s0,.43.22.34a3.29,3.29,0,0,1,2.27.22c.14,0,.37-.15.54-.26.41-.27.79-.51,1.21,0,.22.28.47.5.73-.12.16-.37,2.4-.07,2.56.32a2.64,2.64,0,0,1-.21,1.87c-.5,1.29-1.72,2.08-2.53,3.17-.41.54-1.09-.47-1.59.12-.5-.92-1.61.24-2.12-.63-.17.21-.7-.27-.68.38,0,.14-.38.23-.59,0-.42-.56-.83-.62-1.57-.33-1,.36-1.93-.34-2.79-.75-1-.48-1.66-1.58-2.77-2a.24.24,0,0,1-.13-.16c-.15-1.83-1.88-3-2-4.91a21.81,21.81,0,0,1-.41-4,5.25,5.25,0,0,0-.25-1.77c-.12-.38-.88-1.07.24-1.29-.25-.54.74-1.19-.17-1.69a.31.31,0,0,1,0-.55c.24-.14.34-.4.16-.52-.87-.54-.32-1.5-.67-2.12s.5-.61.34-1.26a5.78,5.78,0,0,1-.31-2.76c.3-.87-.16-1.56,0-2.36s-.12-1.72,0-2.44c.48-2-.21-4.15.7-6.1a.84.84,0,0,0,.07-.42c-.21-1.9.6-3.63.93-5.44a15.87,15.87,0,0,1,.61-2c0-.13.12-.31.23-.36a2.29,2.29,0,0,0,1.31-2.33c0-.14.07-.24.27-.24,1.12,0,1.6-.61,1.23-1.58-.14-.36.07-.3.21-.43.41-.37.79-.77,1.17-1.17s.56-.6,1-.27c.19.14.51.24.54,0,.09-.67.36-.57.78-.3a.5.5,0,0,0,.4,0c.31-1.28,1.52-.59,2.23-1C59.54,116.21,60.08,116.45,60.18,117.15Zm-2.53,8.37c.18,0,.39,0,.35.29a45.64,45.64,0,0,0-.09,8.67c0,.59-.35.95-.39,1.46-.08,1,.91,1.15,1.34,1.73.18.24.6-.32.9-.49a1.19,1.19,0,0,1,1.2-.08c1.27.47,1.28.44,2-.38-.44-.5-.79.56-1.25,0,.37-.61,1.16-.54,1.61-.89s.29-1.55,1.33-1.67c-.1-.77.37-1.37.57-2,.38-1.26-.16-2.57-.16-3.87a5.44,5.44,0,0,0-.63-2.35,4.07,4.07,0,0,1-.56-2.57A1.31,1.31,0,0,0,62.25,122a4.22,4.22,0,0,1-2.22-.08c-.68-.29-2.21.27-2.09.65.35,1.07-.22,2-.27,3l-.12,0h0Z" style="fill:#e86166;"/><path d="M33.83,137.54a4.83,4.83,0,0,1-.81.23c-.24,0-.33.11-.3.33.09.65.09.68-.53.62a.77.77,0,0,0-.76.29c-.16.21-.5.46-.63.3-.51-.58-.88,0-1.3.09-1.53.2-3,.38-4.41-.66-.32-.24-.86-.88-1.5-.32,0,0-.29,0-.29-.05-.08-1.19-1-.63-1.56-.75,0,0-.09,0-.09-.05-.31-1-1.59-.77-2-1.61,0-.06-.15-.09-.15-.15A5.2,5.2,0,0,0,18,132.73a.62.62,0,0,1,.24-.84l.26-.14c-1.19-.89-.31-2.28-.81-3.42-.41-.93,0-2.2,0-3.33a17.13,17.13,0,0,1,.31-3.16c.27-1.21-.32-3,1.34-3.53a17.69,17.69,0,0,1,2.92-1,15.52,15.52,0,0,0,3.69-1.15c2.36-.94,3.33.41,3.71,2.18.28,1.3-.48,2.61-.1,3.95a.53.53,0,0,1-.26.45c-.65.24-.47.59-.16,1a.76.76,0,0,1,.24.8c-.33.71-.15,1.51-.4,2.18-.3.82.12,1.52.06,2.29a24.38,24.38,0,0,0,.35,6,1.73,1.73,0,0,1,1.28-1c1-.21,1.6-1,2.37-1.6s.94-1.77,1.83-2.25c.33-.18,0-.66.41-.76-.53-1,.18-1.49.83-2s.29-1.23.35-1.78a8.65,8.65,0,0,1,.76-3c.13-.26-.14-1-.1-1.52s-.16-1,.52-1.27c.07,0,.33-.07.13-.26-1.26-1.19-.41-2.71-.58-4.07,0-.27.76-.61,1.32-.66a2.82,2.82,0,0,1,2.1,1,8.16,8.16,0,0,1,2.1,2c.21.36.46.81.34,1.1-.46,1.12.77,2.47-.53,3.45-.27.2,0,.37.11.53a1.49,1.49,0,0,1,.06,2c-.31.37.19.4.21.68.07,1.26-.5,2.44-.36,3.68a16.2,16.2,0,0,1-.24,3.07c-.07.83.22,2-.69,2.76-.08.06-.17.24-.15.27.66.83,0,1.63,0,2.44,0,.39,0,.73-.43.86-.07,0-.11.17-.16.25.94.5.1,1.12.1,1.67,0,1.42-.09,2.84-.14,4.25,0,.11,0,.29-.07.31-1.33.37-.39,1.44-.66,2.14a6.92,6.92,0,0,1-.86,1.39c-.07.06-.16.2-.13.25.54,1.25-1,1.7-1.05,2.76,0,.15-.45.29-.7.44l-.24-.15c0,.05,0,.13,0,.15s.17.13.26,0c-.16.2-.05.31.13.41s.51-.11.39.29c-.07.22-.08.45-.47.46-.62,0-.6.08-.42.71.1.36-.39.58-.46.57-.95-.14-1.14,1.08-2,1.08-.16,0-.15.19-.11.34.23.89-.11,1.24-1.11,1.15a1.77,1.77,0,0,1-.2-.06c-.33.82-1.57.58-1.76,1.24-.36,1.26-1.29.94-1.94.76s-1,0-1.23.52c-.06.13-.12.36-.23.29-.78-.55-1.35.36-2.08.26s-1.74-.15-2.73-.22c.8-.91-.28-2.07.62-2.87-.73-.7.37-1.29.06-2.05a1.28,1.28,0,0,0,2.1-.08,1.07,1.07,0,0,1,.89-.32c.83.22,1.56.39,1.77-.76,0,0,0-.09.05-.09,1.13.35,1.12-1,1.86-1.24.4-.13.57-.87,1.24-.25.34.31.76-.53.75-.65-.06-.78.71-1.3.58-2.07a.37.37,0,0,1,.08-.3c1.15-.85,1-2.33,1.66-3.41.31-.5-.21-1.48.88-1.55,0,0,.09-.15.06-.18-.94-1.23.59-2.36.11-3.64-.31-.81.58-1.66.29-2.58,0-.13.36-.27,0-.49s-.44-.18-.57,0c-.29.43-1,.28-1.18.84a.4.4,0,0,1-.63.2C33.43,138,33.67,137.77,33.83,137.54Z" style="fill:#e86166;"/><path d="M93.25,154.36a6.86,6.86,0,0,1-2.73,3.79,15.92,15.92,0,0,0-2.31,1.77,12,12,0,0,1-4.57,2c-1,.3-2.18.35-3,1.25a.26.26,0,0,1-.19.08c-1.07-.14-2.16.6-3.23,0a1.56,1.56,0,0,0-.28-.15c-.28-.09-.82.34-.79-.05s-.24-1,.26-1.5.46-1.17,1.05-1.56c1.1-.72,1.56-2.23,3.2-2.36.47,0,.86-.92,1.63-.42.16.1.38-.24.54-.45a1.38,1.38,0,0,1,1.64-.65l0,.38c.05,0,.14,0,.15,0,.07-.18,0-.32-.19-.35l.47-9.59c-1,.41-2.14-.3-3.32-.29-.27,0-.57,0-.6-.34-.07-.57-.29-.2-.53-.16a1,1,0,0,1-1.2-1.18c0-.06.09-.14.07-.16-.19-.24-.39-.48-.7-.84-.09.9.09,1.63-1.09.76-.8-.6-1.09-1.61-2-2-.16-.07-.23-.28,0-.43s.32-.27.23-.3c-1.35-.57-.16-2.15-1.17-2.92-.31-.24.45-.51.67-.8-.63-.45-.65-.88-.14-1.49.31-.37-.06-.45-.32-.51s-.32-.14-.23-.37.2-.42.34-.34.4.44.48-.14c.06-.42,0-.52-.41-.53s-.31-.16-.24-.38c.45-1.61.11-3.32.69-4.94.24-.66.89-1.16.79-1.94,0,0,0-.08.06-.08,1.45.36.81-1.06,1.26-1.56s.78-1.2,1.58-1.27a1.51,1.51,0,0,0,.83-.41c.38-.29.89-1,1.28.05,0,.09.33.14.5.12a21.12,21.12,0,0,0,2.19-.26,2.68,2.68,0,0,1,2.56.51c.28.2.32.06.53,0,.93-.22,3.23.95,3.71,1.81.09.16.18.35.39.34,1.58-.08,1.75,1.37,2.44,2.26a.53.53,0,0,1,0,.51c-.48.46-.31.62.25.72.21,0,.63.16.47.45-.63,1.12.39,1.9.55,2.85.28,1.72-.59,2.57-2.28,2.1a4,4,0,0,1-3.13-3.24,4.07,4.07,0,0,0-1.89-2.18,4.83,4.83,0,0,0-4.08-.76c-.41.14-.68.17-.4.7a2.44,2.44,0,0,1,.15,2,3.4,3.4,0,0,0,0,1.86,8.07,8.07,0,0,1-.07,2.49,17.62,17.62,0,0,0,0,4.39c.08.41.42.44.76.47a2.63,2.63,0,0,1,1.73.86c.38.41.83.17,1.11-.35s.83-.19,1.21-.08.44.44.69.71c.19-.71.56-1,1.27-.61a9.83,9.83,0,0,1,1.75.81,15.89,15.89,0,0,1,1.34,1.71,4,4,0,0,1,.64,2.39A.67.67,0,0,0,94,147c.35.25.33.48,0,.78a.9.9,0,0,0-.24,1.38,1.34,1.34,0,0,1-.61,2.12c-.3.1-.21.37-.07.53.72.77.42,1.58.12,2.39h0c-.23-.12-.52-.14-.52.15s.33.1.52.09ZM75.31,138.53l-.06-.07-.07.06.1.08Z" style="fill:#e86166;"/><path d="M104,143.59a7.91,7.91,0,0,1,.29,2.43c0,.25.14.63-.09.69-1.22.31-1,1.47-1.39,2.25-.1.19-.16.29-.37.29-1.27,0-2.58.1-3.52-.95a1.34,1.34,0,0,1-.07-1.71c.21-.3.38-.66.16-.85-1-.92-.32-2-.16-2.88.12-.71-.3-1.74.79-2.17.89-.35,1.46.39,2.2.51s1,.19,1,.94c0,.24.12.39.41.34C104,142.32,104.16,142.72,104,143.59Z" style="fill:#e86166;"/><path d="M93.25,154.15v.21h0q0-.12,0-.23Z" style="fill:#e86166;"/><path d="M173.75,12.13c-1.42-.66-3.09,0-4.66-.46a1.15,1.15,0,0,0-1,.21,1,1,0,0,1-1.48-.11c-.39-.41,0-.72.16-1.15.25-.58.14-1.3.92-1.57a2.84,2.84,0,0,1,2.2-.3c.5.21,1-.08,1.54-.18a3.8,3.8,0,0,1,1.56-.1,7.05,7.05,0,0,0,2.64.18c.34-.06,1.09,0,1.12.61s0,1.23-.84,1.23a.42.42,0,0,0-.31.23C175.15,11.87,174.86,12.12,173.75,12.13Z" style="fill:#53b8cb;"/><path d="M140.13,10.42c-.56.1-.4.85-.92.78-.75-.1-1.48-.28-2.22-.44-.06,0-.11-.15-.12-.24a3.55,3.55,0,0,1,1.48-2.15,3.26,3.26,0,0,1,2.4,0,.94.94,0,0,0,.74,0c1.22-.6,2.42-.12,3.63,0,.14,0,.3.16.4.12,1.37-.49,1.43.09,1,1.18-.14.37,0,.95-.69.5-.22-.14-.15.16-.16.25-.13,1-.76,1.13-1.66,1s-1.72.24-2.66.07A1.41,1.41,0,0,1,140.13,10.42Z" style="fill:#53b8cb;"/><path d="M157.19,11.48c-1-.73-2.31.44-3.48-.29-.08-.05-.71.25-1.13.26s-.85.07-1.11-.55a1.27,1.27,0,0,1,.07-1.25A4.84,4.84,0,0,1,153,8.16c.51-.48,1.47-.09,1.77,0,1,.43,1.82-.42,2.7-.2s2.1-.18,3.07.46c.43.29.6.69.33,1-.49.53-.79,1.4-1.71,1.33C158.38,10.7,158,11.54,157.19,11.48Z" style="fill:#53b8cb;"/><path d="M202.93,9.59c.68.2.72.48.4.82a1.6,1.6,0,0,1-1.13.58,31.27,31.27,0,0,1-5.88-.27c-.64-.14-.6-.45-.55-.79a2.67,2.67,0,0,1,3.67-2.14c.6.19,1.28-.23,2-.11a6.54,6.54,0,0,0,2.3-.16c.39-.07,1.1,0,1,.63-.05.46,0,1.17-.85,1.2A5.29,5.29,0,0,0,202.93,9.59Z" style="fill:#53b8cb;"/><path d="M123.84,10.53c.1-1.82,1.41-2.28,3-2.4.77-.06,1.74-.78,2.51.23.08.1.54-.77,1.25-.37a5.49,5.49,0,0,0,1.12.47.6.6,0,0,1,.3,1,6.77,6.77,0,0,1-1.61,1.75c-.12.07-.33.21-.37.18-.85-.74-1.6.08-2.4.12s-1.72-.18-2.6-.09A1,1,0,0,1,123.84,10.53Z" style="fill:#53b8cb;"/><path d="M187.08,11A15.27,15.27,0,0,0,183,11c-.49,0-1.15,0-1.34-.54-.25-.7.23-1.37.47-2,.14-.36.57-.64.91-.89s.64-.41.64.22.29.5.56.2c.75-.8,1.58-.6,2.46-.28a2.08,2.08,0,0,0,1.45.2,1.24,1.24,0,0,1,1.4.55c.15.21.56.33.39.7a.61.61,0,0,1-.8.37c-.38-.1-.48.07-.62.48A1.45,1.45,0,0,1,187.08,11Z" style="fill:#53b8cb;"/><path d="M186.31,347.3c0,.13,0,.26-.2.23Z" style="fill:#fff;"/><path d="M134.05,73.27c.4.28.9.11,1.28.79.77,1.36,2.39,1.85,3.68,2.67A8.77,8.77,0,0,0,143.23,78a24.19,24.19,0,0,0,5.46.19c1.46-.24,3-.28,4.39-.65,1-.27,1.95-1,3-1.42,1.19-.44,1.89-1.48,2.94-2.07a.12.12,0,0,0,0-.09s0-.06-.05-.09c.64-.63,1.37-.09,2.05-.13,1.5-.09,3-.72,4.46-.45a3.84,3.84,0,0,0,3.76-1.41,1.51,1.51,0,0,0,.43-1.65,1.2,1.2,0,0,0-1.71,0c-.28.22-.74.13-.85.23-.43.37-1.17-1.57-1.28.19a.26.26,0,0,1-.2,0c-1-.65-2.07-.27-3.1-.49-.75-.17-1-.68-.49-1.27,1.16-1.3,1.36-3,2-4.52.22-.53.14-1.16.43-1.71s1-.46,1.06-1c.12-1.18.89-2.06,1.27-3.12.73.3,1.81-.23,2.19.39s.08,1.53.09,2.32,0,1.73.05,2.58c.06.64,0,1.41.83,1.7.14,0,.19.14.14.23-.75,1.26.29,2.06.82,2.94.23.38-.18.54-.06.75.26.47.48,1,1,1.21.13.05.32,0,.34.28a2.37,2.37,0,0,0,2,2.51c.6.17-.11.43.2.75a17.19,17.19,0,0,0,3.42,2.37A9.18,9.18,0,0,0,182.43,78a23.58,23.58,0,0,0,5.35.19c1.5-.25,3-.38,4.51-.64a10.67,10.67,0,0,0,2.37-1.2,7.91,7.91,0,0,0,3.12-2.21,2.94,2.94,0,0,1,1.29-.88c-.05,1.53.17,3,.08,4.59a9,9,0,0,1-.31,1.86A3.8,3.8,0,0,0,198.5,82c.09.3-.15.74-.38,1.08a3.57,3.57,0,0,0-.78,1.52,2.63,2.63,0,0,1-1.46,2.24c-.64.38-1.38.6-1.64,1.53-.13.46-1.22.51-1.43.37-.56-.38-.93,0-1.38,0-2.76.14-5.31-.24-7.53-2.18-.71-.62-1-1.85-2.32-1.82-.4,0,0-.48-.25-.79a9.54,9.54,0,0,0-2.67-2.34C177.38,80.8,176,80.26,175,79a1.7,1.7,0,0,0-1.26-.45,3,3,0,0,1-1.86-.69c-.53-.32-1.41-.13-2.12-.17-1.6-.07-3.22.18-4.82.12a13.61,13.61,0,0,0-4.74.79c-.42.14-.75-.12-1.21,0-.78.24-1.17.88-1.75,1.28-1.19.83-2.54,1.4-3.66,2.32-.73.6-1.7,1.09-1.79,2.23,0,.07,0,.17-.09.19-2,.79-3,3.09-5.24,3.54-1.76.35-3.53,1.07-5.34.23-.41-.19-.41.51-.8.33-.62-.29-1.4-.09-1.77-1.09-.21-.59-1.18-.91-1.84-1.31-.42-.26-.74-.5-.69-1.07a1.3,1.3,0,0,0-.19-.83c-1.29-1.74-1.19-3.88-1.65-5.85a8.55,8.55,0,0,1,0-4A5.27,5.27,0,0,0,134.05,73.27Z" style="fill:#f3bd1e;"/><path d="M153.85,92.59c.63.07,1-.57,1.72-.54,2.4.11,4.81.13,7.21,0S167.58,92,170,92a49.63,49.63,0,0,1,7.16.14c.46.07.93-.11,1.42-.09A14.34,14.34,0,0,1,182,93c.65.2.57.9.45,1.35-.37,1.39.15,2.77,0,4.1-.1.72.66,1.85-.63,2.27a.33.33,0,0,0-.15.25c-.11,1.71-.22,1.65-1.36,3.08A18.6,18.6,0,0,1,177.8,107a6.26,6.26,0,0,1-3.32,1.85c-.56.05-1.3.43-1.52.38-.8-.2-1.2.4-1.77.57a6.3,6.3,0,0,1-2.74.42,5.34,5.34,0,0,0-2.4,0,8.09,8.09,0,0,1-3.67-.69,4.85,4.85,0,0,0-2.2-.64c-1.37,0-2.36-1-3.41-1.69-1.44-1-1.91-2.92-3.53-3.76.41-.89-1.35-1.36-.46-2.34a.32.32,0,0,0,0-.17c-1.06-.41-.75-1.29-.74-2.08a7.29,7.29,0,0,1,0-2.1,4.08,4.08,0,0,0,0-2C151.85,93.21,152.38,92.51,153.85,92.59ZM171,95.22c.49-.42.05-.63-.08-.87-.59-1-1.77-.86-2.65-1.31a.44.44,0,0,0-.4.11c-.15.17,0,.32.15.42s.5.57,0,.53c-.62-.05-.47.27-.48.55,0,.87,0,1.75,0,2.62,0,.59-.43,1.35.17,1.74a7.33,7.33,0,0,1,1.49,1.61c.7.81,1.4.49,2.14.07.24-.13.26-.23.22-.49-.16-1.1.13-2.24-.22-3.34-.06-.2.59-.45,0-.66S171.43,95.4,171,95.22Zm-9.08,2.14a3.12,3.12,0,0,0,2.88,3.4c.55,0,1.46-.1,1.19-1.13-.36-1.39.29-2.84-.38-4.25-.39-.83-1.15-1.8-2-1.89-1.08-.11-1.28.17-1.5,1.3C161.85,95.73,162.06,96.66,161.89,97.36Z" style="fill:#173847;"/><path d="M257.31,152.26a3.8,3.8,0,0,1-.4-1.24c0-.39-.37-.84.58-1.21a10.37,10.37,0,0,0,2.88-2.16A9.05,9.05,0,0,0,263,141.8a.62.62,0,0,1,.1-.31c.27-.33.13-1.15.79-.93a1.4,1.4,0,0,1,.84,1.21,9.47,9.47,0,0,1-1,5,7.4,7.4,0,0,1-3.26,3.66A21,21,0,0,1,257.31,152.26Z" style="fill:#fff;"/><path d="M156.62,47.09a20.74,20.74,0,0,1-2.37-1.16A2.91,2.91,0,0,0,153,45.4c-1.16-.12-2.38-.17-3.46-.39a16.07,16.07,0,0,0-4.18-.17,24.52,24.52,0,0,0-4.51.63,14.38,14.38,0,0,0-2.77,1.35,7.71,7.71,0,0,0-2.65,2c-.22.27-.56.31-.06.58-.24.37-.55.23-.86.12-.79-.67-.22-1.86-1-2.55a.41.41,0,0,1,.14-.24c.78-.47.56-1.15.35-1.8a4,4,0,0,1,.38-2.64c.28-.79,1.07-.4,1.5-.51,2.74-.71,5.37-2,8.34-1.67a18.36,18.36,0,0,0,5.13-.13,1.31,1.31,0,0,1,.72.18,12.12,12.12,0,0,1,3,2.16,15.81,15.81,0,0,1,1.38,1.83,1.19,1.19,0,0,0,1.34.54c-1.36,1.06.31,1.12.37,1.74C156.14,46.52,156.65,46.7,156.62,47.09Z" style="fill:#f3bd1e;"/><path d="M198.63,49.47c-.54.19-1.09.39-.66-.56-.86-.32-1.12-1.33-2-1.65a16,16,0,0,1-2.71-1.47,2.5,2.5,0,0,0-1-.38c-1.19-.12-2.44-.18-3.55-.4a12.94,12.94,0,0,0-4.16-.14,16.74,16.74,0,0,0-2.83.25A2,2,0,0,1,182,43.8a10.89,10.89,0,0,0,1.3-3.33c0-.18,0-.36.31-.34,2.44.16,4.91-.25,7.33.48a17.3,17.3,0,0,1,4.35,1.66c.61.38,1,1.05,1.67,1.25.29.08.51.47.86.13.21.33-.09.51-.15.73s.1.73.27.68c1.35-.4.83.72,1.16,1.24C199.88,47.56,199,48.45,198.63,49.47Z" style="fill:#f3bd1e;"/><path d="M164.72,54.94c-.21-.21-.36,0-.56,0a3.05,3.05,0,0,1-1.47.13c.32-.6-1-.72-.42-1.42,0,0,0-.2-.08-.3-.36-.78-1.3-1.1-1.33-2.25,0-.56-.92-1.49-1.86-1.78-.05,0-.05-.2-.07-.31a16.52,16.52,0,0,1,3.73.57,12.86,12.86,0,0,0,4.58-.23.67.67,0,0,0,.54-.47c.16-.47,0-1.24,1-1.06.21,0,.13-.34.2-.51.34-.84,1-.79,1.79-.57s1.11,1.34,2.1.79c0,0,.59.39,1,.55.54.23.76.26,1-.26l.23.3c-.21.35-.67.57-.59,1.08,0,.19-.08.31-.21.3-1-.11-1.21.89-1.82,1.34-.11.08-.3.24-.28.3.35,1-.43,1.39-.94,1.8s.15,1.19-.53,1.53c-.41.21-.44.71-1.3.61a13.6,13.6,0,0,0-3.14-.1Z" style="fill:#f3bd1e;"/><path d="M157.27,47.37c-.23-.07-.54,0-.66-.29C156.85,47.12,157.19,47,157.27,47.37Z" style="fill:#f3bd1e;"/><path d="M181.05,49.72c1.21.26,2.38-.16,3.57-.15,1.7,0,3.39.16,5.09.2,2,.06,3.22,1.38,4.66,2.46a8.1,8.1,0,0,1,2.7,3.87,21.63,21.63,0,0,1,1.16,5.27,7.26,7.26,0,0,1-.29,2.74,36.17,36.17,0,0,1-1.53,4.54,5.61,5.61,0,0,1-1.93,2,15.57,15.57,0,0,0-2.05,1.57c-.88,1-2,.9-3,1a22.74,22.74,0,0,1-7.64-.2c-1.9-.45-2.07-.6-4.15-2.27-1-.76-2-1.48-2.28-2.66-.47-1.91-1.58-3.62-1.44-5.76a22,22,0,0,1,.37-4c.37-1.47,1-2.84,1.42-4.28.18-.66.82-.47,1-.87.89-1.72,2.91-2.06,4.1-3.42C180.88,49.73,181,49.74,181.05,49.72Zm5.76,20.7a6.74,6.74,0,0,0,2.23-1c.49-.37,1.18-.39,1.61-.89.88.79.79-.93,1.5-.58-.44-.88.47-1,.81-1.43a4.93,4.93,0,0,0,.78-4.07c0-.16-.23-.34,0-.48,1.18-1,.34-2.18.1-3-.35-1.29-.49-2.82-2-3.71-.68-.42-1-1.49-2-1.55,0-1.44-1.43-.11-1.8-.93-.05-.12-.27.18-.22.43s-.13.23-.28.23-.3,0-.33-.29c-.1-.81-.69-.66-1.14-.42-.27.14-.59.35-.78.25-1.15-.61-2.16.16-3.22.3s-1.84,1-2.7,1.58-1.26,2-1.79,3.07c-.24.48-.68,1-.67,1.45a3.33,3.33,0,0,1-.54,2.34.93.93,0,0,0-.06,1c.9,1.47,1.3,3.26,2.85,4.31.13.08.13.34.25.45.6.56.92,1.44,1.82,1.67,1.1.29,2.2.62,3.31.88C185.34,70.2,186.17,70.31,186.81,70.43Z" style="fill:#f3bd1e;"/><path d="M164.72,54.94l1.51.08c.66.59.49,1.54.93,2.25a1.36,1.36,0,0,1-.36,1.26c-.38,1.05-1.15,1.94-1.27,3.12-.06.55-.81.52-1.06,1s-.2,1.17-.43,1.71c-.63,1.52-.83,3.21-2,4.52-.52.59-.26,1.1.49,1.27,1,.23,2.14-.15,3.1.49a.26.26,0,0,0,.2,0c.11-1.75.85.19,1.28-.19.11-.1.57,0,.85-.23a1.2,1.2,0,0,1,1.71,0,1.51,1.51,0,0,1-.43,1.65,3.84,3.84,0,0,1-3.76,1.41c-1.48-.27-3,.36-4.46.45-.68,0-1.41-.5-2.05.13-1.07-.22-1.42-.82-1-1.84.13-.31-.18-.43-.28-.64-.2-.4-.59-.83.21-1.09.56-.18-.09-.63.16-1,1.69-2.66,2.44-5.76,3.84-8.56.83-1.67,1.71-3.31,2.6-4.95A1.89,1.89,0,0,0,164.72,54.94Zm.08,7s.07,0,.07-.07,0-.05-.06-.08l-.08.11Z" style="fill:#173847;"/><path d="M135.11,65c-.21-.9-.17-1.81-.3-2.68a10.25,10.25,0,0,1,.19-3.58,35.62,35.62,0,0,1,1.68-4.82c.22-.62.7-.27.86-.6.83-1.72,2.73-2.16,4-3.32.4-.35,1.43-.16,2.17-.23a35.34,35.34,0,0,1,7.43.17c1.79.21,2.7,1.43,4,2.23a4.6,4.6,0,0,1,2.27,2.52c.52,2,1.55,3.76,1.58,5.94a13.69,13.69,0,0,1-.38,4.66c-.51,1.36-.64,3.05-1.67,4.08a12.44,12.44,0,0,1-3.35,2.7c-.1,0-.23,0-.3.11-1.85,1.62-4.11,1-6.23,1.18-.83.08-1.63-.05-2.43,0a8,8,0,0,1-6.1-2.52,7.07,7.07,0,0,1-2.2-2.46A22.23,22.23,0,0,0,135.11,65Zm8.44-11.74a4.12,4.12,0,0,0-1.53.82c-.79,1.25-2.51,1.81-2.65,3.49-.06.69-.69.94-.89,1.55s.54,1.55-.36,2.09c0,0,.07.23.14.26.66.22.21.53.06.79a.88.88,0,0,0-.09.91c.47,1,.69,2.23,1.42,3s.84,1.8,1.87,2.16c.19.07,0,.82.36.59.8-.57,1.16.3,1.68.46.37.11,1,.27,1.22.65a.9.9,0,0,0,1,.48,40.67,40.67,0,0,0,5-1,3.78,3.78,0,0,0,2.47-1.51c.41-.56.6-1.32,1.25-1.66,1.49-.78,1.7-2.45,2-3.68s-.33-2.59-.66-3.88c-.21-.82-.84-1.43-1.09-2.28a3.41,3.41,0,0,0-1.44-1.79l-1.54-.93a5.69,5.69,0,0,0-3.33-.83,2.31,2.31,0,0,1-1.52-.13c-.43-.25-1-.4-1.13.44,0,.17-.06.27-.23.28a.35.35,0,0,1-.4-.24c-.28-.59-.26-.52-.68-.13-.13.13-.49.67-.87.15l.14-.24-.14,0Z" style="fill:#f3bd1e;"/><path d="M118.88,322c-.39-.27-.53,0-.84.26-.79.66-4.08,1.07-5.07.09-.4-.4-1-.45-1-1.3,0-.2-.75-.86-1.16-1.27-1.12-1.12-.47-2.26-.22-3.35.12-.5.3-1,.42-1.52.17-.75.14-1.62,1.1-2.09.66-.32.83-1.22,1.51-1.73a7.31,7.31,0,0,1,3.46-1.58c.76-.11,1.43.5,2.2.06.12-.07.5.52.3.8-.4.57-.14,1.48-1,1.81a.4.4,0,0,0-.23.54c.13.25.39.28.66.27a3.34,3.34,0,0,1,2.7.72c.07.07.27.11.27.14-.16,1.16,1,2,.89,3a4.67,4.67,0,0,1-1.67,3.65l-1.67,1.22C119.36,322,119.19,322.19,118.88,322Zm-4.61-4.23c.19,0,.18-.23.21-.46a2.6,2.6,0,0,1,.26-1.21c.66-1.12,1.79-1.68,2.7-2.49.29-.26.82-.57.67-.87s-.73-.31-1.22-.24c-.85.12-1.27.84-2,1.15s-.79,1.6-1.55,2.21c-.12.1.11,1,.38,1.54C113.84,317.67,113.92,317.82,114.27,317.82Zm5.4-1.36c-1,.88-1.34.19-1.68-.63a4,4,0,0,1-1.2,2.7,12.36,12.36,0,0,0-1,1,.37.37,0,0,0,0,.5.28.28,0,0,0,.39,0,3.2,3.2,0,0,1,2.15-.54c.18,0,.55-.28.56-.44C118.94,318.26,119.56,317.56,119.67,316.46Zm-5.05,1.94-.14-.09c0,.06-.07.12-.06.17s.08.06.13.1Z" style="fill:#173847;"/><path d="M234.49,195.69l.06.08s-.05.06-.08.05,0,0-.06-.07Z" style="fill:#53b8cb;"/><path d="M143.73,370.9c.41,0,.39.17.22.43s-.22.22-.33.1,0-.38.12-.53Z" style="fill:#f3bd1e;"/><path d="M195.07,370.89c.14.16.29.35.11.54s-.27,0-.34-.13-.08-.4.23-.41Z" style="fill:#f3bd1e;"/><path d="M98.4,45.45c0,.09.06.22,0,.26s-.16,0-.2-.1Z" style="fill:#fff;"/><path d="M57.66,125.54c.06-1,.62-1.95.27-3-.12-.38,1.41-.94,2.09-.65a4.22,4.22,0,0,0,2.22.08,1.31,1.31,0,0,1,1.57,1.41,4.07,4.07,0,0,0,.56,2.57,5.44,5.44,0,0,1,.63,2.35c0,1.3.54,2.61.16,3.87-.2.68-.67,1.28-.57,2-1,.11-.81,1.25-1.33,1.67s-1.23.29-1.61.89c.46.51.81-.54,1.25,0-.69.82-.71.85-2,.38a1.19,1.19,0,0,0-1.2.08c-.29.17-.71.73-.9.49-.43-.58-1.42-.75-1.34-1.73,0-.51.41-.87.39-1.46a45.64,45.64,0,0,1,.09-8.67c0-.26-.16-.27-.35-.29Z" style="fill:#173847;"/><path d="M57.65,125.53l-.06.06h0l.12,0Z" style="fill:#173847;"/><path d="M37.31,152c-.09.12-.18.06-.26,0s0-.1,0-.15l.24.15Z" style="fill:#173847;"/><path d="M93.26,154.14q0,.12,0,.23c-.19,0-.52.12-.52-.09S93,154,93.26,154.14Z" style="fill:#173847;"/><path d="M84.51,156.12c.23,0,.26.16.19.35,0,0-.1,0-.15,0l0-.38Z" style="fill:#173847;"/><path d="M75.31,138.53l0,.06-.1-.08.07-.06Z" style="fill:#173847;"/><path d="M171,95.22c.47.18-.13.77.47,1s-.11.45,0,.66c.35,1.1.06,2.23.22,3.34,0,.26,0,.35-.22.49-.74.41-1.44.74-2.14-.07A7.33,7.33,0,0,0,167.76,99c-.6-.39-.13-1.15-.17-1.74-.06-.87,0-1.75,0-2.62,0-.27-.14-.6.48-.55.45,0,.27-.36,0-.53s-.3-.24-.15-.42a.44.44,0,0,1,.4-.11c.88.45,2.06.3,2.65,1.31C171,94.58,171.45,94.8,171,95.22Z" style="fill:#fff;"/><path d="M161.89,97.36c.17-.7,0-1.63.15-2.57.22-1.13.43-1.42,1.5-1.3.88.09,1.64,1.07,2,1.89.67,1.41,0,2.86.38,4.25.27,1-.64,1.13-1.19,1.13A3.12,3.12,0,0,1,161.89,97.36Z" style="fill:#fff;"/><path d="M186.81,70.43c-.64-.12-1.47-.23-2.29-.42-1.11-.26-2.21-.58-3.31-.88-.9-.24-1.22-1.11-1.82-1.67-.12-.11-.12-.37-.25-.45-1.55-1-1.95-2.84-2.85-4.31a.93.93,0,0,1,.06-1,3.33,3.33,0,0,0,.54-2.34c0-.48.44-1,.67-1.45.53-1.08.82-2.45,1.79-3.07s1.64-1.43,2.7-1.58,2.07-.91,3.22-.3c.19.1.52-.1.78-.25.45-.24,1-.39,1.14.42,0,.27.14.29.33.29s.32,0,.28-.23.17-.54.22-.43c.37.82,1.81-.51,1.8.93,1,.06,1.33,1.13,2,1.55,1.47.89,1.6,2.42,2,3.71.24.87,1.08,2.09-.1,3-.18.15,0,.32,0,.48a4.93,4.93,0,0,1-.78,4.07c-.35.43-1.26.55-.81,1.43-.71-.34-.62,1.37-1.5.58-.43.5-1.12.52-1.61.89A6.74,6.74,0,0,1,186.81,70.43Zm-5.45-9.21a5.08,5.08,0,0,0,2,4.59,3.14,3.14,0,0,0,3.7.55c1.78-1.21,4-2.35,3.4-5.19.69-.89-.08-1.57-.52-2a8.41,8.41,0,0,0-1.73-1.6c-.92-.56-1.82-.13-2.7-.32-1.29-.28-1.84,0-2.26,1.19-.11.3-.22.7-.65.39s-.28.07-.42.17A1.81,1.81,0,0,0,181.37,61.21Z" style="fill:#fff;"/><path d="M164.8,61.91l-.07,0,.08-.11s.06.06.06.08S164.83,61.88,164.8,61.91Z" style="fill:#f3bd1e;"/><path d="M143.53,53.22c.38.51.74,0,.87-.15.41-.4.39-.46.68.13a.35.35,0,0,0,.4.24c.17,0,.22-.1.23-.28.09-.84.7-.69,1.13-.44a2.31,2.31,0,0,0,1.52.13,5.69,5.69,0,0,1,3.33.83l1.54.93a3.41,3.41,0,0,1,1.44,1.79c.25.85.88,1.47,1.09,2.28.33,1.29.91,2.78.66,3.88s-.49,2.9-2,3.68c-.65.34-.84,1.1-1.25,1.66a3.78,3.78,0,0,1-2.47,1.51,40.67,40.67,0,0,1-5,1,.9.9,0,0,1-1-.48c-.23-.37-.85-.54-1.22-.65-.52-.15-.87-1-1.68-.46-.31.22-.17-.53-.36-.59-1-.36-1.2-1.48-1.87-2.16s-.95-2-1.42-3a.88.88,0,0,1,.09-.91c.15-.26.6-.57-.06-.79-.07,0-.14-.25-.14-.26.9-.55.13-1.4.36-2.09s.83-.86.89-1.55c.14-1.67,1.86-2.24,2.65-3.49a4.12,4.12,0,0,1,1.53-.82Zm3.88,13.48c1.48.08,2.28-1.23,3.57-1.43.31,0,.54-.86.73-1.35.37-1,1-1.88.23-3-.16-.24-.68-1,0-1.44.14-.1,0-.32-.06-.37-.93-.44-1.52-1.55-2.71-1.44-.72.07-1.37-.23-2.12-.2-1.18,0-3,.49-3.11,1.51a6,6,0,0,1-.84,2c-.75,1.55.87,2.71.55,4.16,0,0,.1.09.16.14A9,9,0,0,0,147.42,66.7Z" style="fill:#fff;"/><path d="M143.55,53.23V53l.14,0-.14.24Z" style="fill:#fff;"/><path d="M114.27,317.82c-.35,0-.43-.15-.54-.37-.27-.51-.51-1.44-.38-1.54.77-.61.69-1.84,1.55-2.21s1.14-1,2-1.15c.49-.07,1-.17,1.22.24s-.38.61-.67.87c-.91.81-2,1.37-2.7,2.49a2.6,2.6,0,0,0-.26,1.21C114.45,317.59,114.46,317.79,114.27,317.82Z" style="fill:#53b8cb;"/><path d="M119.67,316.46c-.11,1.1-.73,1.79-.75,2.68,0,.16-.38.45-.56.44a3.2,3.2,0,0,0-2.15.54.28.28,0,0,1-.39,0,.37.37,0,0,1,0-.5,12.36,12.36,0,0,1,1-1,4,4,0,0,0,1.2-2.7C118.33,316.65,118.69,317.34,119.67,316.46Z" style="fill:#53b8cb;"/><path d="M114.62,318.4l-.07.17s-.12-.06-.13-.1,0-.11.06-.17Z" style="fill:#53b8cb;"/><path d="M181.37,61.21a1.81,1.81,0,0,1,.83-2.27c.14-.1.1-.41.42-.17s.54-.09.65-.39c.42-1.18,1-1.46,2.26-1.19.88.19,1.79-.25,2.7.32a8.41,8.41,0,0,1,1.73,1.6c.44.47,1.21,1.15.52,2,.58,2.84-1.62,4-3.4,5.19a3.14,3.14,0,0,1-3.7-.55A5.08,5.08,0,0,1,181.37,61.21Z" style="fill:#173847;"/><path d="M147.42,66.7a9,9,0,0,1-3.59-1.39c-.06,0-.17-.1-.16-.14.32-1.45-1.31-2.61-.55-4.16a6,6,0,0,0,.84-2c.12-1,1.92-1.46,3.11-1.51.74,0,1.39.27,2.12.2,1.19-.11,1.78,1,2.71,1.44.11.05.21.27.06.37-.68.48-.16,1.2,0,1.44.73,1.12.14,2-.23,3-.19.49-.42,1.3-.73,1.35C149.69,65.47,148.9,66.78,147.42,66.7Z" style="fill:#173847;"/></g></g></g></svg>