<svg xmlns="http://www.w3.org/2000/svg" viewBox="0 0 427.3 344.59"><title>uploading_spaceInvasion</title><g id="Layer_2" data-name="Layer 2"><g id="Layer_1-2" data-name="Layer 1"><g id="VU8wec"><path d="M298.84,139.16c.45,1,0,1.71-1.28,2.37l.27-.06c.06,0,.16-.08.16-.13.3-2.36-1.75-3-3.14-3.27a17.89,17.89,0,0,1-4.26-1.55c-.31-.21-.71-.35-.91,0s.24.43.51.5c-.21.45-.47.49-.8.12-1.4-1.58-3.26-1.53-5.12-1.35-.3,0-.78.1-.73-.13.59-2.75-1.63-.92-2.41-1.45-.94-.64-2.55.28-3.27-1.27-.1-.22-.81-.24-1.23-.22-2.93.18-5.75-.08-8.21-1.91a.94.94,0,0,0-.82,0c-1.36.7-1.59.83-2.67-.33a3.8,3.8,0,0,0-2.77-.89c-2.25-.17-4.28-2.19-6.7-.83-.77.43-1.29-.43-1.93-.61-2-.55-4.36.61-6-1.31-.08-.1-.34-.18-.39-.14-1.68,1.4-3.13-.05-4.58-.48-1.72-.51-3.48-.24-5.21-.73-1.53-.43-3.38.18-4.87-.31-2.73-.9-5.64-.52-8.31-1.5-.13,0-.39-.1-.42-.06-1.61,2.72-2.76.14-4.12-.32a2.79,2.79,0,0,0-1.54,0c-1.06.23-2.29,1.36-3.51-.18a1.48,1.48,0,0,0-2.13,1.31c-3.65-2.54-7.66-2.54-11.79-1.81-3-3.56-6.92-3.88-11.15-2.91-1.86.43-1.91.4-2.28-1.26,0-.2-.24-.37-.32-.57-.86-2.29-3.05-3.18-4.89-4.27-3.12-1.85-6.4-1-9.38.56-1.37.73-1.6.43-1.75-.84-.48-3.92-3.44-6.47-6.39-7.75a13.16,13.16,0,0,0-10.37-.22c-1.6.71-3.4.79-4.86,2.21a15,15,0,0,0-4.56,9.94c-.2,2.77-.59,5.71.88,8.49.69,1.31,2,2.5,1.68,4.25-5.11-.84-9.64,1.24-14.37,2.62-2.7.79-4,3-5.9,4.5-2.72,2.19-2.76,6.6-.53,9.2a2.52,2.52,0,0,1-1,4.07,1.84,1.84,0,0,0-.86.94c-1.54,3.23-4,6-5.22,9.38-1,2.76-2.17,5.45-3.11,8.25-.88,2.62-1.61,5.32-2.3,8a42.82,42.82,0,0,0-1.73,11.08c0,3.25-.71,6.51-.73,9.76a45.49,45.49,0,0,0,.11,4.76c.27,2.67,0,5.6,1.13,7.89.72,1.51-.86,4,1.81,4.59-.51,2.42,1.37,3.86,2.29,5.7.38.76-1.33.61-.92,1.57a159.87,159.87,0,0,1-12.89-22.88c-3.45-7.81-7.75-15.25-11.43-23-3.3-6.92-6.87-13.69-10.25-20.56-.13-.26-.46-.52-.43-.74.53-3.73-2.87-5.68-3.87-8.69-.78-2.33-2.36-4.21-3.22-6.55a32,32,0,0,0-2.56-5c-1.24-2.08-1.5-4.5-2.57-6.66-.39-.79-1-1.23-1.38-1.91a9.35,9.35,0,0,1,5.28-1.5,1.93,1.93,0,0,0,1.41-.46c1.33-1.61,3.52-1.29,5.15-2.44A11.08,11.08,0,0,1,83,120.24c3-.64,5.35-2.68,7.83-4.13a95.84,95.84,0,0,0,12.7-8.26c3.2-2.62,6.63-5,9.74-7.74,2.22-2,4.12-4.24,6.44-6.13s3.75-4.33,5.85-6.38c2.67-2.61,4.72-6,7.25-8.85a4.76,4.76,0,0,0,1-1.67A26.94,26.94,0,0,1,139.06,68a15,15,0,0,1,2.5,1.64c.87.85,1.54,1.48,2.92.91.93-.39,1.91.43,2.4,1.15,1,1.47,2.41,1.35,3.84,1.44l0,0c.39.5.13,2.22,1.56.74.55-.57,1.44,0,1.73.41,2,2.55,5.07,2.91,7.72,4.13a11.26,11.26,0,0,1,3.56,2.37c.41.44.65.91,1.41.59,1.18-.49,2.17.41,2.81,1a4.75,4.75,0,0,0,4,1.56c1.57-.08,3.45,1.17,4.8,2.3,1.73,1.45,3.88,1.86,5.78,2.6a70.43,70.43,0,0,1,9.76,4.52c1.59.91,3.37,2.28,5.69,2,.9-.12,2,1,3,1.56,1.68.89,3.13,2.47,5.35,1.86a.86.86,0,0,1,.73.35c1.23,2.08,3.52,2.22,5.45,3,.39.16.76,1.45,1.35.15,0-.11,0-.45.33-.13a14.7,14.7,0,0,0,4.63,2.24c1.54.41,2.64,2,4.43,1.76,0,.22,0,.43,0,.65s0,.38,0,.57l.3-.27c1.42.18,2.73,1,4.24.75.35-.06.52,0,.65.55a1.82,1.82,0,0,0,2.48,1.53c2-.52,3.17,1.27,4.7,2s2.33,2.59,4.62,2.05c1-.22,2.31.69,3.24,1.16,2.38,1.22,5.5,1.06,7.14,3.79.69,1.13,2.23.29,3.4.6,2.18.59,3.84,2.31,6.24,2.4,1.43.05,1.26,2.22,2.37,2.91.71-.33-.21-1.51.58-1.33s2.1-.27,2.27.69c.23,1.27,1,1.1,1.82,1.36,1.56.5,3.55.31,4.16,2.49.08.27.88.7,1.1.25.9-1.82,1.57-.71,2.41,0s2.58.81,3.11,2.26c2-1.46,3,.78,4.26,1.45,3.51,1.92,7.29,3.26,10.73,5.33C295.82,138.06,297.46,138.4,298.84,139.16ZM155.71,85a4.66,4.66,0,0,1-.8-.71c-.93-1.36-1.53-2.9-3.39-.57-1,1.26-2.93,2.18-4.73.43-1.12-1.08-2.69-1.4-3.59,0s-.08,2.52,1.51,3.18c.65.27,2.25,1.06.1,1.91-.75.3-1.22,1.19-2,1.63s-.94,1.38-.59,2.29c.27.73.4,1.66,1.43,1.63a1.78,1.78,0,0,0,1.8-1.38c.84-2.14,2.81-2.3,4.54-.7a15.87,15.87,0,0,0,2.4,1.88,1.8,1.8,0,0,0,2.87-.71c.9-1.69-.33-2.3-1.46-3s-2.8-1.12-1.87-2.7A6,6,0,0,1,155.71,85ZM92,135.46c-.12,1.52-.07,1.49,1.63,3.7a1.73,1.73,0,0,0,2.09.68c.85-.29.5-1.06.36-1.69-.45-2-.63-3.79,2.32-3.76.45,0,.88-.26,1.43-.09a1.47,1.47,0,0,0,2-1.58c0-.66-.13-1,.52-1.3a.67.67,0,0,0,.42-.89c-.22-.46-.63-.22-1-.2a13.22,13.22,0,0,1-1.74.18c-1.94-.13-4.49.46-3.65-3.08a3,3,0,0,0-.59-1.84,2.18,2.18,0,0,0-2.08-1c-.87,0-1,.74-1.08,1.4a14.37,14.37,0,0,0-.44,2.36c0,.9,0,1.35-1.18,1.1a2.61,2.61,0,0,0-3.32,2.36c-.22,1.69,1.77,1.65,2.71,1.76C91.91,133.79,92.37,134.2,92,135.46Z" style="fill:#f2bc1d;"/><path d="M139.06,68a26.94,26.94,0,0,0-5.22,9.06,4.76,4.76,0,0,1-1,1.67c-2.53,2.87-4.58,6.24-7.25,8.85-2.09,2-3.63,4.56-5.85,6.38s-4.22,4.17-6.44,6.13c-3.11,2.74-6.54,5.12-9.74,7.74a95.84,95.84,0,0,1-12.7,8.26c-2.48,1.45-4.85,3.49-7.83,4.13a11.08,11.08,0,0,0-3.82,1.89c-1.63,1.14-3.82.82-5.15,2.44a1.93,1.93,0,0,1-1.41.46,9.35,9.35,0,0,0-5.28,1.5,39.94,39.94,0,0,0-5.53,1.26,9.85,9.85,0,0,1-3.24.36c-2.33-.15-4.81.61-6.88.22-3.59-.69-7.35.13-10.83-1.51-1.52-.72-3.4-.64-5.07-1.07a15.65,15.65,0,0,1-9.74-7.73c.56-.67,1.43-.56,2.29-.75-.27-.21-.43-.27-.49-.39-.51-.93,0-1.64.35-2.51.64-1.7-1.53,0-1.55-1.07,0-.36,0-.72.06-1.08s.65-.87.1-1.37v0a3.42,3.42,0,0,0-.94-2.17h0c-.25-.88.31-1.87-.4-2.68a10.43,10.43,0,0,1-.07-5.84c.74-3.62.88-7.3,1.54-10.93a29.17,29.17,0,0,1,1.63-5.11c1-2.59,1-5.47,3.52-7.44s3.45-5,5.13-7.48c1.25-1.87,2-4.18,4.33-5.13.59-.24.58-.78.67-1.27.06-.31-.24-.84.25-.9,2.41-.32,3.17-2.48,4.31-4,.67-.92,1-1.73,2.26-2.16,1-.32,2.41-1.55,2.47-2.19.22-2.27,2.26-2.78,3.45-3.42C57.2,49,58.64,47,60.51,45.57a20.69,20.69,0,0,0,3.79-3.06c1.21-1.46,3.43-2.42,5.21-3.29,4-2,7.42-4.84,11.66-6.48,5-2,9.5-5.27,15-6,1-.12,1.54-1.12,2.88-.87.93.17,2-1.6,3.52-.9,0-2.11,1.3-.65,1.94-.64a4.21,4.21,0,0,0,2.31-.36,2.88,2.88,0,0,1,2.64-.22c1.52.76,3.41-.91,4.7.84,0,.05.33,0,.4-.06,2-2.5,4.24,0,6.25,0,3.23.14,6.26,1.94,9.29,3.28,1.11.49,2.33.71.64,2.36a3.91,3.91,0,0,1,4.58,1c.15.15.39,2.93,1.94.85.11-.15.24.37.28.63.11.74.71,1,1.28,1.37l0,0c.3.53.61.23.92,0h0c2.4,2.26,3,5.45,3.34,8.35.46,4-.28,8-.69,12.07-.33,3.32-2.22,6.1-2.1,9.42C140.34,65.3,139.13,66.53,139.06,68Zm-35.79,35.32c1.31,0,1.7-1,1.92-2,1.54-1.22,1.6-3.25,2.61-4.77a.72.72,0,0,0-.08-.58c-.88-1.64-3.91-2.2-5.56-1.33-1.4.73-2.25,2-3.42,2.92s-1.79,2.2-.39,3.46c-.49.62-1.91,0-1.57.74s1.36,1.49,1.48,2.6c.77-.26,1.43.42,2.25.2A8.82,8.82,0,0,0,103.27,103.35Zm28.28-57.44c.83,0,1.24-.24.91-1.17a2.24,2.24,0,0,1,0-2.1c1.18-1.84-.43-2.5-1.47-3.42s-2.06-.2-2.92.4a21.68,21.68,0,0,1-3.9,2.52c-1,.41-2.33,1.37-1.58,3.07a1.52,1.52,0,0,1-.5,1.77c-.16.16-.14.52-.2.78,1.67-.66,1.21,1.25,2,1.76,2.16,1.31,3.82.78,5.49-.7C131.36,48.76,132.28,47.94,131.55,45.91ZM55.41,97a10.41,10.41,0,0,0,6.16,6.28c4.61,1.89,9.06,2.53,13.79.8,2-.74,4.13-1.28,6.15-2a43.81,43.81,0,0,0,9.15-4.85,74.15,74.15,0,0,0,5.93-4.57,79.74,79.74,0,0,0,6.89-6.09c1.68-1.76,2.48-4.27,4.51-5.81a1,1,0,0,0,.29-.32c3-5.9,6.53-11.55,7.51-18.37.51-3.6-2.2-9-6.6-8.19a4.93,4.93,0,0,0-2.87-1.44A35.13,35.13,0,0,0,86.93,56a78,78,0,0,0-22.74,17c-5.26,5.73-9.28,12-9.79,20.09A5.13,5.13,0,0,0,55.41,97Zm19-45.31c0-.37.18-.66-.1-1-1-1.4-4.56-2.17-6.19-1.53-3.8,1.49-4.6,5.09-6,8.26-.19.42.27.61.43.91,1.95,3.54,5,3.19,7.79,1.45C73.44,57.91,73.21,54.48,74.45,51.74Zm-27.26,53c.92-1.92-.67-2.34-1.57-2.48a7.3,7.3,0,0,0-6.27,2.17,5.43,5.43,0,0,0-1.91,3.89c0,.68-1.52,1.16-.38,2.47.64.74,1.21,1.69,2,2.06,1.56.68,5.23-.71,6.36-2C47,109,48.76,107.32,47.19,104.79Z" style="fill:#e9686b;"/><path d="M26.48,73.37c-.13-.36-1,0-.75-.73l.23-.18-.27-.11c-1.65-.73-1.55-2.69-1.6-3.72-.13-2.53-1.3-5-.46-7.62.17-.53-.24-.81-.43-1.17-.87-1.7-.64-3.28-.21-5.15a21.46,21.46,0,0,0,.34-4.77c0-1.87,1.58-3.35,1-5.37-.13-.44.86-1.33,1.29-2a3.35,3.35,0,0,0,.72-2.79.75.75,0,0,1,.1-.63c2.22-1.72,2.65-4.64,4.5-6.61,2.38-2.54,4.69-5.14,7.05-7.69,1.33-1.43,3.66-1.62,4.55-3.65.19-.43.75-.39,1.16-.09s.75.42,1,.08c2.08-3,5.53-4,8.53-4.88,4.11-1.26,8.33-2.7,13-2,1.95.28,4,.21,6.1.52,2.71.41,5.23,1,7.24,3,.14.14.35.35.5.34,3.66-.38,5.92,2.12,8.43,4.1-.58.85-1.16,1.8-2.22,2-2.64.52-5.14,1.17-6.66,3.71-.33.56-1.06.51-1.61.29a2,2,0,0,0-1.61.17C72.26,30,69,33,65,34.85a7.94,7.94,0,0,0-2.57,1.84c-1.38.93-3.16,1.72-4.1,2.76C56.08,41.93,53,43.38,50.91,46c-.76.94-1.59,1.6-.34,2.71-.77.43-1.81-.07-2.08,1a.5.5,0,0,1-.85.29c-1.51-1.22-2.06-.76-2,1.05a1.41,1.41,0,0,1-.81,1c-2.3.9-3.05,3.35-4.76,4.88-.9.81-2.28,1-2.89,2.3a30,30,0,0,1-2.53,4c-1.14,1.63-2.34,3.22-3.54,4.8-1,1.31-2.5,2.29-2.55,4.19,0,1-1.19,1.1-1.57,1.83Zm10-25.57a7.55,7.55,0,0,0,5.25-1.6c2.72-2,3.42-5.08,3.91-7.91s-2.72-5.5-5.87-5.88c-1.29-.15-2.61-.84-3.88-.35C32,33.58,29.4,40.89,31,44.74,32.25,47.6,35.23,46.51,36.5,47.8ZM49,31.76c2.47-.08,4.11-1.59,4.12-3.78,0-1.84-3.25-4.52-5.48-4.51-1.86,0-4.69,2.45-4.56,3.94C43.27,29.56,46.37,31.84,49,31.76Z" style="fill:#173847;"/><path d="M311.44,39.52c-4.77.61-9.57,0-14.35.26-.28,0-.56.23-.82.19-5-.87-10.1-.09-15.15,0a51.35,51.35,0,0,1-7.8-.25c-2.35-.34-4.72.41-7.14.18-2.58-.25-5.38.58-7.76.11-3.47-.7-6.87-.2-10.23-.22a23.18,23.18,0,0,1-8.87-1.49c-1.45-.59-3-.94-1.94-3.06a.68.68,0,0,0,0-.56c-1.9-3-1.14-6.76,1.86-8.42.9-.49.65-1.4,1.26-2.07,3.39-3.66,7.53-3.45,11.68-2.37A7.68,7.68,0,0,1,257.86,27c.33,1,1.43,1,2.37.37,1.33-.92,2.66-1.86,4-2.7,2.72-1.65,5.46-3.4,8.49-.58,2.89-.61,2.48,3,4.53,3.64.67.23.7,2,.2,3.35a5.72,5.72,0,0,0,2.8-2.26A11.61,11.61,0,0,1,286,24.78a15.28,15.28,0,0,1,5.3-1.2c3.36.08,6,1.74,8.83,3.07.55.26.22.77.3,1.16.16.83-.41,1.7.08,2.59,1.3-2.6,5.2-3.92,7.66-2.31,1.06.69,2.37,1.93,2.32,3.33-.07,1.87.64,2.37,2.27,2.26a8.46,8.46,0,0,1,1.3.11,8.34,8.34,0,0,0,3.79.53c1-.21,1.47.74,1.69,1.41.43,1.3-2.26,4.28-3.61,4A19.68,19.68,0,0,0,311.44,39.52Z" style="fill:#173847;"/><path d="M311.44,39.52a19.68,19.68,0,0,1,4.49.18c1.36.3,4-2.67,3.61-4-.22-.67-.68-1.62-1.69-1.41a8.34,8.34,0,0,1-3.79-.53c1-1.64,1.83-3.3,1.45-5.34-.25-1.38,1-2.36,1.08-3.82a22.48,22.48,0,0,0,.24-4.21c-.44-2.86-.53-5.75-1.56-8.56s-3.7-4-4.77-6.62c-.09-.22-.69-.4-1-.33-2.74.65-2-1.46-2-2.67.07-1.54,2.23-2.67,4-2.1A68.14,68.14,0,0,1,321.1,4.2,13.92,13.92,0,0,1,326.28,8c2.55,3.42,5.44,6.64,6.66,10.88a1.4,1.4,0,0,1,0,.65,5.38,5.38,0,0,0,.78,4.34,4.66,4.66,0,0,1,.27,2.91c-.19,1.4-.92,2.94,0,4.39a.51.51,0,0,1,.07.42c-1.57,2.63.09,5.81-1.38,8.41-1.16,2-1.5,4.33-2.31,6.47a10.38,10.38,0,0,1-1.13-.63c-3.41-2.5-4.82-2.38-7.43.88-.61.76-1.74,2,.41,2.48-1.58,1.28-1.55,1.54-.79,3.13.45,1,1.45,1.16,2,1.92a3.06,3.06,0,0,1-2.9,1.6,1.76,1.76,0,0,0-1.39.52c-3.44,3-7.62,3-11.84,3.09-5,.16-9.86-.77-14.72-1.77-2.38-.49-3.66-2.88-6.12-3.23-.67-.1-.56-1.15-.22-1.72.93-1.53,1.77-2.79,4.1-2.86a26.15,26.15,0,0,0,11.15-2.66,17.31,17.31,0,0,0,2.74-1.1,8.55,8.55,0,0,0,2.31-1.72C307.89,42.47,310.55,41.88,311.44,39.52Z" style="fill:#f2bc1d;"/><path d="M18.56,163.74c2-2.12,4.87-2.93,6.59-5,2.28-2.73,5.2-4.31,8-6.2a32.48,32.48,0,0,0,4.45-3.85,42.22,42.22,0,0,1,6.66-4.82,3.51,3.51,0,0,0,1.27-1.65c1.06-2.42,2.07-2.23,4.09-1s1.23,3,1.16,4.22c-.24,4.06.4,8.2-.41,12.14-.72,3.49.21,6.84-.1,10.29-.22,2.46-1,5.16.14,7.74.53,1.16-.62,2.39-.12,3.93.81-1.37,2.13-1.52,3.31-2a7.33,7.33,0,0,0,3.65-3.36,5.82,5.82,0,0,1,3.08-2.2c3.64-1.35,6-4.46,9.16-6.36a16.1,16.1,0,0,0,5.24-4.41c.67-1,1.47-.91,2.37-.17,1.35,1.1,1.27,5-.33,5.38-3.29.83-5,3.69-7.71,5.22-2.49,1.42-4.26,3.86-7,4.78-1.23.4-1.43,1.71-2.29,2.48A17.79,17.79,0,0,1,53.38,183a2.18,2.18,0,0,0-1.28,1.08c-.95,1.61-2.95.77-4.19,1.75-.06,0-.48-.19-.49-.3-.19-2.73-2.54-4.56-2.39-7.74.28-5.71.45-11.47.23-17.23-.08-2-.33-4.12.67-6.07a4.05,4.05,0,0,0,.37-1.69c0-1.18-.2-2.57-1.13-3.12s-1.73.73-2.49,1.34c-4,3.17-8,6.39-12,9.57-2.59,2-5.23,4-7.8,6.09a8.27,8.27,0,0,1-6.14,1.67,3.17,3.17,0,0,1-2.36-3,23.47,23.47,0,0,1,.15-7.29c.78-3.23.18-6.55,1-9.82.7-2.74.25-5.75.57-8.62a68.56,68.56,0,0,0,0-8.53,70.27,70.27,0,0,1,.55-8.33c.16-1.55.92-1.58,2.08-1.14,1.87.7,3.86,3.25,2.59,5.94-1.11,2.34.47,4.58-.07,6.85-.69,2.89.57,6-.78,8.79-.42.87.33,1.44.21,2.28a28.17,28.17,0,0,0-.56,7.18c0,.36.1.84-.09,1.07-1,1.19.34,3.22-1.52,4.05a1.82,1.82,0,0,1,.7,2.67A4,4,0,0,0,18.56,163.74Z" style="fill:#e9686b;"/><path d="M164.32,74.58a8,8,0,0,1,.76-3.17c.14-.41.34-.83.84-.93,3.47-.66,6.65-2.34,10.09-3,3-.58,5.22-2.67,8.13-3.31,1.07-.23,1-1,.11-1.71a26.78,26.78,0,0,1-6.82-6.59c-.61-.91-1.83-1.46-2.71-2.16C170,50,165.34,46.35,160,43.65c-2.67-1.34-5-3.36-7.47-5.1a1,1,0,0,1,0-1.83c1.16-.5,1-1.24,1.14-2.21a9.07,9.07,0,0,1,3.15-5c2.39-2,3.8-4.67,5.56-7.08,1.32-1.81,2.67-3.57,4.13-5.26.51-.59,1.13-1.37.82-2.12S166,15,165.5,14.68c-1.37-.72-3.4.65-4.32-1.38-.62,1.32-1.68.06-2.41.4-2.44,1.11-5,.82-7.48.51-4.4-.57-8.79-.22-13.18-.38-1.13,0-2.68.52-2.75-1.5-.06-1.84,1.71-3.78,3.3-3.7,2.73.14,5.49,0,8.18.44a19.29,19.29,0,0,1,3.47.67c2,.71,3.42-1,5.37-.53s3.94,0,5.8.07c2.46.13,5.34-.68,7.52,1.35.73.68.49-.17.69-.37s5.15.61,5,.82c-.85,1.61.46,3.56-1,5.12A34.58,34.58,0,0,0,168.2,23c-2.39,4.39-5.94,7.86-9.11,11.62-.93,1.1-.88,1.67.36,2.23a1,1,0,0,1,.42.46A6.8,6.8,0,0,0,164,40.52c2.32.79,4.09,2.55,6.12,3.65,2.63,1.43,4.55,3.65,7.09,5.06,3.13,1.74,4.77,5.1,7.62,7.08,1.78,1.24,2.55,3.62,5.16,4,1.56.23,2.13,3.3,1.13,4.63a10.56,10.56,0,0,1-3.41,2.57c-1.41.84-3,1.26-4.41,2.07a75.18,75.18,0,0,1-7.86,3.75c-1.3.56-2.83-.06-4.19.8s-2.7,1.16-4,1.82C165.12,77,164.27,76.62,164.32,74.58Z" style="fill:#e9686b;"/><path d="M363.68,189.92c-.39-.09-1.13.12-1.08-.43.35-4.36-1.37-8.39-2.11-12.56-.44-2.46-.74-5.07-2-7.42-1.51-2.74-3.82-5.26-3.3-8.79-2-.37-2.09-2.27-2.71-3.59-1.48-3.19-4.24-5.56-5.45-8.93-.39-1.07-1.66-1.69-1.94-3a1.43,1.43,0,0,1,.74-1.81,4.85,4.85,0,0,1,6.67,1.81,22.4,22.4,0,0,0,3.33,4.76c.88.84,2.39,1.55.91,3.12a.66.66,0,0,0,0,.59c2.7,1,2.62,4,4.2,5.83s1.94,4.27,3,6.21c1.34,2.46,1.18,5.13,2.17,7.6.82,2,2.38,4.38,1.64,7.09-.26,1,.31,2.22.71,3.27.88,2.32,1.88,4.55.39,7-.47.79.66,2.3-1.11,2.67-.15,0-.24.38-.62.33-1.14-.15-3.1-2.27-3.24-3.58.18-.12.23-.27,0-.41C363.89,189.7,363.76,189.84,363.68,189.92Z" style="fill:#e9686b;"/><path d="M132.4,277.57c2,.78,4.4.81,5.52,3.12a1.08,1.08,0,0,1,.12.8c-1.57,2.91,1.32,4.84,1.67,7.34a11.74,11.74,0,0,0,.35,2c.8,2.43,2.74,4.16,3.86,6.21,1.38,2.51,3.73,3.34,5.38,5.17,1,1.08,2.45,1.41,3.28,3,.47.9,3,.88,4.61,1,1.26.08,1.94.53,1.88,1.74s-.71,2.26.3,3.34c.2.21.1,1-.47,1-1.17-.05-2.25,1.82-3.16.69-1.77-2.22-4.54-1.42-6.61-2.7a76.68,76.68,0,0,1-7.79-5.47c-.43-.35-.5-1.15-.69-1.76-.47-1.46-2-1.89-2.86-3.11-1.7-2.44-3.58-5-4.32-7.66-1-3.54-2.5-7.13-1.92-11,.13-.87-.74-1.74-.17-2.72C131.63,278.1,131.75,277.57,132.4,277.57Z" style="fill:#e9686b;"/><path d="M23,21c1.57,1.89,0,3.34-1.09,4.26-2.6,2.26-2.93,5.63-4.68,8.29s-2.2,6-3.66,8.89c-1,1.91-.24,4.29-.86,6.41-.26.87.15,2.07-1.19,2.21a2.93,2.93,0,0,1-3.19-1.36c-1.07-2-.69-4.1.16-6.05a6.26,6.26,0,0,0,.57-1.81c.45-4.65,2.58-8.59,5-12.47.67-1.07,1.85-2,1.68-3.63-.06-.56-.08-2,1.6-1.74.45.06.75-1.82,1.32-2.78a27.54,27.54,0,0,1,6.49-7.8c2.44-1.91,4.55-4.25,7.26-5.83a5.44,5.44,0,0,1,2.41-.67.77.77,0,0,1,.91.84c-.92,1.85-.21,4.19-2.86,5.62a17.62,17.62,0,0,0-7,6.84C25.23,21.42,24.05,20.64,23,21Z" style="fill:#e9686b;"/><path d="M335.79,289.53a13.7,13.7,0,0,1-5.39,8.71c-.17.12-.57.15-.58.24-.09,1.15-1.22,1.77-1.53,2.52-1.08,2.58-3.06,2.19-5,2.18-.83,0-1.35-.59-1-1.29,1-2.15.2-4.94,2.15-6.68,2.45-2.18,3.55-5.26,5.51-7.75a2,2,0,0,0,.54-1.14c.21-3.36,2.21-6.21,2.64-9.54.19-1.46,1.3-2.11,2.93-1.17,2.55,1.48,4,4.94,2.79,7.6-.9,2-.37,4.4-1.52,6.38-.18.31-.23.72-.61.8C336,290.53,336.33,289.66,335.79,289.53Z" style="fill:#e9686b;"/><path d="M370.42,159.19a13.8,13.8,0,0,0-1.11-5.07c-.53-1.41-1.08-2.57-.06-3.8.6-.72,4-.06,4.86.93a11.14,11.14,0,0,1,2.74,6.21,14.33,14.33,0,0,0,1.76,5.09,11.79,11.79,0,0,1,1.44,3.33c-.08,3.06,1.45,5.85,1.14,8.9-.21,2.07-1.91,2.81-4.24,1.6a4.41,4.41,0,0,1-2.63-3.75c-.08-2.65-1.36-5-1.65-7.65-.11-1-1.26-2.5-2-3.75A2.68,2.68,0,0,1,370.42,159.19Z" style="fill:#e9686b;"/><path d="M308.39,112.57c.57,2.48-1.94,3.63-3,5.5-.87,1.54-1.06,2.65.49,3.22,1.9.71,2,2.36,2.29,3.84a1.32,1.32,0,0,1-1.47,1.53c-1.9-.16-4,.07-5-2.2-.6-1.27-1.37-2.08-2.6-.28a4.73,4.73,0,0,1-3.42,2.12c-.82.1-1.56.64-2-.42-.31-.84-.78-1.5-.05-2.72,1-1.66,2.45-2.92,3.38-4.58.62-1.11-.68-1.62-1.08-2.19a6.69,6.69,0,0,0-1.75-1.78c-1.73-1-.85-2,.18-2.47s1.55-2.21,3.1-1.4c.71.37,2.16.13,1.37,1.85-.34.75.72,1.34,1.38,1.77s1.13-.27,1.66-.6c1.46-.93,2.35-2.55,4.19-3.08S308.57,110.37,308.39,112.57Z" style="fill:#f2bc1d;"/><path d="M257.07,85.93c-.2,1.84-.65,3.5-3,3.79-1.37.17-2.13.57-1.62,2.39.7,2.52.46,2.57-2.18,2.61-.65,0-1.29.22-1.94.21-.45,0-1,0-.86-.88.32-2-.36-2.67-2.43-2.36-.65.1-1.29.28-1.94.37s-1.29.75-1.69-.21-.83-1.89,0-2.63c1.35-1.15,2.25-2.87,4.23-3.23a1,1,0,0,0,.51-1.68c-.86-.89-.6-1.68-.44-2.7.34-2.13,1.14-2.8,3-1.8,1.44.76,2.87,1.6,3,3.75.07,1,1.58,1.12,2.81.83C255.71,84.13,257.57,83.33,257.07,85.93Z" style="fill:#f2bc1d;"/><path d="M139.19,312.22c.54,1.58-1.4,1.78-2,2.8s-1.69,1-3.27.52c-4.53-1.51-7.32-4.58-9.37-8.55a26.3,26.3,0,0,1-1.87-5.25,1.8,1.8,0,0,1,2-2.43c1.39,0,3.1.09,3.71,1.64s3,2.14,2.38,4.37a.22.22,0,0,0,.08.19c1.94,1.26,2.89,3.79,5.66,4C137.74,309.66,139.2,310.19,139.19,312.22ZM136,313.76l.09-.13h-.17Zm.85.09s-.14.1-.13.13a1.27,1.27,0,0,0,.12.28s.14-.1.13-.13A1.08,1.08,0,0,0,136.87,313.85Z" style="fill:#e9686b;"/><path d="M15.83,9.21c-.05.18-.05.39-.14.44-2,1.21-2.77,3.46-4,5.24-1.79,2.58-4,4.85-5.2,8-.75,1.93-.39,4.42-2.29,5.93-.16.13-.18.55-.13.81.12.6.74,1.26-.16,1.7s-1.55-.15-2.16-.66c-2.39-2-2.1-4.74-.4-7.33.76-1.16,2.2-2.22,2.16-4.36,0-1.68,1.29-3.77,2.95-5.29,1.9-1.74,2.95-4.31,5.44-5.57,1.65-.84,3.22-.74,3.71.55C15.66,8.85,15.75,9,15.83,9.21Z" style="fill:#e9686b;"/><path d="M69.23,236.75c-.29,3-1.14,3.66-3.08,2.47-.36-.22-.7-.49-.55-.78.82-1.56-.81-3.22.31-4.81.43-.61,0-1.38-.71-1.85a10,10,0,0,1-1.49-1.24c-.63-.64-1.8-1.4-1.18-2.26s2-2,3.4-1.17c2.17,1.33,3.31.72,4.18-1.51.41-1,1.42-2.31,2.58-1.84A2.53,2.53,0,0,1,74.1,227c-.29.93-.05,2-.63,2.94a1.53,1.53,0,0,0,.67,2.36c.88.52,1.4,1.44,2.4,1.82a1.3,1.3,0,0,1,.69,1.48c-.16.69-.69.83-1.33.85-1.41,0-2.89.37-4.13-.48-1.07-.73-1.51.45-2.29.52l-.34-.23Z" style="fill:#f2bc1d;"/><path d="M98.34,266.77c0-.15,0-.29,0-.44.09-1-.18-2.54,1-2.55.86,0,2.63.56,2.78,1.63.43,3,2.65,2.62,4.58,2.91.93.14,2.11,0,2.35,1.12.35,1.65-1.44,2.19-2.11,3.35-.54.94-1.28,0-1.94,0s-1-1.16-1.68-.41c-.47.55-.3,1.2,0,2a11,11,0,0,1,.5,3.63c0,.68-.56,1-1.2,1-.43,0-.87-.36-1.26-.3-2.85.48-2.5-1.86-2.76-3.33-.36-2-1.63-3.08-3.58-2.31-1.21.48-1.43.17-1.3-1,.28-2.54,1.08-3.26,3.57-3.11C98.35,269,98.35,269,98.34,266.77Z" style="fill:#f2bc1d;"/><path d="M346.22,287.93a5.26,5.26,0,0,1,3,3.11c1.19,2.9-.44,5.19-1.8,7.43-.55.91-.84,2.24-2.16,2.58.37,1.06-.35,1.71-.82,2.54-.88,1.55-1.78,1.18-2.7.23-1.56-1.62-1-4.32-.71-6.43.32-2.3,2.6-3.33,2.55-5.52,0-1.53,2.38-1.88,1.71-3.68Z" style="fill:#e9686b;"/><path d="M228,39.31c-1.91,0-5.07-2.58-5.06-4.21,0-2.1,3.35-6.15,5.15-6.09,2.88.1,6.08,1.89,6.18,4.86C234.33,35.85,230.44,39.25,228,39.31Z" style="fill:#173847;"/><path d="M323.44,54.27c-.53-.76-1.53-1-2-1.92-.76-1.59-.79-1.85.79-3.13-2.16-.51-1-1.72-.41-2.48,2.61-3.26,4-3.37,7.43-.88a10.38,10.38,0,0,0,1.13.63C331.44,51.83,329.85,55.08,323.44,54.27Z" style="fill:#173847;"/><path d="M234.65,336.51c2.56.57,2.86,1.1,2.2,3.5,0,.14-.06.29-.11.42-1.37,4.28-1.45,4.37-4.76,1.41-1.37-1.22-1-3.14-.81-4.81,0-.27.49-.25.38-.81-.55-2.81-.45-2.66,2.47-1.93C236,334.78,236.33,335.15,234.65,336.51Z" style="fill:#53b7c9;"/><path d="M152.28,342c0,1.2-.76,2-1.79,1.46-1.38-.77-3.13-1.35-3.21-3.52a26.55,26.55,0,0,0-.8-4.45,1.58,1.58,0,0,1,.67-1.9c.71-.39,1.36-.89,2.38-.3,2.31,1.32,2.85,2.66,2.05,5.16-.3.93.94,1.84.55,3C152.06,341.52,152.22,341.76,152.28,342Z" style="fill:#53b7c9;"/><path d="M222.13,334.16a4.42,4.42,0,0,1,4.4,5.26c-.11.49-.21,1-.32,1.48-.23,1-.38,2.72-1.44,2.52s-3.13-.34-3.13-2.62a24.65,24.65,0,0,0-.77-5.08C220.6,334.48,221.12,334.12,222.13,334.16Z" style="fill:#53b7c9;"/><path d="M143.19,338c-.7,1.5.09,2.91,0,4.35-.11,1.91-1.13,2.06-2.49,1.58a3.24,3.24,0,0,1-2.17-3c-.16-1.86.2-3.75-.4-5.59a1,1,0,0,1,.53-1.11c.47-.31.8-.14,1,.39a2.22,2.22,0,0,0,.32.48c.54-1.21,1.5-.81,1.94-.18A14.54,14.54,0,0,1,143.19,338Z" style="fill:#53b7c9;"/><path d="M159.11,337.4a14.38,14.38,0,0,0,.44,3.35c.66,1.76-.39,1.66-1.47,1.6-2-.1-2.71-1.29-2.94-3.16-.16-1.29.3-2.64-.22-3.79a2.32,2.32,0,0,1,1.08-3.07,2.44,2.44,0,0,1,2.85,2.09C159,335.37,159.84,336.3,159.11,337.4Z" style="fill:#53b7c9;"/><path d="M190.86,336.59c.35-.89-.88-2.53,1-2.82,1.54-.24,2.09,1.15,2.52,3.24.39,1.88.71,3.79,1.22,5.65.32,1.16-.12,1.54-1.09,1.48-1.4-.09-3-.08-2.86-2.21C191.7,340.11,190,338.56,190.86,336.59Z" style="fill:#53b7c9;"/><path d="M166.85,339q0,1.53,0,3.06a1,1,0,0,1-.65,1c-.46.18-.75-.09-1.14-.35-1.81-1.21-2.9-2.5-2-4.93.37-1-.09-2.4-.32-3.58-.26-1.34.36-1.61,1.44-1.35,1.59.38,2.86,1.09,2.75,3.05-.05,1,0,2,0,3.06Z" style="fill:#53b7c9;"/><path d="M218.16,339.11l-.2,1.63c-.13,1.1-.23,2.44-1.71,2.26s-2.7-.81-2.7-2.59,0-3.67.07-5.5c0-.62.61-.87,1.08-1.1.86-.43,1.54,0,2.16.56C218.39,335.7,217.5,337.69,218.16,339.11Z" style="fill:#53b7c9;"/><path d="M202.9,337.51c.37-1.29-.11-3,1.45-3.67.61-.26,1.91-1,2.13-.34.39,1.19,1.55,2.27,1.19,3.54a14.2,14.2,0,0,0-.36,3.19c-.06,1-.1,2.36-1.23,2.38a2.88,2.88,0,0,1-2.74-2.09A20.27,20.27,0,0,1,202.9,337.51Z" style="fill:#53b7c9;"/><path d="M261,338.13c-.37-.79,0-1.57,0-2.35s0-1.89,1.11-2a2.29,2.29,0,0,1,2.29,1.33,6.64,6.64,0,0,1,.85,4.58,4.46,4.46,0,0,1-.27.82c-.35.9.81,2.86-1.13,2.52a3.46,3.46,0,0,1-2.87-3.34C261,339.15,261,338.64,261,338.13Z" style="fill:#53b7c9;"/><path d="M288.76,338.51c-.12-.59.23-1.15.1-1.86-.54-2.9-.34-3,2.4-2.06,1.09.36,1.52,1,1.17,1.93a4.89,4.89,0,0,0,.88,4.72,1.45,1.45,0,0,1,0,2c-.52.59-1.19.36-1.82.18C289.49,342.84,288.62,341.3,288.76,338.51Z" style="fill:#53b7c9;"/><path d="M129.93,340.26c-.25-.88-.48-2.14-.8-3.34s.29-1.43,1.06-1.88,1.45-.23,2,.45c1.8,2.06,1.59,4.68,2,7.12.13.78-.52,1.11-1.28,1.14C131.54,343.79,129.9,342.11,129.93,340.26Z" style="fill:#53b7c9;"/><path d="M187.93,337.92c-.18,1,.34,1.83.44,2.76.06.61.23,1.33-.59,1.71a1.94,1.94,0,0,1-1.87,0c-1.52-.81-2.49-1.88-2.26-3.77a24.25,24.25,0,0,0,.27-4.22c-.06-1.2,1.13-.82,1.55-.53C186.84,334.82,188.74,335.57,187.93,337.92Z" style="fill:#53b7c9;"/><path d="M270.68,338.46a6.07,6.07,0,0,0-.49-2.22c-.23-.9-.88-1.92.3-2.46a2.53,2.53,0,0,1,3.13.86c1.46,2,1.05,4.42,1.17,6.67.05,1-1.3.54-2,.5a2.49,2.49,0,0,1-2.33-2.18C270.4,339.38,270.56,339.07,270.68,338.46Z" style="fill:#53b7c9;"/><path d="M198.26,337.67a4.23,4.23,0,0,0-.43-2.72,1.66,1.66,0,0,1,.35-2.18c.74-.52,1.54,0,2.19.42,1.29.85,1.32,2.36,1.71,3.65s-.5,2.73.42,4.14a.91.91,0,0,1-1.47,1C199.51,341,197.5,340.21,198.26,337.67Z" style="fill:#53b7c9;"/><path d="M341.17,331.44c1.92.21,2.62,1.39,2.54,3.23-.06,1.33-.47,2.78.31,4.08.22.37.28.74-.15.89s-1.21.21-1.24.1c-.49-1.35-2.09.34-2.51-1a12.9,12.9,0,0,1-.21-6.91C340,331.22,340.72,331.46,341.17,331.44Z" style="fill:#53b7c9;"/><path d="M255.19,340.44a4.69,4.69,0,0,0,.24,2.59c.23.42.4,1.06-.09,1.4s-1,.09-1.44-.17c-2.18-1.23-3.95-5.42-3.3-7.86.25-.95,1.91-1.23,2.71-.35C254.5,337.35,255.63,338.72,255.19,340.44Z" style="fill:#53b7c9;"/><path d="M241.41,338.79c.43-1.22-.74-2-.62-3.18s.19-2.08,1.27-2.14a2.12,2.12,0,0,1,2.47,1.3c.53,1.63,1.27,3.18,1.72,4.87.29,1.1-.1,1.27-.84,1.51C243.67,341.71,241.3,340.26,241.41,338.79Z" style="fill:#53b7c9;"/><path d="M298.76,344c-2.44-1.26-3.41-3.25-3.73-5.92a3.51,3.51,0,0,1,.82-2.66c.49-.74,1.35,0,2,.11.89.21.93,1,1.12,2a27.21,27.21,0,0,1,.6,3.9A3.24,3.24,0,0,1,298.76,344Z" style="fill:#53b7c9;"/><path d="M335.08,339.71c-.08.6.37,1.49-.51,1.69a2.78,2.78,0,0,1-2.85-1.51c-1.11-1.73-1.07-3.82-1-5.83,0-.43,0-1.35.93-1.12,1.37.33,2.68.86,3,2.45C334.89,336.81,334.94,338.27,335.08,339.71Z" style="fill:#53b7c9;"/><path d="M315,338.64c-.72,1.44.21,3-.27,4.52-.1.31.12.77-.39.82a.9.9,0,0,1-.74-.32c-.79-1.7-2.92-2.46-3-4.67-.06-1.15-.68-2.36.29-3.28.68-.64,1.73-.33,2.49,0C314.58,336.21,314.86,337.41,315,338.64Z" style="fill:#53b7c9;"/><path d="M354.41,334.3c-.93,1.34.43,2.45.09,3.7-.21.76-.38,1.56-1.24,1.5-.53,0-1.62,0-1.12-1.38.31-.87-1.6,0-1.58-1.23,0-1.4-.58-2.68-.6-4.17,0-2.7,1.45-1.63,2.39-1.34C353.7,331.79,354.18,333.06,354.41,334.3Z" style="fill:#53b7c9;"/><path d="M115.13,343.28a1.14,1.14,0,0,1-.86-1.35c.38-2.24-.42-4.71,1.37-6.85.44.54.52,1.65,1.69,1.23a1,1,0,0,1,1.19,1c.07,1.22-.12,2.45.7,3.56.25.34-2.47,2.25-3.1,2.1-.46-.11-.84-.26-1,.36Z" style="fill:#53b7c9;"/><path d="M323.23,340.09c0,.75,0,1.24-.69,1.34-1.53.21-3.68-1.55-3.4-3a3.68,3.68,0,0,0-.4-2c-.33-1.08-.14-2.55.79-2.86a2.35,2.35,0,0,1,2.88,1.66C323.06,336.87,322.61,338.67,323.23,340.09Z" style="fill:#53b7c9;"/><path d="M401.06,335.59c.23-.25-1.22-1.78.67-1.9,1.23-.08,3.08,1.64,3,2.82a3.57,3.57,0,0,0,.66,2.86c1.25,1.5-.37,2-1,2.74-.07.08-.54,0-.56-.07C403.17,339.83,399.8,339,401.06,335.59Z" style="fill:#53b7c9;"/><path d="M329.47,338.43c-.06,1,.13,2.1-1,2s-2.59,0-2.79-1.18a40.53,40.53,0,0,1-1-4.4c0-.69-.2-1.47.79-1.78a1.87,1.87,0,0,1,2.28.72A12,12,0,0,1,329.47,338.43Z" style="fill:#53b7c9;"/><path d="M394.3,334.3c0,1.41-.09,2.87-1.78,3.2-1.2.24-3-1.91-2.71-3.36.27-1.2-1-3.3,1.39-3.52C392.95,330.47,394.29,332.25,394.3,334.3Z" style="fill:#53b7c9;"/><path d="M179.19,336.85c-.09.47.21,1.16-.38,1.37-1.17.42-.57.92-.1,1.33,1,.89.33,1.82-.18,2.36-.94,1-1-.5-1.51-.81-2.59-1.62-1-4.34-1.55-6.51a.79.79,0,0,1,1.08-.74C177.75,334.51,179.36,334.92,179.19,336.85Z" style="fill:#53b7c9;"/><path d="M359.5,333.94c1.11-.55-.91-3,1.64-2.9,1.36,0,3.48,3.16,3.28,4.78-.16,1.32-1.35,1.44-2.26,1.57S359.39,335,359.5,333.94Z" style="fill:#53b7c9;"/><path d="M382.93,339.15a1.88,1.88,0,0,1-.75,2c-.56.4-.88-.23-1.31-.39-2.82-1-2-3.74-2.44-5.73-.21-1.06,1.23-1.05,2.17-.63C382.84,335.43,381.89,337.94,382.93,339.15Z" style="fill:#53b7c9;"/><path d="M302.76,335.51c1.94,0,2.66,1,2.66,3.21a8.13,8.13,0,0,0,.65,2.05,1.75,1.75,0,0,1-.56,1.78c-.58.56-1.08-.05-1.54-.32-1.7-1-2.78-4.36-2.09-6.24C302,335.55,302.28,335.45,302.76,335.51Z" style="fill:#53b7c9;"/><path d="M284.35,337.68a1.16,1.16,0,0,1,.09.6c-.08.94,1,2.25-.61,2.73-1.06.31-2.91-1.42-3-2.61a5.46,5.46,0,0,0-.16-1.06c-.24-.78-1.06-1.52-.08-2.35a2.12,2.12,0,0,1,2.45-.16C284,335.3,284.58,336,284.35,337.68Z" style="fill:#53b7c9;"/><path d="M375.08,336.62c-.65-.5-1.86-1-2.26-1.85a9.05,9.05,0,0,1-.53-3.8,1.21,1.21,0,0,1,1.35-1.13,2.71,2.71,0,0,1,2.5,3.35,9.69,9.69,0,0,0,.29,2.32C376.51,336.27,376.28,336.81,375.08,336.62Z" style="fill:#53b7c9;"/><path d="M172.43,340c-.56-.23-.88-.3-.93.56,0,.62-.72.08-.68,0,.46-1.37-.83-2-1.17-3.06-.47-1.38-.71-2.93,1-3.55s1.75,1.52,2.71,2.23c.58.42.44,1.9.53,2.91S173.26,340.19,172.43,340Z" style="fill:#53b7c9;"/><path d="M427.3,339c0,.51-.66.58-1.23.58-1.32,0-3.45-2.43-3.36-3.78a1.07,1.07,0,0,1,1.26-1.14C425.68,334.75,427.33,336.72,427.3,339Z" style="fill:#53b7c9;"/><path d="M102.84,340.75c0-1-.13-2.15,1-2.08,2.1.13,2,2,2.22,3.45.13.89-.23,2.08-1.26,1.9C103,343.7,103.33,341.79,102.84,340.75Z" style="fill:#53b7c9;"/><path d="M92,341.38c.77-.1,1.15.23,1.14,1s-.38.89-1,.82-1.72-.1-1.79-.88C90.23,341.17,91.56,341.94,92,341.38Z" style="fill:#53b7c9;"/><path d="M116,222.51c.75.43,1.65.61,2.18,1.38.83,1.2.06,1.16-.81,1Z" style="fill:#f2bc1d;"/><path d="M138.85,34.06l.09-1.36a2.14,2.14,0,0,1,.79,1.34h-.91Z" style="fill:#e9686b;"/><path d="M398.33,45.19c-2.21-2.13-4.95-3.59-8.29-2.73-.36.09-.74.23-1-.1-.41-.49.11-.71.33-1.06.85-1.37,1-5.91,0-6.31-1.86-.72-3-4.22-5.8-1.77a.38.38,0,0,1-.37,0c-1-1.17-2.28-.53-3.53-.54-3.34,0-5.65,1.85-7.85,3.85a4.5,4.5,0,0,1-2.66,1.41,1.88,1.88,0,0,1-1.44-2.49c.28-1-.72-1.53-.94-2.35-.29-1.63-1.9-.26-2.53-1.12s-1.18-.34-1.8-.17c-.87-.46-1,0-1,.75l-.57.14c-.93-1.25-2.31-.51-3.46-.77-.51.14-.2.51-.22.79-.68.52-1.21-.55-2-.1-2.1,1.18-4,2.66-6,4s-2.83,4.15-4.61,6.06c-.7.74-1.12.85-1.67.46a4.08,4.08,0,0,0-4-.63,7,7,0,0,0-3.07,2.4,18.86,18.86,0,0,0-2.14,7,1.55,1.55,0,0,0,.59,1.36c1.42.92,3.16,2,4.65,1.71,3.42-.56,6.72.48,10.1.25,1.22-.08,2.29-.62,3.62-.54,3.31.21,6.67,1.06,10-.1a4.65,4.65,0,0,1,3.23-.17c2.62,1.38,5.31-.23,8,.54,1.45.41,3.49-.22,5.26-.25a101.94,101.94,0,0,1,12.55.47c.59.06,1.32.15,1.64-.37,1.33-2.15,4.2-2.36,5.42-5.11C399.8,47.51,399.25,46.07,398.33,45.19Z" style="fill:#173847;"/><path d="M115.11,343.29l.19.31-.08-.17-.09-.16Z" style="fill:#53b7c9;"/><path d="M150.72,73.16l.16-.23s0,.11,0,.13a.69.69,0,0,1-.19.07Z" style="fill:#f2bc1d;"/><path d="M25.69,72.36l.27.11-.23.18-.11-.13Z" style="fill:#53b7c9;"/><path d="M237.31,283.5l.18.32-.2,0,.07-.32Z" style="fill:#173847;"/><path d="M185.6,177.68c.37.39-.16,1,.54,1.46.9.66,2.2,1.6,1.11,3.16a.63.63,0,0,0,.06.61c3.41,2.56,1.75,6.13,1.9,9.35a18,18,0,0,1-1.51,8.26c-1.07,2.32-.82,6-4.56,6.65-.39.07-.55.41-.64.8-.36,1.6-3.78,4.7-5.25,4.13-1.77-.69-1.81,1.29-3.12,1.22-2.34-.12-4.64.4-7.08.1-4.51-.55-9.06-1.07-13.5-1.92-2.66-.51-5.45-.65-8-1.49-3-1-6.53-1.43-8.84-3.78-2-2-5-3.06-6-6.08-.06-.18-.43-.43-.42-.44,1.28-1.54-.48-2.07-1-3-1.13-2.13-.76-4.58-.77-6.77a22.89,22.89,0,0,1,1.8-9.73c1.12-2.34.85-6.12,4.75-6.74,1-.16-.41-1.68.91-2.33a14.65,14.65,0,0,0,2.93-1.9,26.73,26.73,0,0,1,18.39-.91A24.92,24.92,0,0,0,164,169a.84.84,0,0,1,.61.2c1.28,1.52,2.91.76,4.43.72.45.21.93.65,1.36.61,2.12-.19,3.83,1.1,5.8,1.49,2.12.43,4.47,1.28,5.7,2.91C183,176.35,184.5,176.64,185.6,177.68Zm-14.19,4.85c-2.17-.11-3.63.3-4.49,1.94a1.79,1.79,0,0,1-.94.86,5.81,5.81,0,0,0-3.57,5.39c.09,1.8-1.46,5,2.13,5.73.09,0,.15.24.19.38,1.3,4.17,5.38,4.8,8.2,3.49a13.09,13.09,0,0,0,4.75-4,8.85,8.85,0,0,0,1.65-5.69,7.5,7.5,0,0,0-3.1-6.13C174.76,183.57,173.1,182.12,171.41,182.53ZM145,196.12c6.57-.71,9.33-3.23,9.62-9.72.14-3.07-4.18-7.21-7.41-7.25-2.92,0-4.93,2.18-7,3.61s-2,4.68-1.91,7.28a4.88,4.88,0,0,0,1.83,4A15.13,15.13,0,0,0,145,196.12Z" style="fill:#e9686b;"/><path d="M147.27,130.24c.32-1.75-1-2.94-1.68-4.25-1.47-2.77-1.08-5.71-.88-8.49a15,15,0,0,1,4.56-9.94c1.46-1.42,3.26-1.5,4.86-2.21a13.16,13.16,0,0,1,10.37.22c3,1.28,5.91,3.83,6.39,7.75.16,1.27.39,1.57,1.75.84,3-1.58,6.26-2.41,9.38-.56,1.83,1.08,4,2,4.89,4.27.08.2.27.37.32.57.37,1.66.42,1.68,2.28,1.26,4.22-1,8.11-.65,11.15,2.91,0,.29-.14.66,0,.85,2.48,3.5,1,7.06.33,10.67-.33,1.92-1.18,3.52-2.74,4.14-2.77,1.09-5.35,3-8.49,2.86-1.56-.05-3.19.16-4.67-.59.19-.38.29-.89.59-1.13a1,1,0,0,0,.08-1.67c-.56-.44-1.13-1.14-2.11-.67-2.21,1.06-4.45,2-6.68,3.05-4.38-.71-8.76-1.47-13.17-2.06-4-.54-7.77-2.39-11.32-4.45a9.12,9.12,0,0,1-3.44-2.84C148.52,130,147.83,130.45,147.27,130.24Z" style="fill:#53b7c9;"/><path d="M290.89,180.4A13.57,13.57,0,0,1,296,168.62c1.72-1.41,3.77-2.3,5.58-3.56,1.42-1,2.39.44,3.63.37a13.12,13.12,0,0,1,8.53,2.58,24.53,24.53,0,0,1,6.56,7.43,18.56,18.56,0,0,1,2.7,9.88c-.18,3.38.65,7.71-3.77,9.65.58,2.67-2.24,2.6-3.3,4-1.61,2.09-4.36,1.92-6.6,1.8a16.6,16.6,0,0,1-4.54-1c-3.23-1.16-5.7-3.35-8.33-5.27-1.35-1-2.2-2.88-2.89-4.53C292.34,186.87,290.2,184,290.89,180.4Z" style="fill:#53b7c9;"/><path d="M185.6,177.68c-1.1-1-2.59-1.33-3.65-2.74-1.23-1.63-3.57-2.48-5.7-2.91-2-.39-3.68-1.68-5.8-1.49-.43,0-.91-.39-1.36-.61-1.49-4.73-1.84-9.33,1.65-13.46a2,2,0,0,0,.37-1c.39-2.77,2.53-3.87,4.67-5,3.19-1.75,6.55-2.09,10.16-2,4.67.09,9.79,4.34,10.46,8.77.19,1.24,0,2.59.65,3.88a3.23,3.23,0,0,1-.31,3.52c-.92,1.21-.05,2.75-.69,4.19a14.13,14.13,0,0,1-9.25,8.41A11.77,11.77,0,0,0,185.6,177.68Zm-3.11-20.91c-3.79-.15-7.48,3.6-7.65,7.49-.11,2.58,3.85,6.62,6.61,6.75a7.93,7.93,0,0,0,8.43-7.55,7.39,7.39,0,0,0-2.56-5.46C186.31,157.08,184.2,156,182.49,156.77Z" style="fill:#fefefe;"/><path d="M157.36,168.31a26.73,26.73,0,0,0-18.39.91c-1.39-2.14-3.91-3.43-4.43-6.27-.84-4.55-1.48-9,2-12.84a1.5,1.5,0,0,0,.34-.77c.4-3,2.65-4,5-5.26a18.65,18.65,0,0,1,9.74-1.89c3.87.12,9.53,3.68,10.42,7.4.25,1.06,1.27,2.41.18,3.78-.28.34.75,1,.83,1.82.11,1.14.75,2.25-.53,3.15a1,1,0,0,0-.31.78C162.62,163.27,160.34,166,157.36,168.31Zm-9.46-17.85c-3.33-.1-7.31,4-7.34,7.65,0,2.52,4,6.54,6.68,6.61,4.67.13,8.16-3,8.39-7.48C155.81,153.51,152.49,150.59,147.9,150.46Z" style="fill:#fefefe;"/><path d="M272.65,198.25c-3.69.3-8.08-4.29-8.88-6.74-.73-2.24-1.71-4.43-1.51-6.88a14.92,14.92,0,0,1,1.91-6.2c1-1.91,2.57-2.55,4-3.6.56-.41,1.53-.8,1.78-.31.74,1.42,2.24.59,2.52.42,3.14-1.91,5.72.58,7.4,1.91a12.52,12.52,0,0,1,3.71,6.56c.94,3.69-.68,6.58-1.44,9.64-.53,2.11-3.08,3.69-5.37,4.29C275.37,197.7,274,198.76,272.65,198.25Z" style="fill:#53b7c9;"/><path d="M301.8,206.24l2.15,1.07c.05.53.09,1.07.79,1.17,2.56,3.67,4.64,7.49,3.64,12.21a9.49,9.49,0,0,1-10.53,7.42c-3.66-.36-5.81-2.47-8-4.79-3.19-3.32-4.15-9.39-1.47-13.22.84-1.2,1.31-2.88,3-3.84a19.1,19.1,0,0,1,4.84-2.18c1.44-.32,3.13.51,4.72.83C300.93,205.55,300.87,206.21,301.8,206.24Z" style="fill:#53b7c9;"/><path d="M225.22,159.44c-.68,6.8-4.14,8.63-10.1,9.22-1.26.13-2.64-.59-3.9-1.09a1.62,1.62,0,0,1-.89-1.86,1.69,1.69,0,0,1,1.84-1.27,20.68,20.68,0,0,1,3,.41,5.08,5.08,0,0,0,4.9-1.63,6,6,0,0,0,1.45-5.93c-.76-2.35-.89-5-2.64-6.89-1.09-1.18-1.41-2.95-3-3.71-.21-.1-.49-.55-.43-.66.58-1,2-.56,2.65-1.58.27-.4.94.13,1.25.53,2.65,3.39,5,7,5.4,11.38C224.89,157.44,225.86,158.39,225.22,159.44Z" style="fill:#53b7c9;"/><path d="M176.94,140.12c2.23-1,4.48-2,6.68-3.05,1-.47,1.55.23,2.11.67a1,1,0,0,1-.08,1.67c-.3.24-.4.74-.59,1.13-1.32,3.31-4.73,3.38-7.34,4.69-1.7.85-3.74.91-5.24,2.26-.73.66-1.28,0-1.92-.31a1.37,1.37,0,0,1-.64-1.84,5.46,5.46,0,0,1,4.12-3.85A9,9,0,0,0,176.94,140.12Z" style="fill:#e9686b;"/><path d="M304.74,208.48c-.7-.09-.74-.63-.79-1.17C304.66,207.4,304.77,207.89,304.74,208.48Z" style="fill:#4e96a7;"/><path d="M301.8,206.24c-.93,0-.87-.7-.86-1.33C301.57,205.13,301.7,205.68,301.8,206.24Z" style="fill:#4e96a7;"/><path d="M237.36,283.47h0l0,0Z" style="fill:#173847;"/><path d="M116,222.52v0h0Z" style="fill:#173847;"/><path d="M364.67,249.85c-2.07-.55-3.27-2.32-5.14-3.07a1.9,1.9,0,0,1-1-1.09,71.74,71.74,0,0,1-1.6-7.24,61.27,61.27,0,0,0-1-6.68c-.7-2.61-.65-5.45-1.23-8.22-.85-4.08-1.86-8.14-2.56-12.26a16,16,0,0,1-.72-3c0-3.41-1.31-6.54-2.32-9.67-.79-2.44-1.71-4.89-2.49-7.34-1-3-2.19-6.14-1.06-9.46,0-.12-.05-.28-.08-.42-.62-2.81-2.54-5.21-2.52-8.22,0-.13-.12-.26-.2-.38-2.07-2.83-2.47-6.46-4.59-9.33-.81-1.09-2-1.81-2.59-3.16-.39-.91-.16-3-2.36-2.13a3.63,3.63,0,0,1-.17-.58,2.5,2.5,0,0,0-1.78-2.35,13.08,13.08,0,0,1-2-1.14c-1.31-.83-2.86-1.35-3.69-2.85-.16-.29-.62.1-1,.24-.65.28-2.59,0-2.55-.27.18-1.45-.74-1.49-1.82-1.81-1.58-.46-2.48-2.7-4.63-1.85a3.59,3.59,0,0,1-.2-.81c0-.64-.47-.64-.9-.69-1.42-.2-2.6-.26-3.86-1.61-1.43-1.52-4.12-1.26-6.18-2.55a21.69,21.69,0,0,0-5.62-2.79c.39.89.08,1.53-.84,2.12.25-2.3-1.77-3-3.14-3.2a17.85,17.85,0,0,1-4.26-1.55l-.4.53c-.21.45-.47.49-.81.12-1.4-1.58-3.26-1.53-5.12-1.35-.3,0-.78.1-.73-.13.59-2.75-1.64-.92-2.41-1.45-.94-.64-2.55.28-3.27-1.27-.1-.22-.81-.24-1.23-.22-2.93.18-5.75-.08-8.21-1.91a.94.94,0,0,0-.82,0c-1.36.7-1.59.83-2.67-.33a3.8,3.8,0,0,0-2.77-.89c-2.25-.17-4.28-2.19-6.7-.83-.77.43-1.29-.43-1.93-.61-2-.55-4.36.61-6-1.31-.08-.1-.34-.18-.39-.14-1.68,1.4-3.13-.05-4.58-.48-1.72-.51-3.48-.24-5.21-.73-1.53-.43-3.38.18-4.87-.31-2.73-.9-5.64-.52-8.31-1.5-.13,0-.39-.1-.42-.06-1.61,2.72-2.76.14-4.12-.32a2.8,2.8,0,0,0-1.54,0c-1.06.23-2.29,1.36-3.51-.18a1.48,1.48,0,0,0-2.13,1.31c-3.65-2.54-7.66-2.54-11.79-1.81,0,.29-.14.66,0,.85,2.48,3.5,1,7.06.33,10.67-.33,1.92-1.18,3.52-2.74,4.14-2.77,1.09-5.35,3-8.49,2.86-1.56-.05-3.19.16-4.67-.59-1.32,3.32-4.73,3.39-7.33,4.69-1.7.85-3.74.91-5.24,2.26-.73.66-1.28,0-1.92-.31a1.37,1.37,0,0,1-.65-1.84,5.46,5.46,0,0,1,4.12-3.85,9,9,0,0,0,2.9-1.36c-4.38-.71-8.76-1.47-13.17-2.06-4-.54-7.77-2.39-11.32-4.45a9.12,9.12,0,0,1-3.44-2.84c-.49-.79-1.18-.32-1.75-.53-5.11-.84-9.64,1.24-14.37,2.62-2.7.79-4,3-5.9,4.5-2.72,2.19-2.76,6.6-.53,9.2a2.52,2.52,0,0,1-1,4.07,1.84,1.84,0,0,0-.86.94c-1.54,3.23-4,6-5.22,9.38-1,2.76-2.17,5.45-3.11,8.25-.88,2.62-1.61,5.32-2.3,8a42.82,42.82,0,0,0-1.73,11.08c0,3.25-.71,6.51-.73,9.76a45.51,45.51,0,0,0,.11,4.76c.27,2.67,0,5.6,1.13,7.89.72,1.51-.86,4,1.81,4.59-.51,2.42,1.37,3.86,2.29,5.7.38.75-1.31.61-.92,1.56.75.42,1.65.61,2.18,1.38.83,1.2.06,1.16-.81,1a18,18,0,0,0,1.46,3.89c1,1.94,3.09,3.12,3.53,5.52a3.85,3.85,0,0,0,2.78,3.3c0,3,2.84,3.83,4.29,5.73a39.8,39.8,0,0,0,8.11,7.45c2.11,1.58,4.08,3.31,6.35,4.69,1.24.75,3.92,0,3.47,2.85a3.57,3.57,0,0,0,.82,0c.3-.08.72-.57.79.08.19,1.86,2.93,3.47.53,5.6a2.13,2.13,0,0,0-.55,1.4c-.11,3.66-1.34,7.14-1.72,10.74-.17,1.56-1.37,3.16,0,4.75.24.28-.05.46-.41.49-1.6.13-1.18,1.59-.88,2.11.86,1.48,1.48,3.3,3.83,3.32a27.68,27.68,0,0,1,4.95.85c.54.11,1.34.13,1.32-.34,0-1.36,1.32-2.12,1.23-3.44-.23-3.46,1.15-6.64,1.78-10l0,0v-.23c.15-.21.52-.43,0-.62V273h0c.23-.65.08-1.32.29-2,.65-2.25,2-4.57.28-6.94,1.09-.27,2,.22,2.95.32,1.31.15,2.25,1.52,3.8.89.56-.23,1.42.75,2.2,1.09s-.21,1-.38,1.36a26.73,26.73,0,0,0-1.46,6.82c-.61,4.26-1.44,8.47-2.28,12.67-.32,1.6,0,2.3,1.57,2.55a55.87,55.87,0,0,1,6,1.15c1.82.5,2.16-.4,2.63-1.86,1.26-4,.7-8.28,2.48-12.13a1.54,1.54,0,0,0,.1-1.06,2.56,2.56,0,0,1,.13-2.33,4.74,4.74,0,0,0,.57-4,24.83,24.83,0,0,0,4.75,1.17c1.12.2,2.7-.91,3.5,1a1.16,1.16,0,0,0,2,.34c.2-.18.91-.2,1-.06,1.26,2.13,3.08,2,5.13,1.5.5-.13,1.86-.55,1.33,1,0,.08.44.5.58.45,1.75-.57,3.16.65,4.59,1.12,2,.64,4,0,6.1,1.3,1.92,1.16,4.93,1.28,7.46,1.83,1.23.27,2.65-.68,3.37,0,1,1,1.7,1.35,3,.82a2.35,2.35,0,0,1,1.7.18c2.33,1.15,4.94,1.34,7.37,2.27s5,.69,7.58,1c.31-1.06,1.39-.8,2.08-1.2,0,1.29.07,2.36,1.9,1.53,1.38-.62,2.73.27,4.1.25a6.43,6.43,0,0,1,3.27,1.18c1.3.74,2.43-.37,3.76-.18s2.82,2.63,3.93-.18a.22.22,0,0,1,.2,0c.86.85,1.88.75,3,.9,1.71.22,3.29,1.15,5.18.7a10.1,10.1,0,0,1,3,.25c.71.06.82.51.72,1.08-.86,4.84-1.83,9.67-2.55,14.53-.4,2.71.75,5.63,3.57,6.29,1.16.27,2.17-.36,3.19-.09,2,.52,3.26,1.36,3.05-2.15a17.27,17.27,0,0,1,1.4-7.61c1.46-3.39,1.76-7.31,2.33-11,.23-1.54.84-1.8,2.14-1.54a10.53,10.53,0,0,0,4.26-.23c.29,2.23-.84,4.19-1.28,6.26-.3,1.39.32,2.9-.18,4-1.11,2.39-1,4.84-1.06,7.29a14,14,0,0,0,.59,5.49c.64,1.68,3.35,3.36,4.59,2.41,1-.75,1.53-.32,2.31,0,2,.84,3.87-.1,3.91-2a43,43,0,0,1,1.11-7.35,15.19,15.19,0,0,0,.53-4.2c-.09-1.18,1-2.68,1.14-4.25a44.74,44.74,0,0,1,2.17-9.74c.65.94,1.34,2.16,2.2,1.06,1.31-1.66,3-.36,4.36-1,1-.47,2.49,0,3.13-.94,1-1.52,2.75-2.24,4.07-3.2,2.71-2,5.62-3.7,8.12-6,.81-.75,2.2-1,2.61-2.17.6-1.61,1.94-2.72,3-3.82,3.28-3.59,5-8,7.24-12.11,1.22-2.21,1.61-4.69,2.57-7,1.65-4,3.74-7.86,4.54-12,1.06-5.44,3.77-10.49,3.71-16.13,0-1.76.84-3.42.51-5.13s.68-2.82,1.05-4.27c-.12,1.92.88,3.47,1.28,5.17a31.27,31.27,0,0,1,1.06,4.31c.37,4.88,1.65,9.61,2.1,14.47.13,1.36-.35,2.81.22,4,.94,2,.26,4.15.84,6.15.25.87-.48,1.41-1,1.82a18.54,18.54,0,0,1-3.58,2.43,4.41,4.41,0,0,0-2.4,3.67c-.22,1.4.76,2.11,2.13,1.68.44-.14.58-.92,1.43-.5-.88,1.35-.86,3-2.09,4.28-1,1-.27,4.61.94,4.87s2-.9,2.68-2c.86-1.44,2-2.67,2.74-4.82a15.84,15.84,0,0,1,.16,2.73c-.3,2,.22,4,0,6-.16,1.56,1.52,1.51,2.53,1.82.58.17,1.16.2,1.51-1.06.67-2.43.38-4.85.59-7.29,1.54,0,1.72,1.2,2.25,2.13.78,1.38,2.09,1.34,3.42.89s.73-1.31.4-2.22a41.92,41.92,0,0,0-3.22-6.37c1-.27,1.51.24,2.18.49a2.63,2.63,0,0,0,3.49-1.36C366.79,251.62,365.64,250.1,364.67,249.85ZM196.74,164.59c-.92,1.21-.05,2.75-.69,4.19a14.13,14.13,0,0,1-9.25,8.41,11.77,11.77,0,0,0-1.2.5c.37.39-.16,1,.54,1.46.9.66,2.2,1.6,1.11,3.16a.63.63,0,0,0,.06.61c3.41,2.56,1.74,6.13,1.9,9.35a18,18,0,0,1-1.51,8.26c-1.07,2.32-.82,6-4.56,6.65-.39.07-.55.41-.64.8-.36,1.6-3.78,4.7-5.25,4.13-1.77-.69-1.81,1.29-3.12,1.22-2.34-.12-4.64.4-7.08.1-4.51-.55-9.06-1.07-13.5-1.92-2.66-.51-5.45-.65-8-1.49-3-1-6.53-1.43-8.84-3.78-2-2-5-3.06-6-6.08-.06-.18-.43-.43-.42-.44,1.28-1.54-.48-2.07-1-3-1.13-2.13-.76-4.58-.77-6.77a22.89,22.89,0,0,1,1.8-9.73c1.12-2.34.85-6.12,4.75-6.74,1-.16-.41-1.68.91-2.33a14.63,14.63,0,0,0,2.93-1.9c-1.39-2.14-3.91-3.43-4.43-6.27-.84-4.55-1.48-9,2-12.84a1.5,1.5,0,0,0,.34-.77c.4-3,2.65-4,5-5.26a18.65,18.65,0,0,1,9.74-1.89c3.87.12,9.53,3.68,10.42,7.4.25,1.06,1.27,2.41.18,3.78-.28.34.75,1,.83,1.82.11,1.14.75,2.25-.53,3.15a1,1,0,0,0-.31.78c.48,4.15-1.8,6.85-4.78,9.19A24.92,24.92,0,0,0,164,169a.84.84,0,0,1,.61.2c1.28,1.52,2.91.76,4.43.72-1.49-4.74-1.84-9.33,1.65-13.46a2,2,0,0,0,.37-1c.39-2.77,2.53-3.87,4.67-5,3.19-1.75,6.55-2.09,10.16-2,4.67.09,9.79,4.34,10.46,8.77.19,1.24,0,2.59.65,3.88A3.23,3.23,0,0,1,196.74,164.59Zm28.48-5.16c-.68,6.8-4.14,8.63-10.1,9.22-1.26.13-2.64-.59-3.9-1.09a1.62,1.62,0,0,1-.89-1.86,1.69,1.69,0,0,1,1.84-1.27,20.67,20.67,0,0,1,3,.41,5.08,5.08,0,0,0,4.9-1.63,6,6,0,0,0,1.45-5.93c-.76-2.35-.89-5-2.64-6.89-1.09-1.18-1.41-2.95-3-3.71-.21-.1-.49-.55-.43-.66.58-1,2-.56,2.65-1.58.27-.4.94.13,1.25.53,2.65,3.39,5,7,5.4,11.38C224.89,157.44,225.86,158.39,225.22,159.44ZM239.47,282.2l.14-.24.08.25ZM282.15,193c-.53,2.11-3.08,3.69-5.37,4.29-1.41.37-2.78,1.43-4.13.92-3.69.3-8.08-4.29-8.88-6.74-.73-2.24-1.71-4.43-1.51-6.88a14.92,14.92,0,0,1,1.91-6.2c1-1.91,2.57-2.55,4-3.6.56-.41,1.53-.8,1.78-.31.74,1.42,2.24.59,2.52.42,3.14-1.91,5.72.58,7.4,1.91a12.52,12.52,0,0,1,3.71,6.56C284.53,187.09,282.91,190,282.15,193Zm15.68-51.57h0C297.89,141.46,297.87,141.46,297.83,141.47Zm10.55,79.22a9.49,9.49,0,0,1-10.53,7.42c-3.66-.36-5.81-2.47-8-4.79-3.19-3.32-4.15-9.39-1.47-13.22.84-1.2,1.31-2.88,3-3.84a19.1,19.1,0,0,1,4.84-2.18c1.44-.32,3.13.51,4.72.83.63.22.76.77.86,1.33l2.15,1.07c.71.08.82.58.79,1.16C307.3,212.15,309.38,216,308.38,220.69ZM323,185.32c-.18,3.38.65,7.71-3.77,9.65.58,2.67-2.24,2.6-3.3,4-1.61,2.09-4.36,1.92-6.6,1.8a16.61,16.61,0,0,1-4.54-1c-3.23-1.16-5.7-3.35-8.33-5.27-1.35-1-2.2-2.88-2.89-4.53-1.29-3.1-3.42-6-2.73-9.58A13.57,13.57,0,0,1,296,168.62c1.72-1.41,3.77-2.3,5.58-3.56,1.42-1,2.39.44,3.63.37a13.12,13.12,0,0,1,8.53,2.58,24.53,24.53,0,0,1,6.56,7.43A18.56,18.56,0,0,1,323,185.32Z" style="fill:#173847;"/><path d="M239.44,282.25l.16-.29.08.25h-.28Z" style="fill:#fefefe;"/><path d="M155.71,85a6,6,0,0,0-3.79,3.14c-.93,1.58.87,2.06,1.87,2.7s2.36,1.32,1.46,3a1.8,1.8,0,0,1-2.87.71,15.87,15.87,0,0,1-2.4-1.88c-1.72-1.6-3.7-1.44-4.54.7a1.78,1.78,0,0,1-1.8,1.38c-1,0-1.16-.9-1.43-1.63-.34-.91-.35-1.78.59-2.29s1.26-1.33,2-1.63c2.14-.84.55-1.63-.1-1.91-1.59-.66-2.4-1.8-1.51-3.18s2.46-1.07,3.59,0c1.8,1.74,3.73.82,4.73-.43,1.86-2.33,2.46-.79,3.39.57A4.66,4.66,0,0,0,155.71,85Z" style="fill:#fefefe;"/><path d="M92,135.46c.39-1.26-.07-1.67-1.59-1.84-.94-.1-2.92-.07-2.71-1.76A2.61,2.61,0,0,1,91,129.5c1.15.25,1.17-.2,1.18-1.1a14.37,14.37,0,0,1,.44-2.36c.12-.66.21-1.37,1.08-1.4a2.18,2.18,0,0,1,2.08,1,3,3,0,0,1,.59,1.84c-.84,3.54,1.71,2.95,3.65,3.08a13.22,13.22,0,0,0,1.74-.18c.33,0,.74-.26,1,.2a.67.67,0,0,1-.42.89c-.64.31-.53.64-.52,1.3a1.47,1.47,0,0,1-2,1.58c-.55-.17-1,.1-1.43.09-2.95,0-2.77,1.76-2.32,3.76.14.63.5,1.4-.36,1.69a1.73,1.73,0,0,1-2.09-.68C91.9,136.95,91.85,137,92,135.46Z" style="fill:#fefefe;"/><path d="M290.2,137.06c-.27-.08-.64-.25-.51-.5s.59-.23.91,0Z" style="fill:#173847;"/><path d="M225,107.06l-.3.27c0-.19,0-.38,0-.57Z" style="fill:#fefefe;"/><path d="M66.94,99.17c3.27-.44,6.13-2.14,9.25-3s6.11-2.68,9.28-3.74c.49-.16.61-.54.88-.87A6.51,6.51,0,0,1,89.81,89a1.93,1.93,0,0,0,1.12-.6c2.52-2.95,5.77-5.12,8.24-8.21,1.18-1.48,1.65-3.79,3.8-4.53.18-.06.23-.63.28-1a11.38,11.38,0,0,1,3.15-5.8c.94-1.07.35-2.08.46-3,.2-1.68,1.6-3,1.11-4.88-.23-.88.57-1.69,1.08-2.28a2.65,2.65,0,0,0,.08-3.9c-.3-.37-.15-.67.05-1,4.4-.8,7.12,4.59,6.61,8.19-1,6.81-4.46,12.47-7.51,18.37a1,1,0,0,1-.29.32c-2,1.54-2.83,4-4.51,5.81a79.74,79.74,0,0,1-6.89,6.09,74.15,74.15,0,0,1-5.93,4.57,43.81,43.81,0,0,1-9.15,4.85c-2,.75-4.12,1.29-6.15,2-4.73,1.74-9.18,1.09-13.79-.8A10.41,10.41,0,0,1,55.41,97c1-.19,2.3-1.65,2.54.78,0,.49.84.39,1.33.43-.08.42-1.69.92-.13,1.2,1.94.34,4,1,5.87-.44l.48,0A.93.93,0,0,0,66.94,99.17Z" style="fill:#173847;"/><path d="M74.45,51.74c-1.24,2.74-1,6.16-4.08,8-2.83,1.74-5.85,2.09-7.79-1.45-.16-.3-.62-.48-.43-.91,1.43-3.17,2.22-6.77,6-8.26,1.63-.64,5.15.13,6.19,1.53C74.63,51.08,74.47,51.37,74.45,51.74Zm-3.33,4.44c-.39-1-.27-2.75-2.1-2.75-.91,0-2.09.84-1.65,1.81s.93,2.39,2.19,2.62C70.27,58,71.38,57.67,71.12,56.18Z" style="fill:#173847;"/><path d="M47.19,104.79c1.56,2.54-.19,4.25-1.74,6.08-1.13,1.32-4.8,2.72-6.36,2-.83-.36-1.4-1.31-2-2.06-1.13-1.31.36-1.79.38-2.47a5.43,5.43,0,0,1,1.91-3.89,7.3,7.3,0,0,1,6.27-2.17C46.52,102.45,48.12,102.87,47.19,104.79Zm-3.31,2.81c.06-.8.08-2-.89-1.81a2.77,2.77,0,0,0-2.48,3c.07.8-.32,2.23,1.06,2.16C43.49,110.8,43.83,109.21,43.89,107.59Zm-2.25-4-.1-.14s-.12.07-.12.12.06.09.09.14Z" style="fill:#173847;"/><path d="M129.41,48.82c-1.67,1.48-3.33,2-5.49.7-.83-.51-.37-2.41-2-1.76.06-.27,0-.62.2-.78a1.52,1.52,0,0,0,.5-1.77c-.75-1.7.59-2.65,1.58-3.07a21.68,21.68,0,0,0,3.9-2.52c.87-.6,1.78-1.41,2.92-.4s2.64,1.57,1.47,3.42a2.24,2.24,0,0,0,0,2.1c.32.93-.08,1.19-.91,1.17a1.82,1.82,0,0,0-.17-1.46c-.59-1.57-1.16-1.54-2.37-.31C127.24,45.94,128.5,47.33,129.41,48.82Z" style="fill:#173847;"/><path d="M103.27,103.35a8.82,8.82,0,0,1-2.77,1.21c-.82.22-1.48-.45-2.25-.2-.12-1.11-1.1-1.75-1.48-2.6s1.08-.12,1.57-.74c-1.4-1.26-.69-2.6.39-3.46s2-2.19,3.42-2.92c1.65-.86,4.68-.3,5.56,1.33a.72.72,0,0,1,.08.58c-1,1.51-1.06,3.55-2.61,4.77a23.43,23.43,0,0,0-.34-2.81c-.17-.72-.7-1.45-1.45-1.42a2.24,2.24,0,0,0-1.58,1A4.34,4.34,0,0,0,103.27,103.35Z" style="fill:#173847;"/><path d="M103.27,103.35a4.34,4.34,0,0,1-1.46-5.25,2.24,2.24,0,0,1,1.58-1c.75,0,1.29.7,1.45,1.42a23.43,23.43,0,0,1,.34,2.81C105,102.4,104.58,103.31,103.27,103.35Z" style="fill:#4e96a7;"/><path d="M129.41,48.82c-.91-1.49-2.17-2.88-.39-4.68,1.21-1.23,1.78-1.26,2.37.31a1.82,1.82,0,0,1,.17,1.46C132.28,47.94,131.36,48.76,129.41,48.82Z" style="fill:#4e96a7;"/><path d="M138.82,34h.92C139.43,34.26,139.12,34.57,138.82,34Z" style="fill:#53b7c9;"/><path d="M36.5,47.8c-1.27-1.28-4.24-.2-5.46-3.06-1.64-3.85,1-11.16,4.88-12.69,1.26-.49,2.59.2,3.88.35,3.15.38,6.35,3.16,5.87,5.88s-1.19,6-3.91,7.91A7.55,7.55,0,0,1,36.5,47.8Z" style="fill:#53b7c9;"/><path d="M49,31.76c-2.64.08-5.73-2.19-5.92-4.36-.13-1.49,2.7-3.93,4.56-3.94,2.24,0,5.49,2.67,5.48,4.51C53.12,30.17,51.48,31.68,49,31.76Z" style="fill:#53b7c9;"/><path d="M137.33,29.22a39.56,39.56,0,0,0-3.65-4c-1.37-1.2-2.94-2.1-4.32-3.26-2.29-1.93-5.49-1.93-8.15-3.41-3-1.67-6.88-1.52-10.29-1.35-3.26.16-6.57,1.05-9.87,1.32-1.65.13-2.43,1.83-4.13,1.61-2.1-.27-3.94.76-5.71,1.66a3.19,3.19,0,0,1-2.78.41c-.58.85-1.16,1.8-2.22,2-2.64.52-5.14,1.17-6.66,3.71-.33.56-1.06.51-1.61.29a2,2,0,0,0-1.61.17C72.26,30,69,33,65,34.85a7.94,7.94,0,0,0-2.57,1.84c-1.38.93-3.16,1.72-4.1,2.76C56.08,41.93,53,43.38,50.91,46c-.76.94-1.59,1.6-.34,2.71-.77.43-1.81-.07-2.08,1a.5.5,0,0,1-.85.29c-1.51-1.22-2.06-.76-2,1.05a1.41,1.41,0,0,1-.81,1c-2.3.9-3.05,3.35-4.76,4.88-.9.81-2.28,1-2.89,2.3a30,30,0,0,1-2.53,4c-1.14,1.63-2.34,3.22-3.54,4.8-1,1.31-2.5,2.29-2.55,4.19,0,1-1.19,1.1-1.57,1.83l-.48-.66a8.81,8.81,0,0,0-2.24,5c-.08,1.69-1.91,2.53-2,4.3-.05.73.39,1.5-.38,2.38-1.33,1.54-.11,4.09-1.78,5.68-.07.07.06.42.18.59a4,4,0,0,1-.33,4.9c-1,1.27.6,3.16-1.24,4.05a1.52,1.52,0,0,0,.22.57c1.55,2,1.41,4.34,1.56,6.64-.08.54.41.64.69.9a.18.18,0,0,0,.07.24l.18,1.84c-.2,1.26,1,1.75,1.44,2.67.24,2.2,1.91,3.46,3.26,4.93.56-.67,1.43-.56,2.29-.75-.27-.21-.43-.27-.49-.39-.51-.93,0-1.64.35-2.51.64-1.7-1.53,0-1.55-1.07,0-.36,0-.72.06-1.08s.65-.87.11-1.37a3.42,3.42,0,0,0-.93-2.16c-.25-.88.31-1.87-.4-2.68a10.43,10.43,0,0,1-.07-5.84c.74-3.62.88-7.3,1.54-10.93a29.17,29.17,0,0,1,1.63-5.11c1-2.59,1-5.47,3.52-7.44s3.45-5,5.13-7.48c1.25-1.87,2-4.18,4.33-5.13.59-.24.58-.78.67-1.27.06-.31-.24-.84.25-.9,2.41-.32,3.17-2.48,4.31-4,.67-.92,1-1.73,2.26-2.16,1-.32,2.41-1.55,2.47-2.19.22-2.27,2.26-2.78,3.45-3.42C57.2,49,58.64,47,60.51,45.57a20.69,20.69,0,0,0,3.79-3.06c1.21-1.46,3.43-2.42,5.21-3.29,4-2,7.42-4.84,11.66-6.48,5-2,9.5-5.27,15-6,1-.12,1.54-1.12,2.88-.87.93.17,2-1.6,3.52-.9,0-2.11,1.3-.65,1.94-.64a4.21,4.21,0,0,0,2.31-.36,2.88,2.88,0,0,1,2.64-.22c1.52.76,3.41-.91,4.7.84,0,.05.33,0,.4-.06,2-2.5,4.24,0,6.25,0,3.23.14,6.26,1.94,9.29,3.28,1.11.49,2.33.71.64,2.36a3.91,3.91,0,0,1,4.58,1c.15.15.39,2.93,1.94.85.11-.15.24.37.28.63.11.74.71,1,1.28,1.37l.09-1.36A6.39,6.39,0,0,0,137.33,29.22ZM26.84,110.91c-.82-.9-1.37-.53-1.89,0l-.43.45.43-.45C25.47,110.38,26,110,26.84,110.91ZM102,19.53a.25.25,0,0,1,.07-.15.26.26,0,0,0-.07.15c0,.11.12.21.19.32h0C102.09,19.74,102,19.64,102,19.53Zm.2-.3h0l.21.32Z" style="fill:#53b7c9;"/><path d="M363.68,189.92c.08-.07.21-.22.23-.21.2.14.15.29,0,.41Z" style="fill:#fefefe;"/><polygon points="136.02 313.76 135.94 313.62 136.11 313.63 136.02 313.76" style="fill:#fefefe;"/><path d="M136.87,313.85a1.16,1.16,0,0,1,.12.28s-.09.09-.13.13a1.27,1.27,0,0,1-.12-.28S136.82,313.9,136.87,313.85Z" style="fill:#fefefe;"/><path d="M69.23,236.75l-.1-.48.34.23Z" style="fill:#fefefe;"/><path d="M171.41,182.53c1.69-.42,3.35,1,4.83,2a7.5,7.5,0,0,1,3.1,6.13,8.85,8.85,0,0,1-1.65,5.69,13.09,13.09,0,0,1-4.75,4c-2.82,1.3-6.9.68-8.2-3.49,0-.14-.1-.36-.19-.38-3.59-.76-2-3.94-2.13-5.73a5.81,5.81,0,0,1,3.57-5.39,1.79,1.79,0,0,0,.94-.86C167.78,182.83,169.24,182.42,171.41,182.53Z" style="fill:#173847;"/><path d="M145,196.12a15.13,15.13,0,0,1-4.84-2.1,4.88,4.88,0,0,1-1.83-4c-.09-2.6-.14-5.85,1.91-7.28s4.05-3.64,7-3.61c3.23,0,7.54,4.18,7.41,7.25C154.31,192.89,151.54,195.41,145,196.12Z" style="fill:#173847;"/><path d="M182.49,156.77c1.71-.82,3.82.3,4.83,1.22a7.39,7.39,0,0,1,2.56,5.46,7.93,7.93,0,0,1-8.43,7.55c-2.76-.13-6.72-4.17-6.61-6.75C175,160.37,178.7,156.62,182.49,156.77Z" style="fill:#173847;"/><path d="M147.9,150.46c4.58.13,7.91,3.05,7.72,6.78-.22,4.49-3.72,7.6-8.39,7.48-2.64-.07-6.7-4.09-6.68-6.61C140.59,154.51,144.57,150.36,147.9,150.46Z" style="fill:#173847;"/><path d="M109.13,54.89c-.3-.37-.15-.67.05-1a4.93,4.93,0,0,0-2.87-1.44A35.13,35.13,0,0,0,86.93,56a78,78,0,0,0-22.74,17c-5.26,5.73-9.28,12-9.79,20.09a5.14,5.14,0,0,0,1,4c1-.19,2.3-1.65,2.54.78,0,.49.84.39,1.33.43a8.43,8.43,0,0,1,1.6-.85,8.43,8.43,0,0,0-1.6.85c-.08.42-1.69.92-.13,1.2,1.94.34,4,1,5.88-.44l.48,0,1.43.13c3.27-.44,6.13-2.14,9.25-3s6.11-2.68,9.28-3.74c.49-.16.61-.54.88-.87A6.51,6.51,0,0,1,89.81,89a1.93,1.93,0,0,0,1.12-.6c2.52-2.95,5.77-5.12,8.24-8.21,1.18-1.48,1.65-3.79,3.8-4.53.18-.06.23-.63.28-1a11.38,11.38,0,0,1,3.15-5.8c.94-1.07.35-2.08.46-3,.2-1.68,1.6-3,1.11-4.88-.23-.88.57-1.69,1.08-2.28A2.65,2.65,0,0,0,109.13,54.89ZM61.67,97.26l-.26,0Z" style="fill:#53b7c9;"/><path d="M66.94,99.17A.93.93,0,0,1,65.51,99Z" style="fill:#4e96a7;"/><path d="M71.12,56.18c.26,1.49-.86,1.81-1.56,1.68-1.26-.23-1.75-1.64-2.19-2.62s.74-1.81,1.65-1.81C70.85,53.43,70.73,55.17,71.12,56.18Z" style="fill:#4e96a7;"/><path d="M43.89,107.59c-.06,1.62-.4,3.21-2.32,3.31-1.37.08-1-1.36-1.06-2.16a2.77,2.77,0,0,1,2.48-3C44,105.59,43.95,106.8,43.89,107.59Z" style="fill:#4e96a7;"/><path d="M41.64,103.63l-.13.11s-.1-.1-.09-.14.08-.08.12-.12Z" style="fill:#e9686b;"/></g></g></g></svg>