<svg viewBox="0 0 1729.51 2215.97" xmlns="http://www.w3.org/2000/svg">
  <title>welcome</title>
  <g data-name="Layer 2" id="Layer_2">
    <g data-name="Layer 2" id="Layer_2-2">
      <g id="idyCU2.tif">
        <path
          d="M1729.51,1101.92c-8,24.29-31.79,32.34-49.2,46.72-8.67,7.16-19.18-1-22.15-15.68-4-19.67,8-37,27.45-45.23,5.24-2.23,9.71-10.38,15.5-15.22,4.19-3.5,10.34-11.19,12.38-8.9,4.85,5.46,16.4,6.93,13.64,18.24-.28,1.13,1.54,2.78,2.38,4.19Z"
          style="fill:#163847;"/>
        <path
          d="M1524.61,228.94c12.66-2.33.21-6.86,1-10.17-5.4-1.19-5.32-3.73-3.15-8.37,1.35-2.81,1.56-7.79-.08-10.14-8.1-11.41-7.76-25.71-6.62-37.1.82-8.37-.69-13.66-4.74-18.32-6.2-7.15-2.14-18.67-11.36-24-.08-.05,1.14-1.67.93-2.22-3.07-7.68-3.71-16.07-6.67-24-3.23-8.53-10.27-10.22-13.85-16.36-6.7-11.47-9.61-26.88-27.09-28.28-.66-.05-1.38-2.89-1.62-4.47-.48-3.6-1.54-5-5.9-4.74-7.49.5-12.52-7-13.53-11.31-2-8.55-9.9-10-13.61-15.91-7.47-11.84-11.84,3.6-19,2.36-1-6.14-4.08-6.28-10.88-6.86-12.95-1.11-24.6-18.3-39-2.22-.45.5-3.39-.64-4.71-1.61-9.16-6.88-17.56-4.45-26.93.34-8.87,4.58-18,12.29-28.15,10C1279.19,13.16,1275.38,19,1269,24c-4.58,3.58-13.37,1.7-13.69,11-12.42-.48-17,7.12-18.11,17.93-.37,3.71-5,4.55-5.48,4.4-15.15-5.24-17.69,13.93-17.5,15.46,1.54,13.16-16.44,13.16-15.25,24.73-11.55-3.18-14.27,10.8-24.76,12.21-13.72,1.83-21.24,16.47-34.69,20.6-.34-1.54-1-4.55-1.69-7.63-5.38,1.67-5.83,7.33-9.59,9.4-2,1.11-4.08,6.94-7,1.83-4.74-8.31-8.31-.85-9.29,1.35-5.24,11.57-13.61,7.1-21.71,5.3-2-.42-4.42-.61-6.12.21-7.31,3.57-14.25,5.8-20.89-1.3-1.8-1.91-4.21-1.35-5.75.56-8.47,10.51-22.08-7.2-30.08,5.53-8.42-9.32-20.42-5.69-30.5-8.74-14.78-4.48-29.23-11.57-43.69-15.52-11.89-3.23-24.55-9.93-36.7-8.53-11.49,1.35-22.72,3.65-34.42,2.7-9.8-.82-20.23,5.06-29.29-.19-7.71-4.47-12.55-2.7-18.8,1.85-2.49,1.83-4.85,7.81-9.64,3.84-10.54-8.69-21.85-1.48-31.78,0-13.16,2-30,1.83-35,20.15-1,3.58-5.4,1.7-8.29,2.22s-6.38-1-8.5,2.17c-5.67,8.5-15.68,8.58-23.59,9.37-7.49.77-13.74,1.88-20.65,5.24-9.16,4.45-15.28,12.18-23.22,17.82-11.86,8.47-24.92,17-26.43,35-7.71-11.12-14.88-22.3-28.09-25-9-1.88-12.55-17.16-24.26-10.17-7.26,4.34-13.43-6.43-20.23-.27-.37.32-1.54-1-.79-2.59,3.89-8.58-5.93-6.14-8.66-9-3.47-3.58-1.54,3.95-3.68,5.38-2.46,1.64-5.24,4.85-7.94,3.28-15.83-9.14-31.33-7-47,.21-1.22.56-4.13.13-4.53-.69-4.4-9.14-10.22-3.47-16.13-2.33-8.24,1.56-14.11,12.18-24.39,6.28-1-.61-3.63,1.91-5.64,2.59-13.64,4.53-27,10.43-41,13-13.21,2.44-23.12,15.15-37.92,11.36-3.65,14.17-20,8.63-28.17,18.64-7.44,9.14-23.62,10.14-30.93,22.24-.4.61-2.41.37-3.65.34-6.75-.21-32.23,20.2-30.93,26.53,1.4,6.81-1.8,7.23-6,8.5-13.9,4.18-20.76,16.76-26.69,27.46-5.61,10.09-15.6,15.94-20.42,26.61-1.8,4-7.39,7.63-10.54,12.82-4.34,7.12-4.79,16.68-12.31,21.66-7.33,4.82-4.53,18.88-18.14,18.19,10.7,9.19,9.19,15-3.18,19.78-2.81,1.06-10.12,3.47-7.65,9,6.17,13.82.32,24.65-6.43,36-2,3.31-5.93,6.78-1.48,12.45,4.58,5.83-2.67,7.26-6.2,9.66,2.91,2.89,11.86,4.55,7.76,8.55-8.87,8.66-4.9,19.65-8.26,29.1-2.17,6.06-1.32,12.92-8.79,15.81,14.7,9.06-8.63,25.71,6.88,34.74.45.26.24,3.15-.45,3.6-7.84,5.14-1.56,10.49-.4,15.73-14.64,2.83-1.43,11.65-.93,14.17,2.22,11.41-5,24.12,4.16,34.4.85,12.79,3.07,26.67,7.07,37.36,4.55,12.21,4.4,26,12.23,37.81-5,1.38-13.48,1.4-4.66,9.56,2.94,2.7-2.7,3.42-3.31,5-1.93,4.82-7.28,11.12,3.87,12.95,7.2,1.19,6.49,1.64,1.54,8.24-3.34,4.42,1.56,11.78-4.9,15.57,3.68,2.94,17.48-2.07,6.59,9.32,9.9,12.63,1.22,26.77,3.07,40.12,1.22,8.74,9-.13,10.83,6.36-15,7-1.72,14.83.16,22.61.5,2.12,4.29,3.6,2,6.51-2.15,2.7-3.73.79-6.28-.5-4.74-2.38-2.83,2.54-2.81,4.26.24,11.52,11.23,16.07,15.91,24.63-9.72,3.28-9.72,3.28-3.63,11.57.45.61,1.51,1.59,1.4,1.75-9.27,13.58,5.4,19.44,9.16,28.81,1.14,2.81,3.15,5.93,2.7,8.58-.11.56-.16,1.09-.21,1.56a13,13,0,0,0,0,2,1.29,1.29,0,0,0,0,.32,3,3,0,0,0,.13.85.05.05,0,0,0,0,.08,3.64,3.64,0,0,0,.21.77,1.32,1.32,0,0,0,.13.34,4,4,0,0,0,.29.58,2.29,2.29,0,0,0,.37.48,3.91,3.91,0,0,0,2,1.24,6.19,6.19,0,0,0,1,.24,8.32,8.32,0,0,0,.85.11,48.72,48.72,0,0,0,5.83-.16c-.26.85-.53,1.72-.82,2.57-.21.69-.45,1.35-.69,2-1.14,3.39-2.36,6.78-3.42,10.19-.4,1.35-.79,2.73-1.14,4.13-.16.53-.26,1.06-.4,1.62-.16.77-.32,1.56-.45,2.33s-.27,1.56-.34,2.36-.19,1.67-.24,2.49-.08,1.51-.08,2.28c0,.4,0,.77,0,1.14,2.2,3.2-3,8.23.53,9.66,13.8,5.56,2.28,17.37,6.57,26.21,3.63,7.41-1.11,9.82,8,15,3,1.69,4,3,1.43,5.61-4.9,5-5.11,9.51.4,15.07,1.85,1.88,5.4,3.2,1.91,5.38-7.94,4.9-5,10.12-2.28,16.34,1.16,2.65,3.47,6.2.05,9.72-5.45,5.59-1.83,17-.74,17.72,13.05,9,3.92,14.54-4.87,21.4,5.56,1.09,8.92,1.38,12,2.46,3.76,1.32,4.18,4.69,2.09,7.47-4,5.3-7.2,18.48-5.64,25.71,10.38-2.33,19.38-1.61,24.65,9.64,1,2.07,4,3.15,6.12,4.69-.48-2.36,9.59-1.14,2-5.69-2.59-1.56-5.38-3.36-2.2-5.35s.4-7.28,4.05-6.65c3.07.53,8.34,4.37,8,5.59-1.35,5.35,1.91,14.35-8.61,14.22,7.41,10.19,9.93-2.81,16.42-3.92-1.43,9.27,2.54,13.4,11.41,12.39-1.64-4.55-3.52-9.22,3.23-11.31,3.44-6.33-2.62-18.67,11.52-18.27-4.37-11-8-22.38-11.92-33.47-3.36-9.43,2-8.74,5.56-11.52,5,2.86-2.57,7.39,2,9.24,4,1.59,4.9-2.14,6.17-5,1.75-4,5.19-2.49,8-1.77,12.63,3.18,25.16-3.68,37.73-.29,7.12-3.58,12.74-6.67,12.47,6.46-.4,19.22,14.4,29.26,28.12,38.45,5.8,3.89,11.76,6.46,15,13.24,4.74,10,11.44,16.47,23.7,11,1.11-.5,3.15,1,4.74,1.56,10.27-1.48,10.33,3.42,6.62,10.62A54,54,0,0,0,491.56,1188c22.75-1,45.23,4.79,67.79,1,26.64-4.45,51.5-13.74,74.06-28.76,4.53-3,8.71-6.49,13.37-10,5.67,14.67-7.79,25-6.54,37.92,2.22,1.85,4,4.34,1.85,6.78-7.92,8.84-6.49,21.21-12.07,30.88-.64,1.14-2.12,3-1.88,3.23,10.86,11.31-5.27,18.06-4.85,28.25.45,11-3.84,22.32-6.81,33.31-1.46,5.43-2.46,10.12,1.85,14.62a15.15,15.15,0,0,1,2.41,4.32c-16.68,9.93-2.3,10.64,4,13.74,2.22,1.11,2.14,3.31,2.81,5.43,2.83,9.16,9.82,10.91,16.18,4.1,1.14-1.22,1.27-3,3.52-2.36,18.11,4.82,36.81,2.49,51.82-6.3,1.48-.85,3.26-2.28,4.66-2,13.43,2.17,25.74-3.63,38.4-5,15-1.59,28.09-10.49,43.74-9,6.33.64,6.83-7.65,7.86-12.29,2.2-9.72,2.22-19.83,6-29.37,1.46-3.71.58-8.71-5.35-7.92-12.47,1.72-25.5-.4-36.86,8.45-7.89,6.14-19.14,3.6-28.76,5.8-6.33,1.46-13.05,2.07-18.75,5.38-3.92,2.25-6.94,5.24-11.73,2.12-1.19-.77-4.66-.5-4.82-.05-3.39,11.44-13.72,6.75-20.87,9.51-7.63,2.94-8.9,4-8-6.22,2.89-32.2,17.08-62.73,15.76-94.93-.77-18.59,11.68-30.74,15-47.21,3.76-18.8,5.19-38.79,14.91-56.69,2.73-5.06,2.49-12.39,7.57-17.13l.19-.19c-.05,0-.08,0-.13,0-2.89-.45-2.73-1.75-.9-3.55-.66-6.78,7.07-7.2,9-12l0-.64c-9.74-3.65-7.52-11.49-4.71-17.66,3.26-7.15,12.29-9.08,17.85-6.73,7,3,18.69,7,10.59,19.62,2.17,2.14,1.64,4.79,1.4,7.39,3.57,6.36,1.83,15.49,10.19,19.3a8.1,8.1,0,0,1,1.88,1.69c-11.17,10.67,5.75,13.45,6.2,21.42s2.44,17.4,7.31,23.14c9.16,10.75,18.09,22,29.66,30.74,14.8,11.23,32.7,17.37,46.95,29.5,4.24,3.63,10.27,1.11,15.31,2.38,14.8,3.76,29.5,10,45,7.07,12.82-2.38,26.29,5.14,38.87-4.13,3.95-2.91,10.09,2.91,17.45,1.54a81.07,81.07,0,0,0,17.21-5.24c2-.87,3.92-1.83,5.85-2.83s3.81-2.09,5.69-3.28c1.24-.77,2.49-1.59,3.73-2.44a0,0,0,0,1,0,0c-.5-1-1-2-1.32-2.86-.13-.32-.24-.64-.34-.93a7.33,7.33,0,0,1-.21-.71,9,9,0,0,1-.37-2.38,4.46,4.46,0,0,1,.08-.87,3.48,3.48,0,0,1,.24-.79l.24-.48a2.51,2.51,0,0,1,.42-.5,1.74,1.74,0,0,1,.48-.4,4.21,4.21,0,0,1,.58-.34,4.51,4.51,0,0,1,.71-.26,6.29,6.29,0,0,1,.82-.19l.61-.08a5.16,5.16,0,0,1,.66-.05,20.15,20.15,0,0,1,4,.24c2.75-2.12,5.56-2.15,8.61-.58,6.36,3.26,13.64.16,15-4.29,5.69-18.85,26.19-21.08,36.83-34.53,4.82-6.06,9.14-11.47,10.17-18.69a74.49,74.49,0,0,1,8.87-26.19c2.38-8.37,2.54-17.24,16.87-11.84,7.18,2.7,12.92,3.31,18,10.59,3.15,4.58,10.25,8.47,17.79,9.77,10.35,1.8-3.79,2.73-2.94,3.34,21.26,8,28-6.33,36.12-18.38,8.18-19.78,10.54-40.7,12.6-61.78,2.78-28.41,2-57.2,7.73-85.24,6.59-32-1.56-66,13.32-96.94,1.67-3.47-6.3-6.57-.74-12.63,7.47-8.13,6.14-19.83,5.67-30.13-1.14-24.68-4.1-49.44,4.08-73.4,1.27-3.76.42-4.9-1.14-7.63-2.59-4.61,6.35-23.3,11.39-25.16,11.33-4.21,24.33-2.49,34.45-12.58,2.75-2.7,10.62-7.26,16.39-7.52,12-.56,22.48-3.65,31.72-11.23,1-.87.74-2.81,3.6-2.36,10.46,1.67,13.93-3,10.3-13.45,4.74-.19,9,3.76,14,1.14,18.22-9.74,31-26.4,47.69-38-2.67-14,10.91-10.94,16.47-13.27,11.09-4.66,17.77-12.52,22.27-22.08,2.7-5.67,7.86-12.31,10.51-14,11.41-7.07,18.85-15.52,21.08-28.7,1.24-7.36,2.3-14.43,12.1-15.94,4-.64,5-4.34,3.55-9.4-1.93-6.59-1.93-13,6-18.24,5.75-3.84,12.13-10.8,7.36-20-1.11-2.17-2-4.48.08-5.83,9.11-5.93,6.59-18.8,15.17-24.89,7.78-5.53,8.45-14.35,7.68-22.06s4.16-9.11,8.1-12.34c-11.44-1.8,1.16-9.29-3.31-13.72-5.14-5.11,1.85-10.19,3.87-13.64,5-8.45-.69-19.65,5.56-25.58,14.35-13.69-8.45-31.17,6-43.93,0-.11-.5-.72-.66-1.09-5.11-12.87-.24-26.06-.13-39,.05-6.49,6-12.26-3.12-17C1522,232.83,1521.54,229.5,1524.61,228.94ZM226.6,929.49l-.45.08-.48.08c.21-.56.4-1.11.61-1.67l.37.37a.92.92,0,0,1,.27.29C227.32,929.19,227,929.38,226.6,929.49Zm52.75-76.13c-4.71,3.52-5.75-3.34-8.13-.82-9.4,5.77-14.33-8-22.9-4.53-.74-7.92-2.91-16-1.83-23.65,1-6.75,8.55-5.38,13.24-4.21,9.69,2.36,22.43.5,21.26,18.24C280.68,843.27,287.3,847.45,279.35,853.36Zm12.07-328.72c-8.34,21.47,1.06,50.39-26.37,64-.48.21-.34,1.56-.58,2.86-1.91-4.18-2.83-8.13-7-10.78-11.7-7.39-13.77-17.69-7.44-30.16,4.93-9.74,14.88-15.91,18.59-26.48,8.1,6.41,11.65-13.05,20.26-3.55C290,521.75,291.8,523.71,291.43,524.64Zm838.32-29.5a19,19,0,0,0,2.33-1.17c4.34-2.3,7.92-8.82,13.45-5.08a15.83,15.83,0,0,1,6.59,15.44c.16,10.14-1.77,16.84-8.95,21.5-15.12,9.85-29.6,20.6-46.29,28-6.41,2.86-11.17,1.19-15.44-2.59-4.63-4.13,0-8.53.58-13C1086,510.26,1108.32,503.35,1129.74,495.14Zm-60.51-276.82c13.11-18.06,33.73-12.66,50.79-21.24-2.46,13-1.22,23.86-11.1,33.47-7.1,6.91-14.54,9.67-22.64,12.82-2,.74-4.5,0-6.46.74-5.48,2-12.76,7.94-15.54-.37C1061.59,235.69,1062.8,227.19,1069.24,218.32ZM984.05,414.19c9.8-7.15,19.38-15.49,31.17-18.62,5.69-1.51,10.22-4.24,15.28-6.51,6-2.73,13.9-5.08,18.09.53,4.5,6.09,4.26,13.85-.19,21.79-5.77,10.3-16.76,10.35-24.2,15.73-11.94,8.63-27.14-1.32-38,11-4.37,5-5.06-2.81-3.55-7.92C982.12,425.42,977.72,418.83,984.05,414.19Zm-4.32,191.31c.87-4.5,5.19-4.42,8.61-3.65,8.84,1.93,3.18,9.56,5.27,13.88.16,10.57-2.12,19.49-12.55,24.12-5.11,2.25-8.08,1.91-8.55-4.9C971.74,624.25,977.8,615.44,979.74,605.51Zm-92.1-295.94c1.06-8.92,5.14-16.5,11.17-23.12.29-.32.61-.93.9-.9,6.22.4,12.07,5.45,16.73-5.77,2.7-6.49,15,1,23.22.19,6.59-.61,6.59,5.43,5.24,10.59-3.87,14.83-20.55,28.23-36.2,27.14-5.06-.34-8.61,4.87-15,1.06C889,316,887.24,314.42,887.64,309.57ZM820.12,426.24c12.63-2.2,25.95-7.15,36.67,5.83-3.89,5.51-8.79,11-13.11,16.21-5,6-12.31,12.66-22.61,12.63-8.16,0-15,6.09-23.41,7-5.38.58-6,.79-6.2-5.32C790.73,441.25,798.75,430,820.12,426.24ZM784.45,576.67c6.57-3.28,15.25.87,20.55-6.62,8.71,6.51,17.32,8.87,27.19,5.67,1.24-.42,4.37,2.78,5.64,4.9,6.49,10.91-1.62,21-2.36,31.48-.19,2.49-4.24,2.25-5.3.42-5.32-9.35-11.84-3.44-18.16-1.93-10.33,2.46-20.55,1.88-29.63-3.95C769.12,598.09,770.15,583.82,784.45,576.67Zm-81.35-311c6-16.71,20-25.58,36-31.25,3.18-1.11,7,.37,9.51,3.36,1.77,2.17,3.18,2.94,4.34-.37,1.06-3,1-9,5.9-5.06,4.08,3.18,11.28,4.53,10.14,13.9-8.39,5.67-8.08,20.5-21.37,25-9.69,3.28-20.39,4.66-27.78,13.66-1.77,2.15-7.76,6.73-11.57,2.36C703.13,281.29,700.48,272.92,703.1,265.64ZM617,363.88C625.52,361,632.7,353,644.21,355c9.19-2.22,19-5,29-6.88,4-.77,9.24-2.91,12.07,2,2.44,4.21.69,8.39-2.22,12.18-6.81,8.87-7.39,23.12-21.93,25.34-.4.08-.79.66-1.14.61-16.47-2.54-28.55,10.09-43.69,12.74-9.45,1.64-14.35,1.38-14.27-9.72C602.09,379.27,600.95,369.39,617,363.88ZM682.19,571c-9.64,17.37-12.9,39.88-35.27,48-7.57,2.73-8.5,2.09-7.78-6.73,5.51-19.22,14.88-36.81,35.06-46.1C678.06,564.38,685.68,564.73,682.19,571Zm-162.77-47.8c4.55-9,14.06-8.74,21.82-8.84,4.08-.08,9.67,5.06,12,9.27,2.78,5.14-9.59,28.55-15.52,30.82-5.64,2.17-11.7,3.28-16.31,4.53-13.13.24-16-4.32-11-15.38C513.41,536.79,516.05,529.83,519.42,523.21ZM476,363.11c1.38-14,18.27-6,22.67-16,.66-1.46,3-1.69,4.66-.45,3,2.3,5,5.93,3.81,9.11-2.22,5.93-2.67,9.56,1.83,15.81,4,5.51-2.86,13.8-8.92,17.24-6.43,3.71-12,8.58-18.56,12-4.4,2.28-7.76,8.61-13.66,5.69-6.81-3.39-6.38-10.91-8.08-18.43C466.17,381,457.24,363.64,476,363.11Zm-70.81,85.34,1.93.79a6.28,6.28,0,0,1-1.93.77,7.19,7.19,0,0,1-2.09-.61Zm2.3,7c7.26,1.14,6,6.14,5.51,11.28-2.07,13.08-6.2,25.31-19.33,31.4-4.53,2.09-5.48,6.62-9.29,8.87-4.9,2.89-7.89,10.75-15.23,7-6.81-3.47-13.21-21.63-8.55-25.87,9-8.18,9.66-21.37,20.84-28.68C390.51,453.62,398.38,454.07,407.49,455.47ZM373.81,306.69c5.19,5,11.12,10,15,16.89,2.15,3.79,5.67,8.92,1,11.62-9.14,5.32-8.29,24.1-25.18,18.8-.27-.08-1.88,2.62-2.09,4.13-1,8-4.13,15.73-13,14.83-10.57-1.06-10-12.58-12.23-19.75C334.38,343.84,363.27,307.93,373.81,306.69ZM321.43,646.13c3.36-6.14,5.88-12.76,9.14-19,5-9.56,11.89-7.73,15.7-.16s10.09,14.62,8.66,21c-.13,15.7-10.57,22.67-16,32.07-1.72,3-8.79,2-11.47-2.44C321.59,668,314.76,658.39,321.43,646.13Zm319.9,380.25c5,16,6.49,31.38-7,44.41,4.45,12.31-12.1,12.71-12.74,23.22-1.19,20.12-22,20.39-34.11,26-7.23,3.36-21.4,4.71-28.6,8.21-14.41,7-27.12,1.54-40.14,1.88-14.86.37-29.79-.77-43.8-11-11.52-8.42-22.51-17.77-34.5-25.66-11.17-7.36-10.54-11.36.9-16.66,2.86-1.32,7.18-4.61,5.3-6-4.32-3.26-2-10.35-8.45-11.86-18.4-4.34-22-10.49-18.19-27.51a4.63,4.63,0,0,0,.11-1.06,6.49,6.49,0,0,0-.05-.72,5.35,5.35,0,0,0-.19-1c0-.19-.11-.4-.16-.61s-.13-.4-.21-.61-.19-.5-.29-.77a3.56,3.56,0,0,0-.19-.48l-.4-.9c-.61-1.38-1.32-2.78-1.85-4.13l-.24-.61c-1.48-.77-2.91-1.51-4.4-2.25a9.53,9.53,0,0,0,.66-.87,11.92,11.92,0,0,0,1-1.51c.16-.26.29-.53.42-.79s.26-.56.37-.82a17.57,17.57,0,0,0,1.06-3.42c.13-.58.24-1.17.32-1.77s.13-1.06.19-1.59.13-1.19.16-1.83l.08-1.06c.11-1.8.16-3.6.34-5.4,0-.42.08-.85.13-1.27a6,6,0,0,1,.13-.93,7.9,7.9,0,0,1,.19-1.14,17.44,17.44,0,0,1,.93-3.39c.21-.56.45-1.11.72-1.64a1.11,1.11,0,0,1,.11-.27l-.21.16c-1.61-8.5,12.47-9.06,9.29-18.22-2.09-6.06.69-11.44,1.32-17.16a28.86,28.86,0,0,1,15.09-22.24c6.46-3.6,10.27-6.94,11.57-13.8.4-2.07,3-5.11,3.84-3.89,4.21,6.06,7,4.74,10.86-.29,4.79-6.17-5.11-7.33-3-14.09,4.66,4,9.53,4.13,14.48,3.44,1.38-.19,2.75-.45,4.13-.72,1.19-.21,2.38-.45,3.6-.61.53-.08,1.06-.16,1.56-.21a16.23,16.23,0,0,1,1.93-.13,16.71,16.71,0,0,1,2.3,0c.4,0,.82.05,1.22.11a4.27,4.27,0,0,1,.61.08,4.15,4.15,0,0,1,.61.11,15.43,15.43,0,0,1,3.55,1.17,2,2,0,0,1,.34-.24.93.93,0,0,1,1.11.34c1-2.22,2-4.48,3-6.73l-5.19-.4a19.14,19.14,0,0,1,2.36-1.8c6.73-3.73,14.51-5.83,19-13.05.72-1.17,3.18.11,4.08,1.88,7.68-.24,14.93-2.73,21.29,6.17,4,5.61,13,1.56,19.09-1.3s11.7-2.67,15,2.78c2.94,4.79,7.47,1.77,9.93,3.63,17.21,13,36.91,23.7,45.23,45.49,2.36,6.17,1.83,12-3.65,16.68,1.35,10.41,7.28,20.1,3.31,31.46-1.72,5,4.13,6.73,8.29,8.08,2.54,2.09,4.61,5.53,3,7.92-5.77,9-1.91,15.57,5,21.5C648,1030.58,645,1024.44,641.33,1026.37Zm397.06,10c1.51,1.14,2.41,3.47.05,5.61-7.68,7-8.37,15.49-4.61,24.73.64,1.56,1.64,3-.11,4.66-12.6,12-22.19,26.85-37.71,36.52-5.64,3.5-12,6.67-17.42,11-6.88,5.45-14.62,6.86-23,9.08-11.7,3.12-23.41-1.46-33.36,3.1-12.29,5.61-23.35-.77-32.49-3.87-14.3-4.9-29.1-9.64-43.29-15.57-11.47-4.79-10.38-14.86-14.78-22.3a13.82,13.82,0,0,0-4-4.34c-8.18-6-10-15.76-14.46-23.94-1.48-2.67-3.07-5.77,1.8-7.23,1-.27,1.59-1.64,2.36-2.52-15.81-5.83-2.94-16.58-4.26-24.89-3.2.66-6.38,1.35-9.53,2-2.46-3.07-.66-4.9,1.67-6.38,4.9-3.12,8-6,2.73-12-3.31-3.81-2.28-9,1.77-12.76,6.57-2.14,9-3.6,5.8-12.66-2.62-7.36,3.55-17.79,5.8-26.88-5.72-8.31-5.64-25.55,2.54-30.85,11.73-7.63,19.07-20.44,31.35-26.29s23.49-18.24,39.77-9.61c6.41,3.39,12.58,2.36,16.66-5,4.5-8.13,11.25,1.11,16.55-1.72,8.74-4.69,8.37,2.25,9.4,7.36a4.81,4.81,0,0,1,1,1.48c3.73,1.54,8.24-3.84,11.73,1.46.85,1.27,3,1.7,4.55,2.52l-6.49.56c1,2.25,2,4.5,3,6.73a.92.92,0,0,1,1.46-.11c5.59-1.06,11.47-5.51,16.1,2.07,1.14,1.85,4.61,2.83,5.51.45,2.81-7.57,8.71-2.28,12.76-4.55,1.64,5.59-8.21,6.75-3.39,12.95,3.92,5.06,7,6.46,10.59.05,1.22,1,3.5,1.88,3.52,2.91.4,9.19,7.65,12.34,13.82,16.68,15.33,10.78,16.47,26.14,13.43,42.76a1.46,1.46,0,0,0-.19-.24c2.75,5.14,12,5.06,10.78,13.4l-.21-.16a1.11,1.11,0,0,1,.11.27c.26.53.5,1.09.72,1.64a12.35,12.35,0,0,1,.69,2.33,7.6,7.6,0,0,1,.24,1.06,6,6,0,0,1,.16,1c.05.32.08.64.13,1,.16,1.09.24,2.15.29,3.2.11,1.22.13,2.41.21,3.63l.08,1.06q0,1,.16,1.83c.05.53.11,1.06.19,1.59s.18,1.19.32,1.77.27,1.17.45,1.72a12.93,12.93,0,0,0,.61,1.69c.24.56.5,1.09.79,1.64a10.07,10.07,0,0,0,1,1.48c.21.29.42.58.66.87-1.48.74-2.94,1.48-4.4,2.25C1035.69,1025.82,1031.24,1031.06,1038.39,1036.36Zm78.75-11.68c-5.67,1.93-13.21-1.32-17.05,6.33-.29.61-5.85-2.67-4.85-4.69,6.06-12.47-6.7-20.18-7.36-30.85-.08-1.43-1.51-3-.56-4.66,7-12.37-.74-21.58-4.34-32.94s-8.53-22.11-12.92-32.86c-2.78-6.81-3.89-15.36-11.52-20.68-3.81-2.67-7.33-7.68-9.88-12.92-2.73-5.61-5.85-15.44-16.84-7.92-3.92,2.65-3.28-2.3-3.79-5.38-1-6.12-2.75-13.4-11.81-9.27-3.95,1.8-4.63.82-4.34-2.67.32-3.92-1-8.95-4.79-7.52-16.23,6.17-17.9-12-27.43-15.28-10.72-3.73-20.28-11.84-31.83-11.65-18.85.34-37.71-5.48-55.9-3.31-25.95,3.12-52.88,8.16-74,25.37-17.74,14.51-30.21,33.76-42.92,53.14-6.57,10-.77,22.48-10.67,30.29-.66.53-2.25,9.27-3.1,14-2.36,13.05-8.13,13-19.17,11.47-10.72-1.48-22.32-1.75-32.83,4.58-7.28,4.42-14.25-2.81-14.09-7,.32-7.84-12.07-13.13-3.76-21.66-12-6.06-.11-20.87-12.07-29.55-8.63-6.25-12.29-20.42-19.28-30.56-11.31-16.42-26.56-27.49-43.69-36.62-15.78-8.39-33.73-10.59-50.6-13-12.76-1.83-28-2.38-40.86,3.76-3.1,1.46-3.07-.61-4.5-.77-22.85-2.78-41.65,7.57-57.06,22-4.77,4.45-5.19,8.92-12,4.66-1.22-.77-3.44.34-5.16.11-6.62-.93,1.85,16.47-11.76,9.16-3.6-1.93-9.67,6.41-8,14.35.5,2.46-3.73,2.59-5.08,1.06-7.26-8.26-10.62,1.14-12.79,4-5.67,7.28-8.39,16.92-18.24,20.52,2.65,6.3-3.65,9.29-5,13.58-5.69,18.77-16.58,35.48-20.57,55.05-1.75,8.55,3.18,17.05-2.3,25.31-8.84,13.37-.32,28-1.56,42-.87,10.17-6.91,11.25-13.66,9.72a64.17,64.17,0,0,0-16.92-1.3c-11.94.42-19.75-7.07-20-19,0-1.75-.21-4.61.69-5.08,18.54-10.19,5.08-26.14,6.94-39.19,2-13.56.93-27.35,2.86-41.23A304,304,0,0,1,329,907.64c3.81-13.4-.87-31,13.05-41.33-.32-10.7,4.63-15.6,15.46-14-3.63-5.27-13.64-10.49,1-15.17a3.54,3.54,0,0,0,1.3-.72l.29-.32a1.75,1.75,0,0,0,.32-.72c.58-2.17-1.67-5.64-1.24-8.29a3,3,0,0,1,.16-.66,26.57,26.57,0,0,1,2.36-7.78c.29-.61.58-1.22.9-1.8.4-.77.82-1.54,1.27-2.28s.87-1.48,1.35-2.22c.93-1.46,1.91-2.91,2.83-4.4.34-.5.69-1,1-1.56.5-.79,1-1.59,1.43-2.41s.85-1.48,1.22-2.25c.21-.4.4-.79.58-1.22a28.76,28.76,0,0,0,1.19-3c1.56-4.63,7.1-8.21,3.23-14.19-.34-.56.77-2.62,1.69-3.31,16-11.78,20-32.3,33.58-46,8.21-8.29,16.39-17,24.65-24.94,10.88-10.43,25.29-17.9,40.35-23,6.3-2.17,13.5-3.15,16.76-12.23,2.59-7.23,12.45-2,18.56-2.81,17.24-2.17,34.56-2.67,50.6-10.3,4.74-2.25,6.28,5.32,11.65,3.23,7.49-2.91,16-.64,23.67-5.85,10.49-7.15,21.69,3,33.15.66,11-2.25,24,6.81,33.44-5.72a2.72,2.72,0,0,1,2.46-.21c21.58,11.25,46.07,5,68.87,10.62,6.36,1.59,17.77,1.35,25.79,2.2,6.94.72,15.33,3.73,23.33,4.9,16.52,2.44,33,5.14,49.6,7.2,14.64,1.8,28.33,8.63,43.21,8.53,17.82-.11,35.35,5.24,53.33,2.41,5.75-.9,8.69,6,15.86,5.53,19.07-1.35,38.29-.42,57.46-.4,14.75-5.32,30,4.71,44.78-1.46,2.41-1,4.9,2,3.31,3.73-7.89,8.34.87,12.31,4.21,17.53,12.29,19.28,18.11,41.31,26.69,62.15,3.34,8.18,4.42,17.5,11.6,23.73,4.82,4.18-3.52,4.85-2,9.27,2.86,8.08,5.27,17.16,5.48,25.18.58,22.08,8.16,43.32,6.67,65.51-.21,3.47.24,6.83,3.89,9.08,4.58,2.86,5,8.5,3.73,12.29-2.59,7.73-3.68,13.61,3.6,19.94,4.85,4.24-7.23,6.22-3.81,13.11,2.2,4.42,2.83,10.57,3.81,15.83,3,16-8,32.83,3.26,48C1122.57,1021.13,1120.63,1023.49,1117.14,1024.68Zm38.37-217.42c0,3.95-5.32,3.12-7.63,2.41-9.48-2.91-14.09-12.79-22.85-16.92-11.09-5.24-6-15.68-8.18-22.06.69-2.7,1.22-3.6,1.06-4.4-1.51-8.26-7-18.54,8.34-19,15.09-.48,24,8.31,24.1,21.18.05,5,.9,10.64,4.5,14.93C1161.33,791.16,1155.46,799.34,1155.51,807.26ZM1189.8,641c-1.27,2-5.56,2.15-6,5.93-.69,5.61-4.08,7.55-9.24,5.88-5-1.61-9.16-3.28-9.14-10.51.08-17.93,2.09-34.11,17.79-46.6,6.33-5,12.15-9.64,19.33-6.88,6.51,2.49,6.91,10.43,7.73,16.95a59.42,59.42,0,0,1,.05,6.78C1214.11,628.2,1196.31,630.82,1189.8,641Zm18.14-291.12c-5,1.11-9.8,3.39-14.4,5.72-6.91,3.5-14.25,7.33-20.55.45-6.51-7.12-3.58-16.23-.37-23.57,4.85-11.15,19.49-17.66,31.93-14.67,5.45,1.3,3.28-3.15,5-4.53,6.3-5.16,13.13-6.91,20.89-4.63,5.61,1.67,2.22,6.81,3.55,9.88C1233.73,332.32,1221,347.07,1207.94,349.93Zm84.47,67.73c-3.87,1.72-4.69-2.73-6.81-4.61-7.33-6.43-10.88-14.33-9.88-24.15,2.65-2.78-6-6.59,1.19-9.11,6.43-2.25,9,2.07,10.91,6.41,3.12,7.12,8.61,13.32,9.14,21.45C1297.23,411.52,1296.46,415.89,1292.41,417.66Zm45.78,82.17c-1.06,4.08-3.68,7.68-8.18,7.28a8.69,8.69,0,0,1-8-9.06c.13-6.38-2.73-10.09-7.1-14.43-10-10-3.73-22.32-2.12-33.34,1-6.54,9.93-4.79,11.65-1.48,5,9.43,16.84,14.51,16.95,26.85,0,1.67,1,3.31,1.24,4.18C1341.05,487.09,1339.81,493.5,1338.19,499.83Zm-11.12-309.47c-18,.13-18.64-.82-12.29-18.8,1.8-5.14,4.26-7.6,11.12-12.37,5.85-4.05,9.88-10,13.13-16,3.55-6.59,9.14-7.47,15.33-7.89,8.45-.74,10.7,5.8,11.47,11.65C1368.48,167.32,1347.72,190.18,1327.07,190.36Zm109.47,105.87c-1.3,4-2.94,10.3-8.42,7.36-5.19-2.78-12.6-5.45-11.78-14,.21-2.17,4.42-3.89.61-6.51-19.12-13.08-8.13-32.2-9-48.67-.42-7.79,17.37-8.82,25.31-.32,6.86,7.36,14.91,15,12.52,25.66C1446.65,273.8,1440.32,284.71,1436.54,296.23Z"
          style="fill:#163847;"/>
        <path
          d="M387.18,1758.69l-.13.13a.45.45,0,0,0,.19,0v-.11Zm131.74-98a10.3,10.3,0,0,1,.64,2.07A8.84,8.84,0,0,0,518.91,1660.72Zm-3.34-5.08.79,1c-.24-.34-.5-.66-.77-1Zm-130,109.86a7.84,7.84,0,0,1-1.38,1.75A7.28,7.28,0,0,0,385.54,1765.5ZM370.18,1789c-1.62,2.7-3.23,5.4-4.74,8.13C367,1794.41,368.56,1791.71,370.18,1789Z"
          style="fill:#f3bb03;"/>
        <path
          d="M1133.13,2174.05c-.58-16.13-8.26-31.25-4.42-48.06,7.92-34.48,1.19-69-2.3-103.4-.5-4.82,3.31-8.39.9-13.64a32.17,32.17,0,0,1-1-25.5c-1.8-12.45-8.55-24.12-3.76-37.6,1.72-4.79,3.76-12.18-4.79-15.57-4.26-1.69-1.24-6.17,0-7.92,7.15-10,3-19.81.19-29.68q-7.07-24.19-14.25-48.33c-.34-1.22-.74-3.07-1.61-3.42-14-5.59-11.81-18.91-13.11-29.63-1-8.74-10.3-10-12-18a54.58,54.58,0,0,0-16.58-29.21c-2.22-2-3.65-5.9-6.94-5.45-10.3,1.43-8.76-4.93-7.86-11.09-1.27-2.22-2.12-6-3.84-6.43-9.82-2.67-14.62-11.41-22-16.79-12.21-8.92-21.79-20.92-34.66-28.76-16.79-10.22-27.88-28-46.13-35.69-15.17-6.36-29.44-14.48-45.57-19.46-13.24-4.1-28.6-7.33-39.38-17.82-3.63-3.5-7-6.28-11.73-7.63-19-5.4-35.27-18.24-55.4-20.68a17.77,17.77,0,0,0-.64,1.91,0,0,0,0,0,0,.05,6,6,0,0,0-.13,2.33,4.31,4.31,0,0,0,.19.69,3,3,0,0,0,1.11,1.43l.4.29a6.79,6.79,0,0,0,1.09.5,6.51,6.51,0,0,0,.77.26c2.91.87,6.65,1,7.31,3.92,9.06-2.52,13.88.93,18.77,9.14,2.65,4.45,12.13,3.63,18.38,6,5.91,2.25,5.53,4.82,7.65,8.71,5.67,10.49,15.62,18.8,15.25,32.17,0,.34.42.85.77,1,18.51,8.45,12.95,28.49,18.38,42.58,4.53,11.68-2.83,27.86-4.55,42.1-2.46,20.44-10.43,37.34-24.18,53.54-11.89,14-19.49,31.88-33.84,44.41-9.35,8.18-18.46,16.74-29.92,22.06-2.91,1.35-5.75,3.07-7.47-1.4-1.35-3.52-3.95-2.3-4.4-.19-2.28,10.43-11.17,7.84-17.87,9.9-4.42,1.35-7.1,1.56-6.2-4.05s-3.42-4.05-5.93-4.08-5.83-2.22-6.3,3.6c-.5,6.36-5.38,5.8-10.67,4.21-19.67-5.85-38.08-16.79-59.92-14.62-3.68.37-7.89-3.36-11.7-5.45-2.25-1.22-4.13-4.08-6.36-4.29-27.67-2.67-38.85-23.28-49.57-44.7-5.51-11-9.9-22.4-17.61-32.38-5.51-7.18-2.91-17.71-2-25.5.82-7.44-.48-14.3-.08-21.34.93-16.44-3.28-34.29,10.57-47.93,1.93-1.88,2.12-3.79,1-5.85-4.85-8.66,2.54-13.66,5.64-20.15,6.86-14.33,17.79-24.92,29.34-35.32,2-1.72,1-6.73,1.32-10.22h0c-23.06,4.16-41.2,19.49-62.54,27.88-15.81,6.22-32.23,11.68-47.21,20.1.26.32.53.64.77,1l-.79-1c-5.11-.58-7.92,3.31-11.41,5.88-11.76,8.1-21.34,18.75-32.15,27.72a180.31,180.31,0,0,1-20.39,14.54c-12.66,7.81-22.56,18.17-33.1,28.23-7.2,6.88-18.09,10-20.65,21.5-.69,3.07-3.89-.34-5.53,1.22a5.58,5.58,0,0,1-.29,1,4.34,4.34,0,0,1-2.17,2.49,3.55,3.55,0,0,1-.79.32,4.37,4.37,0,0,1-.85.19,6,6,0,0,1-1,.08c0,.16,0,.32-.05.48,0,.37-.05.77-.11,1.14a14.38,14.38,0,0,1-.24,1.48,6.27,6.27,0,0,1-.24,1,10.44,10.44,0,0,1-1.06,2.65,7.28,7.28,0,0,1-1.38,1.75,8.46,8.46,0,0,1-2.78,1.83c-3.23,6.83-7.26,13.37-11.2,19.94-1.62,2.7-3.2,5.4-4.74,8.13-.32.53-.64,1.09-.93,1.67-.61,1.11-1.19,2.22-1.77,3.34a.58.58,0,0,1-.08.13c-.53,1.09-1.09,2.17-1.59,3.28s-1.06,2.28-1.54,3.44l-.72,1.75c-.45,1.17-.9,2.38-1.3,3.57-.32,1-.64,2-.9,3a51.48,51.48,0,0,0-1.32,6.06c-2.09,13.4-12.37,20.95-15.94,33.39-5,17.42-8.63,35.4-15.07,52.48-1.32,3.47,1.8,5.61,2.65,8.42,1.51,5,8,10.17-1.75,14.93-4,2-2.94,9.51-1.16,13.61,2.41,5.61,2.36,10.57.93,16.15-5.77,22.27-1.17,45.15-3.68,67.71-1.38,12.37-7,25.26,1.19,37.47-10.83,6.75.13,17.42-5,27-4.74,8.87-1.56,23.35,1.32,34.56,3.31,12.92-1.69,24.07-3.65,35.83-.93,5.61-2.3,10.06,2.25,14.35,2.33,2.17,4.48,4.9,3.71,8.13-2.54,10.51-2.67,16.52,12.07,14.14,6.83-1.11,1.91,9.59,4.34,14.33,13.85-2.91,27.91-.9,41.73-1.93,28.28-2.12,56.48-1.22,84.6.4,16,.93,31.88,0,47.69-.45,32.23-.87,64.72-1.67,96.65-.71,31,.93,62.17-.19,93.23,1.11,18.32.77,38.29-4.55,56.22-1.8,28,4.34,55.5-1.19,83.2,1.09,22.4,1.83,45,.64,67.58.61,20.42,0,40.86.42,61.22-.69,12.18-.69,24.18,1.75,35.85,1.62,24.1-.26,48.27.69,72.32-1,14.22-1,29.45,4.5,42.55-7.41,3.71-3.42-2.54-7.76,4.63-10.46C1133.05,2193.28,1133.48,2183.69,1133.13,2174.05ZM519.55,1662.78a10.3,10.3,0,0,0-.64-2.07A8.84,8.84,0,0,1,519.55,1662.78ZM615,2016.95c-6,12.07-5.91,29.9-22.53,36.07-7.73,2.89-11.78,11.41-20.34,14.11-5,1.56-8.74,10.33-14.17.48-.08-.21-5.3,1.83-7.57,3.52-10,7.36-20.87,6.75-30.9,1.93-9.16-4.4-18.64-9.06-27.75-12.87-10.12-4.26-14.17-14.56-15.76-19.41-3.44-10.46-10.35-20.63-9.56-32.23-6.65-18.83,4.08-34.61,8.55-51.32,2.65-10,30.53-28.73,41-30.08,8.55-1.11,16.87-4,25.29-6.12,6.38-1.64,12.55-2.38,14.86,5.83,1.88,6.65,6.75-1.91,9.16,2.14,6.59,11.17,23.43,11.89,26,29.21,1.06,7.28,11,16.18,17,24.28C616.49,1993.67,618.37,2010,615,2016.95Z"
          style="fill:#f3bb03;"/>
        <path
          d="M1245.09,1098.27c-7.6-14.7-20.34-23.91-38.34-25.23-10.8-.79-21.85,2.49-32.41-1.75-8.1,12-14.86,26.37-36.12,18.38-.85-.61,13.29-1.54,2.94-3.34-7.55-1.3-14.64-5.19-17.79-9.77-5-7.28-10.78-7.89-18-10.59-14.33-5.4-14.48,3.47-16.87,11.84,11.25,15.57-2.91,28.25-5.32,42.21-.5,2.91-2.59,6.14-2.59,9.64,0,20.65-14.43,30.5-30,38.71a32,32,0,0,0-15,15.73c-3.5,7.52-8.23,11-17.69,7.94-7.78-2.52-15.78-3.47-17.37,10.43-1.27,11-14.85,12.74-24,14.72-5.88,1.3-14.8.13-20,.64-10.64,1-21.42,2.09-32.36,2.38-14.14.42-28.36,2.7-41.94-2.89a33.11,33.11,0,0,0-8.26-2.44c-29-4.18-50.95-22.06-73.48-38.63a79.66,79.66,0,0,1-31.83-49.81,10.61,10.61,0,0,0-6-7.92c-1.43-.77-3.73-2.89-3.52-3.31,5.45-11-6.43-17.93-6.33-27.35a84.54,84.54,0,0,0-5-30.93c-3.76,1.54-7.86-4.87-11.49.45-1.54.19-3.07.37-4.61.53a10.23,10.23,0,0,0-5.64-6c-2,4.79-9.69,5.22-9,12l1.27,1.3a3.88,3.88,0,0,1-.37,2.25c.05,0,.08,0,.13,0l-.19.19c-5.08,4.74-4.85,12.07-7.57,17.13-9.72,17.9-11.15,37.89-14.91,56.69-3.31,16.47-15.76,28.62-15,47.21,1.32,32.2-12.87,62.73-15.76,94.93-.9,10.25.37,9.16,8,6.22,7.15-2.75,17.48,1.93,20.87-9.51.16-.45,3.63-.72,4.82.05,4.79,3.12,7.81.13,11.73-2.12,5.69-3.31,12.42-3.92,18.75-5.38,9.61-2.2,20.87.34,28.76-5.8,11.36-8.84,24.39-6.73,36.86-8.45,5.93-.79,6.81,4.21,5.35,7.92-3.79,9.53-3.81,19.65-6,29.37-1,4.63-1.54,12.92-7.86,12.29-15.65-1.54-28.7,7.36-43.74,9-12.66,1.32-25,7.12-38.4,5-1.4-.24-3.18,1.19-4.66,2-15,8.79-33.71,11.12-51.82,6.3-2.25-.61-2.38,1.14-3.52,2.36-6.35,6.81-13.35,5.06-16.18-4.1-.66-2.12-.58-4.32-2.81-5.43-6.33-3.1-20.71-3.81-4-13.74a15.15,15.15,0,0,0-2.41-4.32c-4.32-4.5-3.31-9.19-1.85-14.62,3-11,7.26-22.3,6.81-33.31-.42-10.19,15.7-16.95,4.85-28.25-.24-.24,1.24-2.09,1.88-3.23,5.59-9.67,4.16-22,12.07-30.88,2.17-2.44.37-4.93-1.85-6.78-9.74,4.45-17.79,13-29.76,12.21a4.45,4.45,0,0,0-3.52,1.4c-13.5,19.28-35.8,13.93-54.2,18.51a82.54,82.54,0,0,1-37.81.24c-16.42-4-34.4,2.81-49.46-7.65-5-3.42-12.95-3.12-11.47-14.25.82-6.3-9.37-10.19-16.39-7.15-10.54,4.55-15.57.08-19.38-8.74-3.31-7.71-9.93-10.94-16.92-15.17-11.92-7.23-24.65-15.57-26.88-31.51-1.88-13.66-3.92-27.06-13-38.29-1-1.3-.05-4.21,0-6.38-12.58-3.39-25.1,3.47-37.73.29-2.78-.72-6.22-2.22-8,1.77-1.27,2.83-2.2,6.57-6.17,5-4.61-1.85,2.94-6.38-2-9.24-3.55,2.78-8.92,2.09-5.56,11.52,3.95,11.09,7.55,22.43,11.92,33.47,3.18,14.64-.66,20.76-11.52,18.27-6.75,2.09-4.87,6.75-3.23,11.31-8.87,1-12.84-3.13-11.41-12.39-6.49,1.11-9,14.11-16.42,3.92l-3.31-2.12c-2.09-1.54-5.16-2.62-6.12-4.69-5.27-11.25-14.27-12-24.65-9.64-6.2,3-11.81,6.62-18.61,9.11-23.3,8.53-33.76,32.07-43.48,52.09-5.56,11.47-3.36,29.76-.05,44.86-.08,13.32,5,24.57,13.74,34.37,1.43,1.59,3.18,3.07,4.08,5,7.71,16.47,14.11,20.07,32.12,17.58,2.75-.4,3.84,1.35,5,3.15,5.77,9.22,13.8,8.92,23.2,6.73,8.42-2,18.24,2.38,25.26-5.83,6.81-11.31,15.91-1.59,23.83-2.65a24.8,24.8,0,0,1-1.83,6.65,7.45,7.45,0,0,1-5.61,4c-.56,3-.21,5.77,2.52,7.73,14.35-2.78,20.28,2.46,17,15.68-1.77,7.07,6.57,11.36,4.08,18.3l.45.48c.42,1.4.85,2.81,1.3,4.21-.24.82-.69,2.3-.64,2.33,9.08,3.12,10.7,13.27,16.84,18.32,7.84,6.43,13.53,14.11,19.3,22,8.5,11.68,20.12,18.88,33.55,22.9,7,2.09,11,8.34,17.56,10.83.87.32,2,2.67,1.8,2.89-12.15,12.37,4.24,12.39,7.68,14.14,11,5.59,19.81,14.46,30.56,20.5,7.94,4.45,18,10.59,25.29,18.38,5.8,6.22,13.05,10.25,21.92,9.21,3.76-.45,5.32.37,8,3.5,9.59,11,22,16.92,37.12,15.76,3.55-.26,8.24-2.12,6.25,4.85-.11.29,1.64,1.59,1.88,1.43,10.75-7.2,15.62,6.83,25.53,7.18,10.49.34,20.92,13.82,31,13.27,17.58-1,32.91,11.28,50.34,6.06,2.41-.71,3,.48,3.65,2.12,3.81,10.33,2.49,21.93-3,29.5-3.76,5.19-8.84,12.95-17.08,14.86l-7.6,4.42-2.36,1.19c-.79.58-1.59,1.19-2.41,1.83-.34,3.5.64,8.5-1.32,10.22-11.55,10.41-22.48,21-29.34,35.32-3.1,6.49-10.49,11.49-5.64,20.15,1.16,2.07,1,4-1,5.85-13.85,13.64-9.64,31.48-10.57,47.93-.4,7,.9,13.9.08,21.34-.87,7.79-3.47,18.32,2,25.5,7.71,10,12.1,21.42,17.61,32.38,10.72,21.42,21.9,42,49.57,44.7,2.22.21,4.1,3.07,6.36,4.29,3.81,2.09,8,5.83,11.7,5.45,21.85-2.17,40.25,8.76,59.92,14.62,5.3,1.59,10.17,2.14,10.67-4.21.48-5.83,3.92-3.6,6.3-3.6s6.81-1.59,5.93,4.08,1.77,5.4,6.2,4.05c6.7-2.07,15.6.53,17.87-9.9.45-2.12,3-3.34,4.4.19,1.72,4.48,4.55,2.75,7.47,1.4,11.47-5.32,20.57-13.88,29.92-22.06,14.35-12.52,22-30.4,33.84-44.41,13.74-16.21,21.71-33.1,24.18-53.54,1.72-14.25,9.08-30.43,4.55-42.1-5.43-14.09.13-34.13-18.38-42.58-.34-.16-.79-.66-.77-1,.37-13.37-9.59-21.69-15.25-32.17-2.12-3.89-1.75-6.46-7.65-8.71-6.25-2.41-15.73-1.59-18.38-6-4.9-8.21-9.72-11.65-18.77-9.14-.66-2.89-4.4-3-7.31-3.92a6.51,6.51,0,0,1-.77-.26,6.79,6.79,0,0,1-1.09-.5l-.4-.29a3,3,0,0,1-1.11-1.43,2.62,2.62,0,0,1-.19-.69,5.15,5.15,0,0,1,.13-2.33,0,0,0,0,1,0-.05,11.21,11.21,0,0,1,.61-1.91c-.19-.64-.32-1.27-.45-1.91a20.22,20.22,0,0,0-1.72-5.59c-2.91-5.35-9.08-10.62,1.14-15,.64-.26.79-2.44.64-3.65-2.2-15.7,1-24.76,20.1-19.54,4.16,1.14,10.72-3.63,14.75-6.41,8.31-5.72,17.24-8.47,26.53-10.88,3.71-1,8.29,0,7.92-6.12-.08-1-.16-3.15,1.88-2.2,10.3,4.87,19-3,28.76-3.73,11.44-.85,19.28-15.15,27.59-16.87,11.55-2.38,20.5-5.93,29.82-12.58,19.59-13.93,40-26.74,60.11-40,1.75-1.17,4.29-1.38,4.34-4.26.21-12.21,2.81-15.44,14.51-19.7,5.22-1.88,14.54-.42,10.67-11.25-.61-1.69,1.56-2.59,2.41-2.12,13.24,7.23,18.35-4.58,21.77-11.84,3.87-8.29,10.49-11.94,16.31-17.34,3.34-3.1,8.21-5.61,7.31-11.7-.21-1.46.42-3.81,1.48-4.55,14.56-10.19,14.56-10.8,20.34-31.59.85-3,5.8-5.67,8.58-9.21,6.44-8.29,8.16-17.21,8.31-26.69.08-5.59,5.85-5,7-8.53,3-9.69,3.81-20.12,10-28.76,3.23-4.48-4.08-9.67,1.22-15.44,2-2.2-3.15-9.24,6.62-9.59,3.68-.11,7-6.62,10.12,1.09,9.51-4.08,19.86,7.2,29.42-2.17,4.85-4.74,12.23,3.18,17.9-1.62,18.43-8.84,29-24.49,38.34-42C1257.14,1161.61,1261.56,1130.15,1245.09,1098.27Zm-916.17,254.6c-.29-.11-.61-.24-.93-.34.37-.34.72-.69,1.06-1,.24.26.48.5.69.77C329.48,1352.44,329.19,1352.65,328.92,1352.87ZM844,1643.27c.26.26.53.56.82.82-.34.64-.66,1.27-1,1.88-.27-.26-.79-.64-.74-.82A8.85,8.85,0,0,1,844,1643.27Zm126.28-296.76c4.16,4.34,2.67,9.53.26,13.43-8.26,13.35-13.64,28.73-19.22,42.55-8,19.75-22.88,29.68-36.2,42.66-7.65,7.41-16,13.77-27.49,13.69a13.06,13.06,0,0,0-8.21,2.7c-7.65,5.35-16.13,9-25.53,3.5a3.88,3.88,0,0,0-2.46-.79c-25.31,6.91-48.38-3.28-70.94-11.28-16.47-5.83-33.13-13.53-46-26.74-2.33-2.36-6.17-3.2-9.06-5.14-4.61-3.12-6.83-8.34-3.26-12.42,4.47-5.08,5.64-10.78,6.75-16.74,3.1-16.55,19.62-16.6,29.92-23.94,25.74-18.35,53.78-33.31,79-52.54,4-3,9.48-4.21,14.25-6.22a0,0,0,0,1,0,0c4.24-3.68,5.77,4.4,9.64,2.2,1.88-15.07,15.15-21.82,25.34-27.19,11-5.8,20.18-13.82,30.16-20.6,1.67-1.14,3.36-2.25,5.08-3.28.85-.53,1.72-1,2.59-1.54s1.77-1,2.67-1.46c.21-.19.4-.37.61-.53h0a5.44,5.44,0,0,1,1.27-.77,11.32,11.32,0,0,1,5.48-.53,18.42,18.42,0,0,0,3.63,0c10.91-1.59,14.14,2.62,9.82,12.71,5.75,3.76,17.16,2.91,12.45,15.31-.26.71,1.09,2.7,2.09,3.07,6.09,2.41,10.43,5.19,4.1,11.84,8.9,6.22,4.24,16,5.77,24,1.3,6.75,7.07,15.28-3.63,20.52C966.71,1344.13,969.22,1345.37,970.28,1346.51Z"
          style="fill:#e56064;"/>
        <path
          d="M1604.2,1638.26c10.43,25.34,2,50.87,1.3,76.42-.42,16.6-11.86,29.87-10,47.66.87,8.45-9.37,19.41-17.66,27.27s-5.43,19.67-9.74,29.1c-6.3,13.74-15.57,26.14-25.37,36.57-4.5,4.82-11.92,8.71-14.62,15.62-3.65,9.43-13,12.74-19.25,19.2-10.41,10.83-23.91,18.75-36.54,27.27-3,2-7.15,1.43-10.12-2.75-3.12-4.4-7.86-.11-6.49,1.8,7.68,10.64-3.23,7-6.44,9.77-10.91,9.37-25.47,9.32-37.84,15.2-10.88,5.19-22.45,9.59-36,9.85-5.53.13-17.26,5.11-24.28,11.39-1.27,1.14-2.65,3.57-3.6,3.39-16.1-2.86-30.35,6.12-45.81,7-11.81.69-23.54.85-34.9-3.26a14.83,14.83,0,0,0-2-1.43c-.11-.08-.61.53-.93.82.66.5,1.32,1,2,1.46-1.4,5-7.84,6.25-9.19,4.9-10.43-10.51-18.64-1.59-26.74,2.81-5.11,2.78-9.88,1.14-14.48,1.14-15.6-.05-30.53,6.65-46.92,2.67-5.61-1.38-15,.29-22.35,3.28-6.73,2.78-13.05-3.47-19.94-2-1.8-12.45-8.55-24.12-3.76-37.6,1.72-4.79,3.76-12.18-4.79-15.57-4.26-1.69-1.24-6.17,0-7.92,7.15-10,3-19.81.19-29.68q-7.07-24.19-14.25-48.33c-.34-1.22-.74-3.07-1.61-3.42-14-5.59-11.81-18.91-13.11-29.63-1-8.74-10.3-10-12-18a54.58,54.58,0,0,0-16.58-29.21c-2.22-2-3.65-5.9-6.94-5.45-10.3,1.43-8.76-4.93-7.86-11.09,6.59-2.94,9.43,9.35,14.7,4.79,5.85-5.06,11.09-2.73,17-2.78,9-.11,17.77-2,26.85-2.22,6.7-.16,11.94-.5,15.83,4.4,5.24,6.62,7.6,5.69,9.59-1.93.37-1.4,2.28-2.91,3.81-3.47,9.37-3.31,20.07,2.91,29-3.84,1.27,3.87,2.6,4.87,4,4.58a.69.69,0,0,0,.29-.08.82.82,0,0,0,.32-.13,3.18,3.18,0,0,0,.42-.21,4.39,4.39,0,0,0,.64-.42c.27-.21.56-.45.82-.69s.56-.5.85-.77a14.11,14.11,0,0,1,2.2-1.75,5.7,5.7,0,0,1,.74-.32h0c13,2.91,25.63-2,38.53-2.52,13.32-.45,24.31-15.86,40-7.89.37.21,1.77-.64,2-1.24,3.73-9.56,10.43-5.51,17.24-4.53,9.72,1.38,17.34-9.69,28.2-5.75,1.54.56,2.17-3.31,2.28-5.48.21-3.57,2.52-4.79,5.32-3.76,8.39,3.12,11.84-3.36,16.26-7.92,7.1-7.31,14.27-14.35,25.61-13.77.21.53.42,1.06.61,1.59.32-.13.64-.29,1-.45-.48-.4-1-.82-1.46-1.24a19,19,0,0,1-.08-3.87c1.72-8.34,15.44-8.58,13.21-19.62a12.76,12.76,0,0,1,2.62-.26c11.2,1.3,13.72-9.8,16.47-15.31,11.94-23.73,8.74-52.64,24.12-75.65.34-.53-1.06-2.12-1.54-3.28-7.49-18.32-3.68-34.74,8.31-49.83,20.28,1.91,40.51,4.21,60.16-4.16,2.89-1.22,8.66-1.22,10,.56,5.4,7.23,11.33,2.75,16.66,1.38a29.66,29.66,0,0,1,9.9-.58c16,1,32.6,7.28,48,.61,17.64-7.63,36-4.5,53.94-7.12-.19,6.75-2,14.11,1.77,20,4.37,6.81-5.16,7.73-4.1,13.58,4.1,22.75-1.72,45.94,2.3,69,.9,5.08,5,14.4-5.59,17.61C1601.61,1633.58,1603.38,1636.28,1604.2,1638.26Z"
          style="fill:#e56064;"/>
        <path
          d="M381.4,1768.81c0,.08,0,.16,0,.24.05-.08.08-.19.13-.26ZM657.8,1555.86c-.61-1.64-1.24-2.83-3.65-2.12-17.42,5.22-32.76-7-50.34-6.06-10,.56-20.47-12.92-31-13.27-9.9-.34-14.78-14.38-25.53-7.18-.24.16-2-1.14-1.88-1.43,2-7-2.7-5.11-6.25-4.85-15.09,1.16-27.54-4.71-37.12-15.76-2.73-3.12-4.29-3.95-8-3.5-8.87,1-16.13-3-21.92-9.21-7.28-7.78-17.34-13.93-25.29-18.38-10.75-6-19.57-14.91-30.56-20.5-3.44-1.75-19.83-1.77-7.68-14.14.21-.21-.93-2.57-1.8-2.89-6.54-2.49-10.51-8.74-17.56-10.83-13.43-4-25-11.23-33.55-22.9-5.77-7.89-11.47-15.57-19.3-22-6.14-5.06-7.76-15.2-16.84-18.32-.05,0,.4-1.51.64-2.33-.45-1.4-.87-2.81-1.3-4.21l-.45-.48c-9.29-4.1-12.39-13-15.36-21.4a65.89,65.89,0,0,0-5.72-12.58c-2.73-2-3.07-4.69-2.52-7.73-1.27-5.14-1.77-11.36-9-4.05-6,6.06-6.25-.11-7.39-3.95-7,8.21-16.84,3.84-25.26,5.83-9.4,2.2-17.42,2.49-23.2-6.73-1.14-1.8-2.22-3.55-5-3.15-18,2.49-24.41-1.11-32.12-17.58-.9-1.88-2.65-3.36-4.08-5-8.71-9.8-13.82-21.05-13.74-34.37-8.24,8.1-21.87,7.49-28.84,17.24-5.77,8.1-13.37,14.33-19.7,21.69-3.26,3.79-7.79,4.87-11.25,8.31-10.46,10.38-13.85,24.55-22.8,35.64-8.55,10.62-16,22.59-20.76,36-2.36,6.67,10.51,18.83-6.88,20.12a17.31,17.31,0,0,0,.87,3.76c4.77,9.45-1.22,18-2.49,26.8-2,13.72-6.73,26.88-1.06,41.15,3.39,8.47,1.09,19.33,11.41,24.6-5.48,10.3,3.47,16.34,7.71,23.09,5.22,8.29,12.82,15.31,18.4,23.17,10.12,14.22,26.06,16.18,39.06,24.15,5.85,3.58,15.41-1.09,17.77,8.1,5.43,21.45,1.64,43.59,3.5,65.4,1.93,22.75,9.74,42.63,15.62,63.63,5.11,18.27,19.09,30.93,29.79,45.73,15.54,21.5,35,36.67,60.67,44.27,6,1.77,10.35,2.59,15.86-.85,5.19-3.26,11.41-4.61,16.52.66a7.57,7.57,0,0,0,8.45,2c16.42-7.23,29.95,7.33,45.54,5.61,1.09-.87,2.2-1.75,3.31-2.6,2.22-1.69,4.48-3.34,6.78-4.87a64.31,64.31,0,0,1,18.88-8.87A46.51,46.51,0,0,1,382,1764c.05-.19.11-.37.16-.58a6.66,6.66,0,0,1,1.35-2.57,3.35,3.35,0,0,1,.53-.53,7.54,7.54,0,0,1,3.12-1.59h.05c1.69-1.35,3.39-2.65,5.11-4,1.64-1.56,4.85,1.85,5.53-1.22,2.57-11.52,13.45-14.62,20.65-21.5,10.54-10.06,20.44-20.42,33.1-28.23A180.31,180.31,0,0,0,472,1689.24c10.8-9,20.39-19.62,32.15-27.72,3.5-2.57,6.3-6.46,11.41-5.88h0c15-8.42,31.4-13.88,47.21-20.1,21.34-8.39,39.48-23.73,62.54-27.88h0c.82-.64,1.62-1.24,2.41-1.83l2.36-1.19c1.51-3.23,3.76-5.24,7.6-4.42,8.24-1.91,13.32-9.66,17.08-14.86C660.29,1577.78,661.61,1566.19,657.8,1555.86ZM177.46,1367.43c5.77.34,16.07,16.71,15.91,25.26-.08,3.95-21.18,19.67-25.39,18.06-10.14-3.89-3.84-14.67-8-21.74C157.2,1384.17,172.27,1367.14,177.46,1367.43Zm-.66,154.72a.61.61,0,0,1-.37-.11,1,1,0,0,1-.34-.24,1,1,0,0,1-.21-.27,9.62,9.62,0,0,1-.56-1.06l3,.71A2.24,2.24,0,0,1,176.8,1522.15Zm12.1-12.82c-.93.16-1.83.32-2.67.53s-1.4.34-2.07.56a12.53,12.53,0,0,0-6.7,4.18,12.38,12.38,0,0,0-1.67,3,11.72,11.72,0,0,0-.72,2.57h.13a.84.84,0,0,1,.08.24.94.94,0,0,1-.27-.05.49.49,0,0,1,.05-.19c-4.05-.56-11.31,2.22-11.36-2.15-.13-9.48-6.33-22.22,3.2-28.09,11.2-6.91,21.5-17.69,36.91-16.47,2.73.21,4.77-.79,5.88,2.49C214.69,1490.69,205.42,1506.53,188.9,1509.33ZM293.44,1673.4c-3.76,13.35-9.06,26.29-14.35,39.11-1.46,3.52-5.69,5.38-9.88,5.85-3.42.37-6.83-.71-7.84-3.73-2-6-4.79-8.63-11.44-6.51-2.73.87-6-1.91-3.39-4.58,11.12-11.39,11.23-28.2,20.95-40.51,4.45-5.64,8.5-15,14.48-10.86C287.64,1656,296.14,1663.84,293.44,1673.4Zm-5.88-101c-2.7,1.19-3.07,4.1-4.69,6-2,2.49-1.27,9.21-7.68,5.85-4.13-2.2-7.94-6.09-6.59-10.33,2.12-6.57.26-12.68.24-19,0-4.71,17.5-24.23,21.85-23.33,9.21,1.91,8.5,9.85,9.35,18.16C296.62,1556.84,298.1,1567.72,287.56,1572.41Zm36.94-112.7c-3.5,9.35-9.8,18.77-2.78,29.74,3,4.63-2.09,5.43-5,6.22-14.78.34-26.4-15.86-23.06-29.52,2.67-10.88,1.8-22.45,8.1-32.73,2.52-4.1,4.13-4.26,8-3.31C323.23,1433.39,329.37,1446.74,324.5,1459.71Zm62.33,200.42c-.5,1.09-1.75,1.77-2.49,2.75-2.62,3.34-1.48,11.76-6.94,9.85-4.82-1.67-11.23-5.53-12.66-12.1-1.59-7.33-8.24-15,3.18-21.42,7.81-4.42-1.56-16.26,7.18-22.35,3.5-2.44.9-10.49,8.82-11.07,8.39-.64,9.51,6.67,13.4,10.83,3.23,3.44,2.09,8.34,3.31,14.51C396.5,1639.88,391.73,1650,386.83,1660.14Zm80.52-81.82c-4.63,1.24-7.68-.21-8.45-5.4-.53-3.63-3-6.06-6.43-4.45-16.34,7.71-12.07-7.92-14.43-13.72-2.73-6.7,3-15.31,8.63-14.91,6.83.5,18.67-2.81,20.18,10.83.72,6.41,3.39,12.6,5.06,18.51C471.2,1573,471.81,1577.1,467.36,1578.31Z"
          style="fill:#163847;"/>
        <path
          d="M1324.77,1454.28c-1.11-6.75-4.24-12.13-10.19-15.94-7.68-4.9-11.68-11.44-11.92-21.29-.24-8.92-7.81-15.62-13.35-21.71-6.49-7.12-3.92-11.41,2.09-13.77,6.59-2.62,13.61-6.28,21.37-4.18,3.23-14.46-3.81-25.37-11.23-36.94-7.92-12.39-14.91-25.84-22.93-37.76-11.73-17.48-31.54-28.78-44.35-46.23-1.35-1.83-3.1-2.52-5.35-3.23-10.78-3.39-22.06-6.36-26.66-18.64-5.67,4.79-13.05-3.12-17.9,1.62-9.56,9.37-19.91-1.91-29.42,2.17-3.15-7.71-6.43-1.19-10.12-1.09-9.77.34-4.61,7.39-6.62,9.59-5.3,5.77,2,11-1.22,15.44-6.22,8.63-7,19.07-10,28.76-1.14,3.58-6.91,2.94-7,8.53-.16,9.48-1.88,18.4-8.31,26.69-2.78,3.55-7.73,6.2-8.58,9.21-5.77,20.79-5.77,21.4-20.34,31.59-1.06.74-1.69,3.1-1.48,4.55.9,6.09-4,8.61-7.31,11.7-5.83,5.4-12.45,9.06-16.31,17.34-3.42,7.26-8.53,19.07-21.77,11.84-.85-.48-3,.42-2.41,2.12,3.87,10.83-5.45,9.37-10.67,11.25-11.7,4.26-14.3,7.49-14.51,19.7-.05,2.89-2.59,3.1-4.34,4.26-20.12,13.21-40.51,26-60.11,40-9.32,6.65-18.27,10.19-29.82,12.58-8.31,1.72-16.15,16-27.59,16.87-9.72.71-18.46,8.61-28.76,3.73-2-1-2,1.16-1.88,2.2.37,6.09-4.21,5.14-7.92,6.12-9.29,2.41-18.22,5.16-26.53,10.88-4,2.78-10.59,7.55-14.75,6.41-19.07-5.22-22.3,3.84-20.1,19.54.16,1.22,0,3.39-.64,3.65-10.22,4.37-4.05,9.64-1.14,15a20.22,20.22,0,0,1,1.72,5.59c.16.64.29,1.27.48,1.91,20.12,2.44,36.36,15.28,55.4,20.68,4.69,1.35,8.1,4.13,11.73,7.63,10.78,10.49,26.14,13.72,39.38,17.82,16.13,5,30.4,13.11,45.57,19.46,18.24,7.65,29.34,25.47,46.13,35.69,12.87,7.84,22.45,19.83,34.66,28.76,7.39,5.38,12.18,14.11,22,16.79,1.72.48,2.57,4.21,3.84,6.43,6.59-2.94,9.43,9.35,14.7,4.79,5.85-5.06,11.09-2.73,17-2.78,9-.11,17.77-2,26.85-2.22,6.7-.16,11.94-.5,15.83,4.4,5.24,6.62,7.6,5.69,9.59-1.93.37-1.4,2.28-2.91,3.81-3.47,9.37-3.31,20.07,2.91,29-3.84,1.27,3.87,2.6,4.87,4,4.58a.69.69,0,0,0,.29-.08.82.82,0,0,0,.32-.13,3.18,3.18,0,0,0,.42-.21,4.39,4.39,0,0,0,.64-.42c.27-.21.56-.45.82-.69s.56-.5.85-.77a14.11,14.11,0,0,1,2.2-1.75,3.31,3.31,0,0,1,.74-.29v0h0a224.17,224.17,0,0,1,21.42-25.9c9.53-9.72,14.8-22.9,18.67-35.46,2.73-8.76,5.67-18,8.31-26.77,6.14-20.47,6.46-41.39,8.18-62.07.79-9.51-2-19,1.4-29.07,2.14-6.3,3.23-8.74,10.35-10.25,14.8-3.18,26.24-14.46,40.28-19.94,4-1.56,2.81-3.2,1.51-5.77-1.88-3.79-.21-5.4,3.79-6.09,11-1.85,13-10.38,13.27-19.52.13-4.66.34-3.07,4.34-2.7,5.8.53,10.59-9.45,8.24-11.68-9.43-9-.56-9,4.21-11.76,6.51-3.81,5.61-10.27,4.87-16.36C1321.22,1456.51,1323.23,1455.66,1324.77,1454.28ZM971.05,1575.35c-3.15,5.08-9.29,7.15-14.93,7.73-2.65-1.91-4.45-2.17-6.46-.32-5.24,4.87-9.69,6.91-14.33-1.51s-7.68-15.81,1.69-22.77c7.41-5.53,15.17-6.17,22.67-.53,2.3,1.72,3.44,5,5.19,7.52C967.11,1568.75,974.34,1570,971.05,1575.35Zm67.15-19.81c-11.2-6.28-27-6.28-31.72-22.38-1.51-5.11-3.79-8.69,3-11.33,15.2-5.93,39.11,9.77,39.75,28.33C1049,1555.75,1041.41,1557.34,1038.2,1555.54Zm50.13,102.53c-1.24,3.81-4.71,4.9-8.39,5.06-3.42.11-6.94-.61-10.22.08-6,1.22-12.66,7.26-17.37-.64-6.17-10.33-6.2-21.9-.58-32.41,1.16-2.2,8-1.38,12.29-2,12.18-1.35,16.5,5.53,17.19,16.15.19,2.86-1.85,6.41,2.07,7.94C1086.21,1653.44,1089.76,1653.75,1088.33,1658.07Zm55.32-132.8c-5.83-2.52-13.88-5.56-21.47-9.48-3-1.54-3.12-6.81-1-8.1,6.35-3.87,9.88-13.27,19.36-11,9.66,2.28,20.15,3.95,24.39,14.85C1167.72,1518.63,1158.13,1525.43,1143.65,1525.28Zm16.42-104c-7.68-2.38-16.21-4.4-24.18-7.76-3.76-1.61-2.12-6.25-.87-9.48,3.76-9.85,17.05-16.44,27.86-14,1.69.37,3.79.16,5.08,1.09,5.14,3.58,16.36-1.16,15.7,9.51C1183.07,1410.14,1169.2,1421.29,1160.06,1421.29Zm27.38-94.11c-5.93-2.86-13.82-4.58-11.25-13.24,2.14-7.12,8.42-10.86,17.45-10.54,6,1.83,13.27,3.42,19.91,6.38,3.34,1.48,6.46,8.61,3.28,9.4C1207,1321.59,1199.57,1333,1187.44,1327.18Zm54,142.35c-1.3,3.71-5.45,5.32-8.58,5.06-7.76-.71-16.23,3-23.25-3-3.76-3.2-12.29-3.71-10.67-9.69,2-7.44,10.88-7.6,17.61-10,6.33,3.31,14.64,1.4,20,7.86C1239.08,1462.68,1243,1465,1241.41,1469.54Z"
          style="fill:#163847;"/>
        <path
          d="M225.36,929.72c-3.1,10.32-8,20.22-7.62,31.37-17.4,12.63-34.09,26.41-52.38,37.56-19.41,11.83-39.45,24.78-62,27.9-14,1.94-27.33,10-42.13,6.4l.18.17c-3.81-8.91-12.74-12.58-19.12-18.85-11.05-10.89-21.63-22.29-32-33.8-14.71-16.27-13.3-25.34,2.53-40.18,21.13-19.81,42.62-39.46,59.7-63.09,2.73-3.77,6.68-3.18,9.74-5.68,12.62-10.31,24.67-20.76,33.51-34.91,3.11-5,10.31-7.64,16-10.72,19.76-10.71,28.81-31.95,47.06-46.49-12.77,1.45-21.53-2.12-29.35-10.63-4.39-4.78-12.36,1.72-19.23-2.83-14.88-9.85-31.06-17.72-46.41-26.89a72.69,72.69,0,0,0-21.31-8.54C47,726.86,36.73,714.66,25.94,703.79c-.31-.31-.92-.85-.87-.92,6.35-9.34-3.3-20.59,3.75-29.94,13.85-18.38,25-38.26,48.35-48.56,15.41-6.8,27.39-8.83,43.65-3.12,11.38,4,23.33,6.81,34,12.68,4.75,2.61,6-1.93,8.93-2.88.84,12.8,3.07,26.67,7.07,37.38,4.56,12.2,4.4,26,12.23,37.8-5,1.39-13.49,1.41-4.66,9.57,2.93,2.71-2.71,3.42-3.33,5-1.93,4.82-7.28,11.12,3.87,13,7.22,1.19,6.49,1.62,1.54,8.21-3.33,4.44,1.56,11.8-4.91,15.59,3.7,2.94,17.48-2.07,6.6,9.31,9.91,12.63,1.22,26.76,3.07,40.12,1.21,8.74,9-.13,10.82,6.35-15,7-1.73,14.84.17,22.63.51,2.11,4.3,3.6,2,6.51-2.15,2.71-3.73.79-6.27-.5-4.73-2.39-2.84,2.55-2.8,4.25.25,11.53,11.24,16.07,15.91,24.64-9.73,3.27-9.73,3.27-3.64,11.56.46.63,1.53,1.58,1.4,1.77-9.25,13.56,5.42,19.44,9.17,28.79,1.13,2.82,3.15,6,2.71,8.6-1.69,10.23,4.93,8.64,10.86,8.37Z"
          style="fill:#53b5c9;"/>
        <path d="M198.91,2214.09l.11-.19h.13Z" style="fill:#e56064;"/>
        <path
          d="M381.51,1768.78c-.05.08-.08.19-.13.26v0c-3.23,6.83-7.26,13.37-11.2,19.94-1.62,2.7-3.2,5.4-4.74,8.13-.32.53-.64,1.09-.93,1.67-.61,1.11-1.19,2.22-1.77,3.34a.58.58,0,0,1-.08.13c-.53,1.09-1.09,2.17-1.59,3.28s-1.06,2.28-1.54,3.44l-.72,1.75c-.45,1.17-.9,2.38-1.3,3.57-.32,1-.64,2-.9,3a51.48,51.48,0,0,0-1.32,6.06c-2.09,13.4-12.37,20.95-15.94,33.39-5,17.42-8.63,35.4-15.07,52.48-1.32,3.47,1.8,5.61,2.65,8.42,1.51,5,8,10.17-1.75,14.93-4,2-2.94,9.51-1.16,13.61,2.41,5.61,2.36,10.57.93,16.15-5.77,22.27-1.17,45.15-3.68,67.71-1.38,12.37-7,25.26,1.19,37.47-10.83,6.75.13,17.42-5,27-4.74,8.87-1.56,23.35,1.32,34.56,3.31,12.92-1.69,24.07-3.65,35.83-.93,5.61-2.3,10.06,2.25,14.35,2.33,2.17,4.48,4.9,3.71,8.13-2.54,10.51-2.67,16.52,12.07,14.14,6.83-1.11,1.91,9.59,4.34,14.33-14.3-8.26-29.82-3.26-44.8-3.79-15.44-.56-31-.48-46.39.19-10.17.45-20.47,3.44-28.2-6.43-.4-.5-2.41.26-3.68.42l-14.19,5.53c-.4.69-.77,1.32-1.19,2-10.57.34-20.23-5.56-26.9-11-5.83-4.79-5.24-17.45-7.26-26.69-.08-.4,2.12-1.32,3.26-2-8.5-6.83,1.14-14.8-.93-20.84-5.22-15.31-6.94-29.9,4.37-42.31,4.82-5.27,6.7-10.38,5.9-16.18-1.67-12,6.33-21.79,6.86-32.89,1-20.65,10.22-39.32,13.82-59.47,2.33-12.92,10.25-27.64,18.8-40.33,10-14.88,15-33.58,26.37-47.08,22.64-26.93,37.39-59.58,65.93-82.67,12.39-10,24.36-24.65,33.26-39.8,2.17-3.71,8.79-2.07,9.93-7.52,1.09-.87,2.2-1.75,3.31-2.6,2.22-1.72,4.48-3.36,6.78-4.87a64.31,64.31,0,0,1,18.88-8.87Z"
          style="fill:#e56064;"/>
        <path
          d="M1610,1512.58c-17.91,2.64-36.3-.49-53.94,7.14-15.42,6.67-32,.35-48-.62a28.93,28.93,0,0,0-9.89.6c-5.33,1.38-11.27,5.85-16.68-1.39-1.32-1.76-7.1-1.76-10-.54-19.66,8.36-39.89,6.06-60.16,4.16-6.49-1-8-4.92-7.68-11.14.69-14.58,8.19-28.51,3.13-43.79-1.61-4.84-2.08-6.27-7.7-7.36-9.91-1.91-19.63,1.86-29.25-.83-1.67-2.42-6.12-3.07-5.47-6.82,2.95-16.8-6.36-33.58.07-50.33,8,.31,16.11.23,24.09,1.08,4.49.48,7.92-.83,9.82-4.27,2.39-4.33-.37-6.41-4.26-9-5.33-3.59-9.37-9.1-14-13.79,10.53-4.24,15.63-9.51,4.16-18.83-2.06-1.68-5-4.42-3.06-7.86,2.07-3.66,6.18-3.58,9.31-2.48,5.09,1.79,8.41.41,7.55-4.67-2-12,5.08-12.86,13.7-12.68,6,.08,7.84,3.56,8.81,9,.52,2.93,1.74,7.14,6.25,7.32,3.12.12,4-2.66,5.56-4.76,3.26-4.5-.59-6.09-3.21-7.63-9-5.26,2.59-8.25,1.22-12.58,3.77-2.84,7.58-5.62,11.28-8.53,5-3.9,7.78-8.11,17-4.43,6.18,2.47,19.46,6.64,26.89-4,2.27,6.59-5.07,12.59-.43,20,2.28,3.64,1.3,4.62,5.67,2,4.73-2.81,10.26-.3,14.68,4.13,3.08-7.17-3.51-12.67-.67-18.6,7.48-.67,14.39-2.65,19.89-8.22,1.45-1.47,5.38-2.71,5-.64-1.77,9.94,12.78,8.23,11.7,17.85-.54,4.8,4.6,3.88,8.05,3.44l6,9.44,5-6.63,2.23-2.15-.19.12c3.54-.51,9.05,2,8.18-5.3l-.13.11c8.23.76,17.89-4.06,24.09,4.73,3.57,5.07,8.32,6.86,13.62,8.42-3.4,15.18-4.51,30.77-11.76,45.24-2.91,5.8,2.08,17.81,4.41,19.81,10.47,9,6.05,20.69,8.78,30.74,4.07,15,.51,29.83-3.61,44.4-.23.81-2.83.63-.65,2.49C1618.43,1486.07,1609.47,1499.91,1610,1512.58Z"
          style="fill:#53b5c9;"/>
        <path
          d="M1652.66,1021.07a19.62,19.62,0,0,1-5.95,15.48c-9.88,9.88-15.75,23.18-21.21,34.7-4.73,10-10.18,21.49-12.66,33.27-2.34,11.13-9.21,12.57-19.07,7-14.61-8.22-15.42-23.74-21.26-36.55-1.11-2.43.5-8.25,2.7-9.69,11.17-7.35,10.58-20.67,16.67-30.43,6.79-10.89,13.36-22.1,21.63-31.8,4.77-5.6-.09-18.26,12.73-17.52,9,.52,23.48,13.94,25.46,23.83C1652.47,1013.2,1652.37,1017.18,1652.66,1021.07Z"
          style="fill:#163847;"/>
        <path
          d="M1478.27,998.71c9.42,3.94,20.74,8.25,31.5,13.67,1.36.69,1.72,7.71,1.88,10.12.65,10,8.67,17.39,8.46,26.9-.2,9,.2,17.09,8.71,22.43,1,.65,2.89,2,2.77,2.24-3.07,6.16-10.53,8.77-12.34,16.31s-7.89,5.52-14,7c-17.13,4-20.64-14.54-33.36-16.17-2.6-.33-1.51-4.62-1.88-7.13-2.84-19.21-5.43-38.46-8.55-57.62C1459.76,1006.07,1465.54,998.69,1478.27,998.71Z"
          style="fill:#163847;"/>
        <path
          d="M1411.81,1329.14c-8.62-.18-15.74.71-13.7,12.68.86,5.08-2.46,6.46-7.55,4.67-3.13-1.1-7.24-1.18-9.31,2.48-1.95,3.43,1,6.18,3.06,7.86,11.47,9.32,6.38,14.59-4.16,18.83-.92-1.42-1.52-3.31-2.81-4.19-11.37-7.8-13.18-18.86-10.39-31.06-3.13-2.74-4.87,12.45-7.94-.08-4.42-18-13.77-35-11-54.54a13.08,13.08,0,0,0-2.83-9.89c-3.24-4.25-4.25-9.51-1-13.43,3.89-4.68,9.37-7.7,16.25-6.64,17.67,2.72,26.34,10.62,30,29.05C1393.87,1301.52,1405.12,1314.2,1411.81,1329.14Z"
          style="fill:#e56064;"/>
        <path
          d="M1364.46,1401.66c-6.43,16.75,2.88,33.54-.07,50.33-.66,3.75,3.79,4.4,5.46,6.82-6.84.95-12.93,4.46-20.76.89-7.33-3.34-15.45-7.17-24.31-5.42-1.13-6.76-4.26-12.12-10.21-15.93-7.67-4.92-11.67-11.44-11.92-21.3-.23-8.91-7.81-15.61-13.35-21.71-6.48-7.13-3.91-11.41,2.11-13.78,6.6-2.6,13.61-6.26,21.37-4.18,16.9,4,34.16,7.1,45.85,22.07C1359.72,1400.85,1362.48,1401,1364.46,1401.66Z"
          style="fill:#e56064;"/>
        <path
          d="M1485.59,1303.54c-7.43,10.63-20.71,6.46-26.89,4-9.2-3.68-12,.53-17,4.43-3.71,2.91-7.52,5.69-11.28,8.53-1-13.94-2.48-27.86-2.7-41.81-.18-10.93.73-21.78-3.35-32.31-3.6-9.27.61-16.9,10-19.42,12.08-3.25,23.84.8,33.27,6.08,5.76,3.22,7.76,14.27,7.85,23.28C1475.62,1272.64,1480.48,1288.16,1485.59,1303.54Z"
          style="fill:#e56064;"/>
        <path
          d="M1549.49,1323.55c-3.45.44-8.59,1.35-8.05-3.44,1.08-9.62-13.47-7.91-11.7-17.85.37-2.07-3.56-.83-5,.64-5.5,5.57-12.41,7.55-19.89,8.22-6.4-15.13-.77-31.75-5.77-47.07-.4-1.21-.1-2.63-.27-3.93-2.5-18.46,3-23,21-17.47,15.26,4.67,29.13,22.49,29.53,38.62.23,9.2,0,18.33,4.13,26.94C1556.41,1314.26,1553.14,1319,1549.49,1323.55Z"
          style="fill:#e56064;"/>
        <path
          d="M1608.3,1332.3c-5.3-1.56-10.05-3.35-13.62-8.42-6.2-8.79-15.86-4-24.09-4.73-6.76-14.43,3.46-24.19,9.72-35,4.3-7.4,11.09-7,16.72-2.87,7.87,5.72,14,13.23,13.93,23.95,0,3.76-1.62,7.5,1.77,11.08C1619.69,1323.72,1611.68,1327.48,1608.3,1332.3Z"
          style="fill:#e56064;"/>
        <path d="M1570.72,1319c.87,7.32-4.63,4.79-8.18,5.3C1561.79,1317.2,1563.35,1313.63,1570.72,1319Z"
              style="fill:#e56064;"/>
        <path d="M61.21,1033l-.91,1.18c.05-.22,0-.54.17-.65a3.65,3.65,0,0,1,.92-.37Z" style="fill:#53b5c9;"/>
        <path d="M198.92,2214.08a5,5,0,0,1,.85.64c.1.11,0,.41,0,.62l-.63-1.42Z" style="fill:#e56064;"/>
        <path d="M1562.73,1324.21l-2.23,2.15C1560.78,1325.16,1560.86,1323.76,1562.73,1324.21Z" style="fill:#e56064;"/>
        <path
          d="M357.54,852.32c-3.64-5.25-13.65-10.48,1-15.18,4.69-1.5-.5-7.09.85-10.68,5.9-2.27,7.57,5.68,15.44,4.43,22.59-3.58,44.71-9.58,67.46-12.43a508,508,0,0,0,65.85-13.06c13.4-3.52,29.25-2.6,38.75-16.35,1.36-2,1.22,1.24,1.5,2,2.72,7.15,7.4,4.57,11.53,2.07,8-4.82,19.94-8,25.54-7,17.18,3,32.48-3.94,45.82-8.94,19.11-7.16,38.18-9.86,57.44-10.42,8.37-.24,9.92-7.63,18.07-8.36,13.62-1.22,27.92-2.15,41.41-6.4,13.2-4.15,26.08-11.24,39.87-11.09,11.29.12,16.61-4,18.62-14,5,1.22,6,8.42,11.59,6,7.11-3.07,14.85-2,22.37-3.91,25.15-6.45,51.53-8,76.2-16.77,11.39-4,23.28-.77,34.4-4.41,7.22-2.37,13.27-4.59,22.06-2.66a31.6,31.6,0,0,0,31.47-11.28c14.74-5.31,30,4.71,44.77-1.44,2.41-1,4.9,2,3.31,3.72-7.88,8.35.89,12.32,4.22,17.55,12.29,19.28,18.11,41.3,26.67,62.15,3.35,8.16,4.43,17.5,11.61,23.72,4.81,4.17-3.51,4.84-1.95,9.26,2.86,8.07,5.26,17.15,5.47,25.19.58,22.08,8.15,43.32,6.68,65.49-.23,3.46.23,6.83,3.87,9.09,4.59,2.85,5,8.5,3.76,12.28-2.6,7.74-3.69,13.61,3.58,19.95,4.85,4.23-7.21,6.22-3.79,13.11,2.19,4.42,2.82,10.56,3.8,15.81,3,16-8,32.86,3.25,48.05,2.51,3.4.59,5.76-2.91,7-5.67,1.93-13.21-1.33-17.06,6.33-.3.59-5.84-2.67-4.85-4.7,6.07-12.46-6.67-20.17-7.34-30.85-.09-1.41-1.52-3-.58-4.66,7-12.36-.74-21.58-4.33-32.93s-8.51-22.12-12.91-32.87c-2.78-6.79-3.91-15.35-11.53-20.68-3.81-2.67-7.32-7.67-9.87-12.92-2.72-5.6-5.84-15.43-16.85-7.92-3.9,2.66-3.27-2.3-3.78-5.37-1-6.12-2.76-13.4-11.81-9.26-4,1.8-4.64.84-4.35-2.67.32-3.92-1-9-4.77-7.51-16.25,6.17-17.91-12-27.44-15.29-10.72-3.72-20.29-11.84-31.85-11.63-18.84.33-37.69-5.49-55.87-3.31-26,3.1-52.9,8.14-74,25.36-17.73,14.5-30.23,33.75-42.93,53.13-6.58,10-.77,22.48-10.67,30.3-.67.53-2.24,9.29-3.1,14-2.37,13-8.13,13-19.17,11.45-10.72-1.49-22.34-1.75-32.83,4.59-7.29,4.41-14.25-2.81-14.09-7,.29-7.85-12.09-13.16-3.76-21.67-12-6.07-.12-20.87-12.08-29.54-8.63-6.26-12.3-20.44-19.28-30.58-11.3-16.42-26.55-27.49-43.68-36.61-15.78-8.41-33.74-10.59-50.62-13-12.76-1.82-28-2.39-40.84,3.75-3.1,1.48-3.07-.59-4.52-.77-22.85-2.78-41.65,7.58-57.06,22-4.77,4.45-5.18,8.91-12,4.65-1.22-.76-3.46.35-5.15.11-6.64-.94,1.85,16.47-11.77,9.17-3.61-1.94-9.68,6.39-8,14.33.51,2.47-3.71,2.61-5.07,1.06-7.25-8.26-10.61,1.16-12.8,4-5.65,7.28-8.4,16.92-18.23,20.52,2.63,6.32-3.68,9.29-5,13.58-5.71,18.79-16.58,35.49-20.58,55.06-1.75,8.55,3.18,17-2.3,25.32-8.84,13.35-.32,28-1.56,42-.89,10.18-6.93,11.24-13.67,9.72a64.2,64.2,0,0,0-16.91-1.31c-11.95.43-19.75-7.07-20-19,0-1.75-.2-4.6.7-5.09,18.53-10.17,5.07-26.13,6.94-39.17,1.94-13.58.92-27.38,2.84-41.23A307.93,307.93,0,0,1,329,907.65c3.84-13.39-.87-31,13.06-41.34,6.86,4.37,15,12.28,13.69-5.2C355.56,858.23,356.91,855.25,357.54,852.32Zm443.39-65.54c-.19,7.23,2.75,16.25,8.44,16.68q24.64,1.89,49.32,4c3.92.33,8.09-.13,10.62-4,2.24-3.39,5.69-4,9.23-4.16a252.75,252.75,0,0,1,79.69,7.83c7.14,1.9,14.86-2.91,21.42,2.51,8.58-12.35,24.47-10,35.37-17.62,6.74-4.7,12.22-10.69,8.86-19.6-4-10.52-27.16-25-37.95-28.94-10.19-3.74-20.45-2.85-30.42-5.11-12.24-2.78-12.52-3.35-24.9,2.15-1.56.69-2.87.2-3-1.1-.84-7.46-6.78-3.9-10.3-4.54-23-4.19-45.19,6.53-68.07,4.5-6.79-.6-6.08,7.1-12.36,7.84C814.82,749.8,801.23,765.61,800.93,786.78Z"
          style="fill:#e56064;"/>
        <path
          d="M1004.79,693.78a31.6,31.6,0,0,1-31.47,11.28c-8.79-1.93-14.84.29-22.06,2.66-11.11,3.64-23,.38-34.4,4.41-24.67,8.72-51.05,10.32-76.2,16.77-7.52,1.93-15.26.84-22.37,3.91-5.63,2.43-6.55-4.77-11.59-6-2,10.08-7.33,14.17-18.62,14-13.8-.15-26.67,6.94-39.87,11.09-13.5,4.25-27.8,5.18-41.41,6.4-8.15.73-9.69,8.12-18.07,8.36-19.26.55-38.33,3.25-57.44,10.42-13.34,5-28.64,11.92-45.82,8.94-5.6-1-17.56,2.2-25.54,7-4.13,2.49-8.81,5.07-11.53-2.07-.28-.73-.13-3.94-1.5-2-9.5,13.75-25.35,12.83-38.75,16.35a508,508,0,0,1-65.85,13.06c-22.76,2.85-44.87,8.84-67.46,12.43-7.88,1.25-9.55-6.7-15.44-4.43,1.47-11.2,10.66-18.64,14.13-28.9,1.57-4.63,7.09-8.21,3.23-14.19-.35-.54.76-2.63,1.69-3.31,16-11.79,20-32.3,33.58-46.05,8.19-8.27,16.38-17,24.63-24.93,10.89-10.44,25.31-17.9,40.37-23,6.3-2.15,13.52-3.13,16.77-12.22,2.59-7.23,12.43-2.05,18.57-2.82,17.23-2.15,34.54-2.67,50.6-10.3,4.73-2.25,6.27,5.33,11.64,3.24,7.51-2.91,16-.65,23.67-5.85,10.49-7.16,21.69,3,33.17.67,11-2.27,24,6.79,33.43-5.73a2.66,2.66,0,0,1,2.46-.2c21.59,11.24,46.07,5,68.87,10.61,6.37,1.57,17.79,1.35,25.79,2.19,7,.73,15.36,3.73,23.34,4.91,16.53,2.44,33,5.14,49.61,7.2,14.64,1.81,28.32,8.62,43.21,8.53,17.82-.11,35.35,5.23,53.33,2.41,5.74-.9,8.69,6,15.85,5.52C966.39,692.83,985.62,693.76,1004.79,693.78Z"
          style="fill:#53b5c9;"/>
        <path
          d="M1035.66,990.55a1.55,1.55,0,0,0,.05.34s0-.05.05-.08.08-.08.11-.11Zm2.73,45.81c-7.15-5.3-2.7-10.54-.37-15.86-2.52-2.33-5.53-4.29-7.39-7-3.6-5.24-8.21-11.52,1.91-14.8a7.35,7.35,0,0,0,1-.37,7.69,7.69,0,0,0,.82-.42,4.28,4.28,0,0,0,.9-.72,2.57,2.57,0,0,0,.58-.77,3.48,3.48,0,0,0,.19-.48,4.28,4.28,0,0,0,.19-1.3,14.91,14.91,0,0,0-.37-2.75c-.05-.34-.11-.66-.13-1a20.06,20.06,0,0,1-2.36,2.22,5,5,0,0,1-.45.34c-2.54,1.8-5,1.67-6.57-3.47-1.22-4-.87-8.45-1.24-12.68-7.47-10.94-24.39-12.95-27-28.62-.32-1.83-2.7-3.92-4.66-.79-2.73,4.34-5.45,3.6-8.08.16-1.93-2.52-3.57-5.22-.13-8,2.12-1.69,4.34-3.95,1.8-6.43s-7-2.22-8.69-.56c-10.57,10.43-19.52-.26-28.76-2.2a17.43,17.43,0,0,1-13.69-13.21c-1-3.73-21.82-5.22-25.29-1.38-6.49,7.15-13.61,6.57-21.42,3.76-6.28-2.22-11.12,1-16.92,2.65-21.34,5.9-31.38,27.17-50.87,35-2.25,9.08-8.42,19.52-5.8,26.88,3.18,9.06.77,10.51-5.8,12.66,5.51,6.33,5,14.46,6.86,21.93,1,4-.37,5.77-3.5,7.23,1.32,8.31-11.54,19.07,4.26,24.89-.77.87-1.4,2.25-2.36,2.52-4.87,1.46-3.28,4.55-1.8,7.23,4.47,8.18,6.28,17.93,14.46,23.94a13.82,13.82,0,0,1,4,4.34c4.4,7.44,3.31,17.5,14.78,22.3,14.19,5.93,29,10.67,43.29,15.57,9.14,3.1,20.2,9.48,32.49,3.87,10-4.55,21.66,0,33.36-3.1,8.34-2.22,16.07-3.63,23-9.08,5.38-4.29,11.78-7.47,17.42-11,15.52-9.67,25.1-24.47,37.71-36.52,1.75-1.64.74-3.1.11-4.66-3.76-9.24-3.07-17.71,4.61-24.73C1040.8,1039.83,1039.9,1037.5,1038.39,1036.36ZM986,1024.23c-.66,29.68-14,50.1-41.39,62.89-7.2,3.36-11.47,10-19,2.07-6.17,10.8-14,2.12-21.18,2-16.36-.32-28-8.55-37.68-21,3.81-5.51,12.55,1.48,12.82-7.89.11-4.42-2.2-6.59-6-7.31-8.24-1.56-2.62,6.88-6.3,8.74-16.66-9.4-23-23.28-18.19-41,1.48-5.48-2.94-10.19.08-16.44,5.69-11.84,7.52-25.08,24.41-28.39,6.75-1.32,11.49-10.46,19.57-13.21,18.43-6.28,35.19-2.54,52.64,4.71,15.89,6.59,14.14,8.82,25.31,19.73,7.49,7.33,6.28,17.72,14.54,23.14C990.41,1015.38,986,1020.15,986,1024.23Z"
          style="fill:#53b5c9;"/>
        <path d="M418.63,990.71l.11.11.08.08a1.51,1.51,0,0,0,0-.34Z" style="fill:#53b5c9;"/>
        <path
          d="M641.33,1026.37c-3.65-5.64-2.44-18.51,1.67-23.06,1.27-1.4,1.17-4,1.7-6.09-4.16-1.35-10-3.12-8.29-8.08,4-11.36-2-21.05-3.31-31.46-10.78-2.07-16.15-11.33-23.57-17.79-14.48-12.68-29.18-24.23-50.26-17.26-6.54,2.14-11.33,1.3-16.1-4.55-5.93-7.28-22-4-27,4-4.47,7-11.17,12.13-20,11.92-4.16-.11-7.44-.5-10.43,3.18-2.25,2.75-6.3,3.47-6.73-1.14-1.06-11.65-6-1.32-9-2-3.12-.74-4.24.4-3.39,3.07.48,1.48,2.91,2.3,3.44,3.79,2.07,5.72-2.28,11.86-5.85,9.16-8.76-6.59-8.13-.4-9.88,4.74-1.24,3.58-3.28,6-7.41,8.13-9.14,4.66-16.42,11.78-17.79,23.22-.77,6.35-2.78,12.66-10.33,4.77-.08,2.12-.66,5.43.05,5.75,18,8.1,6,14.8-.85,21.77a15,15,0,0,0-1.51,2.09c.08.21.13.4.21.61.53,1.35,1.24,2.75,1.85,4.13l.4.9a3.56,3.56,0,0,1,.19.48c.11.26.21.5.29.77s.16.42.21.61.13.42.16.61a5.35,5.35,0,0,1,.19,1,6.49,6.49,0,0,1,.05.72,4.63,4.63,0,0,1-.11,1.06c-3.79,17-.21,23.17,18.19,27.51,6.43,1.51,4.13,8.61,8.45,11.86,1.88,1.43-2.44,4.71-5.3,6-11.44,5.3-12.07,9.29-.9,16.66,12,7.89,23,17.24,34.5,25.66,14,10.22,28.94,11.36,43.8,11,13-.34,25.74,5.08,40.14-1.88,7.2-3.5,21.37-4.85,28.6-8.21,12.13-5.64,32.91-5.91,34.11-26,.64-10.51,17.19-10.91,12.74-23.22C647.82,1057.75,646.36,1042.34,641.33,1026.37Zm-40.17,26.27c-10.06,2.83-9.77,11.33-10.54,19.28-5-.5-7.39,3.34-10.06,6.36-11.07,12.39-27.94,10.72-41.41,17.29-1.77.87-5.45.5-5.22-2.14,1.22-13-3.79-5.9-7.94-2.75-5.19,3.95-7.39,3.18-13.27-1.91-5.43-4.69-13.37-11.36-22.75-11.47-3.73,10.19-9.08,6.49-14.54,1.7,1-6.17,8.47-.9,10.19-5.8-7.68-16.76-20-31.86-17.69-52.22.58-5.19,8.9-24.41,14.06-28.17s3.28-10.51,8.69-15.7c10.78-10.33,23.75-10.12,36-13.82,20-6.09,35.93,2.38,53.22,12.13,19.25,10.83,23.33,25.34,26.56,45.49C608.52,1033.89,602,1042,601.16,1052.64Z"
          style="fill:#53b5c9;"/>
        <path
          d="M1083.22,1120c-.5,2.91-2.59,6.14-2.59,9.64,0,20.65-14.43,30.5-30,38.71a32,32,0,0,0-15,15.73c-3.5,7.52-8.23,11-17.69,7.94-7.78-2.52-15.78-3.47-17.37,10.43-1.27,11-14.85,12.74-24,14.72-5.88,1.3-14.8.13-20,.64-10.64,1-21.42,2.09-32.36,2.38-14.14.42-28.36,2.7-41.94-2.89a33.11,33.11,0,0,0-8.26-2.44c-29-4.18-50.95-22.06-73.48-38.63a79.66,79.66,0,0,1-31.83-49.81,10.61,10.61,0,0,0-6-7.92c-1.43-.77-3.73-2.89-3.52-3.31,5.45-11-6.43-17.93-6.33-27.35a84.54,84.54,0,0,0-5-30.93c1.11-1,2.25-2,3.36-3.07,3.57,6.36,1.83,15.49,10.19,19.3a8.1,8.1,0,0,1,1.88,1.69c-11.17,10.67,5.75,13.45,6.2,21.42s2.44,17.4,7.31,23.14c9.16,10.75,18.09,22,29.66,30.74,14.8,11.23,32.7,17.37,46.95,29.5,4.24,3.63,10.27,1.11,15.31,2.38,14.8,3.76,29.5,10,45,7.07,12.82-2.38,26.29,5.14,38.87-4.13,3.95-2.91,10.09,2.91,17.45,1.54a81.07,81.07,0,0,0,17.21-5.24c2-.85,3.95-1.8,5.85-2.83s3.81-2.09,5.69-3.28c1.24-.77,2.49-1.59,3.73-2.44a0,0,0,0,1,0,0c-.5-1-1-2-1.32-2.86-.13-.32-.24-.64-.34-.93a7.33,7.33,0,0,1-.21-.71,9,9,0,0,1-.37-2.38,4.46,4.46,0,0,1,.08-.87,3.48,3.48,0,0,1,.24-.79l.24-.48a2.51,2.51,0,0,1,.42-.5,1.74,1.74,0,0,1,.48-.4,4.21,4.21,0,0,1,.58-.34,4.51,4.51,0,0,1,.71-.26,6.29,6.29,0,0,1,.82-.19l.61-.08a5.16,5.16,0,0,1,.66-.05,20.15,20.15,0,0,1,4,.24c2.75-2.12,5.56-2.15,8.61-.58,6.36,3.26,13.64.16,15-4.29,5.69-18.85,26.19-21.08,36.83-34.53,4.82-6.06,9.14-11.47,10.17-18.69a74.49,74.49,0,0,1,8.87-26.19C1099.8,1093.37,1085.63,1106.05,1083.22,1120Z"
          style="fill:#f3bb03;"/>
        <path
          d="M640.24,1188.14c-9.74,4.45-17.79,13-29.76,12.21a4.45,4.45,0,0,0-3.52,1.4c-13.5,19.28-35.8,13.93-54.2,18.51a82.54,82.54,0,0,1-37.81.24c-16.42-4-34.4,2.81-49.46-7.65-5-3.42-12.95-3.12-11.47-14.25.82-6.3-9.37-10.19-16.39-7.15-10.54,4.55-15.57.08-19.38-8.74-3.31-7.71-9.93-10.94-16.92-15.17-11.92-7.23-24.65-15.57-26.88-31.51-1.88-13.66-3.92-27.06-13-38.29-1-1.3-.05-4.21,0-6.38,7.12-3.58,12.74-6.67,12.47,6.46-.4,19.22,14.4,29.26,28.12,38.45,5.8,3.89,11.76,6.46,15,13.24,4.74,10,11.44,16.47,23.7,11,1.11-.5,3.15,1,4.74,1.56-2.3,6.33-4.79,12.82,6.62,10.62A54,54,0,0,0,491.56,1188c22.75-1,45.23,4.79,67.79,1,26.64-4.45,51.5-13.74,74.06-28.76,4.53-3,8.71-6.49,13.37-10C652.45,1164.89,639,1175.19,640.24,1188.14Z"
          style="fill:#f3bb03;"/>
        <path
          d="M633.09,957.69c-10.78-2.07-16.15-11.33-23.57-17.79-14.48-12.68-29.18-24.23-50.26-17.26-6.54,2.14-11.33,1.3-16.1-4.55-5.93-7.28-22-4-27,4-4.47,7-11.17,12.13-20,11.92-4.16-.11-7.44-.5-10.43,3.18-2.25,2.75-6.3,3.47-6.73-1.14-1.06-11.65-6-1.32-9-2-3.12-.74-4.24.4-3.39,3.07.48,1.48,2.91,2.3,3.44,3.79,2.07,5.72-2.28,11.86-5.85,9.16-8.76-6.59-8.13-.4-9.88,4.74-1.24,3.58-3.28,6-7.41,8.13-9.14,4.66-16.42,11.78-17.79,23.22-.77,6.35-2.78,12.66-10.33,4.77a1.51,1.51,0,0,0,0-.34l-.21.16c-1.61-8.5,12.47-9.06,9.29-18.22-2.09-6.06.69-11.44,1.32-17.16a28.86,28.86,0,0,1,15.09-22.24c6.46-3.6,10.27-6.94,11.57-13.8.4-2.07,3-5.11,3.84-3.89,4.21,6.06,7,4.74,10.86-.29,4.79-6.17-5.11-7.33-3-14.09,4.66,4,9.53,4.13,14.48,3.44,1.38-.19,2.75-.45,4.13-.72,1.19-.21,2.38-.45,3.6-.61.53-.08,1.06-.16,1.56-.21a16.23,16.23,0,0,1,1.93-.13,16.71,16.71,0,0,1,2.3,0c.4,0,.82.05,1.22.11a4.27,4.27,0,0,1,.61.08,4.15,4.15,0,0,1,.61.11,15.43,15.43,0,0,1,3.55,1.17,6.78,6.78,0,0,1-.13.71,2.09,2.09,0,0,0,0,.9.52.52,0,0,0,.24.37.43.43,0,0,0,.19.11.5.5,0,0,0,.21.05,2.09,2.09,0,0,0,.61.05,10.88,10.88,0,0,0,.37-2.09c1-2.22,2-4.48,3-6.73l-5.19-.4a19.14,19.14,0,0,1,2.36-1.8c6.73-3.73,14.51-5.83,19-13.05.72-1.17,3.18.11,4.08,1.88,7.68-.24,14.93-2.73,21.29,6.17,4,5.61,13,1.56,19.09-1.3s11.7-2.67,15,2.78c2.94,4.79,7.47,1.77,9.93,3.63,17.21,13,36.91,23.7,45.23,45.49C639.1,947.17,638.57,953.05,633.09,957.69Z"
          style="fill:#f3bb03;"/>
        <path d="M418.63,990.71l.21-.16a1.51,1.51,0,0,1,0,.34l-.08-.08Z" style="fill:#f3bb03;"/>
        <path d="M501.44,904.94a2.91,2.91,0,0,0-.05.48,1.11,1.11,0,0,0,0,.42A2.09,2.09,0,0,1,501.44,904.94Z"
              style="fill:#f3bb03;"/>
        <path d="M498,903.06a14.16,14.16,0,0,1,3.55,1.14v0A15.43,15.43,0,0,0,498,903.06Z" style="fill:#f3bb03;"/>
        <path
          d="M1025.28,977.55a1.46,1.46,0,0,0-.19-.24c-7.47-10.94-24.39-12.95-27-28.62-.32-1.83-2.7-3.92-4.66-.79-2.73,4.34-5.45,3.6-8.08.16-1.93-2.52-3.57-5.22-.13-8,2.12-1.69,4.34-3.95,1.8-6.43s-7-2.22-8.69-.56c-10.57,10.43-19.52-.26-28.76-2.2a17.43,17.43,0,0,1-13.69-13.21c-1-3.73-21.82-5.22-25.29-1.38-6.49,7.15-13.61,6.57-21.42,3.76-6.28-2.22-11.12,1-16.92,2.65-21.34,5.9-31.38,27.17-50.87,35-5.72-8.31-5.64-25.55,2.54-30.85,11.73-7.63,19.07-20.44,31.35-26.29s23.49-18.24,39.77-9.61c6.41,3.39,12.58,2.36,16.66-5,4.5-8.13,11.25,1.11,16.55-1.72,8.74-4.69,8.37,2.25,9.4,7.36a4.81,4.81,0,0,1,1,1.48c3.73,1.54,8.24-3.84,11.73,1.46.85,1.27,3,1.7,4.55,2.52l-6.49.56c1,2.25,2,4.5,3,6.73a8.27,8.27,0,0,0,.37,2.09c1.85.11,1.16-1.22,1.09-2.2,5.59-1.06,11.47-5.51,16.1,2.07,1.14,1.85,4.61,2.83,5.51.45,2.81-7.57,8.71-2.28,12.76-4.55,1.64,5.59-8.21,6.75-3.39,12.95,3.92,5.06,7,6.46,10.59.05,1.22,1,3.5,1.88,3.52,2.91.4,9.19,7.65,12.34,13.82,16.68C1027.19,945.56,1028.33,960.92,1025.28,977.55Z"
          style="fill:#f3bb03;"/>
        <path
          d="M644.21,355c9.19-2.24,19-5,29-6.9,4-.75,9.23-2.9,12.07,2,2.44,4.19.69,8.38-2.23,12.17-6.82,8.87-7.39,23.12-21.92,25.35-.41.06-.81.65-1.15.6-16.47-2.52-28.54,10.1-43.68,12.74-9.46,1.65-14.35,1.39-14.28-9.71.07-11.93-1.06-21.81,15-27.3C625.52,361,632.69,353,644.21,355Z"
          style="fill:#cf5b62;"/>
        <path
          d="M1152.12,504.34c.16,10.14-1.78,16.83-9,21.5-15.11,9.85-29.61,20.58-46.28,28-6.42,2.84-11.19,1.17-15.45-2.62-4.63-4.11,0-8.52.59-13,3.93-27.95,26.29-34.87,47.72-43.06a21.13,21.13,0,0,0,2.33-1.18c4.32-2.3,7.9-8.83,13.44-5.07A15.83,15.83,0,0,1,1152.12,504.34Z"
          style="fill:#cf5b62;"/>
        <path
          d="M1445.76,259.73c.89,14.06-5.43,25-9.22,36.5-1.31,4-3,10.28-8.43,7.34-5.17-2.78-12.6-5.44-11.78-14,.21-2.16,4.42-3.88.6-6.5-19.12-13.1-8.11-32.21-9-48.66-.42-7.8,17.39-8.82,25.32-.32C1440.11,241.43,1448.15,249,1445.76,259.73Z"
          style="fill:#cf5b62;"/>
        <path
          d="M805,570c8.72,6.51,17.31,8.88,27.19,5.67,1.26-.41,4.38,2.79,5.65,4.92,6.49,10.89-1.62,21-2.36,31.47-.18,2.49-4.23,2.26-5.28.42-5.33-9.35-11.85-3.45-18.17-1.94-10.34,2.47-20.55,1.89-29.63-3.94-13.28-8.54-12.23-22.81,2.06-30C791,573.38,799.7,577.55,805,570Z"
          style="fill:#cf5b62;"/>
        <path
          d="M769,246.24c-8.42,5.65-8.08,20.48-21.37,25-9.69,3.28-20.4,4.65-27.79,13.65-1.76,2.15-7.76,6.74-11.57,2.37-5.2-6-7.83-14.31-5.22-21.58,6-16.72,20-25.58,36.05-31.24,3.17-1.12,7,.37,9.49,3.34,1.79,2.17,3.2,3,4.36-.35,1-3,.94-8.95,5.91-5.07C763,235.5,770.19,236.87,769,246.24Z"
          style="fill:#cf5b62;"/>
        <path
          d="M982.68,430.18c-.57-4.78-5-11.36,1.36-16,9.81-7.17,19.4-15.49,31.17-18.63,5.7-1.52,10.23-4.23,15.28-6.52,6-2.74,13.91-5.09,18.09.54,4.51,6.08,4.26,13.84-.19,21.78-5.76,10.3-16.75,10.35-24.21,15.73-11.94,8.62-27.13-1.34-38,11C981.86,443,981.17,435.29,982.68,430.18Z"
          style="fill:#cf5b62;"/>
        <path
          d="M1234,318.58c-.24,13.74-12.91,28.48-26,31.35-5,1.09-9.8,3.39-14.41,5.71-6.93,3.49-14.26,7.35-20.56.45-6.5-7.12-3.56-16.22-.37-23.56,4.85-11.15,19.5-17.65,31.93-14.68,5.47,1.31,3.29-3.15,5-4.53,6.31-5.15,13.15-6.9,20.89-4.62C1236,310.36,1232.65,315.49,1234,318.58Z"
          style="fill:#cf5b62;"/>
        <path
          d="M413,466.74c-2.08,13.09-6.21,25.33-19.35,31.41-4.51,2.09-5.47,6.63-9.29,8.88-4.9,2.89-7.89,10.75-15.21,7-6.81-3.46-13.22-21.63-8.56-25.87,9-8.17,9.65-21.36,20.84-28.66,9.08-5.93,16.93-5.48,26-4.05C414.75,456.62,413.51,461.62,413,466.74Z"
          style="fill:#cf5b62;"/>
        <path
          d="M373.8,306.69c5.2,5,11.13,10,15,16.88,2.14,3.8,5.68,8.94,1.05,11.63-9.15,5.32-8.3,24.09-25.2,18.8-.26-.08-1.89,2.62-2.08,4.12-1,8-4.14,15.75-13,14.84-10.55-1.07-10-12.6-12.23-19.75C334.37,343.84,363.28,307.92,373.8,306.69Z"
          style="fill:#cf5b62;"/>
        <path
          d="M1210.31,612.58c3.78,15.63-14,18.25-20.51,28.46-1.29,2-5.56,2.14-6,5.93-.68,5.61-4.06,7.56-9.23,5.88-5-1.61-9.17-3.29-9.14-10.51.09-17.94,2.09-34.12,17.78-46.6,6.35-5,12.16-9.64,19.33-6.9,6.52,2.49,6.93,10.44,7.75,17A65.72,65.72,0,0,1,1210.31,612.58Z"
          style="fill:#cf5b62;"/>
        <path
          d="M264.46,591.49c-1.88-4.16-2.82-8.13-7-10.77-11.71-7.38-13.77-17.69-7.45-30.16,4.94-9.75,14.89-15.9,18.59-26.47,8.11,6.4,11.67-13.05,20.27-3.57,1.1,1.22,2.93,3.2,2.57,4.11-8.35,21.49,1.06,50.38-26.39,64C264.59,588.86,264.7,590.21,264.46,591.49Z"
          style="fill:#cf5b62;"/>
        <path
          d="M1354.36,135.26c8.46-.75,10.7,5.8,11.46,11.65,2.67,20.42-18.11,43.28-38.75,43.44-18,.14-18.65-.82-12.3-18.78,1.82-5.14,4.27-7.61,11.12-12.36,5.86-4.06,9.89-10,13.14-16.06C1342.58,136.55,1348.18,135.69,1354.36,135.26Z"
          style="fill:#cf5b62;"/>
        <path
          d="M459.72,388c6.45-7-2.49-24.41,16.27-24.93,1.38-14,18.28-6,22.68-16,.65-1.47,3-1.7,4.65-.46,3,2.3,5,5.94,3.81,9.13-2.22,5.93-2.67,9.55,1.85,15.79,4,5.51-2.88,13.79-8.93,17.25-6.45,3.69-12,8.56-18.57,12-4.4,2.29-7.77,8.62-13.67,5.69C461,403.1,461.42,395.58,459.72,388Z"
          style="fill:#cf5b62;"/>
        <path
          d="M856.79,432.08c-3.87,5.5-8.78,11-13.11,16.2-5,6-12.3,12.66-22.6,12.62-8.14,0-15,6.09-23.41,7-5.37.59-6,.8-6.19-5.33-.74-21.34,7.27-32.61,28.64-36.35C832.75,424,846.07,419.1,856.79,432.08Z"
          style="fill:#cf5b62;"/>
        <path
          d="M1116.84,770.7c.69-2.71,1.21-3.61,1.07-4.39-1.51-8.27-7-18.55,8.33-19,15.1-.47,24,8.31,24.1,21.19.05,4.94.91,10.64,4.49,14.92,6.5,7.76.62,15.94.67,23.87,0,3.94-5.32,3.12-7.62,2.41-9.47-2.93-14.09-12.78-22.85-16.92C1113.92,787.49,1119,777.08,1116.84,770.7Z"
          style="fill:#cf5b62;"/>
        <path
          d="M1120,197.09c-2.46,13-1.23,23.86-11.11,33.47-7.1,6.91-14.52,9.67-22.64,12.81-2,.76-4.48,0-6.46.74-5.46,2-12.75,7.95-15.54-.37-2.69-8-1.48-16.53,5-25.42C1082.35,200.26,1103,205.67,1120,197.09Z"
          style="fill:#cf5b62;"/>
        <path
          d="M887.63,309.58c1.08-8.94,5.16-16.5,11.18-23.12.29-.32.62-.93.9-.91,6.23.4,12.09,5.46,16.75-5.76,2.7-6.5,15,.94,23.21.18,6.61-.61,6.61,5.43,5.26,10.59-3.89,14.84-20.55,28.23-36.21,27.14-5.05-.35-8.6,4.87-15,1.06C889,316,887.25,314.43,887.63,309.58Z"
          style="fill:#cf5b62;"/>
        <path
          d="M354.93,648c-.13,15.71-10.56,22.67-16,32.07-1.73,3-8.8,2-11.47-2.43-5.85-9.65-12.66-19.26-6-31.51,3.35-6.16,5.86-12.76,9.13-19,5-9.54,11.9-7.72,15.71-.15S356.35,641.62,354.93,648Z"
          style="fill:#cf5b62;"/>
        <path
          d="M521.38,559c-13.13.26-16-4.31-11-15.38,3-6.78,5.7-13.75,9.06-20.37,4.56-9,14.06-8.75,21.83-8.86,4.06-.06,9.65,5.08,11.95,9.29,2.79,5.11-9.56,28.53-15.5,30.81C532,556.63,526,557.74,521.38,559Z"
          style="fill:#cf5b62;"/>
        <path
          d="M1342.64,479.82c-1.59,7.26-2.83,13.68-4.46,20-1.06,4.09-3.68,7.69-8.18,7.3a8.69,8.69,0,0,1-8-9.06c.12-6.39-2.72-10.1-7.1-14.44-10.05-10-3.75-22.32-2.12-33.32,1-6.55,9.91-4.79,11.65-1.5,5,9.43,16.82,14.51,16.95,26.87C1341.42,477.32,1342.38,479,1342.64,479.82Z"
          style="fill:#cf5b62;"/>
        <path
          d="M639.12,612.25c5.51-19.2,14.89-36.81,35.06-46.08,3.89-1.79,11.49-1.43,8,4.83-9.64,17.37-12.89,39.89-35.29,48C639.35,621.7,638.43,621.09,639.12,612.25Z"
          style="fill:#cf5b62;"/>
        <path
          d="M271.22,852.52c-9.41,5.79-14.34-7.95-22.9-4.53-.75-7.9-2.91-16-1.83-23.65,1-6.74,8.55-5.35,13.24-4.21,9.68,2.36,22.42.51,21.26,18.25-.32,4.88,6.31,9-1.64,15C274.65,856.87,273.61,850,271.22,852.52Z"
          style="fill:#cf5b62;"/>
        <path
          d="M726,1051.25c-9.74-3.66-7.54-11.51-4.73-17.68,3.26-7.15,12.31-9.08,17.87-6.71,7,3,18.69,7,10.57,19.61-5.59,5.7-10.58,7.55-17.27.5C727.41,1041.62,726.54,1047.19,726,1051.25Z"
          style="fill:#f3bb03;"/>
        <path
          d="M993.6,615.72c.16,10.57-2.1,19.49-12.55,24.12-5.1,2.26-8.07,1.91-8.55-4.89-.76-10.7,5.29-19.51,7.22-29.44.88-4.51,5.19-4.42,8.63-3.67C997.2,603.79,991.53,611.41,993.6,615.72Z"
          style="fill:#cf5b62;"/>
        <path
          d="M1275.71,388.91c2.66-2.78-6-6.6,1.21-9.11,6.43-2.25,9,2.06,10.9,6.4,3.12,7.13,8.62,13.34,9.16,21.45.26,3.89-.52,8.26-4.56,10-3.88,1.7-4.7-2.74-6.82-4.61C1278.27,406.61,1274.71,398.72,1275.71,388.91Z"
          style="fill:#cf5b62;"/>
        <path
          d="M809.82,997.23c5.51,6.32,5,14.46,6.85,21.93,1,4-.37,5.76-3.48,7.22l-9.53,2c-2.47-3.08-.67-4.9,1.65-6.38,4.92-3.13,8-5.94,2.73-12C804.73,1006.17,805.78,1001,809.82,997.23Z"
          style="fill:#f3bb03;"/>
        <path
          d="M652.77,1026.64c-4.79,3.95-7.79-2.2-11.44-.27-3.65-5.64-2.44-18.51,1.67-23.06,1.27-1.4,1.17-4,1.7-6.09,2.54,2.09,4.61,5.53,3,7.92C642,1014.09,645.83,1020.71,652.77,1026.64Z"
          style="fill:#f3bb03;"/>
        <path
          d="M357.54,852.32c-.63,2.93-2,5.92-1.78,8.79,1.26,17.48-6.83,9.57-13.69,5.2C341.77,855.6,346.71,850.7,357.54,852.32Z"
          style="fill:#cf5b62;"/>
        <path
          d="M418,1018.4a15,15,0,0,0-1.51,2.09h0c-1.48-.77-2.91-1.51-4.4-2.25a9.53,9.53,0,0,0,.66-.87,11.92,11.92,0,0,0,1-1.51c.16-.26.29-.53.42-.79s.26-.56.37-.82a17.57,17.57,0,0,0,1.06-3.42c.13-.58.24-1.17.32-1.77s.13-1.06.19-1.59.13-1.19.16-1.83l.08-1.06c.11-1.8.16-3.6.34-5.4,0-.42.08-.85.13-1.27a6,6,0,0,1,.13-.93c.05-.37.11-.77.19-1.14a17.44,17.44,0,0,1,.93-3.39c.21-.56.45-1.11.72-1.64a1.11,1.11,0,0,1,.11-.27,1.51,1.51,0,0,1,0,.34c-.08,2.12-.66,5.43.05,5.75C436.83,1004.74,424.88,1011.44,418,1018.4Z"
          style="fill:#f3bb03;"/>
        <path
          d="M1038,1020.49c-2.5-2.31-5.51-4.27-7.38-7-3.59-5.25-8.21-11.52,1.91-14.79,5.3-1.71,3.41-4.95,3.14-8.14,4.51,8.68,0,19.56,6.73,27.69Z"
          style="fill:#f3bb03;"/>
        <path d="M302.34,1152.42c3.44-6.33-2.62-18.67,11.52-18.27C317,1148.79,313.19,1154.91,302.34,1152.42Z"
              style="fill:#cf5b62;"/>
        <path
          d="M279.88,1141c-1.35,5.35,1.91,14.35-8.61,14.22l-3.31-2.12c-.48-2.36,9.59-1.14,2-5.69-2.59-1.56-5.38-3.36-2.2-5.35s.4-7.28,4.05-6.65C274.93,1136,280.2,1139.81,279.88,1141Z"
          style="fill:#cf5b62;"/>
        <path
          d="M751.17,1053.86c-1.11,1-2.25,2-3.36,3.07-3.76,1.54-7.86-4.87-11.49.45-1.54.19-3.07.37-4.61.53a10.23,10.23,0,0,0-5.64-6l0-.64c.5-4.05,1.38-9.61,6.43-4.26,6.7,7,11.7,5.19,17.29-.5C751.93,1048.62,751.4,1051.26,751.17,1053.86Z"
          style="fill:#cf5b62;"/>
        <path d="M452,1172.71c-11.43,2.19-8.92-4.29-6.62-10.64C455.68,1160.61,455.72,1165.5,452,1172.71Z"
              style="fill:#cf5b62;"/>
        <path d="M1001.16,1169.84c.37.9.82,1.85,1.32,2.86a0,0,0,0,0,0,0C1002,1171.72,1001.5,1170.74,1001.16,1169.84Z"
              style="fill:#cf5b62;"/>
        <path
          d="M1035.87,990.71c-3.51,3.9-7.32,6.41-9.53-.72-1.23-4-.88-8.43-1.24-12.67C1027.86,982.45,1037.1,982.37,1035.87,990.71Z"
          style="fill:#f3bb03;"/>
        <path d="M405.19,448.45c.65.26,1.29.52,1.93.79a6,6,0,0,1-1.94.78,6.7,6.7,0,0,1-2.08-.63Z"
              style="fill:#cf5b62;"/>
        <path
          d="M503,904.33a10.88,10.88,0,0,1-.37,2.09,2.09,2.09,0,0,1-.61-.05.5.5,0,0,1-.21-.05,1.19,1.19,0,0,1-.19-.11.52.52,0,0,1-.24-.37,2.09,2.09,0,0,1,0-.9,6.78,6.78,0,0,0,.13-.71v0c.13-.08.24-.16.34-.21A.93.93,0,0,1,503,904.33Z"
          style="fill:#cf5b62;"/>
        <path d="M951.85,906.42a8.27,8.27,0,0,1-.37-2.09.92.92,0,0,1,1.46-.11C953,905.2,953.71,906.53,951.85,906.42Z"
              style="fill:#cf5b62;"/>
        <path d="M717.93,1067.42c.05,0,.08,0,.13,0l-.19.19h0C717.88,1067.55,717.93,1067.5,717.93,1067.42Z"
              style="fill:#e56064;"/>
        <path d="M718.3,1065.17a3.88,3.88,0,0,1-.37,2.25c-2.89-.45-2.73-1.75-.9-3.55Z" style="fill:#e56064;"/>
        <path d="M225.58,929.92l.71-1.94c1.95,1.79-.13,1.42-.93,1.73Z" style="fill:#53b5c9;"/>
        <path
          d="M615,2016.95c-6,12.07-5.91,29.9-22.53,36.07-7.73,2.89-11.78,11.41-20.34,14.11-5,1.56-8.74,10.33-14.17.48-.08-.21-5.3,1.83-7.57,3.52-10,7.36-20.87,6.75-30.9,1.93-9.16-4.4-18.64-9.06-27.75-12.87-10.12-4.26-14.17-14.56-15.76-19.41-3.44-10.46-10.35-20.63-9.56-32.23-6.65-18.83,4.08-34.61,8.55-51.32,2.65-10,30.53-28.73,41-30.08,8.55-1.11,16.87-4,25.29-6.12,6.38-1.64,12.55-2.38,14.86,5.83,1.88,6.65,6.75-1.91,9.16,2.14,6.59,11.17,23.43,11.89,26,29.21,1.06,7.28,11,16.18,17,24.28C616.49,1993.67,618.37,2010,615,2016.95Z"
          style="fill:#53b5c9;"/>
        <path d="M515.6,1655.63c.26.32.53.64.77,1l-.79-1Z" style="fill:#cf5b62;"/>
        <path d="M519.55,1662.78a10.3,10.3,0,0,0-.64-2.07A8.84,8.84,0,0,1,519.55,1662.78Z" style="fill:#cf5b62;"/>
        <path
          d="M387.23,1758.69v.11c0,.16,0,.32-.05.48,0,.37-.05.77-.11,1.14a14.38,14.38,0,0,1-.24,1.48,6.27,6.27,0,0,1-.24,1,10.44,10.44,0,0,1-1.06,2.65,7.28,7.28,0,0,1-1.38,1.75,8.46,8.46,0,0,1-2.78,1.83v0c0-.08,0-.16,0-.24A46.51,46.51,0,0,1,382,1764c.05-.19.11-.37.16-.58a6.66,6.66,0,0,1,1.35-2.57,3.35,3.35,0,0,1,.53-.53,7.54,7.54,0,0,1,3.12-1.59Z"
          style="fill:#e56064;"/>
        <path
          d="M392.34,1754.72a6.29,6.29,0,0,1-.29,1,4.34,4.34,0,0,1-2.17,2.49,3.55,3.55,0,0,1-.79.32,7.91,7.91,0,0,1-.85.19,6,6,0,0,1-1,.08.45.45,0,0,1-.19,0l.16-.13h0C388.92,1757.34,390.62,1756,392.34,1754.72Z"
          style="fill:#e56064;"/>
        <path
          d="M969.25,1342.91c10.7-5.24,4.93-13.77,3.63-20.52-1.54-8,3.12-17.77-5.77-24,6.33-6.65,2-9.43-4.1-11.84-1-.37-2.36-2.36-2.09-3.07,4.71-12.39-6.7-11.55-12.45-15.31-6.22-1.91-11.07-7.79-18.77-5.72-2,.53-2.17-3-2.07-5.11l-2.67,1.43c-.87.5-1.75,1-2.59,1.54-1.72,1.06-3.42,2.14-5.08,3.28-10,6.78-19.2,14.8-30.16,20.6-10.19,5.38-23.46,12.13-25.34,27.19,11-5.59,20.84-4.87,28.86,5.24,3.65,4.61,9.43,7.49,13.82,9.29,11.23,4.63,7.31,13.85,7.26,20.36,0,7.52-9,6.73-14.72,7.86-12.71,2.52-24.33-3.79-28.36-15.33-.79-2.28-1.51-1.46-3.1-1.83-8.92-2.07-14.93-7.86-12-17.13,1.48-4.71-7.86-6.57-1.38-10.64-4.77,2-10.22,3.18-14.25,6.22-25.24,19.22-53.28,34.19-79,52.54-10.3,7.33-26.82,7.39-29.92,23.94-1.11,6-2.28,11.65-6.75,16.74-3.58,4.08-1.35,9.29,3.26,12.42,2.89,1.93,6.73,2.78,9.06,5.14,12.9,13.21,29.55,20.92,46,26.74,22.56,8,45.62,18.19,70.94,11.28a3.88,3.88,0,0,1,2.46.79c9.4,5.48,17.87,1.85,25.53-3.5a13.06,13.06,0,0,1,8.21-2.7c11.47.08,19.83-6.28,27.49-13.69,13.32-13,28.2-22.9,36.2-42.66,5.59-13.82,11-29.21,19.22-42.55,2.41-3.89,3.89-9.08-.26-13.43C969.22,1345.37,966.71,1344.13,969.25,1342.91Zm-112.38,35.54c-1.48,3.95-4.1,8.39-9.72,9.88-23.2,6.09-35.16,9.14-46.18-18.77-7.18-18.14-6.88-19.3,11.39-19.83,14.43-1.09,26.29-.13,31.25,14.64,1,3,3.92,3.23,6.09,4.55C853.48,1371.16,858.67,1373.73,856.87,1378.45Z"
          style="fill:#163847;"/>
        <path
          d="M911.71,1346.3c0,7.52-9,6.73-14.72,7.86-12.71,2.52-24.33-3.79-28.36-15.33-.79-2.28-1.51-1.46-3.1-1.83-8.92-2.07-14.93-7.86-12-17.13,1.48-4.71-7.86-6.57-1.38-10.64a0,0,0,0,1,0,0c4.24-3.68,5.77,4.4,9.64,2.2,11-5.59,20.84-4.87,28.86,5.24,3.65,4.61,9.43,7.49,13.82,9.29C915.68,1330.57,911.76,1339.79,911.71,1346.3Z"
          style="fill:#fefefe;"/>
        <path
          d="M318.41,1355.51c-9.29-4.1-12.39-13-15.36-21.4a65.89,65.89,0,0,0-5.72-12.58c14.35-2.78,20.28,2.46,17,15.68C312.56,1344.29,320.9,1348.58,318.41,1355.51Z"
          style="fill:#cf5b62;"/>
        <path
          d="M948.46,1268.19c-6.22-1.91-11.07-7.79-18.77-5.72-2,.53-2.17-3-2.07-5.11.19-.19.4-.37.61-.56,0,0,0,0,0,0a5.82,5.82,0,0,1,1.27-.77,11.32,11.32,0,0,1,5.48-.53,18.42,18.42,0,0,0,3.63,0C949.55,1253.89,952.78,1258.1,948.46,1268.19Z"
          style="fill:#cf5b62;"/>
        <path
          d="M302.26,1303.16a24.8,24.8,0,0,1-1.83,6.65,7.45,7.45,0,0,1-5.61,4c-1.27-5.14-1.77-11.36-9-4.05-6,6.06-6.25-.11-7.39-3.95C285.23,1294.51,294.34,1304.22,302.26,1303.16Z"
          style="fill:#cf5b62;"/>
        <path d="M718.07,1067.44l-.19.19h0c0-.08.08-.13.08-.21S718,1067.44,718.07,1067.44Z" style="fill:#163847;"/>
        <path d="M637.75,1600.21l-7.6,4.42C631.66,1601.4,633.91,1599.39,637.75,1600.21Z" style="fill:#f3bb03;"/>
        <path
          d="M329.74,1352.26c-.26.19-.56.4-.82.61-.29-.11-.61-.24-.93-.34.37-.34.72-.69,1.06-1C329.29,1351.75,329.53,1352,329.74,1352.26Z"
          style="fill:#cf5b62;"/>
        <path
          d="M844.82,1644.09c-.34.64-.66,1.27-1,1.88-.27-.26-.79-.64-.74-.82a8.85,8.85,0,0,1,.93-1.88C844.27,1643.53,844.53,1643.82,844.82,1644.09Z"
          style="fill:#f3bb03;"/>
        <path d="M302.26,1303.16l.61-1.1-.61,1.1Z" style="fill:#cf5b62;"/>
        <path d="M1265.94,1970.61l-2-1.45c.32-.29.82-.9.94-.83a18.19,18.19,0,0,1,2,1.42Z" style="fill:#fefefe;"/>
        <path d="M1348.23,1689.74l1.47,1.24-1,.45-.62-1.6Z" style="fill:#fefefe;"/>
        <path
          d="M269.22,1718.37c-3.42.37-6.83-.73-7.83-3.74-2-6-4.8-8.62-11.46-6.51-2.72.86-6-1.91-3.39-4.6,11.13-11.37,11.24-28.18,21-40.51,4.44-5.64,8.48-15,14.48-10.86,5.67,3.88,14.16,11.69,11.47,21.24-3.76,13.34-9,26.29-14.36,39.13C277.63,1716,273.4,1717.9,269.22,1718.37Z"
          style="fill:#cf5b62;"/>
        <path
          d="M316.74,1495.66c-14.77.36-26.41-15.84-23.06-29.51,2.67-10.89,1.81-22.46,8.1-32.75,2.51-4.1,4.13-4.24,8-3.29,13.42,3.27,19.57,16.61,14.71,29.6-3.5,9.35-9.82,18.77-2.8,29.74C324.68,1494.09,319.64,1494.89,316.74,1495.66Z"
          style="fill:#cf5b62;"/>
        <path
          d="M400.64,1631.14c-4.13,8.73-8.91,18.89-13.79,29-.52,1.07-1.74,1.77-2.51,2.74-2.61,3.33-1.48,11.75-6.94,9.86-4.82-1.67-11.22-5.54-12.65-12.11-1.6-7.33-8.23-15,3.18-21.43,7.82-4.41-1.56-16.24,7.18-22.34,3.48-2.43.91-10.48,8.82-11.07,8.4-.63,9.51,6.67,13.41,10.84C400.54,1620.08,399.42,1625,400.64,1631.14Z"
          style="fill:#cf5b62;"/>
        <path
          d="M175.19,1520.22c-4-.62-11.42,2.25-11.48-2.15-.12-9.47-6.33-22.2,3.21-28.09,11.19-6.91,21.51-17.7,36.9-16.47,2.73.22,4.78-.8,5.89,2.48,5,14.72-4.29,30.55-20.83,33.34-7.46,1.26-12.41,3.39-13.87,11.08Z"
          style="fill:#cf5b62;"/>
        <path
          d="M300,1549.85c-3.41,7-1.92,17.88-12.46,22.55-2.72,1.2-3.09,4.1-4.69,6.05-2,2.47-1.27,9.21-7.68,5.83-4.14-2.18-7.94-6.09-6.58-10.31,2.11-6.58.27-12.68.23-19,0-4.7,17.51-24.22,21.85-23.32C299.91,1533.59,299.19,1541.53,300,1549.85Z"
          style="fill:#cf5b62;"/>
        <path
          d="M193.37,1392.7c-.08,3.94-21.18,19.68-25.38,18.06-10.15-3.9-3.86-14.66-8-21.74-2.82-4.86,12.26-21.89,17.43-21.58C183.22,1367.78,193.54,1384.14,193.37,1392.7Z"
          style="fill:#cf5b62;"/>
        <path
          d="M471.92,1569.17c-.73,3.82-.11,7.92-4.57,9.14-4.61,1.26-7.67-.19-8.43-5.38-.53-3.63-3-6.08-6.45-4.46-16.33,7.71-12.07-7.93-14.43-13.72-2.73-6.69,3-15.31,8.62-14.91,6.85.49,18.67-2.81,20.19,10.82C467.56,1557.08,470.24,1563.28,471.92,1569.17Z"
          style="fill:#cf5b62;"/>
        <path d="M175,1520.41l3.3.79c-1.76,1.93-2.48.58-3.12-1Z" style="fill:#cf5b62;"/>
        <path
          d="M1160.05,1421.29c-7.66-2.38-16.19-4.4-24.15-7.77-3.77-1.6-2.12-6.23-.88-9.48,3.75-9.85,17-16.45,27.84-14,1.71.39,3.79.18,5.11,1.09,5.12,3.57,16.35-1.17,15.7,9.49C1183.08,1410.15,1169.2,1421.3,1160.05,1421.29Z"
          style="fill:#cf5b62;"/>
        <path
          d="M1064,1628.19c12.18-1.34,16.52,5.55,17.2,16.17.18,2.86-1.86,6.39,2.06,7.93,2.91,1.14,6.45,1.47,5,5.78-1.25,3.81-4.72,4.91-8.39,5-3.41.13-7-.59-10.23.08-6,1.22-12.65,7.27-17.37-.63-6.16-10.32-6.18-21.88-.58-32.39C1052.94,1628,1059.8,1628.77,1064,1628.19Z"
          style="fill:#cf5b62;"/>
        <path
          d="M1049.21,1550.18c-.24,5.58-7.81,7.16-11,5.37-11.21-6.29-27-6.29-31.74-22.37-1.5-5.13-3.77-8.71,3-11.35C1024.66,1515.9,1048.58,1531.6,1049.21,1550.18Z"
          style="fill:#cf5b62;"/>
        <path
          d="M956.12,1583.07c-2.65-1.89-4.46-2.16-6.46-.32-5.26,4.87-9.7,6.93-14.32-1.49s-7.7-15.81,1.67-22.78c7.43-5.52,15.17-6.18,22.67-.53,2.31,1.74,3.46,5,5.19,7.52,2.25,3.29,9.47,4.57,6.18,9.87C967.89,1580.44,961.76,1582.51,956.12,1583.07Z"
          style="fill:#cf5b62;"/>
        <path
          d="M1143.64,1525.26c-5.83-2.51-13.88-5.55-21.47-9.46-3-1.53-3.11-6.8-.94-8.12,6.33-3.85,9.86-13.25,19.34-11,9.67,2.27,20.15,3.94,24.4,14.85C1167.73,1518.62,1158.13,1525.43,1143.64,1525.26Z"
          style="fill:#cf5b62;"/>
        <path
          d="M1193.63,1303.4c6,1.83,13.27,3.41,19.92,6.38,3.34,1.49,6.47,8.62,3.29,9.39-9.85,2.41-17.28,13.86-29.39,8-6-2.88-13.84-4.58-11.26-13.24C1178.32,1306.82,1184.6,1303.08,1193.63,1303.4Z"
          style="fill:#cf5b62;"/>
        <path
          d="M1216.53,1451.81c6.31,3.31,14.62,1.4,20,7.87,2.5,3,6.45,5.29,4.85,9.86-1.3,3.71-5.47,5.33-8.58,5-7.76-.71-16.23,3-23.25-3-3.77-3.22-12.29-3.7-10.69-9.71C1200.87,1454.43,1209.78,1454.27,1216.53,1451.81Z"
          style="fill:#cf5b62;"/>
        <path
          d="M800.93,786.78c.3-21.17,13.89-37,35.93-39.56,6.28-.74,5.57-8.44,12.36-7.84,22.88,2,45-8.69,68.07-4.5,3.52.64,9.46-2.91,10.3,4.54.15,1.29,1.46,1.79,3,1.1,12.38-5.49,12.66-4.93,24.9-2.15,10,2.26,20.23,1.37,30.42,5.11,10.79,4,34,18.42,37.95,28.94,3.36,8.91-2.12,14.9-8.86,19.6-10.9,7.6-26.79,5.27-35.37,17.62-6.56-5.42-14.28-.61-21.42-2.51a252.75,252.75,0,0,0-79.69-7.83c-3.53.2-7,.77-9.23,4.16-2.53,3.84-6.69,4.3-10.62,4q-24.66-2.07-49.32-4C803.68,803,800.74,794,800.93,786.78Z"
          style="fill:#163847;"/>
        <path
          d="M866.71,1070.14c3.83-5.52,12.56,1.49,12.82-7.89.12-4.41-2.19-6.58-6-7.31-8.24-1.56-2.63,6.88-6.3,8.72-16.67-9.38-23-23.25-18.18-41,1.48-5.48-2.94-10.21.07-16.45,5.69-11.82,7.53-25.06,24.41-28.37,6.75-1.32,11.5-10.48,19.58-13.23,18.41-6.27,35.19-2.53,52.65,4.72,15.87,6.59,14.12,8.8,25.29,19.72,7.51,7.34,6.29,17.71,14.56,23.14,4.81,3.16.44,7.92.35,12-.66,29.68-14,50.09-41.37,62.88-7.2,3.36-11.48,10-19,2.08-6.16,10.79-14,2.1-21.18,2C888,1090.84,876.43,1082.62,866.71,1070.14Zm82-21.23c-2.59-6.5-6.86-11.79.42-17.24,2-1.48,5.92-11.38-4.94-11.34-.79,0-2.39-2.27-2.26-2.44,7.17-9.31-2.66-13.45-6.29-18.83s-12-6.6-17.26-9.28c-9.7-4.94-19,12.08-32,9.12.79,12-11.18,20.23-8.11,34,2.07,9.3,12.79,10.57,12.76,20.27,0,5.83,4,9.78,11.27,8.27,4.92-1,10.82-2.43,15-.68,9.48,3.91,15.22-1.63,18.8-7.54C939.39,1048,943.27,1048.8,948.72,1048.91Z"
          style="fill:#fefefe;"/>
        <path
          d="M606.43,1020.89c-3.23-20.15-7.31-34.66-26.56-45.49-17.29-9.74-33.18-18.22-53.22-12.13-12.21,3.71-25.18,3.5-36,13.82-5.4,5.19-3.6,11.94-8.69,15.7s-13.48,23-14.06,28.17c-2.36,20.36,10,35.46,17.69,52.22-1.72,4.9-9.21-.37-10.19,5.8,5.45,4.79,10.8,8.5,14.54-1.7,9.37.11,17.32,6.78,22.75,11.47,5.88,5.08,8.08,5.85,13.27,1.91,4.16-3.15,9.16-10.22,7.94,2.75-.24,2.65,3.44,3,5.22,2.14,13.48-6.57,30.35-4.9,41.41-17.29,2.67-3,5.08-6.86,10.06-6.36.77-7.94.48-16.44,10.54-19.28C602,1042,608.52,1033.89,606.43,1020.89Zm-32.91,16.44c-7.78,10.17-11.2,23.25-21.63,31.51-1-1.19-1.93-2.36-2.91-3.55-.05-9.61-8.13-.56-10.59-4.55-5.9,6.25-14,1.72-20.47,4.13-4.53,1.67-6.81-.34-5.72-3.5,4.34-12.5-2.25-21.71-7.49-31.75-.93-1.8-4.82-9.45,4.08-9.06,1.72.08,4.69-1.22,3.73-2.38-8.13-10.12,4.1-13.72,7.07-19.33,2.78-5.27,13.05-3.34,18.14-9.85,1.19-1.54,8.92,3,13.53,5.32,3.47,1.75,6.88,10.7,13,2.83.21-.24,4.08,1.38,4.08,2.12C568.19,1012.31,583.92,1023.67,573.51,1037.34Z"
          style="fill:#fefefe;"/>
        <path
          d="M812.37,1349.71c14.44-1.09,26.28-.13,31.25,14.64,1,3,3.92,3.24,6.09,4.55,3.77,2.27,9,4.84,7.16,9.56-1.49,3.93-4.11,8.39-9.71,9.86-23.2,6.09-35.16,9.14-46.19-18.78C793.81,1351.41,794.1,1350.24,812.37,1349.71Z"
          style="fill:#fefefe;"/>
        <path
          d="M948.72,1048.91c-5.45-.12-9.33-1-12.55,4.35-3.57,5.91-9.32,11.45-18.8,7.54-4.23-1.75-10.12-.33-15,.68-7.3,1.51-11.29-2.44-11.27-8.27,0-9.7-10.7-11-12.76-20.27-3.07-13.81,8.9-22.06,8.11-34,13,3,22.29-14.07,32-9.12,5.26,2.68,13.54,3.78,17.26,9.28s13.46,9.52,6.29,18.83c-.13.17,1.47,2.44,2.26,2.44,10.86,0,6.92,9.86,4.94,11.34C941.85,1037.12,946.13,1042.41,948.72,1048.91Z"
          style="fill:#163847;"/>
        <path
          d="M573.51,1037.34c-7.78,10.17-11.2,23.25-21.63,31.51-1-1.19-1.93-2.36-2.91-3.55-.05-9.61-8.13-.56-10.59-4.55-5.9,6.25-14,1.72-20.47,4.13-4.53,1.67-6.81-.34-5.72-3.5,4.34-12.5-2.25-21.71-7.49-31.75-.93-1.8-4.82-9.45,4.08-9.06,1.72.08,4.69-1.22,3.73-2.38-8.13-10.12,4.1-13.72,7.07-19.33,2.78-5.27,13.05-3.34,18.14-9.85,1.19-1.54,8.92,3,13.53,5.32,3.47,1.75,6.88,10.7,13,2.83.21-.24,4.08,1.38,4.08,2.12C568.19,1012.31,583.92,1023.67,573.51,1037.34Z"
          style="fill:#163847;"/>
      </g>
    </g>
  </g>
</svg>
