<svg height="64px" viewBox="0 0 64 64" width="64px" xmlns="http://www.w3.org/2000/svg">
  <linearGradient gradientUnits="userSpaceOnUse" id="CgPoTRD02K0s~sDU3U2oqa" spreadMethod="reflect" x1="22.5" x2="22.5"
                  y1="27.431" y2="42.99">
    <stop offset="0" stop-color="#6dc7ff"/>
    <stop offset="1" stop-color="#e6abff"/>
  </linearGradient>
  <path d="M26,29v13c-3.866,0-7-3.134-7-7s3.134-6.75,7-6.75" fill="url(#CgPoTRD02K0s~sDU3U2oqa)"/>
  <linearGradient gradientUnits="userSpaceOnUse" id="CgPoTRD02K0s~sDU3U2oqb" spreadMethod="reflect" x1="32" x2="32"
                  y1="11.5" y2="52.599">
    <stop offset="0" stop-color="#1a6dff"/>
    <stop offset="1" stop-color="#c822ff"/>
  </linearGradient>
  <path
    d="M58,32h-9v-9c0-2.757-2.243-5-5-5h-1c0-1.103-0.897-2-2-2h-2c-1.103,0-2,0.897-2,2h-2.279 l-1.316-3.949C32.995,12.824,31.852,12,30.559,12h-9.117c-1.293,0-2.437,0.824-2.846,2.051L17.279,18H15c0-1.103-0.897-2-2-2h-2 c-1.103,0-2,0.897-2,2H8c-2.757,0-5,2.243-5,5v24c0,2.757,2.243,5,5,5h30h20c1.654,0,3-1.346,3-3V35C61,33.346,59.654,32,58,32z M59,35v4.586l-7.052,7.052l-4.892-4.193c-1.182-1.015-2.97-0.946-4.071,0.156L37,48.586V35c0-0.551,0.448-1,1-1h20 C58.552,34,59,34.449,59,35z M48.586,50H38.414l5.984-5.985c0.367-0.367,0.962-0.389,1.355-0.052l4.776,4.093L48.586,50z M20.492,14.684C20.629,14.275,21.011,14,21.441,14h9.117c0.431,0,0.813,0.275,0.949,0.684L32.613,18H19.387L20.492,14.684z M5,47 v-5h4v-2H5v-2h4v-2H5v-2h4v-2H5v-2h4v-2H5v-5c0-1.654,1.346-3,3-3h5h5.721h14.559H40h4c1.654,0,3,1.346,3,3v9h-9 c-0.484,0-0.936,0.126-1.341,0.331C35.461,27.553,31.143,24,26,24c-6.065,0-11,4.935-11,11s4.935,11,11,11 c3.72,0,7.008-1.861,9-4.695V49c0,0.352,0.072,0.686,0.184,1H8C6.346,50,5,48.654,5,47z M35,35c0,4.962-4.037,9-9,9s-9-4.038-9-9 s4.037-9,9-9S35,30.038,35,35z M58,50h-6.586L59,42.414V49C59,49.551,58.552,50,58,50z"
    fill="url(#CgPoTRD02K0s~sDU3U2oqb)"/>
  <linearGradient gradientUnits="userSpaceOnUse" id="CgPoTRD02K0s~sDU3U2oqc" spreadMethod="reflect" x1="53" x2="53"
                  y1="11.5" y2="52.599">
    <stop offset="0" stop-color="#1a6dff"/>
    <stop offset="1" stop-color="#c822ff"/>
  </linearGradient>
  <path d="M51 37H55V39H51z" fill="url(#CgPoTRD02K0s~sDU3U2oqc)"/>
  <linearGradient gradientUnits="userSpaceOnUse" id="CgPoTRD02K0s~sDU3U2oqd" spreadMethod="reflect" x1="10" x2="10"
                  y1="11.5" y2="52.599">
    <stop offset="0" stop-color="#1a6dff"/>
    <stop offset="1" stop-color="#c822ff"/>
  </linearGradient>
  <path d="M11,22H9c-1.103,0-2,0.897-2,2s0.897,2,2,2h2c1.103,0,2-0.897,2-2S12.103,22,11,22z"
        fill="url(#CgPoTRD02K0s~sDU3U2oqd)"/>
  <linearGradient gradientUnits="userSpaceOnUse" id="CgPoTRD02K0s~sDU3U2oqe" spreadMethod="reflect" x1="42" x2="42"
                  y1="11.5" y2="52.599">
    <stop offset="0" stop-color="#1a6dff"/>
    <stop offset="1" stop-color="#c822ff"/>
  </linearGradient>
  <path d="M41,26h2c1.103,0,2-0.897,2-2s-0.897-2-2-2h-2c-1.103,0-2,0.897-2,2S39.897,26,41,26z"
        fill="url(#CgPoTRD02K0s~sDU3U2oqe)"/>
</svg>
