<?xml version="1.0" encoding="UTF-8"?>
<svg height="64pt" version="1.1" viewBox="0 0 64 64" width="64pt" xmlns="http://www.w3.org/2000/svg">
  <defs>
    <linearGradient gradientTransform="matrix(0.372093,0,0,0.372093,0,0)" gradientUnits="userSpaceOnUse" id="linear0"
                    x1="44.82213" x2="44.82213" y1="98.16363" y2="152.91875">
      <stop offset="0" style="stop-color:rgb(98.823529%,95.294118%,99.215686%);stop-opacity:1;"/>
      <stop offset="1" style="stop-color:rgb(43.137255%,85.490196%,98.823529%);stop-opacity:1;"/>
    </linearGradient>
    <linearGradient gradientTransform="matrix(0.372093,0,0,0.372093,0,0)" gradientUnits="userSpaceOnUse" id="linear1"
                    x1="85.97313" x2="85.97313" y1="16.16531" y2="155.86694">
      <stop offset="0" style="stop-color:rgb(87.843137%,56.470588%,94.117647%);stop-opacity:1;"/>
      <stop offset="1" style="stop-color:rgb(1.960784%,74.117647%,96.078431%);stop-opacity:1;"/>
    </linearGradient>
    <linearGradient gradientTransform="matrix(0.372093,0,0,0.372093,0,0)" gradientUnits="userSpaceOnUse" id="linear2"
                    x1="80.62502" x2="80.62278" y1="61.35483" y2="81.02914">
      <stop offset="0" style="stop-color:rgb(98.823529%,95.294118%,99.215686%);stop-opacity:1;"/>
      <stop offset="1" style="stop-color:rgb(43.137255%,85.490196%,98.823529%);stop-opacity:1;"/>
    </linearGradient>
  </defs>
  <g id="surface2312123">
    <path
      d="M 9.625 37 L 26.375 54 L 24.875 55.5 C 23.566406 56.808594 21.4375 56.808594 20.128906 55.5 L 7.964844 43.335938 C 6.632812 42.003906 6.65625 39.835938 8.019531 38.53125 Z M 9.625 37 "
      style=" stroke:none;fill-rule:nonzero;fill:url(#linear0);"/>
    <path
      d="M 19.707031 32.335938 L 31.34375 44.3125 L 29.90625 45.707031 L 18.269531 33.726562 Z M 15.269531 36.726562 L 26.90625 48.707031 L 28.34375 47.3125 L 16.707031 35.335938 Z M 54.851562 27.5625 L 54.085938 28.328125 C 54.054688 28.375 54.039062 28.425781 54 28.464844 L 25.765625 56.699219 C 24.898438 57.566406 23.761719 57.996094 22.628906 57.996094 C 21.488281 57.996094 20.355469 57.566406 19.488281 56.699219 L 7.300781 44.148438 C 6.460938 43.3125 6 42.199219 6 41.011719 C 6 39.828125 6.460938 38.714844 7.300781 37.875 L 27 18.296875 C 27.863281 17.433594 29 17 30.136719 17 C 31.273438 17 32.410156 17.433594 33.273438 18.296875 L 39 24 C 40.316406 25.316406 42.132812 26 44 26 C 44.792969 26 45.59375 25.984375 46.878906 24.988281 L 48.679688 23.1875 C 50.390625 21.480469 50.390625 18.703125 48.679688 16.992188 L 47.007812 15.320312 C 46.179688 14.492188 45.132812 14.078125 44.085938 14.078125 C 43.039062 14.078125 41.992188 14.492188 41.164062 15.320312 L 40.53125 15.917969 C 39.789062 16.640625 38.820312 17 37.851562 17 C 36.863281 17 35.875 16.625 35.128906 15.878906 C 34.398438 15.152344 34 14.183594 34 13.15625 C 34 12.128906 34.398438 11.160156 35.128906 10.433594 L 36.4375 9.148438 C 38.460938 7.125 41.144531 6.015625 44 6.015625 C 46.855469 6.015625 49.542969 7.125 51.5625 9.148438 L 54.851562 12.4375 C 59.019531 16.609375 59.019531 23.390625 54.851562 27.5625 Z M 25.210938 54.425781 L 9.570312 38.441406 L 8.710938 39.292969 C 8.253906 39.75 8 40.363281 8 41.011719 C 8 41.664062 8.253906 42.273438 8.714844 42.734375 L 20.921875 55.304688 C 21.359375 55.742188 21.972656 55.996094 22.625 55.996094 C 23.277344 55.996094 23.890625 55.746094 24.347656 55.285156 Z M 53.4375 13.851562 L 50.148438 10.5625 C 48.503906 8.917969 46.320312 8.015625 44 8.015625 C 41.679688 8.015625 39.496094 8.917969 37.855469 10.5625 L 36.527344 11.863281 C 36.1875 12.203125 36 12.65625 36 13.15625 C 36 13.65625 36.1875 14.109375 36.539062 14.464844 C 36.886719 14.808594 37.351562 15 37.851562 15 C 38.335938 15 38.792969 14.816406 39.136719 14.484375 L 39.773438 13.882812 C 40.949219 12.71875 42.480469 12.078125 44.085938 12.078125 C 45.703125 12.078125 47.242188 12.726562 48.421875 13.90625 L 50.09375 15.578125 C 52.582031 18.066406 52.582031 22.117188 50.09375 24.605469 L 48.203125 26.496094 L 48.101562 26.574219 C 46.394531 27.890625 45.140625 28 44 28 C 41.53125 28 39.253906 27.082031 37.585938 25.414062 L 31.863281 19.714844 C 31.402344 19.253906 30.789062 19 30.136719 19 C 29.484375 19 28.871094 19.253906 28.414062 19.710938 L 10.988281 37.03125 L 26.625 53.011719 L 52.433594 27.199219 C 52.4375 27.195312 52.4375 27.195312 52.441406 27.191406 L 52.542969 27.042969 L 52.671875 26.914062 L 53.4375 26.144531 C 56.828125 22.757812 56.828125 17.242188 53.4375 13.851562 Z M 53.4375 13.851562 "
      style=" stroke:none;fill-rule:nonzero;fill:url(#linear1);"/>
    <path
      d="M 22 30 L 28.152344 23.816406 C 29.238281 22.726562 31.003906 22.726562 32.089844 23.816406 L 38 30 Z M 22 30 "
      style=" stroke:none;fill-rule:nonzero;fill:url(#linear2);"/>
  </g>
</svg>
