<?xml version="1.0" encoding="UTF-8"?>
<svg height="64pt" version="1.1" viewBox="0 0 64 64" width="64pt" xmlns="http://www.w3.org/2000/svg">
  <defs>
    <linearGradient gradientTransform="matrix(0.372093,0,0,0.372093,0,0)" gradientUnits="userSpaceOnUse" id="linear0"
                    x1="72.5625" x2="72.5625" y1="27.04431" y2="145.29431">
      <stop offset="0" style="stop-color:rgb(87.843137%,56.470588%,94.117647%);stop-opacity:1;"/>
      <stop offset="1" style="stop-color:rgb(1.960784%,74.117647%,96.078431%);stop-opacity:1;"/>
    </linearGradient>
    <linearGradient gradientTransform="matrix(0.372093,0,0,0.372093,0,0)" gradientUnits="userSpaceOnUse" id="linear1"
                    x1="126.3125" x2="126.3125" y1="33.25781" y2="59.16263">
      <stop offset="0" style="stop-color:rgb(98.823529%,95.294118%,99.215686%);stop-opacity:1;"/>
      <stop offset="1" style="stop-color:rgb(43.137255%,85.490196%,98.823529%);stop-opacity:1;"/>
    </linearGradient>
    <linearGradient gradientTransform="matrix(0.372093,0,0,0.372093,0,0)" gradientUnits="userSpaceOnUse" id="linear2"
                    x1="126.3125" x2="126.3125" y1="27.04431" y2="145.29431">
      <stop offset="0" style="stop-color:rgb(87.843137%,56.470588%,94.117647%);stop-opacity:1;"/>
      <stop offset="1" style="stop-color:rgb(1.960784%,74.117647%,96.078431%);stop-opacity:1;"/>
    </linearGradient>
    <linearGradient gradientTransform="matrix(0.372093,0,0,0.372093,0,0)" gradientUnits="userSpaceOnUse" id="linear3"
                    x1="45.6875" x2="45.6875" y1="27.04431" y2="145.29431">
      <stop offset="0" style="stop-color:rgb(87.843137%,56.470588%,94.117647%);stop-opacity:1;"/>
      <stop offset="1" style="stop-color:rgb(1.960784%,74.117647%,96.078431%);stop-opacity:1;"/>
    </linearGradient>
    <linearGradient gradientTransform="matrix(0.372093,0,0,0.372093,0,0)" gradientUnits="userSpaceOnUse" id="linear4"
                    x1="45.6875" x2="45.6875" y1="27.04431" y2="145.29431">
      <stop offset="0" style="stop-color:rgb(87.843137%,56.470588%,94.117647%);stop-opacity:1;"/>
      <stop offset="1" style="stop-color:rgb(1.960784%,74.117647%,96.078431%);stop-opacity:1;"/>
    </linearGradient>
    <linearGradient gradientTransform="matrix(0.372093,0,0,0.372093,0,0)" gradientUnits="userSpaceOnUse" id="linear5"
                    x1="126.3125" x2="126.3125" y1="27.04431" y2="145.29431">
      <stop offset="0" style="stop-color:rgb(87.843137%,56.470588%,94.117647%);stop-opacity:1;"/>
      <stop offset="1" style="stop-color:rgb(1.960784%,74.117647%,96.078431%);stop-opacity:1;"/>
    </linearGradient>
    <linearGradient gradientTransform="matrix(0.372093,0,0,0.372093,0,0)" gradientUnits="userSpaceOnUse" id="linear6"
                    x1="126.3125" x2="126.3125" y1="27.04431" y2="145.29431">
      <stop offset="0" style="stop-color:rgb(87.843137%,56.470588%,94.117647%);stop-opacity:1;"/>
      <stop offset="1" style="stop-color:rgb(1.960784%,74.117647%,96.078431%);stop-opacity:1;"/>
    </linearGradient>
    <linearGradient gradientTransform="matrix(0.372093,0,0,0.372093,0,0)" gradientUnits="userSpaceOnUse" id="linear7"
                    x1="72.5625" x2="72.5625" y1="27.04431" y2="145.29431">
      <stop offset="0" style="stop-color:rgb(87.843137%,56.470588%,94.117647%);stop-opacity:1;"/>
      <stop offset="1" style="stop-color:rgb(1.960784%,74.117647%,96.078431%);stop-opacity:1;"/>
    </linearGradient>
    <linearGradient gradientTransform="matrix(0.372093,0,0,0.372093,0,0)" gradientUnits="userSpaceOnUse" id="linear8"
                    x1="99.4375" x2="99.4375" y1="27.04431" y2="145.29431">
      <stop offset="0" style="stop-color:rgb(87.843137%,56.470588%,94.117647%);stop-opacity:1;"/>
      <stop offset="1" style="stop-color:rgb(1.960784%,74.117647%,96.078431%);stop-opacity:1;"/>
    </linearGradient>
    <linearGradient gradientTransform="matrix(0.372093,0,0,0.372093,0,0)" gradientUnits="userSpaceOnUse" id="linear9"
                    x1="86" x2="86" y1="27.04431" y2="145.29431">
      <stop offset="0" style="stop-color:rgb(87.843137%,56.470588%,94.117647%);stop-opacity:1;"/>
      <stop offset="1" style="stop-color:rgb(1.960784%,74.117647%,96.078431%);stop-opacity:1;"/>
    </linearGradient>
  </defs>
  <g id="surface2343837">
    <path d="M 26 11 L 28 11 L 28 20 L 26 20 Z M 26 11 " style=" stroke:none;fill-rule:nonzero;fill:url(#linear0);"/>
    <path
      d="M 47 13 C 44.789062 13 43 14.789062 43 17 C 43 19.210938 44.789062 21 47 21 C 49.210938 21 51 19.210938 51 17 C 51 14.789062 49.210938 13 47 13 Z M 47 13 "
      style=" stroke:none;fill-rule:nonzero;fill:url(#linear1);"/>
    <path
      d="M 48 35 L 46 35 C 46 33.8125 44.261719 32.074219 42.421875 30.234375 C 39.113281 26.929688 35 22.8125 35 17 C 35 10.382812 40.382812 5 47 5 C 53.617188 5 59 10.382812 59 17 C 59 22.8125 54.886719 26.929688 51.578125 30.234375 C 49.738281 32.074219 48 33.8125 48 35 Z M 47 7 C 41.484375 7 37 11.484375 37 17 C 37 21.984375 40.789062 25.777344 43.835938 28.820312 C 45.109375 30.097656 46.242188 31.226562 47 32.316406 C 47.757812 31.226562 48.890625 30.097656 50.164062 28.820312 C 53.210938 25.777344 57 21.984375 57 17 C 57 11.484375 52.515625 7 47 7 Z M 47 7 "
      style=" stroke:none;fill-rule:nonzero;fill:url(#linear2);"/>
    <path d="M 16 16 L 18 16 L 18 41 L 16 41 Z M 16 16 " style=" stroke:none;fill-rule:nonzero;fill:url(#linear3);"/>
    <path d="M 16 45 L 18 45 L 18 53.125 L 16 53.125 Z M 16 45 "
          style=" stroke:none;fill-rule:nonzero;fill:url(#linear4);"/>
    <path d="M 46 42 L 48 42 L 48 48 L 46 48 Z M 46 42 " style=" stroke:none;fill-rule:nonzero;fill:url(#linear5);"/>
    <path d="M 46 34 L 48 34 L 48 37 L 46 37 Z M 46 34 " style=" stroke:none;fill-rule:nonzero;fill:url(#linear6);"/>
    <path d="M 26 34 L 28 34 L 28 48 L 26 48 Z M 26 34 " style=" stroke:none;fill-rule:nonzero;fill:url(#linear7);"/>
    <path d="M 36 44 L 38 44 L 38 53.125 L 36 53.125 Z M 36 44 "
          style=" stroke:none;fill-rule:nonzero;fill:url(#linear8);"/>
    <path
      d="M 37.015625 54 C 36.011719 54 34.996094 53.703125 34.136719 53.101562 L 27.59375 49.207031 C 27.191406 48.929688 26.726562 48.929688 26.382812 49.167969 L 19.8125 53.136719 C 18.152344 54.292969 15.847656 54.296875 14.136719 53.101562 L 7.359375 49.011719 C 6.5 48.414062 6 47.472656 6 46.5 L 6 12 C 6 11.265625 6.382812 10.566406 7.03125 10.226562 C 7.699219 9.878906 8.503906 9.933594 9.125 10.367188 L 16.339844 14.78125 C 16.738281 15.058594 17.199219 15.058594 17.542969 14.816406 L 24.195312 10.859375 C 25.847656 9.707031 28.148438 9.707031 29.863281 10.898438 L 36.363281 14.753906 L 35.34375 16.472656 L 28.78125 12.582031 C 27.691406 11.824219 26.308594 11.824219 25.277344 12.542969 L 18.625 16.5 C 17.65625 17.175781 16.277344 17.175781 15.25 16.460938 L 8 12 L 8 46.5 C 8.015625 46.828125 8.179688 47.148438 8.445312 47.335938 L 15.222656 51.425781 C 16.304688 52.175781 17.691406 52.179688 18.722656 51.460938 L 25.292969 47.492188 C 26.265625 46.8125 27.644531 46.8125 28.671875 47.527344 L 35.21875 51.421875 C 36.304688 52.175781 37.691406 52.179688 38.722656 51.460938 L 45.316406 47.488281 C 46.285156 46.8125 47.667969 46.8125 48.695312 47.527344 L 56 52.125 L 56 21.625 L 58 21.625 L 58 52 C 58 52.734375 57.597656 53.402344 56.945312 53.738281 C 56.277344 54.089844 55.476562 54.035156 54.855469 53.601562 L 52.601562 52.210938 L 47.609375 49.203125 C 47.210938 48.929688 46.746094 48.925781 46.402344 49.167969 L 39.808594 53.136719 C 38.988281 53.710938 38.007812 54 37.015625 54 Z M 37.015625 54 "
      style=" stroke:none;fill-rule:nonzero;fill:url(#linear9);"/>
  </g>
</svg>
