<?xml version="1.0" encoding="UTF-8"?>
<svg height="64pt" version="1.1" viewBox="0 0 64 64" width="64pt" xmlns="http://www.w3.org/2000/svg">
  <defs>
    <linearGradient gradientTransform="matrix(0.372093,0,0,0.372093,0,0)" gradientUnits="userSpaceOnUse" id="linear0"
                    x1="138.40625" x2="138.40625" y1="74.12931" y2="98.35444">
      <stop offset="0" style="stop-color:rgb(98.823529%,95.294118%,99.215686%);stop-opacity:1;"/>
      <stop offset="1" style="stop-color:rgb(43.137255%,85.490196%,98.823529%);stop-opacity:1;"/>
    </linearGradient>
    <linearGradient gradientTransform="matrix(0.372093,0,0,0.372093,0,0)" gradientUnits="userSpaceOnUse" id="linear1"
                    x1="86" x2="86" y1="15.67619" y2="159.48431">
      <stop offset="0" style="stop-color:rgb(87.843137%,56.470588%,94.117647%);stop-opacity:1;"/>
      <stop offset="1" style="stop-color:rgb(1.960784%,74.117647%,96.078431%);stop-opacity:1;"/>
    </linearGradient>
    <linearGradient gradientTransform="matrix(0.372093,0,0,0.372093,0,0)" gradientUnits="userSpaceOnUse" id="linear2"
                    x1="69.875" x2="69.875" y1="15.67619" y2="159.48431">
      <stop offset="0" style="stop-color:rgb(87.843137%,56.470588%,94.117647%);stop-opacity:1;"/>
      <stop offset="1" style="stop-color:rgb(1.960784%,74.117647%,96.078431%);stop-opacity:1;"/>
    </linearGradient>
  </defs>
  <g id="surface2343263">
    <path d="M 50 36 C 52.210938 36 54 34.210938 54 32 C 54 29.789062 52.210938 28 50 28 L 49 28 L 49 36 Z M 50 36 "
          style=" stroke:none;fill-rule:nonzero;fill:url(#linear0);"/>
    <path
      d="M 55 52 C 55 53.652344 53.652344 55 52 55 C 50.347656 55 49 53.652344 49 52 L 49 40 L 50 40 C 54.410156 40 58 36.410156 58 32 C 58 27.589844 54.410156 24 50 24 L 49 24 L 49 12 C 49 10.347656 50.347656 9 52 9 C 53.652344 9 55 10.347656 55 12 L 55 23 L 57 23 L 57 12 C 57 9.242188 54.757812 7 52 7 C 49.152344 7 46.476562 8.109375 44.464844 10.121094 L 35.464844 19.121094 C 34.90625 19.679688 34.132812 20 33.34375 20 L 16.816406 20 C 16.402344 18.839844 15.300781 18 14 18 C 12.347656 18 11 19.347656 11 21 L 11 27 L 9 27 C 7.347656 27 6 28.347656 6 30 L 6 34 C 6 35.652344 7.347656 37 9 37 L 11 37 L 11 43 C 11 44.652344 12.347656 46 14 46 C 15.300781 46 16.402344 45.160156 16.816406 44 L 18 44 C 18.550781 44 19 44.449219 19 45 L 19 54 C 19 55.652344 20.347656 57 22 57 L 25 57 C 26.652344 57 28 55.652344 28 54 L 28 45 C 28 44.449219 28.449219 44 29 44 L 33.34375 44 C 34.132812 44 34.90625 44.320312 35.464844 44.878906 L 44.464844 53.878906 C 46.476562 55.890625 49.152344 57 52 57 C 54.757812 57 57 54.757812 57 52 L 57 41 L 55 41 Z M 50 26 C 53.308594 26 56 28.691406 56 32 C 56 35.308594 53.308594 38 50 38 L 49 38 L 49 26 Z M 9 35 C 8.449219 35 8 34.550781 8 34 L 8 30 C 8 29.449219 8.449219 29 9 29 L 11 29 L 11 35 Z M 15 43 C 15 43.550781 14.550781 44 14 44 C 13.449219 44 13 43.550781 13 43 L 13 21 C 13 20.449219 13.449219 20 14 20 C 14.550781 20 15 20.449219 15 21 Z M 25 55 L 22 55 C 21.449219 55 21 54.550781 21 54 L 21 48 L 26 48 L 26 54 C 26 54.550781 25.550781 55 25 55 Z M 26 45 L 26 46 L 21 46 L 21 45 C 21 44.648438 20.929688 44.3125 20.816406 44 L 26.183594 44 C 26.070312 44.3125 26 44.648438 26 45 Z M 36.878906 43.464844 C 35.933594 42.519531 34.679688 42 33.34375 42 L 17 42 L 17 22 L 33.34375 22 C 34.679688 22 35.933594 21.480469 36.878906 20.535156 L 45.878906 11.535156 C 46.3125 11.101562 46.785156 10.722656 47.289062 10.398438 C 47.113281 10.902344 47 11.4375 47 12 L 47 52 C 47 52.5625 47.113281 53.097656 47.285156 53.601562 C 46.785156 53.277344 46.3125 52.898438 45.878906 52.464844 Z M 36.878906 43.464844 "
      style=" stroke:none;fill-rule:nonzero;fill:url(#linear1);"/>
    <path
      d="M 28.984375 29 L 23.015625 29 C 21.902344 29 21 29.902344 21 31.015625 L 21 32.984375 C 21 34.097656 21.902344 35 23.015625 35 L 28.984375 35 C 30.097656 35 31 34.097656 31 32.984375 L 31 31.015625 C 31 29.902344 30.097656 29 28.984375 29 Z M 23 32.984375 L 23.015625 31 L 25 31.003906 L 25 32.988281 Z M 29 32.984375 L 28.984375 33 L 27 32.996094 L 27 31.011719 L 29 31.015625 Z M 29 32.984375 "
      style=" stroke:none;fill-rule:nonzero;fill:url(#linear2);"/>
  </g>
</svg>
