<?xml version="1.0" encoding="UTF-8"?>
<svg height="64pt" version="1.1" viewBox="0 0 64 64" width="64pt" xmlns="http://www.w3.org/2000/svg">
  <defs>
    <linearGradient gradientTransform="matrix(0.372093,0,0,0.372093,0,0)" gradientUnits="userSpaceOnUse" id="linear0"
                    x1="95.80131" x2="95.80131" y1="131.00219" y2="143.93713">
      <stop offset="0" style="stop-color:rgb(98.823529%,95.294118%,99.215686%);stop-opacity:1;"/>
      <stop offset="1" style="stop-color:rgb(43.137255%,85.490196%,98.823529%);stop-opacity:1;"/>
    </linearGradient>
    <linearGradient gradientTransform="matrix(0.372093,0,0,0.372093,0,0)" gradientUnits="userSpaceOnUse" id="linear1"
                    x1="106.13744" x2="106.13744" y1="56.66594" y2="64.11031">
      <stop offset="0" style="stop-color:rgb(98.823529%,95.294118%,99.215686%);stop-opacity:1;"/>
      <stop offset="1" style="stop-color:rgb(43.137255%,85.490196%,98.823529%);stop-opacity:1;"/>
    </linearGradient>
    <linearGradient gradientTransform="matrix(0.372093,0,0,0.372093,0,0)" gradientUnits="userSpaceOnUse" id="linear2"
                    x1="73.77725" x2="73.77725" y1="56.15262" y2="64.22319">
      <stop offset="0" style="stop-color:rgb(98.823529%,95.294118%,99.215686%);stop-opacity:1;"/>
      <stop offset="1" style="stop-color:rgb(43.137255%,85.490196%,98.823529%);stop-opacity:1;"/>
    </linearGradient>
    <linearGradient gradientTransform="matrix(0.372093,0,0,0.372093,0,0)" gradientUnits="userSpaceOnUse" id="linear3"
                    x1="85.94625" x2="85.94625" y1="19.1565" y2="142.32463">
      <stop offset="0" style="stop-color:rgb(87.843137%,56.470588%,94.117647%);stop-opacity:1;"/>
      <stop offset="1" style="stop-color:rgb(1.960784%,74.117647%,96.078431%);stop-opacity:1;"/>
    </linearGradient>
    <linearGradient gradientUnits="userSpaceOnUse" id="linear4" x1="96.69894" x2="96.69894" y1="19.1565" y2="142.32463">
      <stop offset="0" style="stop-color:rgb(87.843137%,56.470588%,94.117647%);stop-opacity:1;"/>
      <stop offset="1" style="stop-color:rgb(1.960784%,74.117647%,96.078431%);stop-opacity:1;"/>
    </linearGradient>
    <linearGradient gradientTransform="matrix(0.372093,0,0,0.372093,0,0)" gradientUnits="userSpaceOnUse" id="linear5"
                    x1="86.043" x2="86.043" y1="19.1565" y2="142.32463">
      <stop offset="0" style="stop-color:rgb(87.843137%,56.470588%,94.117647%);stop-opacity:1;"/>
      <stop offset="1" style="stop-color:rgb(1.960784%,74.117647%,96.078431%);stop-opacity:1;"/>
    </linearGradient>
    <linearGradient gradientTransform="matrix(0.372093,0,0,0.372093,0,0)" gradientUnits="userSpaceOnUse" id="linear6"
                    x1="94.0625" x2="94.0625" y1="19.1565" y2="142.32463">
      <stop offset="0" style="stop-color:rgb(87.843137%,56.470588%,94.117647%);stop-opacity:1;"/>
      <stop offset="1" style="stop-color:rgb(1.960784%,74.117647%,96.078431%);stop-opacity:1;"/>
    </linearGradient>
  </defs>
  <g id="surface2324103">
    <path
      d="M 31.796875 51.601562 L 28 43.210938 L 34.863281 47.449219 L 39.714844 46.0625 L 43.292969 41 L 38.496094 51.601562 C 37.191406 54.480469 33.101562 54.480469 31.796875 51.601562 Z M 31.796875 51.601562 "
      style=" stroke:none;fill-rule:nonzero;fill:url(#linear0);"/>
    <path
      d="M 39.492188 21.011719 C 38.683594 21.011719 38.027344 21.664062 38.027344 22.472656 C 38.027344 23.28125 38.683594 23.9375 39.492188 23.941406 C 40.300781 23.941406 40.957031 23.285156 40.957031 22.476562 C 40.957031 21.667969 40.304688 21.011719 39.492188 21.011719 Z M 39.492188 21.011719 "
      style=" stroke:none;fill-rule:nonzero;fill:url(#linear1);"/>
    <path
      d="M 27.453125 21.011719 C 26.644531 21.011719 25.988281 21.664062 25.988281 22.472656 C 25.988281 23.28125 26.640625 23.9375 27.449219 23.941406 L 27.453125 23.941406 C 28.261719 23.941406 28.917969 23.285156 28.917969 22.476562 C 28.917969 21.667969 28.261719 21.011719 27.453125 21.011719 Z M 27.453125 21.011719 "
      style=" stroke:none;fill-rule:nonzero;fill:url(#linear2);"/>
    <path
      d="M 31.980469 28.984375 C 32.523438 28.984375 32.960938 28.542969 32.960938 28.003906 C 32.960938 27.460938 32.519531 27.019531 31.980469 27.019531 C 31.4375 27.019531 31 27.460938 31 28.003906 C 31 28.542969 31.4375 28.984375 31.980469 28.984375 Z M 31.980469 28.984375 "
      style=" stroke:none;fill-rule:nonzero;fill:url(#linear3);"/>
    <path
      d="M 36.960938 28.003906 C 36.960938 28.542969 36.523438 28.984375 35.980469 28.984375 C 35.4375 28.984375 35 28.542969 35 28.003906 C 35 27.460938 35.4375 27.019531 35.980469 27.019531 C 36.523438 27.019531 36.960938 27.460938 36.960938 28.003906 Z M 36.960938 28.003906 "
      style=" stroke:none;fill-rule:nonzero;fill:url(#linear4);"/>
    <path
      d="M 54.683594 26.734375 L 51.894531 16.964844 C 51.5625 15.808594 50.488281 15 49.285156 15 C 49.117188 15 48.949219 15.023438 48.78125 15.054688 C 48.035156 13.398438 47 11.871094 45.679688 10.542969 C 42.761719 7.613281 38.871094 6 34.726562 6 C 30.238281 6 26.160156 7.628906 23.246094 10.585938 C 21.917969 11.933594 20.90625 13.496094 20.214844 15.214844 C 19.859375 15.117188 19.492188 15.070312 19.121094 15.070312 C 16.847656 15.070312 15 16.847656 15 19.03125 L 15 26.339844 C 15 29.496094 16.089844 32.628906 18.066406 35.160156 C 18.878906 36.199219 19.523438 37.347656 20.007812 38.554688 C 13.589844 40.328125 9 46.277344 9 53 L 9 58 L 11 58 L 11 53 C 11 47.144531 15.015625 41.96875 20.617188 40.457031 C 20.863281 41.480469 21 42.53125 21 43.582031 L 21 58 L 23 58 L 23 43.582031 C 23 40.128906 21.808594 36.699219 19.644531 33.929688 C 17.9375 31.746094 17 29.050781 17 26.335938 L 17 19.03125 C 17 17.949219 17.949219 17.066406 19.117188 17.066406 C 19.28125 17.066406 19.441406 17.09375 19.601562 17.128906 C 19.277344 18.4375 19.109375 19.8125 19.132812 21.253906 C 19.238281 28.308594 21.910156 31.308594 24.269531 33.957031 C 25.613281 35.464844 26.886719 36.917969 27.644531 39.058594 L 27.015625 42.835938 L 27 58 L 29 58 L 29 43.824219 C 30.304688 46.992188 32.507812 48.449219 35.890625 48.449219 C 38.058594 48.449219 39.855469 47.710938 41.1875 46.34375 L 41.1875 58 L 43.1875 58 L 43.1875 43 L 43.132812 43 C 43.320312 42.425781 43.472656 41.816406 43.578125 41.160156 C 44.097656 37.949219 45.335938 35.652344 46.640625 33.226562 C 48.355469 30.039062 50.128906 26.742188 50.148438 21.382812 C 50.152344 19.910156 49.941406 18.472656 49.546875 17.09375 C 49.738281 17.171875 49.910156 17.304688 49.96875 17.515625 L 52.761719 27.28125 C 53.242188 28.972656 53.074219 30.765625 52.3125 32.292969 L 47.898438 40.140625 C 47.3125 41.1875 47 42.371094 47 43.570312 L 47 58 L 49 58 L 49 43.570312 C 49 42.714844 49.222656 41.867188 49.640625 41.121094 L 54.078125 33.230469 C 55.089844 31.210938 55.304688 28.902344 54.683594 26.734375 Z M 48.144531 21.378906 C 48.128906 26.234375 46.550781 29.171875 44.878906 32.277344 C 43.550781 34.746094 42.179688 37.296875 41.601562 40.839844 C 41.015625 44.457031 38.984375 46.449219 35.886719 46.449219 C 33.097656 46.449219 31.035156 45.398438 30.046875 40.28125 C 29.347656 36.652344 27.523438 34.605469 25.761719 32.628906 C 23.429688 30.007812 21.226562 27.535156 21.128906 21.222656 C 21.074219 17.589844 22.300781 14.398438 24.671875 11.992188 C 27.203125 9.417969 30.777344 8 34.726562 8 C 38.335938 8 41.722656 9.40625 44.265625 11.957031 C 46.777344 14.480469 48.160156 17.824219 48.144531 21.378906 Z M 48.144531 21.378906 "
      style=" stroke:none;fill-rule:nonzero;fill:url(#linear5);"/>
    <path
      d="M 37.480469 32.859375 C 36.640625 32.199219 35.59375 31.90625 34.535156 32.027344 C 33.472656 32.152344 32.523438 32.679688 31.859375 33.519531 C 31.199219 34.359375 30.902344 35.40625 31.027344 36.464844 C 31.152344 37.527344 31.679688 38.476562 32.519531 39.136719 C 33.234375 39.699219 34.097656 40 34.992188 40 C 35.148438 40 35.308594 39.988281 35.464844 39.972656 C 36.527344 39.847656 37.476562 39.316406 38.140625 38.480469 C 38.800781 37.640625 39.097656 36.59375 38.972656 35.535156 C 38.847656 34.472656 38.316406 33.523438 37.480469 32.859375 Z M 36.570312 37.238281 C 36.238281 37.660156 35.761719 37.925781 35.234375 37.984375 L 35.230469 37.984375 C 34.699219 38.050781 34.179688 37.898438 33.757812 37.570312 C 33.339844 37.238281 33.074219 36.761719 33.011719 36.230469 C 32.949219 35.703125 33.097656 35.179688 33.429688 34.757812 C 33.761719 34.339844 34.234375 34.074219 34.765625 34.011719 C 34.847656 34.003906 34.925781 34 35.003906 34 C 35.453125 34 35.882812 34.148438 36.238281 34.429688 C 36.660156 34.761719 36.925781 35.238281 36.984375 35.769531 C 37.050781 36.296875 36.898438 36.820312 36.570312 37.238281 Z M 36.570312 37.238281 "
      style=" stroke:none;fill-rule:nonzero;fill:url(#linear6);"/>
  </g>
</svg>
