<?xml version="1.0" encoding="UTF-8"?>
<svg height="64pt" version="1.1" viewBox="0 0 64 64" width="64pt" xmlns="http://www.w3.org/2000/svg">
  <defs>
    <linearGradient gradientTransform="matrix(0.372093,0,0,0.372093,0,0)" gradientUnits="userSpaceOnUse" id="linear0"
                    x1="86" x2="86" y1="25.86719" y2="34.271">
      <stop offset="0" style="stop-color:rgb(98.823529%,95.294118%,99.215686%);stop-opacity:1;"/>
      <stop offset="1" style="stop-color:rgb(43.137255%,85.490196%,98.823529%);stop-opacity:1;"/>
    </linearGradient>
    <linearGradient gradientTransform="matrix(0.372093,0,0,0.372093,0,0)" gradientUnits="userSpaceOnUse" id="linear1"
                    x1="110.1875" x2="110.1875" y1="73.23438" y2="100.24375">
      <stop offset="0" style="stop-color:rgb(98.823529%,95.294118%,99.215686%);stop-opacity:1;"/>
      <stop offset="1" style="stop-color:rgb(43.137255%,85.490196%,98.823529%);stop-opacity:1;"/>
    </linearGradient>
    <linearGradient gradientTransform="matrix(0.372093,0,0,0.372093,0,0)" gradientUnits="userSpaceOnUse" id="linear2"
                    x1="86" x2="86" y1="11.42188" y2="166.67875">
      <stop offset="0" style="stop-color:rgb(87.843137%,56.470588%,94.117647%);stop-opacity:1;"/>
      <stop offset="1" style="stop-color:rgb(1.960784%,74.117647%,96.078431%);stop-opacity:1;"/>
    </linearGradient>
    <linearGradient gradientTransform="matrix(0.372093,0,0,0.372093,0,0)" gradientUnits="userSpaceOnUse" id="linear3"
                    x1="48.375" x2="48.375" y1="11.42188" y2="166.67875">
      <stop offset="0" style="stop-color:rgb(87.843137%,56.470588%,94.117647%);stop-opacity:1;"/>
      <stop offset="1" style="stop-color:rgb(1.960784%,74.117647%,96.078431%);stop-opacity:1;"/>
    </linearGradient>
    <linearGradient gradientTransform="matrix(0.372093,0,0,0.372093,0,0)" gradientUnits="userSpaceOnUse" id="linear4"
                    x1="53.75" x2="53.75" y1="11.42188" y2="166.67875">
      <stop offset="0" style="stop-color:rgb(87.843137%,56.470588%,94.117647%);stop-opacity:1;"/>
      <stop offset="1" style="stop-color:rgb(1.960784%,74.117647%,96.078431%);stop-opacity:1;"/>
    </linearGradient>
    <linearGradient gradientTransform="matrix(0.372093,0,0,0.372093,0,0)" gradientUnits="userSpaceOnUse" id="linear5"
                    x1="59.125" x2="59.125" y1="11.42188" y2="166.67875">
      <stop offset="0" style="stop-color:rgb(87.843137%,56.470588%,94.117647%);stop-opacity:1;"/>
      <stop offset="1" style="stop-color:rgb(1.960784%,74.117647%,96.078431%);stop-opacity:1;"/>
    </linearGradient>
    <linearGradient gradientTransform="matrix(0.372093,0,0,0.372093,0,0)" gradientUnits="userSpaceOnUse" id="linear6"
                    x1="59.125" x2="59.125" y1="11.42188" y2="166.67875">
      <stop offset="0" style="stop-color:rgb(87.843137%,56.470588%,94.117647%);stop-opacity:1;"/>
      <stop offset="1" style="stop-color:rgb(1.960784%,74.117647%,96.078431%);stop-opacity:1;"/>
    </linearGradient>
    <linearGradient gradientTransform="matrix(0.372093,0,0,0.372093,0,0)" gradientUnits="userSpaceOnUse" id="linear7"
                    x1="99.4375" x2="99.4375" y1="11.42188" y2="166.67875">
      <stop offset="0" style="stop-color:rgb(87.843137%,56.470588%,94.117647%);stop-opacity:1;"/>
      <stop offset="1" style="stop-color:rgb(1.960784%,74.117647%,96.078431%);stop-opacity:1;"/>
    </linearGradient>
    <linearGradient gradientTransform="matrix(0.372093,0,0,0.372093,0,0)" gradientUnits="userSpaceOnUse" id="linear8"
                    x1="120.9375" x2="120.9375" y1="11.42188" y2="166.67875">
      <stop offset="0" style="stop-color:rgb(87.843137%,56.470588%,94.117647%);stop-opacity:1;"/>
      <stop offset="1" style="stop-color:rgb(1.960784%,74.117647%,96.078431%);stop-opacity:1;"/>
    </linearGradient>
    <linearGradient gradientTransform="matrix(0.372093,0,0,0.372093,0,0)" gradientUnits="userSpaceOnUse" id="linear9"
                    x1="131.6875" x2="131.6875" y1="77.9375" y2="99.46169">
      <stop offset="0" style="stop-color:rgb(98.823529%,95.294118%,99.215686%);stop-opacity:1;"/>
      <stop offset="1" style="stop-color:rgb(43.137255%,85.490196%,98.823529%);stop-opacity:1;"/>
    </linearGradient>
  </defs>
  <g id="surface2334518">
    <path d="M 10 10 L 54 10 L 54 12 L 10 12 Z M 10 10 " style=" stroke:none;fill-rule:nonzero;fill:url(#linear0);"/>
    <path d="M 40 28 L 42 28 L 42 36 L 40 36 Z M 40 28 " style=" stroke:none;fill-rule:nonzero;fill:url(#linear1);"/>
    <path
      d="M 55 6 L 9 6 C 7.347656 6 6 7.347656 6 9 L 6 13 C 6 14.300781 6.839844 15.402344 8 15.816406 L 8 38 C 8 40.757812 10.242188 43 13 43 L 28 43 C 28 44.101562 28.898438 45 30 45 L 31 45 L 31 48.101562 C 28.722656 48.566406 27 50.585938 27 53 C 27 55.757812 29.242188 58 32 58 C 34.757812 58 37 55.757812 37 53 C 37 50.585938 35.277344 48.566406 33 48.101562 L 33 45 L 34 45 C 35.101562 45 36 44.101562 36 43 L 51 43 C 53.757812 43 56 40.757812 56 38 L 56 15.816406 C 57.160156 15.402344 58 14.300781 58 13 L 58 9 C 58 7.347656 56.652344 6 55 6 Z M 35 53 C 35 54.652344 33.652344 56 32 56 C 30.347656 56 29 54.652344 29 53 C 29 51.347656 30.347656 50 32 50 C 33.652344 50 35 51.347656 35 53 Z M 51 41 L 13 41 C 11.347656 41 10 39.652344 10 38 L 10 16 L 26 16 C 26 17.101562 26.898438 18 28 18 L 36 18 C 37.101562 18 38 17.101562 38 16 L 54 16 L 54 38 C 54 39.652344 52.652344 41 51 41 Z M 56 13 C 56 13.550781 55.550781 14 55 14 L 9 14 C 8.449219 14 8 13.550781 8 13 L 8 9 C 8 8.449219 8.449219 8 9 8 L 55 8 C 55.550781 8 56 8.449219 56 9 Z M 56 13 "
      style=" stroke:none;fill-rule:nonzero;fill:url(#linear2);"/>
    <path d="M 14 34 L 22 34 L 22 36 L 14 36 Z M 14 34 " style=" stroke:none;fill-rule:nonzero;fill:url(#linear3);"/>
    <path d="M 14 30 L 26 30 L 26 32 L 14 32 Z M 14 30 " style=" stroke:none;fill-rule:nonzero;fill:url(#linear4);"/>
    <path d="M 14 26 L 30 26 L 30 28 L 14 28 Z M 14 26 " style=" stroke:none;fill-rule:nonzero;fill:url(#linear5);"/>
    <path d="M 14 22 L 30 22 L 30 24 L 14 24 Z M 14 22 " style=" stroke:none;fill-rule:nonzero;fill:url(#linear6);"/>
    <path d="M 36 32 L 38 32 L 38 36 L 36 36 Z M 36 32 " style=" stroke:none;fill-rule:nonzero;fill:url(#linear7);"/>
    <path d="M 44 24 L 46 24 L 46 36 L 44 36 Z M 44 24 " style=" stroke:none;fill-rule:nonzero;fill:url(#linear8);"/>
    <path d="M 48 30 L 50 30 L 50 36 L 48 36 Z M 48 30 " style=" stroke:none;fill-rule:nonzero;fill:url(#linear9);"/>
  </g>
</svg>
