<?xml version="1.0" encoding="UTF-8"?>
<svg height="64pt" version="1.1" viewBox="0 0 64 64" width="64pt" xmlns="http://www.w3.org/2000/svg">
  <defs>
    <linearGradient gradientTransform="matrix(0.372093,0,0,0.372093,0,0)" gradientUnits="userSpaceOnUse" id="linear0"
                    x1="86" x2="86" y1="14.10938" y2="158.11638">
      <stop offset="0" style="stop-color:rgb(87.843137%,56.470588%,94.117647%);stop-opacity:1;"/>
      <stop offset="1" style="stop-color:rgb(1.960784%,74.117647%,96.078431%);stop-opacity:1;"/>
    </linearGradient>
    <linearGradient gradientTransform="matrix(0.372093,0,0,0.372093,0,0)" gradientUnits="userSpaceOnUse" id="linear1"
                    x1="86.81969" x2="86.81969" y1="47.03125" y2="125.04131">
      <stop offset="0" style="stop-color:rgb(98.823529%,95.294118%,99.215686%);stop-opacity:1;"/>
      <stop offset="1" style="stop-color:rgb(43.137255%,85.490196%,98.823529%);stop-opacity:1;"/>
    </linearGradient>
  </defs>
  <g id="surface2342727">
    <path
      d="M 6.398438 57.699219 L 10.191406 43.851562 C 8.113281 40.113281 7.019531 35.878906 7.023438 31.578125 C 7.027344 17.640625 18.371094 6.300781 32.3125 6.300781 C 39.074219 6.304688 45.425781 8.9375 50.199219 13.714844 C 54.976562 18.492188 57.601562 24.867188 57.601562 31.660156 C 57.59375 45.632812 46.25 57 32.3125 57 C 28.289062 57 24.238281 55.980469 20.566406 54.050781 Z M 20.828125 51.917969 L 21.175781 52.105469 C 24.644531 54 28.492188 55 32.300781 55 C 45.148438 55 55.59375 44.527344 55.601562 31.660156 C 55.601562 25.398438 53.183594 19.527344 48.785156 15.128906 C 44.390625 10.730469 38.539062 8.304688 32.3125 8.300781 C 19.476562 8.300781 9.027344 18.742188 9.023438 31.578125 C 9.023438 35.667969 10.097656 39.691406 12.132812 43.21875 L 12.339844 43.578125 L 9.238281 54.902344 Z M 32.3125 53 C 28.625 53 24.898438 51.941406 21.519531 49.9375 L 21.082031 49.617188 L 12.226562 51.941406 L 14.609375 43.25 L 14.367188 42.863281 C 12.242188 39.488281 11.121094 35.59375 11.125 31.59375 C 11.128906 19.925781 20.636719 10.429688 32.320312 10.429688 C 37.960938 10.433594 43.28125 12.648438 47.300781 16.667969 C 51.300781 20.671875 53.5 26.015625 53.5 31.707031 C 53.496094 43.449219 43.988281 53 32.3125 53 Z M 22.582031 48.242188 C 25.640625 50.046875 29 51 32.304688 51 C 42.886719 51 51.496094 42.347656 51.5 31.707031 C 51.5 26.546875 49.507812 21.707031 45.886719 18.082031 C 42.242188 14.4375 37.425781 12.433594 32.320312 12.429688 C 21.738281 12.429688 13.128906 21.027344 13.125 31.597656 C 13.121094 35.214844 14.136719 38.742188 16.058594 41.796875 L 16.773438 42.929688 L 15.074219 49.128906 L 21.503906 47.441406 Z M 22.582031 48.242188 "
      style=" stroke:none;fill-rule:nonzero;fill:url(#linear0);"/>
    <path
      d="M 26.121094 21.21875 C 25.65625 20.1875 25.167969 20.167969 24.726562 20.148438 C 24.363281 20.132812 23.953125 20.132812 23.539062 20.132812 C 23.125 20.132812 22.453125 20.289062 21.886719 20.910156 C 21.320312 21.527344 19.71875 23.027344 19.71875 26.074219 C 19.71875 29.121094 21.9375 32.0625 22.25 32.476562 C 22.558594 32.890625 26.53125 39.34375 32.828125 41.824219 C 38.058594 43.886719 39.125 43.476562 40.257812 43.375 C 41.394531 43.269531 43.921875 41.875 44.4375 40.429688 C 44.953125 38.984375 44.953125 37.746094 44.800781 37.484375 C 44.644531 37.226562 44.230469 37.074219 43.613281 36.761719 C 42.992188 36.453125 39.949219 34.953125 39.382812 34.75 C 38.8125 34.542969 38.398438 34.4375 37.988281 35.058594 C 37.574219 35.679688 36.386719 37.074219 36.027344 37.484375 C 35.664062 37.898438 35.304688 37.949219 34.683594 37.640625 C 34.066406 37.332031 32.070312 36.679688 29.703125 34.566406 C 27.863281 32.925781 26.621094 30.898438 26.261719 30.28125 C 25.898438 29.660156 26.222656 29.324219 26.53125 29.015625 C 26.808594 28.738281 27.152344 28.292969 27.460938 27.929688 C 27.769531 27.570312 27.871094 27.3125 28.078125 26.898438 C 28.285156 26.484375 28.183594 26.121094 28.027344 25.8125 C 27.871094 25.503906 26.671875 22.441406 26.121094 21.21875 Z M 26.121094 21.21875 "
      style=" stroke:none;fill-rule:evenodd;fill:url(#linear1);"/>
  </g>
</svg>
