<?xml version="1.0" standalone="no"?>
<!DOCTYPE svg PUBLIC "-//W3C//DTD SVG 20010904//EN"
 "http://www.w3.org/TR/2001/REC-SVG-20010904/DTD/svg10.dtd">
<svg version="1.0" xmlns="http://www.w3.org/2000/svg"
 width="700.000000pt" height="700.000000pt" viewBox="0 0 700.000000 700.000000"
 preserveAspectRatio="xMidYMid meet">
<metadata>
Created by potrace 1.11, written by Peter Selinger 2001-2013
</metadata>
<g transform="translate(0.000000,700.000000) scale(0.100000,-0.100000)"
fill="#000000" stroke="none">
<path d="M3319 6296 c-2 -2 -44 -7 -94 -10 -49 -4 -97 -9 -105 -11 -8 -2 -33
-6 -55 -10 -469 -66 -969 -292 -1350 -610 -355 -296 -616 -650 -807 -1095 -6
-14 -15 -34 -19 -45 -38 -88 -119 -370 -135 -470 -3 -22 -8 -43 -9 -46 -2 -3
-7 -28 -10 -55 -4 -27 -8 -60 -11 -74 -19 -115 -26 -493 -12 -635 11 -100 18
-156 24 -185 3 -14 8 -36 10 -50 45 -269 169 -617 306 -857 43 -74 125 -203
195 -303 83 -119 240 -291 408 -444 181 -166 508 -371 765 -479 129 -54 350
-125 451 -146 277 -57 361 -66 614 -66 170 0 323 8 380 19 11 2 42 7 68 10 83
11 234 45 325 72 48 14 96 28 107 31 11 2 29 8 40 13 11 4 65 25 120 46 243
93 583 294 765 453 245 214 387 374 546 613 245 368 393 778 451 1248 8 69 10
476 3 540 -5 36 -11 91 -15 123 -3 32 -8 64 -10 70 -2 7 -7 29 -10 50 -31 214
-123 493 -245 742 -263 535 -692 974 -1222 1250 -266 138 -604 249 -853 280
-11 2 -40 6 -65 10 -25 4 -63 9 -85 12 -51 6 -461 14 -466 9z m-53 -695 c-1
-121 -4 -222 -7 -225 -5 -5 -329 -10 -431 -7 l-28 1 0 179 0 178 103 28 c97
26 262 57 331 62 l32 3 0 -219z m564 209 c36 -6 79 -12 96 -15 111 -16 352
-90 499 -152 155 -66 404 -210 387 -223 -4 -4 -34 -15 -67 -25 -33 -11 -64
-22 -69 -26 -5 -4 -10 -56 -11 -116 -1 -59 -3 -111 -4 -114 0 -3 -52 -6 -115
-6 l-113 1 -117 -117 -116 -117 0 -230 c0 -127 3 -230 7 -230 4 0 109 51 233
114 l227 114 344 -116 c189 -63 346 -117 349 -119 4 -4 -221 -463 -228 -463
-1 0 -107 52 -233 115 l-231 115 -234 0 -234 0 -233 -234 -234 -233 1 -233 0
-233 233 -234 233 -233 233 0 234 0 116 -234 117 -235 -248 -492 -247 -492
-50 -19 c-131 -49 -280 -94 -380 -113 -63 -12 -167 -27 -270 -40 -70 -8 -296
-9 -385 0 l-75 6 -125 124 c-69 67 -171 167 -227 221 l-101 99 4 471 3 470
-350 351 -350 351 -332 0 c-183 1 -340 1 -349 1 -17 1 -18 19 -18 229 0 206 2
230 18 244 26 22 289 178 301 178 5 0 11 3 13 8 2 4 59 41 128 82 68 41 132
80 141 85 9 6 34 20 55 32 22 13 56 33 76 45 43 26 314 189 386 231 l48 29 0
231 0 232 234 3 234 2 117 -116 116 -116 224 112 c123 61 228 115 234 120 7 5
10 159 9 457 -1 246 1 451 3 456 5 9 14 9 93 -3z"/>
</g>
</svg>
