<?xml version="1.0" encoding="UTF-8"?><svg version="1.1" id="Calque_1" xmlns:serif="http://www.serif.com/" xmlns="http://www.w3.org/2000/svg" xmlns:xlink="http://www.w3.org/1999/xlink" x="0px" y="0px" viewBox="0 0 800 800" style="enable-background:new 0 0 800 800;" xml:space="preserve" width="800px" height="800px">

<g id="Calque2">
	<path d="M355.5,622.5V229.2c214.8,0,389.7,172.6,393.3,386.6c0,1.8-0.7,3.5-1.9,4.8c-1.3,1.3-3,2-4.8,2
		C690.1,622.5,355.5,622.5,355.5,622.5L355.5,622.5z" style="fill:#00E6B3;"/>
	<path d="M434.4,237.1c9.5,1.9,18.8,4.2,28,6.8c-5.7,6.6-9.5,13.7-10.6,20.1l-0.1,0.7c-1.8,12.3-9.2,27-21.6,39.4
		c-12.1,12.1-26.2,19.4-38.3,21.4l-1.2,0.2c-7.7,1.1-16.6,6.3-24.4,14.1c-4.6,4.6-8.2,9.5-10.7,14.4v-40.5
		c10.4-8.1,21.6-13,31.3-14.4c7.7-1.1,16.6-6.3,24.4-14.1s12.9-16.7,14.1-24.4l0.2-1.2C426.6,252.6,429.6,244.8,434.4,237.1
		L434.4,237.1z" style="fill:#FFFFFF;"/>
	<path d="M540.1,275.1c10.7,5.7,21,11.8,31.1,18.5c-3.3,1.2-6.6,2.1-9.7,2.6l-1.2,0.2c-7.7,1.1-16.6,6.3-24.4,14.1
		c-7.6,7.6-12.6,16.1-13.9,23.7l-0.1,0.7c-1.8,12.3-9.2,27-21.6,39.4c-12.1,12.1-26.2,19.4-38.3,21.4l-1.2,0.2
		c-7.7,1.1-16.6,6.3-24.4,14.1c-7.8,7.8-12.9,16.7-14.1,24.4c-1.8,12.3-9.2,27-21.6,39.4c-12.5,12.5-27.1,19.8-39.4,21.6
		c-1.9,0.3-3.8,0.8-5.8,1.5v-27.6c0.7-0.1,1.3-0.2,2-0.3c7.7-1.1,16.6-6.3,24.4-14.1s12.9-16.7,14.1-24.4c1.8-12.3,9.2-27,21.6-39.4
		c12.5-12.5,27.1-19.8,39.4-21.6c7.7-1.1,16.6-6.3,24.4-14.1c7.8-7.8,12.9-16.7,14.1-24.4l0.2-1.2c2.1-12.1,9.4-26.2,21.4-38.3
		C524.2,284.3,532.2,278.8,540.1,275.1L540.1,275.1z" style="fill:#FFFFFF;"/>
	<path d="M629.2,340.1c6.9,6.7,13.5,13.6,19.9,20.8c-5.9,3-11.7,5-17.1,5.9l-1.2,0.2c-7.7,1.1-16.6,6.3-24.4,14.1
		c-7.6,7.6-12.6,16.1-13.9,23.7l-0.1,0.7c-1.8,12.3-9.2,27-21.6,39.4c-12.1,12.1-26.2,19.4-38.3,21.4l-1.2,0.2
		c-7.7,1.1-16.6,6.3-24.4,14.1c-7.8,7.8-12.9,16.7-14.1,24.4c-1.8,12.3-9.2,27-21.6,39.4c-12.5,12.5-27.1,19.8-39.4,21.6
		c-7.7,1.1-16.6,6.3-24.4,14.1c-7.6,7.6-12.6,16.1-13.9,23.7l-0.1,0.7c-0.8,5.7-2.8,11.8-6,18h-32v-0.2c6.3-7.1,10.5-14.8,11.5-21.7
		l0.2-1.2c2.1-12.1,9.4-26.2,21.4-38.3c12.5-12.5,27.1-19.8,39.4-21.6c7.7-1.1,16.6-6.3,24.4-14.1c7.8-7.8,12.9-16.7,14.1-24.4
		c1.8-12.3,9.2-27,21.6-39.4c12.5-12.5,27.1-19.8,39.4-21.6c7.7-1.1,16.6-6.3,24.4-14.1c7.8-7.8,12.9-16.7,14.1-24.4l0.2-1.2
		c2.1-12.1,9.4-26.2,21.4-38.3c12.5-12.5,27.1-19.8,39.4-21.6l0.1,0C627.8,340.4,628.5,340.3,629.2,340.1L629.2,340.1z" style="fill:#FFFFFF;"/>
	<path d="M688.6,413.3c4.9,7.8,9.6,15.9,14,24.1l-1.1,0.2c-7.7,1.1-16.6,6.3-24.4,14.1c-7.6,7.6-12.6,16.1-13.9,23.7
		L663,476c-1.8,12.3-9.2,27-21.6,39.4c-12.1,12.1-26.2,19.4-38.3,21.4l-1.2,0.2c-7.7,1.1-16.6,6.3-24.4,14.1
		c-7.8,7.8-12.9,16.7-14.1,24.4c-1.8,12.3-9.2,27-21.6,39.4c-2.8,2.8-5.6,5.3-8.6,7.5l-4,0H470c9.6-6.9,19.7-11.1,28.5-12.3
		c7.7-1.1,16.6-6.3,24.4-14.1c7.8-7.8,12.9-16.7,14.1-24.4c1.8-12.3,9.2-27,21.6-39.4c12.5-12.5,27.1-19.8,39.4-21.6
		c7.7-1.1,16.6-6.3,24.4-14.1c7.8-7.8,12.9-16.7,14.1-24.4l0.2-1.2c2.1-12.1,9.4-26.2,21.4-38.3
		C667.7,423.2,678.5,416.7,688.6,413.3L688.6,413.3z" style="fill:#FFFFFF;"/>
	<path d="M337,186.8H87.9c-6.1,0-11.9,2.4-16.2,6.7c-4.3,4.3-6.7,10.1-6.7,16.2c0,77.8,0,331.2,0,408.9
		c0,6.1,2.4,11.9,6.7,16.2c4.3,4.3,10.1,6.7,16.2,6.7c65.5,0,249.1,0,249.1,0V186.8L337,186.8z" style="fill:#FFFFFF;"/>
	<path d="M196,651.6c0,0-2.7-0.2-6.5-0.4c-2-0.1-4.2-0.2-6.5-0.2c-1.3,0-2.6,0-3.9,0.1c-4.9,0.2-9,0.5-9,0.5
		c-0.9,0-1.6,0.7-1.6,1.6c0,0.9,0.7,1.6,1.6,1.6c0,0,4.1,0.3,9,0.5c1.3,0,2.6,0.1,3.9,0.1c2.2,0,4.5-0.1,6.5-0.2
		c3.7-0.2,6.5-0.4,6.5-0.4c0.9,0,1.6-0.7,1.6-1.6C197.7,652.4,196.9,651.6,196,651.6z" style="fill:#142664;"/>
	<path d="M310.2,254.8H72.9v359.4c0,4.6,3.7,8.3,8.3,8.3c36.7,0,184,0,220.7,0c4.6,0,8.3-3.7,8.3-8.3
		C310.2,559.5,310.2,254.8,310.2,254.8L310.2,254.8z" style="fill:#FF2E93;"/>
	<path d="M168.4,417.6h-38.7c-5.8,0-10.4,4.7-10.4,10.4c0,41.7,0,194.4,0,194.4h49.1L168.4,417.6L168.4,417.6z" style="fill:#142664;"/>
	<path d="M263.8,428c0-5.8-4.7-10.4-10.4-10.4c-20.4,0-65.2,0-85.6,0c-5.8,0-10.4,4.7-10.4,10.4c0,41.7,0,194.4,0,194.4
		h106.5V428z" style="fill:#00E6B3;"/>
	<path d="M672.7,588h12.2v32c0,1.4-1.1,2.5-2.5,2.5h0c-1.1,0-2.1-0.8-2.4-1.9C678.4,613.4,672.7,588,672.7,588
		L672.7,588z" style="fill:#142664;"/>
	<path d="M617.7,588h-12.2v32c0,1.4,1.1,2.5,2.5,2.5c0,0,0,0,0,0c1.1,0,2.1-0.8,2.4-1.9C612,613.4,617.7,588,617.7,588
		L617.7,588z" style="fill:#142664;"/>
	<path d="M704.9,588h13.4v31.7c0,1.5-1.2,2.8-2.8,2.8c-0.2,0-0.4,0-0.6,0c-1.3,0-2.4-0.9-2.7-2.2
		C710.5,612.8,704.9,588,704.9,588z" style="fill:#142664;"/>
	<path d="M651.1,588h-13.4v31.7c0,1.5,1.2,2.8,2.8,2.8c0.2,0,0.4,0,0.6,0c1.3,0,2.4-0.9,2.7-2.2
		C645.5,612.8,651.1,588,651.1,588z" style="fill:#142664;"/>
	<path d="M607.1,589.1c0.4,0,0.9,0.2,1.2,0.5c0.3,0.3,0.5,0.7,0.5,1.2c0,6,0,26.3,0,30.7c0,0.3-0.1,0.5-0.3,0.7
		c-0.2,0.2-0.5,0.3-0.7,0.3c0,0,0,0,0,0c-0.2,0-0.4,0-0.6,0c-1.5,0-2.8-1.2-2.8-2.8v-30.6L607.1,589.1L607.1,589.1z" style="fill:#FF2E93;"/>
	<path d="M671.6,589.1h3.2c0.8,0,1.5,0.5,1.6,1.3c1.2,5.3,5.9,25.3,7.1,30.4c0.1,0.4,0,0.9-0.3,1.2
		c-0.3,0.3-0.7,0.5-1.1,0.5c0,0,0,0,0,0c-0.2,0-0.4,0-0.6,0c-1.3,0-2.4-0.9-2.7-2.1l-7.2-31.1C671.6,589.2,671.6,589.2,671.6,589.1z
		" style="fill:#FF2E93;"/>
	<path d="M701.6,557.7c0-1.1-0.4-2.1-1.2-2.9c-0.8-0.8-1.8-1.2-2.9-1.2c-16.4,0-78.2,0-94.7,0c-1.1,0-2.1,0.4-2.9,1.2
		c-0.8,0.8-1.2,1.8-1.2,2.9c0,6.8,0,20.5,0,27.3c0,1.1,0.4,2.1,1.2,2.9c0.8,0.8,1.8,1.2,2.9,1.2c16.4,0,78.2,0,94.7,0
		c1.1,0,2.1-0.4,2.9-1.2c0.8-0.8,1.2-1.8,1.2-2.9C701.6,578.3,701.6,564.6,701.6,557.7z" style="fill:#FFFFFF;"/>
	<g>
		<path d="M320.4,643.3H87.9c-6.6,0-12.8-2.6-17.5-7.2c-4.7-4.7-7.2-10.9-7.2-17.5V209.7c0-6.6,2.6-12.8,7.2-17.5
			c4.7-4.7,10.9-7.2,17.5-7.2h232.4c1,0,1.8,0.8,1.8,1.8s-0.8,1.8-1.8,1.8H87.9c-5.6,0-11,2.2-14.9,6.2c-4,4-6.2,9.3-6.2,14.9v408.9
			c0,5.6,2.2,11,6.2,14.9c4,4,9.3,6.2,14.9,6.2h232.4c1,0,1.8,0.8,1.8,1.8S321.3,643.3,320.4,643.3z" style="fill:#142664;"/>
	</g>
	<path d="M355.5,205.4c0-5-2-9.7-5.5-13.2c-3.5-3.5-8.3-5.5-13.2-5.5c0,0,0,0,0,0c-5,0-9.7,2-13.2,5.5
		c-3.5,3.5-5.5,8.3-5.5,13.2c0,73.7,0,343.8,0,417.4c0,5,2,9.7,5.5,13.2c3.5,3.5,8.3,5.5,13.2,5.5c0,0,0,0,0,0c5,0,9.7-2,13.2-5.5
		c3.5-3.5,5.5-8.3,5.5-13.2C355.5,549.2,355.5,279.1,355.5,205.4L355.5,205.4z" style="fill:#142664;"/>
	<path d="M262.9,273.1c0-1.4-0.6-2.8-1.6-3.8c-1-1-2.4-1.6-3.8-1.6c-22.5,0-108.6,0-131.1,0c-1.4,0-2.8,0.6-3.8,1.6
		c-1,1-1.6,2.4-1.6,3.8c0,5.5,0,14.1,0,19.7c0,1.4,0.6,2.8,1.6,3.8c1,1,2.4,1.6,3.8,1.6c22.5,0,108.6,0,131.1,0
		c1.4,0,2.8-0.6,3.8-1.6c1-1,1.6-2.4,1.6-3.8C262.9,287.2,262.9,278.6,262.9,273.1z" style="fill:#FFFFFF;"/>
	<path d="M262.9,318.4c0-1.4-0.6-2.8-1.6-3.8c-1-1-2.4-1.6-3.8-1.6c-22.5,0-108.6,0-131.1,0c-1.4,0-2.8,0.6-3.8,1.6
		c-1,1-1.6,2.4-1.6,3.8c0,5.5,0,14.1,0,19.7c0,1.4,0.6,2.8,1.6,3.8c1,1,2.4,1.6,3.8,1.6c22.5,0,108.6,0,131.1,0
		c1.4,0,2.8-0.6,3.8-1.6c1-1,1.6-2.4,1.6-3.8C262.9,332.5,262.9,323.9,262.9,318.4z" style="fill:#FFFFFF;"/>
	<path d="M96.2,270.2L96.2,270.2c3.7,0,6.8,3,6.8,6.8c0,0.9-0.2,1.8-0.5,2.6c-0.1,0.3-0.3,0.6-0.4,0.8
		c-0.2,0.4-1.1,1.6-1,2c0.1,0.4,1.2,0.7,1.6,0.9c1.1,0.6,2,1.3,2.7,2.2c1.3,1.6,1.9,3.8,2.2,6.2l0,0c0.1,0.7,0.1,1.5,0.2,2.3
		c0,0.4-0.1,0.8-0.4,1.1c-0.3,0.3-0.7,0.5-1.1,0.5l-2.6,0l0,0h-7.4h-7.4l0,0l-2.6,0c-0.4,0-0.8-0.2-1.1-0.5
		c-0.3-0.3-0.4-0.7-0.4-1.1c0-0.8,0.1-1.6,0.2-2.3l0,0c0.3-2.4,0.9-4.5,2.2-6.2c0.7-0.9,1.6-1.6,2.7-2.2c0.4-0.2,1.5-0.5,1.6-0.9
		c0.1-0.4-0.8-1.7-1-2c-0.2-0.3-0.3-0.5-0.4-0.8c-0.3-0.8-0.5-1.7-0.5-2.6C89.4,273.2,92.4,270.2,96.2,270.2z" style="fill:#142664;"/>
	<path d="M167.2,280.9c0-1.2-1-2.2-2.2-2.2c-6.6,0-26,0-32.6,0c-1.2,0-2.2,1-2.2,2.2c0,1.2,0,2.8,0,4.1
		c0,1.2,1,2.2,2.2,2.2c6.6,0,26,0,32.6,0c1.2,0,2.2-1,2.2-2.2C167.2,283.7,167.2,282.1,167.2,280.9z" style="fill:#142664;"/>
	<path d="M232.7,280.9c0-0.6-0.2-1.2-0.7-1.6c-0.4-0.4-1-0.7-1.6-0.7c-9.4,0-46.2,0-55.7,0c-0.6,0-1.2,0.2-1.6,0.7
		c-0.4,0.4-0.7,1-0.7,1.6c0,1.2,0,2.8,0,4.1c0,0.6,0.2,1.2,0.7,1.6c0.4,0.4,1,0.7,1.6,0.7c9.4,0,46.2,0,55.7,0
		c0.6,0,1.2-0.2,1.6-0.7c0.4-0.4,0.7-1,0.7-1.6C232.7,283.7,232.7,282.1,232.7,280.9z" style="fill:#142664;"/>
	<circle cx="134.3" cy="328.2" r="4.1" style="fill:#142664;"/>
	<circle cx="160.6" cy="328.2" r="4.1" style="fill:#142664;"/>
	<circle cx="186.9" cy="328.2" r="4.1" style="fill:#142664;"/>
	<circle cx="147.5" cy="328.2" r="4.1" style="fill:#142664;"/>
	<circle cx="173.8" cy="328.2" r="4.1" style="fill:#142664;"/>
	<circle cx="200.1" cy="328.2" r="4.1" style="fill:#142664;"/>
	<circle cx="213.2" cy="328.2" r="4.1" style="fill:#142664;"/>
	<g>
		<circle cx="286.6" cy="328.2" r="13.2" style="fill:#142664;"/>
		<path d="M283.7,330c0.4,0.4,0.9,0.4,1.3,0c1.6-1.6,5.9-5.9,7.5-7.5c0.4-0.4,0.9-0.4,1.3,0c0.5,0.5,1.3,1.3,1.8,1.8
			c0.4,0.4,0.4,0.9,0,1.3c-2.1,2.1-8.5,8.5-10.6,10.6c-0.4,0.4-0.9,0.4-1.3,0c-1.4-1.4-4.7-4.7-6.1-6.1c-0.4-0.4-0.4-0.9,0-1.3
			c0.5-0.5,1.3-1.3,1.8-1.8c0.2-0.2,0.4-0.3,0.7-0.3c0.2,0,0.5,0.1,0.7,0.3C281.5,327.8,282.9,329.2,283.7,330L283.7,330z" style="fill:#00E6B3;"/>
	</g>
	<g>
		<circle cx="286.6" cy="282.9" r="13.2" style="fill:#142664;"/>
		<path d="M283.7,284.7c0.4,0.4,0.9,0.4,1.3,0c1.6-1.6,5.9-5.9,7.5-7.5c0.4-0.4,0.9-0.4,1.3,0c0.5,0.5,1.3,1.3,1.8,1.8
			c0.4,0.4,0.4,0.9,0,1.3c-2.1,2.1-8.5,8.5-10.6,10.6c-0.4,0.4-0.9,0.4-1.3,0c-1.4-1.4-4.7-4.7-6.1-6.1c-0.4-0.4-0.4-0.9,0-1.3
			c0.5-0.5,1.3-1.3,1.8-1.8c0.2-0.2,0.4-0.3,0.7-0.3c0.2,0,0.5,0.1,0.7,0.3C281.5,282.5,282.9,283.9,283.7,284.7L283.7,284.7z" style="fill:#00E6B3;"/>
	</g>
	<circle cx="191.6" cy="384.7" r="22.2" style="fill:#142664;"/>
	<path d="M200.9,383c0.5,0.4,0.8,1,0.8,1.6c0,0.6-0.3,1.2-0.8,1.6c-3.4,2.4-9.6,6.9-13.4,9.6c-0.6,0.4-1.4,0.5-2.1,0.1
		c-0.7-0.3-1.1-1-1.1-1.8c0-5.1,0-14,0-19.1c0-0.7,0.4-1.4,1.1-1.8c0.7-0.3,1.5-0.3,2.1,0.1C191.3,376.2,197.6,380.7,200.9,383
		L200.9,383z" style="fill:#00E6B3;"/>
	<path d="M682.3,564.7c0-0.7-0.3-1.5-0.8-2s-1.2-0.8-2-0.8c-11.9,0-57.9,0-69.8,0c-0.7,0-1.5,0.3-2,0.8
		c-0.5,0.5-0.8,1.2-0.8,2v13.4c0,0.7,0.3,1.5,0.8,2s1.2,0.8,2,0.8c11.9,0,57.9,0,69.8,0c0.7,0,1.5-0.3,2-0.8c0.5-0.5,0.8-1.2,0.8-2
		V564.7z" style="fill:#142664;"/>
	<path d="M723.8,557.7c0-1.1-0.4-2.1-1.2-2.9c-0.8-0.8-1.8-1.2-2.9-1.2c-6.4,0-18.8,0-25.3,0c-1.1,0-2.1,0.4-2.9,1.2
		c-0.8,0.8-1.2,1.8-1.2,2.9c0,6.8,0,20.5,0,27.3c0,1.1,0.4,2.1,1.2,2.9c0.8,0.8,1.8,1.2,2.9,1.2c6.4,0,18.8,0,25.3,0
		c1.1,0,2.1-0.4,2.9-1.2c0.8-0.8,1.2-1.8,1.2-2.9C723.8,578.3,723.8,564.6,723.8,557.7z" style="fill:#142664;"/>
	<path d="M397.5,617.7v-49c0-1.3,0.5-2.5,1.4-3.4c2.7-2.7,8.5-8.5,11.2-11.2c0.9-0.9,2.1-1.4,3.4-1.4
		c9.2,0,47.9,0,61.5,0c1.3,0,2.5,0.5,3.4,1.4c0.9,0.9,1.4,2.1,1.4,3.4v49c0,1.3-0.5,2.5-1.4,3.4c-2.7,2.7-8.5,8.5-11.2,11.2
		c-0.9,0.9-2.1,1.4-3.4,1.4c-9.2,0-47.9,0-61.5,0c-1.3,0-2.5-0.5-3.4-1.4C398,620.2,397.5,619,397.5,617.7z" style="fill:#FF2E93;"/>
	<path d="M419,617.7v-49c0-1.3,0.5-2.5,1.4-3.4c2.7-2.7,8.5-8.5,11.2-11.2c0.9-0.9,2.1-1.4,3.4-1.4c9.2,0,47.9,0,61.5,0
		c1.3,0,2.5,0.5,3.4,1.4c0.9,0.9,1.4,2.1,1.4,3.4v49c0,1.3-0.5,2.5-1.4,3.4c-2.7,2.7-8.5,8.5-11.2,11.2c-0.9,0.9-2.1,1.4-3.4,1.4
		c-9.2,0-47.9,0-61.5,0c-1.3,0-2.5-0.5-3.4-1.4C419.5,620.2,419,619,419,617.7L419,617.7z" style="fill:#142664;"/>
	<path d="M471.4,591v-74.5c0-1.3,0.5-2.5,1.4-3.4c2.7-2.7,8.5-8.5,11.2-11.2c0.9-0.9,2.1-1.4,3.4-1.4
		c9.2,0,68.9,0,82.6,0c1.3,0,2.5,0.5,3.4,1.4c0.9,0.9,1.4,2.1,1.4,3.4v74.5c0,1.3-0.5,2.5-1.4,3.4c-2.7,2.7-8.5,8.5-11.2,11.2
		c-0.9,0.9-2.1,1.4-3.4,1.4c-9.2,0-68.9,0-82.5,0c-1.3,0-2.5-0.5-3.4-1.4C471.9,593.5,471.4,592.3,471.4,591L471.4,591z" style="fill:#FF2E93;"/>
	<path d="M481.1,570.4h-47.6c-1.2,0-2.3,0.5-3.1,1.3s-1.3,1.9-1.3,3.1c0,9.6,0,32.7,0,42.9c0,1.3,0.5,2.6,1.4,3.5
		c0.9,0.9,2.2,1.4,3.5,1.4c13,0,47,0,47,0L481.1,570.4L481.1,570.4z" style="fill:#FF2E93;"/>
	<path d="M643.6,507.7c2.7-1.5,3.2-3.5,3.6-5.5c0.3-1.6-0.1-3.2-0.6-4.9c-0.3-1-0.7-1.9-1-2.9c-0.2-0.4-0.5-0.8-0.6-1.3
		c0-0.3-0.3-0.5-0.3-0.8c0-0.4-0.1-0.8,0-1.2c0.1-0.4,0.1-0.8,0.3-1.2c0.2-0.5,0.4-1.1,0.7-1.7c0.9-0.9,0.9-2.3,0-3.1
		s-2.3-0.9-3.1,0c-2.5,1.5-3.7,3.1-4.7,4.6c-0.4,0.6-0.5,1.2-0.7,1.9c-0.6,1.9-0.4,3.8,0.1,5.6c0.3,0.9,0.7,1.8,1.2,2.7
		c0.3,0.6,0.8,1.1,1.1,1.6c0.2,0.3,0.4,0.4,0.6,0.7c0.2,0.3,0.7,0.4,0.7,0.8c0,0.5,0.1,1-0.2,1.7c-0.9,0.9-0.9,2.3,0,3.1
		C641.4,508.6,642.8,508.6,643.6,507.7L643.6,507.7z" style="fill:#FF2E93;"/>
	<path d="M631.8,511.1c0,0,0,0,0.1-0.1c0.2-0.2,0.5-0.6,1-1.1c0.3-0.4,0.5-0.8,0.8-1.4c0.4-0.8,0.7-1.8,0.6-3.1
		c0-0.6-0.1-1.2-0.4-1.8c-0.4-1.1-1-2.2-2-3.3c-0.6-1.2-2.1-1.7-3.3-1c-1.2,0.6-1.7,2.1-1,3.3c0.1,0.5,0,0.9,0.1,1.4
		c0.1,0.6-0.1,1.2-0.1,1.6c0.1,1,0.4,1.7,0.2,2.1c-0.1,0.2-0.1,0.3-0.1,0.3c-0.8,0.8-0.7,2.4,0.3,3.3
		C629.2,512.3,630.8,512.2,631.8,511.1L631.8,511.1z" style="fill:#FF2E93;"/>
	<path d="M692.2,353.6c9.4,0,17.1,13.2,17.1,59.7s-7.7,108.9-17.1,108.9c-9.4,0-17.1-62.4-17.1-108.9
		C675.1,366.7,682.8,353.6,692.2,353.6L692.2,353.6z" style="fill:#FF2E93;"/>
	<path d="M545.1,347c0-2.5-2-4.5-4.5-4.5h-145c-2.5,0-4.5,2-4.5,4.5v101c0,2.5,2,4.5,4.5,4.5h145c2.5,0,4.5-2,4.5-4.5
		V347z M400.1,351.5v92.1h136.1v-92.1H400.1z" style="fill:#142664;"/>
	<rect x="400.1" y="351.5" width="136.1" height="92.1" style="fill:#FFFFFF;"/>
	<g>
		<path d="M441.8,377.6c-0.5-0.5-1.2-0.8-2-0.8c-0.8,0-1.5,0.3-2,0.8c-3.2,3.2-9.4,9.4-12.6,12.6
			c-0.5,0.5-0.8,1.2-0.8,2c0,0.8,0.3,1.5,0.8,2c7.6,7.6,34.4,34.4,41.9,41.9c0.5,0.5,1.2,0.8,2,0.8s1.5-0.3,2-0.8
			c3.2-3.2,9.4-9.4,12.6-12.6c0.5-0.5,0.8-1.2,0.8-2c0-0.8-0.3-1.5-0.8-2C476.2,412,449.3,385.2,441.8,377.6L441.8,377.6z" style="fill:#FF2E93;"/>
		<path d="M511,395.3c1.1-1.1,1.1-2.9,0-4c-3.8-3.8-12.1-12.1-15.9-15.9c-1.1-1.1-2.9-1.1-4,0c-4,4-12.8,12.8-16.8,16.8
			c-1.1,1.1-1.1,2.9,0,4c3.8,3.8,12.1,12.1,15.9,15.9c1.1,1.1,2.9,1.1,4,0C498.2,408.2,507.1,399.3,511,395.3L511,395.3z" style="fill:#142664;"/>
		<path d="M462.7,384.1c0.5,0.5,1.2,0.8,2,0.8c0.8,0,1.5-0.3,2-0.8c2.2-2.2,5.6-5.6,7.8-7.8c0.5-0.5,0.8-1.2,0.8-2
			s-0.3-1.5-0.8-2c-3.3-3.3-10-10-13.3-13.3c-0.5-0.5-1.2-0.8-2-0.8c-0.8,0-1.5,0.3-2,0.8c-2.2,2.2-5.6,5.6-7.8,7.8
			c-0.5,0.5-0.8,1.2-0.8,2c0,0.7,0.3,1.5,0.8,2C452.7,374.1,459.4,380.7,462.7,384.1L462.7,384.1z" style="fill:#00E6B3;"/>
	</g>
	<path d="M263.8,617.9c-2.1,0-4.3-0.8-5.9-2.4c-1.3-1.3-2.1-3-2.4-4.8l0,0c0,0-0.3-1.3-0.6-2.5
		c-1.2-4.9-3.6-14.8-5.4-22.1c-0.3-1.3-1.4-2.3-2.8-2.6l-19.1-3.5c-11.8-2.1-22.3-2.1-24.4,7.1l-0.4,2.2l0,0c-0.5,2.9-1.1,5.9-1.8,9
		c-2.8,12.9-7.1,27.6-13.7,42.3c-1.7,4.2-6.6,6.3-10.8,4.5c-4.2-1.7-6.3-6.6-4.5-10.8c5.2-13.9,8.2-27.5,10-39.5
		c2.4-15.9,4.3-28.8,4.2-35.4h46.7l22.2,5.4c3.1,0.8,5.9,2.4,8,4.7c0.3,0.3,0.5,0.6,0.8,0.9L263.8,617.9L263.8,617.9z" style="fill:#142664;"/>
	<path d="M263.8,611.3v11.2c-3.1,0-5.7,0-7.1,0c-0.6,0-1.1-0.5-1.1-1.1l0-10.1L263.8,611.3L263.8,611.3z" style="fill:#FF2E93;"/>
	<path d="M171.6,635.4l15.3,6.1c0,0,0.1,1.9,0.2,3.1c0,0.5,0.3,0.9,0.8,1.2c2.2,1,3.5,2.5,4.4,3.9c-0.4,0-0.4,0,0,0
		c0.4,0.7,0.7,1.3,0.9,1.9c0.1,0.4,0,0.8-0.2,1.1c-0.2,0.3-0.6,0.5-1,0.5c-3.1,0.1-9.3,0.1-11.1,0.1c-0.3,0-0.6-0.1-0.9-0.3
		c-1.7-1.4-8.8-7.3-11.2-9.3c-0.5-0.4-0.6-1.1-0.3-1.6L171.6,635.4L171.6,635.4z" style="fill:#FF2E93;"/>
	<path d="M263.8,552.3c-5.9-1.3-11-3.2-15.5-5.4c-19.4-9.7-26.1-26.3-26.1-26.3c-2.2-5.7,0.6-12.2,6.3-14.4
		c5.7-2.2,12.2,0.6,14.4,6.3c0,0,3.4,10.3,14.8,17.4c1.8,1.1,3.8,2.2,6,3.1L263.8,552.3L263.8,552.3z" style="fill:#FFFFFF;"/>
	<path d="M159.2,560.4c0.5,0,1,0.2,1.4,0.5c0,0,4.9,3.9,5.9,10.4c0.2,1.2-0.7,2.3-1.9,2.5c-1.2,0.2-2.3-0.7-2.5-1.9
		c-0.1-0.8-0.3-1.5-0.5-2.1c-0.2-0.7-0.9-1-1.6-0.9c-0.7,0.1-1.1,0.8-1.1,1.5c0.3,2.8,0.9,6.1,2.2,9.8c0.1,0.4,0.1,0.9-0.2,1.3
		c-0.3,0.4-0.7,0.6-1.1,0.6c-2.5-0.3-7.2-1.3-12.6-5.6c-0.2-0.2-0.3-0.4-0.4-0.6c-0.5-1.4-1.9-7.2,0.9-15.5L159.2,560.4L159.2,560.4
		L159.2,560.4z" style="fill:#FF2E93;"/>
	<path d="M235,511.7h-51.2c0,0,1.8,38.5,2.2,47.2c0,1,0.8,1.7,1.8,1.7c7.3,0,35.9,0,43.2,0c1,0,1.8-0.8,1.8-1.7
		C233.3,550.2,235,511.7,235,511.7L235,511.7z" style="fill:#FFFFFF;"/>
	<path d="M187,501.4c5.9-1.7,12.1,1.8,13.7,7.7c1.7,5.9-1.8,12.1-7.7,13.7c0,0-12.3,2.7-21.2,12.5
		c-4.8,5.3-8.9,12.6-9.3,22.7c0,4.6-3.7,4-8.3,4c-4.6,0-8.3,0.6-8.3-4c-0.7-15.1,4.4-26.5,10.9-35.1C168.9,507,187,501.4,187,501.4
		L187,501.4z M187,501.4L187,501.4L187,501.4z" style="fill:#FFFFFF;"/>
	<path d="M176.3,506.3c8.5-5.2,20-8.5,32.7-8.5c13.3,0,30.1,3.5,34,14.7c-7.7,9.8-19.8,10.6-33.2,10.6
		C196.1,523.2,183.9,516.5,176.3,506.3L176.3,506.3z" style="fill:#FFFFFF;"/>
	<path d="M223.3,499.9c0,0-2.1-0.6-5.5-1c-2.3-0.3-5.1-0.6-8.3-0.6c-2.6,0-5.4,0.3-8.2,0.6c-1.9,0.2-3.7,0.6-5.5,0.9
		c-1.9,0-3.5,1.5-3.5,3.4c0,1.9,1.5,3.5,3.4,3.5c1.8,0.4,3.6,0.8,5.5,1.1c2.8,0.4,5.7,0.7,8.3,0.7c3.1,0,6-0.3,8.3-0.6
		c3.5-0.5,5.5-1.1,5.5-1.1c1.9,0,3.4-1.6,3.4-3.5C226.8,501.4,225.2,499.9,223.3,499.9z" style="fill:#142664;"/>
	<path d="M196.3,498.3c-0.8-0.3-2.6-2.7-3-5.1c-2.2-14.5,3.9-31.5,3.9-31.5s13.1-7.2,33,1.8c0,0,2.2,18-1.7,31.7
		c-0.4,1.5-1.6,2.7-3.1,3.3c-0.8,0.3-1.7,0.6-2.8,0.8l0.1,3.9c0,0-10.5,3.4-26.5,0L196.3,498.3L196.3,498.3z" style="fill:#FF2E93;"/>
	<path d="M221.2,498.6c0.7-0.1,1.4,0.3,1.6,1c0.2,0.7-0.2,1.5-1.1,1.7c0,0-0.4,0.3-1.3,0.7c-0.6,0.2-1.3,0.4-2.1,0.5
		c-0.7,0-1.4,0-2.2-0.2c-0.5-0.1-0.9-0.3-1.4-0.5c-0.8-0.1-1.3-0.7-1.3-1.5c0.1-0.8,0.7-1.3,1.5-1.3c0.5-0.1,0.8-0.3,1.3-0.3
		c0.7-0.1,1.3-0.3,1.8-0.3c0.7-0.1,1.3,0,1.8,0C220.7,498.5,221.2,498.6,221.2,498.6L221.2,498.6L221.2,498.6z" style="fill:#142664;"/>
	<path d="M210.2,474.6l3.9-0.3c0.7,0.3,1.5,0,1.8-0.7c0.3-0.7,0-1.5-0.7-1.8c-0.4-0.4-0.7-0.6-1.1-0.8
		c-0.3-0.2-0.6-0.2-0.9-0.3c-0.6-0.2-1.2-0.2-1.7-0.2c-0.3,0-0.5,0.1-0.8,0.1c-0.7,0.2-1.2,0.5-1.6,0.8c-0.3,0.3-0.6,0.5-0.7,0.7
		c-0.2,0.3-0.3,0.5-0.3,0.5c-0.6,0.7-0.6,1.5,0,2.1C208.8,475.2,209.7,475.2,210.2,474.6L210.2,474.6z" style="fill:#142664;"/>
	<path d="M225.2,474.8l3.9,0.8c0.6,0.5,1.4,0.4,1.9-0.1c0.5-0.6,0.4-1.4-0.1-1.9c-0.3-0.5-0.5-0.8-0.8-1.1
		c-0.2-0.3-0.5-0.4-0.8-0.6c-0.5-0.3-1-0.5-1.6-0.6c-0.3-0.1-0.5-0.1-0.8-0.1c-0.7,0-1.3,0.1-1.8,0.3c-0.4,0.2-0.7,0.3-0.9,0.5
		c-0.3,0.3-0.4,0.4-0.4,0.4c-0.8,0.5-1,1.3-0.6,2C223.7,475,224.6,475.2,225.2,474.8L225.2,474.8z" style="fill:#142664;"/>
	<path d="M225,478.9c0,0-0.3,0.8-0.3,1.6c0,0.8,0.2,1.6,0.2,1.6c-0.1,1.1,0.8,2,1.9,2.1c1.1,0.1,2-0.8,2.1-1.9
		c0,0,0.3-0.8,0.3-1.6c0-0.8-0.2-1.6-0.2-1.6c0.1-1.1-0.8-2-1.9-2.1C226,477,225.1,477.8,225,478.9L225,478.9z" style="fill:#142664;"/>
	<path d="M210,478.7c0,0-0.3,0.8-0.3,1.6c0,0.8,0.2,1.6,0.2,1.6c-0.1,1.1,0.8,2,1.9,2.1c1.1,0.1,2-0.8,2.1-1.9
		c0,0,0.3-0.8,0.3-1.6c0-0.8-0.2-1.6-0.2-1.6c0.1-1.1-0.8-2-1.9-2.1C211,476.8,210.1,477.6,210,478.7z" style="fill:#142664;"/>
	<path d="M214,491.2c0,0,0.9,1,2.6,1.8c0.9,0.4,1.9,0.7,3.1,0.8c0.6,0,1.3-0.1,2-0.3c1.3-0.4,2.6-1,3.8-2.3
		c0.7-0.5,0.9-1.6,0.3-2.3c-0.5-0.7-1.6-0.9-2.3-0.3c-1.1,0.6-2.1,0.7-3,0.7c-0.2,0-0.5,0-0.7,0c-0.4,0-0.7,0-1,0
		c-1.6-0.2-2.7-0.6-2.7-0.6c-0.7-0.6-1.8-0.4-2.3,0.3C213.1,489.6,213.3,490.6,214,491.2z" style="fill:#142664;"/>
	<path d="M195.7,458.7c1.1-2.6,3.1-5.4,6.8-7.3c20.6-10.7,38.6,10,28.3,22.3l-0.6-8.2c-12.9,5.3-13-2.7-19.9-1.8
		c-6.9,0.9-7.7,8.6-6.3,15.2c0.8,3.6-4.6,3.7-3.9,0.3c0.5-2.5,0-5.2-2.4-4.8c-3.2,0.5-1,5.3-1.2,9.3c-0.1,3.4-3.5,5.3-3.5,5.3
		C183.6,479.7,184.3,462.5,195.7,458.7L195.7,458.7L195.7,458.7z" style="fill:#142664;"/>
	<path d="M236.7,534.9c0,0,0.3-1.2,0.5-2.8c0.1-0.9,0.3-1.9,0.3-2.8c0-0.6,0-1.2,0-1.7c-0.1-2.2-0.3-4-0.3-4
		c0-0.9-0.7-1.7-1.6-1.7c-0.9,0-1.7,0.7-1.7,1.6c0,0-0.4,1.8-0.7,4c-0.1,0.6-0.1,1.1-0.2,1.7c0,1,0,2,0.1,2.9
		c0.1,1.7,0.3,2.9,0.3,2.9c0,0.9,0.7,1.7,1.6,1.7S236.7,535.8,236.7,534.9z" style="fill:#142664;"/>
	<path d="M186.6,528.5c0,0,0.7-0.1,1.9-0.3c0.5-0.1,1.2-0.1,1.9-0.3c0.4-0.1,0.7-0.2,1.1-0.3c0.8-0.3,1.6-0.6,2.6-0.9
		c0.9-0.1,1.6-0.9,1.4-1.8c-0.1-0.9-0.9-1.6-1.8-1.4c-1.1-0.1-2.1-0.1-3.1,0c-0.5,0-0.9,0.1-1.3,0.2c-0.8,0.2-1.5,0.5-2.1,0.8
		c-1.4,0.6-2,1.1-2,1.1c-0.8,0.4-1.2,1.3-0.8,2.2C184.8,528.5,185.8,528.9,186.6,528.5L186.6,528.5z" style="fill:#142664;"/>
	<g>
		<path d="M110.3,205.9H65.7c-1,0-1.8-0.8-1.8-1.8c0-1,0.8-1.8,1.8-1.8H109c1.2-3.8,3.3-7.3,6.1-10.1
			c4.7-4.7,10.9-7.2,17.5-7.2c1,0,1.8,0.8,1.8,1.8s-0.8,1.8-1.8,1.8c-5.6,0-11,2.2-14.9,6.2c-2.7,2.7-4.6,6.1-5.6,9.8
			C111.9,205.3,111.1,205.9,110.3,205.9z" style="fill:#142664;"/>
	</g>
	<g>
		<path d="M318.1,205.9h-44.8c-0.5,0-1.1-0.3-1.4-0.7c-0.3-0.4-0.5-1-0.3-1.5c1.1-4.3,3.3-8.3,6.5-11.4
			c4.7-4.7,10.9-7.2,17.5-7.2c1,0,1.8,0.8,1.8,1.8s-0.8,1.8-1.8,1.8c-5.6,0-11,2.2-14.9,6.2c-2.2,2.2-3.8,4.7-4.9,7.6h42.4
			c1,0,1.8,0.8,1.8,1.8C319.9,205.1,319.1,205.9,318.1,205.9z" style="fill:#142664;"/>
	</g>
	<circle cx="191.6" cy="210.5" r="10.6" style="fill:#142664;"/>
	<circle cx="191.6" cy="210.5" r="4" style="fill:#00E6B3;"/>
	<path d="M310.2,237.4c0-4.6-3.7-8.3-8.3-8.3c-36.7,0-184,0-220.7,0c-4.6,0-8.3,3.7-8.3,8.3c0,7.5,0,17.4,0,17.4h237.3
		V237.4z" style="fill:#142664;"/>
	<g>
		<path d="M295.9,244.6h-19.7c-1.5,0-2.7-1.2-2.7-2.7s1.2-2.7,2.7-2.7h19.7c1.5,0,2.7,1.2,2.7,2.7
			S297.3,244.6,295.9,244.6z" style="fill:#FFFFFF;"/>
	</g>
	<path d="M256.5,246.9c-0.7,0-1.4-0.4-1.7-1c-0.3-0.6-0.3-1.4,0.1-2c1.2-1.9,2.8-4.2,3.9-6c0.4-0.6,1-0.9,1.6-0.9
		c0.7,0,1.3,0.3,1.6,0.9c1.1,1.8,2.7,4.1,3.9,6c0.4,0.6,0.4,1.4,0.1,2c-0.3,0.6-1,1-1.7,1H256.5L256.5,246.9z" style="fill:#FFFFFF;"/>
	<circle cx="84.2" cy="241.9" r="3.4" style="fill:#FFFFFF;"/>
	<circle cx="95.9" cy="241.9" r="3.4" style="fill:#FFFFFF;"/>
	<circle cx="107.6" cy="241.9" r="3.4" style="fill:#FFFFFF;"/>
	<circle cx="344.6" cy="555.9" r="3.4" style="fill:#FF2E93;"/>
	
		<ellipse transform="matrix(0.1602 -0.9871 0.9871 0.1602 -34.9474 442.7883)" cx="242.7" cy="241.9" rx="3.4" ry="3.4" style="fill:#FFFFFF;"/>
	<path d="M129.8,240c0-0.7-0.3-1.3-0.7-1.8c-0.5-0.5-1.1-0.7-1.8-0.7h-4c-0.7,0-1.3,0.3-1.8,0.7
		c-0.5,0.5-0.7,1.1-0.7,1.8v4c0,0.7,0.3,1.3,0.7,1.8c0.5,0.5,1.1,0.7,1.8,0.7h4c0.7,0,1.3-0.3,1.8-0.7c0.5-0.5,0.7-1.1,0.7-1.8V240z
		" style="fill:#FFFFFF;"/>
	<g>
		<path d="M265.6,622.5H262V428c0-4.8-3.9-8.7-8.7-8.7H129.8c-4.8,0-8.7,3.9-8.7,8.7v194.5h-3.6V428
			c0-6.7,5.5-12.2,12.2-12.2h123.6c6.7,0,12.2,5.5,12.2,12.2V622.5z" style="fill:#142664;"/>
	</g>
	<path d="M334,313.6c-3.8,0-6.8-3.1-6.8-6.9c0-14.8,0-49.4,0-64.2c0-3.8,3-6.8,6.8-6.9v0h6.9v78L334,313.6L334,313.6
		L334,313.6z" style="fill:#FFFFFF;"/>
	<path d="M334,336.5h6.9v25.6H334v0c-3.8,0-6.8-3.1-6.8-6.9v-11.9C327.2,339.6,330.2,336.6,334,336.5L334,336.5
		L334,336.5z" style="fill:#FFFFFF;"/>
	<path d="M347.7,242.5c0-3.8-3.1-6.9-6.9-6.9c0,0,0,0,0,0c-3.8,0-6.9,3.1-6.9,6.9c0,14.8,0,49.4,0,64.2
		c0,3.8,3.1,6.9,6.9,6.9c0,0,0,0,0,0c3.8,0,6.9-3.1,6.9-6.9C347.7,291.9,347.7,257.2,347.7,242.5L347.7,242.5z" style="fill:#FF2E93;"/>
	<path d="M347.7,343.4c0-3.8-3.1-6.9-6.9-6.9h0c-3.8,0-6.9,3.1-6.9,6.9v11.9c0,3.8,3.1,6.9,6.9,6.9h0
		c3.8,0,6.9-3.1,6.9-6.9V343.4z" style="fill:#FF2E93;"/>
	<g>
		<path d="M328.2,553.1c-0.2,0-0.5,0-0.7-0.1c-0.7-0.3-1.1-0.9-1.1-1.6v-76c0-1,0.8-1.8,1.8-1.8h17.6
			c1,0,1.8,0.8,1.8,1.8v58.4c0,0.5-0.2,0.9-0.5,1.3l-17.6,17.6C329.1,552.9,328.6,553.1,328.2,553.1z M329.9,477.1V547l14-14v-55.9
			H329.9z M345.7,533.7L345.7,533.7L345.7,533.7z" style="fill:#FF2E93;"/>
	</g>
	<path d="M619.3,518.6v-2.6c0-1.2,1-2.3,2.3-2.3c5.7,0,20.9,0,26.7,0c1.2,0,2.3,1,2.3,2.3c0,7,0,28.4,0,35.4
		c0,1.2-1,2.3-2.3,2.3c-5.7,0-20.9,0-26.7,0c-1.2,0-2.3-1-2.3-2.3v-2.6c-1.8,0-3.4,0-4.9-0.3c-2.4-0.4-4.5-1.4-6.1-3.3
		c-1.8-2.1-3.1-5.6-3.1-11.5c0-6,1.3-9.5,3.1-11.5c1.6-1.9,3.6-2.9,6.1-3.3C615.9,518.7,617.5,518.6,619.3,518.6L619.3,518.6z
		 M619.3,525.3c-1,0-2,0-3,0.1c-1.1,0.1-2.2,0.3-2.9,1.1c-1.1,1.3-1.5,3.5-1.5,7.2s0.4,5.9,1.5,7.2c0.7,0.8,1.8,1,2.9,1.1
		c0.9,0.1,1.9,0.1,3,0.1V525.3L619.3,525.3z" style="fill:#142664;"/>
	<path d="M690.6,367.7c0,0-0.2,8.7-0.4,20.4c-0.1,6.2-0.2,13.3-0.2,20.4c0,4.1,0,8.3,0.1,12.3
		c0.2,15.6,0.5,28.6,0.5,28.6c0,0.9,0.7,1.6,1.6,1.6c0.9,0,1.6-0.7,1.6-1.6c0,0,0.3-13,0.5-28.6c0-4,0.1-8.1,0.1-12.3
		c0-7.1-0.1-14.2-0.2-20.4c-0.2-11.7-0.4-20.4-0.4-20.4c0-0.9-0.7-1.6-1.6-1.6C691.3,366,690.6,366.8,690.6,367.7L690.6,367.7z" style="fill:#142664;"/>
	<path d="M726.6,389.4c7.4,2,10.7,13.4,1.4,48.3c-9.3,34.8-27.8,79.9-35.2,77.9c-7.4-2-0.9-50.3,8.5-85.1
		C710.5,395.7,719.2,387.4,726.6,389.4L726.6,389.4z" style="fill:#142664;"/>
	<path d="M659.5,412.6c-8.4,2.2-13,12.1-5.4,40.5c7.6,28.4,24.6,64.7,33,62.4c8.4-2.2,5-42.2-2.6-70.6
		C676.8,416.6,667.8,410.4,659.5,412.6L659.5,412.6z" style="fill:#142664;"/>
	<path d="M738.1,436.9c6.6,3.8,8.2,13.5-5.1,36.6c-13.4,23.1-36.6,51-43.3,47.2c-6.6-3.8,5.9-37.9,19.3-61.1
		C722.3,436.6,731.5,433.1,738.1,436.9L738.1,436.9z" style="fill:#FF2E93;"/>
	<path d="M695.6,512.3c0,0,4.2-6.5,9.7-15.3c2.9-4.7,6.3-10,9.5-15.4c1.9-3.1,3.8-6.3,5.5-9.4c7-12,12.7-22,12.7-22
		c0.5-0.8,0.2-1.8-0.6-2.3c-0.8-0.5-1.8-0.2-2.3,0.6c0,0-6.2,9.7-13.5,21.5c-1.9,3-3.8,6.1-5.7,9.3c-3.2,5.4-6.4,10.8-9.2,15.6
		c-5.2,9-9,15.7-9,15.7c-0.5,0.8-0.2,1.8,0.6,2.3C694.2,513.4,695.2,513.1,695.6,512.3L695.6,512.3z" style="fill:#142664;"/>
	<path d="M690.6,512.5c0,0-2.4-8.6-5.7-20.2c-1.8-6.2-3.8-13.2-5.8-20.1c-1.2-4.1-2.5-8.1-3.7-12
		c-4.8-15.3-8.9-28-8.9-28c-0.3-0.9-1.2-1.4-2-1.1c-0.9,0.3-1.4,1.2-1.1,2.1c0,0,3.6,12.8,8,28.2c1.1,3.9,2.3,8,3.5,12.1
		c2.1,7,4.3,13.9,6.2,20c3.6,11.5,6.4,20,6.4,20c0.3,0.9,1.2,1.4,2,1.1C690.4,514.2,690.9,513.3,690.6,512.5L690.6,512.5z" style="fill:#FF2E93;"/>
	<path d="M717.2,507.9c0.1-1-0.2-2-0.9-2.8c-0.7-0.8-1.7-1.2-2.7-1.2c-9.1,0-31.5,0-40.6,0c-1,0-2,0.4-2.7,1.2
		c-0.7,0.8-1,1.8-0.9,2.8c0.7,6.8,2,21,3,31.8c0.8,8,7.4,14,15.4,14c3.5,0,7.4,0,10.9,0c8,0,14.7-6.1,15.4-14
		C715.2,528.9,716.6,514.7,717.2,507.9L717.2,507.9z" style="fill:#FFFFFF;"/>
	<path d="M722.6,400c0,0-1.7,5.2-3.9,12.3c-1.2,3.8-2.5,8.1-3.7,12.4c-0.7,2.5-1.4,5.1-2,7.5
		c-2.5,9.6-4.5,17.6-4.5,17.6c-0.2,0.9,0.3,1.8,1.1,2c0.9,0.2,1.8-0.3,2-1.1c0,0,2.5-7.8,5.4-17.3c0.7-2.4,1.5-4.9,2.2-7.4
		c1.2-4.3,2.4-8.7,3.3-12.5c1.9-7.2,3.2-12.5,3.2-12.5c0.2-0.9-0.3-1.8-1.1-2C723.8,398.6,722.9,399.1,722.6,400L722.6,400z" style="fill:#FF2E93;"/>
	<path d="M715.5,526.6h-44.3l-0.9-8.9h46L715.5,526.6z" style="fill:#FF2E93;"/>
	<g>
		<path d="M89.8,634.6c-0.4,0-0.9-0.1-1.3-0.3c-1.9-1.1-2.9-2.8-3.1-3.1c-0.7-1.3-0.2-2.9,1.1-3.6
			c1.3-0.7,2.9-0.2,3.6,1c0.1,0.2,0.5,0.7,1,1c1.3,0.7,1.7,2.4,1,3.6C91.7,634.2,90.8,634.6,89.8,634.6z" style="fill:#142664;"/>
	</g>
	<g>
		<path d="M101.6,634.6c-0.4,0-0.9-0.1-1.3-0.3c-1.9-1.1-2.9-2.8-3.1-3.1c-0.7-1.3-0.2-2.9,1.1-3.6
			c1.3-0.7,2.9-0.2,3.6,1c0.1,0.2,0.5,0.7,1,1c1.3,0.7,1.7,2.4,1,3.6C103.5,634.2,102.6,634.6,101.6,634.6z" style="fill:#142664;"/>
	</g>
	<g>
		<path d="M113.4,634.6c-0.4,0-0.9-0.1-1.3-0.3c-1.9-1.1-2.9-2.8-3.1-3.1c-0.7-1.3-0.2-2.9,1.1-3.6
			c1.3-0.7,2.9-0.2,3.6,1c0.1,0.2,0.5,0.7,1,1c1.3,0.7,1.7,2.4,1,3.6C115.3,634.2,114.4,634.6,113.4,634.6z" style="fill:#142664;"/>
	</g>
	<g>
		<rect x="334" y="272.8" width="13.7" height="3.6" style="fill:#142664;"/>
	</g>
	<path d="M478.3,617.7v-49c0-1.3,0.5-2.5,1.4-3.4c2.7-2.7,8.5-8.5,11.2-11.2c0.9-0.9,2.1-1.4,3.4-1.4
		c9.2,0,47.9,0,61.5,0c1.3,0,2.5,0.5,3.4,1.4c0.9,0.9,1.4,2.1,1.4,3.4v49c0,1.3-0.5,2.5-1.4,3.4c-2.7,2.7-8.5,8.5-11.2,11.2
		c-0.9,0.9-2.1,1.4-3.4,1.4c-9.2,0-47.9,0-61.5,0c-1.3,0-2.5-0.5-3.4-1.4C478.8,620.2,478.3,619,478.3,617.7L478.3,617.7z" style="fill:#FF2E93;"/>
	<path d="M547.8,552.8c1.2,0,2.3-0.5,3.1-1.3c0.8-0.8,1.3-2,1.3-3.1c0-9.7,0-31.8,0-31.8c0-1.3,0.5-2.5,1.4-3.4
		c2.7-2.7,8.5-8.5,11.2-11.2c0.9-0.9,2.1-1.4,3.4-1.4c9.2,0-4.5,0,9.1,0c1.3,0,2.5,0.5,3.4,1.4c0.9,0.9,1.4,2.1,1.4,3.4v101.2
		c0,1.3-0.5,2.5-1.4,3.4c-2.7,2.7-8.5,8.5-11.2,11.2c-0.9,0.9-2.1,1.4-3.4,1.4c-9.2,0-47.9,0-61.5,0c-1.3,0-2.5-0.5-3.4-1.4
		c-0.9-0.9-1.4-2.1-1.4-3.4v-49c0-1.3,0.5-2.5,1.4-3.4c2.7-2.7,8.5-8.5,11.2-11.2c0.9-0.9,2.1-1.4,3.4-1.4
		C515.8,552.8,538.1,552.8,547.8,552.8L547.8,552.8z" style="fill:#142664;"/>
	<g>
		<path d="M478.3,619.5c-1,0-1.8-0.8-1.8-1.8v-49c0-1.7,0.7-3.4,1.9-4.6l11.2-11.2c1.2-1.2,2.9-1.9,4.6-1.9h12.6
			c1,0,1.8,0.8,1.8,1.8s-0.8,1.8-1.8,1.8h-12.6c-0.8,0-1.5,0.3-2.1,0.9L481,566.6c-0.6,0.6-0.9,1.3-0.9,2.1v49
			C480.1,618.7,479.3,619.5,478.3,619.5z" style="fill:#142664;"/>
	</g>
	<g>
		<path d="M560.1,517.8h-80.7c-1,0-1.8-0.8-1.8-1.8s0.8-1.8,1.8-1.8h80.7c1,0,1.8,0.8,1.8,1.8S561.1,517.8,560.1,517.8z
			" style="fill:#142664;"/>
	</g>
	<g>
		<path d="M746.6,624.3H347.9c-1,0-1.8-0.8-1.8-1.8s0.8-1.8,1.8-1.8h398.7c1,0,1.8,0.8,1.8,1.8S747.5,624.3,746.6,624.3
			z" style="fill:#142664;"/>
	</g>
	<path d="M187.7,644.4c0,0-0.4-0.3-1.2-0.7c-0.4-0.2-0.9-0.3-1.4-0.3c-0.3,0-0.6,0-0.9,0.1c-0.8,0.2-1.5,0.5-2.1,1
		c-0.8,0.4-1.2,1.4-0.8,2.2c0.4,0.8,1.4,1.2,2.2,0.8c0.2,0,0.4,0.1,0.6,0.1c0.3,0,0.6,0.2,0.9,0.2c0.3,0,0.6-0.1,0.9-0.1
		c0.7,0,1.1-0.1,1.1-0.1c0.7,0.2,1.7-0.2,1.9-1.1c0.3-0.9-0.2-1.8-1-2.1L187.7,644.4L187.7,644.4z" style="fill:#142664;"/>
	<g>
		<path d="M508,569.6h-21.6c-1,0-1.8-0.8-1.8-1.8c0-1,0.8-1.8,1.8-1.8H508c1,0,1.8,0.8,1.8,1.8
			C509.7,568.8,508.9,569.6,508,569.6z" style="fill:#142664;"/>
	</g>
	<g>
		<path d="M426.9,569.6h-21.6c-1,0-1.8-0.8-1.8-1.8c0-1,0.8-1.8,1.8-1.8h21.6c1,0,1.8,0.8,1.8,1.8
			C428.7,568.8,427.9,569.6,426.9,569.6z" style="fill:#142664;"/>
	</g>
	<rect x="526" y="247.6" width="52.8" height="70.2" style="fill:#142664;"/>
	<path d="M583.1,237.4h-61.5c-3.7,0-6.7,3-6.7,6.7h0v77.3c0,3.7,3,6.7,6.7,6.7h61.5c3.7,0,6.7-3,6.7-6.7V244
		C589.8,240.4,586.8,237.4,583.1,237.4z M576.5,314.7h-48.1v-63.9h48.1V314.7z" style="fill:#FF2E93;"/>
	<path d="M579.5,250c0,0,1-0.6,2.2-1.6c0.6-0.5,1.4-1.1,2.1-1.8c0.4-0.4,0.8-0.8,1.1-1.2c1.3-1.6,2.3-3,2.3-3
		c0.6-0.6,0.6-1.7,0-2.3c-0.6-0.6-1.7-0.6-2.3,0c0,0-1.4,1-3,2.3c-0.4,0.3-0.8,0.7-1.2,1.1c-0.7,0.7-1.3,1.4-1.8,2.1
		c-1,1.2-1.6,2.2-1.6,2.2c-0.6,0.6-0.6,1.7,0,2.3C577.8,250.7,578.8,250.7,579.5,250z" style="fill:#142664;"/>
	<path d="M525,315.4c0,0-1,0.6-2.2,1.6c-0.6,0.5-1.4,1.1-2.1,1.8c-0.4,0.4-0.8,0.8-1.1,1.2c-1.4,1.6-2.3,3-2.3,3
		c-0.6,0.6-0.6,1.7,0,2.3c0.6,0.6,1.7,0.6,2.3,0c0,0,1.4-1,3-2.3c0.4-0.3,0.8-0.7,1.2-1.1c0.7-0.7,1.3-1.4,1.8-2.1
		c1-1.2,1.7-2.2,1.7-2.2c0.6-0.6,0.6-1.7,0-2.3C526.7,314.7,525.7,314.7,525,315.4z" style="fill:#142664;"/>
	<path d="M527.4,247.7c0,0-0.6-1-1.7-2.2c-0.5-0.6-1.1-1.4-1.8-2.1c-0.4-0.4-0.8-0.7-1.2-1.1c-1.6-1.3-3-2.3-3-2.3
		c-0.6-0.6-1.7-0.6-2.3,0c-0.6,0.6-0.6,1.7,0,2.3c0,0,1,1.4,2.3,3c0.3,0.4,0.7,0.8,1.1,1.2c0.7,0.7,1.4,1.3,2.1,1.8
		c1.2,1,2.2,1.6,2.2,1.6c0.6,0.6,1.7,0.6,2.3,0C528,249.4,528,248.4,527.4,247.7z" style="fill:#142664;"/>
	<path d="M577.2,317.7c0,0,0.6,1,1.6,2.2c0.5,0.6,1.1,1.4,1.8,2.1c0.4,0.4,0.8,0.8,1.2,1.1c1.6,1.4,3,2.3,3,2.3
		c0.6,0.6,1.7,0.6,2.3,0c0.6-0.6,0.6-1.7,0-2.3c0,0-1-1.4-2.3-3c-0.3-0.4-0.7-0.8-1.1-1.2c-0.7-0.7-1.4-1.3-2.1-1.8
		c-1.2-1-2.2-1.6-2.2-1.6c-0.6-0.6-1.7-0.6-2.3,0C576.5,316,576.5,317.1,577.2,317.7z" style="fill:#142664;"/>
	<g>
		<path d="M543.4,280.3c1.1-0.8,1.5-2.3,0.9-3.5c-1.7-3.8-1.1-8.5,1.9-11.8c4.1-4.5,11.1-4.9,15.6-0.8
			c6,6.8,7.5,15.2,4.3,21.4c-2,3.9-4.2,5.8-7.8,7.3c-1.2,0.5-2,2.5-2.4,4.5c-0.4,2.4-5.2,9.2-12.5,5.6c-6.1-3-7.5-10.2-5.4-15.6
			C539,284.7,541.1,281.9,543.4,280.3L543.4,280.3z" style="fill:#00E6B3;"/>
		<path d="M546.5,290.8c1.9-0.8,4.2,0.2,4.9,2.1c0.8,1.9-0.2,4.2-2.1,4.9c-1.9,0.8-4.2-0.2-4.9-2.1
			C543.6,293.7,544.6,291.5,546.5,290.8L546.5,290.8z" style="fill:#142664;"/>
		<path d="M552.3,267.4c3-1.2,6.5,0.3,7.7,3.3c1.2,3-0.3,6.5-3.3,7.7c-3,1.2-6.5-0.3-7.7-3.3
			C547.8,272.1,549.3,268.6,552.3,267.4L552.3,267.4z" style="fill:#142664;"/>
	</g>
	<path d="M109.1,320.2c-0.3-0.3-0.5-0.8-0.5-1.3c0-0.5,0.2-0.9,0.5-1.3c0.2-0.2,0.4-0.4,0.6-0.6c0.7-0.7,0.7-1.8,0-2.5
		c0,0,0,0-0.1-0.1c-0.7-0.7-1.8-0.7-2.5,0l-11.5,11.5c-2.9-1-6.3-0.3-8.6,2c-3.3,3.3-3.3,8.6,0,11.9c3.3,3.3,8.6,3.3,11.9,0
		c2.3-2.3,3-5.7,2-8.6l1.4-1.4c0.4-0.4,0.4-0.9,0-1.3l0,0c-0.4-0.4-0.4-0.9,0-1.3c0.1-0.1,0.3-0.3,0.4-0.4c0.3-0.3,0.9-0.3,1.2,0
		c0.1,0.1,0.4,0.2,0.5,0.1c0.2-0.1,0.4-0.2,0.4-0.4c0.2-0.6,0.4-1.4,0.6-2c0.2-0.6,0.6-1.1,1.2-1.2c1-0.3,2.4-0.7,2.8-0.8
		c0.1,0,0.2-0.1,0.2-0.1c0.3-0.3,0.4-0.6,0.4-0.9c0-0.4-0.1-0.7-0.4-0.9C109.4,320.5,109.3,320.4,109.1,320.2z M93.9,337.3
		c-1.2,1.2-3.1,1.2-4.3,0c-1.2-1.2-1.2-3.1,0-4.3c1.2-1.2,3.1-1.2,4.3,0C95.1,334.2,95.1,336.1,93.9,337.3z" style="fill:#142664;"/>
</g>
</svg>